<?xml version="1.0" encoding="UTF-8" standalone="no"?>
<!DOCTYPE svg PUBLIC "-//W3C//DTD SVG 1.1//EN"
"http://www.w3.org/Graphics/SVG/1.1/DTD/svg11.dtd">
<svg viewBox="0 0 909 1286" version="1.1" xmlns="http://www.w3.org/2000/svg" xmlns:xlink="http://www.w3.org/1999/xlink">
<defs>
<clipPath id="c0_34"><path d="M0,1286.3V0H909.7V1286.3Z" /></clipPath>
<style type="text/css"><![CDATA[
.g0_34{
fill: #FFFFFF;
}
.g1_34{
fill: #1F3331;
}
]]></style>
</defs>
<path fill-rule="evenodd" d="M80.3,436.4H857.2V55H80.3V436.4Z" class="g0_34" />
<path fill-rule="evenodd" d="M80.3,479H857.2V436.4H80.3V479Z" class="g0_34" />
<path fill-rule="evenodd" d="M80.3,500.3H857.2V479H80.3v21.3Z" class="g0_34" />
<path fill-rule="evenodd" d="M52.8,559.3H857.2V521.6H52.8v37.7Z" class="g0_34" />
<g clip-path="url(#c0_34)">
<g fill="#1F3331" >
<use xlink:href="#f0_1g" transform="matrix(12,0,0,12,55,538.8)" />
<use xlink:href="#f0_1f" transform="matrix(12,0,0,12,66,538.8)" />
<use xlink:href="#f0_1j" transform="matrix(12,0,0,12,80.3,538.8)" />
<use xlink:href="#f0_1k" transform="matrix(12,0,0,12,90.6,538.8)" />
<use xlink:href="#f0_16" transform="matrix(12,0,0,12,107.5,538.8)" />
<use xlink:href="#f0_15" transform="matrix(12,0,0,12,118.5,538.8)" />
<use xlink:href="#f0_1i" transform="matrix(12,0,0,12,130.6,538.8)" />
<use xlink:href="#f0_1k" transform="matrix(12,0,0,12,143.8,538.8)" />
<use xlink:href="#f0_19" transform="matrix(12,0,0,12,156.2,538.8)" />
<use xlink:href="#f0_1c" transform="matrix(12,0,0,12,163.2,538.8)" />
<use xlink:href="#f0_19" transform="matrix(12,0,0,12,175.6,538.8)" />
<use xlink:href="#f0_1q" transform="matrix(12,0,0,12,182.9,538.8)" />
<use xlink:href="#f0_11" transform="matrix(12,0,0,12,194.7,538.8)" />
<use xlink:href="#f0_1k" transform="matrix(12,0,0,12,207.9,538.8)" />
<use xlink:href="#f0_19" transform="matrix(12,0,0,12,220.3,538.8)" />
<use xlink:href="#f0_1f" transform="matrix(12,0,0,12,227.3,538.8)" />
<use xlink:href="#f0_1e" transform="matrix(12,0,0,12,241.6,538.8)" />
<use xlink:href="#f0_u" transform="matrix(12,0,0,12,254.8,538.8)" />
<use xlink:href="#f0_1j" transform="matrix(12,0,0,12,265.9,538.8)" />
<use xlink:href="#f0_1k" transform="matrix(12,0,0,12,276.2,538.8)" />
<use xlink:href="#f0_1i" transform="matrix(12,0,0,12,288.3,538.8)" />
<use xlink:href="#f0_1l" transform="matrix(12,0,0,12,301.5,538.8)" />
<use xlink:href="#f0_13" transform="matrix(12,0,0,12,314.7,538.8)" />
<use xlink:href="#f0_1k" transform="matrix(12,0,0,12,327.9,538.8)" />
<use xlink:href="#f0_1i" transform="matrix(12,0,0,12,340,538.8)" />
<use xlink:href="#f0_15" transform="matrix(12,0,0,12,353.2,538.8)" />
<use xlink:href="#f0_11" transform="matrix(12,0,0,12,370,538.8)" />
<use xlink:href="#f0_1e" transform="matrix(12,0,0,12,383.3,538.8)" />
<use xlink:href="#f0_14" transform="matrix(12,0,0,12,396.4,538.8)" />
<use xlink:href="#f0_15" transform="matrix(12,0,0,12,414.4,538.8)" />
<use xlink:href="#f0_1m" transform="matrix(12,0,0,12,426.8,538.8)" />
<use xlink:href="#f0_15" transform="matrix(12,0,0,12,440.1,538.8)" />
<use xlink:href="#f0_1e" transform="matrix(12,0,0,12,452.1,538.8)" />
<use xlink:href="#f0_1k" transform="matrix(12,0,0,12,465.4,538.8)" />
<use xlink:href="#f0_1j" transform="matrix(12,0,0,12,477.4,538.8)" />
</g>
</g>
<path fill-rule="evenodd" d="M55,542.5H488.2v-1.9H55v1.9Z" class="g1_34" />
<path fill-rule="evenodd" d="M52.8,583.9H857.2V559.3H52.8v24.6Z" class="g0_34" />
<g clip-path="url(#c0_34)">
<g fill="#1F3331" >
<use xlink:href="#f0_15" transform="matrix(12,0,0,12,55,576.6)" />
<use xlink:href="#f0_2a" transform="matrix(12,0,0,12,67.1,576.6)" />
<use xlink:href="#f0_20" transform="matrix(12,0,0,12,77.4,576.6)" />
<use xlink:href="#f0_2b" transform="matrix(12,0,0,12,87.6,576.6)" />
<use xlink:href="#f0_2f" transform="matrix(12,0,0,12,96.8,576.6)" />
<use xlink:href="#f0_2c" transform="matrix(12,0,0,12,103.8,576.6)" />
<use xlink:href="#f0_21" transform="matrix(12,0,0,12,114,576.6)" />
<use xlink:href="#f0_2e" transform="matrix(12,0,0,12,122.4,576.6)" />
<use xlink:href="#f0_29" transform="matrix(12,0,0,12,130.1,576.6)" />
<use xlink:href="#f0_2f" transform="matrix(12,0,0,12,145.5,576.6)" />
</g>
</g>
<path fill-rule="evenodd" d="M55,580.2h98v-1.8H55v1.8Z" class="g1_34" />
<path fill-rule="evenodd" d="M80.3,626.1H857.2V604.8H80.3v21.3Z" class="g0_34" />
<g clip-path="url(#c0_34)">
<g fill="#1F3331" >
<use xlink:href="#f1_3d" transform="matrix(10.1,0,0,10.1,82.5,622.1)" />
<use xlink:href="#f2_15" transform="matrix(12,0,0,12,110,622.1)" />
<use xlink:href="#f2_2a" transform="matrix(12,0,0,12,121.4,622.1)" />
<use xlink:href="#f2_20" transform="matrix(12,0,0,12,130.2,622.1)" />
<use xlink:href="#f2_2b" transform="matrix(12,0,0,12,139.4,622.1)" />
<use xlink:href="#f2_2f" transform="matrix(12,0,0,12,148.9,622.1)" />
<use xlink:href="#f2_2c" transform="matrix(12,0,0,12,155.8,622.1)" />
<use xlink:href="#f2_21" transform="matrix(12,0,0,12,165,622.1)" />
<use xlink:href="#f2_2e" transform="matrix(12,0,0,12,173.1,622.1)" />
<use xlink:href="#f2_29" transform="matrix(12,0,0,12,179.6,622.1)" />
<use xlink:href="#f2_25" transform="matrix(12,0,0,12,203.8,622.1)" />
<use xlink:href="#f2_2f" transform="matrix(12,0,0,12,208.6,622.1)" />
<use xlink:href="#f2_1x" transform="matrix(12,0,0,12,225.8,622.1)" />
<use xlink:href="#f2_2a" transform="matrix(12,0,0,12,244.1,622.1)" />
<use xlink:href="#f2_2h" transform="matrix(12,0,0,12,252.9,622.1)" />
<use xlink:href="#f2_2g" transform="matrix(12,0,0,12,262.1,622.1)" />
<use xlink:href="#f2_2e" transform="matrix(12,0,0,12,267.6,622.1)" />
<use xlink:href="#f2_25" transform="matrix(12,0,0,12,273.8,622.1)" />
<use xlink:href="#f2_2g" transform="matrix(12,0,0,12,278.2,622.1)" />
<use xlink:href="#f2_25" transform="matrix(12,0,0,12,284,622.1)" />
<use xlink:href="#f2_2i" transform="matrix(12,0,0,12,288.8,622.1)" />
<use xlink:href="#f2_21" transform="matrix(12,0,0,12,297.6,622.1)" />
<use xlink:href="#f2_2g" transform="matrix(12,0,0,12,315.9,622.1)" />
<use xlink:href="#f2_25" transform="matrix(12,0,0,12,321.4,622.1)" />
<use xlink:href="#f2_2f" transform="matrix(12,0,0,12,326.2,622.1)" />
<use xlink:href="#f2_2f" transform="matrix(12,0,0,12,333.1,622.1)" />
<use xlink:href="#f2_2h" transform="matrix(12,0,0,12,340.1,622.1)" />
<use xlink:href="#f2_21" transform="matrix(12,0,0,12,349.3,622.1)" />
<use xlink:href="#f2_22" transform="matrix(12,0,0,12,367.9,622.1)" />
<use xlink:href="#f2_2b" transform="matrix(12,0,0,12,373.4,622.1)" />
<use xlink:href="#f2_2e" transform="matrix(12,0,0,12,383,622.1)" />
<use xlink:href="#f2_29" transform="matrix(12,0,0,12,389.5,622.1)" />
<use xlink:href="#f2_21" transform="matrix(12,0,0,12,403.1,622.1)" />
<use xlink:href="#f2_20" transform="matrix(12,0,0,12,411.2,622.1)" />
<use xlink:href="#f2_22" transform="matrix(12,0,0,12,431,622.1)" />
<use xlink:href="#f2_2e" transform="matrix(12,0,0,12,436.5,622.1)" />
<use xlink:href="#f2_2b" transform="matrix(12,0,0,12,442.7,622.1)" />
<use xlink:href="#f2_29" transform="matrix(12,0,0,12,452.6,622.1)" />
<use xlink:href="#f2_2i" transform="matrix(12,0,0,12,476.4,622.1)" />
<use xlink:href="#f2_21" transform="matrix(12,0,0,12,485.2,622.1)" />
<use xlink:href="#f2_23" transform="matrix(12,0,0,12,493.2,622.1)" />
<use xlink:href="#f2_21" transform="matrix(12,0,0,12,502.4,622.1)" />
<use xlink:href="#f2_2g" transform="matrix(12,0,0,12,510.5,622.1)" />
<use xlink:href="#f2_1x" transform="matrix(12,0,0,12,516,622.1)" />
<use xlink:href="#f2_2g" transform="matrix(12,0,0,12,524,622.1)" />
<use xlink:href="#f2_25" transform="matrix(12,0,0,12,529.5,622.1)" />
<use xlink:href="#f2_2i" transform="matrix(12,0,0,12,534.3,622.1)" />
<use xlink:href="#f2_21" transform="matrix(12,0,0,12,543.1,622.1)" />
<use xlink:href="#f2_22" transform="matrix(12,0,0,12,561.8,622.1)" />
<use xlink:href="#f2_21" transform="matrix(12,0,0,12,567.6,622.1)" />
<use xlink:href="#f2_2e" transform="matrix(12,0,0,12,575.7,622.1)" />
<use xlink:href="#f2_2g" transform="matrix(12,0,0,12,581.9,622.1)" />
<use xlink:href="#f2_25" transform="matrix(12,0,0,12,587.4,622.1)" />
<use xlink:href="#f2_28" transform="matrix(12,0,0,12,592.1,622.1)" />
<use xlink:href="#f2_25" transform="matrix(12,0,0,12,597.2,622.1)" />
<use xlink:href="#f2_2m" transform="matrix(12,0,0,12,602,622.1)" />
<use xlink:href="#f2_1x" transform="matrix(12,0,0,12,610.1,622.1)" />
<use xlink:href="#f2_2g" transform="matrix(12,0,0,12,618.2,622.1)" />
<use xlink:href="#f2_25" transform="matrix(12,0,0,12,624,622.1)" />
<use xlink:href="#f2_2b" transform="matrix(12,0,0,12,628.4,622.1)" />
<use xlink:href="#f2_2a" transform="matrix(12,0,0,12,637.9,622.1)" />
<use xlink:href="#f2_i" transform="matrix(12,0,0,12,646.7,622.1)" />
<use xlink:href="#f2_15" transform="matrix(12,0,0,12,661.7,622.1)" />
<use xlink:href="#f2_2a" transform="matrix(12,0,0,12,673.1,622.1)" />
<use xlink:href="#f2_20" transform="matrix(12,0,0,12,681.9,622.1)" />
<use xlink:href="#f2_2b" transform="matrix(12,0,0,12,691.1,622.1)" />
<use xlink:href="#f2_2f" transform="matrix(12,0,0,12,700.6,622.1)" />
<use xlink:href="#f2_2c" transform="matrix(12,0,0,12,707.5,622.1)" />
<use xlink:href="#f2_21" transform="matrix(12,0,0,12,716.7,622.1)" />
<use xlink:href="#f2_2e" transform="matrix(12,0,0,12,724.8,622.1)" />
<use xlink:href="#f2_29" transform="matrix(12,0,0,12,731.4,622.1)" />
<use xlink:href="#f2_25" transform="matrix(12,0,0,12,755.5,622.1)" />
<use xlink:href="#f2_2f" transform="matrix(12,0,0,12,760.3,622.1)" />
<use xlink:href="#f2_29" transform="matrix(12,0,0,12,777.9,622.1)" />
<use xlink:href="#f2_21" transform="matrix(12,0,0,12,791.5,622.1)" />
<use xlink:href="#f2_1x" transform="matrix(12,0,0,12,799.5,622.1)" />
<use xlink:href="#f2_2a" transform="matrix(12,0,0,12,807.9,622.1)" />
<use xlink:href="#f2_2g" transform="matrix(12,0,0,12,816.7,622.1)" />
<use xlink:href="#f2_22" transform="matrix(12,0,0,12,832.5,622.1)" />
<use xlink:href="#f2_2b" transform="matrix(12,0,0,12,838,622.1)" />
<use xlink:href="#f2_2e" transform="matrix(12,0,0,12,847.5,622.1)" />
</g>
</g>
<path fill-rule="evenodd" d="M80.3,647.3H857.2V626.1H80.3v21.2Z" class="g0_34" />
<g clip-path="url(#c0_34)">
<g fill="#1F3331" >
<use xlink:href="#f2_2a" transform="matrix(12,0,0,12,110,643)" />
<use xlink:href="#f2_2b" transform="matrix(12,0,0,12,118.8,643)" />
<use xlink:href="#f2_2h" transform="matrix(12,0,0,12,128.4,643)" />
<use xlink:href="#f2_2e" transform="matrix(12,0,0,12,137.5,643)" />
<use xlink:href="#f2_25" transform="matrix(12,0,0,12,144.1,643)" />
<use xlink:href="#f2_2f" transform="matrix(12,0,0,12,148.5,643)" />
<use xlink:href="#f2_24" transform="matrix(12,0,0,12,155.8,643)" />
<use xlink:href="#f2_25" transform="matrix(12,0,0,12,165,643)" />
<use xlink:href="#f2_2a" transform="matrix(12,0,0,12,169.7,643)" />
<use xlink:href="#f2_23" transform="matrix(12,0,0,12,178.9,643)" />
<use xlink:href="#f2_2g" transform="matrix(12,0,0,12,192.8,643)" />
<use xlink:href="#f2_24" transform="matrix(12,0,0,12,198.3,643)" />
<use xlink:href="#f2_21" transform="matrix(12,0,0,12,207.1,643)" />
<use xlink:href="#f2_21" transform="matrix(12,0,0,12,219.9,643)" />
<use xlink:href="#f2_29" transform="matrix(12,0,0,12,228.3,643)" />
<use xlink:href="#f2_1y" transform="matrix(12,0,0,12,242.3,643)" />
<use xlink:href="#f2_2e" transform="matrix(12,0,0,12,251.1,643)" />
<use xlink:href="#f2_2l" transform="matrix(12,0,0,12,257.7,643)" />
<use xlink:href="#f2_2b" transform="matrix(12,0,0,12,266.1,643)" />
<use xlink:href="#f2_i" transform="matrix(12,0,0,12,275.6,643)" />
<use xlink:href="#f2_19" transform="matrix(12,0,0,12,285.1,643)" />
<use xlink:href="#f2_2g" transform="matrix(12,0,0,12,291,643)" />
<use xlink:href="#f2_25" transform="matrix(12,0,0,12,301.2,643)" />
<use xlink:href="#f2_2f" transform="matrix(12,0,0,12,305.6,643)" />
<use xlink:href="#f2_23" transform="matrix(12,0,0,12,317.3,643)" />
<use xlink:href="#f2_21" transform="matrix(12,0,0,12,326.5,643)" />
<use xlink:href="#f2_2a" transform="matrix(12,0,0,12,334.9,643)" />
<use xlink:href="#f2_21" transform="matrix(12,0,0,12,343.7,643)" />
<use xlink:href="#f2_2e" transform="matrix(12,0,0,12,351.8,643)" />
<use xlink:href="#f2_1x" transform="matrix(12,0,0,12,358,643)" />
<use xlink:href="#f2_28" transform="matrix(12,0,0,12,366.4,643)" />
<use xlink:href="#f2_28" transform="matrix(12,0,0,12,371.2,643)" />
<use xlink:href="#f2_2l" transform="matrix(12,0,0,12,376.3,643)" />
<use xlink:href="#f2_2g" transform="matrix(12,0,0,12,389.8,643)" />
<use xlink:href="#f2_2e" transform="matrix(12,0,0,12,395.3,643)" />
<use xlink:href="#f2_25" transform="matrix(12,0,0,12,401.5,643)" />
<use xlink:href="#f2_2c" transform="matrix(12,0,0,12,405.9,643)" />
<use xlink:href="#f2_28" transform="matrix(12,0,0,12,415.5,643)" />
<use xlink:href="#f2_2b" transform="matrix(12,0,0,12,419.9,643)" />
<use xlink:href="#f2_25" transform="matrix(12,0,0,12,429.7,643)" />
<use xlink:href="#f2_20" transform="matrix(12,0,0,12,434.5,643)" />
</g>
</g>
<path fill-rule="evenodd" d="M80.3,668.2H857.2V647.4H80.3v20.8Z" class="g0_34" />
<g clip-path="url(#c0_34)">
<g fill="#1F3331" >
<use xlink:href="#f1_3d" transform="matrix(10.1,0,0,10.1,82.5,664.2)" />
<use xlink:href="#f2_1k" transform="matrix(12,0,0,12,110,664.2)" />
<use xlink:href="#f2_24" transform="matrix(12,0,0,12,121.4,664.2)" />
<use xlink:href="#f2_21" transform="matrix(12,0,0,12,130.2,664.2)" />
<use xlink:href="#f2_21" transform="matrix(12,0,0,12,142.3,664.2)" />
<use xlink:href="#f2_2a" transform="matrix(12,0,0,12,150.4,664.2)" />
<use xlink:href="#f2_20" transform="matrix(12,0,0,12,159.2,664.2)" />
<use xlink:href="#f2_2b" transform="matrix(12,0,0,12,168.3,664.2)" />
<use xlink:href="#f2_2f" transform="matrix(12,0,0,12,177.8,664.2)" />
<use xlink:href="#f2_2c" transform="matrix(12,0,0,12,184.8,664.2)" />
<use xlink:href="#f2_21" transform="matrix(12,0,0,12,194,664.2)" />
<use xlink:href="#f2_2e" transform="matrix(12,0,0,12,202,664.2)" />
<use xlink:href="#f2_29" transform="matrix(12,0,0,12,208.6,664.2)" />
<use xlink:href="#f2_29" transform="matrix(12,0,0,12,226.6,664.2)" />
<use xlink:href="#f2_1x" transform="matrix(12,0,0,12,240.5,664.2)" />
<use xlink:href="#f2_2l" transform="matrix(12,0,0,12,248.9,664.2)" />
<use xlink:href="#f2_2f" transform="matrix(12,0,0,12,261.4,664.2)" />
<use xlink:href="#f2_24" transform="matrix(12,0,0,12,268.7,664.2)" />
<use xlink:href="#f2_2b" transform="matrix(12,0,0,12,277.5,664.2)" />
<use xlink:href="#f2_2j" transform="matrix(12,0,0,12,287,664.2)" />
<use xlink:href="#f2_2g" transform="matrix(12,0,0,12,304.3,664.2)" />
<use xlink:href="#f2_24" transform="matrix(12,0,0,12,309.7,664.2)" />
<use xlink:href="#f2_21" transform="matrix(12,0,0,12,318.5,664.2)" />
<use xlink:href="#f2_21" transform="matrix(12,0,0,12,330.6,664.2)" />
<use xlink:href="#f2_22" transform="matrix(12,0,0,12,338.7,664.2)" />
<use xlink:href="#f2_22" transform="matrix(12,0,0,12,344.6,664.2)" />
<use xlink:href="#f2_21" transform="matrix(12,0,0,12,350.4,664.2)" />
<use xlink:href="#f2_1z" transform="matrix(12,0,0,12,358.5,664.2)" />
<use xlink:href="#f2_2g" transform="matrix(12,0,0,12,366.6,664.2)" />
<use xlink:href="#f2_2f" transform="matrix(12,0,0,12,372.1,664.2)" />
<use xlink:href="#f2_2b" transform="matrix(12,0,0,12,383.1,664.2)" />
<use xlink:href="#f2_22" transform="matrix(12,0,0,12,392.6,664.2)" />
<use xlink:href="#f2_23" transform="matrix(12,0,0,12,402.1,664.2)" />
<use xlink:href="#f2_21" transform="matrix(12,0,0,12,411.3,664.2)" />
<use xlink:href="#f2_2a" transform="matrix(12,0,0,12,419.3,664.2)" />
<use xlink:href="#f2_21" transform="matrix(12,0,0,12,428.1,664.2)" />
<use xlink:href="#f2_2f" transform="matrix(12,0,0,12,436.2,664.2)" />
<use xlink:href="#f2_22" transform="matrix(12,0,0,12,447.6,664.2)" />
<use xlink:href="#f2_2e" transform="matrix(12,0,0,12,453.1,664.2)" />
<use xlink:href="#f2_2b" transform="matrix(12,0,0,12,459.3,664.2)" />
<use xlink:href="#f2_29" transform="matrix(12,0,0,12,469.2,664.2)" />
<use xlink:href="#f2_2g" transform="matrix(12,0,0,12,486.8,664.2)" />
<use xlink:href="#f2_24" transform="matrix(12,0,0,12,492.2,664.2)" />
<use xlink:href="#f2_21" transform="matrix(12,0,0,12,501.1,664.2)" />
<use xlink:href="#f2_29" transform="matrix(12,0,0,12,513.5,664.2)" />
<use xlink:href="#f2_1x" transform="matrix(12,0,0,12,527.1,664.2)" />
<use xlink:href="#f2_28" transform="matrix(12,0,0,12,535.5,664.2)" />
<use xlink:href="#f2_21" transform="matrix(12,0,0,12,540.3,664.2)" />
<use xlink:href="#f2_23" transform="matrix(12,0,0,12,552.4,664.2)" />
<use xlink:href="#f2_1x" transform="matrix(12,0,0,12,561.5,664.2)" />
<use xlink:href="#f2_29" transform="matrix(12,0,0,12,569.9,664.2)" />
<use xlink:href="#f2_21" transform="matrix(12,0,0,12,583.5,664.2)" />
<use xlink:href="#f2_2g" transform="matrix(12,0,0,12,591.6,664.2)" />
<use xlink:href="#f2_21" transform="matrix(12,0,0,12,597.1,664.2)" />
<use xlink:href="#f2_i" transform="matrix(12,0,0,12,605.1,664.2)" />
<use xlink:href="#f2_1k" transform="matrix(12,0,0,12,614.4,664.2)" />
<use xlink:href="#f2_24" transform="matrix(12,0,0,12,625.8,664.2)" />
<use xlink:href="#f2_21" transform="matrix(12,0,0,12,634.6,664.2)" />
<use xlink:href="#f2_2c" transform="matrix(12,0,0,12,646.7,664.2)" />
<use xlink:href="#f2_24" transform="matrix(12,0,0,12,655.8,664.2)" />
<use xlink:href="#f2_21" transform="matrix(12,0,0,12,664.6,664.2)" />
<use xlink:href="#f2_2a" transform="matrix(12,0,0,12,672.7,664.2)" />
<use xlink:href="#f2_2b" transform="matrix(12,0,0,12,681.5,664.2)" />
<use xlink:href="#f2_29" transform="matrix(12,0,0,12,691.4,664.2)" />
<use xlink:href="#f2_21" transform="matrix(12,0,0,12,705,664.2)" />
<use xlink:href="#f2_2a" transform="matrix(12,0,0,12,713.4,664.2)" />
<use xlink:href="#f2_2b" transform="matrix(12,0,0,12,722.2,664.2)" />
<use xlink:href="#f2_2a" transform="matrix(12,0,0,12,731.7,664.2)" />
<use xlink:href="#f2_25" transform="matrix(12,0,0,12,744.9,664.2)" />
<use xlink:href="#f2_2f" transform="matrix(12,0,0,12,749.7,664.2)" />
<use xlink:href="#f2_1z" transform="matrix(12,0,0,12,760.7,664.2)" />
<use xlink:href="#f2_1x" transform="matrix(12,0,0,12,768.7,664.2)" />
<use xlink:href="#f2_28" transform="matrix(12,0,0,12,777.1,664.2)" />
<use xlink:href="#f2_28" transform="matrix(12,0,0,12,782.2,664.2)" />
<use xlink:href="#f2_21" transform="matrix(12,0,0,12,787,664.2)" />
<use xlink:href="#f2_20" transform="matrix(12,0,0,12,795.1,664.2)" />
<use xlink:href="#f0_2k" transform="matrix(12,0,0,12,808.5,664.2)" />
<use xlink:href="#f0_21" transform="matrix(12,0,0,12,817.3,664.2)" />
<use xlink:href="#f0_2a" transform="matrix(12,0,0,12,825.3,664.2)" />
<use xlink:href="#f0_25" transform="matrix(12,0,0,12,835.6,664.2)" />
<use xlink:href="#f0_1x" transform="matrix(12,0,0,12,840.7,664.2)" />
<use xlink:href="#f2_i" transform="matrix(12,0,0,12,849.9,664.2)" />
</g>
</g>
<path fill-rule="evenodd" d="M80.3,689.5H857.2V668.2H80.3v21.3Z" class="g0_34" />
<g clip-path="url(#c0_34)">
<g fill="#1F3331" >
<use xlink:href="#f2_1k" transform="matrix(12,0,0,12,110,685.1)" />
<use xlink:href="#f2_24" transform="matrix(12,0,0,12,121.4,685.1)" />
<use xlink:href="#f2_25" transform="matrix(12,0,0,12,130.6,685.1)" />
<use xlink:href="#f2_2f" transform="matrix(12,0,0,12,135.3,685.1)" />
<use xlink:href="#f2_2b" transform="matrix(12,0,0,12,147,685.1)" />
<use xlink:href="#f2_1z" transform="matrix(12,0,0,12,156.5,685.1)" />
<use xlink:href="#f2_1z" transform="matrix(12,0,0,12,164.6,685.1)" />
<use xlink:href="#f2_2h" transform="matrix(12,0,0,12,172.7,685.1)" />
<use xlink:href="#f2_2e" transform="matrix(12,0,0,12,181.8,685.1)" />
<use xlink:href="#f2_2f" transform="matrix(12,0,0,12,188.1,685.1)" />
<use xlink:href="#f2_1y" transform="matrix(12,0,0,12,199.8,685.1)" />
<use xlink:href="#f2_21" transform="matrix(12,0,0,12,208.6,685.1)" />
<use xlink:href="#f2_1z" transform="matrix(12,0,0,12,216.6,685.1)" />
<use xlink:href="#f2_1x" transform="matrix(12,0,0,12,224.7,685.1)" />
<use xlink:href="#f2_2h" transform="matrix(12,0,0,12,232.8,685.1)" />
<use xlink:href="#f2_2f" transform="matrix(12,0,0,12,242.1,685.1)" />
<use xlink:href="#f2_21" transform="matrix(12,0,0,12,249.4,685.1)" />
<use xlink:href="#f2_2g" transform="matrix(12,0,0,12,262.2,685.1)" />
<use xlink:href="#f2_24" transform="matrix(12,0,0,12,267.7,685.1)" />
<use xlink:href="#f2_21" transform="matrix(12,0,0,12,276.5,685.1)" />
<use xlink:href="#f2_21" transform="matrix(12,0,0,12,289.3,685.1)" />
<use xlink:href="#f2_2a" transform="matrix(12,0,0,12,297.4,685.1)" />
<use xlink:href="#f2_20" transform="matrix(12,0,0,12,306.2,685.1)" />
<use xlink:href="#f2_2b" transform="matrix(12,0,0,12,315.4,685.1)" />
<use xlink:href="#f2_2f" transform="matrix(12,0,0,12,324.9,685.1)" />
<use xlink:href="#f2_2c" transform="matrix(12,0,0,12,331.8,685.1)" />
<use xlink:href="#f2_21" transform="matrix(12,0,0,12,341,685.1)" />
<use xlink:href="#f2_2e" transform="matrix(12,0,0,12,349.1,685.1)" />
<use xlink:href="#f2_29" transform="matrix(12,0,0,12,355.7,685.1)" />
<use xlink:href="#f2_25" transform="matrix(12,0,0,12,374.3,685.1)" />
<use xlink:href="#f2_2f" transform="matrix(12,0,0,12,379.1,685.1)" />
<use xlink:href="#f2_22" transform="matrix(12,0,0,12,391.2,685.1)" />
<use xlink:href="#f2_2h" transform="matrix(12,0,0,12,396.7,685.1)" />
<use xlink:href="#f2_28" transform="matrix(12,0,0,12,406.2,685.1)" />
<use xlink:href="#f2_28" transform="matrix(12,0,0,12,411.3,685.1)" />
<use xlink:href="#f2_2l" transform="matrix(12,0,0,12,416.5,685.1)" />
<use xlink:href="#f2_20" transform="matrix(12,0,0,12,429.6,685.1)" />
<use xlink:href="#f2_21" transform="matrix(12,0,0,12,438.8,685.1)" />
<use xlink:href="#f2_2i" transform="matrix(12,0,0,12,447.2,685.1)" />
<use xlink:href="#f2_21" transform="matrix(12,0,0,12,456.4,685.1)" />
<use xlink:href="#f2_28" transform="matrix(12,0,0,12,464.8,685.1)" />
<use xlink:href="#f2_2b" transform="matrix(12,0,0,12,469.2,685.1)" />
<use xlink:href="#f2_2c" transform="matrix(12,0,0,12,478.7,685.1)" />
<use xlink:href="#f2_21" transform="matrix(12,0,0,12,487.9,685.1)" />
<use xlink:href="#f2_20" transform="matrix(12,0,0,12,496,685.1)" />
<use xlink:href="#f2_25" transform="matrix(12,0,0,12,510.2,685.1)" />
<use xlink:href="#f2_2a" transform="matrix(12,0,0,12,515,685.1)" />
<use xlink:href="#f2_1x" transform="matrix(12,0,0,12,528.5,685.1)" />
<use xlink:href="#f2_29" transform="matrix(12,0,0,12,541.7,685.1)" />
<use xlink:href="#f2_1x" transform="matrix(12,0,0,12,555.3,685.1)" />
<use xlink:href="#f2_2g" transform="matrix(12,0,0,12,563.4,685.1)" />
<use xlink:href="#f2_2h" transform="matrix(12,0,0,12,568.8,685.1)" />
<use xlink:href="#f2_2e" transform="matrix(12,0,0,12,578,685.1)" />
<use xlink:href="#f2_21" transform="matrix(12,0,0,12,584.2,685.1)" />
<use xlink:href="#f2_2b" transform="matrix(12,0,0,12,596.7,685.1)" />
<use xlink:href="#f2_2i" transform="matrix(12,0,0,12,606.2,685.1)" />
<use xlink:href="#f2_2h" transform="matrix(12,0,0,12,615,685.1)" />
<use xlink:href="#f2_28" transform="matrix(12,0,0,12,624.5,685.1)" />
<use xlink:href="#f2_21" transform="matrix(12,0,0,12,628.9,685.1)" />
<use xlink:href="#f2_i" transform="matrix(12,0,0,12,637,685.1)" />
</g>
</g>
<path fill-rule="evenodd" d="M80.3,710.4H857.2V689.5H80.3v20.9Z" class="g0_34" />
<g clip-path="url(#c0_34)">
<g fill="#1F3331" >
<use xlink:href="#f1_3d" transform="matrix(10.1,0,0,10.1,82.5,706.4)" />
<use xlink:href="#f2_1k" transform="matrix(12,0,0,12,110,706.4)" />
<use xlink:href="#f2_24" transform="matrix(12,0,0,12,121.4,706.4)" />
<use xlink:href="#f2_21" transform="matrix(12,0,0,12,130.2,706.4)" />
<use xlink:href="#f2_20" transform="matrix(12,0,0,12,143.4,706.4)" />
<use xlink:href="#f2_25" transform="matrix(12,0,0,12,152.9,706.4)" />
<use xlink:href="#f2_2e" transform="matrix(12,0,0,12,157.3,706.4)" />
<use xlink:href="#f2_21" transform="matrix(12,0,0,12,163.5,706.4)" />
<use xlink:href="#f2_1z" transform="matrix(12,0,0,12,171.9,706.4)" />
<use xlink:href="#f2_2g" transform="matrix(12,0,0,12,180,706.4)" />
<use xlink:href="#f2_2b" transform="matrix(12,0,0,12,190.2,706.4)" />
<use xlink:href="#f2_2e" transform="matrix(12,0,0,12,199.7,706.4)" />
<use xlink:href="#f2_25" transform="matrix(12,0,0,12,211.1,706.4)" />
<use xlink:href="#f2_2a" transform="matrix(12,0,0,12,215.8,706.4)" />
<use xlink:href="#f2_20" transform="matrix(12,0,0,12,224.6,706.4)" />
<use xlink:href="#f2_25" transform="matrix(12,0,0,12,234.1,706.4)" />
<use xlink:href="#f2_2e" transform="matrix(12,0,0,12,238.5,706.4)" />
<use xlink:href="#f2_21" transform="matrix(12,0,0,12,245.1,706.4)" />
<use xlink:href="#f2_1z" transform="matrix(12,0,0,12,253.2,706.4)" />
<use xlink:href="#f2_2g" transform="matrix(12,0,0,12,261.2,706.4)" />
<use xlink:href="#f2_21" transform="matrix(12,0,0,12,271.8,706.4)" />
<use xlink:href="#f2_22" transform="matrix(12,0,0,12,279.9,706.4)" />
<use xlink:href="#f2_22" transform="matrix(12,0,0,12,285.8,706.4)" />
<use xlink:href="#f2_21" transform="matrix(12,0,0,12,291.6,706.4)" />
<use xlink:href="#f2_1z" transform="matrix(12,0,0,12,299.7,706.4)" />
<use xlink:href="#f2_2g" transform="matrix(12,0,0,12,307.8,706.4)" />
<use xlink:href="#f2_2b" transform="matrix(12,0,0,12,318.4,706.4)" />
<use xlink:href="#f2_22" transform="matrix(12,0,0,12,327.9,706.4)" />
<use xlink:href="#f2_2c" transform="matrix(12,0,0,12,338.5,706.4)" />
<use xlink:href="#f2_2b" transform="matrix(12,0,0,12,347.7,706.4)" />
<use xlink:href="#f2_28" transform="matrix(12,0,0,12,357.6,706.4)" />
<use xlink:href="#f2_28" transform="matrix(12,0,0,12,362.3,706.4)" />
<use xlink:href="#f2_21" transform="matrix(12,0,0,12,367.1,706.4)" />
<use xlink:href="#f2_2a" transform="matrix(12,0,0,12,375.5,706.4)" />
<use xlink:href="#f2_2b" transform="matrix(12,0,0,12,389.4,706.4)" />
<use xlink:href="#f2_2a" transform="matrix(12,0,0,12,398.9,706.4)" />
<use xlink:href="#f2_2f" transform="matrix(12,0,0,12,412.8,706.4)" />
<use xlink:href="#f2_2g" transform="matrix(12,0,0,12,419.8,706.4)" />
<use xlink:href="#f2_2e" transform="matrix(12,0,0,12,425.3,706.4)" />
<use xlink:href="#f2_2h" transform="matrix(12,0,0,12,431.5,706.4)" />
<use xlink:href="#f2_1z" transform="matrix(12,0,0,12,440.7,706.4)" />
<use xlink:href="#f2_2g" transform="matrix(12,0,0,12,448.7,706.4)" />
<use xlink:href="#f2_2h" transform="matrix(12,0,0,12,454.2,706.4)" />
<use xlink:href="#f2_2e" transform="matrix(12,0,0,12,463,706.4)" />
<use xlink:href="#f2_21" transform="matrix(12,0,0,12,469.2,706.4)" />
<use xlink:href="#f2_25" transform="matrix(12,0,0,12,482.1,706.4)" />
<use xlink:href="#f2_2a" transform="matrix(12,0,0,12,486.8,706.4)" />
<use xlink:href="#f2_2f" transform="matrix(12,0,0,12,496,706.4)" />
<use xlink:href="#f2_25" transform="matrix(12,0,0,12,503.3,706.4)" />
<use xlink:href="#f2_20" transform="matrix(12,0,0,12,508.1,706.4)" />
<use xlink:href="#f2_21" transform="matrix(12,0,0,12,517.2,706.4)" />
<use xlink:href="#f2_21" transform="matrix(12,0,0,12,530.8,706.4)" />
<use xlink:href="#f2_29" transform="matrix(12,0,0,12,539.2,706.4)" />
<use xlink:href="#f2_1y" transform="matrix(12,0,0,12,553.1,706.4)" />
<use xlink:href="#f2_2e" transform="matrix(12,0,0,12,561.9,706.4)" />
<use xlink:href="#f2_2l" transform="matrix(12,0,0,12,568.5,706.4)" />
<use xlink:href="#f2_2b" transform="matrix(12,0,0,12,577,706.4)" />
<use xlink:href="#f2_2f" transform="matrix(12,0,0,12,591.6,706.4)" />
<use xlink:href="#f2_1x" transform="matrix(12,0,0,12,598.9,706.4)" />
<use xlink:href="#f2_1z" transform="matrix(12,0,0,12,607,706.4)" />
<use xlink:href="#f2_25" transform="matrix(12,0,0,12,621.4,706.4)" />
<use xlink:href="#f2_2f" transform="matrix(12,0,0,12,626.2,706.4)" />
<use xlink:href="#f2_28" transform="matrix(12,0,0,12,638.6,706.4)" />
<use xlink:href="#f2_25" transform="matrix(12,0,0,12,643.7,706.4)" />
<use xlink:href="#f2_29" transform="matrix(12,0,0,12,648.9,706.4)" />
<use xlink:href="#f2_25" transform="matrix(12,0,0,12,663.1,706.4)" />
<use xlink:href="#f2_2g" transform="matrix(12,0,0,12,667.6,706.4)" />
<use xlink:href="#f2_21" transform="matrix(12,0,0,12,673,706.4)" />
<use xlink:href="#f2_20" transform="matrix(12,0,0,12,681.1,706.4)" />
<use xlink:href="#f2_2g" transform="matrix(12,0,0,12,695.4,706.4)" />
<use xlink:href="#f2_2b" transform="matrix(12,0,0,12,700.5,706.4)" />
<use xlink:href="#f2_2g" transform="matrix(12,0,0,12,714.8,706.4)" />
<use xlink:href="#f2_24" transform="matrix(12,0,0,12,720.3,706.4)" />
<use xlink:href="#f2_21" transform="matrix(12,0,0,12,729.1,706.4)" />
<use xlink:href="#f2_21" transform="matrix(12,0,0,12,742.2,706.4)" />
<use xlink:href="#f2_2a" transform="matrix(12,0,0,12,750.7,706.4)" />
<use xlink:href="#f2_20" transform="matrix(12,0,0,12,759.5,706.4)" />
<use xlink:href="#f2_2b" transform="matrix(12,0,0,12,768.6,706.4)" />
<use xlink:href="#f2_2f" transform="matrix(12,0,0,12,778.1,706.4)" />
<use xlink:href="#f2_2c" transform="matrix(12,0,0,12,785.1,706.4)" />
<use xlink:href="#f2_21" transform="matrix(12,0,0,12,794.3,706.4)" />
<use xlink:href="#f2_2e" transform="matrix(12,0,0,12,802.3,706.4)" />
<use xlink:href="#f2_29" transform="matrix(12,0,0,12,808.9,706.4)" />
<use xlink:href="#f2_1x" transform="matrix(12,0,0,12,827.6,706.4)" />
<use xlink:href="#f2_2a" transform="matrix(12,0,0,12,836,706.4)" />
<use xlink:href="#f2_20" transform="matrix(12,0,0,12,844.8,706.4)" />
</g>
</g>
<path fill-rule="evenodd" d="M80.3,731.3H857.2V710.4H80.3v20.9Z" class="g0_34" />
<g clip-path="url(#c0_34)">
<g fill="#1F3331" >
<use xlink:href="#f2_25" transform="matrix(12,0,0,12,110,727.3)" />
<use xlink:href="#f2_2f" transform="matrix(12,0,0,12,114.8,727.3)" />
<use xlink:href="#f2_2a" transform="matrix(12,0,0,12,128,727.3)" />
<use xlink:href="#f2_2b" transform="matrix(12,0,0,12,136.8,727.3)" />
<use xlink:href="#f2_2g" transform="matrix(12,0,0,12,146.3,727.3)" />
<use xlink:href="#f2_2f" transform="matrix(12,0,0,12,157.6,727.3)" />
<use xlink:href="#f2_21" transform="matrix(12,0,0,12,164.6,727.3)" />
<use xlink:href="#f2_21" transform="matrix(12,0,0,12,172.7,727.3)" />
<use xlink:href="#f2_2a" transform="matrix(12,0,0,12,180.7,727.3)" />
<use xlink:href="#f2_25" transform="matrix(12,0,0,12,195.7,727.3)" />
<use xlink:href="#f2_2a" transform="matrix(12,0,0,12,200.5,727.3)" />
<use xlink:href="#f2_2g" transform="matrix(12,0,0,12,215.2,727.3)" />
<use xlink:href="#f2_24" transform="matrix(12,0,0,12,220.6,727.3)" />
<use xlink:href="#f2_21" transform="matrix(12,0,0,12,229.4,727.3)" />
<use xlink:href="#f2_21" transform="matrix(12,0,0,12,243.4,727.3)" />
<use xlink:href="#f2_29" transform="matrix(12,0,0,12,251.8,727.3)" />
<use xlink:href="#f2_1y" transform="matrix(12,0,0,12,265.7,727.3)" />
<use xlink:href="#f2_2e" transform="matrix(12,0,0,12,274.9,727.3)" />
<use xlink:href="#f2_2l" transform="matrix(12,0,0,12,281.5,727.3)" />
<use xlink:href="#f2_2b" transform="matrix(12,0,0,12,289.9,727.3)" />
<use xlink:href="#f2_i" transform="matrix(12,0,0,12,299.4,727.3)" />
<use xlink:href="#f2_1k" transform="matrix(12,0,0,12,310,727.3)" />
<use xlink:href="#f2_24" transform="matrix(12,0,0,12,321.3,727.3)" />
<use xlink:href="#f2_25" transform="matrix(12,0,0,12,330.5,727.3)" />
<use xlink:href="#f2_2f" transform="matrix(12,0,0,12,335.3,727.3)" />
<use xlink:href="#f2_21" transform="matrix(12,0,0,12,348.1,727.3)" />
<use xlink:href="#f2_22" transform="matrix(12,0,0,12,356.5,727.3)" />
<use xlink:href="#f2_22" transform="matrix(12,0,0,12,362.4,727.3)" />
<use xlink:href="#f2_21" transform="matrix(12,0,0,12,368.2,727.3)" />
<use xlink:href="#f2_1z" transform="matrix(12,0,0,12,376.7,727.3)" />
<use xlink:href="#f2_2g" transform="matrix(12,0,0,12,384.7,727.3)" />
<use xlink:href="#f2_2j" transform="matrix(12,0,0,12,396.1,727.3)" />
<use xlink:href="#f2_1x" transform="matrix(12,0,0,12,409.3,727.3)" />
<use xlink:href="#f2_2f" transform="matrix(12,0,0,12,417.3,727.3)" />
<use xlink:href="#f2_20" transform="matrix(12,0,0,12,430.1,727.3)" />
<use xlink:href="#f2_21" transform="matrix(12,0,0,12,439.3,727.3)" />
<use xlink:href="#f2_2f" transform="matrix(12,0,0,12,447.4,727.3)" />
<use xlink:href="#f2_1z" transform="matrix(12,0,0,12,454.3,727.3)" />
<use xlink:href="#f2_2e" transform="matrix(12,0,0,12,462.4,727.3)" />
<use xlink:href="#f2_25" transform="matrix(12,0,0,12,469,727.3)" />
<use xlink:href="#f2_1y" transform="matrix(12,0,0,12,473.8,727.3)" />
<use xlink:href="#f2_21" transform="matrix(12,0,0,12,482.9,727.3)" />
<use xlink:href="#f2_20" transform="matrix(12,0,0,12,491,727.3)" />
<use xlink:href="#f2_1y" transform="matrix(12,0,0,12,506.6,727.3)" />
<use xlink:href="#f2_2l" transform="matrix(12,0,0,12,515.7,727.3)" />
<use xlink:href="#f2_16" transform="matrix(12,0,0,12,530.8,727.3)" />
<use xlink:href="#f2_2b" transform="matrix(12,0,0,12,540.7,727.3)" />
<use xlink:href="#f2_1z" transform="matrix(12,0,0,12,550.2,727.3)" />
<use xlink:href="#f2_27" transform="matrix(12,0,0,12,558.2,727.3)" />
<use xlink:href="#f2_21" transform="matrix(12,0,0,12,567.4,727.3)" />
<use xlink:href="#f2_l" transform="matrix(12,0,0,12,581.3,727.3)" />
<use xlink:href="#f2_s" transform="matrix(12,0,0,12,590.5,727.3)" />
<use xlink:href="#f2_s" transform="matrix(12,0,0,12,599.7,727.3)" />
<use xlink:href="#f2_l" transform="matrix(12,0,0,12,608.8,727.3)" />
<use xlink:href="#f2_i" transform="matrix(12,0,0,12,618.1,727.3)" />
<use xlink:href="#f2_19" transform="matrix(12,0,0,12,628.7,727.3)" />
<use xlink:href="#f2_2g" transform="matrix(12,0,0,12,634.6,727.3)" />
<use xlink:href="#f2_25" transform="matrix(12,0,0,12,645.5,727.3)" />
<use xlink:href="#f2_2f" transform="matrix(12,0,0,12,650.3,727.3)" />
<use xlink:href="#f2_2f" transform="matrix(12,0,0,12,663.1,727.3)" />
<use xlink:href="#f2_21" transform="matrix(12,0,0,12,670.1,727.3)" />
<use xlink:href="#f2_21" transform="matrix(12,0,0,12,678.2,727.3)" />
<use xlink:href="#f2_2a" transform="matrix(12,0,0,12,686.6,727.3)" />
<use xlink:href="#f2_25" transform="matrix(12,0,0,12,701.6,727.3)" />
<use xlink:href="#f2_2a" transform="matrix(12,0,0,12,706.3,727.3)" />
<use xlink:href="#f3_1q" transform="matrix(12,0,0,12,721.5,727.3)" />
<use xlink:href="#f3_21" transform="matrix(12,0,0,12,731.8,727.3)" />
<use xlink:href="#f3_1x" transform="matrix(12,0,0,12,739.8,727.3)" />
<use xlink:href="#f3_29" transform="matrix(12,0,0,12,754.9,727.3)" />
<use xlink:href="#f3_1x" transform="matrix(12,0,0,12,768.1,727.3)" />
<use xlink:href="#f3_2l" transform="matrix(12,0,0,12,777.3,727.3)" />
<use xlink:href="#f3_2f" transform="matrix(12,0,0,12,785.6,727.3)" />
<use xlink:href="#f2_c" transform="matrix(12,0,0,12,798.6,727.3)" />
<use xlink:href="#f2_29" transform="matrix(12,0,0,12,805.2,727.3)" />
<use xlink:href="#f2_1x" transform="matrix(12,0,0,12,818.7,727.3)" />
<use xlink:href="#f2_25" transform="matrix(12,0,0,12,827.2,727.3)" />
<use xlink:href="#f2_2m" transform="matrix(12,0,0,12,831.9,727.3)" />
<use xlink:href="#f2_21" transform="matrix(12,0,0,12,840,727.3)" />
<use xlink:href="#f2_d" transform="matrix(12,0,0,12,848.1,727.3)" />
</g>
</g>
<path fill-rule="evenodd" d="M80.3,752.6H857.2V731.3H80.3v21.3Z" class="g0_34" />
<g clip-path="url(#c0_34)">
<g fill="#1F3331" >
<use xlink:href="#f2_1x" transform="matrix(12,0,0,12,110,748.6)" />
<use xlink:href="#f2_28" transform="matrix(12,0,0,12,118.5,748.6)" />
<use xlink:href="#f2_2b" transform="matrix(12,0,0,12,122.9,748.6)" />
<use xlink:href="#f2_2a" transform="matrix(12,0,0,12,132.4,748.6)" />
<use xlink:href="#f2_21" transform="matrix(12,0,0,12,141.2,748.6)" />
<use xlink:href="#f2_i" transform="matrix(12,0,0,12,149.2,748.6)" />
</g>
</g>
<path fill-rule="evenodd" d="M52.8,1046.4H857.2V773.9H52.8v272.5Z" class="g0_34" />
<path fill-rule="evenodd" d="M52.8,1081.2H857.2v-34.8H52.8v34.8Z" class="g0_34" />
<path fill-rule="evenodd" d="M52.8,1115.7H857.2v-34.5H52.8v34.5Z" class="g0_34" />
<path fill-rule="evenodd" d="M52.8,1137.3H857.2v-21.6H52.8v21.6Z" class="g0_34" />
<g clip-path="url(#c0_34)">
<g fill="#1F3331" >
<use xlink:href="#f0_1d" transform="matrix(12,0,0,12,55,1132.9)" />
<use xlink:href="#f0_21" transform="matrix(12,0,0,12,72.6,1132.9)" />
<use xlink:href="#f0_2g" transform="matrix(12,0,0,12,80.7,1132.9)" />
<use xlink:href="#f0_1x" transform="matrix(12,0,0,12,86.9,1132.9)" />
<use xlink:href="#f0_2k" transform="matrix(12,0,0,12,96.1,1132.9)" />
<use xlink:href="#f0_21" transform="matrix(12,0,0,12,104.9,1132.9)" />
<use xlink:href="#f0_2a" transform="matrix(12,0,0,12,113,1132.9)" />
<use xlink:href="#f0_25" transform="matrix(12,0,0,12,123.2,1132.9)" />
<use xlink:href="#f0_1x" transform="matrix(12,0,0,12,128.3,1132.9)" />
<use xlink:href="#f2_29" transform="matrix(12,0,0,12,142.3,1132.9)" />
<use xlink:href="#f2_1x" transform="matrix(12,0,0,12,155.9,1132.9)" />
<use xlink:href="#f2_2l" transform="matrix(12,0,0,12,164.3,1132.9)" />
<use xlink:href="#f2_1y" transform="matrix(12,0,0,12,178.2,1132.9)" />
<use xlink:href="#f2_21" transform="matrix(12,0,0,12,187,1132.9)" />
<use xlink:href="#f2_20" transform="matrix(12,0,0,12,199.9,1132.9)" />
<use xlink:href="#f2_21" transform="matrix(12,0,0,12,209,1132.9)" />
<use xlink:href="#f2_22" transform="matrix(12,0,0,12,217.4,1132.9)" />
<use xlink:href="#f2_25" transform="matrix(12,0,0,12,223.3,1132.9)" />
<use xlink:href="#f2_2a" transform="matrix(12,0,0,12,228.1,1132.9)" />
<use xlink:href="#f2_21" transform="matrix(12,0,0,12,237.2,1132.9)" />
<use xlink:href="#f2_20" transform="matrix(12,0,0,12,245.6,1132.9)" />
<use xlink:href="#f2_1x" transform="matrix(12,0,0,12,259.6,1132.9)" />
<use xlink:href="#f2_2f" transform="matrix(12,0,0,12,267.6,1132.9)" />
<use xlink:href="#f2_2g" transform="matrix(12,0,0,12,279.3,1132.9)" />
<use xlink:href="#f2_24" transform="matrix(12,0,0,12,284.8,1132.9)" />
<use xlink:href="#f2_21" transform="matrix(12,0,0,12,293.6,1132.9)" />
<use xlink:href="#f2_21" transform="matrix(12,0,0,12,306.4,1132.9)" />
<use xlink:href="#f2_22" transform="matrix(12,0,0,12,314.9,1132.9)" />
<use xlink:href="#f2_22" transform="matrix(12,0,0,12,320.7,1132.9)" />
<use xlink:href="#f2_21" transform="matrix(12,0,0,12,326.2,1132.9)" />
<use xlink:href="#f2_1z" transform="matrix(12,0,0,12,334.6,1132.9)" />
<use xlink:href="#f2_2g" transform="matrix(12,0,0,12,342.7,1132.9)" />
<use xlink:href="#f2_2b" transform="matrix(12,0,0,12,352.6,1132.9)" />
<use xlink:href="#f2_22" transform="matrix(12,0,0,12,362.1,1132.9)" />
<use xlink:href="#f2_2c" transform="matrix(12,0,0,12,372.3,1132.9)" />
<use xlink:href="#f2_2b" transform="matrix(12,0,0,12,381.5,1132.9)" />
<use xlink:href="#f2_28" transform="matrix(12,0,0,12,391,1132.9)" />
<use xlink:href="#f2_28" transform="matrix(12,0,0,12,395.8,1132.9)" />
<use xlink:href="#f2_21" transform="matrix(12,0,0,12,400.6,1132.9)" />
<use xlink:href="#f2_2a" transform="matrix(12,0,0,12,409,1132.9)" />
<use xlink:href="#f2_2b" transform="matrix(12,0,0,12,422.9,1132.9)" />
<use xlink:href="#f2_2a" transform="matrix(12,0,0,12,432.4,1132.9)" />
<use xlink:href="#f2_2g" transform="matrix(12,0,0,12,445.6,1132.9)" />
<use xlink:href="#f2_24" transform="matrix(12,0,0,12,451.1,1132.9)" />
<use xlink:href="#f2_21" transform="matrix(12,0,0,12,459.9,1132.9)" />
<use xlink:href="#f2_2f" transform="matrix(12,0,0,12,472.7,1132.9)" />
<use xlink:href="#f2_21" transform="matrix(12,0,0,12,479.7,1132.9)" />
<use xlink:href="#f2_21" transform="matrix(12,0,0,12,487.7,1132.9)" />
<use xlink:href="#f2_20" transform="matrix(12,0,0,12,495.8,1132.9)" />
<use xlink:href="#f2_1z" transform="matrix(12,0,0,12,509.7,1132.9)" />
<use xlink:href="#f2_2b" transform="matrix(12,0,0,12,517.8,1132.9)" />
<use xlink:href="#f2_1x" transform="matrix(12,0,0,12,527.3,1132.9)" />
<use xlink:href="#f2_2g" transform="matrix(12,0,0,12,535.4,1132.9)" />
<use xlink:href="#f2_2b" transform="matrix(12,0,0,12,544.9,1132.9)" />
<use xlink:href="#f2_2e" transform="matrix(12,0,0,12,554.4,1132.9)" />
<use xlink:href="#f2_2c" transform="matrix(12,0,0,12,565,1132.9)" />
<use xlink:href="#f2_21" transform="matrix(12,0,0,12,574.2,1132.9)" />
<use xlink:href="#f2_2e" transform="matrix(12,0,0,12,582.3,1132.9)" />
<use xlink:href="#f2_25" transform="matrix(12,0,0,12,588.5,1132.9)" />
<use xlink:href="#f2_1z" transform="matrix(12,0,0,12,592.9,1132.9)" />
<use xlink:href="#f2_1x" transform="matrix(12,0,0,12,600.9,1132.9)" />
<use xlink:href="#f2_2e" transform="matrix(12,0,0,12,609,1132.9)" />
<use xlink:href="#f2_2c" transform="matrix(12,0,0,12,615.2,1132.9)" />
<use xlink:href="#f2_28" transform="matrix(12,0,0,12,629.5,1132.9)" />
<use xlink:href="#f2_2l" transform="matrix(12,0,0,12,634.3,1132.9)" />
<use xlink:href="#f2_25" transform="matrix(12,0,0,12,643.4,1132.9)" />
<use xlink:href="#f2_2a" transform="matrix(12,0,0,12,648.2,1132.9)" />
<use xlink:href="#f2_23" transform="matrix(12,0,0,12,657.4,1132.9)" />
<use xlink:href="#f2_2b" transform="matrix(12,0,0,12,671.3,1132.9)" />
<use xlink:href="#f2_2h" transform="matrix(12,0,0,12,680.8,1132.9)" />
<use xlink:href="#f2_2g" transform="matrix(12,0,0,12,690,1132.9)" />
<use xlink:href="#f2_2f" transform="matrix(12,0,0,12,695.5,1132.9)" />
<use xlink:href="#f2_25" transform="matrix(12,0,0,12,702.4,1132.9)" />
<use xlink:href="#f2_20" transform="matrix(12,0,0,12,706.8,1132.9)" />
<use xlink:href="#f2_21" transform="matrix(12,0,0,12,716,1132.9)" />
<use xlink:href="#f2_2g" transform="matrix(12,0,0,12,728.8,1132.9)" />
<use xlink:href="#f2_24" transform="matrix(12,0,0,12,734.3,1132.9)" />
<use xlink:href="#f2_21" transform="matrix(12,0,0,12,743.1,1132.9)" />
<use xlink:href="#f2_21" transform="matrix(12,0,0,12,755.9,1132.9)" />
<use xlink:href="#f2_29" transform="matrix(12,0,0,12,764.3,1132.9)" />
<use xlink:href="#f2_1y" transform="matrix(12,0,0,12,778.3,1132.9)" />
<use xlink:href="#f2_2e" transform="matrix(12,0,0,12,787.1,1132.9)" />
<use xlink:href="#f2_2l" transform="matrix(12,0,0,12,793.6,1132.9)" />
<use xlink:href="#f2_2b" transform="matrix(12,0,0,12,802.1,1132.9)" />
<use xlink:href="#f2_2f" transform="matrix(12,0,0,12,816.3,1132.9)" />
<use xlink:href="#f2_1x" transform="matrix(12,0,0,12,823.3,1132.9)" />
<use xlink:href="#f2_1z" transform="matrix(12,0,0,12,831.4,1132.9)" />
</g>
</g>
<path fill-rule="evenodd" d="M80.3,1179.5H857.2v-21.2H80.3v21.2Z" class="g0_34" />
<g clip-path="url(#c0_34)">
<g fill="#1F3331" >
<use xlink:href="#f1_3d" transform="matrix(10.1,0,0,10.1,82.5,1175.5)" />
<use xlink:href="#f2_15" transform="matrix(12,0,0,12,110,1175.5)" />
<use xlink:href="#f2_2a" transform="matrix(12,0,0,12,121.4,1175.5)" />
<use xlink:href="#f2_20" transform="matrix(12,0,0,12,130.2,1175.5)" />
<use xlink:href="#f2_2b" transform="matrix(12,0,0,12,139.4,1175.5)" />
<use xlink:href="#f2_2f" transform="matrix(12,0,0,12,148.9,1175.5)" />
<use xlink:href="#f2_2c" transform="matrix(12,0,0,12,155.8,1175.5)" />
<use xlink:href="#f2_21" transform="matrix(12,0,0,12,165,1175.5)" />
<use xlink:href="#f2_2e" transform="matrix(12,0,0,12,173.1,1175.5)" />
<use xlink:href="#f2_29" transform="matrix(12,0,0,12,179.6,1175.5)" />
<use xlink:href="#f2_1z" transform="matrix(12,0,0,12,198,1175.5)" />
<use xlink:href="#f2_1x" transform="matrix(12,0,0,12,206,1175.5)" />
<use xlink:href="#f2_2a" transform="matrix(12,0,0,12,214.4,1175.5)" />
<use xlink:href="#f2_1y" transform="matrix(12,0,0,12,228,1175.5)" />
<use xlink:href="#f2_21" transform="matrix(12,0,0,12,236.8,1175.5)" />
<use xlink:href="#f2_1z" transform="matrix(12,0,0,12,249.6,1175.5)" />
<use xlink:href="#f2_28" transform="matrix(12,0,0,12,258,1175.5)" />
<use xlink:href="#f2_1x" transform="matrix(12,0,0,12,262.8,1175.5)" />
<use xlink:href="#f2_2f" transform="matrix(12,0,0,12,270.9,1175.5)" />
<use xlink:href="#f2_2f" transform="matrix(12,0,0,12,278.2,1175.5)" />
<use xlink:href="#f2_25" transform="matrix(12,0,0,12,285.5,1175.5)" />
<use xlink:href="#f2_22" transform="matrix(12,0,0,12,290.3,1175.5)" />
<use xlink:href="#f2_25" transform="matrix(12,0,0,12,296.5,1175.5)" />
<use xlink:href="#f2_21" transform="matrix(12,0,0,12,301.2,1175.5)" />
<use xlink:href="#f2_20" transform="matrix(12,0,0,12,309.6,1175.5)" />
<use xlink:href="#f2_25" transform="matrix(12,0,0,12,323.9,1175.5)" />
<use xlink:href="#f2_2a" transform="matrix(12,0,0,12,328.7,1175.5)" />
<use xlink:href="#f2_2g" transform="matrix(12,0,0,12,337.5,1175.5)" />
<use xlink:href="#f2_2b" transform="matrix(12,0,0,12,343,1175.5)" />
<use xlink:href="#f2_2g" transform="matrix(12,0,0,12,356.5,1175.5)" />
<use xlink:href="#f2_24" transform="matrix(12,0,0,12,362,1175.5)" />
<use xlink:href="#f2_2e" transform="matrix(12,0,0,12,370.8,1175.5)" />
<use xlink:href="#f2_21" transform="matrix(12,0,0,12,377,1175.5)" />
<use xlink:href="#f2_21" transform="matrix(12,0,0,12,385.1,1175.5)" />
<use xlink:href="#f2_2g" transform="matrix(12,0,0,12,397.9,1175.5)" />
<use xlink:href="#f2_2l" transform="matrix(12,0,0,12,403.4,1175.5)" />
<use xlink:href="#f2_2c" transform="matrix(12,0,0,12,411.8,1175.5)" />
<use xlink:href="#f2_21" transform="matrix(12,0,0,12,421,1175.5)" />
<use xlink:href="#f2_2f" transform="matrix(12,0,0,12,429.1,1175.5)" />
<use xlink:href="#f2_1y" transform="matrix(12,0,0,12,441.2,1175.5)" />
<use xlink:href="#f2_1x" transform="matrix(12,0,0,12,450,1175.5)" />
<use xlink:href="#f2_2f" transform="matrix(12,0,0,12,458,1175.5)" />
<use xlink:href="#f2_21" transform="matrix(12,0,0,12,465.3,1175.5)" />
<use xlink:href="#f2_20" transform="matrix(12,0,0,12,473.4,1175.5)" />
<use xlink:href="#f2_2b" transform="matrix(12,0,0,12,487.3,1175.5)" />
<use xlink:href="#f2_2a" transform="matrix(12,0,0,12,496.8,1175.5)" />
<use xlink:href="#f2_2g" transform="matrix(12,0,0,12,510.4,1175.5)" />
<use xlink:href="#f2_24" transform="matrix(12,0,0,12,515.9,1175.5)" />
<use xlink:href="#f2_21" transform="matrix(12,0,0,12,524.7,1175.5)" />
<use xlink:href="#f2_29" transform="matrix(12,0,0,12,537.5,1175.5)" />
<use xlink:href="#f2_2b" transform="matrix(12,0,0,12,551,1175.5)" />
<use xlink:href="#f2_20" transform="matrix(12,0,0,12,560.6,1175.5)" />
<use xlink:href="#f2_21" transform="matrix(12,0,0,12,569.7,1175.5)" />
<use xlink:href="#f2_2b" transform="matrix(12,0,0,12,582.5,1175.5)" />
<use xlink:href="#f2_22" transform="matrix(12,0,0,12,592.1,1175.5)" />
<use xlink:href="#f2_20" transform="matrix(12,0,0,12,602.3,1175.5)" />
<use xlink:href="#f2_21" transform="matrix(12,0,0,12,611.5,1175.5)" />
<use xlink:href="#f2_2i" transform="matrix(12,0,0,12,619.5,1175.5)" />
<use xlink:href="#f2_21" transform="matrix(12,0,0,12,628.7,1175.5)" />
<use xlink:href="#f2_28" transform="matrix(12,0,0,12,637.1,1175.5)" />
<use xlink:href="#f2_2b" transform="matrix(12,0,0,12,641.5,1175.5)" />
<use xlink:href="#f2_2c" transform="matrix(12,0,0,12,651,1175.5)" />
<use xlink:href="#f2_29" transform="matrix(12,0,0,12,660.5,1175.5)" />
<use xlink:href="#f2_21" transform="matrix(12,0,0,12,674.5,1175.5)" />
<use xlink:href="#f2_2a" transform="matrix(12,0,0,12,682.9,1175.5)" />
<use xlink:href="#f2_2g" transform="matrix(12,0,0,12,691.7,1175.5)" />
<use xlink:href="#f2_h" transform="matrix(12,0,0,12,698.1,1175.5)" />
</g>
</g>
<path fill-rule="evenodd" d="M52.8,1222.1H857.2v-21.3H52.8v21.3Z" class="g0_34" />
<g clip-path="url(#c0_34)">
<g fill="#1F3331" >
<use xlink:href="#f0_l" transform="matrix(12,0,0,12,55,1218)" />
<use xlink:href="#f0_i" transform="matrix(12,0,0,12,64.2,1218)" />
<use xlink:href="#f0_1e" transform="matrix(12,0,0,12,73.7,1218)" />
<use xlink:href="#f0_2h" transform="matrix(12,0,0,12,86.9,1218)" />
<use xlink:href="#f0_1z" transform="matrix(12,0,0,12,97.1,1218)" />
<use xlink:href="#f0_28" transform="matrix(12,0,0,12,105.3,1218)" />
<use xlink:href="#f0_21" transform="matrix(12,0,0,12,110,1218)" />
<use xlink:href="#f0_1x" transform="matrix(12,0,0,12,118.1,1218)" />
<use xlink:href="#f0_2e" transform="matrix(12,0,0,12,127.2,1218)" />
<use xlink:href="#f0_21" transform="matrix(12,0,0,12,139.7,1218)" />
<use xlink:href="#f0_2a" transform="matrix(12,0,0,12,147.7,1218)" />
<use xlink:href="#f0_20" transform="matrix(12,0,0,12,158,1218)" />
<use xlink:href="#f0_2b" transform="matrix(12,0,0,12,168.2,1218)" />
<use xlink:href="#f0_2f" transform="matrix(12,0,0,12,177.4,1218)" />
<use xlink:href="#f0_2c" transform="matrix(12,0,0,12,184.4,1218)" />
<use xlink:href="#f0_21" transform="matrix(12,0,0,12,194.6,1218)" />
<use xlink:href="#f0_2e" transform="matrix(12,0,0,12,203,1218)" />
<use xlink:href="#f0_29" transform="matrix(12,0,0,12,211.1,1218)" />
</g>
</g>
<path fill-rule="evenodd" d="M55,1221.7H226.7v-1.8H55v1.8Z" class="g1_34" />
<image preserveAspectRatio="none" x="85" y="55" width="723" height="360" xlink:href="img/1.png" />
<image preserveAspectRatio="none" x="57" y="774" width="557" height="259" xlink:href="img/2.png" />
<g fill="#000000" >
<use xlink:href="#f4_l" transform="matrix(8,0,0,8,786.1,1264.1)" />
<use xlink:href="#f4_t" transform="matrix(8,0,0,8,792.9,1264.1)" />
</g>
<defs>
<path d="M452,474c0,0,104,0,151,52c0,0,47,53,47,178c0,0,0,119,-45,167c0,0,-44,47,-156,47H390V474ZM36,0V54L154,74V926L26,945v55H467c0,0,213,0,318,-71c0,0,105,-71,105,-224c0,0,0,-313,-366,-313H390V74L557,54V0Z" 
id="f0_1g"
transform="scale(0.001,-0.001)" />

<path d="M595,60c0,0,141,0,206,102c0,0,65,102,65,340c0,0,0,236,-65,335c0,0,-65,100,-206,100c0,0,-142,0,-207,-100c0,0,-66,-99,-66,-335c0,0,0,-239,66,-340c0,0,65,-102,207,-102Zm0,-74c0,0,-253,0,-387,130C208,116,75,246,75,501c0,0,0,510,520,510c0,0,256,0,387,-129c0,0,132,-130,132,-381c0,0,0,-254,-133,-385C981,116,848,-14,595,-14Z" 
id="f0_1f"
transform="scale(0.001,-0.001)" />

<path d="M410,-14c0,0,-86,0,-175,14C235,0,145,14,81,38V307h66L181,146c0,0,31,-37,94,-62c0,0,64,-24,132,-24c0,0,214,0,214,177c0,0,0,55,-41,93c0,0,-41,38,-128,68c0,0,-128,42,-185,68c0,0,-56,27,-95,63c0,0,-38,36,-62,87c0,0,-23,51,-23,125c0,0,0,132,90,201c0,0,90,69,263,69c0,0,125,0,278,-32V741H651L618,878c0,0,-76,56,-178,56c0,0,-92,0,-141,-34c0,0,-49,-34,-49,-104c0,0,0,-50,41,-86c0,0,41,-35,128,-63c0,0,171,-56,235,-97c0,0,64,-41,97,-103c0,0,34,-61,34,-143c0,0,0,-318,-375,-318Z" 
id="f0_1j"
transform="scale(0.001,-0.001)" />

<path d="M231,0V54L390,74V921H352c0,0,-171,0,-240,-15L92,721H24v279H996V721H927L907,906c0,0,-62,14,-245,14H626V74L785,54V0Z" 
id="f0_1k"
transform="scale(0.001,-0.001)" />

<path d="M36,0V54L154,74V926L26,945v55H860V731H790L766,908c0,0,-36,5,-121,8c0,0,-84,2,-133,2H389V508H633l23,127h67V298H656L633,426H389V74L556,54V0Z" 
id="f0_16"
transform="scale(0.001,-0.001)" />

<path d="M26,0V54L154,74V926L26,945v55H878V746H810L786,908c0,0,-83,10,-241,10H389V551H651l23,111h67V355H674L651,468H389V82H578c0,0,193,0,252,12l43,185h68L927,0Z" 
id="f0_15"
transform="scale(0.001,-0.001)" />

<path d="M498,506c0,0,115,0,164,47c0,0,48,48,48,166c0,0,0,112,-46,156c0,0,-46,43,-169,43H390V506ZM793,0L514,423H390V74L518,54V0H36V54L154,74V926L26,945v55H504c0,0,221,0,330,-68c0,0,109,-68,109,-212c0,0,0,-215,-201,-276L1009,74L1117,54V0Z" 
id="f0_1i"
transform="scale(0.001,-0.001)" />

<path d="M51,0V55L180,74V926L51,946v54H543V946L415,926V74L543,55V0Z" 
id="f0_19"
transform="scale(0.001,-0.001)" />

<path d="M26,0V54L154,74V926L27,945v55H544V945L389,926V79H593c0,0,159,0,234,15l61,208h67L927,0Z" 
id="f0_1c"
transform="scale(0.001,-0.001)" />

<path d="M73,0V85L627,921H448c0,0,-170,0,-239,-15L186,749H119v251H892V921L335,77H544c0,0,85,0,167,8c0,0,83,9,119,17l44,191h67L921,0Z" 
id="f0_1q"
transform="scale(0.001,-0.001)" />

<path d="M639,416L478,858L313,416ZM647,0V54L762,74L667,333H283L191,74L319,54V0H15V54L90,74l355,935H662L1016,74l76,-20V0Z" 
id="f0_11"
transform="scale(0.001,-0.001)" />

<path d="M868,0L251,804V74L385,54V0H29V54L157,74V926L29,945v55H371L862,361V926L727,945v55h356V945L955,926V0Z" 
id="f0_1e"
transform="scale(0.001,-0.001)" />

<path d="M248,-20c0,0,-52,0,-87,34c0,0,-36,36,-36,88c0,0,0,52,36,88c0,0,35,36,87,36c0,0,52,0,88,-36c0,0,36,-36,36,-88c0,0,0,-51,-36,-87c0,0,-35,-35,-88,-35Zm0,488c0,0,-52,0,-87,36c0,0,-36,36,-36,88c0,0,0,52,35,88c0,0,35,36,88,36c0,0,53,0,89,-36c0,0,35,-37,35,-88c0,0,0,-51,-36,-87c0,0,-35,-37,-88,-37Z" 
id="f0_u"
transform="scale(0.001,-0.001)" />

<path d="M566,-14c0,0,-200,0,-308,93c0,0,-107,94,-107,270V926L38,945v55H515V945L386,926V339c0,0,0,-120,61,-184c0,0,61,-64,178,-64c0,0,112,0,173,63c0,0,61,62,61,184V926L725,945v55h340V945L952,926V343c0,0,0,-173,-100,-265c0,0,-100,-92,-286,-92Z" 
id="f0_1l"
transform="scale(0.001,-0.001)" />

<path d="M608,-14c0,0,-251,0,-392,133C216,119,75,252,75,488c0,0,0,257,134,390c0,0,135,133,398,133c0,0,174,0,361,-50l4,-240H905L884,866c0,0,-98,67,-229,67c0,0,-173,0,-253,-108c0,0,-80,-108,-80,-334c0,0,0,-209,84,-319c0,0,83,-109,243,-109c0,0,84,0,147,22c0,0,63,22,99,53l24,164h68L982,48C982,48,915,22,808,4C808,4,700,-14,608,-14Z" 
id="f0_13"
transform="scale(0.001,-0.001)" />

<path d="M519,79c0,0,97,0,153,42c0,0,57,42,83,131c0,0,26,89,26,248c0,0,0,216,-79,317c0,0,-79,101,-257,101H389V85c0,0,72,-6,130,-6ZM533,-2L198,0H27V54L155,74V926L27,945v55H502c0,0,269,0,398,-122c0,0,129,-122,129,-372c0,0,0,-258,-123,-383C906,123,783,-2,533,-2Z" 
id="f0_14"
transform="scale(0.001,-0.001)" />

<path d="M506,-22L99,926L17,946v54H452V946L348,926L630,270L892,926L791,946v54h295V946L991,926L605,-22Z" 
id="f0_1m"
transform="scale(0.001,-0.001)" />

<path d="M41,0V49l69,18V634L41,652v49H313l11,-61l50,26c0,0,105,54,188,54c0,0,194,0,194,-207V67L827,49V0H478V49l63,18V484c0,0,0,63,-27,98c0,0,-26,35,-75,35c0,0,-57,0,-114,-25V67L389,49V0Z" 
id="f0_2a"
transform="scale(0.001,-0.001)" />

<path d="M416,68c0,0,60,0,124,32V628c0,0,-58,15,-118,15c0,0,-67,0,-104,-73c0,0,-38,-73,-38,-216c0,0,0,-139,36,-212c0,0,35,-74,100,-74ZM369,-14c0,0,-155,0,-231,88c0,0,-76,90,-76,274c0,0,0,182,82,277c0,0,81,95,236,95c0,0,82,0,165,-20c0,0,-5,24,-5,115V992l-72,18v50H756V67L833,49V0H562L547,40C547,40,505,13,483,4c0,0,-23,-7,-51,-12c0,0,-28,-6,-63,-6Z" 
id="f0_20"
transform="scale(0.001,-0.001)" />

<path d="M379,60c0,0,59,0,84,64c0,0,24,65,24,231c0,0,0,164,-24,227c0,0,-24,63,-84,63c0,0,-57,0,-80,-60c0,0,-22,-61,-22,-230c0,0,0,-173,23,-234c0,0,22,-61,79,-61Zm-2,-74c0,0,-161,0,-240,91c0,0,-79,91,-79,277c0,0,0,186,80,276c0,0,81,90,245,90c0,0,167,0,245,-93c0,0,78,-93,78,-273c0,0,0,-188,-81,-278c0,0,-81,-90,-248,-90Z" 
id="f0_2b"
transform="scale(0.001,-0.001)" />

<path d="M276,-14c0,0,-57,0,-125,13C151,-1,83,10,48,23V214H97l28,-98c0,0,26,-26,69,-44c0,0,42,-17,86,-17c0,0,65,0,97,28c0,0,32,28,32,71c0,0,0,41,-31,65c0,0,-30,25,-133,57c0,0,-108,34,-154,92c0,0,-45,58,-45,143c0,0,0,95,71,152c0,0,71,57,183,57c0,0,77,0,207,-22V518H457l-24,82c0,0,-21,22,-60,35c0,0,-40,14,-75,14c0,0,-53,0,-79,-22c0,0,-26,-22,-26,-59c0,0,0,-40,32,-65c0,0,32,-26,132,-55c0,0,109,-34,155,-89c0,0,45,-55,45,-137c0,0,0,-117,-72,-177c0,0,-72,-59,-209,-59Z" 
id="f0_2f"
transform="scale(0.001,-0.001)" />

<path d="M438,65c0,0,131,0,131,293c0,0,0,279,-130,279c0,0,-69,0,-127,-29V80c0,0,60,-15,126,-15ZM20,-325v50l76,18V634L19,652v49H304l1,-36c0,0,80,55,194,55c0,0,146,0,218,-86c0,0,71,-86,71,-271c0,0,0,-183,-83,-280c0,0,-83,-97,-238,-97c0,0,-79,0,-160,19c0,0,5,-48,5,-109V-257l103,-18v-50Z" 
id="f0_2c"
transform="scale(0.001,-0.001)" />

<path d="M434,423c0,0,0,101,-7,142c0,0,-6,40,-22,60c0,0,-16,19,-45,19c0,0,-44,0,-66,-48c0,0,-22,-49,-22,-173ZM389,-14c0,0,-172,0,-254,89c0,0,-83,90,-83,279c0,0,0,184,79,274c0,0,79,91,238,91c0,0,142,0,206,-76c0,0,64,-76,64,-237V345H271V333c0,0,0,-111,18,-158c0,0,18,-47,58,-72c0,0,40,-25,110,-25c0,0,66,0,166,22V42C623,42,582,18,517,1c0,0,-66,-15,-128,-15Z" 
id="f0_21"
transform="scale(0.001,-0.001)" />

<path d="M41,0V49l91,18V634L41,652v49H336l8,-145c0,0,80,89,144,128c0,0,64,40,117,40h40V468H604l-45,94c0,0,-47,0,-106,-21c0,0,-60,-20,-105,-48V67L460,49V0Z" 
id="f0_2e"
transform="scale(0.001,-0.001)" />

<path d="M41,0V49l69,18V634L41,652v49H313l11,-61l50,26c0,0,105,54,188,54c0,0,125,0,167,-91c0,0,153,91,258,91c0,0,189,0,189,-207V67l71,-17V0H898V50l63,17V484c0,0,0,63,-24,98c0,0,-25,35,-74,35c0,0,-55,0,-119,-31c0,0,7,-32,7,-73V67L821,50V0H473V50l63,17V484c0,0,0,63,-25,98c0,0,-24,35,-73,35c0,0,-49,0,-113,-29V67L389,49V0Z" 
id="f0_29"
transform="scale(0.001,-0.001)" />

<path d="M273,157c0,0,-114,0,-193,80C80,237,0,317,0,431c0,0,0,112,80,192c0,0,79,80,193,80c0,0,113,0,192,-80c0,0,80,-80,80,-192c0,0,0,-114,-80,-194c0,0,-79,-80,-192,-80Z" 
id="f1_3d"
transform="scale(0.001,-0.001)" />

<path d="M44,0V40L172,60V941L44,960v40H794V760H745L721,922c0,0,-83,11,-241,11H316V543H586l23,119h48V354H609L586,475H316V67H513c0,0,193,0,252,12l43,185h49L843,0Z" 
id="f2_15"
transform="scale(0.001,-0.001)" />

<path d="M439,0V33l93,19V500c0,0,0,62,-30,97c0,0,-31,36,-94,36c0,0,-67,0,-165,-22V52L338,33V0H35V33l84,19V649L35,668v33H235l7,-57c0,0,57,33,122,54c0,0,65,22,108,22c0,0,91,0,137,-53c0,0,47,-53,47,-154V52L741,33V0Z" 
id="f2_2a"
transform="scale(0.001,-0.001)" />

<path d="M383,64c0,0,85,0,152,28V645c0,0,-67,13,-152,13c0,0,-194,0,-194,-314c0,0,0,-141,48,-211c0,0,48,-69,146,-69ZM342,-14c0,0,-287,0,-287,358c0,0,0,184,82,280c0,0,81,96,239,96c0,0,81,0,163,-18c0,0,-4,25,-4,124v182l-118,18v34H659V52L745,33V0H548l-9,52c0,0,-84,-66,-197,-66Z" 
id="f2_20"
transform="scale(0.001,-0.001)" />

<path d="M377,45c0,0,99,0,147,73c0,0,47,73,47,237c0,0,0,161,-47,233c0,0,-47,72,-147,72c0,0,-97,0,-141,-69c0,0,-44,-69,-44,-236c0,0,0,-169,45,-240c0,0,44,-70,140,-70Zm0,-59c0,0,-158,0,-238,94c0,0,-81,95,-81,274c0,0,0,178,81,272c0,0,80,94,244,94c0,0,160,0,241,-92c0,0,82,-92,82,-274c0,0,0,-368,-329,-368Z" 
id="f2_2b"
transform="scale(0.001,-0.001)" />

<path d="M278,-14c0,0,-52,0,-115,11c0,0,-63,10,-99,23V193H98L134,95c0,0,56,-50,146,-50c0,0,144,0,144,123c0,0,0,91,-114,130l-66,21c0,0,-75,25,-110,50c0,0,-34,26,-53,63c0,0,-18,36,-18,89c0,0,0,92,63,145c0,0,63,54,170,54c0,0,77,0,193,-23V544H454l-32,81c0,0,-39,35,-124,35c0,0,-61,0,-92,-30c0,0,-32,-30,-32,-80c0,0,0,-43,29,-72c0,0,28,-29,86,-48c0,0,110,-38,144,-55c0,0,33,-17,57,-42c0,0,23,-25,36,-57c0,0,13,-32,13,-79c0,0,0,-104,-66,-158c0,0,-66,-53,-195,-53Z" 
id="f2_2f"
transform="scale(0.001,-0.001)" />

<path d="M382,45c0,0,188,0,188,314c0,0,0,143,-47,213c0,0,-46,69,-141,69c0,0,-87,0,-146,-24V58c0,0,67,-13,146,-13ZM25,-325v35l88,18V649L34,668v33H231l1,-41c0,0,31,27,84,43c0,0,53,17,107,17c0,0,134,0,208,-94c0,0,73,-93,73,-267c0,0,0,-178,-80,-276c0,0,-80,-97,-232,-97c0,0,-84,0,-160,16c0,0,4,-53,4,-84V-272l123,-18v-35Z" 
id="f2_2c"
transform="scale(0.001,-0.001)" />

<path d="M495,413c0,0,0,133,-34,190c0,0,-34,57,-105,57c0,0,-78,0,-119,-63c0,0,-42,-62,-42,-184ZM374,-14c0,0,-163,0,-239,87c0,0,-75,88,-75,283c0,0,0,183,77,273c0,0,76,91,219,91c0,0,269,0,269,-306V353H194V340c0,0,0,-103,23,-160c0,0,22,-57,70,-87c0,0,47,-29,124,-29c0,0,40,0,96,6c0,0,55,7,91,15V43C598,43,562,20,500,3c0,0,-61,-17,-126,-17Z" 
id="f2_21"
transform="scale(0.001,-0.001)" />

<path d="M31,0V33l88,19V649L31,668v33H235l7,-87c0,0,44,37,121,71c0,0,76,35,121,35h11V530H463l-43,82c0,0,-37,0,-88,-10c0,0,-52,-10,-89,-26V52L363,33V0Z" 
id="f2_2e"
transform="scale(0.001,-0.001)" />

<path d="M431,0V33L535,52V499c0,0,0,62,-32,96c0,0,-32,33,-95,33c0,0,-66,0,-163,-22V52L350,33V0H32V33l89,19V649L32,668v33H237l6,-57c0,0,56,32,119,54c0,0,62,22,110,22c0,0,52,0,95,-20c0,0,44,-19,66,-62c0,0,57,32,134,57c0,0,77,25,128,25c0,0,179,0,179,-207V52l90,-19V0H846V33L950,52V499c0,0,0,129,-119,129c0,0,-19,0,-45,-3c0,0,-26,-3,-52,-7c0,0,-25,-4,-49,-8c0,0,-23,-5,-39,-8c0,0,13,-41,13,-89V52L764,33V0Z" 
id="f2_29"
transform="scale(0.001,-0.001)" />

<path d="M32,0V33L151,52V649L52,668v33H275V52L395,33V0ZM201,850c0,0,-32,0,-56,24c0,0,-24,24,-24,56c0,0,0,34,24,58c0,0,24,24,56,24c0,0,34,0,58,-24c0,0,24,-24,24,-58c0,0,0,-32,-24,-56c0,0,-24,-24,-58,-24Z" 
id="f2_25"
transform="scale(0.001,-0.001)" />

<path d="M284,67c0,0,51,0,88,12c0,0,37,12,74,30V358l-98,-3c0,0,-100,-4,-135,-39c0,0,-35,-35,-35,-117c0,0,0,-132,106,-132ZM233,-14c0,0,-179,0,-179,208c0,0,0,70,27,116c0,0,27,46,87,70c0,0,60,24,173,27l105,3V519c0,0,0,72,-26,107c0,0,-27,34,-82,34c0,0,-75,0,-137,-35L176,538H134V691c0,0,121,26,213,26c0,0,115,0,169,-47c0,0,54,-47,54,-144V52L657,33V0H465L451,70c0,0,-85,-84,-218,-84Z" 
id="f2_1x"
transform="scale(0.001,-0.001)" />

<path d="M289,-14c0,0,-179,0,-179,205V649L20,668v33H233V200c0,0,0,-128,120,-128c0,0,92,0,173,23V649L420,668v33H649V52L738,33V0H533l-6,57C527,57,474,28,405,7c0,0,-69,-21,-116,-21Z" 
id="f2_2h"
transform="scale(0.001,-0.001)" />

<path d="M249,-14c0,0,-71,0,-107,42c0,0,-35,42,-35,119V639H15v33l93,29l76,159h47V701H391V639H231V161c0,0,0,-48,22,-73c0,0,22,-24,57,-24c0,0,44,0,106,12V26C416,26,389,8,340,-2c0,0,-49,-12,-91,-12Z" 
id="f2_2g"
transform="scale(0.001,-0.001)" />

<path d="M360,-14L72,649L0,668v33H327V668L216,648L420,164L615,649L504,668v33H764V668L697,652L416,-14Z" 
id="f2_2i"
transform="scale(0.001,-0.001)" />

<path d="M64,0V34L168,59V639H47v36l121,29v49c0,0,0,155,61,239c0,0,62,84,173,84c0,0,58,0,107,-15V908H472l-33,92c0,0,-26,16,-62,16c0,0,-47,0,-66,-42c0,0,-19,-42,-19,-157V701H478V639H292V59L443,34V0Z" 
id="f2_22"
transform="scale(0.001,-0.001)" />

<path d="M359,-270c0,0,124,0,192,46c0,0,67,47,67,129c0,0,0,43,-26,67c0,0,-26,24,-79,24H242c0,0,-32,-27,-51,-69c0,0,-20,-41,-20,-77c0,0,0,-64,46,-92c0,0,46,-28,142,-28Zm11,561c0,0,81,0,115,47c0,0,34,47,34,141c0,0,0,100,-35,142c0,0,-35,42,-113,42c0,0,-78,0,-114,-43c0,0,-37,-42,-37,-141c0,0,0,-98,36,-143c0,0,36,-45,114,-45ZM359,-329c0,0,-143,0,-218,44c0,0,-75,43,-75,125c0,0,0,39,27,78c0,0,26,38,98,89c0,0,-43,14,-72,48c0,0,-29,35,-29,74L208,262c0,0,-118,55,-118,217c0,0,0,115,73,178c0,0,73,63,211,63c0,0,28,0,71,-6c0,0,44,-6,67,-13l165,83l26,-32L599,644c0,0,50,-56,50,-165c0,0,0,-120,-72,-182c0,0,-73,-62,-208,-62c0,0,-62,0,-114,11L208,148c0,0,2,-13,29,-24c0,0,27,-12,67,-12H512c0,0,113,0,168,-49c0,0,55,-49,55,-134c0,0,0,-79,-44,-137c0,0,-43,-58,-128,-90c0,0,-84,-31,-204,-31Z" 
id="f2_23"
transform="scale(0.001,-0.001)" />

<path d="M31,0V33L150,52v956L31,1026v34H274V52L394,33V0Z" 
id="f2_28"
transform="scale(0.001,-0.001)" />

<path d="M41,0V34L426,641H261c0,0,-42,0,-80,-7c0,0,-39,-7,-54,-19L104,515H69V701H586V665L201,60H407c0,0,42,0,89,10c0,0,47,10,66,25l39,147h35L617,0Z" 
id="f2_2m"
transform="scale(0.001,-0.001)" />

<path d="M191,-20c0,0,-39,0,-65,25c0,0,-25,27,-25,64c0,0,0,38,26,64c0,0,26,26,64,26c0,0,38,0,64,-26c0,0,26,-26,26,-64c0,0,0,-37,-25,-64c0,0,-26,-25,-65,-25Z" 
id="f2_i"
transform="scale(0.001,-0.001)" />

<path d="M442,0V33l93,19V504c0,0,0,129,-124,129c0,0,-70,0,-168,-22V52L338,33V0H31V33l88,19v956L15,1026v34H243V756c0,0,0,-77,-5,-112c0,0,54,31,122,53c0,0,68,23,115,23c0,0,91,0,137,-53c0,0,47,-53,47,-154V52L744,33V0Z" 
id="f2_24"
transform="scale(0.001,-0.001)" />

<path d="M376,50c0,0,103,0,149,80c0,0,46,81,46,240c0,0,0,137,-47,204c0,0,-48,67,-148,67c0,0,-44,0,-87,-7c0,0,-44,-8,-63,-17V62c0,0,63,-12,150,-12Zm3,-64c0,0,-64,0,-141,14c0,0,-78,14,-136,37v971L0,1026v34H226V809c0,0,0,-40,-4,-148c0,0,74,59,188,59c0,0,143,0,219,-87c0,0,77,-87,77,-263c0,0,0,-189,-84,-287c0,0,-84,-97,-243,-97Z" 
id="f2_1y"
transform="scale(0.001,-0.001)" />

<path d="M148,-329c0,0,-58,0,-114,13v151H69l24,-71c0,0,23,-17,64,-17c0,0,39,0,72,22c0,0,33,23,60,67c0,0,27,44,68,157L90,649L19,668v33H344V668L233,648L423,158L606,649L497,668v33H758V668L685,652L411,-43c0,0,-48,-124,-84,-177c0,0,-36,-54,-79,-82c0,0,-44,-27,-100,-27Z" 
id="f2_2l"
transform="scale(0.001,-0.001)" />

<path d="M55,0V40L184,60V941L55,960v40H455V960L327,941V60L455,40V0Z" 
id="f2_19"
transform="scale(0.001,-0.001)" />

<path d="M235,0V40L394,60V936H356c0,0,-189,0,-258,-15L78,766H28v234H908V766H857L837,921c0,0,-22,5,-98,9c0,0,-75,4,-165,4H538V60L697,40V0Z" 
id="f2_1k"
transform="scale(0.001,-0.001)" />

<path d="M327,-14L84,649L1,668v33H335V668L219,648L385,174L554,632h63L786,171L944,649L830,668v33h267V668l-78,-16L784,-14H726L553,448L382,-14Z" 
id="f2_2j"
transform="scale(0.001,-0.001)" />

<path d="M399,-14c0,0,-341,0,-341,370c0,0,0,175,87,269c0,0,87,95,249,95c0,0,101,0,220,-23V501H573L541,625c0,0,-62,35,-149,35c0,0,-200,0,-200,-304c0,0,0,-158,61,-225c0,0,61,-67,189,-67c0,0,109,0,189,24V43C631,43,595,16,530,1c0,0,-64,-15,-131,-15Z" 
id="f2_1z"
transform="scale(0.001,-0.001)" />

<path d="M6,0V49L69,61L292,323L91,634L23,652v49H398V652L319,632L421,475L557,634l-71,18v49H725V652L663,637L466,406L689,65L756,49V0H381V49l79,17L337,254L175,65L245,49V0Z" 
id="f0_2k"
transform="scale(0.001,-0.001)" />

<path d="M34,0V49l76,18V634L38,652v49H325V67L402,49V0ZM217,831c0,0,-48,0,-81,33c0,0,-34,33,-34,82c0,0,0,48,34,81c0,0,34,33,81,33c0,0,48,0,81,-33c0,0,33,-33,33,-81c0,0,0,-47,-33,-81c0,0,-32,-34,-81,-34Z" 
id="f0_25"
transform="scale(0.001,-0.001)" />

<path d="M345,75c0,0,50,0,110,26V351l-63,-2c0,0,-72,-3,-100,-38c0,0,-28,-35,-28,-113c0,0,0,-63,22,-93c0,0,23,-30,59,-30ZM266,-14c0,0,-217,0,-217,208c0,0,0,79,32,126c0,0,32,48,93,71c0,0,60,22,190,25l91,2V521c0,0,0,126,-104,126c0,0,-62,0,-140,-39L183,521H134V691c0,0,112,17,165,21c0,0,53,5,108,5c0,0,264,0,264,-194V67L741,49V0H483L466,54C466,54,408,14,361,0c0,0,-47,-14,-95,-14Z" 
id="f0_1x"
transform="scale(0.001,-0.001)" />

<path d="M54,0V40L172,60V941L44,960v40H794V760H745L721,922c0,0,-83,11,-241,11H316V516H611l23,120h46V328H634L611,449H316V60L483,40V0Z" 
id="f2_16"
transform="scale(0.001,-0.001)" />

<path d="M477,0V33l64,19L348,354L257,254V52L331,33V0H44V33l89,19v956L29,1026v34H257V338L544,647l-73,20v34H718V667L631,650L431,446L688,50L764,33V0Z" 
id="f2_27"
transform="scale(0.001,-0.001)" />

<path d="M134,0V40L339,60V876L137,804v39l292,166h39V60L672,40V0Z" 
id="f2_l"
transform="scale(0.001,-0.001)" />

<path d="M377,45c0,0,100,0,147,52c0,0,47,52,47,174c0,0,0,119,-46,173c0,0,-47,54,-148,54c0,0,-98,0,-141,-51c0,0,-44,-51,-44,-176c0,0,0,-126,44,-176c0,0,44,-50,141,-50Zm2,518c0,0,84,0,123,46c0,0,39,46,39,148c0,0,0,102,-40,151c0,0,-41,48,-122,48c0,0,-79,0,-118,-47c0,0,-38,-47,-38,-152c0,0,0,-104,37,-149c0,0,38,-45,119,-45ZM377,-14c0,0,-319,0,-319,285c0,0,0,99,48,164c0,0,48,66,129,96c0,0,-65,30,-106,87c0,0,-40,56,-40,139c0,0,0,123,75,191c0,0,76,68,219,68c0,0,139,0,216,-67c0,0,76,-68,76,-192c0,0,0,-82,-40,-139c0,0,-40,-57,-108,-87c0,0,85,-31,132,-98c0,0,47,-67,47,-162c0,0,0,-142,-80,-214c0,0,-80,-71,-249,-71Z" 
id="f2_s"
transform="scale(0.001,-0.001)" />

<path d="M19,0L31,70L677,936H527c0,0,-185,0,-255,-15L221,764H169l42,236H862L850,936L199,63H378c0,0,89,0,181,8c0,0,92,9,125,16l78,192h52L744,0Z" 
id="f3_1q"
transform="scale(0.001,-0.001)" />

<path d="M188,355c0,0,148,11,236,69c0,0,89,58,89,143c0,0,0,41,-23,68c0,0,-22,27,-66,27c0,0,-52,0,-101,-43c0,0,-49,-42,-85,-114c0,0,-36,-71,-50,-150ZM298,-14c0,0,-120,0,-186,67c0,0,-65,67,-65,193c0,0,0,125,53,232c0,0,52,108,145,175c0,0,94,67,196,67c0,0,92,0,147,-42c0,0,56,-43,56,-111c0,0,0,-102,-126,-173c0,0,-125,-72,-336,-86l-3,-54c0,0,0,-95,40,-143c0,0,40,-47,118,-47c0,0,67,0,124,22c0,0,57,23,106,52l22,-32c0,0,-69,-58,-146,-89c0,0,-76,-31,-145,-31Z" 
id="f3_21"
transform="scale(0.001,-0.001)" />

<path d="M301,78c0,0,85,0,185,104l81,442c0,0,-29,20,-55,28c0,0,-25,8,-62,8c0,0,-75,0,-137,-56c0,0,-62,-56,-98,-152c0,0,-36,-95,-36,-199c0,0,0,-79,33,-127c0,0,33,-48,89,-48ZM245,-14c0,0,-90,0,-145,66c0,0,-54,66,-54,182c0,0,0,131,57,244c0,0,57,114,152,178c0,0,96,64,208,64c0,0,90,0,170,-33l33,26h40L589,52L673,33L667,0H454l22,117C476,117,350,-14,245,-14Z" 
id="f3_1x"
transform="scale(0.001,-0.001)" />

<path d="M55,0L169,649L81,668l6,33H295L274,557c0,0,52,73,117,118c0,0,65,45,122,45c0,0,66,0,102,-42c0,0,36,-41,36,-121c0,0,51,72,115,117c0,0,64,46,123,46c0,0,63,0,99,-40c0,0,36,-40,36,-116c0,0,0,-16,-3,-42c0,0,-3,-27,-80,-470l98,-19L1032,0H808l77,434c0,0,17,90,17,124c0,0,0,34,-16,54c0,0,-15,21,-49,21c0,0,-33,0,-78,-32c0,0,-46,-31,-83,-80c0,0,-37,-49,-44,-91L558,0H434l76,434c0,0,19,98,19,124c0,0,0,34,-17,54c0,0,-16,21,-51,21c0,0,-33,0,-81,-34c0,0,-47,-33,-84,-80c0,0,-36,-48,-43,-89L179,0Z" 
id="f3_29"
transform="scale(0.001,-0.001)" />

<path d="M-15,-329c0,0,-61,0,-112,13l28,152h34l12,-72c0,0,18,-17,60,-17c0,0,100,0,212,202L253,9L116,649L33,668l6,33H230L338,155L513,458c0,0,48,83,48,144c0,0,0,27,-16,44c0,0,-15,16,-33,22l6,33H659c0,0,20,-17,20,-47c0,0,0,-59,-62,-164L322,-7c0,0,-86,-145,-135,-205c0,0,-50,-61,-98,-89c0,0,-49,-28,-104,-28Z" 
id="f3_2l"
transform="scale(0.001,-0.001)" />

<path d="M228,-14c0,0,-103,0,-209,46L49,200H83L95,99c0,0,20,-21,55,-38c0,0,36,-16,81,-16c0,0,163,0,163,133c0,0,0,44,-35,78c0,0,-34,34,-113,72c0,0,-75,37,-112,81c0,0,-36,45,-36,104c0,0,0,99,66,153c0,0,67,54,184,54c0,0,85,0,200,-26L521,538H486l-11,80c0,0,-47,42,-124,42c0,0,-61,0,-97,-28c0,0,-37,-28,-37,-87c0,0,0,-40,31,-71c0,0,32,-30,119,-75c0,0,78,-40,113,-86c0,0,36,-47,36,-107c0,0,0,-113,-71,-167c0,0,-72,-53,-217,-53Z" 
id="f3_2f"
transform="scale(0.001,-0.001)" />

<path d="M460,-325c0,0,-148,79,-231,172c0,0,-84,93,-123,217c0,0,-39,126,-39,304c0,0,0,178,39,303c0,0,39,125,122,217c0,0,82,93,232,172V997c0,0,-91,-52,-145,-134c0,0,-54,-81,-79,-190c0,0,-25,-109,-25,-305c0,0,0,-194,26,-309c0,0,26,-114,82,-193c0,0,56,-79,141,-128v-63Z" 
id="f2_c"
transform="scale(0.001,-0.001)" />

<path d="M49,-325v63c0,0,85,49,140,128c0,0,56,79,83,194c0,0,26,115,26,308c0,0,0,196,-25,305c0,0,-25,109,-79,190c0,0,-54,82,-145,134v63c0,0,149,-80,232,-172c0,0,83,-92,122,-217c0,0,39,-125,39,-303c0,0,0,-177,-39,-303c0,0,-39,-125,-122,-217c0,0,-83,-93,-232,-173Z" 
id="f2_d"
transform="scale(0.001,-0.001)" />

<path d="M900,0V54l135,20V845L658,0H617L248,845V74L382,54V0H26V54L154,74V926L26,945v55H419L705,342l292,658h401V945L1270,926V74L1398,54V0Z" 
id="f0_1d"
transform="scale(0.001,-0.001)" />

<path d="M327,-14c0,0,-101,0,-156,45c0,0,-55,45,-55,131V624H25v48l108,29l87,159H332V701H480V624H332V176c0,0,0,-49,20,-73c0,0,20,-25,53,-25c0,0,40,0,97,12V26c0,0,-22,-15,-76,-27c0,0,-55,-13,-99,-13Z" 
id="f0_2g"
transform="scale(0.001,-0.001)" />

<path d="M57,302V417H454V302Z" 
id="f2_h"
transform="scale(0.001,-0.001)" />

<path d="M122,0V64L295,82V837L123,780v64l282,165H511V82L685,64V0Z" 
id="f0_l"
transform="scale(0.001,-0.001)" />

<path d="M191,-20c0,0,-51,0,-88,34c0,0,-36,36,-36,88c0,0,0,52,36,88c0,0,36,36,88,36c0,0,51,0,88,-36c0,0,36,-36,36,-88c0,0,0,-51,-36,-87c0,0,-36,-35,-88,-35Z" 
id="f0_i"
transform="scale(0.001,-0.001)" />

<path d="M287,-18c0,0,-194,0,-194,206V634L23,652v49H309V217c0,0,0,-63,26,-98c0,0,27,-35,76,-35c0,0,57,0,113,25V634l-64,18v49H740V67L809,49V0H536L526,61L475,35c0,0,-104,-53,-188,-53Z" 
id="f0_2h"
transform="scale(0.001,-0.001)" />

<path d="M425,-14c0,0,-187,0,-280,90c0,0,-93,90,-93,276c0,0,0,115,42,198c0,0,43,82,121,126c0,0,78,44,182,44c0,0,104,0,227,-26V486H571L539,609c0,0,-25,19,-50,26c0,0,-24,7,-65,7c0,0,-44,0,-79,-35c0,0,-36,-35,-56,-98c0,0,-20,-64,-20,-153c0,0,0,-150,47,-214c0,0,47,-64,148,-64c0,0,103,0,176,21V42C640,42,606,15,547,0c0,0,-59,-14,-122,-14Z" 
id="f0_1z"
transform="scale(0.001,-0.001)" />

<path d="M30,0V49l76,18V992l-72,18v50H322V67L398,49V0Z" 
id="f0_28"
transform="scale(0.001,-0.001)" />

<path d="M435,0V856c0,0,-48,-47,-127,-93c0,0,-79,-46,-142,-69V824c0,0,113,52,197,128c0,0,85,75,120,146h86V0Z" 
id="f4_l"
transform="scale(0.001,-0.001)" />

<path d="M420,489c0,0,93,0,153,65c0,0,60,65,60,181c0,0,0,116,-62,184c0,0,-61,68,-148,68c0,0,-90,0,-156,-74c0,0,-66,-73,-66,-189c0,0,0,-105,63,-170c0,0,63,-65,156,-65ZM391,-18c0,0,-128,0,-209,71c0,0,-82,71,-98,200l129,12c0,0,17,-91,63,-132c0,0,46,-41,118,-41c0,0,62,0,109,28c0,0,47,29,76,76c0,0,30,47,50,128c0,0,20,80,20,164c0,0,0,9,-1,27c0,0,-40,-65,-110,-105c0,0,-69,-39,-151,-39c0,0,-135,0,-229,98c0,0,-94,99,-94,260c0,0,0,166,98,268c0,0,98,101,245,101c0,0,107,0,195,-57c0,0,89,-58,134,-164c0,0,46,-106,46,-308c0,0,0,-209,-45,-334C737,235,691,111,602,46c0,0,-90,-64,-211,-64Z" 
id="f4_t"
transform="scale(0.001,-0.001)" />


</defs>
</svg>