<?xml version="1.0" encoding="UTF-8" standalone="no"?>
<!DOCTYPE svg PUBLIC "-//W3C//DTD SVG 1.1//EN"
"http://www.w3.org/Graphics/SVG/1.1/DTD/svg11.dtd">
<svg viewBox="0 0 909 1286" version="1.1" xmlns="http://www.w3.org/2000/svg" xmlns:xlink="http://www.w3.org/1999/xlink">
<defs>
<style type="text/css"><![CDATA[
.g0_37{
fill: #FFFFFF;
}
.g1_37{
fill: #1F3331;
}
]]></style>
</defs>
<path fill-rule="evenodd" d="M52.8,495.9H857.2V55H52.8V495.9Z" class="g0_37" />
<path fill-rule="evenodd" d="M52.8,530.7H857.2V495.9H52.8v34.8Z" class="g0_37" />
<path fill-rule="evenodd" d="M52.8,930.1H857.2V530.7H52.8V930.1Z" class="g0_37" />
<path fill-rule="evenodd" d="M52.8,951.8H857.2V930.1H52.8v21.7Z" class="g0_37" />
<g fill="#1F3331" >
<use xlink:href="#f0_16" transform="matrix(12,0,0,12,55,947.4)" />
<use xlink:href="#f0_2b" transform="matrix(12,0,0,12,66,947.4)" />
<use xlink:href="#f0_2e" transform="matrix(12,0,0,12,75.6,947.4)" />
<use xlink:href="#f0_29" transform="matrix(12,0,0,12,83.3,947.4)" />
<use xlink:href="#f0_1x" transform="matrix(12,0,0,12,98.3,947.4)" />
<use xlink:href="#f0_2g" transform="matrix(12,0,0,12,107.5,947.4)" />
<use xlink:href="#f0_25" transform="matrix(12,0,0,12,113.7,947.4)" />
<use xlink:href="#f0_2b" transform="matrix(12,0,0,12,118.8,947.4)" />
<use xlink:href="#f0_2a" transform="matrix(12,0,0,12,127.9,947.4)" />
<use xlink:href="#f0_2b" transform="matrix(12,0,0,12,143,947.4)" />
<use xlink:href="#f0_22" transform="matrix(12,0,0,12,152.1,947.4)" />
<use xlink:href="#f0_2f" transform="matrix(12,0,0,12,162.7,947.4)" />
<use xlink:href="#f0_21" transform="matrix(12,0,0,12,169.7,947.4)" />
<use xlink:href="#f0_21" transform="matrix(12,0,0,12,177.8,947.4)" />
<use xlink:href="#f0_20" transform="matrix(12,0,0,12,185.8,947.4)" />
<use xlink:href="#f0_1x" transform="matrix(12,0,0,12,200.8,947.4)" />
<use xlink:href="#f0_2a" transform="matrix(12,0,0,12,210,947.4)" />
<use xlink:href="#f0_20" transform="matrix(12,0,0,12,220.3,947.4)" />
<use xlink:href="#f0_22" transform="matrix(12,0,0,12,235.3,947.4)" />
<use xlink:href="#f0_2e" transform="matrix(12,0,0,12,241.1,947.4)" />
<use xlink:href="#f0_2h" transform="matrix(12,0,0,12,248.8,947.4)" />
<use xlink:href="#f0_25" transform="matrix(12,0,0,12,259.1,947.4)" />
<use xlink:href="#f0_2g" transform="matrix(12,0,0,12,264.2,947.4)" />
</g>
<path fill-rule="evenodd" d="M55,951H271.1v-1.8H55V951Z" class="g1_37" />
<image preserveAspectRatio="none" x="57" y="55" width="603" height="427" xlink:href="img/1.png" />
<image preserveAspectRatio="none" x="55" y="530" width="667" height="386" xlink:href="img/2.png" />
<image preserveAspectRatio="none" x="55" y="974" width="173" height="231" xlink:href="img/3.png" />
<image preserveAspectRatio="none" x="260" y="965" width="442" height="239" xlink:href="img/4.png" />
<g fill="#000000" >
<use xlink:href="#f1_m" transform="matrix(8,0,0,8,786.1,1264.1)" />
<use xlink:href="#f1_m" transform="matrix(8,0,0,8,792.9,1264.1)" />
</g>
<defs>
<path d="M36,0V54L154,74V926L26,945v55H860V731H790L766,908c0,0,-36,5,-121,8c0,0,-84,2,-133,2H389V508H633l23,127h67V298H656L633,426H389V74L556,54V0Z" 
id="f0_16"
transform="scale(0.001,-0.001)" />

<path d="M379,60c0,0,59,0,84,64c0,0,24,65,24,231c0,0,0,164,-24,227c0,0,-24,63,-84,63c0,0,-57,0,-80,-60c0,0,-22,-61,-22,-230c0,0,0,-173,23,-234c0,0,22,-61,79,-61Zm-2,-74c0,0,-161,0,-240,91c0,0,-79,91,-79,277c0,0,0,186,80,276c0,0,81,90,245,90c0,0,167,0,245,-93c0,0,78,-93,78,-273c0,0,0,-188,-81,-278c0,0,-81,-90,-248,-90Z" 
id="f0_2b"
transform="scale(0.001,-0.001)" />

<path d="M41,0V49l91,18V634L41,652v49H336l8,-145c0,0,80,89,144,128c0,0,64,40,117,40h40V468H604l-45,94c0,0,-47,0,-106,-21c0,0,-60,-20,-105,-48V67L460,49V0Z" 
id="f0_2e"
transform="scale(0.001,-0.001)" />

<path d="M41,0V49l69,18V634L41,652v49H313l11,-61l50,26c0,0,105,54,188,54c0,0,125,0,167,-91c0,0,153,91,258,91c0,0,189,0,189,-207V67l71,-17V0H898V50l63,17V484c0,0,0,63,-24,98c0,0,-25,35,-74,35c0,0,-55,0,-119,-31c0,0,7,-32,7,-73V67L821,50V0H473V50l63,17V484c0,0,0,63,-25,98c0,0,-24,35,-73,35c0,0,-49,0,-113,-29V67L389,49V0Z" 
id="f0_29"
transform="scale(0.001,-0.001)" />

<path d="M345,75c0,0,50,0,110,26V351l-63,-2c0,0,-72,-3,-100,-38c0,0,-28,-35,-28,-113c0,0,0,-63,22,-93c0,0,23,-30,59,-30ZM266,-14c0,0,-217,0,-217,208c0,0,0,79,32,126c0,0,32,48,93,71c0,0,60,22,190,25l91,2V521c0,0,0,126,-104,126c0,0,-62,0,-140,-39L183,521H134V691c0,0,112,17,165,21c0,0,53,5,108,5c0,0,264,0,264,-194V67L741,49V0H483L466,54C466,54,408,14,361,0c0,0,-47,-14,-95,-14Z" 
id="f0_1x"
transform="scale(0.001,-0.001)" />

<path d="M327,-14c0,0,-101,0,-156,45c0,0,-55,45,-55,131V624H25v48l108,29l87,159H332V701H480V624H332V176c0,0,0,-49,20,-73c0,0,20,-25,53,-25c0,0,40,0,97,12V26c0,0,-22,-15,-76,-27c0,0,-55,-13,-99,-13Z" 
id="f0_2g"
transform="scale(0.001,-0.001)" />

<path d="M34,0V49l76,18V634L38,652v49H325V67L402,49V0ZM217,831c0,0,-48,0,-81,33c0,0,-34,33,-34,82c0,0,0,48,34,81c0,0,34,33,81,33c0,0,48,0,81,-33c0,0,33,-33,33,-81c0,0,0,-47,-33,-81c0,0,-32,-34,-81,-34Z" 
id="f0_25"
transform="scale(0.001,-0.001)" />

<path d="M41,0V49l69,18V634L41,652v49H313l11,-61l50,26c0,0,105,54,188,54c0,0,194,0,194,-207V67L827,49V0H478V49l63,18V484c0,0,0,63,-27,98c0,0,-26,35,-75,35c0,0,-57,0,-114,-25V67L389,49V0Z" 
id="f0_2a"
transform="scale(0.001,-0.001)" />

<path d="M41,0V49l76,18V624H11v51l106,29v75c0,0,0,144,73,220c0,0,73,77,210,77c0,0,74,0,124,-15V894H476l-22,81c0,0,-18,17,-47,17c0,0,-74,0,-74,-189V701H475V624H333V67L447,49V0Z" 
id="f0_22"
transform="scale(0.001,-0.001)" />

<path d="M276,-14c0,0,-57,0,-125,13C151,-1,83,10,48,23V214H97l28,-98c0,0,26,-26,69,-44c0,0,42,-17,86,-17c0,0,65,0,97,28c0,0,32,28,32,71c0,0,0,41,-31,65c0,0,-30,25,-133,57c0,0,-108,34,-154,92c0,0,-45,58,-45,143c0,0,0,95,71,152c0,0,71,57,183,57c0,0,77,0,207,-22V518H457l-24,82c0,0,-21,22,-60,35c0,0,-40,14,-75,14c0,0,-53,0,-79,-22c0,0,-26,-22,-26,-59c0,0,0,-40,32,-65c0,0,32,-26,132,-55c0,0,109,-34,155,-89c0,0,45,-55,45,-137c0,0,0,-117,-72,-177c0,0,-72,-59,-209,-59Z" 
id="f0_2f"
transform="scale(0.001,-0.001)" />

<path d="M434,423c0,0,0,101,-7,142c0,0,-6,40,-22,60c0,0,-16,19,-45,19c0,0,-44,0,-66,-48c0,0,-22,-49,-22,-173ZM389,-14c0,0,-172,0,-254,89c0,0,-83,90,-83,279c0,0,0,184,79,274c0,0,79,91,238,91c0,0,142,0,206,-76c0,0,64,-76,64,-237V345H271V333c0,0,0,-111,18,-158c0,0,18,-47,58,-72c0,0,40,-25,110,-25c0,0,66,0,166,22V42C623,42,582,18,517,1c0,0,-66,-15,-128,-15Z" 
id="f0_21"
transform="scale(0.001,-0.001)" />

<path d="M416,68c0,0,60,0,124,32V628c0,0,-58,15,-118,15c0,0,-67,0,-104,-73c0,0,-38,-73,-38,-216c0,0,0,-139,36,-212c0,0,35,-74,100,-74ZM369,-14c0,0,-155,0,-231,88c0,0,-76,90,-76,274c0,0,0,182,82,277c0,0,81,95,236,95c0,0,82,0,165,-20c0,0,-5,24,-5,115V992l-72,18v50H756V67L833,49V0H562L547,40C547,40,505,13,483,4c0,0,-23,-7,-51,-12c0,0,-28,-6,-63,-6Z" 
id="f0_20"
transform="scale(0.001,-0.001)" />

<path d="M287,-18c0,0,-194,0,-194,206V634L23,652v49H309V217c0,0,0,-63,26,-98c0,0,27,-35,76,-35c0,0,57,0,113,25V634l-64,18v49H740V67L809,49V0H536L526,61L475,35c0,0,-104,-53,-188,-53Z" 
id="f0_2h"
transform="scale(0.001,-0.001)" />

<path d="M46,0c0,0,-2,48,16,93c0,0,27,74,88,146c0,0,61,71,176,165c0,0,178,146,241,232c0,0,63,85,63,161c0,0,0,80,-57,135c0,0,-58,55,-149,55c0,0,-98,0,-156,-59c0,0,-58,-58,-59,-160L71,782c0,0,15,154,107,235c0,0,93,81,249,81c0,0,157,0,249,-87c0,0,92,-88,92,-217c0,0,0,-65,-27,-129c0,0,-27,-63,-89,-133c0,0,-62,-70,-207,-193C445,339,324,238,290,202c0,0,-35,-36,-57,-73H770V0Z" 
id="f1_m"
transform="scale(0.001,-0.001)" />


</defs>
</svg>