<?xml version="1.0" encoding="UTF-8" standalone="no"?>
<!DOCTYPE svg PUBLIC "-//W3C//DTD SVG 1.1//EN"
"http://www.w3.org/Graphics/SVG/1.1/DTD/svg11.dtd">
<svg viewBox="0 0 909 1286" version="1.1" xmlns="http://www.w3.org/2000/svg" xmlns:xlink="http://www.w3.org/1999/xlink">
<defs>
<style type="text/css"><![CDATA[
.g0_4{
fill: #FFFFFF;
}
.g1_4{
fill: #1F3331;
}
]]></style>
</defs>
<path fill-rule="evenodd" d="M80.3,242.1H857.2V55H80.3V242.1Z" class="g0_4" />
<path fill-rule="evenodd" d="M80.3,283.9H857.2V242.1H80.3v41.8Z" class="g0_4" />
<path fill-rule="evenodd" d="M80.3,526.3H857.2V283.9H80.3V526.3Z" class="g0_4" />
<path fill-rule="evenodd" d="M80.3,546.9H857.2V526.3H80.3v20.6Z" class="g0_4" />
<path fill-rule="evenodd" d="M52.8,588.7H857.2V568.1H52.8v20.6Z" class="g0_4" />
<g fill="#1F3331" >
<use xlink:href="#f0_s1" transform="matrix(11,0,0,11,55,584.3)" />
<use xlink:href="#f0_nt" transform="matrix(11,0,0,11,63.5,584.3)" />
<use xlink:href="#f0_13" transform="matrix(11,0,0,11,71.5,584.3)" />
<use xlink:href="#f0_b1" transform="matrix(11,0,0,11,79.3,584.3)" />
<use xlink:href="#f0_77" transform="matrix(11,0,0,11,85.1,584.3)" />
<use xlink:href="#f0_9d" transform="matrix(11,0,0,11,93.5,584.3)" />
<use xlink:href="#f0_ae" transform="matrix(11,0,0,11,101.6,584.3)" />
<use xlink:href="#f0_7z" transform="matrix(11,0,0,11,115.1,584.3)" />
<use xlink:href="#f0_af" transform="matrix(11,0,0,11,123.5,584.3)" />
<use xlink:href="#f0_bf" transform="matrix(11,0,0,11,132.7,584.3)" />
<use xlink:href="#f0_77" transform="matrix(11,0,0,11,138.5,584.3)" />
<use xlink:href="#f0_bf" transform="matrix(11,0,0,11,147,584.3)" />
<use xlink:href="#f0_9q" transform="matrix(11,0,0,11,152.8,584.3)" />
<use xlink:href="#f0_am" transform="matrix(11,0,0,11,156.9,584.3)" />
<use xlink:href="#f0_af" transform="matrix(11,0,0,11,166,584.3)" />
</g>
<path fill-rule="evenodd" d="M80.3,630.5H857.2V609.9H80.3v20.6Z" class="g0_4" />
<g fill="#1F3331" >
<use xlink:href="#f1_3d" transform="matrix(10.1,0,0,10.1,82.5,626.1)" />
<use xlink:href="#f2_1c" transform="matrix(11,0,0,11,110,626.1)" />
<use xlink:href="#f2_af" transform="matrix(11,0,0,11,114.4,626.1)" />
<use xlink:href="#f2_bf" transform="matrix(11,0,0,11,130.9,626.1)" />
<use xlink:href="#f2_9n" transform="matrix(11,0,0,11,136.4,626.1)" />
<use xlink:href="#f2_9q" transform="matrix(11,0,0,11,145.2,626.1)" />
<use xlink:href="#f2_b5" transform="matrix(11,0,0,11,149.2,626.1)" />
<use xlink:href="#f2_ae" transform="matrix(11,0,0,11,163.5,626.1)" />
<use xlink:href="#f2_7z" transform="matrix(11,0,0,11,177.1,626.1)" />
<use xlink:href="#f2_bf" transform="matrix(11,0,0,11,185.5,626.1)" />
<use xlink:href="#f2_9n" transform="matrix(11,0,0,11,191,626.1)" />
<use xlink:href="#f2_am" transform="matrix(11,0,0,11,199.8,626.1)" />
<use xlink:href="#f2_7v" transform="matrix(11,0,0,11,208.6,626.1)" />
<use xlink:href="#f2_am" transform="matrix(11,0,0,11,225.1,626.1)" />
<use xlink:href="#f2_89" transform="matrix(11,0,0,11,233.9,626.1)" />
<use xlink:href="#f2_b1" transform="matrix(11,0,0,11,247.1,626.1)" />
<use xlink:href="#f2_7z" transform="matrix(11,0,0,11,253,626.1)" />
<use xlink:href="#f2_ay" transform="matrix(11,0,0,11,261.4,626.1)" />
<use xlink:href="#f2_b1" transform="matrix(11,0,0,11,270.2,626.1)" />
<use xlink:href="#f2_am" transform="matrix(11,0,0,11,276,626.1)" />
<use xlink:href="#f2_7v" transform="matrix(11,0,0,11,284.8,626.1)" />
<use xlink:href="#f2_c6" transform="matrix(11,0,0,11,293.6,626.1)" />
<use xlink:href="#f2_7l" transform="matrix(11,0,0,11,302.5,626.1)" />
<use xlink:href="#f2_bf" transform="matrix(11,0,0,11,309.8,626.1)" />
<use xlink:href="#f2_9q" transform="matrix(11,0,0,11,315.3,626.1)" />
<use xlink:href="#f2_am" transform="matrix(11,0,0,11,319.3,626.1)" />
<use xlink:href="#f2_af" transform="matrix(11,0,0,11,328.1,626.1)" />
<use xlink:href="#f2_nq" transform="matrix(11,0,0,11,336.9,626.1)" />
<use xlink:href="#f2_bf" transform="matrix(11,0,0,11,349,626.1)" />
<use xlink:href="#f2_9n" transform="matrix(11,0,0,11,354.5,626.1)" />
<use xlink:href="#f2_7z" transform="matrix(11,0,0,11,363.3,626.1)" />
<use xlink:href="#f2_7k" transform="matrix(11,0,0,11,379.4,626.1)" />
<use xlink:href="#f2_am" transform="matrix(11,0,0,11,388.2,626.1)" />
<use xlink:href="#f2_7v" transform="matrix(11,0,0,11,397,626.1)" />
<use xlink:href="#f2_co" transform="matrix(11,0,0,11,405.8,626.1)" />
<use xlink:href="#f2_7k" transform="matrix(11,0,0,11,421.5,626.1)" />
<use xlink:href="#f2_7z" transform="matrix(11,0,0,11,430.4,626.1)" />
<use xlink:href="#f2_7l" transform="matrix(11,0,0,11,438.8,626.1)" />
<use xlink:href="#f2_am" transform="matrix(11,0,0,11,445.8,626.1)" />
<use xlink:href="#f2_ae" transform="matrix(11,0,0,11,454.6,626.1)" />
<use xlink:href="#f2_7z" transform="matrix(11,0,0,11,468.1,626.1)" />
<use xlink:href="#f2_b5" transform="matrix(11,0,0,11,476.5,626.1)" />
<use xlink:href="#f2_89" transform="matrix(11,0,0,11,490.8,626.1)" />
<use xlink:href="#f2_b1" transform="matrix(11,0,0,11,496,626.1)" />
<use xlink:href="#f2_77" transform="matrix(11,0,0,11,501.8,626.1)" />
<use xlink:href="#f2_9d" transform="matrix(11,0,0,11,509.9,626.1)" />
<use xlink:href="#f2_ae" transform="matrix(11,0,0,11,517.9,626.1)" />
<use xlink:href="#f2_7z" transform="matrix(11,0,0,11,531.5,626.1)" />
<use xlink:href="#f2_af" transform="matrix(11,0,0,11,539.9,626.1)" />
<use xlink:href="#f2_bf" transform="matrix(11,0,0,11,548.7,626.1)" />
<use xlink:href="#f2_7z" transform="matrix(11,0,0,11,554.2,626.1)" />
<use xlink:href="#f2_7v" transform="matrix(11,0,0,11,562.6,626.1)" />
<use xlink:href="#f2_9q" transform="matrix(11,0,0,11,579.1,626.1)" />
<use xlink:href="#f2_af" transform="matrix(11,0,0,11,583.1,626.1)" />
<use xlink:href="#f2_bf" transform="matrix(11,0,0,11,592,626.1)" />
<use xlink:href="#f2_am" transform="matrix(11,0,0,11,597.4,626.1)" />
<use xlink:href="#f2_b5" transform="matrix(11,0,0,11,613.9,626.1)" />
<use xlink:href="#f2_7z" transform="matrix(11,0,0,11,620.5,626.1)" />
<use xlink:href="#f2_ch" transform="matrix(11,0,0,11,628.9,626.1)" />
<use xlink:href="#f2_7z" transform="matrix(11,0,0,11,636.7,626.1)" />
<use xlink:href="#f2_b1" transform="matrix(11,0,0,11,645.1,626.1)" />
<use xlink:href="#f2_77" transform="matrix(11,0,0,11,651,626.1)" />
<use xlink:href="#f2_a8" transform="matrix(11,0,0,11,659,626.1)" />
<use xlink:href="#f2_7v" transform="matrix(11,0,0,11,671.3,626.1)" />
<use xlink:href="#f2_9q" transform="matrix(11,0,0,11,680.1,626.1)" />
<use xlink:href="#f2_89" transform="matrix(11,0,0,11,684.1,626.1)" />
<use xlink:href="#f2_89" transform="matrix(11,0,0,11,689.2,626.1)" />
<use xlink:href="#f2_7z" transform="matrix(11,0,0,11,694.4,626.1)" />
<use xlink:href="#f2_b1" transform="matrix(11,0,0,11,702.8,626.1)" />
<use xlink:href="#f2_7z" transform="matrix(11,0,0,11,708.7,626.1)" />
<use xlink:href="#f2_af" transform="matrix(11,0,0,11,717.1,626.1)" />
<use xlink:href="#f2_bf" transform="matrix(11,0,0,11,725.9,626.1)" />
<use xlink:href="#f2_ay" transform="matrix(11,0,0,11,739.1,626.1)" />
<use xlink:href="#f2_77" transform="matrix(11,0,0,11,747.9,626.1)" />
<use xlink:href="#f2_b1" transform="matrix(11,0,0,11,756,626.1)" />
<use xlink:href="#f2_bf" transform="matrix(11,0,0,11,761.9,626.1)" />
<use xlink:href="#f2_b5" transform="matrix(11,0,0,11,767.4,626.1)" />
<use xlink:href="#f2_nt" transform="matrix(11,0,0,11,774,626.1)" />
<use xlink:href="#f2_t" transform="matrix(11,0,0,11,786,626.1)" />
<use xlink:href="#f2_77" transform="matrix(11,0,0,11,794.1,626.1)" />
<use xlink:href="#f2_7l" transform="matrix(11,0,0,11,802.2,626.1)" />
<use xlink:href="#f2_9n" transform="matrix(11,0,0,11,809.1,626.1)" />
<use xlink:href="#f2_ay" transform="matrix(11,0,0,11,826,626.1)" />
<use xlink:href="#f2_77" transform="matrix(11,0,0,11,834.8,626.1)" />
<use xlink:href="#f2_b1" transform="matrix(11,0,0,11,842.8,626.1)" />
<use xlink:href="#f2_bf" transform="matrix(11,0,0,11,849,626.1)" />
</g>
<path fill-rule="evenodd" d="M80.3,651H857.2V630.5H80.3V651Z" class="g0_4" />
<g fill="#1F3331" >
<use xlink:href="#f2_7v" transform="matrix(11,0,0,11,110,646.6)" />
<use xlink:href="#f2_7z" transform="matrix(11,0,0,11,118.8,646.6)" />
<use xlink:href="#f2_ch" transform="matrix(11,0,0,11,127.2,646.6)" />
<use xlink:href="#f2_7z" transform="matrix(11,0,0,11,135,646.6)" />
<use xlink:href="#f2_a8" transform="matrix(11,0,0,11,143.4,646.6)" />
<use xlink:href="#f2_am" transform="matrix(11,0,0,11,147.4,646.6)" />
<use xlink:href="#f2_ay" transform="matrix(11,0,0,11,156.2,646.6)" />
<use xlink:href="#f2_b5" transform="matrix(11,0,0,11,165,646.6)" />
<use xlink:href="#f2_bf" transform="matrix(11,0,0,11,175.6,646.6)" />
<use xlink:href="#f2_9n" transform="matrix(11,0,0,11,181.1,646.6)" />
<use xlink:href="#f2_7z" transform="matrix(11,0,0,11,189.9,646.6)" />
<use xlink:href="#f2_b1" transform="matrix(11,0,0,11,202.4,646.6)" />
<use xlink:href="#f2_7z" transform="matrix(11,0,0,11,208.3,646.6)" />
<use xlink:href="#f2_ae" transform="matrix(11,0,0,11,216.7,646.6)" />
<use xlink:href="#f2_77" transform="matrix(11,0,0,11,230.2,646.6)" />
<use xlink:href="#f2_9q" transform="matrix(11,0,0,11,238.3,646.6)" />
<use xlink:href="#f2_af" transform="matrix(11,0,0,11,242.3,646.6)" />
<use xlink:href="#f2_9q" transform="matrix(11,0,0,11,251.1,646.6)" />
<use xlink:href="#f2_af" transform="matrix(11,0,0,11,255.1,646.6)" />
<use xlink:href="#f2_9d" transform="matrix(11,0,0,11,263.6,646.6)" />
<use xlink:href="#f2_7k" transform="matrix(11,0,0,11,275.6,646.6)" />
<use xlink:href="#f2_am" transform="matrix(11,0,0,11,284.4,646.6)" />
<use xlink:href="#f2_7v" transform="matrix(11,0,0,11,293.2,646.6)" />
<use xlink:href="#f2_co" transform="matrix(11,0,0,11,302,646.6)" />
<use xlink:href="#f2_ay" transform="matrix(11,0,0,11,313.7,646.6)" />
<use xlink:href="#f2_77" transform="matrix(11,0,0,11,322.5,646.6)" />
<use xlink:href="#f2_b1" transform="matrix(11,0,0,11,330.6,646.6)" />
<use xlink:href="#f2_bf" transform="matrix(11,0,0,11,336.5,646.6)" />
<use xlink:href="#f2_b5" transform="matrix(11,0,0,11,342,646.6)" />
<use xlink:href="#f2_77" transform="matrix(11,0,0,11,352.6,646.6)" />
<use xlink:href="#f2_af" transform="matrix(11,0,0,11,360.7,646.6)" />
<use xlink:href="#f2_7v" transform="matrix(11,0,0,11,369.4,646.6)" />
<use xlink:href="#f2_7k" transform="matrix(11,0,0,11,382.3,646.6)" />
<use xlink:href="#f2_7z" transform="matrix(11,0,0,11,391.1,646.6)" />
<use xlink:href="#f2_7l" transform="matrix(11,0,0,11,399.5,646.6)" />
<use xlink:href="#f2_am" transform="matrix(11,0,0,11,406.8,646.6)" />
<use xlink:href="#f2_ae" transform="matrix(11,0,0,11,415.6,646.6)" />
<use xlink:href="#f2_7z" transform="matrix(11,0,0,11,429.2,646.6)" />
<use xlink:href="#f2_b5" transform="matrix(11,0,0,11,437.6,646.6)" />
<use xlink:href="#f2_77" transform="matrix(11,0,0,11,448.2,646.6)" />
<use xlink:href="#f2_7l" transform="matrix(11,0,0,11,460.3,646.6)" />
<use xlink:href="#f2_am" transform="matrix(11,0,0,11,467.3,646.6)" />
<use xlink:href="#f2_ae" transform="matrix(11,0,0,11,476.4,646.6)" />
<use xlink:href="#f2_ay" transform="matrix(11,0,0,11,489.9,646.6)" />
<use xlink:href="#f2_a8" transform="matrix(11,0,0,11,498.7,646.6)" />
<use xlink:href="#f2_7z" transform="matrix(11,0,0,11,502.8,646.6)" />
<use xlink:href="#f2_bf" transform="matrix(11,0,0,11,511.2,646.6)" />
<use xlink:href="#f2_7z" transform="matrix(11,0,0,11,516.7,646.6)" />
<use xlink:href="#f2_77" transform="matrix(11,0,0,11,529.1,646.6)" />
<use xlink:href="#f2_af" transform="matrix(11,0,0,11,537.2,646.6)" />
<use xlink:href="#f2_9q" transform="matrix(11,0,0,11,546,646.6)" />
<use xlink:href="#f2_ae" transform="matrix(11,0,0,11,550,646.6)" />
<use xlink:href="#f2_77" transform="matrix(11,0,0,11,563.6,646.6)" />
<use xlink:href="#f2_a8" transform="matrix(11,0,0,11,571.3,646.6)" />
<use xlink:href="#f2_nt" transform="matrix(11,0,0,11,575.3,646.6)" />
<use xlink:href="#f2_2t" transform="matrix(11,0,0,11,583.7,646.6)" />
<use xlink:href="#f2_9n" transform="matrix(11,0,0,11,591.7,646.6)" />
<use xlink:href="#f2_9q" transform="matrix(11,0,0,11,600.6,646.6)" />
<use xlink:href="#f2_b5" transform="matrix(11,0,0,11,604.6,646.6)" />
<use xlink:href="#f2_7l" transform="matrix(11,0,0,11,615.2,646.6)" />
<use xlink:href="#f2_77" transform="matrix(11,0,0,11,622.1,646.6)" />
<use xlink:href="#f2_ay" transform="matrix(11,0,0,11,630.2,646.6)" />
<use xlink:href="#f2_77" transform="matrix(11,0,0,11,639,646.6)" />
<use xlink:href="#f2_7l" transform="matrix(11,0,0,11,647.1,646.6)" />
<use xlink:href="#f2_9q" transform="matrix(11,0,0,11,654,646.6)" />
<use xlink:href="#f2_bf" transform="matrix(11,0,0,11,658.1,646.6)" />
<use xlink:href="#f2_co" transform="matrix(11,0,0,11,663.6,646.6)" />
<use xlink:href="#f2_9q" transform="matrix(11,0,0,11,675.3,646.6)" />
<use xlink:href="#f2_b5" transform="matrix(11,0,0,11,679.3,646.6)" />
<use xlink:href="#f2_a5" transform="matrix(11,0,0,11,689.9,646.6)" />
<use xlink:href="#f2_af" transform="matrix(11,0,0,11,697.6,646.6)" />
<use xlink:href="#f2_am" transform="matrix(11,0,0,11,706.4,646.6)" />
<use xlink:href="#f2_ci" transform="matrix(11,0,0,11,715.2,646.6)" />
<use xlink:href="#f2_af" transform="matrix(11,0,0,11,727.2,646.6)" />
<use xlink:href="#f2_77" transform="matrix(11,0,0,11,740.1,646.6)" />
<use xlink:href="#f2_b5" transform="matrix(11,0,0,11,748.2,646.6)" />
<use xlink:href="#f0_b1" transform="matrix(11,0,0,11,759.7,646.6)" />
<use xlink:href="#f0_7z" transform="matrix(11,0,0,11,765.5,646.6)" />
<use xlink:href="#f0_9d" transform="matrix(11,0,0,11,774,646.6)" />
<use xlink:href="#f0_7z" transform="matrix(11,0,0,11,782,646.6)" />
<use xlink:href="#f0_af" transform="matrix(11,0,0,11,790.4,646.6)" />
<use xlink:href="#f0_7z" transform="matrix(11,0,0,11,799.6,646.6)" />
<use xlink:href="#f0_b1" transform="matrix(11,0,0,11,808,646.6)" />
<use xlink:href="#f0_77" transform="matrix(11,0,0,11,813.9,646.6)" />
<use xlink:href="#f0_bf" transform="matrix(11,0,0,11,822.3,646.6)" />
<use xlink:href="#f0_9q" transform="matrix(11,0,0,11,828.2,646.6)" />
<use xlink:href="#f0_am" transform="matrix(11,0,0,11,832.2,646.6)" />
<use xlink:href="#f0_af" transform="matrix(11,0,0,11,841.3,646.6)" />
<use xlink:href="#f2_nt" transform="matrix(11,0,0,11,850.6,646.6)" />
</g>
<path fill-rule="evenodd" d="M80.3,692.8H857.2V651H80.3v41.8Z" class="g0_4" />
<g fill="#1F3331" >
<use xlink:href="#f2_t" transform="matrix(11,0,0,11,110,667.2)" />
<use xlink:href="#f2_nt" transform="matrix(11,0,0,11,118.1,667.2)" />
<use xlink:href="#f2_9d" transform="matrix(11,0,0,11,122.5,667.2)" />
<use xlink:href="#f2_nt" transform="matrix(11,0,0,11,130.5,667.2)" />
<use xlink:href="#f3_2g" transform="matrix(11,0,0,11,138.7,667.2)" />
<use xlink:href="#f3_a8" transform="matrix(11,0,0,11,147.5,667.2)" />
<use xlink:href="#f3_77" transform="matrix(11,0,0,11,151.5,667.2)" />
<use xlink:href="#f3_af" transform="matrix(11,0,0,11,160.3,667.2)" />
<use xlink:href="#f3_77" transform="matrix(11,0,0,11,169.1,667.2)" />
<use xlink:href="#f3_b1" transform="matrix(11,0,0,11,177.9,667.2)" />
<use xlink:href="#f3_9q" transform="matrix(11,0,0,11,183.8,667.2)" />
<use xlink:href="#f3_77" transform="matrix(11,0,0,11,187.8,667.2)" />
<use xlink:href="#f3_nq" transform="matrix(11,0,0,11,196.6,667.2)" />
<use xlink:href="#f3_19" transform="matrix(11,0,0,11,204.7,667.2)" />
<use xlink:href="#f3_co" transform="matrix(11,0,0,11,215.3,667.2)" />
<use xlink:href="#f3_7v" transform="matrix(11,0,0,11,223.4,667.2)" />
<use xlink:href="#f3_b1" transform="matrix(11,0,0,11,232.2,667.2)" />
<use xlink:href="#f3_77" transform="matrix(11,0,0,11,238,667.2)" />
<use xlink:href="#f0_nq" transform="matrix(11,0,0,11,246.9,667.2)" />
<use xlink:href="#f0_2n" transform="matrix(11,0,0,11,255.3,667.2)" />
<use xlink:href="#f0_bf" transform="matrix(11,0,0,11,263.3,667.2)" />
<use xlink:href="#f0_77" transform="matrix(11,0,0,11,269.2,667.2)" />
<use xlink:href="#f0_b1" transform="matrix(11,0,0,11,277.6,667.2)" />
<use xlink:href="#f0_89" transform="matrix(11,0,0,11,283.5,667.2)" />
<use xlink:href="#f0_9q" transform="matrix(11,0,0,11,289,667.2)" />
<use xlink:href="#f0_b5" transform="matrix(11,0,0,11,293,667.2)" />
<use xlink:href="#f0_9n" transform="matrix(11,0,0,11,299.6,667.2)" />
<use xlink:href="#f0_nq" transform="matrix(11,0,0,11,308.7,667.2)" />
<use xlink:href="#f0_7z" transform="matrix(11,0,0,11,316.8,667.2)" />
<use xlink:href="#f0_bf" transform="matrix(11,0,0,11,325.2,667.2)" />
<use xlink:href="#f0_7l" transform="matrix(11,0,0,11,331.1,667.2)" />
<use xlink:href="#f0_nt" transform="matrix(11,0,0,11,338.1,667.2)" />
</g>
<path fill-rule="evenodd" d="M80.3,971.6H857.2V692.8H80.3V971.6Z" class="g0_4" />
<path fill-rule="evenodd" d="M80.3,992.5H857.2V971.6H80.3v20.9Z" class="g0_4" />
<path fill-rule="evenodd" d="M52.8,1046.8H857.2v-33.1H52.8v33.1Z" class="g0_4" />
<g fill="#1F3331" >
<use xlink:href="#f0_5" transform="matrix(11,0,0,11,55,1029.9)" />
<use xlink:href="#f0_2n" transform="matrix(11,0,0,11,65.3,1029.9)" />
<use xlink:href="#f0_t" transform="matrix(11,0,0,11,73.4,1029.9)" />
<use xlink:href="#f0_3e" transform="matrix(11,0,0,11,81.4,1029.9)" />
<use xlink:href="#f0_2x" transform="matrix(11,0,0,11,90.6,1029.9)" />
<use xlink:href="#f0_5" transform="matrix(11,0,0,11,101.6,1029.9)" />
<use xlink:href="#f0_1r" transform="matrix(11,0,0,11,111.8,1029.9)" />
<use xlink:href="#f0_2j" transform="matrix(11,0,0,11,122.5,1029.9)" />
<use xlink:href="#f0_t" transform="matrix(11,0,0,11,132,1029.9)" />
<use xlink:href="#f0_2g" transform="matrix(11,0,0,11,140.1,1029.9)" />
<use xlink:href="#f0_2j" transform="matrix(11,0,0,11,148.9,1029.9)" />
<use xlink:href="#f0_24" transform="matrix(11,0,0,11,158.4,1029.9)" />
<use xlink:href="#f0_p" transform="matrix(11,0,0,11,169.8,1029.9)" />
<use xlink:href="#f0_2x" transform="matrix(11,0,0,11,180.4,1029.9)" />
<use xlink:href="#f0_j" transform="matrix(11,0,0,11,191.4,1029.9)" />
<use xlink:href="#f0_2t" transform="matrix(11,0,0,11,200.2,1029.9)" />
<use xlink:href="#f0_1c" transform="matrix(11,0,0,11,208.6,1029.9)" />
<use xlink:href="#f0_24" transform="matrix(11,0,0,11,213,1029.9)" />
<use xlink:href="#f0_1y" transform="matrix(11,0,0,11,224.4,1029.9)" />
<use xlink:href="#f0_1c" transform="matrix(11,0,0,11,239,1029.9)" />
<use xlink:href="#f0_1y" transform="matrix(11,0,0,11,243.8,1029.9)" />
<use xlink:href="#f0_2g" transform="matrix(11,0,0,11,258.4,1029.9)" />
<use xlink:href="#f0_1r" transform="matrix(11,0,0,11,267.6,1029.9)" />
<use xlink:href="#f0_5" transform="matrix(11,0,0,11,274.6,1029.9)" />
<use xlink:href="#f0_1y" transform="matrix(11,0,0,11,284.8,1029.9)" />
<use xlink:href="#f0_2t" transform="matrix(11,0,0,11,295.8,1029.9)" />
<use xlink:href="#f0_2n" transform="matrix(11,0,0,11,304.2,1029.9)" />
</g>
<path fill-rule="evenodd" d="M55,1032.8H312.5v-1.1H55v1.1Z" class="g1_4" />
<path fill-rule="evenodd" d="M52.8,1079.8H857.2v-33H52.8v33Z" class="g0_4" />
<g fill="#1F3331" >
<use xlink:href="#f2_2t" transform="matrix(11,0,0,11,55,1062.9)" />
<use xlink:href="#f2_9n" transform="matrix(11,0,0,11,63.1,1062.9)" />
<use xlink:href="#f2_7z" transform="matrix(11,0,0,11,71.9,1062.9)" />
<use xlink:href="#f2_7l" transform="matrix(11,0,0,11,84,1062.9)" />
<use xlink:href="#f2_am" transform="matrix(11,0,0,11,91,1062.9)" />
<use xlink:href="#f2_ae" transform="matrix(11,0,0,11,99.8,1062.9)" />
<use xlink:href="#f2_ae" transform="matrix(11,0,0,11,113.3,1062.9)" />
<use xlink:href="#f2_am" transform="matrix(11,0,0,11,126.9,1062.9)" />
<use xlink:href="#f2_af" transform="matrix(11,0,0,11,135.7,1062.9)" />
<use xlink:href="#f2_a8" transform="matrix(11,0,0,11,144.5,1062.9)" />
<use xlink:href="#f2_co" transform="matrix(11,0,0,11,148.5,1062.9)" />
<use xlink:href="#f2_am" transform="matrix(11,0,0,11,159.8,1062.9)" />
<use xlink:href="#f2_7k" transform="matrix(11,0,0,11,168.6,1062.9)" />
<use xlink:href="#f2_b5" transform="matrix(11,0,0,11,177.4,1062.9)" />
<use xlink:href="#f2_7z" transform="matrix(11,0,0,11,184,1062.9)" />
<use xlink:href="#f2_b1" transform="matrix(11,0,0,11,192.4,1062.9)" />
<use xlink:href="#f2_ch" transform="matrix(11,0,0,11,198.3,1062.9)" />
<use xlink:href="#f2_7z" transform="matrix(11,0,0,11,206,1062.9)" />
<use xlink:href="#f2_7v" transform="matrix(11,0,0,11,214.4,1062.9)" />
<use xlink:href="#f2_ae" transform="matrix(11,0,0,11,227,1062.9)" />
<use xlink:href="#f2_am" transform="matrix(11,0,0,11,240.6,1062.9)" />
<use xlink:href="#f2_7v" transform="matrix(11,0,0,11,249.4,1062.9)" />
<use xlink:href="#f2_7z" transform="matrix(11,0,0,11,258.2,1062.9)" />
<use xlink:href="#f2_b5" transform="matrix(11,0,0,11,266.6,1062.9)" />
<use xlink:href="#f2_am" transform="matrix(11,0,0,11,276.9,1062.9)" />
<use xlink:href="#f2_89" transform="matrix(11,0,0,11,285.7,1062.9)" />
<use xlink:href="#f2_77" transform="matrix(11,0,0,11,294.5,1062.9)" />
<use xlink:href="#f2_b5" transform="matrix(11,0,0,11,302.6,1062.9)" />
<use xlink:href="#f2_7z" transform="matrix(11,0,0,11,309.2,1062.9)" />
<use xlink:href="#f2_cn" transform="matrix(11,0,0,11,317.6,1062.9)" />
<use xlink:href="#f2_c6" transform="matrix(11,0,0,11,325,1062.9)" />
<use xlink:href="#f2_77" transform="matrix(11,0,0,11,333.8,1062.9)" />
<use xlink:href="#f2_a8" transform="matrix(11,0,0,11,341.8,1062.9)" />
<use xlink:href="#f2_b1" transform="matrix(11,0,0,11,349.5,1062.9)" />
<use xlink:href="#f2_7z" transform="matrix(11,0,0,11,355.4,1062.9)" />
<use xlink:href="#f2_ay" transform="matrix(11,0,0,11,363.8,1062.9)" />
<use xlink:href="#f2_b1" transform="matrix(11,0,0,11,372.6,1062.9)" />
<use xlink:href="#f2_am" transform="matrix(11,0,0,11,378.5,1062.9)" />
<use xlink:href="#f2_7v" transform="matrix(11,0,0,11,387.3,1062.9)" />
<use xlink:href="#f2_c6" transform="matrix(11,0,0,11,396.1,1062.9)" />
<use xlink:href="#f2_7l" transform="matrix(11,0,0,11,404.9,1062.9)" />
<use xlink:href="#f2_bf" transform="matrix(11,0,0,11,411.8,1062.9)" />
<use xlink:href="#f2_9q" transform="matrix(11,0,0,11,417.3,1062.9)" />
<use xlink:href="#f2_am" transform="matrix(11,0,0,11,421.3,1062.9)" />
<use xlink:href="#f2_af" transform="matrix(11,0,0,11,430.2,1062.9)" />
<use xlink:href="#f2_9q" transform="matrix(11,0,0,11,442.6,1062.9)" />
<use xlink:href="#f2_af" transform="matrix(11,0,0,11,446.6,1062.9)" />
<use xlink:href="#f2_ay" transform="matrix(11,0,0,11,459.1,1062.9)" />
<use xlink:href="#f2_a8" transform="matrix(11,0,0,11,467.9,1062.9)" />
<use xlink:href="#f2_77" transform="matrix(11,0,0,11,471.9,1062.9)" />
<use xlink:href="#f2_af" transform="matrix(11,0,0,11,480,1062.9)" />
<use xlink:href="#f2_bf" transform="matrix(11,0,0,11,488.8,1062.9)" />
<use xlink:href="#f2_b5" transform="matrix(11,0,0,11,494.3,1062.9)" />
<use xlink:href="#f2_77" transform="matrix(11,0,0,11,504.7,1062.9)" />
<use xlink:href="#f2_b1" transform="matrix(11,0,0,11,512.8,1062.9)" />
<use xlink:href="#f2_7z" transform="matrix(11,0,0,11,518.7,1062.9)" />
<use xlink:href="#f2_ns" transform="matrix(11,0,0,11,527.1,1062.9)" />
</g>
<path fill-rule="evenodd" d="M52.8,1099.9H857.2v-20.1H52.8v20.1Z" class="g0_4" />
<g fill="#1F3331" >
<use xlink:href="#f0_ry" transform="matrix(11,0,0,11,55,1095.9)" />
<use xlink:href="#f0_nt" transform="matrix(11,0,0,11,63.5,1095.9)" />
<use xlink:href="#f0_13" transform="matrix(11,0,0,11,71.5,1095.9)" />
<use xlink:href="#f0_9q" transform="matrix(11,0,0,11,79.3,1095.9)" />
<use xlink:href="#f0_b5" transform="matrix(11,0,0,11,83.3,1095.9)" />
<use xlink:href="#f0_b5" transform="matrix(11,0,0,11,90.2,1095.9)" />
<use xlink:href="#f0_9q" transform="matrix(11,0,0,11,96.8,1095.9)" />
<use xlink:href="#f0_am" transform="matrix(11,0,0,11,100.8,1095.9)" />
<use xlink:href="#f0_af" transform="matrix(11,0,0,11,110,1095.9)" />
</g>
<path fill-rule="evenodd" d="M80.3,1142.1H857.2v-20.9H80.3v20.9Z" class="g0_4" />
<g fill="#1F3331" >
<use xlink:href="#f1_3d" transform="matrix(10.1,0,0,10.1,82.5,1137.3)" />
<use xlink:href="#f2_1c" transform="matrix(11,0,0,11,110,1137.3)" />
<use xlink:href="#f2_bf" transform="matrix(11,0,0,11,114.4,1137.3)" />
<use xlink:href="#f2_9q" transform="matrix(11,0,0,11,124.7,1137.3)" />
<use xlink:href="#f2_b5" transform="matrix(11,0,0,11,128.7,1137.3)" />
<use xlink:href="#f2_bf" transform="matrix(11,0,0,11,140,1137.3)" />
<use xlink:href="#f2_9n" transform="matrix(11,0,0,11,145.5,1137.3)" />
<use xlink:href="#f2_7z" transform="matrix(11,0,0,11,154.3,1137.3)" />
<use xlink:href="#f2_b5" transform="matrix(11,0,0,11,167.5,1137.3)" />
<use xlink:href="#f2_9q" transform="matrix(11,0,0,11,174.1,1137.3)" />
<use xlink:href="#f2_ae" transform="matrix(11,0,0,11,178.1,1137.3)" />
<use xlink:href="#f2_ay" transform="matrix(11,0,0,11,191.7,1137.3)" />
<use xlink:href="#f2_a8" transform="matrix(11,0,0,11,200.1,1137.3)" />
<use xlink:href="#f2_7z" transform="matrix(11,0,0,11,204.1,1137.3)" />
<use xlink:href="#f2_b5" transform="matrix(11,0,0,11,212.5,1137.3)" />
<use xlink:href="#f2_bf" transform="matrix(11,0,0,11,219.1,1137.3)" />
<use xlink:href="#f2_am" transform="matrix(11,0,0,11,229.6,1137.3)" />
<use xlink:href="#f2_89" transform="matrix(11,0,0,11,238.4,1137.3)" />
<use xlink:href="#f2_77" transform="matrix(11,0,0,11,248.3,1137.3)" />
<use xlink:href="#f2_a8" transform="matrix(11,0,0,11,256.4,1137.3)" />
<use xlink:href="#f2_a8" transform="matrix(11,0,0,11,260.4,1137.3)" />
<use xlink:href="#f2_77" transform="matrix(11,0,0,11,269.2,1137.3)" />
<use xlink:href="#f2_b5" transform="matrix(11,0,0,11,277.3,1137.3)" />
<use xlink:href="#f2_7z" transform="matrix(11,0,0,11,283.8,1137.3)" />
<use xlink:href="#f2_cn" transform="matrix(11,0,0,11,291.9,1137.3)" />
<use xlink:href="#f2_c6" transform="matrix(11,0,0,11,299.2,1137.3)" />
<use xlink:href="#f2_77" transform="matrix(11,0,0,11,308.1,1137.3)" />
<use xlink:href="#f2_a8" transform="matrix(11,0,0,11,316.1,1137.3)" />
<use xlink:href="#f2_ae" transform="matrix(11,0,0,11,324.9,1137.3)" />
<use xlink:href="#f2_7z" transform="matrix(11,0,0,11,338.4,1137.3)" />
<use xlink:href="#f2_bf" transform="matrix(11,0,0,11,346.8,1137.3)" />
<use xlink:href="#f2_9n" transform="matrix(11,0,0,11,352.4,1137.3)" />
<use xlink:href="#f2_am" transform="matrix(11,0,0,11,361.2,1137.3)" />
<use xlink:href="#f2_7v" transform="matrix(11,0,0,11,370,1137.3)" />
<use xlink:href="#f2_b5" transform="matrix(11,0,0,11,378.8,1137.3)" />
<use xlink:href="#f2_nt" transform="matrix(11,0,0,11,385.4,1137.3)" />
<use xlink:href="#f2_1c" transform="matrix(11,0,0,11,394.3,1137.3)" />
<use xlink:href="#f2_bf" transform="matrix(11,0,0,11,398.7,1137.3)" />
<use xlink:href="#f2_9q" transform="matrix(11,0,0,11,409,1137.3)" />
<use xlink:href="#f2_b5" transform="matrix(11,0,0,11,413,1137.3)" />
<use xlink:href="#f2_7l" transform="matrix(11,0,0,11,424.4,1137.3)" />
<use xlink:href="#f2_am" transform="matrix(11,0,0,11,431.4,1137.3)" />
<use xlink:href="#f2_ae" transform="matrix(11,0,0,11,440.2,1137.3)" />
<use xlink:href="#f2_ae" transform="matrix(11,0,0,11,453.7,1137.3)" />
<use xlink:href="#f2_am" transform="matrix(11,0,0,11,467.3,1137.3)" />
<use xlink:href="#f2_af" transform="matrix(11,0,0,11,476.1,1137.3)" />
<use xlink:href="#f2_a8" transform="matrix(11,0,0,11,484.5,1137.3)" />
<use xlink:href="#f2_co" transform="matrix(11,0,0,11,488.5,1137.3)" />
<use xlink:href="#f2_89" transform="matrix(11,0,0,11,501,1137.3)" />
<use xlink:href="#f2_am" transform="matrix(11,0,0,11,506.1,1137.3)" />
<use xlink:href="#f2_c6" transform="matrix(11,0,0,11,514.9,1137.3)" />
<use xlink:href="#f2_af" transform="matrix(11,0,0,11,523.7,1137.3)" />
<use xlink:href="#f2_7v" transform="matrix(11,0,0,11,532.5,1137.3)" />
<use xlink:href="#f2_9q" transform="matrix(11,0,0,11,546.1,1137.3)" />
<use xlink:href="#f2_af" transform="matrix(11,0,0,11,550.1,1137.3)" />
<use xlink:href="#f2_77" transform="matrix(11,0,0,11,563.7,1137.3)" />
<use xlink:href="#f2_a8" transform="matrix(11,0,0,11,571.7,1137.3)" />
<use xlink:href="#f2_9d" transform="matrix(11,0,0,11,575.7,1137.3)" />
<use xlink:href="#f2_77" transform="matrix(11,0,0,11,583.4,1137.3)" />
<use xlink:href="#f2_7z" transform="matrix(11,0,0,11,591.5,1137.3)" />
<use xlink:href="#f2_nq" transform="matrix(11,0,0,11,599.9,1137.3)" />
<use xlink:href="#f2_89" transform="matrix(11,0,0,11,608.7,1137.3)" />
<use xlink:href="#f2_c6" transform="matrix(11,0,0,11,613.9,1137.3)" />
<use xlink:href="#f2_af" transform="matrix(11,0,0,11,622.7,1137.3)" />
<use xlink:href="#f2_9d" transform="matrix(11,0,0,11,631.5,1137.3)" />
<use xlink:href="#f2_9q" transform="matrix(11,0,0,11,639.5,1137.3)" />
<use xlink:href="#f2_77" transform="matrix(11,0,0,11,648.3,1137.3)" />
<use xlink:href="#f2_af" transform="matrix(11,0,0,11,656.4,1137.3)" />
<use xlink:href="#f2_7v" transform="matrix(11,0,0,11,665.1,1137.3)" />
<use xlink:href="#f2_ae" transform="matrix(11,0,0,11,678.7,1137.3)" />
<use xlink:href="#f2_am" transform="matrix(11,0,0,11,692.2,1137.3)" />
<use xlink:href="#f2_af" transform="matrix(11,0,0,11,701,1137.3)" />
<use xlink:href="#f2_7z" transform="matrix(11,0,0,11,709.9,1137.3)" />
<use xlink:href="#f2_b1" transform="matrix(11,0,0,11,718.3,1137.3)" />
<use xlink:href="#f2_77" transform="matrix(11,0,0,11,724.1,1137.3)" />
<use xlink:href="#f2_ov" transform="matrix(11,0,0,11,737.3,1137.3)" />
<use xlink:href="#f2_7k" transform="matrix(11,0,0,11,742.4,1137.3)" />
<use xlink:href="#f2_77" transform="matrix(11,0,0,11,751.3,1137.3)" />
<use xlink:href="#f2_7l" transform="matrix(11,0,0,11,759.3,1137.3)" />
<use xlink:href="#f2_bf" transform="matrix(11,0,0,11,766.3,1137.3)" />
<use xlink:href="#f2_7z" transform="matrix(11,0,0,11,771.7,1137.3)" />
<use xlink:href="#f2_b1" transform="matrix(11,0,0,11,780.1,1137.3)" />
<use xlink:href="#f2_9q" transform="matrix(11,0,0,11,786,1137.3)" />
<use xlink:href="#f2_77" transform="matrix(11,0,0,11,790.1,1137.3)" />
<use xlink:href="#f2_ow" transform="matrix(11,0,0,11,798.1,1137.3)" />
<use xlink:href="#f2_nt" transform="matrix(11,0,0,11,802.9,1137.3)" />
<use xlink:href="#f2_1c" transform="matrix(11,0,0,11,812,1137.3)" />
<use xlink:href="#f2_af" transform="matrix(11,0,0,11,816.4,1137.3)" />
<use xlink:href="#f2_bf" transform="matrix(11,0,0,11,830,1137.3)" />
<use xlink:href="#f2_9n" transform="matrix(11,0,0,11,835.5,1137.3)" />
<use xlink:href="#f2_9q" transform="matrix(11,0,0,11,844.3,1137.3)" />
<use xlink:href="#f2_b5" transform="matrix(11,0,0,11,848.3,1137.3)" />
</g>
<path fill-rule="evenodd" d="M80.3,1162.7H857.2v-20.6H80.3v20.6Z" class="g0_4" />
<g fill="#1F3331" >
<use xlink:href="#f2_ay" transform="matrix(11,0,0,11,110,1158.3)" />
<use xlink:href="#f2_b1" transform="matrix(11,0,0,11,118.8,1158.3)" />
<use xlink:href="#f2_am" transform="matrix(11,0,0,11,124.7,1158.3)" />
<use xlink:href="#f2_7l" transform="matrix(11,0,0,11,133.5,1158.3)" />
<use xlink:href="#f2_7z" transform="matrix(11,0,0,11,140.5,1158.3)" />
<use xlink:href="#f2_b5" transform="matrix(11,0,0,11,148.9,1158.3)" />
<use xlink:href="#f2_b5" transform="matrix(11,0,0,11,155.5,1158.3)" />
<use xlink:href="#f2_nq" transform="matrix(11,0,0,11,162.1,1158.3)" />
<use xlink:href="#f2_bf" transform="matrix(11,0,0,11,170.5,1158.3)" />
<use xlink:href="#f2_9n" transform="matrix(11,0,0,11,176,1158.3)" />
<use xlink:href="#f2_7z" transform="matrix(11,0,0,11,184.8,1158.3)" />
<use xlink:href="#f2_c6" transform="matrix(11,0,0,11,197.7,1158.3)" />
<use xlink:href="#f2_af" transform="matrix(11,0,0,11,206.8,1158.3)" />
<use xlink:href="#f2_9q" transform="matrix(11,0,0,11,215.6,1158.3)" />
<use xlink:href="#f2_7l" transform="matrix(11,0,0,11,219.6,1158.3)" />
<use xlink:href="#f2_7z" transform="matrix(11,0,0,11,226.6,1158.3)" />
<use xlink:href="#f2_a8" transform="matrix(11,0,0,11,235,1158.3)" />
<use xlink:href="#f2_a8" transform="matrix(11,0,0,11,239,1158.3)" />
<use xlink:href="#f2_c6" transform="matrix(11,0,0,11,243,1158.3)" />
<use xlink:href="#f2_a8" transform="matrix(11,0,0,11,251.9,1158.3)" />
<use xlink:href="#f2_77" transform="matrix(11,0,0,11,255.9,1158.3)" />
<use xlink:href="#f2_b1" transform="matrix(11,0,0,11,263.9,1158.3)" />
<use xlink:href="#f2_ae" transform="matrix(11,0,0,11,274.2,1158.3)" />
<use xlink:href="#f2_am" transform="matrix(11,0,0,11,287.7,1158.3)" />
<use xlink:href="#f2_bf" transform="matrix(11,0,0,11,296.5,1158.3)" />
<use xlink:href="#f2_9n" transform="matrix(11,0,0,11,302,1158.3)" />
<use xlink:href="#f2_7z" transform="matrix(11,0,0,11,310.8,1158.3)" />
<use xlink:href="#f2_b1" transform="matrix(11,0,0,11,319.2,1158.3)" />
<use xlink:href="#f2_7l" transform="matrix(11,0,0,11,329.5,1158.3)" />
<use xlink:href="#f2_7z" transform="matrix(11,0,0,11,336.5,1158.3)" />
<use xlink:href="#f2_a8" transform="matrix(11,0,0,11,344.9,1158.3)" />
<use xlink:href="#f2_a8" transform="matrix(11,0,0,11,348.6,1158.3)" />
<use xlink:href="#f2_b5" transform="matrix(11,0,0,11,352.6,1158.3)" />
<use xlink:href="#f2_7v" transform="matrix(11,0,0,11,363.6,1158.3)" />
<use xlink:href="#f2_9q" transform="matrix(11,0,0,11,372.4,1158.3)" />
<use xlink:href="#f2_ch" transform="matrix(11,0,0,11,376.4,1158.3)" />
<use xlink:href="#f2_9q" transform="matrix(11,0,0,11,383.7,1158.3)" />
<use xlink:href="#f2_7v" transform="matrix(11,0,0,11,387.7,1158.3)" />
<use xlink:href="#f2_7z" transform="matrix(11,0,0,11,396.6,1158.3)" />
<use xlink:href="#f2_b5" transform="matrix(11,0,0,11,405,1158.3)" />
<use xlink:href="#f2_ae" transform="matrix(11,0,0,11,416,1158.3)" />
<use xlink:href="#f2_9q" transform="matrix(11,0,0,11,429.5,1158.3)" />
<use xlink:href="#f2_bf" transform="matrix(11,0,0,11,433.5,1158.3)" />
<use xlink:href="#f2_am" transform="matrix(11,0,0,11,439,1158.3)" />
<use xlink:href="#f2_bf" transform="matrix(11,0,0,11,447.8,1158.3)" />
<use xlink:href="#f2_9q" transform="matrix(11,0,0,11,453.3,1158.3)" />
<use xlink:href="#f2_7l" transform="matrix(11,0,0,11,457.3,1158.3)" />
<use xlink:href="#f2_77" transform="matrix(11,0,0,11,464.8,1158.3)" />
<use xlink:href="#f2_a8" transform="matrix(11,0,0,11,472.8,1158.3)" />
<use xlink:href="#f2_a8" transform="matrix(11,0,0,11,476.5,1158.3)" />
<use xlink:href="#f2_co" transform="matrix(11,0,0,11,480.1,1158.3)" />
<use xlink:href="#f2_bf" transform="matrix(11,0,0,11,492.2,1158.3)" />
<use xlink:href="#f2_am" transform="matrix(11,0,0,11,497.7,1158.3)" />
<use xlink:href="#f2_89" transform="matrix(11,0,0,11,510.9,1158.3)" />
<use xlink:href="#f2_am" transform="matrix(11,0,0,11,516.1,1158.3)" />
<use xlink:href="#f2_b1" transform="matrix(11,0,0,11,524.8,1158.3)" />
<use xlink:href="#f2_ae" transform="matrix(11,0,0,11,530.7,1158.3)" />
<use xlink:href="#f2_bf" transform="matrix(11,0,0,11,548.6,1158.3)" />
<use xlink:href="#f2_ci" transform="matrix(11,0,0,11,554.1,1158.3)" />
<use xlink:href="#f2_am" transform="matrix(11,0,0,11,566.2,1158.3)" />
<use xlink:href="#f2_7v" transform="matrix(11,0,0,11,579.4,1158.3)" />
<use xlink:href="#f2_77" transform="matrix(11,0,0,11,588.2,1158.3)" />
<use xlink:href="#f2_c6" transform="matrix(11,0,0,11,596.3,1158.3)" />
<use xlink:href="#f2_9d" transform="matrix(11,0,0,11,605.1,1158.3)" />
<use xlink:href="#f2_9n" transform="matrix(11,0,0,11,613.1,1158.3)" />
<use xlink:href="#f2_bf" transform="matrix(11,0,0,11,621.9,1158.3)" />
<use xlink:href="#f2_7z" transform="matrix(11,0,0,11,627.4,1158.3)" />
<use xlink:href="#f2_b1" transform="matrix(11,0,0,11,635.8,1158.3)" />
<use xlink:href="#f2_7l" transform="matrix(11,0,0,11,646.5,1158.3)" />
<use xlink:href="#f2_7z" transform="matrix(11,0,0,11,653.5,1158.3)" />
<use xlink:href="#f2_a8" transform="matrix(11,0,0,11,661.9,1158.3)" />
<use xlink:href="#f2_a8" transform="matrix(11,0,0,11,665.9,1158.3)" />
<use xlink:href="#f2_b5" transform="matrix(11,0,0,11,669.9,1158.3)" />
<use xlink:href="#f2_bf" transform="matrix(11,0,0,11,680.9,1158.3)" />
<use xlink:href="#f2_9n" transform="matrix(11,0,0,11,686.4,1158.3)" />
<use xlink:href="#f2_77" transform="matrix(11,0,0,11,695.2,1158.3)" />
<use xlink:href="#f2_bf" transform="matrix(11,0,0,11,703.3,1158.3)" />
<use xlink:href="#f2_77" transform="matrix(11,0,0,11,713.1,1158.3)" />
<use xlink:href="#f2_b1" transform="matrix(11,0,0,11,721.2,1158.3)" />
<use xlink:href="#f2_7z" transform="matrix(11,0,0,11,727.1,1158.3)" />
<use xlink:href="#f2_9q" transform="matrix(11,0,0,11,739.9,1158.3)" />
<use xlink:href="#f2_7v" transform="matrix(11,0,0,11,743.9,1158.3)" />
<use xlink:href="#f2_7z" transform="matrix(11,0,0,11,752.7,1158.3)" />
<use xlink:href="#f2_af" transform="matrix(11,0,0,11,761.1,1158.3)" />
<use xlink:href="#f2_bf" transform="matrix(11,0,0,11,770,1158.3)" />
<use xlink:href="#f2_9q" transform="matrix(11,0,0,11,775.5,1158.3)" />
<use xlink:href="#f2_7l" transform="matrix(11,0,0,11,779.5,1158.3)" />
<use xlink:href="#f2_77" transform="matrix(11,0,0,11,786.4,1158.3)" />
<use xlink:href="#f2_a8" transform="matrix(11,0,0,11,794.5,1158.3)" />
<use xlink:href="#f2_bf" transform="matrix(11,0,0,11,802.9,1158.3)" />
<use xlink:href="#f2_am" transform="matrix(11,0,0,11,808.4,1158.3)" />
<use xlink:href="#f2_7z" transform="matrix(11,0,0,11,821.6,1158.3)" />
<use xlink:href="#f2_77" transform="matrix(11,0,0,11,830,1158.3)" />
<use xlink:href="#f2_7l" transform="matrix(11,0,0,11,838.1,1158.3)" />
<use xlink:href="#f2_9n" transform="matrix(11,0,0,11,845,1158.3)" />
</g>
<path fill-rule="evenodd" d="M80.3,1183.2H857.2v-20.5H80.3v20.5Z" class="g0_4" />
<g fill="#1F3331" >
<use xlink:href="#f2_am" transform="matrix(11,0,0,11,110,1178.8)" />
<use xlink:href="#f2_bf" transform="matrix(11,0,0,11,118.8,1178.8)" />
<use xlink:href="#f2_9n" transform="matrix(11,0,0,11,124.3,1178.8)" />
<use xlink:href="#f2_7z" transform="matrix(11,0,0,11,133.1,1178.8)" />
<use xlink:href="#f2_b1" transform="matrix(11,0,0,11,141.5,1178.8)" />
<use xlink:href="#f2_77" transform="matrix(11,0,0,11,151.1,1178.8)" />
<use xlink:href="#f2_b5" transform="matrix(11,0,0,11,159.2,1178.8)" />
<use xlink:href="#f2_ci" transform="matrix(11,0,0,11,169.4,1178.8)" />
<use xlink:href="#f2_7z" transform="matrix(11,0,0,11,181.5,1178.8)" />
<use xlink:href="#f2_a8" transform="matrix(11,0,0,11,190,1178.8)" />
<use xlink:href="#f2_a8" transform="matrix(11,0,0,11,194,1178.8)" />
<use xlink:href="#f2_77" transform="matrix(11,0,0,11,201.6,1178.8)" />
<use xlink:href="#f2_b5" transform="matrix(11,0,0,11,209.7,1178.8)" />
<use xlink:href="#f2_bf" transform="matrix(11,0,0,11,220.1,1178.8)" />
<use xlink:href="#f2_9n" transform="matrix(11,0,0,11,225.6,1178.8)" />
<use xlink:href="#f2_7z" transform="matrix(11,0,0,11,234.4,1178.8)" />
<use xlink:href="#f2_ae" transform="matrix(11,0,0,11,246.5,1178.8)" />
<use xlink:href="#f2_am" transform="matrix(11,0,0,11,260,1178.8)" />
<use xlink:href="#f2_bf" transform="matrix(11,0,0,11,268.8,1178.8)" />
<use xlink:href="#f2_9n" transform="matrix(11,0,0,11,274.3,1178.8)" />
<use xlink:href="#f2_7z" transform="matrix(11,0,0,11,283.1,1178.8)" />
<use xlink:href="#f2_b1" transform="matrix(11,0,0,11,291.5,1178.8)" />
<use xlink:href="#f2_7l" transform="matrix(11,0,0,11,301.1,1178.8)" />
<use xlink:href="#f2_7z" transform="matrix(11,0,0,11,308.1,1178.8)" />
<use xlink:href="#f2_a8" transform="matrix(11,0,0,11,316.5,1178.8)" />
<use xlink:href="#f2_a8" transform="matrix(11,0,0,11,320.5,1178.8)" />
<use xlink:href="#f2_nt" transform="matrix(11,0,0,11,324.5,1178.8)" />
<use xlink:href="#f2_t" transform="matrix(11,0,0,11,332.7,1178.8)" />
<use xlink:href="#f2_77" transform="matrix(11,0,0,11,340.8,1178.8)" />
<use xlink:href="#f2_7l" transform="matrix(11,0,0,11,348.9,1178.8)" />
<use xlink:href="#f2_9n" transform="matrix(11,0,0,11,355.8,1178.8)" />
<use xlink:href="#f2_7v" transform="matrix(11,0,0,11,368.3,1178.8)" />
<use xlink:href="#f2_77" transform="matrix(11,0,0,11,377.1,1178.8)" />
<use xlink:href="#f2_c6" transform="matrix(11,0,0,11,385.2,1178.8)" />
<use xlink:href="#f2_9d" transform="matrix(11,0,0,11,394,1178.8)" />
<use xlink:href="#f2_9n" transform="matrix(11,0,0,11,402,1178.8)" />
<use xlink:href="#f2_bf" transform="matrix(11,0,0,11,410.8,1178.8)" />
<use xlink:href="#f2_7z" transform="matrix(11,0,0,11,416.3,1178.8)" />
<use xlink:href="#f2_b1" transform="matrix(11,0,0,11,424.7,1178.8)" />
<use xlink:href="#f2_7l" transform="matrix(11,0,0,11,434.6,1178.8)" />
<use xlink:href="#f2_7z" transform="matrix(11,0,0,11,441.6,1178.8)" />
<use xlink:href="#f2_a8" transform="matrix(11,0,0,11,450,1178.8)" />
<use xlink:href="#f2_a8" transform="matrix(11,0,0,11,454,1178.8)" />
<use xlink:href="#f2_7z" transform="matrix(11,0,0,11,461.8,1178.8)" />
<use xlink:href="#f2_ch" transform="matrix(11,0,0,11,470.2,1178.8)" />
<use xlink:href="#f2_7z" transform="matrix(11,0,0,11,477.9,1178.8)" />
<use xlink:href="#f2_af" transform="matrix(11,0,0,11,486.3,1178.8)" />
<use xlink:href="#f2_bf" transform="matrix(11,0,0,11,495.2,1178.8)" />
<use xlink:href="#f2_c6" transform="matrix(11,0,0,11,500.7,1178.8)" />
<use xlink:href="#f2_77" transform="matrix(11,0,0,11,509.5,1178.8)" />
<use xlink:href="#f2_a8" transform="matrix(11,0,0,11,517.6,1178.8)" />
<use xlink:href="#f2_a8" transform="matrix(11,0,0,11,521.6,1178.8)" />
<use xlink:href="#f2_co" transform="matrix(11,0,0,11,525.6,1178.8)" />
<use xlink:href="#f2_9d" transform="matrix(11,0,0,11,537,1178.8)" />
<use xlink:href="#f2_b1" transform="matrix(11,0,0,11,545,1178.8)" />
<use xlink:href="#f2_am" transform="matrix(11,0,0,11,550.9,1178.8)" />
<use xlink:href="#f2_ci" transform="matrix(11,0,0,11,559.7,1178.8)" />
<use xlink:href="#f2_b5" transform="matrix(11,0,0,11,571.7,1178.8)" />
<use xlink:href="#f2_9q" transform="matrix(11,0,0,11,582,1178.8)" />
<use xlink:href="#f2_af" transform="matrix(11,0,0,11,586.1,1178.8)" />
<use xlink:href="#f2_bf" transform="matrix(11,0,0,11,594.9,1178.8)" />
<use xlink:href="#f2_am" transform="matrix(11,0,0,11,600.4,1178.8)" />
<use xlink:href="#f2_77" transform="matrix(11,0,0,11,612.8,1178.8)" />
<use xlink:href="#f2_af" transform="matrix(11,0,0,11,620.9,1178.8)" />
<use xlink:href="#f2_9q" transform="matrix(11,0,0,11,633.4,1178.8)" />
<use xlink:href="#f2_af" transform="matrix(11,0,0,11,637.4,1178.8)" />
<use xlink:href="#f2_7v" transform="matrix(11,0,0,11,646.2,1178.8)" />
<use xlink:href="#f2_7z" transform="matrix(11,0,0,11,655,1178.8)" />
<use xlink:href="#f2_ay" transform="matrix(11,0,0,11,663.4,1178.8)" />
<use xlink:href="#f2_7z" transform="matrix(11,0,0,11,672.2,1178.8)" />
<use xlink:href="#f2_af" transform="matrix(11,0,0,11,680.6,1178.8)" />
<use xlink:href="#f2_7v" transform="matrix(11,0,0,11,689.5,1178.8)" />
<use xlink:href="#f2_7z" transform="matrix(11,0,0,11,698.2,1178.8)" />
<use xlink:href="#f2_af" transform="matrix(11,0,0,11,706.6,1178.8)" />
<use xlink:href="#f2_bf" transform="matrix(11,0,0,11,715.5,1178.8)" />
<use xlink:href="#f2_am" transform="matrix(11,0,0,11,724.8,1178.8)" />
<use xlink:href="#f2_b1" transform="matrix(11,0,0,11,733.6,1178.8)" />
<use xlink:href="#f2_9d" transform="matrix(11,0,0,11,739.5,1178.8)" />
<use xlink:href="#f2_77" transform="matrix(11,0,0,11,747.5,1178.8)" />
<use xlink:href="#f2_af" transform="matrix(11,0,0,11,755.6,1178.8)" />
<use xlink:href="#f2_9q" transform="matrix(11,0,0,11,764.4,1178.8)" />
<use xlink:href="#f2_b5" transform="matrix(11,0,0,11,768.4,1178.8)" />
<use xlink:href="#f2_ae" transform="matrix(11,0,0,11,775,1178.8)" />
<use xlink:href="#f2_nt" transform="matrix(11,0,0,11,788.2,1178.8)" />
</g>
<path fill-rule="evenodd" d="M52.8,1237.5H857.2v-33H52.8v33Z" class="g0_4" />
<image preserveAspectRatio="none" x="85" y="55" width="288" height="165" xlink:href="img/1.png" />
<image preserveAspectRatio="none" x="100" y="312" width="284" height="193" xlink:href="img/2.png" />
<image preserveAspectRatio="none" x="447" y="284" width="234" height="221" xlink:href="img/3.png" />
<image preserveAspectRatio="none" x="85" y="693" width="225" height="257" xlink:href="img/4.png" />
<g fill="#000000" >
<use xlink:href="#f4_o" transform="matrix(8,0,0,8,792.9,1264.1)" />
</g>
<defs>
<path d="M439,356V801h-1L183,356ZM532,-4c0,0,-27,0,-45,2c0,0,-18,2,-29,5c0,0,-11,3,-15,9c0,0,-4,5,-4,13V199H70c0,0,-11,0,-19,3c0,0,-8,3,-14,12c0,0,-5,9,-8,27c0,0,-3,17,-3,46c0,0,0,24,2,42c0,0,1,17,3,31c0,0,3,15,8,27c0,0,5,13,12,27L351,944c0,0,4,7,13,11c0,0,9,5,25,9c0,0,16,3,40,4c0,0,25,2,60,2c0,0,38,0,65,-2c0,0,27,-2,43,-6c0,0,16,-4,23,-10c0,0,8,-6,8,-14V356h85c0,0,12,0,21,-18c0,0,8,-19,8,-61c0,0,0,-38,-8,-58c0,0,-7,-20,-21,-20H628V25c0,0,0,-8,-5,-13c0,0,-4,-6,-15,-9c0,0,-12,-3,-29,-5c0,0,-18,-2,-47,-2Z" 
id="f0_s1"
transform="scale(0.001,-0.001)" />

<path d="M204,-9c0,0,-63,0,-87,23c0,0,-24,23,-24,89c0,0,0,70,24,94c0,0,25,24,88,24c0,0,62,0,86,-24c0,0,24,-23,24,-90c0,0,0,-69,-24,-93c0,0,-25,-23,-87,-23Z" 
id="f0_nt"
transform="scale(0.001,-0.001)" />

<path d="M204,-4c0,0,-28,0,-47,2c0,0,-19,2,-31,6c0,0,-11,4,-16,10c0,0,-4,6,-4,14V903c0,0,0,33,16,48c0,0,17,14,42,14H618c0,0,7,0,12,-4c0,0,5,-4,9,-13c0,0,5,-10,6,-25c0,0,2,-16,2,-38c0,0,0,-23,-2,-38c0,0,-1,-15,-6,-24c0,0,-4,-9,-9,-14c0,0,-5,-4,-12,-4H302V545H599c0,0,6,0,12,-4c0,0,5,-4,9,-13c0,0,4,-9,6,-24c0,0,2,-15,2,-37c0,0,0,-22,-2,-37c0,0,-2,-15,-6,-25c0,0,-4,-10,-9,-14c0,0,-6,-4,-12,-4H302V28c0,0,0,-8,-4,-14c0,0,-5,-6,-16,-10c0,0,-12,-4,-30,-6c0,0,-19,-2,-48,-2Z" 
id="f0_13"
transform="scale(0.001,-0.001)" />

<path d="M188,-4c0,0,-28,0,-46,2c0,0,-18,2,-28,5c0,0,-11,3,-16,9c0,0,-4,5,-4,13V691c0,0,0,7,4,13c0,0,3,5,13,9c0,0,10,4,25,6c0,0,15,2,38,2c0,0,24,0,40,-2c0,0,15,-2,24,-6c0,0,9,-4,12,-9c0,0,4,-6,4,-13V608c0,0,26,37,49,61c0,0,23,25,44,39c0,0,21,14,42,20c0,0,21,5,42,5c0,0,10,0,21,-1c0,0,11,-1,23,-4c0,0,12,-2,21,-5c0,0,9,-4,13,-8c0,0,4,-3,6,-8c0,0,2,-4,3,-12c0,0,2,-8,2,-24c0,0,1,-15,1,-42c0,0,0,-27,-1,-44c0,0,-2,-17,-5,-27c0,0,-3,-10,-8,-13c0,0,-5,-4,-12,-4c0,0,-6,0,-13,3c0,0,-8,2,-17,5c0,0,-10,3,-21,6c0,0,-11,2,-24,2c0,0,-16,0,-32,-6c0,0,-15,-6,-32,-20c0,0,-17,-13,-35,-36c0,0,-19,-22,-39,-55V25c0,0,0,-8,-5,-13c0,0,-4,-6,-15,-9c0,0,-11,-3,-29,-5c0,0,-18,-2,-45,-2Z" 
id="f0_b1"
transform="scale(0.001,-0.001)" />

<path d="M337,115c0,0,39,0,73,21c0,0,33,20,67,59V308H405c0,0,-45,0,-77,-7c0,0,-32,-6,-53,-20c0,0,-20,-13,-29,-32c0,0,-9,-19,-9,-44c0,0,0,-42,26,-66c0,0,27,-24,74,-24ZM296,-17c0,0,-53,0,-98,14c0,0,-44,13,-77,40c0,0,-32,28,-50,68c0,0,-18,40,-18,94c0,0,0,58,23,101c0,0,22,43,68,71c0,0,45,28,112,42c0,0,67,13,156,13h65v40c0,0,0,32,-6,55c0,0,-7,24,-21,39c0,0,-15,16,-39,23c0,0,-24,8,-60,8c0,0,-47,0,-84,-11c0,0,-37,-10,-66,-23c0,0,-28,-13,-47,-23c0,0,-19,-11,-31,-11c0,0,-9,0,-15,5c0,0,-6,6,-10,15c0,0,-5,10,-7,24c0,0,-2,14,-2,31c0,0,0,23,4,37c0,0,3,13,14,24c0,0,10,11,36,24c0,0,27,13,62,25c0,0,35,11,76,18c0,0,42,7,86,7c0,0,78,0,134,-15c0,0,55,-15,91,-47c0,0,36,-32,53,-82c0,0,16,-50,16,-118V23c0,0,0,-11,-7,-17c0,0,-8,-6,-24,-7c0,0,-16,-3,-47,-3c0,0,-34,0,-49,3c0,0,-15,1,-21,7c0,0,-7,6,-7,17V76C506,76,465,32,412,7c0,0,-52,-24,-116,-24Z" 
id="f0_77"
transform="scale(0.001,-0.001)" />

<path d="M345,-143c0,0,43,0,72,9c0,0,29,8,47,23c0,0,18,14,25,31c0,0,8,18,8,37c0,0,0,33,-27,50c0,0,-27,18,-74,20L263,30C263,30,243,16,232,3c0,0,-12,-12,-19,-24c0,0,-7,-12,-9,-23c0,0,-3,-11,-3,-23c0,0,0,-37,38,-56c0,0,38,-20,106,-20Zm-4,517c0,0,28,0,49,9c0,0,21,9,35,25c0,0,14,16,21,36c0,0,7,21,7,43c0,0,0,54,-30,84c0,0,-30,29,-84,29c0,0,-28,0,-49,-9c0,0,-21,-9,-34,-25c0,0,-14,-16,-21,-38c0,0,-7,-21,-7,-44c0,0,0,-51,30,-80c0,0,30,-30,83,-30Zm-4,-645c0,0,-85,0,-145,14c0,0,-60,13,-98,37c0,0,-39,24,-56,57c0,0,-18,33,-18,73c0,0,0,24,6,47c0,0,7,22,19,42c0,0,12,20,30,39c0,0,18,18,41,35c0,0,-32,18,-49,47c0,0,-18,29,-18,64c0,0,0,44,20,80c0,0,21,36,53,65c0,0,-27,26,-42,63c0,0,-16,37,-16,91c0,0,0,58,21,104c0,0,20,46,57,78c0,0,36,32,87,49c0,0,51,16,112,16c0,0,31,0,60,-3c0,0,29,-4,53,-11H665c0,0,13,0,21,-17c0,0,8,-16,8,-55c0,0,0,-36,-8,-53c0,0,-9,-17,-21,-17H587c0,0,17,-18,24,-41c0,0,7,-22,7,-47c0,0,0,-58,-20,-103c0,0,-19,-45,-55,-76c0,0,-36,-31,-88,-47c0,0,-51,-17,-113,-17c0,0,-32,0,-61,8c0,0,-30,8,-45,19c0,0,-9,-10,-16,-23c0,0,-7,-14,-7,-30c0,0,0,-22,19,-36c0,0,19,-13,53,-15l162,-6c0,0,57,-2,101,-16c0,0,44,-14,75,-39c0,0,30,-24,46,-59c0,0,16,-35,16,-79c0,0,0,-49,-22,-93c0,0,-21,-44,-65,-76c0,0,-43,-32,-108,-50c0,0,-66,-19,-153,-19Z" 
id="f0_9d"
transform="scale(0.001,-0.001)" />

<path d="M188,-4c0,0,-28,0,-46,2c0,0,-18,2,-28,5c0,0,-11,3,-16,9c0,0,-4,5,-4,13V691c0,0,0,7,4,13c0,0,3,5,13,9c0,0,10,4,25,6c0,0,15,2,38,2c0,0,24,0,40,-2c0,0,15,-2,24,-6c0,0,9,-4,12,-9c0,0,4,-6,4,-13V614c0,0,55,60,110,89c0,0,55,30,115,30c0,0,41,0,74,-8c0,0,33,-9,59,-25c0,0,26,-16,44,-38c0,0,19,-23,32,-50c0,0,30,32,58,55c0,0,29,23,57,38c0,0,28,14,56,21c0,0,28,7,57,7c0,0,66,0,112,-22c0,0,45,-22,73,-61c0,0,28,-38,40,-90c0,0,12,-51,12,-109V25c0,0,0,-8,-5,-13c0,0,-4,-6,-15,-9c0,0,-10,-3,-28,-5c0,0,-18,-2,-46,-2c0,0,-28,0,-46,2c0,0,-18,2,-29,5c0,0,-11,3,-15,9c0,0,-4,6,-4,13V420c0,0,0,34,-6,61c0,0,-7,28,-20,48c0,0,-13,19,-32,30c0,0,-20,11,-47,11c0,0,-34,0,-68,-26c0,0,-34,-26,-74,-76V25c0,0,0,-7,-5,-13c0,0,-4,-6,-15,-9c0,0,-11,-3,-29,-5c0,0,-18,-2,-45,-2c0,0,-27,0,-45,2c0,0,-18,2,-29,5c0,0,-11,3,-16,9c0,0,-4,6,-4,13V420c0,0,0,34,-6,61c0,0,-7,28,-19,48c0,0,-13,19,-33,30c0,0,-21,11,-48,11c0,0,-34,0,-68,-26c0,0,-35,-26,-74,-76V25c0,0,0,-7,-5,-13c0,0,-4,-6,-15,-9c0,0,-11,-3,-29,-5c0,0,-18,-2,-45,-2Z" 
id="f0_ae"
transform="scale(0.001,-0.001)" />

<path d="M526,431c0,0,2,79,-32,124c0,0,-34,45,-105,45c0,0,-35,0,-62,-13c0,0,-26,-13,-44,-36c0,0,-17,-23,-27,-54c0,0,-9,-31,-11,-66ZM410,-17c0,0,-88,0,-155,22c0,0,-67,22,-112,68c0,0,-44,45,-66,115c0,0,-22,69,-22,162c0,0,0,89,23,161c0,0,23,71,67,120c0,0,44,50,107,76c0,0,63,26,142,26c0,0,84,0,143,-24c0,0,59,-25,97,-69c0,0,38,-43,56,-103c0,0,18,-60,18,-130V377c0,0,0,-34,-15,-51c0,0,-16,-16,-43,-16H245c0,0,0,-43,10,-77c0,0,11,-35,33,-59c0,0,22,-24,56,-37c0,0,35,-13,83,-13c0,0,50,0,87,7c0,0,37,8,65,16c0,0,27,9,45,16c0,0,18,7,29,7c0,0,6,0,11,-2c0,0,4,-3,7,-10c0,0,3,-7,4,-19c0,0,2,-12,2,-31c0,0,0,-16,-1,-28c0,0,-1,-12,-2,-20c0,0,-2,-8,-5,-14c0,0,-3,-5,-8,-10c0,0,-5,-6,-26,-15c0,0,-22,-9,-55,-17c0,0,-34,-8,-77,-14c0,0,-43,-7,-93,-7Z" 
id="f0_7z"
transform="scale(0.001,-0.001)" />

<path d="M188,-4c0,0,-28,0,-46,2c0,0,-18,2,-28,5c0,0,-11,3,-16,9c0,0,-4,5,-4,13V691c0,0,0,7,4,13c0,0,3,5,13,9c0,0,10,4,25,6c0,0,15,2,38,2c0,0,24,0,40,-2c0,0,15,-2,24,-6c0,0,9,-4,12,-9c0,0,4,-6,4,-13V614c0,0,55,60,112,89c0,0,57,30,119,30c0,0,68,0,115,-22c0,0,47,-22,75,-61c0,0,29,-38,42,-90c0,0,12,-51,12,-124V25c0,0,0,-8,-4,-13c0,0,-5,-6,-15,-9c0,0,-10,-3,-29,-5c0,0,-18,-2,-45,-2c0,0,-28,0,-46,2c0,0,-18,2,-29,5c0,0,-10,3,-15,9c0,0,-4,6,-4,13V405c0,0,0,49,-7,76c0,0,-7,28,-21,48c0,0,-13,19,-35,30c0,0,-21,11,-49,11c0,0,-36,0,-72,-26c0,0,-37,-26,-76,-76V25c0,0,0,-7,-5,-13c0,0,-4,-6,-15,-9c0,0,-11,-3,-29,-5c0,0,-18,-2,-45,-2Z" 
id="f0_af"
transform="scale(0.001,-0.001)" />

<path d="M344,-14c0,0,-56,0,-97,14c0,0,-42,14,-69,43c0,0,-26,29,-39,74c0,0,-13,45,-13,106V563H47c0,0,-15,0,-22,18c0,0,-7,17,-7,58c0,0,0,22,1,37c0,0,2,15,6,24c0,0,4,8,9,12c0,0,6,4,13,4h79V864c0,0,0,8,4,14c0,0,4,6,15,10c0,0,11,4,29,6c0,0,19,2,46,2c0,0,27,0,46,-2c0,0,18,-2,28,-6c0,0,11,-4,15,-10c0,0,5,-6,5,-14V716H459c0,0,7,0,13,-4c0,0,6,-4,9,-12c0,0,4,-9,6,-24c0,0,2,-15,2,-37c0,0,0,-41,-8,-58c0,0,-7,-18,-21,-18H314V251c0,0,0,-54,17,-81c0,0,17,-27,61,-27c0,0,15,0,27,2c0,0,12,3,22,6c0,0,9,4,15,6c0,0,7,3,12,3c0,0,4,0,9,-3c0,0,4,-2,6,-10c0,0,2,-8,4,-21c0,0,2,-14,2,-35c0,0,0,-33,-4,-50c0,0,-4,-18,-11,-25c0,0,-7,-7,-20,-12c0,0,-13,-5,-31,-9c0,0,-17,-4,-38,-6c0,0,-20,-3,-41,-3Z" 
id="f0_bf"
transform="scale(0.001,-0.001)" />

<path d="M188,-4c0,0,-28,0,-46,2c0,0,-18,2,-28,5c0,0,-11,3,-16,9c0,0,-4,5,-4,13V689c0,0,0,8,4,13c0,0,5,6,16,10c0,0,10,4,28,6c0,0,18,3,46,3c0,0,27,0,45,-3c0,0,18,-2,29,-6c0,0,11,-4,15,-10c0,0,5,-5,5,-13V25c0,0,0,-8,-5,-13c0,0,-4,-6,-15,-9c0,0,-11,-3,-29,-5c0,0,-18,-2,-45,-2Zm-1,820c0,0,-63,0,-85,21c0,0,-22,21,-22,75c0,0,0,57,23,79c0,0,23,22,86,22c0,0,63,0,85,-21c0,0,22,-21,22,-76c0,0,0,-56,-23,-78c0,0,-23,-22,-86,-22Z" 
id="f0_9q"
transform="scale(0.001,-0.001)" />

<path d="M409,132c0,0,42,0,73,15c0,0,32,16,52,45c0,0,20,29,29,70c0,0,10,42,10,95c0,0,0,49,-8,91c0,0,-8,41,-26,72c0,0,-19,30,-50,48c0,0,-30,17,-77,17c0,0,-42,0,-73,-16c0,0,-31,-15,-51,-44c0,0,-21,-30,-31,-71c0,0,-10,-42,-10,-95c0,0,0,-49,9,-91c0,0,8,-41,26,-72c0,0,18,-30,49,-47c0,0,32,-17,78,-17ZM402,-17c0,0,-89,0,-154,24c0,0,-66,25,-109,72c0,0,-43,47,-64,115c0,0,-21,69,-21,157c0,0,0,85,23,156c0,0,22,70,68,121c0,0,45,50,113,78c0,0,69,27,160,27c0,0,90,0,155,-24c0,0,66,-24,109,-71c0,0,43,-47,64,-116c0,0,21,-69,21,-157c0,0,0,-86,-23,-156c0,0,-22,-70,-68,-121C676,88,631,38,562,10c0,0,-68,-27,-160,-27Z" 
id="f0_am"
transform="scale(0.001,-0.001)" />

<path d="M273,157c0,0,-114,0,-193,80C80,237,0,317,0,431c0,0,0,112,80,192c0,0,79,80,193,80c0,0,113,0,192,-80c0,0,80,-80,80,-192c0,0,0,-114,-80,-194c0,0,-79,-80,-192,-80Z" 
id="f1_3d"
transform="scale(0.001,-0.001)" />

<path d="M192,-4c0,0,-18,0,-30,2c0,0,-13,2,-20,3c0,0,-8,3,-11,8c0,0,-3,4,-3,10V946c0,0,0,6,3,11c0,0,4,4,12,7c0,0,7,2,20,4c0,0,12,2,29,2c0,0,19,0,31,-2c0,0,13,-2,20,-4c0,0,7,-3,10,-7c0,0,3,-5,3,-11V19c0,0,0,-6,-3,-10c0,0,-3,-5,-10,-8c0,0,-7,-1,-20,-3c0,0,-12,-2,-31,-2Z" 
id="f2_1c"
transform="scale(0.001,-0.001)" />

<path d="M176,-4c0,0,-18,0,-30,2c0,0,-12,1,-19,3c0,0,-7,3,-10,7c0,0,-3,4,-3,10V690c0,0,0,6,3,10c0,0,2,4,9,7c0,0,6,4,17,5c0,0,10,1,27,1c0,0,17,0,28,-1c0,0,10,-1,16,-5c0,0,6,-3,9,-7c0,0,3,-4,3,-10V601c0,0,56,64,112,94c0,0,57,30,114,30c0,0,67,0,113,-23c0,0,46,-23,74,-61c0,0,29,-38,41,-89c0,0,12,-52,12,-123V18c0,0,0,-6,-3,-10c0,0,-3,-4,-9,-7c0,0,-7,-2,-19,-3c0,0,-12,-2,-30,-2c0,0,-19,0,-30,2c0,0,-12,1,-19,3c0,0,-7,3,-10,7c0,0,-3,4,-3,10V412c0,0,0,58,-9,93c0,0,-9,35,-26,61c0,0,-17,25,-44,38c0,0,-27,14,-63,14c0,0,-46,0,-93,-33c0,0,-46,-33,-97,-96V18c0,0,0,-6,-3,-10c0,0,-2,-4,-9,-7c0,0,-7,-2,-19,-3c0,0,-12,-2,-30,-2Z" 
id="f2_af"
transform="scale(0.001,-0.001)" />

<path d="M339,-13c0,0,-52,0,-90,13c0,0,-37,14,-61,42c0,0,-24,28,-34,71c0,0,-11,43,-11,101V607H49c0,0,-11,0,-18,12c0,0,-7,12,-7,39c0,0,0,14,2,24c0,0,2,10,5,16c0,0,3,7,8,9c0,0,5,3,11,3h93V870c0,0,0,5,2,9c0,0,3,5,10,8c0,0,7,4,19,5c0,0,12,2,30,2c0,0,19,0,31,-2c0,0,11,-1,18,-5c0,0,7,-3,10,-8c0,0,3,-4,3,-9V710H438c0,0,6,0,10,-3c0,0,5,-2,8,-9c0,0,4,-6,5,-16c0,0,1,-10,1,-24c0,0,0,-27,-6,-39c0,0,-7,-12,-18,-12H266V232c0,0,0,-69,20,-105c0,0,21,-35,74,-35c0,0,17,0,30,3c0,0,14,4,24,7c0,0,10,4,18,7c0,0,7,4,13,4c0,0,4,0,7,-2c0,0,4,-2,6,-7c0,0,2,-5,3,-14c0,0,1,-9,1,-23c0,0,0,-22,-2,-34c0,0,-3,-13,-9,-19c0,0,-6,-6,-18,-11c0,0,-12,-4,-28,-8c0,0,-15,-3,-32,-5c0,0,-17,-3,-34,-3Z" 
id="f2_bf"
transform="scale(0.001,-0.001)" />

<path d="M176,-4c0,0,-18,0,-30,2c0,0,-12,1,-19,3c0,0,-7,3,-10,7c0,0,-3,4,-3,10v997c0,0,0,6,3,11c0,0,3,4,10,7c0,0,7,3,19,5c0,0,12,1,30,1c0,0,18,0,30,-1c0,0,12,-2,19,-5c0,0,7,-3,9,-7c0,0,3,-5,3,-10V614c0,0,53,56,107,83c0,0,54,28,108,28c0,0,67,0,113,-23c0,0,46,-23,74,-61c0,0,29,-38,41,-89c0,0,12,-52,12,-124V18c0,0,0,-6,-3,-10c0,0,-3,-4,-9,-7c0,0,-7,-2,-19,-3c0,0,-12,-2,-30,-2c0,0,-19,0,-30,2c0,0,-12,1,-19,3c0,0,-7,3,-10,7c0,0,-3,4,-3,10V412c0,0,0,58,-9,93c0,0,-9,35,-26,61c0,0,-17,25,-44,38c0,0,-27,14,-63,14c0,0,-46,0,-93,-33c0,0,-46,-33,-97,-96V18c0,0,0,-6,-3,-10c0,0,-2,-4,-9,-7c0,0,-7,-2,-19,-3c0,0,-12,-2,-30,-2Z" 
id="f2_9n"
transform="scale(0.001,-0.001)" />

<path d="M176,-4c0,0,-18,0,-30,2c0,0,-12,1,-19,3c0,0,-7,3,-10,7c0,0,-3,4,-3,10V690c0,0,0,5,3,9c0,0,3,5,10,8c0,0,7,3,19,4c0,0,12,2,30,2c0,0,18,0,30,-2c0,0,12,-1,19,-4c0,0,7,-3,9,-8c0,0,3,-4,3,-9V18c0,0,0,-6,-3,-10c0,0,-2,-4,-9,-7c0,0,-7,-2,-19,-3c0,0,-12,-2,-30,-2Zm-1,846c0,0,-43,0,-59,15c0,0,-16,15,-16,58c0,0,0,43,16,59c0,0,17,16,61,16c0,0,43,0,59,-16c0,0,16,-15,16,-58c0,0,0,-43,-16,-58c0,0,-17,-16,-61,-16Z" 
id="f2_9q"
transform="scale(0.001,-0.001)" />

<path d="M272,-13c0,0,-35,0,-68,6c0,0,-32,6,-58,13c0,0,-26,9,-44,18c0,0,-17,10,-26,17c0,0,-8,8,-12,21c0,0,-3,14,-3,37c0,0,0,14,1,24c0,0,2,9,4,15c0,0,2,6,6,9c0,0,4,3,10,3c0,0,8,0,24,-11c0,0,16,-10,39,-22c0,0,24,-12,56,-22c0,0,32,-10,74,-10c0,0,31,0,56,7c0,0,26,6,44,19c0,0,19,14,29,34c0,0,10,20,10,47c0,0,0,29,-14,48c0,0,-15,19,-39,34c0,0,-24,15,-53,27c0,0,-30,11,-62,24c0,0,-32,13,-62,29c0,0,-30,16,-54,39c0,0,-24,23,-38,55c0,0,-15,32,-15,77c0,0,0,40,16,76c0,0,15,36,45,63c0,0,31,28,77,44c0,0,46,17,107,17c0,0,27,0,54,-5c0,0,26,-5,48,-11c0,0,22,-7,37,-15c0,0,15,-8,23,-14c0,0,8,-6,11,-11c0,0,2,-4,3,-10c0,0,1,-5,2,-14c0,0,2,-8,2,-20c0,0,0,-12,-2,-22c0,0,-1,-9,-3,-15c0,0,-3,-6,-7,-8c0,0,-3,-3,-8,-3c0,0,-7,0,-19,8c0,0,-13,8,-33,18c0,0,-20,9,-47,17c0,0,-28,9,-63,9c0,0,-31,0,-55,-7c0,0,-24,-7,-39,-20c0,0,-15,-13,-23,-31c0,0,-8,-18,-8,-39c0,0,0,-29,15,-49c0,0,15,-20,39,-35c0,0,24,-15,54,-27c0,0,31,-11,62,-24c0,0,32,-13,63,-29c0,0,31,-15,55,-38c0,0,24,-22,38,-53c0,0,15,-32,15,-75c0,0,0,-51,-19,-92c0,0,-19,-40,-54,-68C463,42,428,15,379,1c0,0,-48,-14,-107,-14Z" 
id="f2_b5"
transform="scale(0.001,-0.001)" />

<path d="M176,-4c0,0,-18,0,-30,2c0,0,-12,1,-19,3c0,0,-7,3,-10,7c0,0,-3,4,-3,10V690c0,0,0,6,3,10c0,0,2,4,9,7c0,0,6,4,17,5c0,0,10,1,27,1c0,0,17,0,28,-1c0,0,10,-1,16,-5c0,0,6,-3,9,-7c0,0,3,-4,3,-10V601c0,0,56,64,110,94c0,0,53,30,108,30c0,0,42,0,75,-10c0,0,33,-10,58,-28c0,0,26,-17,44,-42c0,0,18,-24,30,-55c0,0,33,37,63,63c0,0,31,26,59,41c0,0,28,16,54,23c0,0,27,8,53,8c0,0,65,0,109,-23c0,0,44,-23,71,-61c0,0,28,-38,39,-89c0,0,12,-52,12,-108V18c0,0,0,-6,-3,-10c0,0,-3,-4,-10,-7c0,0,-7,-2,-19,-3c0,0,-12,-2,-29,-2c0,0,-19,0,-31,2c0,0,-12,1,-19,3c0,0,-7,3,-10,7c0,0,-3,4,-3,10V427c0,0,0,43,-8,78c0,0,-7,35,-23,61c0,0,-17,25,-42,38c0,0,-25,14,-60,14c0,0,-42,0,-85,-33c0,0,-43,-33,-94,-96V18c0,0,0,-6,-3,-10c0,0,-3,-4,-11,-7c0,0,-7,-2,-19,-3c0,0,-11,-2,-29,-2c0,0,-18,0,-30,2c0,0,-12,1,-19,3c0,0,-7,3,-10,7c0,0,-3,4,-3,10V427c0,0,0,43,-8,78c0,0,-8,35,-24,61c0,0,-17,25,-42,38c0,0,-25,14,-59,14c0,0,-43,0,-86,-33c0,0,-44,-33,-95,-96V18c0,0,0,-6,-3,-10c0,0,-2,-4,-9,-7c0,0,-7,-2,-19,-3c0,0,-12,-2,-30,-2Z" 
id="f2_ae"
transform="scale(0.001,-0.001)" />

<path d="M564,420c0,0,2,98,-43,153c0,0,-46,56,-134,56c0,0,-46,0,-80,-18c0,0,-35,-17,-58,-45c0,0,-23,-29,-36,-67c0,0,-12,-37,-14,-79ZM405,-13c0,0,-83,0,-145,22c0,0,-62,24,-105,69c0,0,-42,46,-64,114c0,0,-22,69,-22,160c0,0,0,87,23,156c0,0,22,69,64,117c0,0,43,48,102,74c0,0,60,26,134,26c0,0,79,0,135,-26c0,0,55,-25,91,-68c0,0,36,-43,53,-101c0,0,16,-58,16,-123V384c0,0,0,-29,-14,-41c0,0,-15,-13,-33,-13H199c0,0,0,-56,11,-100c0,0,12,-45,38,-77c0,0,26,-33,68,-50c0,0,41,-17,102,-17c0,0,48,0,85,8c0,0,37,8,65,17c0,0,27,10,44,18c0,0,18,8,27,8c0,0,5,0,9,-3c0,0,4,-2,7,-8c0,0,2,-5,3,-14c0,0,1,-9,1,-23c0,0,0,-9,-1,-16c0,0,0,-8,-2,-13c0,0,-1,-6,-3,-10c0,0,-3,-5,-7,-9c0,0,-4,-4,-24,-13c0,0,-20,-10,-53,-18c0,0,-32,-9,-74,-16c0,0,-42,-7,-90,-7Z" 
id="f2_7z"
transform="scale(0.001,-0.001)" />

<path d="M401,90c0,0,54,0,93,19c0,0,40,20,65,55c0,0,26,35,37,84c0,0,12,48,12,106c0,0,0,55,-10,104c0,0,-10,48,-33,85c0,0,-23,36,-62,58c0,0,-40,21,-99,21c0,0,-54,0,-93,-20c0,0,-39,-19,-65,-54c0,0,-25,-36,-37,-85c0,0,-12,-48,-12,-106c0,0,0,-55,10,-103c0,0,10,-49,33,-85c0,0,24,-36,63,-58c0,0,39,-21,98,-21ZM395,-13c0,0,-82,0,-144,24c0,0,-61,25,-102,72c0,0,-41,47,-61,114c0,0,-21,67,-21,152c0,0,0,82,22,151c0,0,21,69,64,119c0,0,43,50,107,78c0,0,64,28,150,28c0,0,82,0,144,-25c0,0,61,-25,102,-72c0,0,41,-47,62,-114c0,0,20,-67,20,-151c0,0,0,-83,-21,-152c0,0,-22,-69,-65,-119C652,92,609,42,545,14c0,0,-65,-27,-150,-27Z" 
id="f2_am"
transform="scale(0.001,-0.001)" />

<path d="M366,92c0,0,25,0,48,7c0,0,22,6,46,22c0,0,24,16,50,41c0,0,26,24,56,61V492c0,0,-51,62,-97,94c0,0,-47,33,-98,33c0,0,-47,0,-79,-22c0,0,-33,-23,-54,-59c0,0,-20,-37,-30,-83c0,0,-9,-47,-9,-94c0,0,0,-51,8,-100c0,0,8,-48,27,-86c0,0,19,-38,52,-60c0,0,32,-23,80,-23ZM345,-13c0,0,-74,0,-127,28c0,0,-52,29,-84,78c0,0,-33,49,-48,115c0,0,-15,66,-15,139c0,0,0,86,19,156c0,0,19,70,55,119c0,0,37,50,91,76c0,0,54,27,125,27c0,0,59,0,108,-26c0,0,49,-26,97,-76v390c0,0,0,5,2,10c0,0,3,4,10,7c0,0,8,3,19,5c0,0,12,1,30,1c0,0,18,0,30,-1c0,0,12,-2,19,-5c0,0,7,-3,10,-7c0,0,3,-5,3,-10V18c0,0,0,-6,-2,-10c0,0,-3,-5,-9,-7c0,0,-7,-2,-17,-3c0,0,-10,-2,-25,-2c0,0,-16,0,-26,2c0,0,-11,1,-18,3c0,0,-6,2,-9,7c0,0,-3,4,-3,10v90c0,0,-53,-58,-110,-90c0,0,-58,-31,-125,-31Z" 
id="f2_7v"
transform="scale(0.001,-0.001)" />

<path d="M209,-4c0,0,-18,0,-30,2c0,0,-12,1,-19,3c0,0,-7,3,-10,7c0,0,-3,4,-3,10V607H52c0,0,-12,0,-18,12c0,0,-6,12,-6,39c0,0,0,14,2,24c0,0,1,10,4,16c0,0,3,7,8,9c0,0,4,3,10,3h95v69c0,0,0,71,13,121c0,0,13,50,40,82c0,0,27,33,67,48c0,0,41,15,96,15c0,0,26,0,51,-5c0,0,25,-4,38,-10c0,0,13,-6,18,-10c0,0,4,-5,7,-12c0,0,3,-7,5,-17c0,0,1,-10,1,-24c0,0,0,-15,-2,-23c0,0,-1,-9,-3,-14c0,0,-2,-5,-5,-7c0,0,-3,-2,-8,-2c0,0,-5,0,-13,3c0,0,-7,4,-19,8c0,0,-11,4,-26,7c0,0,-15,4,-36,4c0,0,-27,0,-47,-9c0,0,-19,-9,-31,-28c0,0,-12,-19,-17,-50c0,0,-5,-30,-5,-73V710H421c0,0,6,0,10,-3c0,0,4,-2,7,-9c0,0,4,-6,6,-16c0,0,2,-10,2,-24c0,0,0,-27,-7,-39c0,0,-7,-12,-18,-12H271V18c0,0,0,-6,-3,-10c0,0,-3,-4,-11,-7c0,0,-7,-2,-19,-3c0,0,-12,-2,-29,-2Z" 
id="f2_89"
transform="scale(0.001,-0.001)" />

<path d="M176,-4c0,0,-18,0,-30,2c0,0,-12,1,-19,3c0,0,-7,3,-10,7c0,0,-3,4,-3,10V690c0,0,0,6,3,10c0,0,2,4,9,7c0,0,6,4,17,5c0,0,10,1,27,1c0,0,17,0,28,-1c0,0,10,-1,16,-5c0,0,6,-3,9,-7c0,0,3,-4,3,-10V592c0,0,27,41,51,66c0,0,25,26,46,41c0,0,22,14,43,20c0,0,21,6,43,6c0,0,10,0,22,-2c0,0,12,-1,26,-4c0,0,13,-3,24,-6c0,0,11,-4,15,-8c0,0,5,-4,6,-7c0,0,2,-3,3,-9c0,0,1,-5,1,-15c0,0,0,-10,0,-27c0,0,0,-16,0,-28c0,0,-1,-11,-3,-17c0,0,-2,-6,-6,-10c0,0,-3,-3,-9,-3c0,0,-6,0,-15,3c0,0,-8,4,-19,7c0,0,-11,3,-24,6c0,0,-14,3,-29,3c0,0,-19,0,-37,-7c0,0,-18,-8,-37,-25c0,0,-20,-18,-42,-46c0,0,-21,-29,-48,-70V18c0,0,0,-6,-3,-10c0,0,-2,-4,-9,-7c0,0,-7,-2,-19,-3c0,0,-12,-2,-30,-2Z" 
id="f2_b1"
transform="scale(0.001,-0.001)" />

<path d="M429,92c0,0,47,0,80,22c0,0,33,23,54,60c0,0,20,38,30,84c0,0,10,46,10,93c0,0,0,52,-8,100c0,0,-8,48,-27,86c0,0,-19,37,-51,60c0,0,-32,22,-80,22c0,0,-24,0,-47,-7c0,0,-23,-7,-47,-23c0,0,-24,-15,-50,-40c0,0,-26,-25,-56,-62V220c0,0,51,-62,97,-95c0,0,45,-33,95,-33ZM176,-271c0,0,-18,0,-30,2c0,0,-12,1,-19,4c0,0,-7,3,-10,8c0,0,-3,4,-3,10V690c0,0,0,6,3,10c0,0,2,5,9,8c0,0,6,3,17,4c0,0,10,1,25,1c0,0,16,0,26,-1c0,0,10,-1,17,-4c0,0,6,-3,9,-7c0,0,3,-4,3,-11V601c0,0,30,31,59,54c0,0,28,23,57,39c0,0,28,15,59,23c0,0,30,8,63,8c0,0,74,0,125,-29c0,0,52,-28,84,-77c0,0,32,-50,47,-115c0,0,15,-65,15,-139c0,0,0,-88,-19,-158c0,0,-19,-70,-56,-119c0,0,-37,-49,-91,-75c0,0,-55,-26,-125,-26c0,0,-30,0,-55,6c0,0,-25,6,-50,18c0,0,-24,13,-48,32c0,0,-24,19,-51,46V-247c0,0,0,-6,-3,-10c0,0,-2,-5,-9,-8c0,0,-7,-3,-19,-4c0,0,-12,-2,-30,-2Z" 
id="f2_ay"
transform="scale(0.001,-0.001)" />

<path d="M351,-13c0,0,-67,0,-113,22c0,0,-46,22,-75,60c0,0,-28,39,-40,90c0,0,-13,51,-13,124V690c0,0,0,6,3,10c0,0,3,4,10,7c0,0,8,4,20,5c0,0,11,1,29,1c0,0,18,0,30,-1c0,0,12,-1,19,-5c0,0,7,-3,10,-7c0,0,3,-4,3,-10V299c0,0,0,-59,9,-94c0,0,8,-36,26,-61c0,0,18,-24,44,-38c0,0,27,-14,63,-14c0,0,46,0,92,33c0,0,46,32,98,95V690c0,0,0,6,2,10c0,0,3,4,10,7c0,0,8,4,19,5c0,0,12,1,30,1c0,0,18,0,30,-1c0,0,12,-1,19,-5c0,0,7,-3,10,-7c0,0,3,-4,3,-10V18c0,0,0,-6,-2,-10c0,0,-3,-4,-10,-7c0,0,-6,-2,-17,-3c0,0,-11,-2,-27,-2c0,0,-17,0,-28,2c0,0,-10,1,-17,3c0,0,-6,3,-8,7c0,0,-3,4,-3,10v89c0,0,-57,-63,-113,-92c0,0,-56,-28,-113,-28Z" 
id="f2_c6"
transform="scale(0.001,-0.001)" />

<path d="M367,-13c0,0,-73,0,-129,23c0,0,-56,24,-93,70c0,0,-38,46,-58,112c0,0,-20,67,-20,154c0,0,0,99,25,171c0,0,24,71,66,116c0,0,42,46,99,68c0,0,58,22,124,22c0,0,32,0,62,-6c0,0,31,-6,56,-16c0,0,25,-10,45,-22c0,0,20,-13,29,-22c0,0,9,-9,12,-14c0,0,3,-5,6,-13c0,0,2,-7,3,-16c0,0,0,-9,0,-22c0,0,0,-29,-6,-41c0,0,-7,-11,-17,-11c0,0,-11,0,-25,12c0,0,-15,12,-37,27c0,0,-23,15,-55,28c0,0,-31,12,-75,12c0,0,-88,0,-136,-68c0,0,-47,-68,-47,-198c0,0,0,-65,12,-114c0,0,12,-49,36,-81c0,0,24,-33,59,-49c0,0,35,-16,79,-16c0,0,43,0,75,13c0,0,32,14,56,30c0,0,23,16,39,29c0,0,16,13,25,13c0,0,5,0,9,-3c0,0,4,-3,7,-10c0,0,2,-7,3,-18c0,0,1,-11,1,-26c0,0,0,-12,0,-22c0,0,-1,-9,-3,-15c0,0,-2,-7,-4,-12c0,0,-3,-4,-12,-14c0,0,-10,-9,-32,-23c0,0,-22,-14,-50,-24C496,11,468,0,435,-6c0,0,-33,-7,-68,-7Z" 
id="f2_7l"
transform="scale(0.001,-0.001)" />

<path d="M69,-215c0,0,-12,0,-21,1c0,0,-8,1,-12,4c0,0,-4,2,-4,7c0,0,-1,4,2,10L134,11v96c0,0,0,20,4,32c0,0,4,12,13,18c0,0,9,6,22,8c0,0,13,2,33,2c0,0,19,0,32,-2c0,0,13,-2,22,-8c0,0,9,-6,13,-18c0,0,4,-12,4,-32c0,0,0,-23,-2,-43c0,0,-3,-19,-8,-36c0,0,-5,-17,-14,-33c0,0,-8,-17,-21,-36L130,-194c0,0,-4,-5,-9,-9c0,0,-5,-4,-12,-7c0,0,-7,-3,-16,-4c0,0,-9,-1,-24,-1Z" 
id="f2_nq"
transform="scale(0.001,-0.001)" />

<path d="M431,92c0,0,46,0,79,22c0,0,33,23,53,60c0,0,21,37,30,83c0,0,10,46,10,93c0,0,0,51,-8,100c0,0,-8,49,-28,86c0,0,-19,37,-51,60c0,0,-32,23,-80,23c0,0,-24,0,-47,-7c0,0,-23,-7,-47,-22c0,0,-24,-16,-50,-41c0,0,-25,-24,-55,-62V219c0,0,51,-62,98,-95c0,0,46,-32,96,-32ZM443,-13c0,0,-32,0,-59,7c0,0,-27,6,-53,19c0,0,-26,14,-52,36c0,0,-27,22,-56,52V18c0,0,0,-6,-3,-10c0,0,-3,-5,-9,-7c0,0,-7,-2,-17,-3c0,0,-10,-2,-26,-2c0,0,-15,0,-25,2c0,0,-11,1,-17,3c0,0,-7,2,-9,7c0,0,-3,4,-3,10v997c0,0,0,6,3,11c0,0,3,4,10,7c0,0,7,3,19,5c0,0,12,1,30,1c0,0,18,0,30,-1c0,0,12,-2,19,-5c0,0,7,-3,9,-7c0,0,3,-5,3,-10V614c0,0,30,31,58,52c0,0,28,20,55,34c0,0,27,13,54,19c0,0,27,6,57,6c0,0,73,0,125,-30c0,0,52,-29,84,-78c0,0,32,-48,47,-114c0,0,15,-66,15,-139c0,0,0,-87,-19,-157c0,0,-19,-70,-56,-119c0,0,-37,-49,-90,-76c0,0,-54,-25,-124,-25Z" 
id="f2_7k"
transform="scale(0.001,-0.001)" />

<path d="M252,-271c0,0,-19,0,-31,2c0,0,-12,2,-18,6c0,0,-7,5,-8,12c0,0,0,8,4,18L292,0c0,0,-7,3,-13,10c0,0,-6,6,-8,14L31,665c0,0,-6,16,-6,25c0,0,0,9,6,14c0,0,6,5,20,7c0,0,13,2,36,2c0,0,22,0,35,-1c0,0,12,-1,20,-4c0,0,7,-3,11,-9c0,0,3,-6,7,-15L351,145h3L539,687c0,0,4,14,10,18c0,0,7,4,19,6c0,0,13,2,37,2c0,0,21,0,34,-2c0,0,14,-2,20,-7c0,0,6,-5,6,-14c0,0,0,-9,-4,-23L420,0L330,-246c0,0,-4,-12,-22,-18c0,0,-19,-7,-56,-7Z" 
id="f2_co"
transform="scale(0.001,-0.001)" />

<path d="M321,82c0,0,48,0,90,25c0,0,41,24,87,75V325H392c0,0,-50,0,-88,-9c0,0,-37,-9,-62,-25c0,0,-24,-17,-36,-41c0,0,-11,-23,-11,-54c0,0,0,-52,33,-83c0,0,33,-31,93,-31ZM301,-13c0,0,-53,0,-96,13c0,0,-43,14,-73,40c0,0,-30,26,-47,64c0,0,-17,38,-17,87c0,0,0,56,24,98c0,0,23,42,66,69c0,0,43,28,106,42c0,0,63,14,141,14h93v52c0,0,0,39,-9,69c0,0,-8,30,-26,50c0,0,-18,20,-47,30c0,0,-30,10,-72,10c0,0,-46,0,-82,-11c0,0,-36,-11,-63,-24c0,0,-27,-13,-46,-24c0,0,-18,-11,-27,-11c0,0,-6,0,-10,3c0,0,-5,3,-8,9c0,0,-3,6,-5,16c0,0,-1,9,-1,20c0,0,0,19,2,30c0,0,3,11,13,20c0,0,10,10,35,23c0,0,24,13,56,24c0,0,32,10,70,17c0,0,38,8,77,8c0,0,73,0,123,-17c0,0,51,-16,82,-48c0,0,32,-32,46,-79c0,0,14,-47,14,-110V18c0,0,0,-9,-6,-14c0,0,-6,-4,-16,-6c0,0,-11,-2,-31,-2c0,0,-19,0,-31,2c0,0,-12,2,-17,6c0,0,-5,5,-5,13V85c0,0,-44,-47,-98,-73c0,0,-54,-25,-115,-25Z" 
id="f2_77"
transform="scale(0.001,-0.001)" />

<path d="M346,-177c0,0,56,0,94,11c0,0,37,11,60,28c0,0,24,18,34,41c0,0,10,23,10,49c0,0,0,43,-36,65c0,0,-35,23,-95,25L239,48c0,0,-24,-19,-39,-35c0,0,-15,-16,-24,-31c0,0,-9,-16,-12,-30c0,0,-4,-15,-4,-31c0,0,0,-48,49,-73c0,0,50,-25,137,-25Zm-6,512c0,0,36,0,63,12c0,0,27,12,44,32c0,0,18,21,26,48c0,0,9,27,9,56c0,0,0,69,-38,107c0,0,-37,39,-107,39c0,0,-35,0,-62,-12c0,0,-26,-12,-44,-33c0,0,-17,-21,-26,-48c0,0,-8,-28,-8,-58c0,0,0,-66,37,-104c0,0,38,-39,106,-39Zm0,-606c0,0,-81,0,-138,14c0,0,-57,14,-94,38c0,0,-36,24,-52,57c0,0,-17,33,-17,72c0,0,0,24,6,47c0,0,6,24,18,43c0,0,13,21,31,40c0,0,18,19,42,38c0,0,-36,19,-54,47c0,0,-17,28,-17,61c0,0,0,45,18,81c0,0,19,36,46,64c0,0,-23,28,-36,62c0,0,-14,35,-14,84c0,0,0,58,20,104c0,0,19,45,53,77c0,0,35,31,83,48c0,0,48,17,105,17c0,0,30,0,57,-4c0,0,26,-3,49,-9H649c0,0,13,0,19,-12c0,0,7,-13,7,-38c0,0,0,-26,-7,-37c0,0,-7,-12,-19,-12H553c0,0,26,-27,37,-60c0,0,10,-32,10,-68c0,0,0,-58,-18,-103c0,0,-19,-45,-54,-76c0,0,-34,-31,-82,-47c0,0,-48,-16,-106,-16c0,0,-41,0,-78,10c0,0,-37,11,-57,28c0,0,-14,-14,-22,-31c0,0,-9,-17,-9,-39c0,0,0,-27,24,-44c0,0,25,-17,65,-18l175,-8c0,0,50,-1,92,-14c0,0,41,-12,72,-35c0,0,31,-22,48,-55c0,0,17,-34,17,-76c0,0,0,-47,-20,-88c0,0,-19,-42,-59,-74c0,0,-40,-31,-102,-50c0,0,-61,-18,-146,-18Z" 
id="f2_9d"
transform="scale(0.001,-0.001)" />

<path d="M346,-4c0,0,-23,0,-38,2c0,0,-15,1,-24,3c0,0,-9,3,-15,8c0,0,-5,6,-8,13L33,660c0,0,-3,9,-5,15c0,0,-2,7,-2,11c0,0,0,3,0,5c0,0,0,6,3,11c0,0,3,4,10,7c0,0,7,2,18,3c0,0,12,1,29,1c0,0,22,0,35,-1c0,0,13,-1,20,-4c0,0,7,-3,10,-8c0,0,4,-4,7,-11L347,135l3,-9l2,9L540,689c0,0,1,7,5,11c0,0,3,5,11,8c0,0,7,3,19,4c0,0,12,1,32,1c0,0,18,0,29,-1c0,0,11,-1,17,-4c0,0,7,-3,9,-7c0,0,3,-4,3,-10c0,0,0,-3,-1,-6c0,0,0,-4,-1,-7c0,0,0,-4,-2,-8c0,0,-1,-5,-2,-10L430,22c0,0,-3,-8,-8,-13c0,0,-5,-6,-15,-9c0,0,-9,-2,-24,-3c0,0,-15,-1,-37,-1Z" 
id="f2_ch"
transform="scale(0.001,-0.001)" />

<path d="M176,-4c0,0,-18,0,-30,2c0,0,-12,1,-19,3c0,0,-7,3,-10,7c0,0,-3,4,-3,10v997c0,0,0,6,3,11c0,0,3,4,10,7c0,0,7,3,19,5c0,0,12,1,30,1c0,0,18,0,30,-1c0,0,12,-2,19,-5c0,0,7,-3,9,-7c0,0,3,-5,3,-11V18c0,0,0,-6,-3,-10c0,0,-2,-4,-9,-7c0,0,-7,-2,-19,-3c0,0,-12,-2,-30,-2Z" 
id="f2_a8"
transform="scale(0.001,-0.001)" />

<path d="M192,-6c0,0,-45,0,-62,16c0,0,-18,18,-18,69c0,0,0,53,18,71c0,0,18,17,64,17c0,0,45,0,62,-17c0,0,17,-17,17,-69c0,0,0,-53,-18,-70c0,0,-17,-17,-63,-17Z" 
id="f2_nt"
transform="scale(0.001,-0.001)" />

<path d="M176,0c0,0,-17,0,-33,12c0,0,-15,11,-15,40V913c0,0,0,29,15,41c0,0,16,11,33,11H635c0,0,6,0,10,-3c0,0,5,-3,8,-10c0,0,3,-6,5,-16c0,0,2,-10,2,-25c0,0,0,-14,-2,-24c0,0,-2,-10,-5,-16c0,0,-3,-7,-8,-10c0,0,-4,-2,-10,-2H256V555H581c0,0,6,0,11,-3c0,0,5,-3,8,-9c0,0,3,-6,5,-17c0,0,1,-10,1,-24c0,0,0,-14,-1,-23c0,0,-2,-10,-5,-16c0,0,-3,-6,-8,-9c0,0,-5,-2,-11,-2H256V107H640c0,0,6,0,11,-3c0,0,4,-3,8,-10c0,0,4,-6,5,-16c0,0,2,-10,2,-25c0,0,0,-14,-2,-24c0,0,-1,-10,-5,-16c0,0,-4,-7,-8,-10c0,0,-5,-3,-11,-3Z" 
id="f2_t"
transform="scale(0.001,-0.001)" />

<path d="M372,-4c0,0,-18,0,-30,2c0,0,-13,2,-21,3c0,0,-7,3,-10,8c0,0,-3,4,-3,10V857H36c0,0,-6,0,-11,3c0,0,-5,2,-8,9c0,0,-2,6,-4,17c0,0,-2,10,-2,24c0,0,0,14,2,25c0,0,2,11,4,17c0,0,3,7,8,10c0,0,5,3,11,3H708c0,0,6,0,11,-3c0,0,5,-3,8,-10c0,0,4,-6,5,-17c0,0,2,-11,2,-25c0,0,0,-14,-2,-24c0,0,-1,-11,-5,-17c0,0,-3,-7,-8,-9c0,0,-5,-3,-11,-3H436V19c0,0,0,-6,-3,-10c0,0,-3,-5,-10,-8c0,0,-8,-1,-20,-3c0,0,-12,-2,-31,-2Z" 
id="f2_2t"
transform="scale(0.001,-0.001)" />

<path d="M176,-4c0,0,-18,0,-30,2c0,0,-12,1,-19,3c0,0,-7,3,-10,7c0,0,-3,4,-3,10v997c0,0,0,6,3,11c0,0,3,4,10,7c0,0,7,3,19,5c0,0,12,1,30,1c0,0,18,0,30,-1c0,0,12,-2,19,-5c0,0,7,-3,9,-7c0,0,3,-5,3,-11V408L492,687c0,0,6,7,12,12c0,0,7,5,16,8c0,0,10,4,22,5c0,0,13,1,31,1c0,0,19,0,31,-1c0,0,13,-1,21,-4c0,0,8,-3,11,-7c0,0,3,-4,3,-11c0,0,0,-9,-4,-18c0,0,-5,-8,-16,-20L375,408L648,54c0,0,10,-13,14,-20c0,0,4,-8,4,-15c0,0,0,-6,-3,-10c0,0,-3,-5,-10,-8c0,0,-7,-2,-20,-3c0,0,-13,-2,-32,-2c0,0,-20,0,-33,1c0,0,-13,1,-22,3c0,0,-9,3,-15,7c0,0,-5,5,-10,12L237,391V18c0,0,0,-6,-3,-10c0,0,-2,-4,-9,-7c0,0,-7,-2,-19,-3c0,0,-12,-2,-30,-2Z" 
id="f2_a5"
transform="scale(0.001,-0.001)" />

<path d="M324,-4c0,0,-23,0,-37,2c0,0,-15,1,-24,3c0,0,-9,3,-14,8c0,0,-4,6,-7,13L46,660c0,0,-4,11,-5,18c0,0,-2,8,-2,13c0,0,0,7,3,11c0,0,3,4,10,7c0,0,8,2,19,3c0,0,12,1,30,1c0,0,20,0,33,-1c0,0,13,-1,20,-4c0,0,6,-3,9,-8c0,0,3,-4,5,-11L330,136l2,-7l1,7L482,689c0,0,1,7,5,11c0,0,3,5,10,8c0,0,6,3,18,4c0,0,12,1,31,1c0,0,18,0,29,-1c0,0,12,-1,18,-4c0,0,7,-3,10,-7c0,0,3,-5,5,-11L768,136l1,-7l1,7L930,689c0,0,1,7,5,11c0,0,3,5,10,8c0,0,7,3,20,4c0,0,12,1,31,1c0,0,18,0,29,-1c0,0,11,-1,17,-4c0,0,6,-3,9,-6c0,0,3,-4,3,-11c0,0,0,-5,-2,-13c0,0,-1,-7,-5,-18L849,22c0,0,-2,-8,-7,-13c0,0,-5,-6,-13,-9c0,0,-9,-2,-24,-3c0,0,-15,-1,-37,-1c0,0,-23,0,-39,2c0,0,-15,1,-25,3c0,0,-9,3,-14,8c0,0,-4,6,-6,13L543,510l-2,6l-2,-6L409,22c0,0,-3,-8,-7,-13c0,0,-5,-6,-15,-9c0,0,-10,-2,-25,-3c0,0,-15,-1,-38,-1Z" 
id="f2_ci"
transform="scale(0.001,-0.001)" />

<path d="M419,486c0,0,42,0,72,10c0,0,31,10,54,27c0,0,22,16,38,38c0,0,17,23,27,47c0,0,10,25,14,50c0,0,5,25,5,48c0,0,0,36,-17,62c0,0,-18,26,-53,37c0,0,-16,5,-35,7c0,0,-20,2,-44,2H394L329,486ZM131,-4c0,0,-27,0,-46,2C85,-2,67,0,57,3C57,3,46,6,43,12c0,0,-4,5,-2,14L215,895c0,0,7,35,29,53c0,0,22,17,55,17H510c0,0,39,0,69,-3c0,0,31,-2,61,-8c0,0,45,-9,81,-28c0,0,36,-18,62,-46c0,0,25,-28,39,-66c0,0,13,-38,13,-86c0,0,0,-41,-9,-87c0,0,-10,-45,-31,-89c0,0,-20,-44,-54,-83c0,0,-33,-39,-81,-69c0,0,-48,-31,-111,-48c0,0,-64,-18,-150,-18H299L237,26c0,0,-1,-8,-7,-14c0,0,-6,-6,-19,-9c0,0,-13,-3,-32,-5c0,0,-19,-2,-48,-2Z" 
id="f3_2g"
transform="scale(0.001,-0.001)" />

<path d="M118,-4c0,0,-29,0,-46,2C72,-2,54,0,44,3c0,0,-9,3,-13,9c0,0,-3,5,-2,13l197,981c0,0,1,8,7,14c0,0,5,6,17,10c0,0,12,4,30,6c0,0,18,2,46,2c0,0,28,0,45,-2c0,0,18,-2,27,-6c0,0,10,-4,13,-10c0,0,3,-6,1,-14L217,25c0,0,-2,-8,-8,-13c0,0,-5,-6,-16,-9c0,0,-11,-3,-30,-5c0,0,-18,-2,-45,-2Z" 
id="f3_a8"
transform="scale(0.001,-0.001)" />

<path d="M317,142c0,0,33,0,67,20c0,0,34,19,64,53c0,0,30,34,53,79c0,0,22,45,33,97l21,100c0,0,-26,42,-58,62c0,0,-31,21,-73,21c0,0,-32,0,-58,-15c0,0,-26,-15,-46,-40c0,0,-20,-25,-35,-58c0,0,-16,-33,-26,-68c0,0,-10,-35,-15,-72c0,0,-4,-36,-4,-67c0,0,0,-22,3,-42c0,0,3,-20,12,-36c0,0,9,-16,24,-25c0,0,15,-9,38,-9ZM253,-17c0,0,-60,0,-100,20c0,0,-39,21,-63,57c0,0,-24,35,-34,81c0,0,-10,45,-10,95c0,0,0,47,9,103c0,0,9,55,28,111c0,0,18,55,47,106c0,0,29,51,70,91c0,0,41,39,93,63c0,0,53,23,120,23c0,0,62,0,109,-25c0,0,48,-26,84,-75l12,59c0,0,3,15,23,22c0,0,21,7,66,7c0,0,23,0,38,-2c0,0,15,-2,23,-5c0,0,9,-4,12,-9c0,0,3,-6,1,-13L647,24C647,24,644,9,624,2c0,0,-21,-6,-66,-6c0,0,-23,0,-38,2c0,0,-14,1,-23,3c0,0,-9,4,-12,9c0,0,-2,6,-1,14l21,107c0,0,-11,-24,-36,-50c0,0,-24,-27,-58,-49c0,0,-34,-21,-74,-34c0,0,-41,-15,-84,-15Z" 
id="f3_77"
transform="scale(0.001,-0.001)" />

<path d="M117,-4c0,0,-28,0,-45,2C72,-2,54,0,44,3C44,3,34,6,31,12c0,0,-3,5,-2,13L163,692c0,0,2,7,7,13c0,0,4,5,15,9c0,0,10,3,26,5c0,0,16,2,38,2c0,0,23,0,38,-2c0,0,14,-2,22,-5c0,0,9,-4,11,-9c0,0,3,-6,1,-13L300,582c0,0,15,26,42,53c0,0,26,27,60,49c0,0,34,22,74,36c0,0,39,13,83,13c0,0,52,0,87,-15c0,0,36,-15,58,-41c0,0,22,-27,31,-61c0,0,10,-35,10,-74c0,0,0,-26,-3,-52c0,0,-4,-26,-9,-54L650,25c0,0,-2,-8,-7,-13c0,0,-6,-6,-17,-9c0,0,-12,-3,-30,-5c0,0,-18,-2,-46,-2c0,0,-27,0,-45,2c0,0,-18,2,-27,5c0,0,-10,3,-14,9c0,0,-3,5,-2,13l82,399c0,0,3,18,5,37c0,0,2,19,2,33c0,0,0,34,-14,55c0,0,-14,22,-48,22c0,0,-30,0,-63,-19c0,0,-34,-20,-63,-53c0,0,-30,-33,-53,-78c0,0,-23,-44,-33,-94L217,25c0,0,-2,-8,-8,-13c0,0,-5,-6,-17,-9c0,0,-11,-3,-30,-5c0,0,-18,-2,-45,-2Z" 
id="f3_af"
transform="scale(0.001,-0.001)" />

<path d="M117,-4c0,0,-28,0,-45,2C72,-2,54,0,44,3C44,3,34,6,31,12c0,0,-3,5,-2,13L162,692c0,0,2,7,7,13c0,0,5,5,15,9c0,0,10,3,27,5c0,0,16,2,38,2c0,0,23,0,38,-2c0,0,14,-2,23,-5c0,0,8,-4,10,-9c0,0,3,-6,2,-13L300,586c0,0,18,32,42,58c0,0,23,27,50,47c0,0,26,20,55,31c0,0,28,11,56,11c0,0,11,0,23,-1c0,0,11,-2,21,-4c0,0,10,-2,18,-5c0,0,8,-4,12,-8c0,0,5,-4,5,-14c0,0,0,-5,-2,-18c0,0,-1,-14,-4,-32c0,0,-3,-18,-8,-37c0,0,-4,-19,-10,-35c0,0,-5,-16,-12,-27c0,0,-7,-10,-16,-10c0,0,-6,0,-13,2c0,0,-7,3,-15,6c0,0,-8,2,-18,5c0,0,-10,2,-22,2c0,0,-26,0,-54,-19c0,0,-29,-20,-55,-51c0,0,-27,-32,-47,-74c0,0,-21,-42,-30,-89L217,25c0,0,-2,-8,-8,-13c0,0,-5,-6,-17,-9c0,0,-11,-3,-30,-5c0,0,-18,-2,-45,-2Z" 
id="f3_b1"
transform="scale(0.001,-0.001)" />

<path d="M117,-4c0,0,-28,0,-45,2C72,-2,54,0,44,3C44,3,34,6,31,12c0,0,-3,5,-2,13L162,689c0,0,2,8,7,13c0,0,6,6,17,10c0,0,12,4,30,6c0,0,18,3,46,3c0,0,28,0,45,-3c0,0,18,-2,28,-6c0,0,10,-4,13,-10c0,0,3,-5,2,-13L217,25c0,0,-2,-8,-8,-13c0,0,-5,-6,-17,-9c0,0,-11,-3,-30,-5c0,0,-18,-2,-45,-2ZM281,816c0,0,-31,0,-51,5c0,0,-19,5,-29,17c0,0,-10,11,-12,30c0,0,-1,19,5,47c0,0,5,26,14,45c0,0,9,19,24,31c0,0,14,12,36,17c0,0,22,5,54,5c0,0,31,0,50,-5c0,0,20,-5,30,-17c0,0,10,-12,11,-31c0,0,1,-19,-4,-45c0,0,-5,-28,-14,-47c0,0,-9,-19,-24,-30c0,0,-15,-12,-36,-17c0,0,-22,-5,-54,-5Z" 
id="f3_9q"
transform="scale(0.001,-0.001)" />

<path d="M-34,-217c0,0,-22,0,-35,2c0,0,-13,2,-18,7c0,0,-5,4,-4,11c0,0,2,8,8,19L47,26L69,137c0,0,6,25,14,41c0,0,8,15,21,24c0,0,13,8,32,10c0,0,20,3,48,3c0,0,27,0,45,-2c0,0,18,-3,28,-9c0,0,10,-7,15,-16c0,0,4,-10,4,-24c0,0,0,-55,-23,-109C253,55,230,0,187,-46L58,-189c0,0,-13,-15,-34,-22c0,0,-22,-6,-58,-6Z" 
id="f3_nq"
transform="scale(0.001,-0.001)" />

<path d="M133,-4c0,0,-29,0,-48,2C85,-2,67,0,57,3C57,3,46,6,43,12c0,0,-4,6,-2,14L224,939c0,0,1,8,7,14c0,0,6,6,18,9c0,0,11,4,31,6c0,0,19,2,48,2c0,0,28,0,47,-2c0,0,18,-2,29,-6c0,0,10,-3,14,-9c0,0,3,-6,1,-14L348,584H709l71,355c0,0,2,8,8,14c0,0,6,6,18,9c0,0,12,4,31,6c0,0,19,2,48,2c0,0,28,0,47,-2c0,0,18,-2,29,-6c0,0,10,-3,14,-9c0,0,3,-6,2,-14L794,26c0,0,-2,-8,-8,-14c0,0,-6,-6,-18,-9c0,0,-12,-3,-31,-5c0,0,-19,-2,-48,-2c0,0,-28,0,-47,2c0,0,-18,2,-28,5c0,0,-10,3,-14,9c0,0,-4,6,-2,14l78,391H315L237,26c0,0,-1,-8,-7,-14c0,0,-6,-6,-19,-9c0,0,-12,-3,-31,-5c0,0,-19,-2,-47,-2Z" 
id="f3_19"
transform="scale(0.001,-0.001)" />

<path d="M104,-270c0,0,-32,0,-51,3c0,0,-20,2,-29,8c0,0,-9,6,-8,15c0,0,1,9,10,22L196,0L86,640c0,0,-2,10,-3,20c0,0,-2,11,-2,18c0,0,0,14,5,22c0,0,5,8,16,12c0,0,12,5,31,7c0,0,20,2,48,2c0,0,30,0,47,-1c0,0,18,-2,27,-5c0,0,9,-4,12,-12c0,0,3,-7,5,-18L341,219h2c0,0,37,56,68,113c0,0,30,57,56,117c0,0,25,59,46,120c0,0,22,61,39,123c0,0,2,7,7,13c0,0,5,5,18,9c0,0,12,3,32,5c0,0,20,2,52,2c0,0,48,0,66,-6c0,0,18,-6,18,-22c0,0,0,-10,-2,-22c0,0,-2,-12,-7,-24c0,0,-25,-69,-55,-142c0,0,-29,-73,-67,-151c0,0,-39,-77,-87,-160c0,0,-49,-83,-111,-172L234,-235c0,0,-7,-9,-17,-16c0,0,-10,-6,-26,-10c0,0,-15,-4,-37,-7c0,0,-21,-2,-50,-2Z" 
id="f3_co"
transform="scale(0.001,-0.001)" />

<path d="M317,142c0,0,33,0,67,20c0,0,34,19,64,52c0,0,30,34,53,79c0,0,22,45,33,96l20,102c0,0,-26,41,-57,62c0,0,-32,21,-73,21c0,0,-31,0,-57,-15c0,0,-25,-14,-46,-38c0,0,-20,-25,-36,-57c0,0,-15,-33,-25,-68c0,0,-10,-36,-15,-72c0,0,-5,-36,-5,-68c0,0,0,-57,18,-85c0,0,19,-29,59,-29ZM253,-17c0,0,-43,0,-74,11c0,0,-32,10,-55,29c0,0,-23,18,-38,44c0,0,-15,25,-24,53c0,0,-9,29,-12,59c0,0,-4,30,-4,59c0,0,0,49,9,105c0,0,9,55,28,110c0,0,19,55,48,106c0,0,29,50,70,89c0,0,41,39,93,62c0,0,53,23,119,23c0,0,29,0,55,-6c0,0,27,-6,49,-17c0,0,22,-11,39,-26c0,0,18,-15,31,-31l71,351c0,0,2,8,7,14c0,0,5,6,17,10c0,0,11,4,29,6c0,0,19,2,46,2c0,0,28,0,45,-2c0,0,18,-2,28,-6c0,0,9,-4,12,-10c0,0,3,-6,2,-14L648,24C648,24,645,9,624,2c0,0,-20,-6,-65,-6c0,0,-23,0,-38,2c0,0,-15,1,-24,3c0,0,-8,4,-11,9c0,0,-3,6,-1,14l20,107c0,0,-11,-24,-36,-50c0,0,-24,-27,-58,-49c0,0,-34,-22,-74,-35c0,0,-41,-14,-84,-14Z" 
id="f3_7v"
transform="scale(0.001,-0.001)" />

<path d="M78,-217c0,0,-22,0,-35,2c0,0,-13,2,-19,5c0,0,-6,4,-7,10c0,0,0,6,4,14L111,19V137c0,0,0,25,6,41c0,0,6,15,19,24c0,0,13,8,32,10c0,0,20,3,47,3c0,0,27,0,45,-2c0,0,19,-3,31,-11c0,0,13,-9,18,-24c0,0,6,-16,6,-41c0,0,0,-30,-3,-54c0,0,-3,-24,-10,-46c0,0,-7,-22,-17,-41c0,0,-10,-21,-26,-42L159,-189c0,0,-5,-8,-12,-13c0,0,-6,-5,-15,-8c0,0,-9,-3,-22,-5c0,0,-13,-2,-32,-2Z" 
id="f0_nq"
transform="scale(0.001,-0.001)" />

<path d="M320,-17c0,0,-50,0,-93,9c0,0,-43,8,-76,19c0,0,-32,11,-54,24C97,35,75,48,65,58c0,0,-10,9,-14,28c0,0,-4,18,-4,52c0,0,0,23,1,39c0,0,2,15,5,25c0,0,4,10,9,14c0,0,6,4,13,4c0,0,11,0,30,-12c0,0,19,-13,49,-28c0,0,30,-15,71,-27c0,0,42,-12,96,-12c0,0,36,0,64,8c0,0,29,9,49,25c0,0,19,15,30,38c0,0,10,23,10,52c0,0,0,33,-18,56c0,0,-18,24,-46,42c0,0,-29,18,-66,34c0,0,-36,16,-75,34c0,0,-39,18,-76,41c0,0,-36,23,-65,54c0,0,-29,32,-47,75c0,0,-17,44,-17,104c0,0,0,70,25,122c0,0,26,53,70,88c0,0,43,34,103,51c0,0,59,18,125,18c0,0,35,0,69,-6c0,0,34,-5,64,-14c0,0,30,-9,53,-20c0,0,23,-11,31,-18c0,0,7,-8,10,-13c0,0,3,-5,4,-14c0,0,2,-8,3,-21c0,0,1,-13,1,-33c0,0,0,-21,-1,-36c0,0,-1,-15,-4,-25c0,0,-3,-9,-7,-14c0,0,-5,-4,-14,-4c0,0,-8,0,-26,10c0,0,-18,10,-44,23c0,0,-26,12,-60,22c0,0,-34,10,-75,10c0,0,-32,0,-56,-8c0,0,-24,-8,-40,-21c0,0,-16,-14,-24,-34c0,0,-8,-19,-8,-41c0,0,0,-32,18,-56c0,0,17,-23,46,-42c0,0,30,-18,67,-34c0,0,38,-16,76,-34c0,0,39,-18,76,-41c0,0,38,-22,67,-54c0,0,29,-32,47,-75c0,0,18,-43,18,-101c0,0,0,-76,-29,-133c0,0,-28,-58,-77,-96C572,60,524,21,459,2c0,0,-65,-19,-139,-19Z" 
id="f0_2n"
transform="scale(0.001,-0.001)" />

<path d="M224,-4c0,0,-26,0,-45,2c0,0,-18,2,-29,5c0,0,-11,3,-15,9c0,0,-4,5,-4,13V563H48c0,0,-14,0,-21,18c0,0,-7,17,-7,58c0,0,0,22,1,37c0,0,2,15,6,24c0,0,3,8,9,12c0,0,5,4,13,4h82v56c0,0,0,68,13,119c0,0,14,51,43,85c0,0,29,34,73,51c0,0,45,17,105,17c0,0,29,0,55,-5c0,0,27,-4,42,-10c0,0,15,-6,20,-10c0,0,5,-5,8,-15c0,0,4,-9,5,-23c0,0,2,-15,2,-37c0,0,0,-21,-2,-34c0,0,-1,-13,-4,-20c0,0,-3,-7,-7,-10c0,0,-4,-3,-8,-3c0,0,-5,0,-12,3c0,0,-6,3,-16,6c0,0,-9,2,-22,5c0,0,-12,3,-29,3c0,0,-21,0,-35,-7c0,0,-15,-6,-25,-20c0,0,-9,-14,-14,-36c0,0,-4,-22,-4,-54V716H440c0,0,7,0,13,-4c0,0,5,-4,9,-12c0,0,4,-9,5,-24c0,0,2,-15,2,-37c0,0,0,-41,-7,-58c0,0,-8,-18,-22,-18H319V25c0,0,0,-8,-5,-13c0,0,-4,-6,-15,-9c0,0,-10,-3,-29,-5c0,0,-19,-2,-46,-2Z" 
id="f0_89"
transform="scale(0.001,-0.001)" />

<path d="M275,-17c0,0,-37,0,-71,6c0,0,-34,6,-61,13c0,0,-27,9,-45,18c0,0,-18,9,-26,17c0,0,-8,8,-13,25c0,0,-4,17,-4,49c0,0,0,22,1,35c0,0,2,13,5,21c0,0,3,8,7,10c0,0,5,3,11,3c0,0,9,0,25,-9c0,0,16,-10,40,-21c0,0,24,-11,55,-21c0,0,32,-10,72,-10c0,0,26,0,46,5c0,0,19,6,34,15c0,0,14,10,22,25c0,0,7,15,7,34c0,0,0,23,-13,39c0,0,-14,16,-37,28c0,0,-23,11,-52,22c0,0,-28,10,-58,23c0,0,-31,13,-59,29c0,0,-29,17,-52,41c0,0,-23,23,-37,57c0,0,-13,34,-13,81c0,0,0,47,18,87c0,0,19,40,54,69c0,0,35,28,86,44c0,0,50,15,113,15c0,0,31,0,61,-4c0,0,29,-5,53,-11c0,0,24,-7,40,-15c0,0,17,-7,24,-13c0,0,7,-6,10,-11c0,0,3,-6,4,-14c0,0,2,-7,3,-19c0,0,1,-12,1,-29c0,0,0,-20,-1,-33c0,0,-1,-12,-4,-20c0,0,-2,-7,-7,-10c0,0,-4,-3,-10,-3c0,0,-7,0,-21,8c0,0,-14,8,-36,17c0,0,-21,9,-49,17c0,0,-28,7,-64,7c0,0,-25,0,-44,-5c0,0,-19,-5,-30,-15c0,0,-12,-9,-18,-22c0,0,-6,-14,-6,-28c0,0,0,-24,14,-39c0,0,14,-16,37,-28c0,0,23,-12,53,-22c0,0,29,-11,59,-23c0,0,31,-12,60,-29c0,0,30,-16,53,-40c0,0,23,-24,37,-57c0,0,14,-33,14,-79c0,0,0,-57,-21,-100c0,0,-21,-43,-60,-72c0,0,-39,-29,-92,-43c0,0,-53,-15,-115,-15Z" 
id="f0_b5"
transform="scale(0.001,-0.001)" />

<path d="M188,-4c0,0,-28,0,-46,2c0,0,-18,2,-28,5c0,0,-11,3,-16,9c0,0,-4,5,-4,13v981c0,0,0,8,4,14c0,0,5,6,16,10c0,0,10,4,28,6c0,0,18,2,46,2c0,0,27,0,45,-2c0,0,18,-2,29,-6c0,0,11,-4,15,-10c0,0,5,-6,5,-14V639c0,0,48,47,98,71c0,0,51,23,105,23c0,0,68,0,115,-22c0,0,47,-22,75,-61c0,0,29,-39,42,-91c0,0,12,-52,12,-126V25c0,0,0,-8,-4,-13c0,0,-5,-6,-15,-9c0,0,-10,-3,-29,-5c0,0,-18,-2,-45,-2c0,0,-28,0,-46,2c0,0,-18,2,-29,5c0,0,-10,3,-15,9c0,0,-4,6,-4,13V405c0,0,0,49,-7,76c0,0,-7,28,-21,48c0,0,-13,19,-35,30c0,0,-21,11,-49,11c0,0,-36,0,-72,-26c0,0,-37,-26,-76,-76V25c0,0,0,-7,-5,-13c0,0,-4,-6,-15,-9c0,0,-11,-3,-29,-5c0,0,-18,-2,-45,-2Z" 
id="f0_9n"
transform="scale(0.001,-0.001)" />

<path d="M371,-16c0,0,-77,0,-136,23c0,0,-60,24,-100,71c0,0,-40,47,-61,114c0,0,-20,67,-20,154c0,0,0,100,25,173c0,0,25,72,69,120c0,0,45,48,106,71c0,0,62,23,135,23c0,0,29,0,58,-5c0,0,29,-5,54,-14c0,0,25,-9,45,-20c0,0,19,-12,28,-20c0,0,8,-8,11,-14c0,0,3,-5,5,-14c0,0,2,-9,3,-22c0,0,1,-13,1,-32c0,0,0,-43,-7,-61c0,0,-7,-18,-19,-18c0,0,-13,0,-27,11c0,0,-14,10,-34,23c0,0,-19,13,-46,23c0,0,-27,11,-64,11c0,0,-73,0,-112,-57c0,0,-39,-56,-39,-165c0,0,0,-54,10,-95c0,0,10,-41,29,-69c0,0,19,-28,47,-41c0,0,29,-14,67,-14c0,0,39,0,67,11c0,0,28,12,49,26c0,0,21,14,35,26c0,0,14,11,24,11c0,0,6,0,11,-4c0,0,4,-3,7,-13c0,0,2,-11,4,-26c0,0,1,-16,1,-41c0,0,0,-19,-1,-32c0,0,-1,-13,-3,-22c0,0,-2,-9,-4,-15c0,0,-3,-5,-12,-14c0,0,-9,-8,-30,-20C547,27,525,14,497,5c0,0,-27,-9,-60,-15c0,0,-32,-6,-66,-6Z" 
id="f0_7l"
transform="scale(0.001,-0.001)" />

<path d="M589,371L453,782h-1L317,371ZM106,-4c0,0,-35,0,-54,2C52,-2,32,0,25,8c0,0,-7,9,-5,24c0,0,2,16,11,42L329,931c0,0,4,13,10,21c0,0,6,7,19,12c0,0,13,4,36,5c0,0,23,1,61,1c0,0,44,0,71,-1c0,0,26,-1,40,-5c0,0,15,-5,21,-13c0,0,6,-8,11,-22L896,73c0,0,9,-27,11,-43c0,0,3,-15,-6,-23c0,0,-8,-7,-29,-9c0,0,-21,-2,-57,-2c0,0,-38,0,-59,1c0,0,-22,1,-33,4c0,0,-11,3,-16,9c0,0,-4,6,-7,16L635,220H272L211,31c0,0,-2,-11,-7,-18c0,0,-5,-7,-16,-11c0,0,-11,-3,-31,-4c0,0,-19,-2,-51,-2Z" 
id="f0_5"
transform="scale(0.001,-0.001)" />

<path d="M164,0c0,0,-25,0,-42,15c0,0,-16,14,-16,47V903c0,0,0,33,16,48c0,0,17,14,42,14H645c0,0,7,0,12,-4c0,0,5,-3,9,-13c0,0,4,-9,6,-24c0,0,2,-14,2,-36c0,0,0,-21,-2,-36c0,0,-2,-14,-6,-23c0,0,-4,-9,-9,-13c0,0,-5,-4,-12,-4H301V576H593c0,0,6,0,12,-4c0,0,6,-4,9,-13c0,0,4,-8,6,-23c0,0,2,-14,2,-35c0,0,0,-22,-2,-36c0,0,-2,-14,-6,-23c0,0,-3,-8,-9,-12c0,0,-6,-4,-12,-4H301V154H649c0,0,6,0,12,-5c0,0,5,-4,9,-13c0,0,4,-9,6,-23c0,0,2,-15,2,-36c0,0,0,-22,-2,-36c0,0,-2,-15,-6,-24c0,0,-4,-9,-9,-13c0,0,-6,-4,-12,-4Z" 
id="f0_t"
transform="scale(0.001,-0.001)" />

<path d="M121,-4c0,0,-39,0,-60,2C61,-2,39,0,32,8c0,0,-8,8,-3,24c0,0,4,15,18,41L279,495L64,892c0,0,-14,26,-19,42c0,0,-5,17,4,24c0,0,9,8,32,10c0,0,23,2,65,2c0,0,35,0,56,-2c0,0,20,-1,32,-4c0,0,12,-4,17,-10c0,0,5,-6,9,-15L431,620L595,939c0,0,5,9,10,15c0,0,5,6,16,10c0,0,10,3,29,4c0,0,19,2,53,2c0,0,37,0,59,-2c0,0,22,-2,30,-10c0,0,8,-8,4,-24c0,0,-4,-16,-17,-42L564,497L793,73c0,0,14,-26,18,-41c0,0,4,-16,-5,-24c0,0,-9,-8,-32,-10c0,0,-24,-2,-65,-2c0,0,-36,0,-56,2c0,0,-20,1,-31,3c0,0,-12,4,-17,10c0,0,-5,6,-9,15L414,374L233,26c0,0,-4,-9,-9,-15c0,0,-6,-6,-17,-10c0,0,-12,-2,-32,-3c0,0,-21,-2,-54,-2Z" 
id="f0_3e"
transform="scale(0.001,-0.001)" />

<path d="M493,-17c0,0,-91,0,-163,22c0,0,-73,23,-122,69c0,0,-50,46,-77,116c0,0,-26,69,-26,161V939c0,0,0,7,4,13c0,0,5,6,16,10c0,0,12,3,30,6c0,0,19,2,48,2c0,0,29,0,47,-2c0,0,19,-3,30,-6c0,0,11,-4,16,-10c0,0,5,-6,5,-13V368c0,0,0,-57,14,-99c0,0,14,-42,41,-70c0,0,26,-28,63,-41c0,0,37,-14,83,-14c0,0,46,0,82,14c0,0,37,14,62,41c0,0,26,28,39,68c0,0,14,39,14,90V939c0,0,0,7,5,13c0,0,4,6,15,10c0,0,11,3,30,6c0,0,19,2,48,2c0,0,28,0,46,-2c0,0,18,-3,30,-6c0,0,11,-4,15,-10c0,0,5,-6,5,-13V359c0,0,0,-88,-26,-159c0,0,-26,-70,-77,-118C790,82,739,33,665,8c0,0,-75,-25,-172,-25Z" 
id="f0_2x"
transform="scale(0.001,-0.001)" />

<path d="M164,0c0,0,-25,0,-42,15c0,0,-16,14,-16,47V939c0,0,0,7,4,13c0,0,5,6,16,10c0,0,12,3,31,6c0,0,19,2,47,2c0,0,29,0,48,-2c0,0,18,-3,29,-6c0,0,11,-4,16,-10c0,0,5,-6,5,-13V162H606c0,0,7,0,13,-4c0,0,5,-4,9,-13c0,0,4,-10,6,-25c0,0,2,-15,2,-38c0,0,0,-22,-2,-37c0,0,-2,-16,-6,-26c0,0,-4,-10,-9,-15c0,0,-6,-4,-13,-4Z" 
id="f0_1r"
transform="scale(0.001,-0.001)" />

<path d="M402,542c0,0,41,0,72,10c0,0,32,10,52,28c0,0,21,18,32,44c0,0,10,25,10,56c0,0,0,48,-21,81c0,0,-22,33,-71,46c0,0,-15,4,-34,6c0,0,-19,2,-52,2H302V542ZM203,-4c0,0,-28,0,-47,2c0,0,-19,2,-30,5c0,0,-11,4,-16,10c0,0,-4,6,-4,13V903c0,0,0,33,16,48c0,0,17,14,42,14H414c0,0,38,0,62,-1c0,0,25,-2,45,-4c0,0,58,-8,105,-28c0,0,46,-21,79,-53c0,0,32,-32,49,-77c0,0,17,-44,17,-101c0,0,0,-49,-12,-89c0,0,-12,-40,-36,-71c0,0,-24,-31,-59,-54c0,0,-35,-23,-80,-38c0,0,22,-10,41,-25c0,0,19,-15,36,-36c0,0,17,-22,31,-49c0,0,15,-27,30,-61L803,87c0,0,11,-28,15,-41c0,0,3,-14,3,-21c0,0,0,-8,-3,-14c0,0,-3,-5,-14,-9c0,0,-11,-3,-33,-4c0,0,-21,-2,-59,-2c0,0,-31,0,-50,2c0,0,-18,1,-29,4c0,0,-11,4,-15,11c0,0,-5,6,-8,15L524,244c0,0,-16,37,-31,65c0,0,-14,28,-33,48c0,0,-18,19,-42,28c0,0,-24,10,-55,10H302V27c0,0,0,-8,-5,-14c0,0,-5,-6,-16,-10c0,0,-11,-3,-30,-5c0,0,-18,-2,-48,-2Z" 
id="f0_2j"
transform="scale(0.001,-0.001)" />

<path d="M390,486c0,0,47,0,79,13c0,0,31,12,51,35c0,0,20,23,31,55c0,0,10,31,10,69c0,0,0,50,-18,83c0,0,-17,33,-44,49c0,0,-26,15,-54,19c0,0,-29,5,-59,5H302V486ZM203,-4c0,0,-28,0,-47,2c0,0,-19,2,-30,5c0,0,-11,4,-16,10c0,0,-4,6,-4,13V895c0,0,0,35,18,53c0,0,18,17,48,17H400c0,0,34,0,65,-3c0,0,31,-2,74,-11c0,0,43,-8,88,-31c0,0,44,-24,75,-59c0,0,32,-36,48,-83c0,0,17,-47,17,-106c0,0,0,-82,-26,-144c0,0,-25,-63,-74,-106c0,0,-48,-43,-118,-65c0,0,-71,-23,-166,-23H302V26c0,0,0,-7,-5,-13c0,0,-5,-6,-16,-10c0,0,-11,-3,-30,-5c0,0,-18,-2,-48,-2Z" 
id="f0_2g"
transform="scale(0.001,-0.001)" />

<path d="M514,145c0,0,72,0,121,27c0,0,48,26,78,73c0,0,30,46,42,107c0,0,13,62,13,131c0,0,0,76,-12,139c0,0,-12,62,-41,106c0,0,-29,45,-76,69c0,0,-48,24,-120,24c0,0,-72,0,-120,-27c0,0,-49,-27,-79,-73c0,0,-29,-45,-42,-106c0,0,-12,-61,-12,-129c0,0,0,-79,12,-142c0,0,12,-63,40,-108c0,0,28,-44,76,-68c0,0,48,-23,120,-23ZM508,-17c0,0,-113,0,-196,29c0,0,-84,29,-140,90c0,0,-56,60,-84,154c0,0,-28,93,-28,221c0,0,0,117,29,210c0,0,30,94,89,160c0,0,59,65,146,101c0,0,87,35,202,35c0,0,110,0,194,-29c0,0,84,-30,140,-90c0,0,56,-60,85,-153c0,0,29,-92,29,-217c0,0,0,-120,-30,-215c0,0,-30,-95,-89,-161C855,118,796,52,709,17c0,0,-87,-34,-201,-34Z" 
id="f0_24"
transform="scale(0.001,-0.001)" />

<path d="M403,155c0,0,81,0,136,21c0,0,55,21,92,63c0,0,37,42,55,105c0,0,18,63,18,146c0,0,0,69,-16,128c0,0,-16,59,-51,102c0,0,-36,43,-91,67c0,0,-56,25,-146,25H301V155ZM164,0c0,0,-25,0,-42,15c0,0,-16,14,-16,47V903c0,0,0,33,16,48c0,0,17,14,42,14H411c0,0,129,0,219,-30c0,0,90,-30,152,-90c0,0,61,-59,93,-146c0,0,32,-87,32,-202c0,0,0,-133,-34,-227c0,0,-35,-95,-100,-154c0,0,-65,-60,-158,-88C615,28,523,0,394,0Z" 
id="f0_p"
transform="scale(0.001,-0.001)" />

<path d="M489,-15c0,0,-99,0,-179,30c0,0,-80,30,-136,91c0,0,-56,61,-85,152c0,0,-30,91,-30,212c0,0,0,123,32,218c0,0,33,96,92,161c0,0,59,65,142,98c0,0,82,34,181,34c0,0,40,0,78,-7c0,0,37,-7,69,-18c0,0,31,-11,57,-25c0,0,25,-14,35,-24c0,0,10,-10,14,-17c0,0,4,-7,6,-17c0,0,2,-11,3,-25c0,0,2,-14,2,-35c0,0,0,-22,-2,-38c0,0,-1,-15,-5,-25c0,0,-4,-10,-9,-14c0,0,-5,-5,-12,-5c0,0,-11,0,-28,13c0,0,-18,13,-45,29c0,0,-27,16,-65,29c0,0,-37,13,-89,13c0,0,-58,0,-103,-23c0,0,-45,-23,-77,-67c0,0,-31,-44,-48,-106c0,0,-16,-61,-16,-139c0,0,0,-85,17,-147c0,0,18,-62,50,-103c0,0,33,-40,79,-60c0,0,45,-19,103,-19c0,0,52,0,90,12c0,0,38,12,65,27c0,0,27,15,45,27c0,0,17,12,27,12c0,0,8,0,12,-3c0,0,4,-3,7,-12c0,0,3,-9,5,-25c0,0,1,-16,1,-43c0,0,0,-18,-1,-31c0,0,-1,-14,-3,-23c0,0,-2,-9,-6,-16c0,0,-4,-7,-12,-15c0,0,-8,-9,-32,-22c0,0,-23,-14,-57,-26C661,13,627,1,583,-6c0,0,-43,-9,-94,-9Z" 
id="f0_j"
transform="scale(0.001,-0.001)" />

<path d="M378,-4c0,0,-28,0,-47,2c0,0,-19,2,-31,5c0,0,-11,4,-16,10c0,0,-4,6,-4,13V805H38c0,0,-8,0,-13,4c0,0,-5,5,-9,14c0,0,-3,9,-5,25c0,0,-2,15,-2,37c0,0,0,22,2,38c0,0,2,15,5,25c0,0,4,9,9,13c0,0,5,4,13,4H718c0,0,7,0,12,-4c0,0,6,-4,10,-13c0,0,3,-10,5,-25c0,0,2,-16,2,-38c0,0,0,-22,-2,-37c0,0,-2,-16,-5,-25c0,0,-4,-9,-10,-14c0,0,-5,-4,-12,-4H476V26c0,0,0,-7,-5,-13c0,0,-5,-6,-16,-10c0,0,-11,-3,-30,-5c0,0,-19,-2,-47,-2Z" 
id="f0_2t"
transform="scale(0.001,-0.001)" />

<path d="M204,-4c0,0,-28,0,-47,2c0,0,-19,2,-31,5c0,0,-11,4,-16,10c0,0,-4,6,-4,13V939c0,0,0,7,4,13c0,0,5,6,17,10c0,0,11,3,30,6c0,0,19,2,47,2c0,0,29,0,48,-2c0,0,18,-3,29,-6c0,0,11,-4,16,-10c0,0,5,-6,5,-13V26c0,0,0,-7,-5,-13c0,0,-5,-6,-16,-10c0,0,-11,-3,-29,-5c0,0,-19,-2,-48,-2Z" 
id="f0_1c"
transform="scale(0.001,-0.001)" />

<path d="M193,-4c0,0,-26,0,-43,2c0,0,-18,2,-27,6c0,0,-10,4,-14,10c0,0,-3,6,-3,13V895c0,0,0,35,20,53c0,0,21,17,50,17H282c0,0,28,0,47,-5c0,0,20,-5,35,-16c0,0,15,-11,29,-31c0,0,13,-20,27,-49L608,511c0,0,17,-32,33,-63c0,0,16,-31,31,-62c0,0,14,-31,29,-60c0,0,14,-30,27,-60h1c0,0,-2,52,-3,109c0,0,-1,57,-1,108V936c0,0,0,7,4,13c0,0,5,6,15,11c0,0,10,4,28,6c0,0,17,2,44,2c0,0,25,0,42,-2c0,0,17,-2,27,-6c0,0,9,-5,13,-11c0,0,4,-6,4,-13V68c0,0,0,-17,-6,-30c0,0,-6,-14,-17,-23C879,15,869,6,856,2c0,0,-14,-3,-28,-3H744c0,0,-26,0,-45,4c0,0,-19,5,-35,19c0,0,-16,14,-31,38c0,0,-15,23,-34,60L359,572c0,0,-21,40,-43,86c0,0,-21,47,-38,91h-2c0,0,3,-54,5,-107c0,0,2,-53,2,-110V27c0,0,0,-7,-5,-13c0,0,-4,-6,-14,-10c0,0,-10,-4,-27,-6c0,0,-17,-2,-44,-2Z" 
id="f0_1y"
transform="scale(0.001,-0.001)" />

<path d="M92,-4c0,0,-22,0,-35,2C57,-2,43,0,37,3c0,0,-7,5,-6,12c0,0,0,7,7,17L247,360L49,675c0,0,-6,11,-6,18c0,0,-1,7,6,12c0,0,7,5,22,6c0,0,14,2,38,2c0,0,22,0,35,-1c0,0,13,-1,20,-4c0,0,8,-2,12,-6c0,0,3,-3,6,-9L335,443L490,693c0,0,3,5,7,9c0,0,4,3,10,6c0,0,7,3,18,4c0,0,12,1,32,1c0,0,21,0,35,-2c0,0,14,-1,21,-5c0,0,7,-4,6,-12c0,0,-1,-7,-8,-19L415,364L622,32c0,0,6,-10,6,-17c0,0,0,-7,-7,-12c0,0,-7,-3,-21,-5c0,0,-15,-2,-38,-2c0,0,-22,0,-35,1c0,0,-13,1,-21,3c0,0,-8,3,-12,7c0,0,-4,4,-7,9L326,282L165,16c0,0,-3,-5,-7,-9c0,0,-4,-4,-12,-7c0,0,-8,-2,-20,-3c0,0,-13,-1,-34,-1Z" 
id="f2_cn"
transform="scale(0.001,-0.001)" />

<path d="M218,-6c0,0,-24,0,-39,4c0,0,-15,3,-24,13c0,0,-8,10,-12,27c0,0,-3,16,-3,41c0,0,0,24,3,41c0,0,4,17,12,27c0,0,9,9,24,14c0,0,15,4,39,4c0,0,23,0,38,-4c0,0,15,-5,24,-14c0,0,10,-10,13,-27c0,0,3,-17,3,-41c0,0,0,-25,-3,-41c0,0,-3,-17,-13,-27c0,0,-9,-10,-24,-13c0,0,-15,-4,-38,-4Zm0,518c0,0,-24,0,-39,4c0,0,-15,5,-24,15c0,0,-8,10,-12,26c0,0,-3,16,-3,40c0,0,0,26,3,42c0,0,4,17,12,27c0,0,9,10,24,14c0,0,15,4,39,4c0,0,23,0,38,-4c0,0,15,-4,24,-14c0,0,10,-10,13,-27c0,0,3,-16,3,-42c0,0,0,-24,-3,-40c0,0,-3,-16,-13,-26c0,0,-9,-10,-24,-15c0,0,-15,-4,-38,-4Z" 
id="f2_ns"
transform="scale(0.001,-0.001)" />

<path d="M142,0c0,0,-6,0,-12,4c0,0,-5,3,-9,12c0,0,-4,9,-6,23c0,0,-3,15,-3,36c0,0,0,21,2,36c0,0,2,14,6,23c0,0,4,9,10,13c0,0,5,5,12,5H322V779L166,693c0,0,-17,-8,-28,-10c0,0,-1,0,-3,0c-4,0,-10,1,-14,5c0,0,-6,6,-8,22c0,0,-2,15,-2,44c0,0,0,18,0,29c0,0,1,12,4,20c0,0,3,8,8,14c0,0,5,5,14,11L345,962c0,0,4,3,9,5c0,0,6,2,15,3c0,0,9,1,23,2c0,0,15,0,38,0c0,0,28,0,46,-1c0,0,17,-1,26,-4c0,0,9,-3,12,-7c0,0,3,-4,3,-11V152H675c0,0,7,0,12,-5c0,0,6,-4,10,-13c0,0,4,-9,6,-23c0,0,2,-15,2,-36c0,0,0,-21,-2,-36c0,0,-3,-14,-7,-23c0,0,-4,-9,-9,-12c0,0,-5,-4,-12,-4Z" 
id="f0_ry"
transform="scale(0.001,-0.001)" />

<path d="M321,-256c0,0,-13,0,-23,1c0,0,-10,0,-17,3c0,0,-7,2,-11,5c0,0,-5,3,-7,7c0,0,-40,76,-71,154c0,0,-31,78,-51,157c0,0,-21,81,-32,163c0,0,-10,83,-10,167c0,0,0,84,11,166c0,0,12,82,33,163c0,0,21,81,52,160c0,0,31,78,69,155c0,0,0,3,4,5c0,0,3,2,9,4c0,0,6,3,16,4c0,0,11,1,27,1c0,0,17,0,28,-2c0,0,10,-3,16,-6c0,0,6,-4,7,-10c0,0,1,-6,-2,-13c0,0,-71,-150,-106,-307c0,0,-34,-158,-34,-318c0,0,0,-160,35,-318c0,0,35,-156,103,-308c0,0,4,-9,4,-15c0,0,1,-6,-4,-10c0,0,-6,-4,-16,-6c0,0,-11,-2,-30,-2Z" 
id="f2_ov"
transform="scale(0.001,-0.001)" />

<path d="M142,-256c0,0,-19,0,-30,2c0,0,-11,2,-16,6c0,0,-5,4,-4,10c0,0,0,6,4,15c0,0,69,151,104,308c0,0,35,158,35,318c0,0,0,160,-35,318c0,0,-35,157,-106,307c0,0,-3,7,-2,13c0,0,1,6,7,10c0,0,6,3,16,6c0,0,11,2,28,2c0,0,16,0,26,-1c0,0,10,-1,17,-4c0,0,6,-2,9,-4c0,0,3,-2,5,-5c0,0,76,-153,120,-315c0,0,44,-161,44,-329c0,0,0,-84,-11,-167c0,0,-10,-82,-31,-163c0,0,-21,-79,-51,-157c0,0,-30,-78,-71,-154c0,0,-2,-4,-6,-7c0,0,-5,-3,-12,-5c0,0,-7,-3,-17,-3c0,0,-9,-1,-23,-1Z" 
id="f2_ow"
transform="scale(0.001,-0.001)" />

<path d="M494,385V878L152,385ZM494,0V262H20V385l498,708H628V385H775V262H628V0Z" 
id="f4_o"
transform="scale(0.001,-0.001)" />


</defs>
</svg>