<?xml version="1.0" encoding="UTF-8" standalone="no"?>
<!DOCTYPE svg PUBLIC "-//W3C//DTD SVG 1.1//EN"
"http://www.w3.org/Graphics/SVG/1.1/DTD/svg11.dtd">
<svg viewBox="0 0 909 1286" version="1.1" xmlns="http://www.w3.org/2000/svg" xmlns:xlink="http://www.w3.org/1999/xlink">
<defs>
</defs>
<g fill="#000000" >
<use xlink:href="#f0_3d" transform="matrix(11,0,0,11,82.5,71.9)" />
<use xlink:href="#f1_2t" transform="matrix(11,0,0,11,110,71.9)" />
<use xlink:href="#f1_9n" transform="matrix(11,0,0,11,118.1,71.9)" />
<use xlink:href="#f1_7z" transform="matrix(11,0,0,11,126.9,71.9)" />
<use xlink:href="#f1_77" transform="matrix(11,0,0,11,139,71.9)" />
<use xlink:href="#f1_ch" transform="matrix(11,0,0,11,147.1,71.9)" />
<use xlink:href="#f1_7z" transform="matrix(11,0,0,11,154.8,71.9)" />
<use xlink:href="#f1_b1" transform="matrix(11,0,0,11,163.2,71.9)" />
<use xlink:href="#f1_77" transform="matrix(11,0,0,11,169,71.9)" />
<use xlink:href="#f1_9d" transform="matrix(11,0,0,11,177.1,71.9)" />
<use xlink:href="#f1_7z" transform="matrix(11,0,0,11,185.2,71.9)" />
<use xlink:href="#f1_ay" transform="matrix(11,0,0,11,197.3,71.9)" />
<use xlink:href="#f1_b1" transform="matrix(11,0,0,11,206.1,71.9)" />
<use xlink:href="#f1_9q" transform="matrix(11,0,0,11,212,71.9)" />
<use xlink:href="#f1_7l" transform="matrix(11,0,0,11,215.9,71.9)" />
<use xlink:href="#f1_7z" transform="matrix(11,0,0,11,222.9,71.9)" />
<use xlink:href="#f1_bf" transform="matrix(11,0,0,11,235,71.9)" />
<use xlink:href="#f1_77" transform="matrix(11,0,0,11,240.5,71.9)" />
<use xlink:href="#f1_9d" transform="matrix(11,0,0,11,248.6,71.9)" />
<use xlink:href="#f1_am" transform="matrix(11,0,0,11,260.3,71.9)" />
<use xlink:href="#f1_89" transform="matrix(11,0,0,11,269.1,71.9)" />
<use xlink:href="#f1_bf" transform="matrix(11,0,0,11,278,71.9)" />
<use xlink:href="#f1_9n" transform="matrix(11,0,0,11,283.5,71.9)" />
<use xlink:href="#f1_7z" transform="matrix(11,0,0,11,292.3,71.9)" />
<use xlink:href="#f1_b5" transform="matrix(11,0,0,11,300.7,71.9)" />
<use xlink:href="#f1_7z" transform="matrix(11,0,0,11,307.3,71.9)" />
<use xlink:href="#f1_7z" transform="matrix(11,0,0,11,319.4,71.9)" />
<use xlink:href="#f1_7l" transform="matrix(11,0,0,11,327.8,71.9)" />
<use xlink:href="#f1_am" transform="matrix(11,0,0,11,334.8,71.9)" />
<use xlink:href="#f1_b5" transform="matrix(11,0,0,11,343.7,71.9)" />
<use xlink:href="#f1_co" transform="matrix(11,0,0,11,350.2,71.9)" />
<use xlink:href="#f1_b5" transform="matrix(11,0,0,11,357.9,71.9)" />
<use xlink:href="#f1_bf" transform="matrix(11,0,0,11,364.5,71.9)" />
<use xlink:href="#f1_7z" transform="matrix(11,0,0,11,370,71.9)" />
<use xlink:href="#f1_ae" transform="matrix(11,0,0,11,378.4,71.9)" />
<use xlink:href="#f1_b5" transform="matrix(11,0,0,11,395.7,71.9)" />
<use xlink:href="#f1_7z" transform="matrix(11,0,0,11,402.3,71.9)" />
<use xlink:href="#f1_b1" transform="matrix(11,0,0,11,410.7,71.9)" />
<use xlink:href="#f1_ch" transform="matrix(11,0,0,11,416.5,71.9)" />
<use xlink:href="#f1_9q" transform="matrix(11,0,0,11,424.3,71.9)" />
<use xlink:href="#f1_7l" transform="matrix(11,0,0,11,428.3,71.9)" />
<use xlink:href="#f1_7z" transform="matrix(11,0,0,11,435.2,71.9)" />
<use xlink:href="#f1_b5" transform="matrix(11,0,0,11,443.6,71.9)" />
<use xlink:href="#f1_77" transform="matrix(11,0,0,11,453.9,71.9)" />
<use xlink:href="#f1_b1" transform="matrix(11,0,0,11,462,71.9)" />
<use xlink:href="#f1_7z" transform="matrix(11,0,0,11,467.9,71.9)" />
<use xlink:href="#f1_7z" transform="matrix(11,0,0,11,480,71.9)" />
<use xlink:href="#f1_b5" transform="matrix(11,0,0,11,488.4,71.9)" />
<use xlink:href="#f1_bf" transform="matrix(11,0,0,11,495,71.9)" />
<use xlink:href="#f1_9q" transform="matrix(11,0,0,11,500.5,71.9)" />
<use xlink:href="#f1_ae" transform="matrix(11,0,0,11,504.5,71.9)" />
<use xlink:href="#f1_77" transform="matrix(11,0,0,11,518.1,71.9)" />
<use xlink:href="#f1_bf" transform="matrix(11,0,0,11,526.1,71.9)" />
<use xlink:href="#f1_7z" transform="matrix(11,0,0,11,531.6,71.9)" />
<use xlink:href="#f1_7v" transform="matrix(11,0,0,11,540,71.9)" />
<use xlink:href="#f1_bf" transform="matrix(11,0,0,11,552.5,71.9)" />
<use xlink:href="#f1_am" transform="matrix(11,0,0,11,558,71.9)" />
<use xlink:href="#f1_7k" transform="matrix(11,0,0,11,570.5,71.9)" />
<use xlink:href="#f1_7z" transform="matrix(11,0,0,11,579.3,71.9)" />
<use xlink:href="#f1_2x" transform="matrix(11,0,0,11,591.6,71.9)" />
<use xlink:href="#f1_2n" transform="matrix(11,0,0,11,602.6,71.9)" />
<use xlink:href="#f1_q1" transform="matrix(11,0,0,11,614,71.9)" />
<use xlink:href="#f1_s0" transform="matrix(11,0,0,11,626.1,71.9)" />
<use xlink:href="#f1_s0" transform="matrix(11,0,0,11,634.9,71.9)" />
<use xlink:href="#f1_bf" transform="matrix(11,0,0,11,647,71.9)" />
<use xlink:href="#f1_b1" transform="matrix(11,0,0,11,652.5,71.9)" />
<use xlink:href="#f1_9q" transform="matrix(11,0,0,11,658.4,71.9)" />
<use xlink:href="#f1_a8" transform="matrix(11,0,0,11,662.4,71.9)" />
<use xlink:href="#f1_a8" transform="matrix(11,0,0,11,666.4,71.9)" />
<use xlink:href="#f1_9q" transform="matrix(11,0,0,11,670.4,71.9)" />
<use xlink:href="#f1_am" transform="matrix(11,0,0,11,674.4,71.9)" />
<use xlink:href="#f1_af" transform="matrix(11,0,0,11,683.2,71.9)" />
<use xlink:href="#f1_77" transform="matrix(11,0,0,11,695.8,71.9)" />
<use xlink:href="#f1_af" transform="matrix(11,0,0,11,703.9,71.9)" />
<use xlink:href="#f1_af" transform="matrix(11,0,0,11,712.7,71.9)" />
<use xlink:href="#f1_c6" transform="matrix(11,0,0,11,721.5,71.9)" />
<use xlink:href="#f1_77" transform="matrix(11,0,0,11,730.3,71.9)" />
<use xlink:href="#f1_a8" transform="matrix(11,0,0,11,738.4,71.9)" />
<use xlink:href="#f1_a8" transform="matrix(11,0,0,11,742.4,71.9)" />
<use xlink:href="#f1_co" transform="matrix(11,0,0,11,746.4,71.9)" />
<use xlink:href="#f1_nt" transform="matrix(11,0,0,11,754.1,71.9)" />
<use xlink:href="#f0_3d" transform="matrix(11,0,0,11,82.5,93.2)" />
<use xlink:href="#f1_2t" transform="matrix(11,0,0,11,110,93.2)" />
<use xlink:href="#f1_9n" transform="matrix(11,0,0,11,118.1,93.2)" />
<use xlink:href="#f1_9q" transform="matrix(11,0,0,11,126.9,93.2)" />
<use xlink:href="#f1_b5" transform="matrix(11,0,0,11,130.9,93.2)" />
<use xlink:href="#f1_9q" transform="matrix(11,0,0,11,141.2,93.2)" />
<use xlink:href="#f1_b5" transform="matrix(11,0,0,11,145.2,93.2)" />
<use xlink:href="#f1_af" transform="matrix(11,0,0,11,155.5,93.2)" />
<use xlink:href="#f1_7z" transform="matrix(11,0,0,11,164.3,93.2)" />
<use xlink:href="#f1_77" transform="matrix(11,0,0,11,172.7,93.2)" />
<use xlink:href="#f1_b1" transform="matrix(11,0,0,11,180.8,93.2)" />
<use xlink:href="#f1_a8" transform="matrix(11,0,0,11,186.6,93.2)" />
<use xlink:href="#f1_co" transform="matrix(11,0,0,11,190.7,93.2)" />
<use xlink:href="#f1_bf" transform="matrix(11,0,0,11,202,93.2)" />
<use xlink:href="#f1_ci" transform="matrix(11,0,0,11,207.5,93.2)" />
<use xlink:href="#f1_9q" transform="matrix(11,0,0,11,219.6,93.2)" />
<use xlink:href="#f1_7l" transform="matrix(11,0,0,11,223.6,93.2)" />
<use xlink:href="#f1_7z" transform="matrix(11,0,0,11,230.6,93.2)" />
<use xlink:href="#f1_bf" transform="matrix(11,0,0,11,242.7,93.2)" />
<use xlink:href="#f1_9n" transform="matrix(11,0,0,11,248.2,93.2)" />
<use xlink:href="#f1_7z" transform="matrix(11,0,0,11,257,93.2)" />
<use xlink:href="#f1_ch" transform="matrix(11,0,0,11,269.1,93.2)" />
<use xlink:href="#f1_77" transform="matrix(11,0,0,11,276.8,93.2)" />
<use xlink:href="#f1_a8" transform="matrix(11,0,0,11,284.9,93.2)" />
<use xlink:href="#f1_c6" transform="matrix(11,0,0,11,288.9,93.2)" />
<use xlink:href="#f1_7z" transform="matrix(11,0,0,11,297.7,93.2)" />
<use xlink:href="#f1_am" transform="matrix(11,0,0,11,309.8,93.2)" />
<use xlink:href="#f1_89" transform="matrix(11,0,0,11,318.6,93.2)" />
<use xlink:href="#f1_bf" transform="matrix(11,0,0,11,327.4,93.2)" />
<use xlink:href="#f1_9n" transform="matrix(11,0,0,11,332.9,93.2)" />
<use xlink:href="#f1_7z" transform="matrix(11,0,0,11,341.7,93.2)" />
<use xlink:href="#f1_9d" transform="matrix(11,0,0,11,353.8,93.2)" />
<use xlink:href="#f1_a8" transform="matrix(11,0,0,11,361.8,93.2)" />
<use xlink:href="#f1_am" transform="matrix(11,0,0,11,365.8,93.2)" />
<use xlink:href="#f1_7k" transform="matrix(11,0,0,11,374.6,93.2)" />
<use xlink:href="#f1_77" transform="matrix(11,0,0,11,383.4,93.2)" />
<use xlink:href="#f1_a8" transform="matrix(11,0,0,11,391.5,93.2)" />
<use xlink:href="#f1_9d" transform="matrix(11,0,0,11,399.2,93.2)" />
<use xlink:href="#f1_b1" transform="matrix(11,0,0,11,407.2,93.2)" />
<use xlink:href="#f1_am" transform="matrix(11,0,0,11,413.1,93.2)" />
<use xlink:href="#f1_b5" transform="matrix(11,0,0,11,421.9,93.2)" />
<use xlink:href="#f1_b5" transform="matrix(11,0,0,11,428.5,93.2)" />
<use xlink:href="#f1_af" transform="matrix(11,0,0,11,438.8,93.2)" />
<use xlink:href="#f1_77" transform="matrix(11,0,0,11,447.6,93.2)" />
<use xlink:href="#f1_bf" transform="matrix(11,0,0,11,455.6,93.2)" />
<use xlink:href="#f1_9q" transform="matrix(11,0,0,11,461.1,93.2)" />
<use xlink:href="#f1_am" transform="matrix(11,0,0,11,465.1,93.2)" />
<use xlink:href="#f1_af" transform="matrix(11,0,0,11,473.9,93.2)" />
<use xlink:href="#f1_77" transform="matrix(11,0,0,11,482.7,93.2)" />
<use xlink:href="#f1_a8" transform="matrix(11,0,0,11,490.8,93.2)" />
<use xlink:href="#f1_ay" transform="matrix(11,0,0,11,498.5,93.2)" />
<use xlink:href="#f1_b1" transform="matrix(11,0,0,11,507.3,93.2)" />
<use xlink:href="#f1_am" transform="matrix(11,0,0,11,513.2,93.2)" />
<use xlink:href="#f1_7v" transform="matrix(11,0,0,11,522,93.2)" />
<use xlink:href="#f1_c6" transform="matrix(11,0,0,11,530.8,93.2)" />
<use xlink:href="#f1_7l" transform="matrix(11,0,0,11,539.6,93.2)" />
<use xlink:href="#f1_bf" transform="matrix(11,0,0,11,546.5,93.2)" />
<use xlink:href="#f1_14" transform="matrix(11,0,0,11,555.7,93.2)" />
<use xlink:href="#f1_1y" transform="matrix(11,0,0,11,566.3,93.2)" />
<use xlink:href="#f1_2g" transform="matrix(11,0,0,11,577.3,93.2)" />
<use xlink:href="#f1_ov" transform="matrix(11,0,0,11,589.8,93.2)" />
<use xlink:href="#f1_2x" transform="matrix(11,0,0,11,594.9,93.2)" />
<use xlink:href="#f1_2n" transform="matrix(11,0,0,11,605.9,93.2)" />
<use xlink:href="#f1_q1" transform="matrix(11,0,0,11,617.3,93.2)" />
<use xlink:href="#f1_ry" transform="matrix(11,0,0,11,629.3,93.2)" />
<use xlink:href="#f1_s5" transform="matrix(11,0,0,11,638.1,93.2)" />
<use xlink:href="#f1_bf" transform="matrix(11,0,0,11,650.2,93.2)" />
<use xlink:href="#f1_b1" transform="matrix(11,0,0,11,655.7,93.2)" />
<use xlink:href="#f1_9q" transform="matrix(11,0,0,11,661.6,93.2)" />
<use xlink:href="#f1_a8" transform="matrix(11,0,0,11,665.6,93.2)" />
<use xlink:href="#f1_a8" transform="matrix(11,0,0,11,669.6,93.2)" />
<use xlink:href="#f1_9q" transform="matrix(11,0,0,11,673.6,93.2)" />
<use xlink:href="#f1_am" transform="matrix(11,0,0,11,677.7,93.2)" />
<use xlink:href="#f1_af" transform="matrix(11,0,0,11,686.5,93.2)" />
<use xlink:href="#f1_ow" transform="matrix(11,0,0,11,695.3,93.2)" />
<use xlink:href="#f1_nt" transform="matrix(11,0,0,11,701,93.2)" />
<use xlink:href="#f0_3d" transform="matrix(11,0,0,11,82.5,114.8)" />
<use xlink:href="#f1_24" transform="matrix(11,0,0,11,110,114.8)" />
<use xlink:href="#f1_c6" transform="matrix(11,0,0,11,121,114.8)" />
<use xlink:href="#f1_bf" transform="matrix(11,0,0,11,129.8,114.8)" />
<use xlink:href="#f1_am" transform="matrix(11,0,0,11,139,114.8)" />
<use xlink:href="#f1_89" transform="matrix(11,0,0,11,147.8,114.8)" />
<use xlink:href="#f1_bf" transform="matrix(11,0,0,11,156.9,114.8)" />
<use xlink:href="#f1_9n" transform="matrix(11,0,0,11,162.4,114.8)" />
<use xlink:href="#f1_7z" transform="matrix(11,0,0,11,171.2,114.8)" />
<use xlink:href="#f1_bf" transform="matrix(11,0,0,11,183.7,114.8)" />
<use xlink:href="#f1_am" transform="matrix(11,0,0,11,189.2,114.8)" />
<use xlink:href="#f1_bf" transform="matrix(11,0,0,11,198,114.8)" />
<use xlink:href="#f1_77" transform="matrix(11,0,0,11,203.5,114.8)" />
<use xlink:href="#f1_a8" transform="matrix(11,0,0,11,211.6,114.8)" />
<use xlink:href="#f1_7l" transform="matrix(11,0,0,11,219.2,114.8)" />
<use xlink:href="#f1_am" transform="matrix(11,0,0,11,226.2,114.8)" />
<use xlink:href="#f1_b5" transform="matrix(11,0,0,11,235,114.8)" />
<use xlink:href="#f1_bf" transform="matrix(11,0,0,11,242,114.8)" />
<use xlink:href="#f1_am" transform="matrix(11,0,0,11,251.3,114.8)" />
<use xlink:href="#f1_89" transform="matrix(11,0,0,11,260.1,114.8)" />
<use xlink:href="#f1_ch" transform="matrix(11,0,0,11,269.2,114.8)" />
<use xlink:href="#f1_77" transform="matrix(11,0,0,11,276.9,114.8)" />
<use xlink:href="#f1_b1" transform="matrix(11,0,0,11,285,114.8)" />
<use xlink:href="#f1_9q" transform="matrix(11,0,0,11,290.9,114.8)" />
<use xlink:href="#f1_am" transform="matrix(11,0,0,11,294.9,114.8)" />
<use xlink:href="#f1_c6" transform="matrix(11,0,0,11,303.7,114.8)" />
<use xlink:href="#f1_b5" transform="matrix(11,0,0,11,312.5,114.8)" />
<use xlink:href="#f1_7z" transform="matrix(11,0,0,11,322.7,114.8)" />
<use xlink:href="#f1_7l" transform="matrix(11,0,0,11,331.1,114.8)" />
<use xlink:href="#f1_am" transform="matrix(11,0,0,11,338.1,114.8)" />
<use xlink:href="#f1_b5" transform="matrix(11,0,0,11,346.9,114.8)" />
<use xlink:href="#f1_co" transform="matrix(11,0,0,11,353.5,114.8)" />
<use xlink:href="#f1_b5" transform="matrix(11,0,0,11,361.2,114.8)" />
<use xlink:href="#f1_bf" transform="matrix(11,0,0,11,367.8,114.8)" />
<use xlink:href="#f1_7z" transform="matrix(11,0,0,11,373.3,114.8)" />
<use xlink:href="#f1_ae" transform="matrix(11,0,0,11,381.7,114.8)" />
<use xlink:href="#f1_b5" transform="matrix(11,0,0,11,399,114.8)" />
<use xlink:href="#f1_7z" transform="matrix(11,0,0,11,405.6,114.8)" />
<use xlink:href="#f1_b1" transform="matrix(11,0,0,11,414,114.8)" />
<use xlink:href="#f1_ch" transform="matrix(11,0,0,11,419.8,114.8)" />
<use xlink:href="#f1_9q" transform="matrix(11,0,0,11,427.5,114.8)" />
<use xlink:href="#f1_7l" transform="matrix(11,0,0,11,431.6,114.8)" />
<use xlink:href="#f1_7z" transform="matrix(11,0,0,11,438.5,114.8)" />
<use xlink:href="#f1_b5" transform="matrix(11,0,0,11,446.9,114.8)" />
<use xlink:href="#f1_ns" transform="matrix(11,0,0,11,453.8,114.8)" />
<use xlink:href="#f2_5b" transform="matrix(11,0,0,11,140.8,135.3)" />
<use xlink:href="#f1_2n" transform="matrix(11,0,0,11,168.4,135.3)" />
<use xlink:href="#f1_am" transform="matrix(11,0,0,11,176.1,135.3)" />
<use xlink:href="#f1_9q" transform="matrix(11,0,0,11,184.9,135.3)" />
<use xlink:href="#f1_a8" transform="matrix(11,0,0,11,188.9,135.3)" />
<use xlink:href="#f1_89" transform="matrix(11,0,0,11,196.6,135.3)" />
<use xlink:href="#f1_am" transform="matrix(11,0,0,11,201.7,135.3)" />
<use xlink:href="#f1_b1" transform="matrix(11,0,0,11,210.5,135.3)" />
<use xlink:href="#f1_ae" transform="matrix(11,0,0,11,216.4,135.3)" />
<use xlink:href="#f1_77" transform="matrix(11,0,0,11,229.9,135.3)" />
<use xlink:href="#f1_bf" transform="matrix(11,0,0,11,238,135.3)" />
<use xlink:href="#f1_9q" transform="matrix(11,0,0,11,243.5,135.3)" />
<use xlink:href="#f1_am" transform="matrix(11,0,0,11,247.5,135.3)" />
<use xlink:href="#f1_af" transform="matrix(11,0,0,11,256.3,135.3)" />
<use xlink:href="#f1_77" transform="matrix(11,0,0,11,268.9,135.3)" />
<use xlink:href="#f1_7l" transform="matrix(11,0,0,11,277,135.3)" />
<use xlink:href="#f1_7l" transform="matrix(11,0,0,11,283.9,135.3)" />
<use xlink:href="#f1_am" transform="matrix(11,0,0,11,290.9,135.3)" />
<use xlink:href="#f1_c6" transform="matrix(11,0,0,11,299.7,135.3)" />
<use xlink:href="#f1_af" transform="matrix(11,0,0,11,308.5,135.3)" />
<use xlink:href="#f1_bf" transform="matrix(11,0,0,11,317.3,135.3)" />
<use xlink:href="#f1_b5" transform="matrix(11,0,0,11,322.8,135.3)" />
<use xlink:href="#f1_89" transform="matrix(11,0,0,11,333.1,135.3)" />
<use xlink:href="#f1_am" transform="matrix(11,0,0,11,338.5,135.3)" />
<use xlink:href="#f1_b1" transform="matrix(11,0,0,11,347.3,135.3)" />
<use xlink:href="#f1_77" transform="matrix(11,0,0,11,356.9,135.3)" />
<use xlink:href="#f1_7k" transform="matrix(11,0,0,11,364.9,135.3)" />
<use xlink:href="#f1_am" transform="matrix(11,0,0,11,373.7,135.3)" />
<use xlink:href="#f1_c6" transform="matrix(11,0,0,11,382.5,135.3)" />
<use xlink:href="#f1_bf" transform="matrix(11,0,0,11,391.7,135.3)" />
<use xlink:href="#f1_s2" transform="matrix(11,0,0,11,400.8,135.3)" />
<use xlink:href="#f1_rx" transform="matrix(11,0,0,11,409.3,135.3)" />
<use xlink:href="#f1_ay" transform="matrix(11,0,0,11,421.7,135.3)" />
<use xlink:href="#f1_7z" transform="matrix(11,0,0,11,430.5,135.3)" />
<use xlink:href="#f1_b1" transform="matrix(11,0,0,11,438.9,135.3)" />
<use xlink:href="#f1_7l" transform="matrix(11,0,0,11,448.5,135.3)" />
<use xlink:href="#f1_7z" transform="matrix(11,0,0,11,455.5,135.3)" />
<use xlink:href="#f1_af" transform="matrix(11,0,0,11,463.9,135.3)" />
<use xlink:href="#f1_bf" transform="matrix(11,0,0,11,473,135.3)" />
<use xlink:href="#f2_5b" transform="matrix(11,0,0,11,140.8,155.9)" />
<use xlink:href="#f1_2j" transform="matrix(11,0,0,11,168.4,155.9)" />
<use xlink:href="#f1_7z" transform="matrix(11,0,0,11,177.5,155.9)" />
<use xlink:href="#f1_7l" transform="matrix(11,0,0,11,185.9,155.9)" />
<use xlink:href="#f1_b1" transform="matrix(11,0,0,11,192.9,155.9)" />
<use xlink:href="#f1_7z" transform="matrix(11,0,0,11,198.8,155.9)" />
<use xlink:href="#f1_77" transform="matrix(11,0,0,11,207.2,155.9)" />
<use xlink:href="#f1_bf" transform="matrix(11,0,0,11,215.3,155.9)" />
<use xlink:href="#f1_9q" transform="matrix(11,0,0,11,220.8,155.9)" />
<use xlink:href="#f1_am" transform="matrix(11,0,0,11,224.8,155.9)" />
<use xlink:href="#f1_af" transform="matrix(11,0,0,11,233.6,155.9)" />
<use xlink:href="#f1_89" transform="matrix(11,0,0,11,246.1,155.9)" />
<use xlink:href="#f1_am" transform="matrix(11,0,0,11,251.3,155.9)" />
<use xlink:href="#f1_b1" transform="matrix(11,0,0,11,260.1,155.9)" />
<use xlink:href="#f1_77" transform="matrix(11,0,0,11,269.6,155.9)" />
<use xlink:href="#f1_7k" transform="matrix(11,0,0,11,277.7,155.9)" />
<use xlink:href="#f1_am" transform="matrix(11,0,0,11,286.5,155.9)" />
<use xlink:href="#f1_c6" transform="matrix(11,0,0,11,295.3,155.9)" />
<use xlink:href="#f1_bf" transform="matrix(11,0,0,11,304.1,155.9)" />
<use xlink:href="#f1_ry" transform="matrix(11,0,0,11,313.6,155.9)" />
<use xlink:href="#f1_rx" transform="matrix(11,0,0,11,322,155.9)" />
<use xlink:href="#f1_ay" transform="matrix(11,0,0,11,334.5,155.9)" />
<use xlink:href="#f1_7z" transform="matrix(11,0,0,11,343.3,155.9)" />
<use xlink:href="#f1_b1" transform="matrix(11,0,0,11,351.7,155.9)" />
<use xlink:href="#f1_7l" transform="matrix(11,0,0,11,357.6,155.9)" />
<use xlink:href="#f1_7z" transform="matrix(11,0,0,11,364.5,155.9)" />
<use xlink:href="#f1_af" transform="matrix(11,0,0,11,372.9,155.9)" />
<use xlink:href="#f1_bf" transform="matrix(11,0,0,11,381.8,155.9)" />
<use xlink:href="#f2_5b" transform="matrix(11,0,0,11,140.8,176.4)" />
<use xlink:href="#f1_1y" transform="matrix(11,0,0,11,168.4,176.4)" />
<use xlink:href="#f1_c6" transform="matrix(11,0,0,11,179.4,176.4)" />
<use xlink:href="#f1_bf" transform="matrix(11,0,0,11,188.2,176.4)" />
<use xlink:href="#f1_b1" transform="matrix(11,0,0,11,193.7,176.4)" />
<use xlink:href="#f1_9q" transform="matrix(11,0,0,11,199.5,176.4)" />
<use xlink:href="#f1_7z" transform="matrix(11,0,0,11,203.5,176.4)" />
<use xlink:href="#f1_af" transform="matrix(11,0,0,11,211.9,176.4)" />
<use xlink:href="#f1_bf" transform="matrix(11,0,0,11,220.8,176.4)" />
<use xlink:href="#f1_7l" transform="matrix(11,0,0,11,229.9,176.4)" />
<use xlink:href="#f1_co" transform="matrix(11,0,0,11,236.9,176.4)" />
<use xlink:href="#f1_7l" transform="matrix(11,0,0,11,244.6,176.4)" />
<use xlink:href="#f1_a8" transform="matrix(11,0,0,11,251.6,176.4)" />
<use xlink:href="#f1_9q" transform="matrix(11,0,0,11,255.6,176.4)" />
<use xlink:href="#f1_af" transform="matrix(11,0,0,11,259.6,176.4)" />
<use xlink:href="#f1_9d" transform="matrix(11,0,0,11,268.4,176.4)" />
<use xlink:href="#f1_77" transform="matrix(11,0,0,11,280.2,176.4)" />
<use xlink:href="#f1_7k" transform="matrix(11,0,0,11,288.3,176.4)" />
<use xlink:href="#f1_am" transform="matrix(11,0,0,11,297.1,176.4)" />
<use xlink:href="#f1_c6" transform="matrix(11,0,0,11,305.9,176.4)" />
<use xlink:href="#f1_bf" transform="matrix(11,0,0,11,314.7,176.4)" />
<use xlink:href="#f1_ry" transform="matrix(11,0,0,11,323.9,176.4)" />
<use xlink:href="#f1_rx" transform="matrix(11,0,0,11,332.3,176.4)" />
<use xlink:href="#f1_ay" transform="matrix(11,0,0,11,344.4,176.4)" />
<use xlink:href="#f1_7z" transform="matrix(11,0,0,11,353.2,176.4)" />
<use xlink:href="#f1_b1" transform="matrix(11,0,0,11,361.6,176.4)" />
<use xlink:href="#f1_7l" transform="matrix(11,0,0,11,371.5,176.4)" />
<use xlink:href="#f1_7z" transform="matrix(11,0,0,11,378.5,176.4)" />
<use xlink:href="#f1_af" transform="matrix(11,0,0,11,386.9,176.4)" />
<use xlink:href="#f1_bf" transform="matrix(11,0,0,11,395.7,176.4)" />
<use xlink:href="#f1_nt" transform="matrix(11,0,0,11,401.2,176.4)" />
<use xlink:href="#f2_5b" transform="matrix(11,0,0,11,140.8,196.9)" />
<use xlink:href="#f1_2t" transform="matrix(11,0,0,11,168.4,196.9)" />
<use xlink:href="#f1_9n" transform="matrix(11,0,0,11,176.4,196.9)" />
<use xlink:href="#f1_7z" transform="matrix(11,0,0,11,185.2,196.9)" />
<use xlink:href="#f1_7l" transform="matrix(11,0,0,11,197.3,196.9)" />
<use xlink:href="#f1_am" transform="matrix(11,0,0,11,204.3,196.9)" />
<use xlink:href="#f1_b5" transform="matrix(11,0,0,11,213.1,196.9)" />
<use xlink:href="#f1_bf" transform="matrix(11,0,0,11,219.7,196.9)" />
<use xlink:href="#f1_am" transform="matrix(11,0,0,11,229.2,196.9)" />
<use xlink:href="#f1_89" transform="matrix(11,0,0,11,238,196.9)" />
<use xlink:href="#f1_7l" transform="matrix(11,0,0,11,247.2,196.9)" />
<use xlink:href="#f1_a8" transform="matrix(11,0,0,11,254.1,196.9)" />
<use xlink:href="#f1_9q" transform="matrix(11,0,0,11,258.1,196.9)" />
<use xlink:href="#f1_ae" transform="matrix(11,0,0,11,262.2,196.9)" />
<use xlink:href="#f1_77" transform="matrix(11,0,0,11,275.7,196.9)" />
<use xlink:href="#f1_bf" transform="matrix(11,0,0,11,283.8,196.9)" />
<use xlink:href="#f1_7z" transform="matrix(11,0,0,11,289.3,196.9)" />
<use xlink:href="#f1_b1" transform="matrix(11,0,0,11,301.4,196.9)" />
<use xlink:href="#f1_7z" transform="matrix(11,0,0,11,307.2,196.9)" />
<use xlink:href="#f1_9d" transform="matrix(11,0,0,11,315.6,196.9)" />
<use xlink:href="#f1_c6" transform="matrix(11,0,0,11,323.7,196.9)" />
<use xlink:href="#f1_a8" transform="matrix(11,0,0,11,332.5,196.9)" />
<use xlink:href="#f1_77" transform="matrix(11,0,0,11,336.5,196.9)" />
<use xlink:href="#f1_bf" transform="matrix(11,0,0,11,344.6,196.9)" />
<use xlink:href="#f1_9q" transform="matrix(11,0,0,11,349.7,196.9)" />
<use xlink:href="#f1_am" transform="matrix(11,0,0,11,353.7,196.9)" />
<use xlink:href="#f1_af" transform="matrix(11,0,0,11,362.5,196.9)" />
<use xlink:href="#f1_77" transform="matrix(11,0,0,11,375,196.9)" />
<use xlink:href="#f1_af" transform="matrix(11,0,0,11,383.1,196.9)" />
<use xlink:href="#f1_7v" transform="matrix(11,0,0,11,391.9,196.9)" />
<use xlink:href="#f1_9n" transform="matrix(11,0,0,11,404.3,196.9)" />
<use xlink:href="#f1_77" transform="matrix(11,0,0,11,413.1,196.9)" />
<use xlink:href="#f1_7k" transform="matrix(11,0,0,11,421.2,196.9)" />
<use xlink:href="#f1_9q" transform="matrix(11,0,0,11,430,196.9)" />
<use xlink:href="#f1_bf" transform="matrix(11,0,0,11,434,196.9)" />
<use xlink:href="#f1_77" transform="matrix(11,0,0,11,439.5,196.9)" />
<use xlink:href="#f1_bf" transform="matrix(11,0,0,11,447.6,196.9)" />
<use xlink:href="#f1_89" transform="matrix(11,0,0,11,456.7,196.9)" />
<use xlink:href="#f1_am" transform="matrix(11,0,0,11,461.9,196.9)" />
<use xlink:href="#f1_b1" transform="matrix(11,0,0,11,470.7,196.9)" />
<use xlink:href="#f1_ci" transform="matrix(11,0,0,11,480.6,196.9)" />
<use xlink:href="#f1_9q" transform="matrix(11,0,0,11,492.6,196.9)" />
<use xlink:href="#f1_a8" transform="matrix(11,0,0,11,496.7,196.9)" />
<use xlink:href="#f1_7v" transform="matrix(11,0,0,11,500.7,196.9)" />
<use xlink:href="#f1_a8" transform="matrix(11,0,0,11,509.5,196.9)" />
<use xlink:href="#f1_9q" transform="matrix(11,0,0,11,513.5,196.9)" />
<use xlink:href="#f1_89" transform="matrix(11,0,0,11,517.5,196.9)" />
<use xlink:href="#f1_7z" transform="matrix(11,0,0,11,522.3,196.9)" />
<use xlink:href="#f1_77" transform="matrix(11,0,0,11,534.4,196.9)" />
<use xlink:href="#f1_b1" transform="matrix(11,0,0,11,542.5,196.9)" />
<use xlink:href="#f1_7z" transform="matrix(11,0,0,11,548.4,196.9)" />
<use xlink:href="#f1_77" transform="matrix(11,0,0,11,560.4,196.9)" />
<use xlink:href="#f1_7k" transform="matrix(11,0,0,11,568.5,196.9)" />
<use xlink:href="#f1_am" transform="matrix(11,0,0,11,577.3,196.9)" />
<use xlink:href="#f1_c6" transform="matrix(11,0,0,11,586.1,196.9)" />
<use xlink:href="#f1_bf" transform="matrix(11,0,0,11,594.9,196.9)" />
<use xlink:href="#f1_s3" transform="matrix(11,0,0,11,604.1,196.9)" />
<use xlink:href="#f1_ay" transform="matrix(11,0,0,11,616.5,196.9)" />
<use xlink:href="#f1_7z" transform="matrix(11,0,0,11,625.3,196.9)" />
<use xlink:href="#f1_b1" transform="matrix(11,0,0,11,633.7,196.9)" />
<use xlink:href="#f1_7l" transform="matrix(11,0,0,11,643.3,196.9)" />
<use xlink:href="#f1_7z" transform="matrix(11,0,0,11,650.2,196.9)" />
<use xlink:href="#f1_af" transform="matrix(11,0,0,11,658.6,196.9)" />
<use xlink:href="#f1_bf" transform="matrix(11,0,0,11,667.8,196.9)" />
<use xlink:href="#f1_7z" transform="matrix(11,0,0,11,677,196.9)" />
<use xlink:href="#f1_77" transform="matrix(11,0,0,11,685.4,196.9)" />
<use xlink:href="#f1_7l" transform="matrix(11,0,0,11,693.5,196.9)" />
<use xlink:href="#f1_9n" transform="matrix(11,0,0,11,700.4,196.9)" />
<use xlink:href="#f3_l" transform="matrix(8,0,0,8,785.7,1264.1)" />
<use xlink:href="#f3_l" transform="matrix(8,0,0,8,792.5,1264.1)" />
</g>
<defs>
<path d="M273,157c0,0,-114,0,-193,80C80,237,0,317,0,431c0,0,0,112,80,192c0,0,79,80,193,80c0,0,113,0,192,-80c0,0,80,-80,80,-192c0,0,0,-114,-80,-194c0,0,-79,-80,-192,-80Z" 
id="f0_3d"
transform="scale(0.001,-0.001)" />

<path d="M372,-4c0,0,-18,0,-30,2c0,0,-13,2,-21,3c0,0,-7,3,-10,8c0,0,-3,4,-3,10V857H36c0,0,-6,0,-11,3c0,0,-5,2,-8,9c0,0,-2,6,-4,17c0,0,-2,10,-2,24c0,0,0,14,2,25c0,0,2,11,4,17c0,0,3,7,8,10c0,0,5,3,11,3H708c0,0,6,0,11,-3c0,0,5,-3,8,-10c0,0,4,-6,5,-17c0,0,2,-11,2,-25c0,0,0,-14,-2,-24c0,0,-1,-11,-5,-17c0,0,-3,-7,-8,-9c0,0,-5,-3,-11,-3H436V19c0,0,0,-6,-3,-10c0,0,-3,-5,-10,-8c0,0,-8,-1,-20,-3c0,0,-12,-2,-31,-2Z" 
id="f1_2t"
transform="scale(0.001,-0.001)" />

<path d="M176,-4c0,0,-18,0,-30,2c0,0,-12,1,-19,3c0,0,-7,3,-10,7c0,0,-3,4,-3,10v997c0,0,0,6,3,11c0,0,3,4,10,7c0,0,7,3,19,5c0,0,12,1,30,1c0,0,18,0,30,-1c0,0,12,-2,19,-5c0,0,7,-3,9,-7c0,0,3,-5,3,-10V614c0,0,53,56,107,83c0,0,54,28,108,28c0,0,67,0,113,-23c0,0,46,-23,74,-61c0,0,29,-38,41,-89c0,0,12,-52,12,-124V18c0,0,0,-6,-3,-10c0,0,-3,-4,-9,-7c0,0,-7,-2,-19,-3c0,0,-12,-2,-30,-2c0,0,-19,0,-30,2c0,0,-12,1,-19,3c0,0,-7,3,-10,7c0,0,-3,4,-3,10V412c0,0,0,58,-9,93c0,0,-9,35,-26,61c0,0,-17,25,-44,38c0,0,-27,14,-63,14c0,0,-46,0,-93,-33c0,0,-46,-33,-97,-96V18c0,0,0,-6,-3,-10c0,0,-2,-4,-9,-7c0,0,-7,-2,-19,-3c0,0,-12,-2,-30,-2Z" 
id="f1_9n"
transform="scale(0.001,-0.001)" />

<path d="M564,420c0,0,2,98,-43,153c0,0,-46,56,-134,56c0,0,-46,0,-80,-18c0,0,-35,-17,-58,-45c0,0,-23,-29,-36,-67c0,0,-12,-37,-14,-79ZM405,-13c0,0,-83,0,-145,22c0,0,-62,24,-105,69c0,0,-42,46,-64,114c0,0,-22,69,-22,160c0,0,0,87,23,156c0,0,22,69,64,117c0,0,43,48,102,74c0,0,60,26,134,26c0,0,79,0,135,-26c0,0,55,-25,91,-68c0,0,36,-43,53,-101c0,0,16,-58,16,-123V384c0,0,0,-29,-14,-41c0,0,-15,-13,-33,-13H199c0,0,0,-56,11,-100c0,0,12,-45,38,-77c0,0,26,-33,68,-50c0,0,41,-17,102,-17c0,0,48,0,85,8c0,0,37,8,65,17c0,0,27,10,44,18c0,0,18,8,27,8c0,0,5,0,9,-3c0,0,4,-2,7,-8c0,0,2,-5,3,-14c0,0,1,-9,1,-23c0,0,0,-9,-1,-16c0,0,0,-8,-2,-13c0,0,-1,-6,-3,-10c0,0,-3,-5,-7,-9c0,0,-4,-4,-24,-13c0,0,-20,-10,-53,-18c0,0,-32,-9,-74,-16c0,0,-42,-7,-90,-7Z" 
id="f1_7z"
transform="scale(0.001,-0.001)" />

<path d="M321,82c0,0,48,0,90,25c0,0,41,24,87,75V325H392c0,0,-50,0,-88,-9c0,0,-37,-9,-62,-25c0,0,-24,-17,-36,-41c0,0,-11,-23,-11,-54c0,0,0,-52,33,-83c0,0,33,-31,93,-31ZM301,-13c0,0,-53,0,-96,13c0,0,-43,14,-73,40c0,0,-30,26,-47,64c0,0,-17,38,-17,87c0,0,0,56,24,98c0,0,23,42,66,69c0,0,43,28,106,42c0,0,63,14,141,14h93v52c0,0,0,39,-9,69c0,0,-8,30,-26,50c0,0,-18,20,-47,30c0,0,-30,10,-72,10c0,0,-46,0,-82,-11c0,0,-36,-11,-63,-24c0,0,-27,-13,-46,-24c0,0,-18,-11,-27,-11c0,0,-6,0,-10,3c0,0,-5,3,-8,9c0,0,-3,6,-5,16c0,0,-1,9,-1,20c0,0,0,19,2,30c0,0,3,11,13,20c0,0,10,10,35,23c0,0,24,13,56,24c0,0,32,10,70,17c0,0,38,8,77,8c0,0,73,0,123,-17c0,0,51,-16,82,-48c0,0,32,-32,46,-79c0,0,14,-47,14,-110V18c0,0,0,-9,-6,-14c0,0,-6,-4,-16,-6c0,0,-11,-2,-31,-2c0,0,-19,0,-31,2c0,0,-12,2,-17,6c0,0,-5,5,-5,13V85c0,0,-44,-47,-98,-73c0,0,-54,-25,-115,-25Z" 
id="f1_77"
transform="scale(0.001,-0.001)" />

<path d="M346,-4c0,0,-23,0,-38,2c0,0,-15,1,-24,3c0,0,-9,3,-15,8c0,0,-5,6,-8,13L33,660c0,0,-3,9,-5,15c0,0,-2,7,-2,11c0,0,0,3,0,5c0,0,0,6,3,11c0,0,3,4,10,7c0,0,7,2,18,3c0,0,12,1,29,1c0,0,22,0,35,-1c0,0,13,-1,20,-4c0,0,7,-3,10,-8c0,0,4,-4,7,-11L347,135l3,-9l2,9L540,689c0,0,1,7,5,11c0,0,3,5,11,8c0,0,7,3,19,4c0,0,12,1,32,1c0,0,18,0,29,-1c0,0,11,-1,17,-4c0,0,7,-3,9,-7c0,0,3,-4,3,-10c0,0,0,-3,-1,-6c0,0,0,-4,-1,-7c0,0,0,-4,-2,-8c0,0,-1,-5,-2,-10L430,22c0,0,-3,-8,-8,-13c0,0,-5,-6,-15,-9c0,0,-9,-2,-24,-3c0,0,-15,-1,-37,-1Z" 
id="f1_ch"
transform="scale(0.001,-0.001)" />

<path d="M176,-4c0,0,-18,0,-30,2c0,0,-12,1,-19,3c0,0,-7,3,-10,7c0,0,-3,4,-3,10V690c0,0,0,6,3,10c0,0,2,4,9,7c0,0,6,4,17,5c0,0,10,1,27,1c0,0,17,0,28,-1c0,0,10,-1,16,-5c0,0,6,-3,9,-7c0,0,3,-4,3,-10V592c0,0,27,41,51,66c0,0,25,26,46,41c0,0,22,14,43,20c0,0,21,6,43,6c0,0,10,0,22,-2c0,0,12,-1,26,-4c0,0,13,-3,24,-6c0,0,11,-4,15,-8c0,0,5,-4,6,-7c0,0,2,-3,3,-9c0,0,1,-5,1,-15c0,0,0,-10,0,-27c0,0,0,-16,0,-28c0,0,-1,-11,-3,-17c0,0,-2,-6,-6,-10c0,0,-3,-3,-9,-3c0,0,-6,0,-15,3c0,0,-8,4,-19,7c0,0,-11,3,-24,6c0,0,-14,3,-29,3c0,0,-19,0,-37,-7c0,0,-18,-8,-37,-25c0,0,-20,-18,-42,-46c0,0,-21,-29,-48,-70V18c0,0,0,-6,-3,-10c0,0,-2,-4,-9,-7c0,0,-7,-2,-19,-3c0,0,-12,-2,-30,-2Z" 
id="f1_b1"
transform="scale(0.001,-0.001)" />

<path d="M346,-177c0,0,56,0,94,11c0,0,37,11,60,28c0,0,24,18,34,41c0,0,10,23,10,49c0,0,0,43,-36,65c0,0,-35,23,-95,25L239,48c0,0,-24,-19,-39,-35c0,0,-15,-16,-24,-31c0,0,-9,-16,-12,-30c0,0,-4,-15,-4,-31c0,0,0,-48,49,-73c0,0,50,-25,137,-25Zm-6,512c0,0,36,0,63,12c0,0,27,12,44,32c0,0,18,21,26,48c0,0,9,27,9,56c0,0,0,69,-38,107c0,0,-37,39,-107,39c0,0,-35,0,-62,-12c0,0,-26,-12,-44,-33c0,0,-17,-21,-26,-48c0,0,-8,-28,-8,-58c0,0,0,-66,37,-104c0,0,38,-39,106,-39Zm0,-606c0,0,-81,0,-138,14c0,0,-57,14,-94,38c0,0,-36,24,-52,57c0,0,-17,33,-17,72c0,0,0,24,6,47c0,0,6,24,18,43c0,0,13,21,31,40c0,0,18,19,42,38c0,0,-36,19,-54,47c0,0,-17,28,-17,61c0,0,0,45,18,81c0,0,19,36,46,64c0,0,-23,28,-36,62c0,0,-14,35,-14,84c0,0,0,58,20,104c0,0,19,45,53,77c0,0,35,31,83,48c0,0,48,17,105,17c0,0,30,0,57,-4c0,0,26,-3,49,-9H649c0,0,13,0,19,-12c0,0,7,-13,7,-38c0,0,0,-26,-7,-37c0,0,-7,-12,-19,-12H553c0,0,26,-27,37,-60c0,0,10,-32,10,-68c0,0,0,-58,-18,-103c0,0,-19,-45,-54,-76c0,0,-34,-31,-82,-47c0,0,-48,-16,-106,-16c0,0,-41,0,-78,10c0,0,-37,11,-57,28c0,0,-14,-14,-22,-31c0,0,-9,-17,-9,-39c0,0,0,-27,24,-44c0,0,25,-17,65,-18l175,-8c0,0,50,-1,92,-14c0,0,41,-12,72,-35c0,0,31,-22,48,-55c0,0,17,-34,17,-76c0,0,0,-47,-20,-88c0,0,-19,-42,-59,-74c0,0,-40,-31,-102,-50c0,0,-61,-18,-146,-18Z" 
id="f1_9d"
transform="scale(0.001,-0.001)" />

<path d="M429,92c0,0,47,0,80,22c0,0,33,23,54,60c0,0,20,38,30,84c0,0,10,46,10,93c0,0,0,52,-8,100c0,0,-8,48,-27,86c0,0,-19,37,-51,60c0,0,-32,22,-80,22c0,0,-24,0,-47,-7c0,0,-23,-7,-47,-23c0,0,-24,-15,-50,-40c0,0,-26,-25,-56,-62V220c0,0,51,-62,97,-95c0,0,45,-33,95,-33ZM176,-271c0,0,-18,0,-30,2c0,0,-12,1,-19,4c0,0,-7,3,-10,8c0,0,-3,4,-3,10V690c0,0,0,6,3,10c0,0,2,5,9,8c0,0,6,3,17,4c0,0,10,1,25,1c0,0,16,0,26,-1c0,0,10,-1,17,-4c0,0,6,-3,9,-7c0,0,3,-4,3,-11V601c0,0,30,31,59,54c0,0,28,23,57,39c0,0,28,15,59,23c0,0,30,8,63,8c0,0,74,0,125,-29c0,0,52,-28,84,-77c0,0,32,-50,47,-115c0,0,15,-65,15,-139c0,0,0,-88,-19,-158c0,0,-19,-70,-56,-119c0,0,-37,-49,-91,-75c0,0,-55,-26,-125,-26c0,0,-30,0,-55,6c0,0,-25,6,-50,18c0,0,-24,13,-48,32c0,0,-24,19,-51,46V-247c0,0,0,-6,-3,-10c0,0,-2,-5,-9,-8c0,0,-7,-3,-19,-4c0,0,-12,-2,-30,-2Z" 
id="f1_ay"
transform="scale(0.001,-0.001)" />

<path d="M176,-4c0,0,-18,0,-30,2c0,0,-12,1,-19,3c0,0,-7,3,-10,7c0,0,-3,4,-3,10V690c0,0,0,5,3,9c0,0,3,5,10,8c0,0,7,3,19,4c0,0,12,2,30,2c0,0,18,0,30,-2c0,0,12,-1,19,-4c0,0,7,-3,9,-8c0,0,3,-4,3,-9V18c0,0,0,-6,-3,-10c0,0,-2,-4,-9,-7c0,0,-7,-2,-19,-3c0,0,-12,-2,-30,-2Zm-1,846c0,0,-43,0,-59,15c0,0,-16,15,-16,58c0,0,0,43,16,59c0,0,17,16,61,16c0,0,43,0,59,-16c0,0,16,-15,16,-58c0,0,0,-43,-16,-58c0,0,-17,-16,-61,-16Z" 
id="f1_9q"
transform="scale(0.001,-0.001)" />

<path d="M367,-13c0,0,-73,0,-129,23c0,0,-56,24,-93,70c0,0,-38,46,-58,112c0,0,-20,67,-20,154c0,0,0,99,25,171c0,0,24,71,66,116c0,0,42,46,99,68c0,0,58,22,124,22c0,0,32,0,62,-6c0,0,31,-6,56,-16c0,0,25,-10,45,-22c0,0,20,-13,29,-22c0,0,9,-9,12,-14c0,0,3,-5,6,-13c0,0,2,-7,3,-16c0,0,0,-9,0,-22c0,0,0,-29,-6,-41c0,0,-7,-11,-17,-11c0,0,-11,0,-25,12c0,0,-15,12,-37,27c0,0,-23,15,-55,28c0,0,-31,12,-75,12c0,0,-88,0,-136,-68c0,0,-47,-68,-47,-198c0,0,0,-65,12,-114c0,0,12,-49,36,-81c0,0,24,-33,59,-49c0,0,35,-16,79,-16c0,0,43,0,75,13c0,0,32,14,56,30c0,0,23,16,39,29c0,0,16,13,25,13c0,0,5,0,9,-3c0,0,4,-3,7,-10c0,0,2,-7,3,-18c0,0,1,-11,1,-26c0,0,0,-12,0,-22c0,0,-1,-9,-3,-15c0,0,-2,-7,-4,-12c0,0,-3,-4,-12,-14c0,0,-10,-9,-32,-23c0,0,-22,-14,-50,-24C496,11,468,0,435,-6c0,0,-33,-7,-68,-7Z" 
id="f1_7l"
transform="scale(0.001,-0.001)" />

<path d="M339,-13c0,0,-52,0,-90,13c0,0,-37,14,-61,42c0,0,-24,28,-34,71c0,0,-11,43,-11,101V607H49c0,0,-11,0,-18,12c0,0,-7,12,-7,39c0,0,0,14,2,24c0,0,2,10,5,16c0,0,3,7,8,9c0,0,5,3,11,3h93V870c0,0,0,5,2,9c0,0,3,5,10,8c0,0,7,4,19,5c0,0,12,2,30,2c0,0,19,0,31,-2c0,0,11,-1,18,-5c0,0,7,-3,10,-8c0,0,3,-4,3,-9V710H438c0,0,6,0,10,-3c0,0,5,-2,8,-9c0,0,4,-6,5,-16c0,0,1,-10,1,-24c0,0,0,-27,-6,-39c0,0,-7,-12,-18,-12H266V232c0,0,0,-69,20,-105c0,0,21,-35,74,-35c0,0,17,0,30,3c0,0,14,4,24,7c0,0,10,4,18,7c0,0,7,4,13,4c0,0,4,0,7,-2c0,0,4,-2,6,-7c0,0,2,-5,3,-14c0,0,1,-9,1,-23c0,0,0,-22,-2,-34c0,0,-3,-13,-9,-19c0,0,-6,-6,-18,-11c0,0,-12,-4,-28,-8c0,0,-15,-3,-32,-5c0,0,-17,-3,-34,-3Z" 
id="f1_bf"
transform="scale(0.001,-0.001)" />

<path d="M401,90c0,0,54,0,93,19c0,0,40,20,65,55c0,0,26,35,37,84c0,0,12,48,12,106c0,0,0,55,-10,104c0,0,-10,48,-33,85c0,0,-23,36,-62,58c0,0,-40,21,-99,21c0,0,-54,0,-93,-20c0,0,-39,-19,-65,-54c0,0,-25,-36,-37,-85c0,0,-12,-48,-12,-106c0,0,0,-55,10,-103c0,0,10,-49,33,-85c0,0,24,-36,63,-58c0,0,39,-21,98,-21ZM395,-13c0,0,-82,0,-144,24c0,0,-61,25,-102,72c0,0,-41,47,-61,114c0,0,-21,67,-21,152c0,0,0,82,22,151c0,0,21,69,64,119c0,0,43,50,107,78c0,0,64,28,150,28c0,0,82,0,144,-25c0,0,61,-25,102,-72c0,0,41,-47,62,-114c0,0,20,-67,20,-151c0,0,0,-83,-21,-152c0,0,-22,-69,-65,-119C652,92,609,42,545,14c0,0,-65,-27,-150,-27Z" 
id="f1_am"
transform="scale(0.001,-0.001)" />

<path d="M209,-4c0,0,-18,0,-30,2c0,0,-12,1,-19,3c0,0,-7,3,-10,7c0,0,-3,4,-3,10V607H52c0,0,-12,0,-18,12c0,0,-6,12,-6,39c0,0,0,14,2,24c0,0,1,10,4,16c0,0,3,7,8,9c0,0,4,3,10,3h95v69c0,0,0,71,13,121c0,0,13,50,40,82c0,0,27,33,67,48c0,0,41,15,96,15c0,0,26,0,51,-5c0,0,25,-4,38,-10c0,0,13,-6,18,-10c0,0,4,-5,7,-12c0,0,3,-7,5,-17c0,0,1,-10,1,-24c0,0,0,-15,-2,-23c0,0,-1,-9,-3,-14c0,0,-2,-5,-5,-7c0,0,-3,-2,-8,-2c0,0,-5,0,-13,3c0,0,-7,4,-19,8c0,0,-11,4,-26,7c0,0,-15,4,-36,4c0,0,-27,0,-47,-9c0,0,-19,-9,-31,-28c0,0,-12,-19,-17,-50c0,0,-5,-30,-5,-73V710H421c0,0,6,0,10,-3c0,0,4,-2,7,-9c0,0,4,-6,6,-16c0,0,2,-10,2,-24c0,0,0,-27,-7,-39c0,0,-7,-12,-18,-12H271V18c0,0,0,-6,-3,-10c0,0,-3,-4,-11,-7c0,0,-7,-2,-19,-3c0,0,-12,-2,-29,-2Z" 
id="f1_89"
transform="scale(0.001,-0.001)" />

<path d="M272,-13c0,0,-35,0,-68,6c0,0,-32,6,-58,13c0,0,-26,9,-44,18c0,0,-17,10,-26,17c0,0,-8,8,-12,21c0,0,-3,14,-3,37c0,0,0,14,1,24c0,0,2,9,4,15c0,0,2,6,6,9c0,0,4,3,10,3c0,0,8,0,24,-11c0,0,16,-10,39,-22c0,0,24,-12,56,-22c0,0,32,-10,74,-10c0,0,31,0,56,7c0,0,26,6,44,19c0,0,19,14,29,34c0,0,10,20,10,47c0,0,0,29,-14,48c0,0,-15,19,-39,34c0,0,-24,15,-53,27c0,0,-30,11,-62,24c0,0,-32,13,-62,29c0,0,-30,16,-54,39c0,0,-24,23,-38,55c0,0,-15,32,-15,77c0,0,0,40,16,76c0,0,15,36,45,63c0,0,31,28,77,44c0,0,46,17,107,17c0,0,27,0,54,-5c0,0,26,-5,48,-11c0,0,22,-7,37,-15c0,0,15,-8,23,-14c0,0,8,-6,11,-11c0,0,2,-4,3,-10c0,0,1,-5,2,-14c0,0,2,-8,2,-20c0,0,0,-12,-2,-22c0,0,-1,-9,-3,-15c0,0,-3,-6,-7,-8c0,0,-3,-3,-8,-3c0,0,-7,0,-19,8c0,0,-13,8,-33,18c0,0,-20,9,-47,17c0,0,-28,9,-63,9c0,0,-31,0,-55,-7c0,0,-24,-7,-39,-20c0,0,-15,-13,-23,-31c0,0,-8,-18,-8,-39c0,0,0,-29,15,-49c0,0,15,-20,39,-35c0,0,24,-15,54,-27c0,0,31,-11,62,-24c0,0,32,-13,63,-29c0,0,31,-15,55,-38c0,0,24,-22,38,-53c0,0,15,-32,15,-75c0,0,0,-51,-19,-92c0,0,-19,-40,-54,-68C463,42,428,15,379,1c0,0,-48,-14,-107,-14Z" 
id="f1_b5"
transform="scale(0.001,-0.001)" />

<path d="M252,-271c0,0,-19,0,-31,2c0,0,-12,2,-18,6c0,0,-7,5,-8,12c0,0,0,8,4,18L292,0c0,0,-7,3,-13,10c0,0,-6,6,-8,14L31,665c0,0,-6,16,-6,25c0,0,0,9,6,14c0,0,6,5,20,7c0,0,13,2,36,2c0,0,22,0,35,-1c0,0,12,-1,20,-4c0,0,7,-3,11,-9c0,0,3,-6,7,-15L351,145h3L539,687c0,0,4,14,10,18c0,0,7,4,19,6c0,0,13,2,37,2c0,0,21,0,34,-2c0,0,14,-2,20,-7c0,0,6,-5,6,-14c0,0,0,-9,-4,-23L420,0L330,-246c0,0,-4,-12,-22,-18c0,0,-19,-7,-56,-7Z" 
id="f1_co"
transform="scale(0.001,-0.001)" />

<path d="M176,-4c0,0,-18,0,-30,2c0,0,-12,1,-19,3c0,0,-7,3,-10,7c0,0,-3,4,-3,10V690c0,0,0,6,3,10c0,0,2,4,9,7c0,0,6,4,17,5c0,0,10,1,27,1c0,0,17,0,28,-1c0,0,10,-1,16,-5c0,0,6,-3,9,-7c0,0,3,-4,3,-10V601c0,0,56,64,110,94c0,0,53,30,108,30c0,0,42,0,75,-10c0,0,33,-10,58,-28c0,0,26,-17,44,-42c0,0,18,-24,30,-55c0,0,33,37,63,63c0,0,31,26,59,41c0,0,28,16,54,23c0,0,27,8,53,8c0,0,65,0,109,-23c0,0,44,-23,71,-61c0,0,28,-38,39,-89c0,0,12,-52,12,-108V18c0,0,0,-6,-3,-10c0,0,-3,-4,-10,-7c0,0,-7,-2,-19,-3c0,0,-12,-2,-29,-2c0,0,-19,0,-31,2c0,0,-12,1,-19,3c0,0,-7,3,-10,7c0,0,-3,4,-3,10V427c0,0,0,43,-8,78c0,0,-7,35,-23,61c0,0,-17,25,-42,38c0,0,-25,14,-60,14c0,0,-42,0,-85,-33c0,0,-43,-33,-94,-96V18c0,0,0,-6,-3,-10c0,0,-3,-4,-11,-7c0,0,-7,-2,-19,-3c0,0,-11,-2,-29,-2c0,0,-18,0,-30,2c0,0,-12,1,-19,3c0,0,-7,3,-10,7c0,0,-3,4,-3,10V427c0,0,0,43,-8,78c0,0,-8,35,-24,61c0,0,-17,25,-42,38c0,0,-25,14,-59,14c0,0,-43,0,-86,-33c0,0,-44,-33,-95,-96V18c0,0,0,-6,-3,-10c0,0,-2,-4,-9,-7c0,0,-7,-2,-19,-3c0,0,-12,-2,-30,-2Z" 
id="f1_ae"
transform="scale(0.001,-0.001)" />

<path d="M366,92c0,0,25,0,48,7c0,0,22,6,46,22c0,0,24,16,50,41c0,0,26,24,56,61V492c0,0,-51,62,-97,94c0,0,-47,33,-98,33c0,0,-47,0,-79,-22c0,0,-33,-23,-54,-59c0,0,-20,-37,-30,-83c0,0,-9,-47,-9,-94c0,0,0,-51,8,-100c0,0,8,-48,27,-86c0,0,19,-38,52,-60c0,0,32,-23,80,-23ZM345,-13c0,0,-74,0,-127,28c0,0,-52,29,-84,78c0,0,-33,49,-48,115c0,0,-15,66,-15,139c0,0,0,86,19,156c0,0,19,70,55,119c0,0,37,50,91,76c0,0,54,27,125,27c0,0,59,0,108,-26c0,0,49,-26,97,-76v390c0,0,0,5,2,10c0,0,3,4,10,7c0,0,8,3,19,5c0,0,12,1,30,1c0,0,18,0,30,-1c0,0,12,-2,19,-5c0,0,7,-3,10,-7c0,0,3,-5,3,-10V18c0,0,0,-6,-2,-10c0,0,-3,-5,-9,-7c0,0,-7,-2,-17,-3c0,0,-10,-2,-25,-2c0,0,-16,0,-26,2c0,0,-11,1,-18,3c0,0,-6,2,-9,7c0,0,-3,4,-3,10v90c0,0,-53,-58,-110,-90c0,0,-58,-31,-125,-31Z" 
id="f1_7v"
transform="scale(0.001,-0.001)" />

<path d="M431,92c0,0,46,0,79,22c0,0,33,23,53,60c0,0,21,37,30,83c0,0,10,46,10,93c0,0,0,51,-8,100c0,0,-8,49,-28,86c0,0,-19,37,-51,60c0,0,-32,23,-80,23c0,0,-24,0,-47,-7c0,0,-23,-7,-47,-22c0,0,-24,-16,-50,-41c0,0,-25,-24,-55,-62V219c0,0,51,-62,98,-95c0,0,46,-32,96,-32ZM443,-13c0,0,-32,0,-59,7c0,0,-27,6,-53,19c0,0,-26,14,-52,36c0,0,-27,22,-56,52V18c0,0,0,-6,-3,-10c0,0,-3,-5,-9,-7c0,0,-7,-2,-17,-3c0,0,-10,-2,-26,-2c0,0,-15,0,-25,2c0,0,-11,1,-17,3c0,0,-7,2,-9,7c0,0,-3,4,-3,10v997c0,0,0,6,3,11c0,0,3,4,10,7c0,0,7,3,19,5c0,0,12,1,30,1c0,0,18,0,30,-1c0,0,12,-2,19,-5c0,0,7,-3,9,-7c0,0,3,-5,3,-10V614c0,0,30,31,58,52c0,0,28,20,55,34c0,0,27,13,54,19c0,0,27,6,57,6c0,0,73,0,125,-30c0,0,52,-29,84,-78c0,0,32,-48,47,-114c0,0,15,-66,15,-139c0,0,0,-87,-19,-157c0,0,-19,-70,-56,-119c0,0,-37,-49,-90,-76c0,0,-54,-25,-124,-25Z" 
id="f1_7k"
transform="scale(0.001,-0.001)" />

<path d="M483,-13c0,0,-80,0,-145,22c0,0,-66,24,-113,69c0,0,-47,45,-73,113c0,0,-25,68,-25,156V946c0,0,0,6,3,11c0,0,3,4,11,7c0,0,7,2,19,4c0,0,12,2,31,2c0,0,18,0,31,-2c0,0,13,-2,20,-4c0,0,7,-3,10,-7c0,0,3,-5,3,-11V363c0,0,0,-67,16,-117c0,0,16,-50,47,-83c0,0,31,-34,75,-50c0,0,44,-17,98,-17c0,0,56,0,100,16c0,0,43,17,74,49c0,0,30,33,46,82c0,0,16,48,16,113V946c0,0,0,6,3,11c0,0,3,4,10,7c0,0,8,2,20,4c0,0,13,2,31,2c0,0,18,0,30,-2c0,0,13,-2,20,-4c0,0,7,-3,10,-7c0,0,4,-5,4,-11V357c0,0,0,-88,-26,-157c0,0,-26,-69,-74,-117C755,83,708,36,639,11c0,0,-69,-24,-156,-24Z" 
id="f1_2x"
transform="scale(0.001,-0.001)" />

<path d="M318,-13c0,0,-48,0,-90,8c0,0,-41,8,-73,19c0,0,-33,12,-55,25c0,0,-22,13,-30,22c0,0,-9,8,-13,22c0,0,-4,14,-4,37c0,0,0,17,1,27c0,0,2,11,5,18c0,0,3,7,7,9c0,0,5,3,11,3c0,0,10,0,29,-13c0,0,19,-12,49,-27c0,0,30,-15,72,-28c0,0,42,-13,97,-13c0,0,42,0,77,11c0,0,34,11,59,32c0,0,25,20,39,50c0,0,13,30,13,68c0,0,0,41,-19,70c0,0,-18,29,-49,51c0,0,-30,22,-70,41c0,0,-39,18,-80,37c0,0,-41,19,-80,42c0,0,-39,23,-69,54c0,0,-31,32,-50,74c0,0,-19,42,-19,101c0,0,0,60,22,108c0,0,22,47,61,79c0,0,40,32,94,49c0,0,54,17,116,17c0,0,32,0,65,-6c0,0,32,-5,61,-15c0,0,29,-9,51,-20c0,0,22,-12,30,-19c0,0,7,-7,9,-11c0,0,2,-4,4,-10c0,0,1,-7,2,-16c0,0,1,-9,1,-23c0,0,0,-13,-2,-24c0,0,-1,-10,-3,-17c0,0,-2,-8,-6,-11c0,0,-4,-3,-10,-3c0,0,-8,0,-25,10c0,0,-18,11,-43,24c0,0,-26,13,-60,23c0,0,-35,11,-78,11c0,0,-40,0,-70,-11c0,0,-30,-10,-49,-28c0,0,-20,-18,-29,-43c0,0,-10,-25,-10,-52c0,0,0,-40,18,-70c0,0,19,-29,50,-51c0,0,31,-22,71,-41c0,0,39,-19,80,-38c0,0,41,-19,81,-41c0,0,39,-23,70,-54c0,0,31,-31,50,-73c0,0,19,-42,19,-100c0,0,0,-68,-25,-121c0,0,-25,-53,-69,-89C552,61,508,24,448,5c0,0,-60,-18,-130,-18Z" 
id="f1_2n"
transform="scale(0.001,-0.001)" />

<path d="M306,-182c0,0,-17,0,-27,2c0,0,-10,2,-16,5c0,0,-6,2,-8,7c0,0,-2,5,-1,11L272,3c0,0,-36,4,-67,12c0,0,-30,7,-54,15c0,0,-24,8,-41,17c0,0,-17,9,-25,17c0,0,-7,8,-10,20c0,0,-3,13,-3,35c0,0,0,17,1,28c0,0,2,10,5,17c0,0,3,8,7,10c0,0,5,3,12,3c0,0,10,0,28,-11c0,0,17,-11,47,-24c0,0,29,-13,72,-24c0,0,42,-11,102,-11c0,0,106,0,161,41c0,0,55,42,55,114c0,0,0,44,-20,73c0,0,-21,30,-54,51c0,0,-33,21,-75,37c0,0,-42,15,-86,31c0,0,-44,15,-86,35c0,0,-42,21,-75,50c0,0,-32,30,-53,73c0,0,-20,43,-20,106c0,0,0,50,17,93c0,0,18,43,52,76c0,0,34,32,86,53c0,0,53,20,122,25l15,150c0,0,1,5,3,9c0,0,1,4,7,7c0,0,5,3,14,4c0,0,9,1,24,1c0,0,17,0,28,-1c0,0,10,-2,16,-5c0,0,6,-4,7,-8c0,0,2,-5,2,-10L469,962c0,0,23,-2,47,-8c0,0,24,-5,45,-12c0,0,22,-7,39,-16c0,0,17,-8,23,-14c0,0,7,-6,9,-12c0,0,3,-5,4,-12c0,0,2,-6,3,-15c0,0,1,-9,1,-20c0,0,0,-15,-1,-25c0,0,-1,-10,-3,-16c0,0,-3,-6,-6,-9c0,0,-4,-3,-9,-3c0,0,-9,0,-26,9c0,0,-18,10,-46,21c0,0,-27,11,-63,21c0,0,-35,10,-79,10c0,0,-50,0,-86,-10c0,0,-35,-10,-57,-27c0,0,-22,-18,-32,-42c0,0,-10,-25,-10,-54c0,0,0,-45,20,-75c0,0,21,-29,54,-50c0,0,33,-21,75,-36c0,0,43,-15,87,-31c0,0,45,-16,87,-35c0,0,43,-20,76,-50c0,0,33,-30,54,-72c0,0,20,-43,20,-106c0,0,0,-60,-22,-109c0,0,-23,-48,-65,-83C608,81,566,46,506,25C506,25,445,4,371,0L354,-161c0,0,0,-4,-2,-8c0,0,-2,-5,-7,-7c0,0,-6,-3,-15,-4c0,0,-9,-2,-24,-2Z" 
id="f1_q1"
transform="scale(0.001,-0.001)" />

<path d="M343,-13c0,0,-49,0,-91,8c0,0,-42,7,-75,18c0,0,-33,11,-54,22c0,0,-22,12,-27,17c0,0,-6,5,-9,10c0,0,-3,5,-5,13c0,0,-3,7,-4,18c0,0,-1,11,-1,27c0,0,0,26,5,37c0,0,6,10,15,10c0,0,7,0,27,-12c0,0,20,-12,51,-25c0,0,31,-14,72,-26c0,0,41,-12,92,-12c0,0,49,0,87,13c0,0,37,12,62,35c0,0,26,24,39,55c0,0,12,32,12,69c0,0,0,41,-16,74c0,0,-16,33,-47,57c0,0,-31,24,-76,36c0,0,-45,13,-103,13H206c0,0,-6,0,-12,3c0,0,-6,2,-10,8c0,0,-4,6,-6,16c0,0,-3,10,-3,25c0,0,0,14,2,24c0,0,2,9,7,15c0,0,4,5,9,8c0,0,5,3,12,3h84c0,0,49,0,89,12c0,0,39,13,66,37c0,0,27,24,42,57c0,0,14,33,14,74c0,0,0,30,-9,57c0,0,-10,28,-30,48c0,0,-19,20,-49,32c0,0,-31,11,-70,11c0,0,-43,0,-80,-13c0,0,-36,-13,-64,-28c0,0,-29,-15,-47,-28c0,0,-19,-13,-26,-13c0,0,-6,0,-10,2c0,0,-4,2,-6,7c0,0,-3,6,-4,16c0,0,-1,10,-1,26c0,0,0,12,0,20c0,0,1,9,3,15c0,0,3,6,6,12c0,0,3,5,10,12c0,0,7,7,28,20c0,0,22,14,54,27c0,0,32,13,73,22c0,0,41,9,89,9c0,0,67,0,118,-17c0,0,51,-18,85,-49c0,0,34,-31,51,-75c0,0,17,-44,17,-97c0,0,0,-45,-12,-84c0,0,-12,-39,-35,-70c0,0,-24,-30,-57,-51c0,0,-34,-21,-78,-30v-1c0,0,50,-5,92,-25c0,0,41,-20,71,-50c0,0,30,-29,47,-69c0,0,16,-40,16,-86c0,0,0,-66,-23,-119c0,0,-23,-54,-66,-92C593,65,550,27,486,7c0,0,-63,-20,-143,-20Z" 
id="f1_s0"
transform="scale(0.001,-0.001)" />

<path d="M176,-4c0,0,-18,0,-30,2c0,0,-12,1,-19,3c0,0,-7,3,-10,7c0,0,-3,4,-3,10v997c0,0,0,6,3,11c0,0,3,4,10,7c0,0,7,3,19,5c0,0,12,1,30,1c0,0,18,0,30,-1c0,0,12,-2,19,-5c0,0,7,-3,9,-7c0,0,3,-5,3,-11V18c0,0,0,-6,-3,-10c0,0,-2,-4,-9,-7c0,0,-7,-2,-19,-3c0,0,-12,-2,-30,-2Z" 
id="f1_a8"
transform="scale(0.001,-0.001)" />

<path d="M176,-4c0,0,-18,0,-30,2c0,0,-12,1,-19,3c0,0,-7,3,-10,7c0,0,-3,4,-3,10V690c0,0,0,6,3,10c0,0,2,4,9,7c0,0,6,4,17,5c0,0,10,1,27,1c0,0,17,0,28,-1c0,0,10,-1,16,-5c0,0,6,-3,9,-7c0,0,3,-4,3,-10V601c0,0,56,64,112,94c0,0,57,30,114,30c0,0,67,0,113,-23c0,0,46,-23,74,-61c0,0,29,-38,41,-89c0,0,12,-52,12,-123V18c0,0,0,-6,-3,-10c0,0,-3,-4,-9,-7c0,0,-7,-2,-19,-3c0,0,-12,-2,-30,-2c0,0,-19,0,-30,2c0,0,-12,1,-19,3c0,0,-7,3,-10,7c0,0,-3,4,-3,10V412c0,0,0,58,-9,93c0,0,-9,35,-26,61c0,0,-17,25,-44,38c0,0,-27,14,-63,14c0,0,-46,0,-93,-33c0,0,-46,-33,-97,-96V18c0,0,0,-6,-3,-10c0,0,-2,-4,-9,-7c0,0,-7,-2,-19,-3c0,0,-12,-2,-30,-2Z" 
id="f1_af"
transform="scale(0.001,-0.001)" />

<path d="M351,-13c0,0,-67,0,-113,22c0,0,-46,22,-75,60c0,0,-28,39,-40,90c0,0,-13,51,-13,124V690c0,0,0,6,3,10c0,0,3,4,10,7c0,0,8,4,20,5c0,0,11,1,29,1c0,0,18,0,30,-1c0,0,12,-1,19,-5c0,0,7,-3,10,-7c0,0,3,-4,3,-10V299c0,0,0,-59,9,-94c0,0,8,-36,26,-61c0,0,18,-24,44,-38c0,0,27,-14,63,-14c0,0,46,0,92,33c0,0,46,32,98,95V690c0,0,0,6,2,10c0,0,3,4,10,7c0,0,8,4,19,5c0,0,12,1,30,1c0,0,18,0,30,-1c0,0,12,-1,19,-5c0,0,7,-3,10,-7c0,0,3,-4,3,-10V18c0,0,0,-6,-2,-10c0,0,-3,-4,-10,-7c0,0,-6,-2,-17,-3c0,0,-11,-2,-27,-2c0,0,-17,0,-28,2c0,0,-10,1,-17,3c0,0,-6,3,-8,7c0,0,-3,4,-3,10v89c0,0,-57,-63,-113,-92c0,0,-56,-28,-113,-28Z" 
id="f1_c6"
transform="scale(0.001,-0.001)" />

<path d="M192,-6c0,0,-45,0,-62,16c0,0,-18,18,-18,69c0,0,0,53,18,71c0,0,18,17,64,17c0,0,45,0,62,-17c0,0,17,-17,17,-69c0,0,0,-53,-18,-70c0,0,-17,-17,-63,-17Z" 
id="f1_nt"
transform="scale(0.001,-0.001)" />

<path d="M324,-4c0,0,-23,0,-37,2c0,0,-15,1,-24,3c0,0,-9,3,-14,8c0,0,-4,6,-7,13L46,660c0,0,-4,11,-5,18c0,0,-2,8,-2,13c0,0,0,7,3,11c0,0,3,4,10,7c0,0,8,2,19,3c0,0,12,1,30,1c0,0,20,0,33,-1c0,0,13,-1,20,-4c0,0,6,-3,9,-8c0,0,3,-4,5,-11L330,136l2,-7l1,7L482,689c0,0,1,7,5,11c0,0,3,5,10,8c0,0,6,3,18,4c0,0,12,1,31,1c0,0,18,0,29,-1c0,0,12,-1,18,-4c0,0,7,-3,10,-7c0,0,3,-5,5,-11L768,136l1,-7l1,7L930,689c0,0,1,7,5,11c0,0,3,5,10,8c0,0,7,3,20,4c0,0,12,1,31,1c0,0,18,0,29,-1c0,0,11,-1,17,-4c0,0,6,-3,9,-6c0,0,3,-4,3,-11c0,0,0,-5,-2,-13c0,0,-1,-7,-5,-18L849,22c0,0,-2,-8,-7,-13c0,0,-5,-6,-13,-9c0,0,-9,-2,-24,-3c0,0,-15,-1,-37,-1c0,0,-23,0,-39,2c0,0,-15,1,-25,3c0,0,-9,3,-14,8c0,0,-4,6,-6,13L543,510l-2,6l-2,-6L409,22c0,0,-3,-8,-7,-13c0,0,-5,-6,-15,-9c0,0,-10,-2,-25,-3c0,0,-15,-1,-38,-1Z" 
id="f1_ci"
transform="scale(0.001,-0.001)" />

<path d="M541,-13c0,0,-112,0,-200,34c0,0,-88,35,-149,99c0,0,-60,64,-92,154c0,0,-33,90,-33,200c0,0,0,115,35,208c0,0,35,94,98,160c0,0,63,65,151,101c0,0,89,37,196,37c0,0,55,0,104,-10c0,0,48,-10,86,-23c0,0,37,-12,63,-28c0,0,26,-15,35,-24c0,0,10,-10,14,-23c0,0,4,-13,4,-37c0,0,0,-14,-2,-25c0,0,-1,-10,-4,-18c0,0,-3,-7,-8,-10c0,0,-4,-3,-9,-3c0,0,-9,0,-30,14c0,0,-21,15,-56,32c0,0,-35,17,-84,31c0,0,-49,14,-116,14c0,0,-80,0,-143,-29c0,0,-64,-29,-108,-81c0,0,-44,-51,-67,-122c0,0,-24,-71,-24,-154c0,0,0,-93,26,-165c0,0,26,-72,71,-121c0,0,46,-49,109,-75c0,0,63,-25,138,-25c0,0,45,0,91,11c0,0,46,10,85,32V423H499c0,0,-13,0,-19,13c0,0,-7,13,-7,40c0,0,0,14,2,24c0,0,1,10,5,17c0,0,3,6,7,9c0,0,5,3,12,3H805c0,0,8,0,17,-3c0,0,8,-3,14,-9c0,0,7,-6,11,-16c0,0,4,-11,4,-24V108c0,0,0,-19,-7,-33c0,0,-7,-15,-28,-26c0,0,-22,-10,-56,-23C760,26,725,13,689,4c0,0,-37,-8,-74,-12c0,0,-37,-5,-74,-5Z" 
id="f1_14"
transform="scale(0.001,-0.001)" />

<path d="M189,-4c0,0,-18,0,-30,2c0,0,-12,2,-18,3c0,0,-7,3,-10,8c0,0,-3,5,-3,10V910c0,0,0,30,17,42c0,0,16,13,35,13h62c0,0,21,0,36,-4c0,0,14,-3,26,-12c0,0,11,-9,22,-24c0,0,11,-15,24,-38L584,463c0,0,21,-39,42,-76c0,0,20,-37,38,-73c0,0,19,-35,37,-70c0,0,19,-35,36,-70h1c0,0,-1,59,-2,123c0,0,0,64,0,123V944c0,0,0,5,3,10c0,0,3,4,10,8c0,0,7,3,19,5c0,0,11,1,30,1c0,0,16,0,28,-1c0,0,12,-2,19,-5c0,0,7,-4,10,-8c0,0,3,-5,3,-10V53c0,0,0,-15,-5,-25c0,0,-5,-11,-13,-17c0,0,-8,-7,-18,-10c0,0,-9,-2,-19,-2H762c0,0,-19,0,-34,3c0,0,-14,4,-27,15c0,0,-14,11,-27,29c0,0,-13,19,-28,48L342,643c0,0,-24,42,-49,89c0,0,-24,47,-45,91h-1c0,0,1,-54,2,-110c0,0,1,-56,1,-111V19c0,0,0,-5,-3,-10c0,0,-3,-5,-10,-8c0,0,-7,-1,-19,-3c0,0,-12,-2,-29,-2Z" 
id="f1_1y"
transform="scale(0.001,-0.001)" />

<path d="M372,472c0,0,58,0,97,15c0,0,38,15,65,42c0,0,26,26,39,63c0,0,14,37,14,80c0,0,0,59,-22,99c0,0,-23,39,-55,59c0,0,-32,19,-67,24c0,0,-35,5,-68,5H256V472ZM192,-4c0,0,-18,0,-31,2c0,0,-12,2,-19,3c0,0,-8,3,-11,8c0,0,-3,4,-3,10V910c0,0,0,30,16,42c0,0,15,13,35,13H386c0,0,31,0,60,-3c0,0,28,-2,68,-11c0,0,39,-8,80,-32c0,0,40,-23,69,-58c0,0,28,-34,43,-79c0,0,16,-45,16,-100c0,0,0,-72,-24,-130c0,0,-24,-58,-69,-100c0,0,-44,-41,-109,-63c0,0,-64,-22,-154,-22H256V19c0,0,0,-6,-3,-10c0,0,-3,-5,-10,-8c0,0,-7,-1,-20,-3c0,0,-12,-2,-31,-2Z" 
id="f1_2g"
transform="scale(0.001,-0.001)" />

<path d="M321,-256c0,0,-13,0,-23,1c0,0,-10,0,-17,3c0,0,-7,2,-11,5c0,0,-5,3,-7,7c0,0,-40,76,-71,154c0,0,-31,78,-51,157c0,0,-21,81,-32,163c0,0,-10,83,-10,167c0,0,0,84,11,166c0,0,12,82,33,163c0,0,21,81,52,160c0,0,31,78,69,155c0,0,0,3,4,5c0,0,3,2,9,4c0,0,6,3,16,4c0,0,11,1,27,1c0,0,17,0,28,-2c0,0,10,-3,16,-6c0,0,6,-4,7,-10c0,0,1,-6,-2,-13c0,0,-71,-150,-106,-307c0,0,-34,-158,-34,-318c0,0,0,-160,35,-318c0,0,35,-156,103,-308c0,0,4,-9,4,-15c0,0,1,-6,-4,-10c0,0,-6,-4,-16,-6c0,0,-11,-2,-30,-2Z" 
id="f1_ov"
transform="scale(0.001,-0.001)" />

<path d="M161,0c0,0,-5,0,-10,3c0,0,-4,2,-8,8c0,0,-5,6,-7,16c0,0,-2,9,-2,24c0,0,0,13,2,23c0,0,2,9,6,16c0,0,3,6,8,9c0,0,5,4,11,4H362V837L176,726c0,0,-15,-8,-23,-9c0,0,-1,-1,-3,-1c-3,0,-8,1,-11,4c0,0,-5,5,-7,16c0,0,-2,11,-2,28c0,0,0,13,1,22c0,0,1,9,4,15c0,0,2,6,6,10c0,0,4,5,11,9L374,963c0,0,3,2,7,4c0,0,5,1,11,3c0,0,7,1,16,2c0,0,9,0,22,0c0,0,18,0,30,-2c0,0,12,-1,19,-4c0,0,7,-2,9,-6c0,0,2,-5,2,-9V103H665c0,0,6,0,11,-4c0,0,5,-3,8,-9c0,0,4,-7,6,-16c0,0,2,-10,2,-23c0,0,0,-15,-3,-24c0,0,-2,-10,-6,-16c0,0,-3,-6,-8,-8c0,0,-5,-3,-10,-3Z" 
id="f1_ry"
transform="scale(0.001,-0.001)" />

<path d="M389,86c0,0,95,0,144,40c0,0,49,40,49,108c0,0,0,35,-13,63c0,0,-12,28,-38,52c0,0,-26,24,-64,47c0,0,-39,23,-90,47c0,0,-47,-23,-82,-46c0,0,-35,-23,-58,-48c0,0,-23,-24,-34,-52c0,0,-12,-27,-12,-60c0,0,0,-72,50,-112c0,0,49,-39,148,-39Zm6,468c0,0,75,38,115,85c0,0,41,47,41,104c0,0,0,31,-11,57c0,0,-11,25,-32,43c0,0,-21,18,-52,27c0,0,-31,10,-70,10c0,0,-81,0,-122,-37c0,0,-42,-37,-42,-100c0,0,0,-29,10,-54c0,0,10,-25,32,-47c0,0,21,-23,53,-44c0,0,33,-21,78,-44ZM379,-13c0,0,-75,0,-134,14c0,0,-59,16,-100,47c0,0,-41,30,-62,75c0,0,-22,45,-22,102c0,0,0,46,15,84c0,0,15,38,43,70c0,0,28,32,69,60c0,0,41,28,92,53c0,0,-44,23,-79,49c0,0,-34,26,-58,56c0,0,-24,30,-36,65c0,0,-12,34,-12,74c0,0,0,51,18,95c0,0,18,45,55,78c0,0,37,32,94,51c0,0,57,19,133,19c0,0,73,0,127,-17c0,0,53,-18,88,-48c0,0,35,-30,51,-71c0,0,16,-41,16,-88c0,0,0,-38,-12,-73c0,0,-12,-35,-36,-67c0,0,-24,-31,-59,-58c0,0,-34,-27,-79,-51c0,0,53,-26,94,-54c0,0,42,-28,70,-59c0,0,28,-32,42,-67c0,0,15,-36,15,-78c0,0,0,-63,-23,-112c0,0,-22,-49,-64,-82C625,54,583,20,521,3c0,0,-62,-16,-142,-16Z" 
id="f1_s5"
transform="scale(0.001,-0.001)" />

<path d="M142,-256c0,0,-19,0,-30,2c0,0,-11,2,-16,6c0,0,-5,4,-4,10c0,0,0,6,4,15c0,0,69,151,104,308c0,0,35,158,35,318c0,0,0,160,-35,318c0,0,-35,157,-106,307c0,0,-3,7,-2,13c0,0,1,6,7,10c0,0,6,3,16,6c0,0,11,2,28,2c0,0,16,0,26,-1c0,0,10,-1,17,-4c0,0,6,-2,9,-4c0,0,3,-2,5,-5c0,0,76,-153,120,-315c0,0,44,-161,44,-329c0,0,0,-84,-11,-167c0,0,-10,-82,-31,-163c0,0,-21,-79,-51,-157c0,0,-30,-78,-71,-154c0,0,-2,-4,-6,-7c0,0,-5,-3,-12,-5c0,0,-7,-3,-17,-3c0,0,-9,-1,-23,-1Z" 
id="f1_ow"
transform="scale(0.001,-0.001)" />

<path d="M503,98c0,0,85,0,142,31c0,0,58,31,93,85c0,0,35,53,50,123c0,0,15,70,15,148c0,0,0,83,-15,153c0,0,-14,70,-48,122c0,0,-34,52,-91,81c0,0,-57,29,-140,29c0,0,-84,0,-141,-31c0,0,-56,-31,-92,-84c0,0,-35,-52,-51,-122c0,0,-15,-69,-15,-146c0,0,0,-85,14,-157c0,0,14,-71,48,-123c0,0,34,-52,90,-80c0,0,56,-29,141,-29ZM497,-13c0,0,-109,0,-189,32c0,0,-79,32,-131,94c0,0,-52,62,-77,154c0,0,-26,91,-26,211c0,0,0,114,28,207c0,0,28,93,83,159c0,0,55,65,138,100c0,0,83,36,193,36c0,0,107,0,186,-32c0,0,79,-32,132,-94c0,0,52,-61,78,-152c0,0,26,-91,26,-208c0,0,0,-117,-28,-211c0,0,-28,-94,-82,-160C828,123,773,57,690,22c0,0,-83,-35,-193,-35Z" 
id="f1_24"
transform="scale(0.001,-0.001)" />

<path d="M218,-6c0,0,-24,0,-39,4c0,0,-15,3,-24,13c0,0,-8,10,-12,27c0,0,-3,16,-3,41c0,0,0,24,3,41c0,0,4,17,12,27c0,0,9,9,24,14c0,0,15,4,39,4c0,0,23,0,38,-4c0,0,15,-5,24,-14c0,0,10,-10,13,-27c0,0,3,-17,3,-41c0,0,0,-25,-3,-41c0,0,-3,-17,-13,-27c0,0,-9,-10,-24,-13c0,0,-15,-4,-38,-4Zm0,518c0,0,-24,0,-39,4c0,0,-15,5,-24,15c0,0,-8,10,-12,26c0,0,-3,16,-3,40c0,0,0,26,3,42c0,0,4,17,12,27c0,0,9,10,24,14c0,0,15,4,39,4c0,0,23,0,38,-4c0,0,15,-4,24,-14c0,0,10,-10,13,-27c0,0,3,-16,3,-42c0,0,0,-24,-3,-40c0,0,-3,-16,-13,-26c0,0,-9,-10,-24,-15c0,0,-15,-4,-38,-4Z" 
id="f1_ns"
transform="scale(0.001,-0.001)" />

<path d="M1012,552L230,1004L491,552ZM129,0L448,552L129,1104L1085,552L129,0Z" 
id="f2_5b"
transform="scale(0.001,-0.001)" />

<path d="M324,-13c0,0,-44,0,-85,7c0,0,-40,6,-71,14c0,0,-32,10,-52,18c0,0,-20,9,-25,15c0,0,-6,5,-8,9c0,0,-3,5,-4,11c0,0,-2,6,-3,16c0,0,-1,10,-1,23c0,0,0,13,1,23c0,0,1,10,4,16c0,0,3,7,8,10c0,0,4,3,9,3c0,0,7,0,23,-10c0,0,16,-9,42,-20c0,0,27,-11,66,-20c0,0,39,-10,93,-10c0,0,49,0,91,12c0,0,42,12,72,37c0,0,30,26,47,64c0,0,18,38,18,94c0,0,0,46,-15,81c0,0,-14,36,-45,59c0,0,-30,24,-76,35c0,0,-46,12,-111,12c0,0,-45,0,-78,-5c0,0,-33,-4,-61,-4c0,0,-21,0,-30,10c0,0,-9,9,-9,37V917c0,0,0,24,12,36c0,0,11,12,33,12H596c0,0,6,0,12,-3c0,0,6,-4,9,-10c0,0,4,-7,6,-17c0,0,2,-11,2,-25c0,0,0,-27,-8,-42c0,0,-7,-14,-21,-14H236V583c0,0,26,4,53,5c0,0,28,1,63,1c0,0,83,0,145,-20c0,0,62,-20,103,-56c0,0,42,-36,63,-88c0,0,21,-51,21,-114c0,0,0,-78,-26,-138c0,0,-26,-61,-74,-102C584,71,537,30,471,8c0,0,-66,-21,-147,-21Z" 
id="f1_s2"
transform="scale(0.001,-0.001)" />

<path d="M385,92c0,0,42,0,74,13c0,0,31,14,54,39c0,0,23,25,38,60c0,0,15,35,24,77c0,0,9,43,12,92c0,0,3,50,3,103c0,0,0,73,-5,130c0,0,-5,57,-15,101c0,0,-10,44,-26,76c0,0,-16,32,-39,52c0,0,-22,21,-51,30c0,0,-29,9,-64,9c0,0,-64,0,-103,-30c0,0,-40,-29,-63,-82c0,0,-23,-52,-31,-122c0,0,-8,-70,-8,-150c0,0,0,-108,11,-184c0,0,11,-76,36,-123c0,0,24,-48,62,-69c0,0,37,-22,91,-22ZM378,-13c0,0,-91,0,-154,32c0,0,-62,32,-100,95c0,0,-38,63,-54,155c0,0,-16,92,-16,212c0,0,0,110,18,202c0,0,18,92,58,158c0,0,40,66,106,103c0,0,66,36,161,36c0,0,92,0,154,-33c0,0,62,-32,100,-95c0,0,39,-63,55,-155c0,0,16,-92,16,-212c0,0,0,-111,-18,-203c0,0,-17,-91,-58,-157C646,125,605,59,540,22c0,0,-66,-35,-162,-35Z" 
id="f1_rx"
transform="scale(0.001,-0.001)" />

<path d="M382,534c0,0,51,0,88,12c0,0,37,12,61,35c0,0,25,22,36,51c0,0,12,30,12,65c0,0,0,57,-25,96c0,0,-26,40,-86,57c0,0,-18,5,-42,7c0,0,-23,2,-61,2H256V534ZM192,-4c0,0,-18,0,-31,2c0,0,-12,2,-19,3c0,0,-8,3,-11,8c0,0,-3,4,-3,10V913c0,0,0,29,15,40c0,0,16,12,33,12H381c0,0,37,0,61,-2c0,0,24,-2,44,-4c0,0,56,-10,98,-30c0,0,43,-21,73,-53c0,0,29,-33,43,-74c0,0,15,-41,15,-91c0,0,0,-49,-13,-87c0,0,-13,-39,-38,-68c0,0,-25,-30,-59,-51c0,0,-34,-22,-77,-37c0,0,24,-10,43,-26c0,0,20,-16,37,-39c0,0,16,-22,31,-51c0,0,15,-29,30,-66L756,73c0,0,10,-26,13,-37c0,0,3,-11,3,-17c0,0,0,-6,-2,-10c0,0,-2,-5,-10,-8c0,0,-7,-2,-21,-3c0,0,-13,-2,-36,-2c0,0,-19,0,-31,2c0,0,-13,1,-20,3c0,0,-7,4,-12,10c0,0,-4,6,-7,15L545,253c0,0,-16,39,-33,72c0,0,-17,32,-40,56c0,0,-23,23,-54,36c0,0,-32,13,-76,13H256V19c0,0,0,-6,-3,-10c0,0,-3,-5,-10,-8c0,0,-7,-1,-20,-3c0,0,-12,-2,-31,-2Z" 
id="f1_2j"
transform="scale(0.001,-0.001)" />

<path d="M398,90c0,0,48,0,83,17c0,0,35,18,58,49c0,0,23,30,34,67c0,0,11,38,11,78c0,0,0,43,-8,78c0,0,-9,36,-29,60c0,0,-20,25,-54,38c0,0,-33,14,-83,14c0,0,-27,0,-55,-5c0,0,-28,-5,-53,-13c0,0,-26,-9,-49,-21c0,0,-24,-11,-43,-25c0,0,0,-96,12,-161c0,0,12,-65,36,-104c0,0,23,-39,58,-56c0,0,35,-16,82,-16ZM386,-13c0,0,-60,0,-106,14c0,0,-47,15,-81,42c0,0,-34,28,-57,68c0,0,-23,40,-36,92c0,0,-14,51,-20,113c0,0,-6,61,-6,131c0,0,0,62,7,125c0,0,6,64,23,123c0,0,18,58,47,110c0,0,29,52,74,91c0,0,44,38,106,60c0,0,62,23,144,23c0,0,28,0,56,-4c0,0,28,-3,52,-9c0,0,24,-5,41,-12c0,0,16,-7,21,-11c0,0,5,-4,8,-9c0,0,3,-4,4,-10c0,0,2,-6,2,-13c0,0,1,-7,1,-17c0,0,0,-14,0,-23c0,0,-1,-10,-3,-16c0,0,-3,-6,-7,-9c0,0,-4,-3,-11,-3c0,0,-8,0,-22,5c0,0,-14,5,-34,12c0,0,-21,6,-49,11c0,0,-29,6,-67,6c0,0,-69,0,-119,-29c0,0,-50,-28,-82,-76c0,0,-32,-48,-47,-111c0,0,-15,-63,-18,-131c0,0,20,11,44,22c0,0,24,11,53,20c0,0,29,9,61,15c0,0,32,5,68,5c0,0,79,0,132,-21c0,0,54,-21,87,-59c0,0,34,-38,48,-89c0,0,14,-51,14,-110c0,0,0,-64,-19,-123c0,0,-20,-59,-60,-105C635,85,595,40,533,13c0,0,-62,-26,-147,-26Z" 
id="f1_s3"
transform="scale(0.001,-0.001)" />

<path d="M435,0V856c0,0,-48,-47,-127,-93c0,0,-79,-46,-142,-69V824c0,0,113,52,197,128c0,0,85,75,120,146h86V0Z" 
id="f3_l"
transform="scale(0.001,-0.001)" />


</defs>
</svg>