<?xml version="1.0" encoding="UTF-8" standalone="no"?>
<!DOCTYPE svg PUBLIC "-//W3C//DTD SVG 1.1//EN"
"http://www.w3.org/Graphics/SVG/1.1/DTD/svg11.dtd">
<svg viewBox="0 0 935 1210" version="1.1" xmlns="http://www.w3.org/2000/svg" xmlns:xlink="http://www.w3.org/1999/xlink">
<defs>
</defs>
<g fill="#000000" >
<use xlink:href="#f0_3d" transform="matrix(11,0,0,11,82.5,71.9)" />
<use xlink:href="#f1_1x" transform="matrix(11,0,0,11,110,71.9)" />
<use xlink:href="#f1_c6" transform="matrix(11,0,0,11,124.7,71.9)" />
<use xlink:href="#f1_bf" transform="matrix(11,0,0,11,133.9,71.9)" />
<use xlink:href="#f1_c6" transform="matrix(11,0,0,11,139.7,71.9)" />
<use xlink:href="#f1_77" transform="matrix(11,0,0,11,148.9,71.9)" />
<use xlink:href="#f1_a8" transform="matrix(11,0,0,11,157.3,71.9)" />
<use xlink:href="#f1_9q" transform="matrix(11,0,0,11,161.3,71.9)" />
<use xlink:href="#f1_b5" transform="matrix(11,0,0,11,165.3,71.9)" />
<use xlink:href="#f1_ae" transform="matrix(11,0,0,11,171.9,71.9)" />
<use xlink:href="#f2_9q" transform="matrix(11,0,0,11,190.4,71.9)" />
<use xlink:href="#f2_b5" transform="matrix(11,0,0,11,194.4,71.9)" />
<use xlink:href="#f2_77" transform="matrix(11,0,0,11,205.7,71.9)" />
<use xlink:href="#f2_af" transform="matrix(11,0,0,11,213.8,71.9)" />
<use xlink:href="#f2_9q" transform="matrix(11,0,0,11,227.4,71.9)" />
<use xlink:href="#f2_af" transform="matrix(11,0,0,11,231.4,71.9)" />
<use xlink:href="#f2_bf" transform="matrix(11,0,0,11,240.2,71.9)" />
<use xlink:href="#f2_7z" transform="matrix(11,0,0,11,245.7,71.9)" />
<use xlink:href="#f2_b1" transform="matrix(11,0,0,11,254.1,71.9)" />
<use xlink:href="#f2_77" transform="matrix(11,0,0,11,260,71.9)" />
<use xlink:href="#f2_7l" transform="matrix(11,0,0,11,268,71.9)" />
<use xlink:href="#f2_bf" transform="matrix(11,0,0,11,275,71.9)" />
<use xlink:href="#f2_9q" transform="matrix(11,0,0,11,280.5,71.9)" />
<use xlink:href="#f2_am" transform="matrix(11,0,0,11,284.5,71.9)" />
<use xlink:href="#f2_af" transform="matrix(11,0,0,11,293.3,71.9)" />
<use xlink:href="#f2_ci" transform="matrix(11,0,0,11,306.9,71.9)" />
<use xlink:href="#f2_9n" transform="matrix(11,0,0,11,319,71.9)" />
<use xlink:href="#f2_7z" transform="matrix(11,0,0,11,327.8,71.9)" />
<use xlink:href="#f2_b1" transform="matrix(11,0,0,11,336.2,71.9)" />
<use xlink:href="#f2_7z" transform="matrix(11,0,0,11,342.1,71.9)" />
<use xlink:href="#f2_7k" transform="matrix(11,0,0,11,355.3,71.9)" />
<use xlink:href="#f2_am" transform="matrix(11,0,0,11,364.1,71.9)" />
<use xlink:href="#f2_bf" transform="matrix(11,0,0,11,372.9,71.9)" />
<use xlink:href="#f2_9n" transform="matrix(11,0,0,11,378.4,71.9)" />
<use xlink:href="#f2_bf" transform="matrix(11,0,0,11,391.9,71.9)" />
<use xlink:href="#f2_9n" transform="matrix(11,0,0,11,397.4,71.9)" />
<use xlink:href="#f2_7z" transform="matrix(11,0,0,11,406.3,71.9)" />
<use xlink:href="#f2_b5" transform="matrix(11,0,0,11,419.4,71.9)" />
<use xlink:href="#f2_ay" transform="matrix(11,0,0,11,426,71.9)" />
<use xlink:href="#f2_7z" transform="matrix(11,0,0,11,434.9,71.9)" />
<use xlink:href="#f2_7l" transform="matrix(11,0,0,11,443.3,71.9)" />
<use xlink:href="#f2_9q" transform="matrix(11,0,0,11,450.2,71.9)" />
<use xlink:href="#f2_7z" transform="matrix(11,0,0,11,454.3,71.9)" />
<use xlink:href="#f2_b5" transform="matrix(11,0,0,11,462.7,71.9)" />
<use xlink:href="#f2_9q" transform="matrix(11,0,0,11,473.7,71.9)" />
<use xlink:href="#f2_af" transform="matrix(11,0,0,11,477.3,71.9)" />
<use xlink:href="#f2_bf" transform="matrix(11,0,0,11,486.1,71.9)" />
<use xlink:href="#f2_7z" transform="matrix(11,0,0,11,491.6,71.9)" />
<use xlink:href="#f2_b1" transform="matrix(11,0,0,11,500,71.9)" />
<use xlink:href="#f2_77" transform="matrix(11,0,0,11,505.9,71.9)" />
<use xlink:href="#f2_7l" transform="matrix(11,0,0,11,514,71.9)" />
<use xlink:href="#f2_bf" transform="matrix(11,0,0,11,521,71.9)" />
<use xlink:href="#f2_9q" transform="matrix(11,0,0,11,526.5,71.9)" />
<use xlink:href="#f2_af" transform="matrix(11,0,0,11,530.5,71.9)" />
<use xlink:href="#f2_9d" transform="matrix(11,0,0,11,539.3,71.9)" />
<use xlink:href="#f2_ci" transform="matrix(11,0,0,11,552.1,71.9)" />
<use xlink:href="#f2_9q" transform="matrix(11,0,0,11,564.1,71.9)" />
<use xlink:href="#f2_a8" transform="matrix(11,0,0,11,568.2,71.9)" />
<use xlink:href="#f2_a8" transform="matrix(11,0,0,11,571.9,71.9)" />
<use xlink:href="#f2_7k" transform="matrix(11,0,0,11,580.6,71.9)" />
<use xlink:href="#f2_7z" transform="matrix(11,0,0,11,589.4,71.9)" />
<use xlink:href="#f2_af" transform="matrix(11,0,0,11,597.8,71.9)" />
<use xlink:href="#f2_7z" transform="matrix(11,0,0,11,606.7,71.9)" />
<use xlink:href="#f2_89" transform="matrix(11,0,0,11,615.1,71.9)" />
<use xlink:href="#f2_9q" transform="matrix(11,0,0,11,620.2,71.9)" />
<use xlink:href="#f2_bf" transform="matrix(11,0,0,11,624.3,71.9)" />
<use xlink:href="#f2_7z" transform="matrix(11,0,0,11,634.5,71.9)" />
<use xlink:href="#f2_77" transform="matrix(11,0,0,11,642.9,71.9)" />
<use xlink:href="#f2_7l" transform="matrix(11,0,0,11,651,71.9)" />
<use xlink:href="#f2_9n" transform="matrix(11,0,0,11,658,71.9)" />
<use xlink:href="#f2_am" transform="matrix(11,0,0,11,671.5,71.9)" />
<use xlink:href="#f2_bf" transform="matrix(11,0,0,11,680.3,71.9)" />
<use xlink:href="#f2_9n" transform="matrix(11,0,0,11,685.8,71.9)" />
<use xlink:href="#f2_7z" transform="matrix(11,0,0,11,694.6,71.9)" />
<use xlink:href="#f2_b1" transform="matrix(11,0,0,11,703,71.9)" />
<use xlink:href="#f2_nt" transform="matrix(11,0,0,11,708.9,71.9)" />
<use xlink:href="#f2_1r" transform="matrix(11,0,0,11,718.6,71.9)" />
<use xlink:href="#f2_9q" transform="matrix(11,0,0,11,725.5,71.9)" />
<use xlink:href="#f2_7l" transform="matrix(11,0,0,11,729.5,71.9)" />
<use xlink:href="#f2_9n" transform="matrix(11,0,0,11,736.5,71.9)" />
<use xlink:href="#f2_7z" transform="matrix(11,0,0,11,745.3,71.9)" />
<use xlink:href="#f2_af" transform="matrix(11,0,0,11,753.7,71.9)" />
<use xlink:href="#f2_b5" transform="matrix(11,0,0,11,762.6,71.9)" />
<use xlink:href="#f2_77" transform="matrix(11,0,0,11,773.9,71.9)" />
<use xlink:href="#f2_af" transform="matrix(11,0,0,11,782,71.9)" />
<use xlink:href="#f2_7v" transform="matrix(11,0,0,11,790.8,71.9)" />
<use xlink:href="#f2_ae" transform="matrix(11,0,0,11,804.3,71.9)" />
<use xlink:href="#f2_co" transform="matrix(11,0,0,11,817.5,71.9)" />
<use xlink:href="#f2_7l" transform="matrix(11,0,0,11,825.2,71.9)" />
<use xlink:href="#f2_am" transform="matrix(11,0,0,11,832.2,71.9)" />
<use xlink:href="#f2_b1" transform="matrix(11,0,0,11,841,71.9)" />
<use xlink:href="#f2_b1" transform="matrix(11,0,0,11,846.9,71.9)" />
<use xlink:href="#f2_9n" transform="matrix(11,0,0,11,852.8,71.9)" />
<use xlink:href="#f2_9q" transform="matrix(11,0,0,11,861.5,71.9)" />
<use xlink:href="#f2_ct" transform="matrix(11,0,0,11,865.5,71.9)" />
<use xlink:href="#f2_77" transform="matrix(11,0,0,11,872.1,71.9)" />
<use xlink:href="#f2_77" transform="matrix(11,0,0,11,110,102.7)" />
<use xlink:href="#f2_b1" transform="matrix(11,0,0,11,118.1,102.7)" />
<use xlink:href="#f2_7z" transform="matrix(11,0,0,11,124,102.7)" />
<use xlink:href="#f2_ae" transform="matrix(11,0,0,11,141.2,102.7)" />
<use xlink:href="#f2_am" transform="matrix(11,0,0,11,154.7,102.7)" />
<use xlink:href="#f2_b5" transform="matrix(11,0,0,11,163.5,102.7)" />
<use xlink:href="#f2_bf" transform="matrix(11,0,0,11,170.1,102.7)" />
<use xlink:href="#f2_9q" transform="matrix(11,0,0,11,184.4,102.7)" />
<use xlink:href="#f2_ae" transform="matrix(11,0,0,11,188.4,102.7)" />
<use xlink:href="#f2_ay" transform="matrix(11,0,0,11,202,102.7)" />
<use xlink:href="#f2_am" transform="matrix(11,0,0,11,210.8,102.7)" />
<use xlink:href="#f2_b1" transform="matrix(11,0,0,11,219.6,102.7)" />
<use xlink:href="#f2_bf" transform="matrix(11,0,0,11,225.5,102.7)" />
<use xlink:href="#f2_77" transform="matrix(11,0,0,11,231,102.7)" />
<use xlink:href="#f2_af" transform="matrix(11,0,0,11,239,102.7)" />
<use xlink:href="#f2_bf" transform="matrix(11,0,0,11,247.8,102.7)" />
<use xlink:href="#f2_7z" transform="matrix(11,0,0,11,262.1,102.7)" />
<use xlink:href="#f2_cn" transform="matrix(11,0,0,11,270.5,102.7)" />
<use xlink:href="#f2_77" transform="matrix(11,0,0,11,277.9,102.7)" />
<use xlink:href="#f2_ae" transform="matrix(11,0,0,11,285.9,102.7)" />
<use xlink:href="#f2_ay" transform="matrix(11,0,0,11,299.5,102.7)" />
<use xlink:href="#f2_a8" transform="matrix(11,0,0,11,308.3,102.7)" />
<use xlink:href="#f2_7z" transform="matrix(11,0,0,11,312.3,102.7)" />
<use xlink:href="#f2_am" transform="matrix(11,0,0,11,329.5,102.7)" />
<use xlink:href="#f2_89" transform="matrix(11,0,0,11,338.3,102.7)" />
<use xlink:href="#f2_ae" transform="matrix(11,0,0,11,352.2,102.7)" />
<use xlink:href="#f2_c6" transform="matrix(11,0,0,11,365.8,102.7)" />
<use xlink:href="#f2_bf" transform="matrix(11,0,0,11,374.6,102.7)" />
<use xlink:href="#f2_c6" transform="matrix(11,0,0,11,380.1,102.7)" />
<use xlink:href="#f2_77" transform="matrix(11,0,0,11,388.9,102.7)" />
<use xlink:href="#f2_a8" transform="matrix(11,0,0,11,397,102.7)" />
<use xlink:href="#f2_9q" transform="matrix(11,0,0,11,401,102.7)" />
<use xlink:href="#f2_b5" transform="matrix(11,0,0,11,405,102.7)" />
<use xlink:href="#f2_ae" transform="matrix(11,0,0,11,411.6,102.7)" />
<use xlink:href="#f2_nt" transform="matrix(11,0,0,11,425.1,102.7)" />
<use xlink:href="#f2_1r" transform="matrix(11,0,0,11,438.7,102.7)" />
<use xlink:href="#f2_9q" transform="matrix(11,0,0,11,445.7,102.7)" />
<use xlink:href="#f2_7l" transform="matrix(11,0,0,11,449.7,102.7)" />
<use xlink:href="#f2_9n" transform="matrix(11,0,0,11,456.6,102.7)" />
<use xlink:href="#f2_7z" transform="matrix(11,0,0,11,465.4,102.7)" />
<use xlink:href="#f2_af" transform="matrix(11,0,0,11,473.8,102.7)" />
<use xlink:href="#f2_b5" transform="matrix(11,0,0,11,482.3,102.7)" />
<use xlink:href="#f2_9q" transform="matrix(11,0,0,11,497.8,102.7)" />
<use xlink:href="#f2_b5" transform="matrix(11,0,0,11,501.8,102.7)" />
<use xlink:href="#f2_ae" transform="matrix(11,0,0,11,517.1,102.7)" />
<use xlink:href="#f2_c6" transform="matrix(11,0,0,11,530.7,102.7)" />
<use xlink:href="#f2_bf" transform="matrix(11,0,0,11,539.5,102.7)" />
<use xlink:href="#f2_c6" transform="matrix(11,0,0,11,545,102.7)" />
<use xlink:href="#f2_77" transform="matrix(11,0,0,11,553.8,102.7)" />
<use xlink:href="#f2_a8" transform="matrix(11,0,0,11,561.9,102.7)" />
<use xlink:href="#f2_9q" transform="matrix(11,0,0,11,565.9,102.7)" />
<use xlink:href="#f2_b5" transform="matrix(11,0,0,11,569.9,102.7)" />
<use xlink:href="#f2_bf" transform="matrix(11,0,0,11,576.5,102.7)" />
<use xlink:href="#f2_9q" transform="matrix(11,0,0,11,582,102.7)" />
<use xlink:href="#f2_7l" transform="matrix(11,0,0,11,586,102.7)" />
<use xlink:href="#f2_b1" transform="matrix(11,0,0,11,601.7,102.7)" />
<use xlink:href="#f2_7z" transform="matrix(11,0,0,11,607.6,102.7)" />
<use xlink:href="#f2_a8" transform="matrix(11,0,0,11,616,102.7)" />
<use xlink:href="#f2_77" transform="matrix(11,0,0,11,620.1,102.7)" />
<use xlink:href="#f2_bf" transform="matrix(11,0,0,11,628.1,102.7)" />
<use xlink:href="#f2_9q" transform="matrix(11,0,0,11,633.6,102.7)" />
<use xlink:href="#f2_am" transform="matrix(11,0,0,11,637.6,102.7)" />
<use xlink:href="#f2_af" transform="matrix(11,0,0,11,646.4,102.7)" />
<use xlink:href="#f2_b5" transform="matrix(11,0,0,11,655.3,102.7)" />
<use xlink:href="#f2_9n" transform="matrix(11,0,0,11,661.8,102.7)" />
<use xlink:href="#f2_9q" transform="matrix(11,0,0,11,670.7,102.7)" />
<use xlink:href="#f2_ay" transform="matrix(11,0,0,11,674.7,102.7)" />
<use xlink:href="#f2_7k" transform="matrix(11,0,0,11,692.3,102.7)" />
<use xlink:href="#f2_7z" transform="matrix(11,0,0,11,701.1,102.7)" />
<use xlink:href="#f2_bf" transform="matrix(11,0,0,11,709.5,102.7)" />
<use xlink:href="#f2_ci" transform="matrix(11,0,0,11,715,102.7)" />
<use xlink:href="#f2_7z" transform="matrix(11,0,0,11,727.1,102.7)" />
<use xlink:href="#f2_7z" transform="matrix(11,0,0,11,735.5,102.7)" />
<use xlink:href="#f2_af" transform="matrix(11,0,0,11,743.9,102.7)" />
<use xlink:href="#f2_77" transform="matrix(11,0,0,11,761.5,102.7)" />
<use xlink:href="#f2_a8" transform="matrix(11,0,0,11,769.6,102.7)" />
<use xlink:href="#f2_9d" transform="matrix(11,0,0,11,773.3,102.7)" />
<use xlink:href="#f2_77" transform="matrix(11,0,0,11,781.3,102.7)" />
<use xlink:href="#f2_7z" transform="matrix(11,0,0,11,789.4,102.7)" />
<use xlink:href="#f2_77" transform="matrix(11,0,0,11,806.6,102.7)" />
<use xlink:href="#f2_af" transform="matrix(11,0,0,11,814.7,102.7)" />
<use xlink:href="#f2_7v" transform="matrix(11,0,0,11,823.4,102.7)" />
<use xlink:href="#f2_89" transform="matrix(11,0,0,11,841,102.7)" />
<use xlink:href="#f2_c6" transform="matrix(11,0,0,11,846.2,102.7)" />
<use xlink:href="#f2_af" transform="matrix(11,0,0,11,855,102.7)" />
<use xlink:href="#f2_9d" transform="matrix(11,0,0,11,863.8,102.7)" />
<use xlink:href="#f2_9q" transform="matrix(11,0,0,11,871.8,102.7)" />
<use xlink:href="#f2_nt" transform="matrix(11,0,0,11,875.8,102.7)" />
<use xlink:href="#f2_1x" transform="matrix(11,0,0,11,110,133.5)" />
<use xlink:href="#f2_co" transform="matrix(11,0,0,11,124.3,133.5)" />
<use xlink:href="#f2_7l" transform="matrix(11,0,0,11,132,133.5)" />
<use xlink:href="#f2_am" transform="matrix(11,0,0,11,139,133.5)" />
<use xlink:href="#f2_b1" transform="matrix(11,0,0,11,147.8,133.5)" />
<use xlink:href="#f2_b1" transform="matrix(11,0,0,11,153.7,133.5)" />
<use xlink:href="#f2_9n" transform="matrix(11,0,0,11,159.6,133.5)" />
<use xlink:href="#f2_9q" transform="matrix(11,0,0,11,168.3,133.5)" />
<use xlink:href="#f2_ct" transform="matrix(11,0,0,11,172.3,133.5)" />
<use xlink:href="#f2_77" transform="matrix(11,0,0,11,178.9,133.5)" />
<use xlink:href="#f2_9q" transform="matrix(11,0,0,11,190.7,133.5)" />
<use xlink:href="#f2_b5" transform="matrix(11,0,0,11,194.7,133.5)" />
<use xlink:href="#f2_b1" transform="matrix(11,0,0,11,205,133.5)" />
<use xlink:href="#f2_7z" transform="matrix(11,0,0,11,210.8,133.5)" />
<use xlink:href="#f2_a8" transform="matrix(11,0,0,11,219.2,133.5)" />
<use xlink:href="#f2_77" transform="matrix(11,0,0,11,223.3,133.5)" />
<use xlink:href="#f2_bf" transform="matrix(11,0,0,11,231.4,133.5)" />
<use xlink:href="#f2_9q" transform="matrix(11,0,0,11,236.8,133.5)" />
<use xlink:href="#f2_am" transform="matrix(11,0,0,11,240.9,133.5)" />
<use xlink:href="#f2_af" transform="matrix(11,0,0,11,249.7,133.5)" />
<use xlink:href="#f2_7k" transform="matrix(11,0,0,11,262.1,133.5)" />
<use xlink:href="#f2_7z" transform="matrix(11,0,0,11,270.9,133.5)" />
<use xlink:href="#f2_bf" transform="matrix(11,0,0,11,279.3,133.5)" />
<use xlink:href="#f2_ci" transform="matrix(11,0,0,11,284.9,133.5)" />
<use xlink:href="#f2_7z" transform="matrix(11,0,0,11,296.9,133.5)" />
<use xlink:href="#f2_7z" transform="matrix(11,0,0,11,305.4,133.5)" />
<use xlink:href="#f2_af" transform="matrix(11,0,0,11,313.8,133.5)" />
<use xlink:href="#f2_bf" transform="matrix(11,0,0,11,326.3,133.5)" />
<use xlink:href="#f2_9n" transform="matrix(11,0,0,11,331.8,133.5)" />
<use xlink:href="#f2_7z" transform="matrix(11,0,0,11,340.6,133.5)" />
<use xlink:href="#f2_89" transform="matrix(11,0,0,11,352.7,133.5)" />
<use xlink:href="#f2_c6" transform="matrix(11,0,0,11,357.8,133.5)" />
<use xlink:href="#f2_af" transform="matrix(11,0,0,11,366.6,133.5)" />
<use xlink:href="#f2_9d" transform="matrix(11,0,0,11,375.4,133.5)" />
<use xlink:href="#f2_9q" transform="matrix(11,0,0,11,383.4,133.5)" />
<use xlink:href="#f2_77" transform="matrix(11,0,0,11,391.1,133.5)" />
<use xlink:href="#f2_af" transform="matrix(11,0,0,11,399.2,133.5)" />
<use xlink:href="#f2_7v" transform="matrix(11,0,0,11,408,133.5)" />
<use xlink:href="#f2_bf" transform="matrix(11,0,0,11,420.5,133.5)" />
<use xlink:href="#f2_9n" transform="matrix(11,0,0,11,425.9,133.5)" />
<use xlink:href="#f2_7z" transform="matrix(11,0,0,11,434.8,133.5)" />
<use xlink:href="#f2_b1" transform="matrix(11,0,0,11,446.8,133.5)" />
<use xlink:href="#f2_am" transform="matrix(11,0,0,11,452.7,133.5)" />
<use xlink:href="#f2_am" transform="matrix(11,0,0,11,461.9,133.5)" />
<use xlink:href="#f2_bf" transform="matrix(11,0,0,11,470.7,133.5)" />
<use xlink:href="#f2_b5" transform="matrix(11,0,0,11,476.2,133.5)" />
<use xlink:href="#f2_am" transform="matrix(11,0,0,11,486.8,133.5)" />
<use xlink:href="#f2_89" transform="matrix(11,0,0,11,495.6,133.5)" />
<use xlink:href="#f2_bf" transform="matrix(11,0,0,11,504.4,133.5)" />
<use xlink:href="#f2_9n" transform="matrix(11,0,0,11,509.9,133.5)" />
<use xlink:href="#f2_7z" transform="matrix(11,0,0,11,518.7,133.5)" />
<use xlink:href="#f2_9n" transform="matrix(11,0,0,11,531.1,133.5)" />
<use xlink:href="#f2_9q" transform="matrix(11,0,0,11,539.9,133.5)" />
<use xlink:href="#f2_9d" transform="matrix(11,0,0,11,543.9,133.5)" />
<use xlink:href="#f2_9n" transform="matrix(11,0,0,11,552,133.5)" />
<use xlink:href="#f2_7z" transform="matrix(11,0,0,11,560.8,133.5)" />
<use xlink:href="#f2_b1" transform="matrix(11,0,0,11,569.2,133.5)" />
<use xlink:href="#f2_ay" transform="matrix(11,0,0,11,578.8,133.5)" />
<use xlink:href="#f2_a8" transform="matrix(11,0,0,11,587.6,133.5)" />
<use xlink:href="#f2_77" transform="matrix(11,0,0,11,591.6,133.5)" />
<use xlink:href="#f2_af" transform="matrix(11,0,0,11,599.7,133.5)" />
<use xlink:href="#f2_bf" transform="matrix(11,0,0,11,608.4,133.5)" />
<use xlink:href="#f2_b5" transform="matrix(11,0,0,11,613.9,133.5)" />
<use xlink:href="#f2_nt" transform="matrix(11,0,0,11,620.5,133.5)" />
<use xlink:href="#f0_3d" transform="matrix(11,0,0,11,82.5,165)" />
<use xlink:href="#f1_5" transform="matrix(11,0,0,11,110,165)" />
<use xlink:href="#f1_ae" transform="matrix(11,0,0,11,120.3,165)" />
<use xlink:href="#f1_7z" transform="matrix(11,0,0,11,133.9,165)" />
<use xlink:href="#f1_af" transform="matrix(11,0,0,11,142.3,165)" />
<use xlink:href="#f1_b5" transform="matrix(11,0,0,11,151.4,165)" />
<use xlink:href="#f1_77" transform="matrix(11,0,0,11,158,165)" />
<use xlink:href="#f1_a8" transform="matrix(11,0,0,11,166.5,165)" />
<use xlink:href="#f1_9q" transform="matrix(11,0,0,11,170.5,165)" />
<use xlink:href="#f1_b5" transform="matrix(11,0,0,11,174.5,165)" />
<use xlink:href="#f1_ae" transform="matrix(11,0,0,11,181.1,165)" />
<use xlink:href="#f2_9q" transform="matrix(11,0,0,11,198.8,165)" />
<use xlink:href="#f2_b5" transform="matrix(11,0,0,11,202.8,165)" />
<use xlink:href="#f2_77" transform="matrix(11,0,0,11,213.4,165)" />
<use xlink:href="#f2_b1" transform="matrix(11,0,0,11,225.5,165)" />
<use xlink:href="#f2_7z" transform="matrix(11,0,0,11,231.4,165)" />
<use xlink:href="#f2_a8" transform="matrix(11,0,0,11,239.8,165)" />
<use xlink:href="#f2_77" transform="matrix(11,0,0,11,243.8,165)" />
<use xlink:href="#f2_bf" transform="matrix(11,0,0,11,251.9,165)" />
<use xlink:href="#f2_9q" transform="matrix(11,0,0,11,257.4,165)" />
<use xlink:href="#f2_am" transform="matrix(11,0,0,11,261.4,165)" />
<use xlink:href="#f2_af" transform="matrix(11,0,0,11,270.2,165)" />
<use xlink:href="#f2_b5" transform="matrix(11,0,0,11,279,165)" />
<use xlink:href="#f2_9n" transform="matrix(11,0,0,11,285.6,165)" />
<use xlink:href="#f2_9q" transform="matrix(11,0,0,11,294.5,165)" />
<use xlink:href="#f2_ay" transform="matrix(11,0,0,11,298.4,165)" />
<use xlink:href="#f2_9q" transform="matrix(11,0,0,11,310.9,165)" />
<use xlink:href="#f2_af" transform="matrix(11,0,0,11,314.9,165)" />
<use xlink:href="#f2_ci" transform="matrix(11,0,0,11,327.7,165)" />
<use xlink:href="#f2_9n" transform="matrix(11,0,0,11,339.8,165)" />
<use xlink:href="#f2_9q" transform="matrix(11,0,0,11,348.6,165)" />
<use xlink:href="#f2_7l" transform="matrix(11,0,0,11,352.6,165)" />
<use xlink:href="#f2_9n" transform="matrix(11,0,0,11,359.6,165)" />
<use xlink:href="#f2_am" transform="matrix(11,0,0,11,372.4,165)" />
<use xlink:href="#f2_af" transform="matrix(11,0,0,11,381.2,165)" />
<use xlink:href="#f2_7z" transform="matrix(11,0,0,11,390,165)" />
<use xlink:href="#f2_b5" transform="matrix(11,0,0,11,402.5,165)" />
<use xlink:href="#f2_ay" transform="matrix(11,0,0,11,409.1,165)" />
<use xlink:href="#f2_7z" transform="matrix(11,0,0,11,417.9,165)" />
<use xlink:href="#f2_7l" transform="matrix(11,0,0,11,426.3,165)" />
<use xlink:href="#f2_9q" transform="matrix(11,0,0,11,433.3,165)" />
<use xlink:href="#f2_7z" transform="matrix(11,0,0,11,437.3,165)" />
<use xlink:href="#f2_b5" transform="matrix(11,0,0,11,445.7,165)" />
<use xlink:href="#f2_9q" transform="matrix(11,0,0,11,456,165)" />
<use xlink:href="#f2_b5" transform="matrix(11,0,0,11,460,165)" />
<use xlink:href="#f2_9n" transform="matrix(11,0,0,11,470.6,165)" />
<use xlink:href="#f2_77" transform="matrix(11,0,0,11,479,165)" />
<use xlink:href="#f2_b1" transform="matrix(11,0,0,11,487.1,165)" />
<use xlink:href="#f2_ae" transform="matrix(11,0,0,11,493,165)" />
<use xlink:href="#f2_7z" transform="matrix(11,0,0,11,506.5,165)" />
<use xlink:href="#f2_7v" transform="matrix(11,0,0,11,514.9,165)" />
<use xlink:href="#f2_77" transform="matrix(11,0,0,11,527.8,165)" />
<use xlink:href="#f2_af" transform="matrix(11,0,0,11,535.9,165)" />
<use xlink:href="#f2_7v" transform="matrix(11,0,0,11,544.6,165)" />
<use xlink:href="#f2_am" transform="matrix(11,0,0,11,557.5,165)" />
<use xlink:href="#f2_bf" transform="matrix(11,0,0,11,566.3,165)" />
<use xlink:href="#f2_9n" transform="matrix(11,0,0,11,571.8,165)" />
<use xlink:href="#f2_7z" transform="matrix(11,0,0,11,580.6,165)" />
<use xlink:href="#f2_b1" transform="matrix(11,0,0,11,589,165)" />
<use xlink:href="#f2_9q" transform="matrix(11,0,0,11,598.9,165)" />
<use xlink:href="#f2_af" transform="matrix(11,0,0,11,602.9,165)" />
<use xlink:href="#f2_bf" transform="matrix(11,0,0,11,611.7,165)" />
<use xlink:href="#f2_7z" transform="matrix(11,0,0,11,617.2,165)" />
<use xlink:href="#f2_b1" transform="matrix(11,0,0,11,625.6,165)" />
<use xlink:href="#f2_77" transform="matrix(11,0,0,11,631.5,165)" />
<use xlink:href="#f2_7l" transform="matrix(11,0,0,11,639.6,165)" />
<use xlink:href="#f2_bf" transform="matrix(11,0,0,11,646.5,165)" />
<use xlink:href="#f2_9q" transform="matrix(11,0,0,11,652,165)" />
<use xlink:href="#f2_af" transform="matrix(11,0,0,11,656,165)" />
<use xlink:href="#f2_9d" transform="matrix(11,0,0,11,664.9,165)" />
<use xlink:href="#f2_b5" transform="matrix(11,0,0,11,676.9,165)" />
<use xlink:href="#f2_ay" transform="matrix(11,0,0,11,683.5,165)" />
<use xlink:href="#f2_7z" transform="matrix(11,0,0,11,692.4,165)" />
<use xlink:href="#f2_7l" transform="matrix(11,0,0,11,700.8,165)" />
<use xlink:href="#f2_9q" transform="matrix(11,0,0,11,707.7,165)" />
<use xlink:href="#f2_7z" transform="matrix(11,0,0,11,711.7,165)" />
<use xlink:href="#f2_b5" transform="matrix(11,0,0,11,720.1,165)" />
<use xlink:href="#f2_9q" transform="matrix(11,0,0,11,730.4,165)" />
<use xlink:href="#f2_b5" transform="matrix(11,0,0,11,734.4,165)" />
<use xlink:href="#f2_af" transform="matrix(11,0,0,11,745.7,165)" />
<use xlink:href="#f2_7z" transform="matrix(11,0,0,11,754.5,165)" />
<use xlink:href="#f2_9q" transform="matrix(11,0,0,11,762.9,165)" />
<use xlink:href="#f2_bf" transform="matrix(11,0,0,11,767,165)" />
<use xlink:href="#f2_9n" transform="matrix(11,0,0,11,772.5,165)" />
<use xlink:href="#f2_7z" transform="matrix(11,0,0,11,781.3,165)" />
<use xlink:href="#f2_b1" transform="matrix(11,0,0,11,789.7,165)" />
<use xlink:href="#f2_9n" transform="matrix(11,0,0,11,799.6,165)" />
<use xlink:href="#f2_77" transform="matrix(11,0,0,11,808.4,165)" />
<use xlink:href="#f2_b1" transform="matrix(11,0,0,11,816.5,165)" />
<use xlink:href="#f2_ae" transform="matrix(11,0,0,11,822,165)" />
<use xlink:href="#f2_7z" transform="matrix(11,0,0,11,835.5,165)" />
<use xlink:href="#f2_7v" transform="matrix(11,0,0,11,843.9,165)" />
<use xlink:href="#f2_af" transform="matrix(11,0,0,11,856.4,165)" />
<use xlink:href="#f2_am" transform="matrix(11,0,0,11,865.2,165)" />
<use xlink:href="#f2_b1" transform="matrix(11,0,0,11,874,165)" />
<use xlink:href="#f2_7k" transform="matrix(11,0,0,11,110,196.2)" />
<use xlink:href="#f2_7z" transform="matrix(11,0,0,11,118.8,196.2)" />
<use xlink:href="#f2_af" transform="matrix(11,0,0,11,127.2,196.2)" />
<use xlink:href="#f2_7z" transform="matrix(11,0,0,11,136.1,196.2)" />
<use xlink:href="#f2_89" transform="matrix(11,0,0,11,144.5,196.2)" />
<use xlink:href="#f2_9q" transform="matrix(11,0,0,11,149.6,196.2)" />
<use xlink:href="#f2_bf" transform="matrix(11,0,0,11,153.7,196.2)" />
<use xlink:href="#f2_bf" transform="matrix(11,0,0,11,159.2,196.2)" />
<use xlink:href="#f2_7z" transform="matrix(11,0,0,11,164.7,196.2)" />
<use xlink:href="#f2_7v" transform="matrix(11,0,0,11,173.1,196.2)" />
<use xlink:href="#f2_nt" transform="matrix(11,0,0,11,181.9,196.2)" />
<use xlink:href="#f3_t" transform="matrix(8,0,0,8,818.2,1187.9)" />
</g>
<defs>
<path d="M273,157c0,0,-114,0,-193,80C80,237,0,317,0,431c0,0,0,112,80,192c0,0,79,80,193,80c0,0,113,0,192,-80c0,0,80,-80,80,-192c0,0,0,-114,-80,-194c0,0,-79,-80,-192,-80Z" 
id="f0_3d"
transform="scale(0.001,-0.001)" />

<path d="M198,-4c0,0,-27,0,-45,2c0,0,-18,2,-28,5c0,0,-11,4,-15,10c0,0,-4,6,-4,13V887c0,0,0,38,20,58c0,0,20,20,53,20H308c0,0,34,0,59,-6c0,0,24,-5,42,-18c0,0,18,-13,30,-35c0,0,12,-21,21,-52L669,279h3L889,852c0,0,9,32,21,53c0,0,11,22,27,35c0,0,15,14,36,19c0,0,21,6,48,6h132c0,0,21,0,35,-5c0,0,15,-5,24,-15c0,0,9,-11,14,-25c0,0,5,-15,5,-33V26c0,0,0,-7,-4,-13c0,0,-4,-6,-15,-10c0,0,-11,-3,-29,-5c0,0,-18,-2,-45,-2c0,0,-27,0,-45,2c0,0,-18,2,-28,5c0,0,-11,4,-15,10c0,0,-5,6,-5,13V813h-1L764,27c0,0,-3,-10,-10,-16c0,0,-6,-6,-18,-10c0,0,-12,-3,-29,-4c0,0,-18,-1,-44,-1c0,0,-25,0,-43,2c0,0,-18,2,-29,5c0,0,-12,4,-19,10c0,0,-6,6,-9,14L293,813h-2V26c0,0,0,-7,-4,-13c0,0,-4,-6,-15,-10c0,0,-11,-3,-29,-5c0,0,-17,-2,-45,-2Z" 
id="f1_1x"
transform="scale(0.001,-0.001)" />

<path d="M334,-17c0,0,-69,0,-115,22c0,0,-47,22,-76,61c0,0,-28,39,-41,90c0,0,-12,51,-12,127V691c0,0,0,7,4,13c0,0,4,5,15,9c0,0,11,4,29,6c0,0,19,2,45,2c0,0,28,0,46,-2c0,0,18,-2,29,-6c0,0,11,-4,15,-9c0,0,5,-6,5,-13V314c0,0,0,-52,6,-79c0,0,7,-28,21,-48c0,0,14,-20,35,-30c0,0,21,-11,49,-11c0,0,36,0,72,26c0,0,36,26,77,76V691c0,0,0,7,4,13c0,0,4,5,15,9c0,0,11,4,29,6c0,0,18,2,45,2c0,0,28,0,46,-2c0,0,18,-2,28,-6c0,0,11,-4,15,-9c0,0,5,-6,5,-13V25c0,0,0,-8,-4,-13c0,0,-4,-6,-13,-9c0,0,-10,-3,-25,-5c0,0,-15,-2,-38,-2c0,0,-25,0,-40,2c0,0,-16,2,-25,5c0,0,-9,3,-12,9c0,0,-4,5,-4,13v77c0,0,-55,-60,-112,-90c0,0,-57,-29,-118,-29Z" 
id="f1_c6"
transform="scale(0.001,-0.001)" />

<path d="M344,-14c0,0,-56,0,-97,14c0,0,-42,14,-69,43c0,0,-26,29,-39,74c0,0,-13,45,-13,106V563H47c0,0,-15,0,-22,18c0,0,-7,17,-7,58c0,0,0,22,1,37c0,0,2,15,6,24c0,0,4,8,9,12c0,0,6,4,13,4h79V864c0,0,0,8,4,14c0,0,4,6,15,10c0,0,11,4,29,6c0,0,19,2,46,2c0,0,27,0,46,-2c0,0,18,-2,28,-6c0,0,11,-4,15,-10c0,0,5,-6,5,-14V716H459c0,0,7,0,13,-4c0,0,6,-4,9,-12c0,0,4,-9,6,-24c0,0,2,-15,2,-37c0,0,0,-41,-8,-58c0,0,-7,-18,-21,-18H314V251c0,0,0,-54,17,-81c0,0,17,-27,61,-27c0,0,15,0,27,2c0,0,12,3,22,6c0,0,9,4,15,6c0,0,7,3,12,3c0,0,4,0,9,-3c0,0,4,-2,6,-10c0,0,2,-8,4,-21c0,0,2,-14,2,-35c0,0,0,-33,-4,-50c0,0,-4,-18,-11,-25c0,0,-7,-7,-20,-12c0,0,-13,-5,-31,-9c0,0,-17,-4,-38,-6c0,0,-20,-3,-41,-3Z" 
id="f1_bf"
transform="scale(0.001,-0.001)" />

<path d="M337,115c0,0,39,0,73,21c0,0,33,20,67,59V308H405c0,0,-45,0,-77,-7c0,0,-32,-6,-53,-20c0,0,-20,-13,-29,-32c0,0,-9,-19,-9,-44c0,0,0,-42,26,-66c0,0,27,-24,74,-24ZM296,-17c0,0,-53,0,-98,14c0,0,-44,13,-77,40c0,0,-32,28,-50,68c0,0,-18,40,-18,94c0,0,0,58,23,101c0,0,22,43,68,71c0,0,45,28,112,42c0,0,67,13,156,13h65v40c0,0,0,32,-6,55c0,0,-7,24,-21,39c0,0,-15,16,-39,23c0,0,-24,8,-60,8c0,0,-47,0,-84,-11c0,0,-37,-10,-66,-23c0,0,-28,-13,-47,-23c0,0,-19,-11,-31,-11c0,0,-9,0,-15,5c0,0,-6,6,-10,15c0,0,-5,10,-7,24c0,0,-2,14,-2,31c0,0,0,23,4,37c0,0,3,13,14,24c0,0,10,11,36,24c0,0,27,13,62,25c0,0,35,11,76,18c0,0,42,7,86,7c0,0,78,0,134,-15c0,0,55,-15,91,-47c0,0,36,-32,53,-82c0,0,16,-50,16,-118V23c0,0,0,-11,-7,-17c0,0,-8,-6,-24,-7c0,0,-16,-3,-47,-3c0,0,-34,0,-49,3c0,0,-15,1,-21,7c0,0,-7,6,-7,17V76C506,76,465,32,412,7c0,0,-52,-24,-116,-24Z" 
id="f1_77"
transform="scale(0.001,-0.001)" />

<path d="M188,-4c0,0,-28,0,-46,2c0,0,-18,2,-28,5c0,0,-11,3,-16,9c0,0,-4,5,-4,13v981c0,0,0,8,4,14c0,0,5,6,16,10c0,0,10,4,28,6c0,0,18,2,46,2c0,0,27,0,45,-2c0,0,18,-2,29,-6c0,0,11,-4,15,-10c0,0,5,-6,5,-14V25c0,0,0,-8,-5,-13c0,0,-4,-6,-15,-9c0,0,-11,-3,-29,-5c0,0,-18,-2,-45,-2Z" 
id="f1_a8"
transform="scale(0.001,-0.001)" />

<path d="M188,-4c0,0,-28,0,-46,2c0,0,-18,2,-28,5c0,0,-11,3,-16,9c0,0,-4,5,-4,13V689c0,0,0,8,4,13c0,0,5,6,16,10c0,0,10,4,28,6c0,0,18,3,46,3c0,0,27,0,45,-3c0,0,18,-2,29,-6c0,0,11,-4,15,-10c0,0,5,-5,5,-13V25c0,0,0,-8,-5,-13c0,0,-4,-6,-15,-9c0,0,-11,-3,-29,-5c0,0,-18,-2,-45,-2Zm-1,820c0,0,-63,0,-85,21c0,0,-22,21,-22,75c0,0,0,57,23,79c0,0,23,22,86,22c0,0,63,0,85,-21c0,0,22,-21,22,-76c0,0,0,-56,-23,-78c0,0,-23,-22,-86,-22Z" 
id="f1_9q"
transform="scale(0.001,-0.001)" />

<path d="M275,-17c0,0,-37,0,-71,6c0,0,-34,6,-61,13c0,0,-27,9,-45,18c0,0,-18,9,-26,17c0,0,-8,8,-13,25c0,0,-4,17,-4,49c0,0,0,22,1,35c0,0,2,13,5,21c0,0,3,8,7,10c0,0,5,3,11,3c0,0,9,0,25,-9c0,0,16,-10,40,-21c0,0,24,-11,55,-21c0,0,32,-10,72,-10c0,0,26,0,46,5c0,0,19,6,34,15c0,0,14,10,22,25c0,0,7,15,7,34c0,0,0,23,-13,39c0,0,-14,16,-37,28c0,0,-23,11,-52,22c0,0,-28,10,-58,23c0,0,-31,13,-59,29c0,0,-29,17,-52,41c0,0,-23,23,-37,57c0,0,-13,34,-13,81c0,0,0,47,18,87c0,0,19,40,54,69c0,0,35,28,86,44c0,0,50,15,113,15c0,0,31,0,61,-4c0,0,29,-5,53,-11c0,0,24,-7,40,-15c0,0,17,-7,24,-13c0,0,7,-6,10,-11c0,0,3,-6,4,-14c0,0,2,-7,3,-19c0,0,1,-12,1,-29c0,0,0,-20,-1,-33c0,0,-1,-12,-4,-20c0,0,-2,-7,-7,-10c0,0,-4,-3,-10,-3c0,0,-7,0,-21,8c0,0,-14,8,-36,17c0,0,-21,9,-49,17c0,0,-28,7,-64,7c0,0,-25,0,-44,-5c0,0,-19,-5,-30,-15c0,0,-12,-9,-18,-22c0,0,-6,-14,-6,-28c0,0,0,-24,14,-39c0,0,14,-16,37,-28c0,0,23,-12,53,-22c0,0,29,-11,59,-23c0,0,31,-12,60,-29c0,0,30,-16,53,-40c0,0,23,-24,37,-57c0,0,14,-33,14,-79c0,0,0,-57,-21,-100c0,0,-21,-43,-60,-72c0,0,-39,-29,-92,-43c0,0,-53,-15,-115,-15Z" 
id="f1_b5"
transform="scale(0.001,-0.001)" />

<path d="M188,-4c0,0,-28,0,-46,2c0,0,-18,2,-28,5c0,0,-11,3,-16,9c0,0,-4,5,-4,13V691c0,0,0,7,4,13c0,0,3,5,13,9c0,0,10,4,25,6c0,0,15,2,38,2c0,0,24,0,40,-2c0,0,15,-2,24,-6c0,0,9,-4,12,-9c0,0,4,-6,4,-13V614c0,0,55,60,110,89c0,0,55,30,115,30c0,0,41,0,74,-8c0,0,33,-9,59,-25c0,0,26,-16,44,-38c0,0,19,-23,32,-50c0,0,30,32,58,55c0,0,29,23,57,38c0,0,28,14,56,21c0,0,28,7,57,7c0,0,66,0,112,-22c0,0,45,-22,73,-61c0,0,28,-38,40,-90c0,0,12,-51,12,-109V25c0,0,0,-8,-5,-13c0,0,-4,-6,-15,-9c0,0,-10,-3,-28,-5c0,0,-18,-2,-46,-2c0,0,-28,0,-46,2c0,0,-18,2,-29,5c0,0,-11,3,-15,9c0,0,-4,6,-4,13V420c0,0,0,34,-6,61c0,0,-7,28,-20,48c0,0,-13,19,-32,30c0,0,-20,11,-47,11c0,0,-34,0,-68,-26c0,0,-34,-26,-74,-76V25c0,0,0,-7,-5,-13c0,0,-4,-6,-15,-9c0,0,-11,-3,-29,-5c0,0,-18,-2,-45,-2c0,0,-27,0,-45,2c0,0,-18,2,-29,5c0,0,-11,3,-16,9c0,0,-4,6,-4,13V420c0,0,0,34,-6,61c0,0,-7,28,-19,48c0,0,-13,19,-33,30c0,0,-21,11,-48,11c0,0,-34,0,-68,-26c0,0,-35,-26,-74,-76V25c0,0,0,-7,-5,-13c0,0,-4,-6,-15,-9c0,0,-11,-3,-29,-5c0,0,-18,-2,-45,-2Z" 
id="f1_ae"
transform="scale(0.001,-0.001)" />

<path d="M176,-4c0,0,-18,0,-30,2c0,0,-12,1,-19,3c0,0,-7,3,-10,7c0,0,-3,4,-3,10V690c0,0,0,5,3,9c0,0,3,5,10,8c0,0,7,3,19,4c0,0,12,2,30,2c0,0,18,0,30,-2c0,0,12,-1,19,-4c0,0,7,-3,9,-8c0,0,3,-4,3,-9V18c0,0,0,-6,-3,-10c0,0,-2,-4,-9,-7c0,0,-7,-2,-19,-3c0,0,-12,-2,-30,-2Zm-1,846c0,0,-43,0,-59,15c0,0,-16,15,-16,58c0,0,0,43,16,59c0,0,17,16,61,16c0,0,43,0,59,-16c0,0,16,-15,16,-58c0,0,0,-43,-16,-58c0,0,-17,-16,-61,-16Z" 
id="f2_9q"
transform="scale(0.001,-0.001)" />

<path d="M272,-13c0,0,-35,0,-68,6c0,0,-32,6,-58,13c0,0,-26,9,-44,18c0,0,-17,10,-26,17c0,0,-8,8,-12,21c0,0,-3,14,-3,37c0,0,0,14,1,24c0,0,2,9,4,15c0,0,2,6,6,9c0,0,4,3,10,3c0,0,8,0,24,-11c0,0,16,-10,39,-22c0,0,24,-12,56,-22c0,0,32,-10,74,-10c0,0,31,0,56,7c0,0,26,6,44,19c0,0,19,14,29,34c0,0,10,20,10,47c0,0,0,29,-14,48c0,0,-15,19,-39,34c0,0,-24,15,-53,27c0,0,-30,11,-62,24c0,0,-32,13,-62,29c0,0,-30,16,-54,39c0,0,-24,23,-38,55c0,0,-15,32,-15,77c0,0,0,40,16,76c0,0,15,36,45,63c0,0,31,28,77,44c0,0,46,17,107,17c0,0,27,0,54,-5c0,0,26,-5,48,-11c0,0,22,-7,37,-15c0,0,15,-8,23,-14c0,0,8,-6,11,-11c0,0,2,-4,3,-10c0,0,1,-5,2,-14c0,0,2,-8,2,-20c0,0,0,-12,-2,-22c0,0,-1,-9,-3,-15c0,0,-3,-6,-7,-8c0,0,-3,-3,-8,-3c0,0,-7,0,-19,8c0,0,-13,8,-33,18c0,0,-20,9,-47,17c0,0,-28,9,-63,9c0,0,-31,0,-55,-7c0,0,-24,-7,-39,-20c0,0,-15,-13,-23,-31c0,0,-8,-18,-8,-39c0,0,0,-29,15,-49c0,0,15,-20,39,-35c0,0,24,-15,54,-27c0,0,31,-11,62,-24c0,0,32,-13,63,-29c0,0,31,-15,55,-38c0,0,24,-22,38,-53c0,0,15,-32,15,-75c0,0,0,-51,-19,-92c0,0,-19,-40,-54,-68C463,42,428,15,379,1c0,0,-48,-14,-107,-14Z" 
id="f2_b5"
transform="scale(0.001,-0.001)" />

<path d="M321,82c0,0,48,0,90,25c0,0,41,24,87,75V325H392c0,0,-50,0,-88,-9c0,0,-37,-9,-62,-25c0,0,-24,-17,-36,-41c0,0,-11,-23,-11,-54c0,0,0,-52,33,-83c0,0,33,-31,93,-31ZM301,-13c0,0,-53,0,-96,13c0,0,-43,14,-73,40c0,0,-30,26,-47,64c0,0,-17,38,-17,87c0,0,0,56,24,98c0,0,23,42,66,69c0,0,43,28,106,42c0,0,63,14,141,14h93v52c0,0,0,39,-9,69c0,0,-8,30,-26,50c0,0,-18,20,-47,30c0,0,-30,10,-72,10c0,0,-46,0,-82,-11c0,0,-36,-11,-63,-24c0,0,-27,-13,-46,-24c0,0,-18,-11,-27,-11c0,0,-6,0,-10,3c0,0,-5,3,-8,9c0,0,-3,6,-5,16c0,0,-1,9,-1,20c0,0,0,19,2,30c0,0,3,11,13,20c0,0,10,10,35,23c0,0,24,13,56,24c0,0,32,10,70,17c0,0,38,8,77,8c0,0,73,0,123,-17c0,0,51,-16,82,-48c0,0,32,-32,46,-79c0,0,14,-47,14,-110V18c0,0,0,-9,-6,-14c0,0,-6,-4,-16,-6c0,0,-11,-2,-31,-2c0,0,-19,0,-31,2c0,0,-12,2,-17,6c0,0,-5,5,-5,13V85c0,0,-44,-47,-98,-73c0,0,-54,-25,-115,-25Z" 
id="f2_77"
transform="scale(0.001,-0.001)" />

<path d="M176,-4c0,0,-18,0,-30,2c0,0,-12,1,-19,3c0,0,-7,3,-10,7c0,0,-3,4,-3,10V690c0,0,0,6,3,10c0,0,2,4,9,7c0,0,6,4,17,5c0,0,10,1,27,1c0,0,17,0,28,-1c0,0,10,-1,16,-5c0,0,6,-3,9,-7c0,0,3,-4,3,-10V601c0,0,56,64,112,94c0,0,57,30,114,30c0,0,67,0,113,-23c0,0,46,-23,74,-61c0,0,29,-38,41,-89c0,0,12,-52,12,-123V18c0,0,0,-6,-3,-10c0,0,-3,-4,-9,-7c0,0,-7,-2,-19,-3c0,0,-12,-2,-30,-2c0,0,-19,0,-30,2c0,0,-12,1,-19,3c0,0,-7,3,-10,7c0,0,-3,4,-3,10V412c0,0,0,58,-9,93c0,0,-9,35,-26,61c0,0,-17,25,-44,38c0,0,-27,14,-63,14c0,0,-46,0,-93,-33c0,0,-46,-33,-97,-96V18c0,0,0,-6,-3,-10c0,0,-2,-4,-9,-7c0,0,-7,-2,-19,-3c0,0,-12,-2,-30,-2Z" 
id="f2_af"
transform="scale(0.001,-0.001)" />

<path d="M339,-13c0,0,-52,0,-90,13c0,0,-37,14,-61,42c0,0,-24,28,-34,71c0,0,-11,43,-11,101V607H49c0,0,-11,0,-18,12c0,0,-7,12,-7,39c0,0,0,14,2,24c0,0,2,10,5,16c0,0,3,7,8,9c0,0,5,3,11,3h93V870c0,0,0,5,2,9c0,0,3,5,10,8c0,0,7,4,19,5c0,0,12,2,30,2c0,0,19,0,31,-2c0,0,11,-1,18,-5c0,0,7,-3,10,-8c0,0,3,-4,3,-9V710H438c0,0,6,0,10,-3c0,0,5,-2,8,-9c0,0,4,-6,5,-16c0,0,1,-10,1,-24c0,0,0,-27,-6,-39c0,0,-7,-12,-18,-12H266V232c0,0,0,-69,20,-105c0,0,21,-35,74,-35c0,0,17,0,30,3c0,0,14,4,24,7c0,0,10,4,18,7c0,0,7,4,13,4c0,0,4,0,7,-2c0,0,4,-2,6,-7c0,0,2,-5,3,-14c0,0,1,-9,1,-23c0,0,0,-22,-2,-34c0,0,-3,-13,-9,-19c0,0,-6,-6,-18,-11c0,0,-12,-4,-28,-8c0,0,-15,-3,-32,-5c0,0,-17,-3,-34,-3Z" 
id="f2_bf"
transform="scale(0.001,-0.001)" />

<path d="M564,420c0,0,2,98,-43,153c0,0,-46,56,-134,56c0,0,-46,0,-80,-18c0,0,-35,-17,-58,-45c0,0,-23,-29,-36,-67c0,0,-12,-37,-14,-79ZM405,-13c0,0,-83,0,-145,22c0,0,-62,24,-105,69c0,0,-42,46,-64,114c0,0,-22,69,-22,160c0,0,0,87,23,156c0,0,22,69,64,117c0,0,43,48,102,74c0,0,60,26,134,26c0,0,79,0,135,-26c0,0,55,-25,91,-68c0,0,36,-43,53,-101c0,0,16,-58,16,-123V384c0,0,0,-29,-14,-41c0,0,-15,-13,-33,-13H199c0,0,0,-56,11,-100c0,0,12,-45,38,-77c0,0,26,-33,68,-50c0,0,41,-17,102,-17c0,0,48,0,85,8c0,0,37,8,65,17c0,0,27,10,44,18c0,0,18,8,27,8c0,0,5,0,9,-3c0,0,4,-2,7,-8c0,0,2,-5,3,-14c0,0,1,-9,1,-23c0,0,0,-9,-1,-16c0,0,0,-8,-2,-13c0,0,-1,-6,-3,-10c0,0,-3,-5,-7,-9c0,0,-4,-4,-24,-13c0,0,-20,-10,-53,-18c0,0,-32,-9,-74,-16c0,0,-42,-7,-90,-7Z" 
id="f2_7z"
transform="scale(0.001,-0.001)" />

<path d="M176,-4c0,0,-18,0,-30,2c0,0,-12,1,-19,3c0,0,-7,3,-10,7c0,0,-3,4,-3,10V690c0,0,0,6,3,10c0,0,2,4,9,7c0,0,6,4,17,5c0,0,10,1,27,1c0,0,17,0,28,-1c0,0,10,-1,16,-5c0,0,6,-3,9,-7c0,0,3,-4,3,-10V592c0,0,27,41,51,66c0,0,25,26,46,41c0,0,22,14,43,20c0,0,21,6,43,6c0,0,10,0,22,-2c0,0,12,-1,26,-4c0,0,13,-3,24,-6c0,0,11,-4,15,-8c0,0,5,-4,6,-7c0,0,2,-3,3,-9c0,0,1,-5,1,-15c0,0,0,-10,0,-27c0,0,0,-16,0,-28c0,0,-1,-11,-3,-17c0,0,-2,-6,-6,-10c0,0,-3,-3,-9,-3c0,0,-6,0,-15,3c0,0,-8,4,-19,7c0,0,-11,3,-24,6c0,0,-14,3,-29,3c0,0,-19,0,-37,-7c0,0,-18,-8,-37,-25c0,0,-20,-18,-42,-46c0,0,-21,-29,-48,-70V18c0,0,0,-6,-3,-10c0,0,-2,-4,-9,-7c0,0,-7,-2,-19,-3c0,0,-12,-2,-30,-2Z" 
id="f2_b1"
transform="scale(0.001,-0.001)" />

<path d="M367,-13c0,0,-73,0,-129,23c0,0,-56,24,-93,70c0,0,-38,46,-58,112c0,0,-20,67,-20,154c0,0,0,99,25,171c0,0,24,71,66,116c0,0,42,46,99,68c0,0,58,22,124,22c0,0,32,0,62,-6c0,0,31,-6,56,-16c0,0,25,-10,45,-22c0,0,20,-13,29,-22c0,0,9,-9,12,-14c0,0,3,-5,6,-13c0,0,2,-7,3,-16c0,0,0,-9,0,-22c0,0,0,-29,-6,-41c0,0,-7,-11,-17,-11c0,0,-11,0,-25,12c0,0,-15,12,-37,27c0,0,-23,15,-55,28c0,0,-31,12,-75,12c0,0,-88,0,-136,-68c0,0,-47,-68,-47,-198c0,0,0,-65,12,-114c0,0,12,-49,36,-81c0,0,24,-33,59,-49c0,0,35,-16,79,-16c0,0,43,0,75,13c0,0,32,14,56,30c0,0,23,16,39,29c0,0,16,13,25,13c0,0,5,0,9,-3c0,0,4,-3,7,-10c0,0,2,-7,3,-18c0,0,1,-11,1,-26c0,0,0,-12,0,-22c0,0,-1,-9,-3,-15c0,0,-2,-7,-4,-12c0,0,-3,-4,-12,-14c0,0,-10,-9,-32,-23c0,0,-22,-14,-50,-24C496,11,468,0,435,-6c0,0,-33,-7,-68,-7Z" 
id="f2_7l"
transform="scale(0.001,-0.001)" />

<path d="M401,90c0,0,54,0,93,19c0,0,40,20,65,55c0,0,26,35,37,84c0,0,12,48,12,106c0,0,0,55,-10,104c0,0,-10,48,-33,85c0,0,-23,36,-62,58c0,0,-40,21,-99,21c0,0,-54,0,-93,-20c0,0,-39,-19,-65,-54c0,0,-25,-36,-37,-85c0,0,-12,-48,-12,-106c0,0,0,-55,10,-103c0,0,10,-49,33,-85c0,0,24,-36,63,-58c0,0,39,-21,98,-21ZM395,-13c0,0,-82,0,-144,24c0,0,-61,25,-102,72c0,0,-41,47,-61,114c0,0,-21,67,-21,152c0,0,0,82,22,151c0,0,21,69,64,119c0,0,43,50,107,78c0,0,64,28,150,28c0,0,82,0,144,-25c0,0,61,-25,102,-72c0,0,41,-47,62,-114c0,0,20,-67,20,-151c0,0,0,-83,-21,-152c0,0,-22,-69,-65,-119C652,92,609,42,545,14c0,0,-65,-27,-150,-27Z" 
id="f2_am"
transform="scale(0.001,-0.001)" />

<path d="M324,-4c0,0,-23,0,-37,2c0,0,-15,1,-24,3c0,0,-9,3,-14,8c0,0,-4,6,-7,13L46,660c0,0,-4,11,-5,18c0,0,-2,8,-2,13c0,0,0,7,3,11c0,0,3,4,10,7c0,0,8,2,19,3c0,0,12,1,30,1c0,0,20,0,33,-1c0,0,13,-1,20,-4c0,0,6,-3,9,-8c0,0,3,-4,5,-11L330,136l2,-7l1,7L482,689c0,0,1,7,5,11c0,0,3,5,10,8c0,0,6,3,18,4c0,0,12,1,31,1c0,0,18,0,29,-1c0,0,12,-1,18,-4c0,0,7,-3,10,-7c0,0,3,-5,5,-11L768,136l1,-7l1,7L930,689c0,0,1,7,5,11c0,0,3,5,10,8c0,0,7,3,20,4c0,0,12,1,31,1c0,0,18,0,29,-1c0,0,11,-1,17,-4c0,0,6,-3,9,-6c0,0,3,-4,3,-11c0,0,0,-5,-2,-13c0,0,-1,-7,-5,-18L849,22c0,0,-2,-8,-7,-13c0,0,-5,-6,-13,-9c0,0,-9,-2,-24,-3c0,0,-15,-1,-37,-1c0,0,-23,0,-39,2c0,0,-15,1,-25,3c0,0,-9,3,-14,8c0,0,-4,6,-6,13L543,510l-2,6l-2,-6L409,22c0,0,-3,-8,-7,-13c0,0,-5,-6,-15,-9c0,0,-10,-2,-25,-3c0,0,-15,-1,-38,-1Z" 
id="f2_ci"
transform="scale(0.001,-0.001)" />

<path d="M176,-4c0,0,-18,0,-30,2c0,0,-12,1,-19,3c0,0,-7,3,-10,7c0,0,-3,4,-3,10v997c0,0,0,6,3,11c0,0,3,4,10,7c0,0,7,3,19,5c0,0,12,1,30,1c0,0,18,0,30,-1c0,0,12,-2,19,-5c0,0,7,-3,9,-7c0,0,3,-5,3,-10V614c0,0,53,56,107,83c0,0,54,28,108,28c0,0,67,0,113,-23c0,0,46,-23,74,-61c0,0,29,-38,41,-89c0,0,12,-52,12,-124V18c0,0,0,-6,-3,-10c0,0,-3,-4,-9,-7c0,0,-7,-2,-19,-3c0,0,-12,-2,-30,-2c0,0,-19,0,-30,2c0,0,-12,1,-19,3c0,0,-7,3,-10,7c0,0,-3,4,-3,10V412c0,0,0,58,-9,93c0,0,-9,35,-26,61c0,0,-17,25,-44,38c0,0,-27,14,-63,14c0,0,-46,0,-93,-33c0,0,-46,-33,-97,-96V18c0,0,0,-6,-3,-10c0,0,-2,-4,-9,-7c0,0,-7,-2,-19,-3c0,0,-12,-2,-30,-2Z" 
id="f2_9n"
transform="scale(0.001,-0.001)" />

<path d="M431,92c0,0,46,0,79,22c0,0,33,23,53,60c0,0,21,37,30,83c0,0,10,46,10,93c0,0,0,51,-8,100c0,0,-8,49,-28,86c0,0,-19,37,-51,60c0,0,-32,23,-80,23c0,0,-24,0,-47,-7c0,0,-23,-7,-47,-22c0,0,-24,-16,-50,-41c0,0,-25,-24,-55,-62V219c0,0,51,-62,98,-95c0,0,46,-32,96,-32ZM443,-13c0,0,-32,0,-59,7c0,0,-27,6,-53,19c0,0,-26,14,-52,36c0,0,-27,22,-56,52V18c0,0,0,-6,-3,-10c0,0,-3,-5,-9,-7c0,0,-7,-2,-17,-3c0,0,-10,-2,-26,-2c0,0,-15,0,-25,2c0,0,-11,1,-17,3c0,0,-7,2,-9,7c0,0,-3,4,-3,10v997c0,0,0,6,3,11c0,0,3,4,10,7c0,0,7,3,19,5c0,0,12,1,30,1c0,0,18,0,30,-1c0,0,12,-2,19,-5c0,0,7,-3,9,-7c0,0,3,-5,3,-10V614c0,0,30,31,58,52c0,0,28,20,55,34c0,0,27,13,54,19c0,0,27,6,57,6c0,0,73,0,125,-30c0,0,52,-29,84,-78c0,0,32,-48,47,-114c0,0,15,-66,15,-139c0,0,0,-87,-19,-157c0,0,-19,-70,-56,-119c0,0,-37,-49,-90,-76c0,0,-54,-25,-124,-25Z" 
id="f2_7k"
transform="scale(0.001,-0.001)" />

<path d="M429,92c0,0,47,0,80,22c0,0,33,23,54,60c0,0,20,38,30,84c0,0,10,46,10,93c0,0,0,52,-8,100c0,0,-8,48,-27,86c0,0,-19,37,-51,60c0,0,-32,22,-80,22c0,0,-24,0,-47,-7c0,0,-23,-7,-47,-23c0,0,-24,-15,-50,-40c0,0,-26,-25,-56,-62V220c0,0,51,-62,97,-95c0,0,45,-33,95,-33ZM176,-271c0,0,-18,0,-30,2c0,0,-12,1,-19,4c0,0,-7,3,-10,8c0,0,-3,4,-3,10V690c0,0,0,6,3,10c0,0,2,5,9,8c0,0,6,3,17,4c0,0,10,1,25,1c0,0,16,0,26,-1c0,0,10,-1,17,-4c0,0,6,-3,9,-7c0,0,3,-4,3,-11V601c0,0,30,31,59,54c0,0,28,23,57,39c0,0,28,15,59,23c0,0,30,8,63,8c0,0,74,0,125,-29c0,0,52,-28,84,-77c0,0,32,-50,47,-115c0,0,15,-65,15,-139c0,0,0,-88,-19,-158c0,0,-19,-70,-56,-119c0,0,-37,-49,-91,-75c0,0,-55,-26,-125,-26c0,0,-30,0,-55,6c0,0,-25,6,-50,18c0,0,-24,13,-48,32c0,0,-24,19,-51,46V-247c0,0,0,-6,-3,-10c0,0,-2,-5,-9,-8c0,0,-7,-3,-19,-4c0,0,-12,-2,-30,-2Z" 
id="f2_ay"
transform="scale(0.001,-0.001)" />

<path d="M346,-177c0,0,56,0,94,11c0,0,37,11,60,28c0,0,24,18,34,41c0,0,10,23,10,49c0,0,0,43,-36,65c0,0,-35,23,-95,25L239,48c0,0,-24,-19,-39,-35c0,0,-15,-16,-24,-31c0,0,-9,-16,-12,-30c0,0,-4,-15,-4,-31c0,0,0,-48,49,-73c0,0,50,-25,137,-25Zm-6,512c0,0,36,0,63,12c0,0,27,12,44,32c0,0,18,21,26,48c0,0,9,27,9,56c0,0,0,69,-38,107c0,0,-37,39,-107,39c0,0,-35,0,-62,-12c0,0,-26,-12,-44,-33c0,0,-17,-21,-26,-48c0,0,-8,-28,-8,-58c0,0,0,-66,37,-104c0,0,38,-39,106,-39Zm0,-606c0,0,-81,0,-138,14c0,0,-57,14,-94,38c0,0,-36,24,-52,57c0,0,-17,33,-17,72c0,0,0,24,6,47c0,0,6,24,18,43c0,0,13,21,31,40c0,0,18,19,42,38c0,0,-36,19,-54,47c0,0,-17,28,-17,61c0,0,0,45,18,81c0,0,19,36,46,64c0,0,-23,28,-36,62c0,0,-14,35,-14,84c0,0,0,58,20,104c0,0,19,45,53,77c0,0,35,31,83,48c0,0,48,17,105,17c0,0,30,0,57,-4c0,0,26,-3,49,-9H649c0,0,13,0,19,-12c0,0,7,-13,7,-38c0,0,0,-26,-7,-37c0,0,-7,-12,-19,-12H553c0,0,26,-27,37,-60c0,0,10,-32,10,-68c0,0,0,-58,-18,-103c0,0,-19,-45,-54,-76c0,0,-34,-31,-82,-47c0,0,-48,-16,-106,-16c0,0,-41,0,-78,10c0,0,-37,11,-57,28c0,0,-14,-14,-22,-31c0,0,-9,-17,-9,-39c0,0,0,-27,24,-44c0,0,25,-17,65,-18l175,-8c0,0,50,-1,92,-14c0,0,41,-12,72,-35c0,0,31,-22,48,-55c0,0,17,-34,17,-76c0,0,0,-47,-20,-88c0,0,-19,-42,-59,-74c0,0,-40,-31,-102,-50c0,0,-61,-18,-146,-18Z" 
id="f2_9d"
transform="scale(0.001,-0.001)" />

<path d="M176,-4c0,0,-18,0,-30,2c0,0,-12,1,-19,3c0,0,-7,3,-10,7c0,0,-3,4,-3,10v997c0,0,0,6,3,11c0,0,3,4,10,7c0,0,7,3,19,5c0,0,12,1,30,1c0,0,18,0,30,-1c0,0,12,-2,19,-5c0,0,7,-3,9,-7c0,0,3,-5,3,-11V18c0,0,0,-6,-3,-10c0,0,-2,-4,-9,-7c0,0,-7,-2,-19,-3c0,0,-12,-2,-30,-2Z" 
id="f2_a8"
transform="scale(0.001,-0.001)" />

<path d="M209,-4c0,0,-18,0,-30,2c0,0,-12,1,-19,3c0,0,-7,3,-10,7c0,0,-3,4,-3,10V607H52c0,0,-12,0,-18,12c0,0,-6,12,-6,39c0,0,0,14,2,24c0,0,1,10,4,16c0,0,3,7,8,9c0,0,4,3,10,3h95v69c0,0,0,71,13,121c0,0,13,50,40,82c0,0,27,33,67,48c0,0,41,15,96,15c0,0,26,0,51,-5c0,0,25,-4,38,-10c0,0,13,-6,18,-10c0,0,4,-5,7,-12c0,0,3,-7,5,-17c0,0,1,-10,1,-24c0,0,0,-15,-2,-23c0,0,-1,-9,-3,-14c0,0,-2,-5,-5,-7c0,0,-3,-2,-8,-2c0,0,-5,0,-13,3c0,0,-7,4,-19,8c0,0,-11,4,-26,7c0,0,-15,4,-36,4c0,0,-27,0,-47,-9c0,0,-19,-9,-31,-28c0,0,-12,-19,-17,-50c0,0,-5,-30,-5,-73V710H421c0,0,6,0,10,-3c0,0,4,-2,7,-9c0,0,4,-6,6,-16c0,0,2,-10,2,-24c0,0,0,-27,-7,-39c0,0,-7,-12,-18,-12H271V18c0,0,0,-6,-3,-10c0,0,-3,-4,-11,-7c0,0,-7,-2,-19,-3c0,0,-12,-2,-29,-2Z" 
id="f2_89"
transform="scale(0.001,-0.001)" />

<path d="M192,-6c0,0,-45,0,-62,16c0,0,-18,18,-18,69c0,0,0,53,18,71c0,0,18,17,64,17c0,0,45,0,62,-17c0,0,17,-17,17,-69c0,0,0,-53,-18,-70c0,0,-17,-17,-63,-17Z" 
id="f2_nt"
transform="scale(0.001,-0.001)" />

<path d="M176,0c0,0,-17,0,-33,12c0,0,-15,11,-15,40V946c0,0,0,6,3,11c0,0,3,4,11,7c0,0,7,2,20,4c0,0,12,2,30,2c0,0,19,0,31,-2c0,0,13,-2,20,-4c0,0,7,-3,10,-7c0,0,3,-5,3,-11V111H603c0,0,6,0,11,-3c0,0,5,-3,8,-10c0,0,4,-6,5,-16c0,0,2,-11,2,-26c0,0,0,-15,-2,-25c0,0,-1,-10,-5,-17c0,0,-3,-7,-8,-11c0,0,-5,-3,-11,-3Z" 
id="f2_1r"
transform="scale(0.001,-0.001)" />

<path d="M366,92c0,0,25,0,48,7c0,0,22,6,46,22c0,0,24,16,50,41c0,0,26,24,56,61V492c0,0,-51,62,-97,94c0,0,-47,33,-98,33c0,0,-47,0,-79,-22c0,0,-33,-23,-54,-59c0,0,-20,-37,-30,-83c0,0,-9,-47,-9,-94c0,0,0,-51,8,-100c0,0,8,-48,27,-86c0,0,19,-38,52,-60c0,0,32,-23,80,-23ZM345,-13c0,0,-74,0,-127,28c0,0,-52,29,-84,78c0,0,-33,49,-48,115c0,0,-15,66,-15,139c0,0,0,86,19,156c0,0,19,70,55,119c0,0,37,50,91,76c0,0,54,27,125,27c0,0,59,0,108,-26c0,0,49,-26,97,-76v390c0,0,0,5,2,10c0,0,3,4,10,7c0,0,8,3,19,5c0,0,12,1,30,1c0,0,18,0,30,-1c0,0,12,-2,19,-5c0,0,7,-3,10,-7c0,0,3,-5,3,-10V18c0,0,0,-6,-2,-10c0,0,-3,-5,-9,-7c0,0,-7,-2,-17,-3c0,0,-10,-2,-25,-2c0,0,-16,0,-26,2c0,0,-11,1,-18,3c0,0,-6,2,-9,7c0,0,-3,4,-3,10v90c0,0,-53,-58,-110,-90c0,0,-58,-31,-125,-31Z" 
id="f2_7v"
transform="scale(0.001,-0.001)" />

<path d="M176,-4c0,0,-18,0,-30,2c0,0,-12,1,-19,3c0,0,-7,3,-10,7c0,0,-3,4,-3,10V690c0,0,0,6,3,10c0,0,2,4,9,7c0,0,6,4,17,5c0,0,10,1,27,1c0,0,17,0,28,-1c0,0,10,-1,16,-5c0,0,6,-3,9,-7c0,0,3,-4,3,-10V601c0,0,56,64,110,94c0,0,53,30,108,30c0,0,42,0,75,-10c0,0,33,-10,58,-28c0,0,26,-17,44,-42c0,0,18,-24,30,-55c0,0,33,37,63,63c0,0,31,26,59,41c0,0,28,16,54,23c0,0,27,8,53,8c0,0,65,0,109,-23c0,0,44,-23,71,-61c0,0,28,-38,39,-89c0,0,12,-52,12,-108V18c0,0,0,-6,-3,-10c0,0,-3,-4,-10,-7c0,0,-7,-2,-19,-3c0,0,-12,-2,-29,-2c0,0,-19,0,-31,2c0,0,-12,1,-19,3c0,0,-7,3,-10,7c0,0,-3,4,-3,10V427c0,0,0,43,-8,78c0,0,-7,35,-23,61c0,0,-17,25,-42,38c0,0,-25,14,-60,14c0,0,-42,0,-85,-33c0,0,-43,-33,-94,-96V18c0,0,0,-6,-3,-10c0,0,-3,-4,-11,-7c0,0,-7,-2,-19,-3c0,0,-11,-2,-29,-2c0,0,-18,0,-30,2c0,0,-12,1,-19,3c0,0,-7,3,-10,7c0,0,-3,4,-3,10V427c0,0,0,43,-8,78c0,0,-8,35,-24,61c0,0,-17,25,-42,38c0,0,-25,14,-59,14c0,0,-43,0,-86,-33c0,0,-44,-33,-95,-96V18c0,0,0,-6,-3,-10c0,0,-2,-4,-9,-7c0,0,-7,-2,-19,-3c0,0,-12,-2,-30,-2Z" 
id="f2_ae"
transform="scale(0.001,-0.001)" />

<path d="M252,-271c0,0,-19,0,-31,2c0,0,-12,2,-18,6c0,0,-7,5,-8,12c0,0,0,8,4,18L292,0c0,0,-7,3,-13,10c0,0,-6,6,-8,14L31,665c0,0,-6,16,-6,25c0,0,0,9,6,14c0,0,6,5,20,7c0,0,13,2,36,2c0,0,22,0,35,-1c0,0,12,-1,20,-4c0,0,7,-3,11,-9c0,0,3,-6,7,-15L351,145h3L539,687c0,0,4,14,10,18c0,0,7,4,19,6c0,0,13,2,37,2c0,0,21,0,34,-2c0,0,14,-2,20,-7c0,0,6,-5,6,-14c0,0,0,-9,-4,-23L420,0L330,-246c0,0,-4,-12,-22,-18c0,0,-19,-7,-56,-7Z" 
id="f2_co"
transform="scale(0.001,-0.001)" />

<path d="M102,0C102,0,87,0,77,10C77,10,66,21,66,45V71c0,0,0,10,2,18c0,0,1,9,4,17c0,0,3,8,9,17c0,0,5,10,12,22L390,606H102c0,0,-12,0,-19,13c0,0,-7,12,-7,39c0,0,0,14,2,24c0,0,1,10,5,16c0,0,3,7,8,9c0,0,5,3,11,3H487c0,0,9,0,15,-2c0,0,6,-3,11,-8c0,0,4,-5,7,-13c0,0,3,-8,3,-21V642c0,0,0,-10,-2,-19c0,0,-1,-9,-4,-18c0,0,-3,-8,-9,-18c0,0,-5,-10,-12,-22L201,104H516c0,0,6,0,11,-3c0,0,4,-3,8,-9c0,0,3,-6,5,-16c0,0,3,-10,3,-24c0,0,0,-14,-3,-24c0,0,-2,-10,-5,-16c0,0,-3,-7,-8,-9c0,0,-5,-3,-11,-3Z" 
id="f2_ct"
transform="scale(0.001,-0.001)" />

<path d="M92,-4c0,0,-22,0,-35,2C57,-2,43,0,37,3c0,0,-7,5,-6,12c0,0,0,7,7,17L247,360L49,675c0,0,-6,11,-6,18c0,0,-1,7,6,12c0,0,7,5,22,6c0,0,14,2,38,2c0,0,22,0,35,-1c0,0,13,-1,20,-4c0,0,8,-2,12,-6c0,0,3,-3,6,-9L335,443L490,693c0,0,3,5,7,9c0,0,4,3,10,6c0,0,7,3,18,4c0,0,12,1,32,1c0,0,21,0,35,-2c0,0,14,-1,21,-5c0,0,7,-4,6,-12c0,0,-1,-7,-8,-19L415,364L622,32c0,0,6,-10,6,-17c0,0,0,-7,-7,-12c0,0,-7,-3,-21,-5c0,0,-15,-2,-38,-2c0,0,-22,0,-35,1c0,0,-13,1,-21,3c0,0,-8,3,-12,7c0,0,-4,4,-7,9L326,282L165,16c0,0,-3,-5,-7,-9c0,0,-4,-4,-12,-7c0,0,-8,-2,-20,-3c0,0,-13,-1,-34,-1Z" 
id="f2_cn"
transform="scale(0.001,-0.001)" />

<path d="M351,-13c0,0,-67,0,-113,22c0,0,-46,22,-75,60c0,0,-28,39,-40,90c0,0,-13,51,-13,124V690c0,0,0,6,3,10c0,0,3,4,10,7c0,0,8,4,20,5c0,0,11,1,29,1c0,0,18,0,30,-1c0,0,12,-1,19,-5c0,0,7,-3,10,-7c0,0,3,-4,3,-10V299c0,0,0,-59,9,-94c0,0,8,-36,26,-61c0,0,18,-24,44,-38c0,0,27,-14,63,-14c0,0,46,0,92,33c0,0,46,32,98,95V690c0,0,0,6,2,10c0,0,3,4,10,7c0,0,8,4,19,5c0,0,12,1,30,1c0,0,18,0,30,-1c0,0,12,-1,19,-5c0,0,7,-3,10,-7c0,0,3,-4,3,-10V18c0,0,0,-6,-2,-10c0,0,-3,-4,-10,-7c0,0,-6,-2,-17,-3c0,0,-11,-2,-27,-2c0,0,-17,0,-28,2c0,0,-10,1,-17,3c0,0,-6,3,-8,7c0,0,-3,4,-3,10v89c0,0,-57,-63,-113,-92c0,0,-56,-28,-113,-28Z" 
id="f2_c6"
transform="scale(0.001,-0.001)" />

<path d="M189,-4c0,0,-18,0,-30,2c0,0,-12,2,-19,3c0,0,-7,3,-9,8c0,0,-3,4,-3,10V907c0,0,0,31,16,45c0,0,17,13,37,13h78c0,0,24,0,41,-4c0,0,18,-5,32,-15c0,0,13,-9,22,-24c0,0,9,-15,16,-35L649,188h4L944,884c0,0,8,23,18,39c0,0,9,15,21,25c0,0,11,9,26,13c0,0,14,4,32,4h82c0,0,11,0,21,-3c0,0,10,-4,17,-11c0,0,7,-7,12,-18c0,0,4,-10,4,-26V19c0,0,0,-6,-3,-10c0,0,-3,-5,-10,-8c0,0,-8,-1,-19,-3c0,0,-12,-2,-30,-2c0,0,-18,0,-30,2c0,0,-12,2,-19,3c0,0,-7,3,-10,8c0,0,-3,4,-3,10V860h-2L707,15c0,0,-2,-5,-6,-9c0,0,-4,-3,-12,-6c0,0,-8,-2,-18,-3c0,0,-11,-1,-26,-1c0,0,-16,0,-27,2c0,0,-11,1,-19,3c0,0,-7,2,-11,6c0,0,-4,4,-6,8L253,860V19c0,0,0,-6,-3,-10c0,0,-3,-5,-11,-8c0,0,-7,-1,-19,-3c0,0,-12,-2,-31,-2Z" 
id="f2_1x"
transform="scale(0.001,-0.001)" />

<path d="M589,371L453,782h-1L317,371ZM106,-4c0,0,-35,0,-54,2C52,-2,32,0,25,8c0,0,-7,9,-5,24c0,0,2,16,11,42L329,931c0,0,4,13,10,21c0,0,6,7,19,12c0,0,13,4,36,5c0,0,23,1,61,1c0,0,44,0,71,-1c0,0,26,-1,40,-5c0,0,15,-5,21,-13c0,0,6,-8,11,-22L896,73c0,0,9,-27,11,-43c0,0,3,-15,-6,-23c0,0,-8,-7,-29,-9c0,0,-21,-2,-57,-2c0,0,-38,0,-59,1c0,0,-22,1,-33,4c0,0,-11,3,-16,9c0,0,-4,6,-7,16L635,220H272L211,31c0,0,-2,-11,-7,-18c0,0,-5,-7,-16,-11c0,0,-11,-3,-31,-4c0,0,-19,-2,-51,-2Z" 
id="f1_5"
transform="scale(0.001,-0.001)" />

<path d="M526,431c0,0,2,79,-32,124c0,0,-34,45,-105,45c0,0,-35,0,-62,-13c0,0,-26,-13,-44,-36c0,0,-17,-23,-27,-54c0,0,-9,-31,-11,-66ZM410,-17c0,0,-88,0,-155,22c0,0,-67,22,-112,68c0,0,-44,45,-66,115c0,0,-22,69,-22,162c0,0,0,89,23,161c0,0,23,71,67,120c0,0,44,50,107,76c0,0,63,26,142,26c0,0,84,0,143,-24c0,0,59,-25,97,-69c0,0,38,-43,56,-103c0,0,18,-60,18,-130V377c0,0,0,-34,-15,-51c0,0,-16,-16,-43,-16H245c0,0,0,-43,10,-77c0,0,11,-35,33,-59c0,0,22,-24,56,-37c0,0,35,-13,83,-13c0,0,50,0,87,7c0,0,37,8,65,16c0,0,27,9,45,16c0,0,18,7,29,7c0,0,6,0,11,-2c0,0,4,-3,7,-10c0,0,3,-7,4,-19c0,0,2,-12,2,-31c0,0,0,-16,-1,-28c0,0,-1,-12,-2,-20c0,0,-2,-8,-5,-14c0,0,-3,-5,-8,-10c0,0,-5,-6,-26,-15c0,0,-22,-9,-55,-17c0,0,-34,-8,-77,-14c0,0,-43,-7,-93,-7Z" 
id="f1_7z"
transform="scale(0.001,-0.001)" />

<path d="M188,-4c0,0,-28,0,-46,2c0,0,-18,2,-28,5c0,0,-11,3,-16,9c0,0,-4,5,-4,13V691c0,0,0,7,4,13c0,0,3,5,13,9c0,0,10,4,25,6c0,0,15,2,38,2c0,0,24,0,40,-2c0,0,15,-2,24,-6c0,0,9,-4,12,-9c0,0,4,-6,4,-13V614c0,0,55,60,112,89c0,0,57,30,119,30c0,0,68,0,115,-22c0,0,47,-22,75,-61c0,0,29,-38,42,-90c0,0,12,-51,12,-124V25c0,0,0,-8,-4,-13c0,0,-5,-6,-15,-9c0,0,-10,-3,-29,-5c0,0,-18,-2,-45,-2c0,0,-28,0,-46,2c0,0,-18,2,-29,5c0,0,-10,3,-15,9c0,0,-4,6,-4,13V405c0,0,0,49,-7,76c0,0,-7,28,-21,48c0,0,-13,19,-35,30c0,0,-21,11,-49,11c0,0,-36,0,-72,-26c0,0,-37,-26,-76,-76V25c0,0,0,-7,-5,-13c0,0,-4,-6,-15,-9c0,0,-11,-3,-29,-5c0,0,-18,-2,-45,-2Z" 
id="f1_af"
transform="scale(0.001,-0.001)" />

<path d="M420,489c0,0,93,0,153,65c0,0,60,65,60,181c0,0,0,116,-62,184c0,0,-61,68,-148,68c0,0,-90,0,-156,-74c0,0,-66,-73,-66,-189c0,0,0,-105,63,-170c0,0,63,-65,156,-65ZM391,-18c0,0,-128,0,-209,71c0,0,-82,71,-98,200l129,12c0,0,17,-91,63,-132c0,0,46,-41,118,-41c0,0,62,0,109,28c0,0,47,29,76,76c0,0,30,47,50,128c0,0,20,80,20,164c0,0,0,9,-1,27c0,0,-40,-65,-110,-105c0,0,-69,-39,-151,-39c0,0,-135,0,-229,98c0,0,-94,99,-94,260c0,0,0,166,98,268c0,0,98,101,245,101c0,0,107,0,195,-57c0,0,89,-58,134,-164c0,0,46,-106,46,-308c0,0,0,-209,-45,-334C737,235,691,111,602,46c0,0,-90,-64,-211,-64Z" 
id="f3_t"
transform="scale(0.001,-0.001)" />


</defs>
</svg>