<?xml version="1.0" encoding="UTF-8" standalone="no"?>
<!DOCTYPE svg PUBLIC "-//W3C//DTD SVG 1.1//EN"
"http://www.w3.org/Graphics/SVG/1.1/DTD/svg11.dtd">
<svg viewBox="0 0 909 1286" version="1.1" xmlns="http://www.w3.org/2000/svg" xmlns:xlink="http://www.w3.org/1999/xlink">
<defs>
<clipPath id="c0_19"><path d="M0,1286.3V0H909.7V1286.3Z" /></clipPath>
<style type="text/css"><![CDATA[
.g0_19{
fill: #FFFFFF;
}
.g1_19{
fill: #1F3331;
}
]]></style>
</defs>
<path fill-rule="evenodd" d="M128.4,520.1H857.2V55H128.4V520.1Z" class="g0_19" />
<path fill-rule="evenodd" d="M128.4,541.4H857.2V520.1H128.4v21.3Z" class="g0_19" />
<path fill-rule="evenodd" d="M52.8,583.9H857.2V562.6H52.8v21.3Z" class="g0_19" />
<g clip-path="url(#c0_19)">
<g fill="#1F3331" >
<use xlink:href="#f0_1d" transform="matrix(12,0,0,12,55,579.9)" />
<use xlink:href="#f0_25" transform="matrix(12,0,0,12,72.6,579.9)" />
<use xlink:href="#f0_1z" transform="matrix(12,0,0,12,77.7,579.9)" />
<use xlink:href="#f0_2e" transform="matrix(12,0,0,12,85.9,579.9)" />
<use xlink:href="#f0_2b" transform="matrix(12,0,0,12,93.5,579.9)" />
<use xlink:href="#f0_2f" transform="matrix(12,0,0,12,102.7,579.9)" />
<use xlink:href="#f0_2c" transform="matrix(12,0,0,12,109.7,579.9)" />
<use xlink:href="#f0_2b" transform="matrix(12,0,0,12,119.9,579.9)" />
<use xlink:href="#f0_2e" transform="matrix(12,0,0,12,129.4,579.9)" />
<use xlink:href="#f0_2b" transform="matrix(12,0,0,12,137.1,579.9)" />
<use xlink:href="#f0_23" transform="matrix(12,0,0,12,146.3,579.9)" />
<use xlink:href="#f0_21" transform="matrix(12,0,0,12,155.4,579.9)" />
<use xlink:href="#f0_2a" transform="matrix(12,0,0,12,163.5,579.9)" />
<use xlink:href="#f0_21" transform="matrix(12,0,0,12,173.8,579.9)" />
<use xlink:href="#f0_2f" transform="matrix(12,0,0,12,182.2,579.9)" />
<use xlink:href="#f0_25" transform="matrix(12,0,0,12,189.1,579.9)" />
<use xlink:href="#f0_2f" transform="matrix(12,0,0,12,194.2,579.9)" />
</g>
</g>
<path fill-rule="evenodd" d="M55,583.5H201.7v-1.8H55v1.8Z" class="g1_19" />
<path fill-rule="evenodd" d="M80.3,626.1H857.2V604.8H80.3v21.3Z" class="g0_19" />
<g clip-path="url(#c0_19)">
<g fill="#1F3331" >
<use xlink:href="#f1_3d" transform="matrix(10.1,0,0,10.1,82.5,622.1)" />
<use xlink:href="#f2_1k" transform="matrix(12,0,0,12,110,622.1)" />
<use xlink:href="#f2_24" transform="matrix(12,0,0,12,121.4,622.1)" />
<use xlink:href="#f2_21" transform="matrix(12,0,0,12,130.2,622.1)" />
<use xlink:href="#f2_22" transform="matrix(12,0,0,12,143.4,622.1)" />
<use xlink:href="#f2_2b" transform="matrix(12,0,0,12,148.9,622.1)" />
<use xlink:href="#f2_2e" transform="matrix(12,0,0,12,158.4,622.1)" />
<use xlink:href="#f2_29" transform="matrix(12,0,0,12,164.6,622.1)" />
<use xlink:href="#f2_1x" transform="matrix(12,0,0,12,178.5,622.1)" />
<use xlink:href="#f2_2g" transform="matrix(12,0,0,12,186.6,622.1)" />
<use xlink:href="#f2_25" transform="matrix(12,0,0,12,192.1,622.1)" />
<use xlink:href="#f2_2b" transform="matrix(12,0,0,12,196.5,622.1)" />
<use xlink:href="#f2_2a" transform="matrix(12,0,0,12,206,622.1)" />
<use xlink:href="#f2_1x" transform="matrix(12,0,0,12,219.5,622.1)" />
<use xlink:href="#f2_2a" transform="matrix(12,0,0,12,228,622.1)" />
<use xlink:href="#f2_20" transform="matrix(12,0,0,12,236.8,622.1)" />
<use xlink:href="#f2_20" transform="matrix(12,0,0,12,250.7,622.1)" />
<use xlink:href="#f2_25" transform="matrix(12,0,0,12,260.2,622.1)" />
<use xlink:href="#f2_22" transform="matrix(12,0,0,12,265,622.1)" />
<use xlink:href="#f2_22" transform="matrix(12,0,0,12,271.2,622.1)" />
<use xlink:href="#f2_21" transform="matrix(12,0,0,12,277,622.1)" />
<use xlink:href="#f2_2e" transform="matrix(12,0,0,12,285.1,622.1)" />
<use xlink:href="#f2_21" transform="matrix(12,0,0,12,291.3,622.1)" />
<use xlink:href="#f2_2a" transform="matrix(12,0,0,12,299.7,622.1)" />
<use xlink:href="#f2_2g" transform="matrix(12,0,0,12,308.5,622.1)" />
<use xlink:href="#f2_25" transform="matrix(12,0,0,12,314.4,622.1)" />
<use xlink:href="#f2_1x" transform="matrix(12,0,0,12,318.8,622.1)" />
<use xlink:href="#f2_2g" transform="matrix(12,0,0,12,326.8,622.1)" />
<use xlink:href="#f2_25" transform="matrix(12,0,0,12,332.3,622.1)" />
<use xlink:href="#f2_2b" transform="matrix(12,0,0,12,336.7,622.1)" />
<use xlink:href="#f2_2a" transform="matrix(12,0,0,12,346.2,622.1)" />
<use xlink:href="#f2_2b" transform="matrix(12,0,0,12,359.8,622.1)" />
<use xlink:href="#f2_22" transform="matrix(12,0,0,12,369.7,622.1)" />
<use xlink:href="#f2_29" transform="matrix(12,0,0,12,380.3,622.1)" />
<use xlink:href="#f2_25" transform="matrix(12,0,0,12,394.2,622.1)" />
<use xlink:href="#f2_1z" transform="matrix(12,0,0,12,399,622.1)" />
<use xlink:href="#f2_2e" transform="matrix(12,0,0,12,407.1,622.1)" />
<use xlink:href="#f2_2b" transform="matrix(12,0,0,12,413.3,622.1)" />
<use xlink:href="#f2_2f" transform="matrix(12,0,0,12,422.8,622.1)" />
<use xlink:href="#f2_2c" transform="matrix(12,0,0,12,429.8,622.1)" />
<use xlink:href="#f2_2b" transform="matrix(12,0,0,12,438.9,622.1)" />
<use xlink:href="#f2_2e" transform="matrix(12,0,0,12,448.4,622.1)" />
<use xlink:href="#f2_21" transform="matrix(12,0,0,12,455.2,622.1)" />
<use xlink:href="#f2_25" transform="matrix(12,0,0,12,468,622.1)" />
<use xlink:href="#f2_2f" transform="matrix(12,0,0,12,472.4,622.1)" />
<use xlink:href="#f2_1z" transform="matrix(12,0,0,12,484.1,622.1)" />
<use xlink:href="#f2_1x" transform="matrix(12,0,0,12,492.2,622.1)" />
<use xlink:href="#f2_28" transform="matrix(12,0,0,12,500.6,622.1)" />
<use xlink:href="#f2_28" transform="matrix(12,0,0,12,505.4,622.1)" />
<use xlink:href="#f2_21" transform="matrix(12,0,0,12,510.2,622.1)" />
<use xlink:href="#f2_20" transform="matrix(12,0,0,12,518.2,622.1)" />
<use xlink:href="#f0_29" transform="matrix(12,0,0,12,532.2,622.1)" />
<use xlink:href="#f0_25" transform="matrix(12,0,0,12,547.3,622.1)" />
<use xlink:href="#f0_1z" transform="matrix(12,0,0,12,552.8,622.1)" />
<use xlink:href="#f0_2e" transform="matrix(12,0,0,12,561.2,622.1)" />
<use xlink:href="#f0_2b" transform="matrix(12,0,0,12,568.9,622.1)" />
<use xlink:href="#f0_2f" transform="matrix(12,0,0,12,578,622.1)" />
<use xlink:href="#f0_2c" transform="matrix(12,0,0,12,585,622.1)" />
<use xlink:href="#f0_2b" transform="matrix(12,0,0,12,595.3,622.1)" />
<use xlink:href="#f0_2e" transform="matrix(12,0,0,12,604.8,622.1)" />
<use xlink:href="#f0_2b" transform="matrix(12,0,0,12,612.5,622.1)" />
<use xlink:href="#f0_23" transform="matrix(12,0,0,12,621.6,622.1)" />
<use xlink:href="#f0_21" transform="matrix(12,0,0,12,630.8,622.1)" />
<use xlink:href="#f0_2a" transform="matrix(12,0,0,12,638.9,622.1)" />
<use xlink:href="#f0_21" transform="matrix(12,0,0,12,649.1,622.1)" />
<use xlink:href="#f0_2f" transform="matrix(12,0,0,12,657.5,622.1)" />
<use xlink:href="#f0_25" transform="matrix(12,0,0,12,664.5,622.1)" />
<use xlink:href="#f0_2f" transform="matrix(12,0,0,12,669.6,622.1)" />
<use xlink:href="#f2_i" transform="matrix(12,0,0,12,676.8,622.1)" />
</g>
</g>
<path fill-rule="evenodd" d="M80.3,647H857.2V626.1H80.3V647Z" class="g0_19" />
<g clip-path="url(#c0_19)">
<g fill="#1F3331" >
<use xlink:href="#f1_3d" transform="matrix(10.1,0,0,10.1,82.5,643)" />
<use xlink:href="#f2_1k" transform="matrix(12,0,0,12,110,643)" />
<use xlink:href="#f2_24" transform="matrix(12,0,0,12,121.4,643)" />
<use xlink:href="#f2_21" transform="matrix(12,0,0,12,130.2,643)" />
<use xlink:href="#f2_1g" transform="matrix(12,0,0,12,143,643)" />
<use xlink:href="#f2_1d" transform="matrix(12,0,0,12,153.2,643)" />
<use xlink:href="#f2_13" transform="matrix(12,0,0,12,169.4,643)" />
<use xlink:href="#f2_2f" transform="matrix(12,0,0,12,181.5,643)" />
<use xlink:href="#f2_2h" transform="matrix(12,0,0,12,193.3,643)" />
<use xlink:href="#f2_2a" transform="matrix(12,0,0,12,202.8,643)" />
<use xlink:href="#f2_20" transform="matrix(12,0,0,12,211.6,643)" />
<use xlink:href="#f2_21" transform="matrix(12,0,0,12,220.8,643)" />
<use xlink:href="#f2_2e" transform="matrix(12,0,0,12,228.9,643)" />
<use xlink:href="#f2_23" transform="matrix(12,0,0,12,235.1,643)" />
<use xlink:href="#f2_2b" transform="matrix(12,0,0,12,244.2,643)" />
<use xlink:href="#f2_29" transform="matrix(12,0,0,12,258.5,643)" />
<use xlink:href="#f2_21" transform="matrix(12,0,0,12,272.1,643)" />
<use xlink:href="#f2_25" transform="matrix(12,0,0,12,280.5,643)" />
<use xlink:href="#f2_2b" transform="matrix(12,0,0,12,284.9,643)" />
<use xlink:href="#f2_2f" transform="matrix(12,0,0,12,294.8,643)" />
<use xlink:href="#f2_25" transform="matrix(12,0,0,12,302.1,643)" />
<use xlink:href="#f2_2f" transform="matrix(12,0,0,12,306.8,643)" />
<use xlink:href="#f2_i" transform="matrix(12,0,0,12,313.8,643)" />
<use xlink:href="#f2_15" transform="matrix(12,0,0,12,323.6,643)" />
<use xlink:href="#f2_1x" transform="matrix(12,0,0,12,334.9,643)" />
<use xlink:href="#f2_1z" transform="matrix(12,0,0,12,343,643)" />
<use xlink:href="#f2_24" transform="matrix(12,0,0,12,351,643)" />
<use xlink:href="#f2_22" transform="matrix(12,0,0,12,364.9,643)" />
<use xlink:href="#f2_2b" transform="matrix(12,0,0,12,370.4,643)" />
<use xlink:href="#f2_2e" transform="matrix(12,0,0,12,380,643)" />
<use xlink:href="#f2_29" transform="matrix(12,0,0,12,386.2,643)" />
<use xlink:href="#f2_2f" transform="matrix(12,0,0,12,400.1,643)" />
<use xlink:href="#f2_2g" transform="matrix(12,0,0,12,412,643)" />
<use xlink:href="#f2_21" transform="matrix(12,0,0,12,417.4,643)" />
<use xlink:href="#f2_2g" transform="matrix(12,0,0,12,425.1,643)" />
<use xlink:href="#f2_2e" transform="matrix(12,0,0,12,430.6,643)" />
<use xlink:href="#f2_1x" transform="matrix(12,0,0,12,436.8,643)" />
<use xlink:href="#f2_24" transform="matrix(12,0,0,12,444.9,643)" />
<use xlink:href="#f2_21" transform="matrix(12,0,0,12,453.7,643)" />
<use xlink:href="#f2_20" transform="matrix(12,0,0,12,461.8,643)" />
<use xlink:href="#f2_2e" transform="matrix(12,0,0,12,470.9,643)" />
<use xlink:href="#f2_1x" transform="matrix(12,0,0,12,477.1,643)" />
<use xlink:href="#f2_28" transform="matrix(12,0,0,12,485.2,643)" />
<use xlink:href="#f2_2g" transform="matrix(12,0,0,12,494.4,643)" />
<use xlink:href="#f2_21" transform="matrix(12,0,0,12,499.8,643)" />
<use xlink:href="#f2_2g" transform="matrix(12,0,0,12,507.9,643)" />
<use xlink:href="#f2_2e" transform="matrix(12,0,0,12,513.4,643)" />
<use xlink:href="#f2_1x" transform="matrix(12,0,0,12,519.6,643)" />
<use xlink:href="#f2_20" transform="matrix(12,0,0,12,527.7,643)" />
<use xlink:href="#f2_2f" transform="matrix(12,0,0,12,536.8,643)" />
<use xlink:href="#f2_i" transform="matrix(12,0,0,12,543.8,643)" />
</g>
</g>
<path fill-rule="evenodd" d="M80.3,668.2H857.2V647H80.3v21.2Z" class="g0_19" />
<g clip-path="url(#c0_19)">
<g fill="#1F3331" >
<use xlink:href="#f1_3d" transform="matrix(10.1,0,0,10.1,82.5,663.9)" />
<use xlink:href="#f2_13" transform="matrix(12,0,0,12,110,663.9)" />
<use xlink:href="#f2_2l" transform="matrix(12,0,0,12,122.5,663.9)" />
<use xlink:href="#f2_2g" transform="matrix(12,0,0,12,130.9,663.9)" />
<use xlink:href="#f2_2b" transform="matrix(12,0,0,12,136.4,663.9)" />
<use xlink:href="#f2_27" transform="matrix(12,0,0,12,145.9,663.9)" />
<use xlink:href="#f2_25" transform="matrix(12,0,0,12,155.1,663.9)" />
<use xlink:href="#f2_2a" transform="matrix(12,0,0,12,159.8,663.9)" />
<use xlink:href="#f2_21" transform="matrix(12,0,0,12,168.6,663.9)" />
<use xlink:href="#f2_2f" transform="matrix(12,0,0,12,177.1,663.9)" />
<use xlink:href="#f2_25" transform="matrix(12,0,0,12,184.4,663.9)" />
<use xlink:href="#f2_2f" transform="matrix(12,0,0,12,189.1,663.9)" />
<use xlink:href="#f2_29" transform="matrix(12,0,0,12,201.2,663.9)" />
<use xlink:href="#f2_1x" transform="matrix(12,0,0,12,215.2,663.9)" />
<use xlink:href="#f2_2l" transform="matrix(12,0,0,12,223.6,663.9)" />
<use xlink:href="#f2_1y" transform="matrix(12,0,0,12,237.1,663.9)" />
<use xlink:href="#f2_21" transform="matrix(12,0,0,12,245.9,663.9)" />
<use xlink:href="#f2_2f" transform="matrix(12,0,0,12,259,663.9)" />
<use xlink:href="#f2_2h" transform="matrix(12,0,0,12,265.9,663.9)" />
<use xlink:href="#f2_1z" transform="matrix(12,0,0,12,275.1,663.9)" />
<use xlink:href="#f2_1z" transform="matrix(12,0,0,12,283.5,663.9)" />
<use xlink:href="#f2_21" transform="matrix(12,0,0,12,291.6,663.9)" />
<use xlink:href="#f2_2f" transform="matrix(12,0,0,12,299.7,663.9)" />
<use xlink:href="#f2_2f" transform="matrix(12,0,0,12,307,663.9)" />
<use xlink:href="#f2_25" transform="matrix(12,0,0,12,314.3,663.9)" />
<use xlink:href="#f2_2i" transform="matrix(12,0,0,12,319.1,663.9)" />
<use xlink:href="#f2_21" transform="matrix(12,0,0,12,328.2,663.9)" />
<use xlink:href="#f2_2b" transform="matrix(12,0,0,12,341.2,663.9)" />
<use xlink:href="#f2_2e" transform="matrix(12,0,0,12,350.7,663.9)" />
<use xlink:href="#f2_2f" transform="matrix(12,0,0,12,361.3,663.9)" />
<use xlink:href="#f2_25" transform="matrix(12,0,0,12,368.6,663.9)" />
<use xlink:href="#f2_29" transform="matrix(12,0,0,12,373.4,663.9)" />
<use xlink:href="#f2_2h" transform="matrix(12,0,0,12,387.3,663.9)" />
<use xlink:href="#f2_28" transform="matrix(12,0,0,12,396.8,663.9)" />
<use xlink:href="#f2_2g" transform="matrix(12,0,0,12,401.2,663.9)" />
<use xlink:href="#f2_1x" transform="matrix(12,0,0,12,406.7,663.9)" />
<use xlink:href="#f2_2a" transform="matrix(12,0,0,12,415.1,663.9)" />
<use xlink:href="#f2_21" transform="matrix(12,0,0,12,423.9,663.9)" />
<use xlink:href="#f2_2b" transform="matrix(12,0,0,12,432,663.9)" />
<use xlink:href="#f2_2h" transform="matrix(12,0,0,12,441.5,663.9)" />
<use xlink:href="#f2_2f" transform="matrix(12,0,0,12,450.7,663.9)" />
<use xlink:href="#f2_i" transform="matrix(12,0,0,12,457.8,663.9)" />
</g>
</g>
<path fill-rule="evenodd" d="M259,666.4h77.4v-.7H259v.7Z" class="g1_19" />
<path fill-rule="evenodd" d="M361.3,666.4h96.5v-.7H361.3v.7Z" class="g1_19" />
<path fill-rule="evenodd" d="M80.3,689.1H857.2V668.2H80.3v20.9Z" class="g0_19" />
<g clip-path="url(#c0_19)">
<g fill="#1F3331" >
<use xlink:href="#f1_3d" transform="matrix(10.1,0,0,10.1,82.5,685.1)" />
<use xlink:href="#f2_1k" transform="matrix(12,0,0,12,110,685.1)" />
<use xlink:href="#f2_21" transform="matrix(12,0,0,12,121.4,685.1)" />
<use xlink:href="#f2_2g" transform="matrix(12,0,0,12,129.5,685.1)" />
<use xlink:href="#f2_2e" transform="matrix(12,0,0,12,134.5,685.1)" />
<use xlink:href="#f2_1x" transform="matrix(12,0,0,12,140.8,685.1)" />
<use xlink:href="#f2_20" transform="matrix(12,0,0,12,148.9,685.1)" />
<use xlink:href="#f2_1x" transform="matrix(12,0,0,12,165.3,685.1)" />
<use xlink:href="#f2_2e" transform="matrix(12,0,0,12,173,685.1)" />
<use xlink:href="#f2_21" transform="matrix(12,0,0,12,179.3,685.1)" />
<use xlink:href="#f2_2b" transform="matrix(12,0,0,12,194.3,685.1)" />
<use xlink:href="#f2_22" transform="matrix(12,0,0,12,203.8,685.1)" />
<use xlink:href="#f2_22" transform="matrix(12,0,0,12,216.6,685.1)" />
<use xlink:href="#f2_25" transform="matrix(12,0,0,12,222.5,685.1)" />
<use xlink:href="#f2_2i" transform="matrix(12,0,0,12,227.2,685.1)" />
<use xlink:href="#f2_21" transform="matrix(12,0,0,12,236.4,685.1)" />
<use xlink:href="#f2_2g" transform="matrix(12,0,0,12,251.8,685.1)" />
<use xlink:href="#f2_2l" transform="matrix(12,0,0,12,257.3,685.1)" />
<use xlink:href="#f2_2c" transform="matrix(12,0,0,12,265.7,685.1)" />
<use xlink:href="#f2_21" transform="matrix(12,0,0,12,274.9,685.1)" />
<use xlink:href="#f2_2f" transform="matrix(12,0,0,12,283.3,685.1)" />
<use xlink:href="#f2_g" transform="matrix(12,0,0,12,290.3,685.1)" />
<use xlink:href="#f2_2g" transform="matrix(12,0,0,12,302.2,685.1)" />
<use xlink:href="#f2_21" transform="matrix(12,0,0,12,307.7,685.1)" />
<use xlink:href="#f2_2g" transform="matrix(12,0,0,12,315.4,685.1)" />
<use xlink:href="#f2_2e" transform="matrix(12,0,0,12,320.9,685.1)" />
<use xlink:href="#f2_1x" transform="matrix(12,0,0,12,327.1,685.1)" />
<use xlink:href="#f2_24" transform="matrix(12,0,0,12,335.2,685.1)" />
<use xlink:href="#f2_21" transform="matrix(12,0,0,12,344,685.1)" />
<use xlink:href="#f2_20" transform="matrix(12,0,0,12,352.1,685.1)" />
<use xlink:href="#f2_2e" transform="matrix(12,0,0,12,361.2,685.1)" />
<use xlink:href="#f2_1x" transform="matrix(12,0,0,12,367.4,685.1)" />
<use xlink:href="#f2_28" transform="matrix(12,0,0,12,375.8,685.1)" />
<use xlink:href="#f2_g" transform="matrix(12,0,0,12,380.2,685.1)" />
<use xlink:href="#f2_25" transform="matrix(12,0,0,12,392.9,685.1)" />
<use xlink:href="#f2_2f" transform="matrix(12,0,0,12,397.3,685.1)" />
<use xlink:href="#f2_2b" transform="matrix(12,0,0,12,404.2,685.1)" />
<use xlink:href="#f2_1y" transform="matrix(12,0,0,12,413.7,685.1)" />
<use xlink:href="#f2_25" transform="matrix(12,0,0,12,422.9,685.1)" />
<use xlink:href="#f2_28" transform="matrix(12,0,0,12,428,685.1)" />
<use xlink:href="#f2_1x" transform="matrix(12,0,0,12,432.8,685.1)" />
<use xlink:href="#f2_2g" transform="matrix(12,0,0,12,440.9,685.1)" />
<use xlink:href="#f2_21" transform="matrix(12,0,0,12,446.3,685.1)" />
<use xlink:href="#f2_2e" transform="matrix(12,0,0,12,454.4,685.1)" />
<use xlink:href="#f2_1x" transform="matrix(12,0,0,12,460.6,685.1)" />
<use xlink:href="#f2_28" transform="matrix(12,0,0,12,469,685.1)" />
<use xlink:href="#f2_g" transform="matrix(12,0,0,12,473.4,685.1)" />
<use xlink:href="#f2_20" transform="matrix(12,0,0,12,485.1,685.1)" />
<use xlink:href="#f2_21" transform="matrix(12,0,0,12,494.3,685.1)" />
<use xlink:href="#f2_1z" transform="matrix(12,0,0,12,502.4,685.1)" />
<use xlink:href="#f2_2h" transform="matrix(12,0,0,12,510.4,685.1)" />
<use xlink:href="#f2_2f" transform="matrix(12,0,0,12,519.6,685.1)" />
<use xlink:href="#f2_2f" transform="matrix(12,0,0,12,526.6,685.1)" />
<use xlink:href="#f2_1x" transform="matrix(12,0,0,12,533.5,685.1)" />
<use xlink:href="#f2_2g" transform="matrix(12,0,0,12,541.6,685.1)" />
<use xlink:href="#f2_21" transform="matrix(12,0,0,12,547.1,685.1)" />
<use xlink:href="#f2_g" transform="matrix(12,0,0,12,555.2,685.1)" />
<use xlink:href="#f2_1k" transform="matrix(12,0,0,12,567.2,685.1)" />
<use xlink:href="#f2_2f" transform="matrix(12,0,0,12,585.5,685.1)" />
<use xlink:href="#f2_24" transform="matrix(12,0,0,12,592.5,685.1)" />
<use xlink:href="#f2_1x" transform="matrix(12,0,0,12,601.3,685.1)" />
<use xlink:href="#f2_2c" transform="matrix(12,0,0,12,609.4,685.1)" />
<use xlink:href="#f2_21" transform="matrix(12,0,0,12,618.5,685.1)" />
<use xlink:href="#f2_20" transform="matrix(12,0,0,12,626.6,685.1)" />
<use xlink:href="#f2_g" transform="matrix(12,0,0,12,635.8,685.1)" />
<use xlink:href="#f2_28" transform="matrix(12,0,0,12,647.8,685.1)" />
<use xlink:href="#f2_25" transform="matrix(12,0,0,12,652.6,685.1)" />
<use xlink:href="#f2_2a" transform="matrix(12,0,0,12,657.4,685.1)" />
<use xlink:href="#f2_21" transform="matrix(12,0,0,12,666.5,685.1)" />
<use xlink:href="#f2_1x" transform="matrix(12,0,0,12,674.6,685.1)" />
<use xlink:href="#f2_2e" transform="matrix(12,0,0,12,682.7,685.1)" />
<use xlink:href="#f2_i" transform="matrix(12,0,0,12,689.3,685.1)" />
<use xlink:href="#f2_1k" transform="matrix(12,0,0,12,708.3,685.1)" />
<use xlink:href="#f2_21" transform="matrix(12,0,0,12,719.7,685.1)" />
<use xlink:href="#f2_2g" transform="matrix(12,0,0,12,727.4,685.1)" />
<use xlink:href="#f2_2e" transform="matrix(12,0,0,12,732.9,685.1)" />
<use xlink:href="#f2_1x" transform="matrix(12,0,0,12,739.1,685.1)" />
<use xlink:href="#f2_24" transform="matrix(12,0,0,12,747.2,685.1)" />
<use xlink:href="#f2_21" transform="matrix(12,0,0,12,756,685.1)" />
<use xlink:href="#f2_20" transform="matrix(12,0,0,12,764,685.1)" />
<use xlink:href="#f2_2e" transform="matrix(12,0,0,12,773.2,685.1)" />
<use xlink:href="#f2_1x" transform="matrix(12,0,0,12,779.4,685.1)" />
<use xlink:href="#f2_28" transform="matrix(12,0,0,12,787.8,685.1)" />
<use xlink:href="#f2_25" transform="matrix(12,0,0,12,799.9,685.1)" />
<use xlink:href="#f2_2f" transform="matrix(12,0,0,12,804.7,685.1)" />
<use xlink:href="#f2_29" transform="matrix(12,0,0,12,819.3,685.1)" />
<use xlink:href="#f2_2b" transform="matrix(12,0,0,12,832.9,685.1)" />
<use xlink:href="#f2_2f" transform="matrix(12,0,0,12,842.4,685.1)" />
<use xlink:href="#f2_2g" transform="matrix(12,0,0,12,849.4,685.1)" />
</g>
</g>
<path fill-rule="evenodd" d="M302.2,687.7H701.4v-.8H302.2v.8Z" class="g1_19" />
<path fill-rule="evenodd" d="M80.3,710.4H857.2V689.1H80.3v21.3Z" class="g0_19" />
<g clip-path="url(#c0_19)">
<g fill="#1F3331" >
<use xlink:href="#f2_1z" transform="matrix(12,0,0,12,110,706)" />
<use xlink:href="#f2_2b" transform="matrix(12,0,0,12,118.1,706)" />
<use xlink:href="#f2_29" transform="matrix(12,0,0,12,127.6,706)" />
<use xlink:href="#f2_29" transform="matrix(12,0,0,12,141.6,706)" />
<use xlink:href="#f2_2b" transform="matrix(12,0,0,12,155.1,706)" />
<use xlink:href="#f2_2a" transform="matrix(12,0,0,12,165,706)" />
<use xlink:href="#f2_i" transform="matrix(12,0,0,12,173.9,706)" />
</g>
</g>
<path fill-rule="evenodd" d="M80.3,731.3H857.2V710.4H80.3v20.9Z" class="g0_19" />
<g clip-path="url(#c0_19)">
<g fill="#1F3331" >
<use xlink:href="#f1_3d" transform="matrix(10.1,0,0,10.1,82.5,727.3)" />
<use xlink:href="#f2_19" transform="matrix(12,0,0,12,110,727.3)" />
<use xlink:href="#f2_2a" transform="matrix(12,0,0,12,116.3,727.3)" />
<use xlink:href="#f2_2f" transform="matrix(12,0,0,12,129.1,727.3)" />
<use xlink:href="#f2_2h" transform="matrix(12,0,0,12,136.1,727.3)" />
<use xlink:href="#f2_1z" transform="matrix(12,0,0,12,145.2,727.3)" />
<use xlink:href="#f2_1z" transform="matrix(12,0,0,12,153.3,727.3)" />
<use xlink:href="#f2_21" transform="matrix(12,0,0,12,161.4,727.3)" />
<use xlink:href="#f2_2f" transform="matrix(12,0,0,12,169.4,727.3)" />
<use xlink:href="#f2_2f" transform="matrix(12,0,0,12,176.7,727.3)" />
<use xlink:href="#f2_25" transform="matrix(12,0,0,12,184,727.3)" />
<use xlink:href="#f2_2i" transform="matrix(12,0,0,12,188.8,727.3)" />
<use xlink:href="#f2_21" transform="matrix(12,0,0,12,198,727.3)" />
<use xlink:href="#f2_2g" transform="matrix(12,0,0,12,210.1,727.3)" />
<use xlink:href="#f2_2l" transform="matrix(12,0,0,12,215.6,727.3)" />
<use xlink:href="#f2_2c" transform="matrix(12,0,0,12,224,727.3)" />
<use xlink:href="#f2_21" transform="matrix(12,0,0,12,233.2,727.3)" />
<use xlink:href="#f2_g" transform="matrix(12,0,0,12,241.2,727.3)" />
<use xlink:href="#f2_2g" transform="matrix(12,0,0,12,250,727.3)" />
<use xlink:href="#f2_24" transform="matrix(12,0,0,12,255.5,727.3)" />
<use xlink:href="#f2_21" transform="matrix(12,0,0,12,264.3,727.3)" />
<use xlink:href="#f2_1z" transform="matrix(12,0,0,12,276.4,727.3)" />
<use xlink:href="#f2_21" transform="matrix(12,0,0,12,284.5,727.3)" />
<use xlink:href="#f2_28" transform="matrix(12,0,0,12,292.9,727.3)" />
<use xlink:href="#f2_28" transform="matrix(12,0,0,12,297.6,727.3)" />
<use xlink:href="#f2_2j" transform="matrix(12,0,0,12,306.1,727.3)" />
<use xlink:href="#f2_1x" transform="matrix(12,0,0,12,319.3,727.3)" />
<use xlink:href="#f2_28" transform="matrix(12,0,0,12,327.7,727.3)" />
<use xlink:href="#f2_28" transform="matrix(12,0,0,12,332.8,727.3)" />
<use xlink:href="#f2_25" transform="matrix(12,0,0,12,341.6,727.3)" />
<use xlink:href="#f2_2f" transform="matrix(12,0,0,12,346.4,727.3)" />
<use xlink:href="#f2_22" transform="matrix(12,0,0,12,357.8,727.3)" />
<use xlink:href="#f2_2b" transform="matrix(12,0,0,12,363.3,727.3)" />
<use xlink:href="#f2_2e" transform="matrix(12,0,0,12,372.8,727.3)" />
<use xlink:href="#f2_29" transform="matrix(12,0,0,12,379.4,727.3)" />
<use xlink:href="#f2_21" transform="matrix(12,0,0,12,392.9,727.3)" />
<use xlink:href="#f2_20" transform="matrix(12,0,0,12,401,727.3)" />
<use xlink:href="#f2_1x" transform="matrix(12,0,0,12,414.2,727.3)" />
<use xlink:href="#f2_22" transform="matrix(12,0,0,12,422.6,727.3)" />
<use xlink:href="#f2_2g" transform="matrix(12,0,0,12,428.1,727.3)" />
<use xlink:href="#f2_21" transform="matrix(12,0,0,12,433.6,727.3)" />
<use xlink:href="#f2_2e" transform="matrix(12,0,0,12,441.7,727.3)" />
<use xlink:href="#f2_29" transform="matrix(12,0,0,12,451.9,727.3)" />
<use xlink:href="#f2_21" transform="matrix(12,0,0,12,465.8,727.3)" />
<use xlink:href="#f2_25" transform="matrix(12,0,0,12,474.2,727.3)" />
<use xlink:href="#f2_2b" transform="matrix(12,0,0,12,479,727.3)" />
<use xlink:href="#f2_2f" transform="matrix(12,0,0,12,488.5,727.3)" />
<use xlink:href="#f2_25" transform="matrix(12,0,0,12,495.5,727.3)" />
<use xlink:href="#f2_2f" transform="matrix(12,0,0,12,500.3,727.3)" />
<use xlink:href="#f3_4y" transform="matrix(12,0,0,12,511.7,727.3)" />
<use xlink:href="#f2_19" transform="matrix(12,0,0,12,520.9,727.3)" />
<use xlink:href="#f2_1x" transform="matrix(12,0,0,12,531.1,727.3)" />
<use xlink:href="#f2_2f" transform="matrix(12,0,0,12,539.2,727.3)" />
<use xlink:href="#f2_2j" transform="matrix(12,0,0,12,550.2,727.3)" />
<use xlink:href="#f2_21" transform="matrix(12,0,0,12,563.4,727.3)" />
<use xlink:href="#f2_28" transform="matrix(12,0,0,12,571.5,727.3)" />
<use xlink:href="#f2_28" transform="matrix(12,0,0,12,576.2,727.3)" />
<use xlink:href="#f2_1x" transform="matrix(12,0,0,12,585,727.3)" />
<use xlink:href="#f2_2f" transform="matrix(12,0,0,12,593.1,727.3)" />
<use xlink:href="#f2_29" transform="matrix(12,0,0,12,604.5,727.3)" />
<use xlink:href="#f2_21" transform="matrix(12,0,0,12,618,727.3)" />
<use xlink:href="#f2_25" transform="matrix(12,0,0,12,626.4,727.3)" />
<use xlink:href="#f2_2b" transform="matrix(12,0,0,12,630.8,727.3)" />
<use xlink:href="#f2_2f" transform="matrix(12,0,0,12,640.7,727.3)" />
<use xlink:href="#f2_25" transform="matrix(12,0,0,12,648,727.3)" />
<use xlink:href="#f2_2f" transform="matrix(12,0,0,12,652.8,727.3)" />
<use xlink:href="#f3_4y" transform="matrix(12,0,0,12,663.9,727.3)" />
<use xlink:href="#f2_19" transform="matrix(12,0,0,12,673.1,727.3)" />
<use xlink:href="#f2_19" transform="matrix(12,0,0,12,679.3,727.3)" />
<use xlink:href="#f2_22" transform="matrix(12,0,0,12,689.6,727.3)" />
<use xlink:href="#f2_2b" transform="matrix(12,0,0,12,695.1,727.3)" />
<use xlink:href="#f2_2e" transform="matrix(12,0,0,12,704.6,727.3)" />
<use xlink:href="#f2_29" transform="matrix(12,0,0,12,710.9,727.3)" />
<use xlink:href="#f2_25" transform="matrix(12,0,0,12,724.8,727.3)" />
<use xlink:href="#f2_2a" transform="matrix(12,0,0,12,729.6,727.3)" />
<use xlink:href="#f2_23" transform="matrix(12,0,0,12,738.7,727.3)" />
<use xlink:href="#f2_1x" transform="matrix(12,0,0,12,752,727.3)" />
<use xlink:href="#f2_2a" transform="matrix(12,0,0,12,760,727.3)" />
<use xlink:href="#f2_25" transform="matrix(12,0,0,12,773.2,727.3)" />
<use xlink:href="#f2_2f" transform="matrix(12,0,0,12,778,727.3)" />
<use xlink:href="#f2_2b" transform="matrix(12,0,0,12,785,727.3)" />
<use xlink:href="#f2_1y" transform="matrix(12,0,0,12,794.5,727.3)" />
<use xlink:href="#f2_25" transform="matrix(12,0,0,12,803.6,727.3)" />
<use xlink:href="#f2_28" transform="matrix(12,0,0,12,808.7,727.3)" />
<use xlink:href="#f2_1x" transform="matrix(12,0,0,12,813.5,727.3)" />
<use xlink:href="#f2_2g" transform="matrix(12,0,0,12,821.6,727.3)" />
<use xlink:href="#f2_21" transform="matrix(12,0,0,12,827.1,727.3)" />
<use xlink:href="#f2_2e" transform="matrix(12,0,0,12,835.2,727.3)" />
<use xlink:href="#f2_1x" transform="matrix(12,0,0,12,841.4,727.3)" />
<use xlink:href="#f2_28" transform="matrix(12,0,0,12,849.8,727.3)" />
</g>
</g>
<path fill-rule="evenodd" d="M80.3,752.6H857.2V731.3H80.3v21.3Z" class="g0_19" />
<g clip-path="url(#c0_19)">
<g fill="#1F3331" >
<use xlink:href="#f2_2c" transform="matrix(12,0,0,12,110,748.2)" />
<use xlink:href="#f2_2b" transform="matrix(12,0,0,12,119.2,748.2)" />
<use xlink:href="#f2_28" transform="matrix(12,0,0,12,128.7,748.2)" />
<use xlink:href="#f2_28" transform="matrix(12,0,0,12,133.5,748.2)" />
<use xlink:href="#f2_21" transform="matrix(12,0,0,12,138.3,748.2)" />
<use xlink:href="#f2_2a" transform="matrix(12,0,0,12,146.7,748.2)" />
<use xlink:href="#f2_2g" transform="matrix(12,0,0,12,160.2,748.2)" />
<use xlink:href="#f2_21" transform="matrix(12,0,0,12,165.7,748.2)" />
<use xlink:href="#f2_2g" transform="matrix(12,0,0,12,173.4,748.2)" />
<use xlink:href="#f2_2e" transform="matrix(12,0,0,12,178.9,748.2)" />
<use xlink:href="#f2_1x" transform="matrix(12,0,0,12,185.1,748.2)" />
<use xlink:href="#f2_20" transform="matrix(12,0,0,12,193.2,748.2)" />
<use xlink:href="#f2_i" transform="matrix(12,0,0,12,202.5,748.2)" />
<use xlink:href="#f2_19" transform="matrix(12,0,0,12,211.6,748.2)" />
<use xlink:href="#f2_2g" transform="matrix(12,0,0,12,217.5,748.2)" />
<use xlink:href="#f2_25" transform="matrix(12,0,0,12,227.4,748.2)" />
<use xlink:href="#f2_2f" transform="matrix(12,0,0,12,232.1,748.2)" />
<use xlink:href="#f2_1x" transform="matrix(12,0,0,12,243.9,748.2)" />
<use xlink:href="#f2_1z" transform="matrix(12,0,0,12,256.7,748.2)" />
<use xlink:href="#f2_24" transform="matrix(12,0,0,12,264.7,748.2)" />
<use xlink:href="#f2_1x" transform="matrix(12,0,0,12,273.5,748.2)" />
<use xlink:href="#f2_2e" transform="matrix(12,0,0,12,281.6,748.2)" />
<use xlink:href="#f2_1x" transform="matrix(12,0,0,12,287.8,748.2)" />
<use xlink:href="#f2_1z" transform="matrix(12,0,0,12,295.9,748.2)" />
<use xlink:href="#f2_2g" transform="matrix(12,0,0,12,304,748.2)" />
<use xlink:href="#f2_21" transform="matrix(12,0,0,12,309.4,748.2)" />
<use xlink:href="#f2_2e" transform="matrix(12,0,0,12,317.5,748.2)" />
<use xlink:href="#f2_25" transform="matrix(12,0,0,12,324.1,748.2)" />
<use xlink:href="#f2_2f" transform="matrix(12,0,0,12,328.5,748.2)" />
<use xlink:href="#f2_2g" transform="matrix(12,0,0,12,335.4,748.2)" />
<use xlink:href="#f2_25" transform="matrix(12,0,0,12,341.3,748.2)" />
<use xlink:href="#f2_1z" transform="matrix(12,0,0,12,345.7,748.2)" />
<use xlink:href="#f2_22" transform="matrix(12,0,0,12,358.9,748.2)" />
<use xlink:href="#f2_21" transform="matrix(12,0,0,12,364.7,748.2)" />
<use xlink:href="#f2_1x" transform="matrix(12,0,0,12,372.8,748.2)" />
<use xlink:href="#f2_2g" transform="matrix(12,0,0,12,380.9,748.2)" />
<use xlink:href="#f2_2h" transform="matrix(12,0,0,12,386.4,748.2)" />
<use xlink:href="#f2_2e" transform="matrix(12,0,0,12,395.5,748.2)" />
<use xlink:href="#f2_21" transform="matrix(12,0,0,12,401.7,748.2)" />
<use xlink:href="#f2_2b" transform="matrix(12,0,0,12,414.2,748.2)" />
<use xlink:href="#f2_22" transform="matrix(12,0,0,12,423.7,748.2)" />
<use xlink:href="#f2_29" transform="matrix(12,0,0,12,434.7,748.2)" />
<use xlink:href="#f2_2b" transform="matrix(12,0,0,12,448.3,748.2)" />
<use xlink:href="#f2_2a" transform="matrix(12,0,0,12,457.8,748.2)" />
<use xlink:href="#f2_2b" transform="matrix(12,0,0,12,466.6,748.2)" />
<use xlink:href="#f2_1z" transform="matrix(12,0,0,12,476.1,748.2)" />
<use xlink:href="#f2_2b" transform="matrix(12,0,0,12,484.1,748.2)" />
<use xlink:href="#f2_2g" transform="matrix(12,0,0,12,493.3,748.2)" />
<use xlink:href="#f2_i" transform="matrix(12,0,0,12,498.5,748.2)" />
</g>
</g>
<path fill-rule="evenodd" d="M434.7,750.8h63.8V750H434.7v.8Z" class="g1_19" />
<path fill-rule="evenodd" d="M80.3,773.5H857.2V752.6H80.3v20.9Z" class="g0_19" />
<g clip-path="url(#c0_19)">
<g fill="#1F3331" >
<use xlink:href="#f1_3d" transform="matrix(10.1,0,0,10.1,82.5,769.5)" />
<use xlink:href="#f2_19" transform="matrix(12,0,0,12,110,769.5)" />
<use xlink:href="#f2_2a" transform="matrix(12,0,0,12,116.3,769.5)" />
<use xlink:href="#f2_2f" transform="matrix(12,0,0,12,133.8,769.5)" />
<use xlink:href="#f2_25" transform="matrix(12,0,0,12,141.1,769.5)" />
<use xlink:href="#f2_29" transform="matrix(12,0,0,12,145.9,769.5)" />
<use xlink:href="#f2_2h" transform="matrix(12,0,0,12,159.8,769.5)" />
<use xlink:href="#f2_28" transform="matrix(12,0,0,12,169.4,769.5)" />
<use xlink:href="#f2_2g" transform="matrix(12,0,0,12,173.8,769.5)" />
<use xlink:href="#f2_1x" transform="matrix(12,0,0,12,179.2,769.5)" />
<use xlink:href="#f2_2a" transform="matrix(12,0,0,12,187.7,769.5)" />
<use xlink:href="#f2_21" transform="matrix(12,0,0,12,196.8,769.5)" />
<use xlink:href="#f2_2b" transform="matrix(12,0,0,12,204.9,769.5)" />
<use xlink:href="#f2_2h" transform="matrix(12,0,0,12,214.4,769.5)" />
<use xlink:href="#f2_2f" transform="matrix(12,0,0,12,223.6,769.5)" />
<use xlink:href="#f2_2g" transform="matrix(12,0,0,12,239.2,769.5)" />
<use xlink:href="#f2_2l" transform="matrix(12,0,0,12,244.7,769.5)" />
<use xlink:href="#f2_2c" transform="matrix(12,0,0,12,253.1,769.5)" />
<use xlink:href="#f2_21" transform="matrix(12,0,0,12,262.6,769.5)" />
<use xlink:href="#f2_g" transform="matrix(12,0,0,12,270.7,769.5)" />
<use xlink:href="#f2_21" transform="matrix(12,0,0,12,284.2,769.5)" />
<use xlink:href="#f2_1x" transform="matrix(12,0,0,12,292.3,769.5)" />
<use xlink:href="#f2_1z" transform="matrix(12,0,0,12,300.3,769.5)" />
<use xlink:href="#f2_24" transform="matrix(12,0,0,12,308.4,769.5)" />
<use xlink:href="#f2_2a" transform="matrix(12,0,0,12,326.3,769.5)" />
<use xlink:href="#f2_2h" transform="matrix(12,0,0,12,335.1,769.5)" />
<use xlink:href="#f2_1z" transform="matrix(12,0,0,12,344.3,769.5)" />
<use xlink:href="#f2_28" transform="matrix(12,0,0,12,352.7,769.5)" />
<use xlink:href="#f2_21" transform="matrix(12,0,0,12,357.5,769.5)" />
<use xlink:href="#f2_1x" transform="matrix(12,0,0,12,365.6,769.5)" />
<use xlink:href="#f2_2e" transform="matrix(12,0,0,12,373.6,769.5)" />
<use xlink:href="#f2_20" transform="matrix(12,0,0,12,388.6,769.5)" />
<use xlink:href="#f2_25" transform="matrix(12,0,0,12,398.1,769.5)" />
<use xlink:href="#f2_2i" transform="matrix(12,0,0,12,402.9,769.5)" />
<use xlink:href="#f2_25" transform="matrix(12,0,0,12,412.1,769.5)" />
<use xlink:href="#f2_2f" transform="matrix(12,0,0,12,416.8,769.5)" />
<use xlink:href="#f2_25" transform="matrix(12,0,0,12,424.5,769.5)" />
<use xlink:href="#f2_2b" transform="matrix(12,0,0,12,428.9,769.5)" />
<use xlink:href="#f2_2a" transform="matrix(12,0,0,12,438.8,769.5)" />
<use xlink:href="#f2_25" transform="matrix(12,0,0,12,456.8,769.5)" />
<use xlink:href="#f2_2a" transform="matrix(12,0,0,12,461.5,769.5)" />
<use xlink:href="#f2_29" transform="matrix(12,0,0,12,479.5,769.5)" />
<use xlink:href="#f2_25" transform="matrix(12,0,0,12,493.7,769.5)" />
<use xlink:href="#f2_1z" transform="matrix(12,0,0,12,498.5,769.5)" />
<use xlink:href="#f2_2e" transform="matrix(12,0,0,12,506.6,769.5)" />
<use xlink:href="#f2_2b" transform="matrix(12,0,0,12,512.8,769.5)" />
<use xlink:href="#f2_2f" transform="matrix(12,0,0,12,522.3,769.5)" />
<use xlink:href="#f2_2c" transform="matrix(12,0,0,12,529.3,769.5)" />
<use xlink:href="#f2_2b" transform="matrix(12,0,0,12,538.5,769.5)" />
<use xlink:href="#f2_2e" transform="matrix(12,0,0,12,548,769.5)" />
<use xlink:href="#f2_21" transform="matrix(12,0,0,12,554.2,769.5)" />
<use xlink:href="#f2_29" transform="matrix(12,0,0,12,570.7,769.5)" />
<use xlink:href="#f2_2b" transform="matrix(12,0,0,12,584.2,769.5)" />
<use xlink:href="#f2_2g" transform="matrix(12,0,0,12,593.8,769.5)" />
<use xlink:href="#f2_24" transform="matrix(12,0,0,12,599.2,769.5)" />
<use xlink:href="#f2_21" transform="matrix(12,0,0,12,608,769.5)" />
<use xlink:href="#f2_2e" transform="matrix(12,0,0,12,616.1,769.5)" />
<use xlink:href="#f2_1z" transform="matrix(12,0,0,12,631.1,769.5)" />
<use xlink:href="#f2_21" transform="matrix(12,0,0,12,639.2,769.5)" />
<use xlink:href="#f2_28" transform="matrix(12,0,0,12,647.6,769.5)" />
<use xlink:href="#f2_28" transform="matrix(12,0,0,12,652.4,769.5)" />
<use xlink:href="#f2_25" transform="matrix(12,0,0,12,665.9,769.5)" />
<use xlink:href="#f2_2f" transform="matrix(12,0,0,12,670.7,769.5)" />
<use xlink:href="#f2_22" transform="matrix(12,0,0,12,686.8,769.5)" />
<use xlink:href="#f2_2b" transform="matrix(12,0,0,12,692.3,769.5)" />
<use xlink:href="#f2_28" transform="matrix(12,0,0,12,702.2,769.5)" />
<use xlink:href="#f2_28" transform="matrix(12,0,0,12,707.3,769.5)" />
<use xlink:href="#f2_2b" transform="matrix(12,0,0,12,711.7,769.5)" />
<use xlink:href="#f2_2j" transform="matrix(12,0,0,12,721.2,769.5)" />
<use xlink:href="#f2_21" transform="matrix(12,0,0,12,734.4,769.5)" />
<use xlink:href="#f2_20" transform="matrix(12,0,0,12,742.5,769.5)" />
<use xlink:href="#f2_1y" transform="matrix(12,0,0,12,760.4,769.5)" />
<use xlink:href="#f2_2l" transform="matrix(12,0,0,12,769.6,769.5)" />
<use xlink:href="#f2_1z" transform="matrix(12,0,0,12,787.2,769.5)" />
<use xlink:href="#f2_21" transform="matrix(12,0,0,12,795.2,769.5)" />
<use xlink:href="#f2_28" transform="matrix(12,0,0,12,803.7,769.5)" />
<use xlink:href="#f2_28" transform="matrix(12,0,0,12,808.8,769.5)" />
<use xlink:href="#f2_2j" transform="matrix(12,0,0,12,822.3,769.5)" />
<use xlink:href="#f2_1x" transform="matrix(12,0,0,12,835.6,769.5)" />
<use xlink:href="#f2_28" transform="matrix(12,0,0,12,844,769.5)" />
<use xlink:href="#f2_28" transform="matrix(12,0,0,12,849.1,769.5)" />
</g>
</g>
<path fill-rule="evenodd" d="M80.3,816H857.2V773.5H80.3V816Z" class="g0_19" />
<g clip-path="url(#c0_19)">
<g fill="#1F3331" >
<use xlink:href="#f2_22" transform="matrix(12,0,0,12,110,790.7)" />
<use xlink:href="#f2_2b" transform="matrix(12,0,0,12,115.5,790.7)" />
<use xlink:href="#f2_2e" transform="matrix(12,0,0,12,125.1,790.7)" />
<use xlink:href="#f2_29" transform="matrix(12,0,0,12,131.6,790.7)" />
<use xlink:href="#f2_1x" transform="matrix(12,0,0,12,145.2,790.7)" />
<use xlink:href="#f2_2g" transform="matrix(12,0,0,12,153.3,790.7)" />
<use xlink:href="#f2_25" transform="matrix(12,0,0,12,159.1,790.7)" />
<use xlink:href="#f2_2b" transform="matrix(12,0,0,12,163.5,790.7)" />
<use xlink:href="#f2_2a" transform="matrix(12,0,0,12,173,790.7)" />
<use xlink:href="#f2_i" transform="matrix(12,0,0,12,181.9,790.7)" />
</g>
</g>
<path fill-rule="evenodd" d="M80.3,1114.6H857.2V816H80.3v298.6Z" class="g0_19" />
<path fill-rule="evenodd" d="M80.3,1157.2H857.2v-42.6H80.3v42.6Z" class="g0_19" />
<image preserveAspectRatio="none" x="131" y="55" width="684" height="443" xlink:href="img/1.png" />
<image preserveAspectRatio="none" x="85" y="816" width="487" height="277" xlink:href="img/2.png" />
<g fill="#000000" >
<use xlink:href="#f4_o" transform="matrix(8,0,0,8,792.9,1264.1)" />
</g>
<defs>
<path d="M900,0V54l135,20V845L658,0H617L248,845V74L382,54V0H26V54L154,74V926L26,945v55H419L705,342l292,658h401V945L1270,926V74L1398,54V0Z" 
id="f0_1d"
transform="scale(0.001,-0.001)" />

<path d="M34,0V49l76,18V634L38,652v49H325V67L402,49V0ZM217,831c0,0,-48,0,-81,33c0,0,-34,33,-34,82c0,0,0,48,34,81c0,0,34,33,81,33c0,0,48,0,81,-33c0,0,33,-33,33,-81c0,0,0,-47,-33,-81c0,0,-32,-34,-81,-34Z" 
id="f0_25"
transform="scale(0.001,-0.001)" />

<path d="M425,-14c0,0,-187,0,-280,90c0,0,-93,90,-93,276c0,0,0,115,42,198c0,0,43,82,121,126c0,0,78,44,182,44c0,0,104,0,227,-26V486H571L539,609c0,0,-25,19,-50,26c0,0,-24,7,-65,7c0,0,-44,0,-79,-35c0,0,-36,-35,-56,-98c0,0,-20,-64,-20,-153c0,0,0,-150,47,-214c0,0,47,-64,148,-64c0,0,103,0,176,21V42C640,42,606,15,547,0c0,0,-59,-14,-122,-14Z" 
id="f0_1z"
transform="scale(0.001,-0.001)" />

<path d="M41,0V49l91,18V634L41,652v49H336l8,-145c0,0,80,89,144,128c0,0,64,40,117,40h40V468H604l-45,94c0,0,-47,0,-106,-21c0,0,-60,-20,-105,-48V67L460,49V0Z" 
id="f0_2e"
transform="scale(0.001,-0.001)" />

<path d="M379,60c0,0,59,0,84,64c0,0,24,65,24,231c0,0,0,164,-24,227c0,0,-24,63,-84,63c0,0,-57,0,-80,-60c0,0,-22,-61,-22,-230c0,0,0,-173,23,-234c0,0,22,-61,79,-61Zm-2,-74c0,0,-161,0,-240,91c0,0,-79,91,-79,277c0,0,0,186,80,276c0,0,81,90,245,90c0,0,167,0,245,-93c0,0,78,-93,78,-273c0,0,0,-188,-81,-278c0,0,-81,-90,-248,-90Z" 
id="f0_2b"
transform="scale(0.001,-0.001)" />

<path d="M276,-14c0,0,-57,0,-125,13C151,-1,83,10,48,23V214H97l28,-98c0,0,26,-26,69,-44c0,0,42,-17,86,-17c0,0,65,0,97,28c0,0,32,28,32,71c0,0,0,41,-31,65c0,0,-30,25,-133,57c0,0,-108,34,-154,92c0,0,-45,58,-45,143c0,0,0,95,71,152c0,0,71,57,183,57c0,0,77,0,207,-22V518H457l-24,82c0,0,-21,22,-60,35c0,0,-40,14,-75,14c0,0,-53,0,-79,-22c0,0,-26,-22,-26,-59c0,0,0,-40,32,-65c0,0,32,-26,132,-55c0,0,109,-34,155,-89c0,0,45,-55,45,-137c0,0,0,-117,-72,-177c0,0,-72,-59,-209,-59Z" 
id="f0_2f"
transform="scale(0.001,-0.001)" />

<path d="M438,65c0,0,131,0,131,293c0,0,0,279,-130,279c0,0,-69,0,-127,-29V80c0,0,60,-15,126,-15ZM20,-325v50l76,18V634L19,652v49H304l1,-36c0,0,80,55,194,55c0,0,146,0,218,-86c0,0,71,-86,71,-271c0,0,0,-183,-83,-280c0,0,-83,-97,-238,-97c0,0,-79,0,-160,19c0,0,5,-48,5,-109V-257l103,-18v-50Z" 
id="f0_2c"
transform="scale(0.001,-0.001)" />

<path d="M360,-256c0,0,108,0,167,35c0,0,59,35,59,98c0,0,0,70,-95,70H254c0,0,-65,-47,-65,-108c0,0,0,-47,46,-71c0,0,45,-24,125,-24Zm9,561c0,0,55,0,79,43c0,0,25,43,25,129c0,0,0,87,-24,127c0,0,-25,41,-80,41c0,0,-52,0,-75,-41c0,0,-24,-40,-24,-127c0,0,0,-86,23,-129c0,0,23,-43,76,-43Zm-9,-641c0,0,-153,0,-236,43c0,0,-84,44,-84,120c0,0,0,33,28,65c0,0,27,31,105,76c0,0,-44,17,-75,59c0,0,-31,43,-31,90L192,258c0,0,-133,56,-133,219c0,0,0,116,81,180c0,0,82,63,233,63c0,0,32,0,82,-6c0,0,51,-6,74,-13l168,83l26,-32L638,631c0,0,46,-57,46,-154c0,0,0,-119,-80,-182c0,0,-80,-64,-234,-64c0,0,-59,0,-114,9L238,183c0,0,1,-22,28,-41c0,0,26,-19,64,-19H493c0,0,256,0,256,-196c0,0,0,-81,-44,-139c0,0,-45,-59,-131,-92c0,0,-86,-32,-214,-32Z" 
id="f0_23"
transform="scale(0.001,-0.001)" />

<path d="M434,423c0,0,0,101,-7,142c0,0,-6,40,-22,60c0,0,-16,19,-45,19c0,0,-44,0,-66,-48c0,0,-22,-49,-22,-173ZM389,-14c0,0,-172,0,-254,89c0,0,-83,90,-83,279c0,0,0,184,79,274c0,0,79,91,238,91c0,0,142,0,206,-76c0,0,64,-76,64,-237V345H271V333c0,0,0,-111,18,-158c0,0,18,-47,58,-72c0,0,40,-25,110,-25c0,0,66,0,166,22V42C623,42,582,18,517,1c0,0,-66,-15,-128,-15Z" 
id="f0_21"
transform="scale(0.001,-0.001)" />

<path d="M41,0V49l69,18V634L41,652v49H313l11,-61l50,26c0,0,105,54,188,54c0,0,194,0,194,-207V67L827,49V0H478V49l63,18V484c0,0,0,63,-27,98c0,0,-26,35,-75,35c0,0,-57,0,-114,-25V67L389,49V0Z" 
id="f0_2a"
transform="scale(0.001,-0.001)" />

<path d="M273,157c0,0,-114,0,-193,80C80,237,0,317,0,431c0,0,0,112,80,192c0,0,79,80,193,80c0,0,113,0,192,-80c0,0,80,-80,80,-192c0,0,0,-114,-80,-194c0,0,-79,-80,-192,-80Z" 
id="f1_3d"
transform="scale(0.001,-0.001)" />

<path d="M235,0V40L394,60V936H356c0,0,-189,0,-258,-15L78,766H28v234H908V766H857L837,921c0,0,-22,5,-98,9c0,0,-75,4,-165,4H538V60L697,40V0Z" 
id="f2_1k"
transform="scale(0.001,-0.001)" />

<path d="M442,0V33l93,19V504c0,0,0,129,-124,129c0,0,-70,0,-168,-22V52L338,33V0H31V33l88,19v956L15,1026v34H243V756c0,0,0,-77,-5,-112c0,0,54,31,122,53c0,0,68,23,115,23c0,0,91,0,137,-53c0,0,47,-53,47,-154V52L744,33V0Z" 
id="f2_24"
transform="scale(0.001,-0.001)" />

<path d="M495,413c0,0,0,133,-34,190c0,0,-34,57,-105,57c0,0,-78,0,-119,-63c0,0,-42,-62,-42,-184ZM374,-14c0,0,-163,0,-239,87c0,0,-75,88,-75,283c0,0,0,183,77,273c0,0,76,91,219,91c0,0,269,0,269,-306V353H194V340c0,0,0,-103,23,-160c0,0,22,-57,70,-87c0,0,47,-29,124,-29c0,0,40,0,96,6c0,0,55,7,91,15V43C598,43,562,20,500,3c0,0,-61,-17,-126,-17Z" 
id="f2_21"
transform="scale(0.001,-0.001)" />

<path d="M64,0V34L168,59V639H47v36l121,29v49c0,0,0,155,61,239c0,0,62,84,173,84c0,0,58,0,107,-15V908H472l-33,92c0,0,-26,16,-62,16c0,0,-47,0,-66,-42c0,0,-19,-42,-19,-157V701H478V639H292V59L443,34V0Z" 
id="f2_22"
transform="scale(0.001,-0.001)" />

<path d="M377,45c0,0,99,0,147,73c0,0,47,73,47,237c0,0,0,161,-47,233c0,0,-47,72,-147,72c0,0,-97,0,-141,-69c0,0,-44,-69,-44,-236c0,0,0,-169,45,-240c0,0,44,-70,140,-70Zm0,-59c0,0,-158,0,-238,94c0,0,-81,95,-81,274c0,0,0,178,81,272c0,0,80,94,244,94c0,0,160,0,241,-92c0,0,82,-92,82,-274c0,0,0,-368,-329,-368Z" 
id="f2_2b"
transform="scale(0.001,-0.001)" />

<path d="M31,0V33l88,19V649L31,668v33H235l7,-87c0,0,44,37,121,71c0,0,76,35,121,35h11V530H463l-43,82c0,0,-37,0,-88,-10c0,0,-52,-10,-89,-26V52L363,33V0Z" 
id="f2_2e"
transform="scale(0.001,-0.001)" />

<path d="M431,0V33L535,52V499c0,0,0,62,-32,96c0,0,-32,33,-95,33c0,0,-66,0,-163,-22V52L350,33V0H32V33l89,19V649L32,668v33H237l6,-57c0,0,56,32,119,54c0,0,62,22,110,22c0,0,52,0,95,-20c0,0,44,-19,66,-62c0,0,57,32,134,57c0,0,77,25,128,25c0,0,179,0,179,-207V52l90,-19V0H846V33L950,52V499c0,0,0,129,-119,129c0,0,-19,0,-45,-3c0,0,-26,-3,-52,-7c0,0,-25,-4,-49,-8c0,0,-23,-5,-39,-8c0,0,13,-41,13,-89V52L764,33V0Z" 
id="f2_29"
transform="scale(0.001,-0.001)" />

<path d="M284,67c0,0,51,0,88,12c0,0,37,12,74,30V358l-98,-3c0,0,-100,-4,-135,-39c0,0,-35,-35,-35,-117c0,0,0,-132,106,-132ZM233,-14c0,0,-179,0,-179,208c0,0,0,70,27,116c0,0,27,46,87,70c0,0,60,24,173,27l105,3V519c0,0,0,72,-26,107c0,0,-27,34,-82,34c0,0,-75,0,-137,-35L176,538H134V691c0,0,121,26,213,26c0,0,115,0,169,-47c0,0,54,-47,54,-144V52L657,33V0H465L451,70c0,0,-85,-84,-218,-84Z" 
id="f2_1x"
transform="scale(0.001,-0.001)" />

<path d="M249,-14c0,0,-71,0,-107,42c0,0,-35,42,-35,119V639H15v33l93,29l76,159h47V701H391V639H231V161c0,0,0,-48,22,-73c0,0,22,-24,57,-24c0,0,44,0,106,12V26C416,26,389,8,340,-2c0,0,-49,-12,-91,-12Z" 
id="f2_2g"
transform="scale(0.001,-0.001)" />

<path d="M32,0V33L151,52V649L52,668v33H275V52L395,33V0ZM201,850c0,0,-32,0,-56,24c0,0,-24,24,-24,56c0,0,0,34,24,58c0,0,24,24,56,24c0,0,34,0,58,-24c0,0,24,-24,24,-58c0,0,0,-32,-24,-56c0,0,-24,-24,-58,-24Z" 
id="f2_25"
transform="scale(0.001,-0.001)" />

<path d="M439,0V33l93,19V500c0,0,0,62,-30,97c0,0,-31,36,-94,36c0,0,-67,0,-165,-22V52L338,33V0H35V33l84,19V649L35,668v33H235l7,-57c0,0,57,33,122,54c0,0,65,22,108,22c0,0,91,0,137,-53c0,0,47,-53,47,-154V52L741,33V0Z" 
id="f2_2a"
transform="scale(0.001,-0.001)" />

<path d="M383,64c0,0,85,0,152,28V645c0,0,-67,13,-152,13c0,0,-194,0,-194,-314c0,0,0,-141,48,-211c0,0,48,-69,146,-69ZM342,-14c0,0,-287,0,-287,358c0,0,0,184,82,280c0,0,81,96,239,96c0,0,81,0,163,-18c0,0,-4,25,-4,124v182l-118,18v34H659V52L745,33V0H548l-9,52c0,0,-84,-66,-197,-66Z" 
id="f2_20"
transform="scale(0.001,-0.001)" />

<path d="M399,-14c0,0,-341,0,-341,370c0,0,0,175,87,269c0,0,87,95,249,95c0,0,101,0,220,-23V501H573L541,625c0,0,-62,35,-149,35c0,0,-200,0,-200,-304c0,0,0,-158,61,-225c0,0,61,-67,189,-67c0,0,109,0,189,24V43C631,43,595,16,530,1c0,0,-64,-15,-131,-15Z" 
id="f2_1z"
transform="scale(0.001,-0.001)" />

<path d="M278,-14c0,0,-52,0,-115,11c0,0,-63,10,-99,23V193H98L134,95c0,0,56,-50,146,-50c0,0,144,0,144,123c0,0,0,91,-114,130l-66,21c0,0,-75,25,-110,50c0,0,-34,26,-53,63c0,0,-18,36,-18,89c0,0,0,92,63,145c0,0,63,54,170,54c0,0,77,0,193,-23V544H454l-32,81c0,0,-39,35,-124,35c0,0,-61,0,-92,-30c0,0,-32,-30,-32,-80c0,0,0,-43,29,-72c0,0,28,-29,86,-48c0,0,110,-38,144,-55c0,0,33,-17,57,-42c0,0,23,-25,36,-57c0,0,13,-32,13,-79c0,0,0,-104,-66,-158c0,0,-66,-53,-195,-53Z" 
id="f2_2f"
transform="scale(0.001,-0.001)" />

<path d="M382,45c0,0,188,0,188,314c0,0,0,143,-47,213c0,0,-46,69,-141,69c0,0,-87,0,-146,-24V58c0,0,67,-13,146,-13ZM25,-325v35l88,18V649L34,668v33H231l1,-41c0,0,31,27,84,43c0,0,53,17,107,17c0,0,134,0,208,-94c0,0,73,-93,73,-267c0,0,0,-178,-80,-276c0,0,-80,-97,-232,-97c0,0,-84,0,-160,16c0,0,4,-53,4,-84V-272l123,-18v-35Z" 
id="f2_2c"
transform="scale(0.001,-0.001)" />

<path d="M31,0V33L150,52v956L31,1026v34H274V52L394,33V0Z" 
id="f2_28"
transform="scale(0.001,-0.001)" />

<path d="M41,0V49l69,18V634L41,652v49H313l11,-61l50,26c0,0,105,54,188,54c0,0,125,0,167,-91c0,0,153,91,258,91c0,0,189,0,189,-207V67l71,-17V0H898V50l63,17V484c0,0,0,63,-24,98c0,0,-25,35,-74,35c0,0,-55,0,-119,-31c0,0,7,-32,7,-73V67L821,50V0H473V50l63,17V484c0,0,0,63,-25,98c0,0,-24,35,-73,35c0,0,-49,0,-113,-29V67L389,49V0Z" 
id="f0_29"
transform="scale(0.001,-0.001)" />

<path d="M191,-20c0,0,-39,0,-65,25c0,0,-25,27,-25,64c0,0,0,38,26,64c0,0,26,26,64,26c0,0,38,0,64,-26c0,0,26,-26,26,-64c0,0,0,-37,-25,-64c0,0,-26,-25,-65,-25Z" 
id="f2_i"
transform="scale(0.001,-0.001)" />

<path d="M394,460c0,0,126,0,186,57c0,0,60,57,60,187c0,0,0,123,-57,176c0,0,-58,53,-194,53H316V460ZM54,0V40L172,60V941L44,960v40H421c0,0,368,0,368,-295c0,0,0,-153,-93,-233c0,0,-93,-80,-267,-80H316V60L475,40V0Z" 
id="f2_1g"
transform="scale(0.001,-0.001)" />

<path d="M617,0L251,860V60L385,40V0H44V40L172,60V941L44,960v40H347L672,239l355,761h287V960L1185,941V60L1314,40V0H908V40l134,20V859L643,0Z" 
id="f2_1d"
transform="scale(0.001,-0.001)" />

<path d="M577,-14c0,0,-243,0,-379,132C198,118,63,250,63,488c0,0,0,258,130,391c0,0,131,132,387,132c0,0,156,0,335,-38l5,-218H871L848,884c0,0,-52,32,-121,50c0,0,-69,17,-141,17c0,0,-191,0,-279,-112c0,0,-88,-113,-88,-349c0,0,0,-217,92,-332c0,0,92,-115,268,-115c0,0,85,0,160,20c0,0,76,21,120,55l27,149h49L930,32c0,0,-164,-46,-353,-46Z" 
id="f2_13"
transform="scale(0.001,-0.001)" />

<path d="M289,-14c0,0,-179,0,-179,205V649L20,668v33H233V200c0,0,0,-128,120,-128c0,0,92,0,173,23V649L420,668v33H649V52L738,33V0H533l-6,57C527,57,474,28,405,7c0,0,-69,-21,-116,-21Z" 
id="f2_2h"
transform="scale(0.001,-0.001)" />

<path d="M359,-270c0,0,124,0,192,46c0,0,67,47,67,129c0,0,0,43,-26,67c0,0,-26,24,-79,24H242c0,0,-32,-27,-51,-69c0,0,-20,-41,-20,-77c0,0,0,-64,46,-92c0,0,46,-28,142,-28Zm11,561c0,0,81,0,115,47c0,0,34,47,34,141c0,0,0,100,-35,142c0,0,-35,42,-113,42c0,0,-78,0,-114,-43c0,0,-37,-42,-37,-141c0,0,0,-98,36,-143c0,0,36,-45,114,-45ZM359,-329c0,0,-143,0,-218,44c0,0,-75,43,-75,125c0,0,0,39,27,78c0,0,26,38,98,89c0,0,-43,14,-72,48c0,0,-29,35,-29,74L208,262c0,0,-118,55,-118,217c0,0,0,115,73,178c0,0,73,63,211,63c0,0,28,0,71,-6c0,0,44,-6,67,-13l165,83l26,-32L599,644c0,0,50,-56,50,-165c0,0,0,-120,-72,-182c0,0,-73,-62,-208,-62c0,0,-62,0,-114,11L208,148c0,0,2,-13,29,-24c0,0,27,-12,67,-12H512c0,0,113,0,168,-49c0,0,55,-49,55,-134c0,0,0,-79,-44,-137c0,0,-43,-58,-128,-90c0,0,-84,-31,-204,-31Z" 
id="f2_23"
transform="scale(0.001,-0.001)" />

<path d="M44,0V40L172,60V941L44,960v40H794V760H745L721,922c0,0,-83,11,-241,11H316V543H586l23,119h48V354H609L586,475H316V67H513c0,0,193,0,252,12l43,185h49L843,0Z" 
id="f2_15"
transform="scale(0.001,-0.001)" />

<path d="M148,-329c0,0,-58,0,-114,13v151H69l24,-71c0,0,23,-17,64,-17c0,0,39,0,72,22c0,0,33,23,60,67c0,0,27,44,68,157L90,649L19,668v33H344V668L233,648L423,158L606,649L497,668v33H758V668L685,652L411,-43c0,0,-48,-124,-84,-177c0,0,-36,-54,-79,-82c0,0,-44,-27,-100,-27Z" 
id="f2_2l"
transform="scale(0.001,-0.001)" />

<path d="M477,0V33l64,19L348,354L257,254V52L331,33V0H44V33l89,19v956L29,1026v34H257V338L544,647l-73,20v34H718V667L631,650L431,446L688,50L764,33V0Z" 
id="f2_27"
transform="scale(0.001,-0.001)" />

<path d="M376,50c0,0,103,0,149,80c0,0,46,81,46,240c0,0,0,137,-47,204c0,0,-48,67,-148,67c0,0,-44,0,-87,-7c0,0,-44,-8,-63,-17V62c0,0,63,-12,150,-12Zm3,-64c0,0,-64,0,-141,14c0,0,-78,14,-136,37v971L0,1026v34H226V809c0,0,0,-40,-4,-148c0,0,74,59,188,59c0,0,143,0,219,-87c0,0,77,-87,77,-263c0,0,0,-189,-84,-287c0,0,-84,-97,-243,-97Z" 
id="f2_1y"
transform="scale(0.001,-0.001)" />

<path d="M360,-14L72,649L0,668v33H327V668L216,648L420,164L615,649L504,668v33H764V668L697,652L416,-14Z" 
id="f2_2i"
transform="scale(0.001,-0.001)" />

<path d="M58,-234v58c0,0,131,42,131,125c0,0,0,15,-11,27c0,0,-11,12,-38,25C140,1,89,27,89,75c0,0,0,40,25,61c0,0,26,21,65,21c0,0,48,0,77,-34c0,0,30,-34,30,-86c0,0,0,-101,-60,-170c0,0,-59,-69,-168,-101Z" 
id="f2_g"
transform="scale(0.001,-0.001)" />

<path d="M55,0V40L184,60V941L55,960v40H455V960L327,941V60L455,40V0Z" 
id="f2_19"
transform="scale(0.001,-0.001)" />

<path d="M327,-14L84,649L1,668v33H335V668L219,648L385,174L554,632h63L786,171L944,649L830,668v33h267V668l-78,-16L784,-14H726L553,448L382,-14Z" 
id="f2_2j"
transform="scale(0.001,-0.001)" />

<path d="M-12,338v55H777V338Z" 
id="f3_4y"
transform="scale(0.001,-0.001)" />

<path d="M494,385V878L152,385ZM494,0V262H20V385l498,708H628V385H775V262H628V0Z" 
id="f4_o"
transform="scale(0.001,-0.001)" />


</defs>
</svg>