<?xml version="1.0" encoding="UTF-8" standalone="no"?>
<!DOCTYPE svg PUBLIC "-//W3C//DTD SVG 1.1//EN"
"http://www.w3.org/Graphics/SVG/1.1/DTD/svg11.dtd">
<svg viewBox="0 0 935 1210" version="1.1" xmlns="http://www.w3.org/2000/svg" xmlns:xlink="http://www.w3.org/1999/xlink">
<defs>
</defs>
<g fill="#000000" >
<use xlink:href="#f0_1f" transform="matrix(16,0,0,16,312.4,77.7)" />
<use xlink:href="#f0_1i" transform="matrix(16,0,0,16,331.4,77.7)" />
<use xlink:href="#f0_17" transform="matrix(16,0,0,16,349,77.7)" />
<use xlink:href="#f0_11" transform="matrix(16,0,0,16,368.1,77.7)" />
<use xlink:href="#f0_1e" transform="matrix(16,0,0,16,385.7,77.7)" />
<use xlink:href="#f0_19" transform="matrix(16,0,0,16,403.4,77.7)" />
<use xlink:href="#f0_1j" transform="matrix(16,0,0,16,412.9,77.7)" />
<use xlink:href="#f0_1d" transform="matrix(16,0,0,16,426.5,77.7)" />
<use xlink:href="#f0_1j" transform="matrix(16,0,0,16,449.5,77.7)" />
<use xlink:href="#f0_11" transform="matrix(16,0,0,16,469.2,77.7)" />
<use xlink:href="#f0_1e" transform="matrix(16,0,0,16,486.8,77.7)" />
<use xlink:href="#f0_14" transform="matrix(16,0,0,16,504.5,77.7)" />
<use xlink:href="#f0_1g" transform="matrix(16,0,0,16,528.1,77.7)" />
<use xlink:href="#f0_1f" transform="matrix(16,0,0,16,543,77.7)" />
<use xlink:href="#f0_1g" transform="matrix(16,0,0,16,562,77.7)" />
<use xlink:href="#f0_1l" transform="matrix(16,0,0,16,577,77.7)" />
<use xlink:href="#f0_1c" transform="matrix(16,0,0,16,594.6,77.7)" />
<use xlink:href="#f0_11" transform="matrix(16,0,0,16,610.9,77.7)" />
<use xlink:href="#f0_1k" transform="matrix(16,0,0,16,628.6,77.7)" />
<use xlink:href="#f0_19" transform="matrix(16,0,0,16,644.9,77.7)" />
<use xlink:href="#f0_1f" transform="matrix(16,0,0,16,654.4,77.7)" />
<use xlink:href="#f0_1e" transform="matrix(16,0,0,16,673.4,77.7)" />
<use xlink:href="#f0_1j" transform="matrix(16,0,0,16,691.1,77.7)" />
<use xlink:href="#f1_24" transform="matrix(11,0,0,11,55,157.3)" />
<use xlink:href="#f1_2j" transform="matrix(11,0,0,11,66.4,157.3)" />
<use xlink:href="#f1_14" transform="matrix(11,0,0,11,75.9,157.3)" />
<use xlink:href="#f1_5" transform="matrix(11,0,0,11,86.6,157.3)" />
<use xlink:href="#f1_1y" transform="matrix(11,0,0,11,96.8,157.3)" />
<use xlink:href="#f1_1c" transform="matrix(11,0,0,11,107.8,157.3)" />
<use xlink:href="#f1_2n" transform="matrix(11,0,0,11,112.2,157.3)" />
<use xlink:href="#f1_1x" transform="matrix(11,0,0,11,120.3,157.3)" />
<use xlink:href="#f1_5" transform="matrix(11,0,0,11,138.6,157.3)" />
<use xlink:href="#f1_1y" transform="matrix(11,0,0,11,148.8,157.3)" />
<use xlink:href="#f1_p" transform="matrix(11,0,0,11,159.9,157.3)" />
<use xlink:href="#f1_1c" transform="matrix(11,0,0,11,174.2,157.3)" />
<use xlink:href="#f1_2t" transform="matrix(11,0,0,11,178.6,157.3)" />
<use xlink:href="#f1_2n" transform="matrix(11,0,0,11,187,157.3)" />
<use xlink:href="#f1_t" transform="matrix(11,0,0,11,198.7,157.3)" />
<use xlink:href="#f1_1y" transform="matrix(11,0,0,11,206.8,157.3)" />
<use xlink:href="#f1_38" transform="matrix(11,0,0,11,217.8,157.3)" />
<use xlink:href="#f1_1c" transform="matrix(11,0,0,11,227.7,157.3)" />
<use xlink:href="#f1_2j" transform="matrix(11,0,0,11,232.1,157.3)" />
<use xlink:href="#f1_24" transform="matrix(11,0,0,11,241.6,157.3)" />
<use xlink:href="#f1_1y" transform="matrix(11,0,0,11,253,157.3)" />
<use xlink:href="#f1_1x" transform="matrix(11,0,0,11,264,157.3)" />
<use xlink:href="#f1_t" transform="matrix(11,0,0,11,279,157.3)" />
<use xlink:href="#f1_1y" transform="matrix(11,0,0,11,287.1,157.3)" />
<use xlink:href="#f1_2t" transform="matrix(11,0,0,11,298.1,157.3)" />
<use xlink:href="#f2_t" transform="matrix(11,0,0,11,55,200.3)" />
<use xlink:href="#f2_7l" transform="matrix(11,0,0,11,63.1,200.3)" />
<use xlink:href="#f2_am" transform="matrix(11,0,0,11,70.1,200.3)" />
<use xlink:href="#f2_a8" transform="matrix(11,0,0,11,78.9,200.3)" />
<use xlink:href="#f2_am" transform="matrix(11,0,0,11,82.9,200.3)" />
<use xlink:href="#f2_9d" transform="matrix(11,0,0,11,91.7,200.3)" />
<use xlink:href="#f2_co" transform="matrix(11,0,0,11,99.7,200.3)" />
<use xlink:href="#f2_9q" transform="matrix(11,0,0,11,111.8,200.3)" />
<use xlink:href="#f2_b5" transform="matrix(11,0,0,11,115.8,200.3)" />
<use xlink:href="#f2_bf" transform="matrix(11,0,0,11,126.8,200.3)" />
<use xlink:href="#f2_9n" transform="matrix(11,0,0,11,132.3,200.3)" />
<use xlink:href="#f2_7z" transform="matrix(11,0,0,11,141.1,200.3)" />
<use xlink:href="#f2_7k" transform="matrix(11,0,0,11,153.9,200.3)" />
<use xlink:href="#f2_b1" transform="matrix(11,0,0,11,162.7,200.3)" />
<use xlink:href="#f2_77" transform="matrix(11,0,0,11,168.6,200.3)" />
<use xlink:href="#f2_af" transform="matrix(11,0,0,11,176.7,200.3)" />
<use xlink:href="#f2_7l" transform="matrix(11,0,0,11,185.5,200.3)" />
<use xlink:href="#f2_9n" transform="matrix(11,0,0,11,192.4,200.3)" />
<use xlink:href="#f2_am" transform="matrix(11,0,0,11,205.6,200.3)" />
<use xlink:href="#f2_89" transform="matrix(11,0,0,11,214.4,200.3)" />
<use xlink:href="#f2_b5" transform="matrix(11,0,0,11,223.9,200.3)" />
<use xlink:href="#f2_7l" transform="matrix(11,0,0,11,230.5,200.3)" />
<use xlink:href="#f2_9q" transform="matrix(11,0,0,11,237.5,200.3)" />
<use xlink:href="#f2_7z" transform="matrix(11,0,0,11,241.5,200.3)" />
<use xlink:href="#f2_af" transform="matrix(11,0,0,11,249.9,200.3)" />
<use xlink:href="#f2_7l" transform="matrix(11,0,0,11,258.8,200.3)" />
<use xlink:href="#f2_7z" transform="matrix(11,0,0,11,265.7,200.3)" />
<use xlink:href="#f2_bf" transform="matrix(11,0,0,11,278.5,200.3)" />
<use xlink:href="#f2_9n" transform="matrix(11,0,0,11,284,200.3)" />
<use xlink:href="#f2_77" transform="matrix(11,0,0,11,292.8,200.3)" />
<use xlink:href="#f2_bf" transform="matrix(11,0,0,11,300.9,200.3)" />
<use xlink:href="#f2_7v" transform="matrix(11,0,0,11,310.8,200.3)" />
<use xlink:href="#f2_7z" transform="matrix(11,0,0,11,319.6,200.3)" />
<use xlink:href="#f2_77" transform="matrix(11,0,0,11,328,200.3)" />
<use xlink:href="#f2_a8" transform="matrix(11,0,0,11,336.1,200.3)" />
<use xlink:href="#f2_b5" transform="matrix(11,0,0,11,340.1,200.3)" />
<use xlink:href="#f2_ci" transform="matrix(11,0,0,11,351.1,200.3)" />
<use xlink:href="#f2_9q" transform="matrix(11,0,0,11,363.1,200.3)" />
<use xlink:href="#f2_bf" transform="matrix(11,0,0,11,367.2,200.3)" />
<use xlink:href="#f2_9n" transform="matrix(11,0,0,11,372.7,200.3)" />
<use xlink:href="#f2_bf" transform="matrix(11,0,0,11,385.9,200.3)" />
<use xlink:href="#f2_9n" transform="matrix(11,0,0,11,391.4,200.3)" />
<use xlink:href="#f2_7z" transform="matrix(11,0,0,11,400.2,200.3)" />
<use xlink:href="#f2_b1" transform="matrix(11,0,0,11,413,200.3)" />
<use xlink:href="#f2_7z" transform="matrix(11,0,0,11,418.9,200.3)" />
<use xlink:href="#f2_a8" transform="matrix(11,0,0,11,427.7,200.3)" />
<use xlink:href="#f2_77" transform="matrix(11,0,0,11,431.7,200.3)" />
<use xlink:href="#f2_bf" transform="matrix(11,0,0,11,439.8,200.3)" />
<use xlink:href="#f2_9q" transform="matrix(11,0,0,11,445.2,200.3)" />
<use xlink:href="#f2_am" transform="matrix(11,0,0,11,449.3,200.3)" />
<use xlink:href="#f2_af" transform="matrix(11,0,0,11,458.1,200.3)" />
<use xlink:href="#f2_b5" transform="matrix(11,0,0,11,466.9,200.3)" />
<use xlink:href="#f2_9n" transform="matrix(11,0,0,11,473.5,200.3)" />
<use xlink:href="#f2_9q" transform="matrix(11,0,0,11,482.3,200.3)" />
<use xlink:href="#f2_ay" transform="matrix(11,0,0,11,486.3,200.3)" />
<use xlink:href="#f2_7k" transform="matrix(11,0,0,11,499.5,200.3)" />
<use xlink:href="#f2_7z" transform="matrix(11,0,0,11,508.3,200.3)" />
<use xlink:href="#f2_bf" transform="matrix(11,0,0,11,516.7,200.3)" />
<use xlink:href="#f2_ci" transform="matrix(11,0,0,11,522.2,200.3)" />
<use xlink:href="#f2_7z" transform="matrix(11,0,0,11,534.3,200.3)" />
<use xlink:href="#f2_7z" transform="matrix(11,0,0,11,542.7,200.3)" />
<use xlink:href="#f2_af" transform="matrix(11,0,0,11,551.1,200.3)" />
<use xlink:href="#f2_bf" transform="matrix(11,0,0,11,564.3,200.3)" />
<use xlink:href="#f2_9n" transform="matrix(11,0,0,11,569.8,200.3)" />
<use xlink:href="#f2_7z" transform="matrix(11,0,0,11,578.6,200.3)" />
<use xlink:href="#f2_am" transform="matrix(11,0,0,11,591.5,200.3)" />
<use xlink:href="#f2_b1" transform="matrix(11,0,0,11,600.3,200.3)" />
<use xlink:href="#f2_9d" transform="matrix(11,0,0,11,606.2,200.3)" />
<use xlink:href="#f2_77" transform="matrix(11,0,0,11,614.2,200.3)" />
<use xlink:href="#f2_af" transform="matrix(11,0,0,11,622.3,200.3)" />
<use xlink:href="#f2_9q" transform="matrix(11,0,0,11,631.1,200.3)" />
<use xlink:href="#f2_b5" transform="matrix(11,0,0,11,634.7,200.3)" />
<use xlink:href="#f2_ae" transform="matrix(11,0,0,11,641.3,200.3)" />
<use xlink:href="#f2_77" transform="matrix(11,0,0,11,659.3,200.3)" />
<use xlink:href="#f2_af" transform="matrix(11,0,0,11,667.3,200.3)" />
<use xlink:href="#f2_7v" transform="matrix(11,0,0,11,676.1,200.3)" />
<use xlink:href="#f2_bf" transform="matrix(11,0,0,11,689.3,200.3)" />
<use xlink:href="#f2_9n" transform="matrix(11,0,0,11,694.8,200.3)" />
<use xlink:href="#f2_7z" transform="matrix(11,0,0,11,703.6,200.3)" />
<use xlink:href="#f2_7z" transform="matrix(11,0,0,11,716.4,200.3)" />
<use xlink:href="#f2_af" transform="matrix(11,0,0,11,724.8,200.3)" />
<use xlink:href="#f2_ch" transform="matrix(11,0,0,11,733.7,200.3)" />
<use xlink:href="#f2_9q" transform="matrix(11,0,0,11,741.3,200.3)" />
<use xlink:href="#f2_b1" transform="matrix(11,0,0,11,745.4,200.3)" />
<use xlink:href="#f2_am" transform="matrix(11,0,0,11,751.2,200.3)" />
<use xlink:href="#f2_af" transform="matrix(11,0,0,11,760,200.3)" />
<use xlink:href="#f2_ae" transform="matrix(11,0,0,11,768.5,200.3)" />
<use xlink:href="#f2_7z" transform="matrix(11,0,0,11,782,200.3)" />
<use xlink:href="#f2_af" transform="matrix(11,0,0,11,790.4,200.3)" />
<use xlink:href="#f2_bf" transform="matrix(11,0,0,11,798.9,200.3)" />
<use xlink:href="#f2_nt" transform="matrix(11,0,0,11,804.4,200.3)" />
<use xlink:href="#f2_2t" transform="matrix(11,0,0,11,813.1,200.3)" />
<use xlink:href="#f2_9n" transform="matrix(11,0,0,11,821.2,200.3)" />
<use xlink:href="#f2_7z" transform="matrix(11,0,0,11,830,200.3)" />
<use xlink:href="#f2_b1" transform="matrix(11,0,0,11,838.4,200.3)" />
<use xlink:href="#f2_7z" transform="matrix(11,0,0,11,844.3,200.3)" />
<use xlink:href="#f2_77" transform="matrix(11,0,0,11,857.1,200.3)" />
<use xlink:href="#f2_b1" transform="matrix(11,0,0,11,865.2,200.3)" />
<use xlink:href="#f2_7z" transform="matrix(11,0,0,11,871.1,200.3)" />
<use xlink:href="#f2_7v" transform="matrix(11,0,0,11,55,231.1)" />
<use xlink:href="#f2_9q" transform="matrix(11,0,0,11,63.8,231.1)" />
<use xlink:href="#f2_89" transform="matrix(11,0,0,11,67.9,231.1)" />
<use xlink:href="#f2_89" transform="matrix(11,0,0,11,73,231.1)" />
<use xlink:href="#f2_7z" transform="matrix(11,0,0,11,78.1,231.1)" />
<use xlink:href="#f2_b1" transform="matrix(11,0,0,11,86.5,231.1)" />
<use xlink:href="#f2_7z" transform="matrix(11,0,0,11,92.4,231.1)" />
<use xlink:href="#f2_af" transform="matrix(11,0,0,11,100.8,231.1)" />
<use xlink:href="#f2_bf" transform="matrix(11,0,0,11,109.7,231.1)" />
<use xlink:href="#f2_a8" transform="matrix(11,0,0,11,118.8,231.1)" />
<use xlink:href="#f2_7z" transform="matrix(11,0,0,11,122.8,231.1)" />
<use xlink:href="#f2_ch" transform="matrix(11,0,0,11,131.2,231.1)" />
<use xlink:href="#f2_7z" transform="matrix(11,0,0,11,138.9,231.1)" />
<use xlink:href="#f2_a8" transform="matrix(11,0,0,11,147,231.1)" />
<use xlink:href="#f2_b5" transform="matrix(11,0,0,11,151,231.1)" />
<use xlink:href="#f2_am" transform="matrix(11,0,0,11,161.3,231.1)" />
<use xlink:href="#f2_89" transform="matrix(11,0,0,11,170.1,231.1)" />
<use xlink:href="#f2_am" transform="matrix(11,0,0,11,178.9,231.1)" />
<use xlink:href="#f2_b1" transform="matrix(11,0,0,11,187.7,231.1)" />
<use xlink:href="#f2_9d" transform="matrix(11,0,0,11,193.6,231.1)" />
<use xlink:href="#f2_77" transform="matrix(11,0,0,11,201.6,231.1)" />
<use xlink:href="#f2_af" transform="matrix(11,0,0,11,209.7,231.1)" />
<use xlink:href="#f2_9q" transform="matrix(11,0,0,11,218.5,231.1)" />
<use xlink:href="#f2_ct" transform="matrix(11,0,0,11,222.5,231.1)" />
<use xlink:href="#f2_77" transform="matrix(11,0,0,11,229.1,231.1)" />
<use xlink:href="#f2_bf" transform="matrix(11,0,0,11,237.2,231.1)" />
<use xlink:href="#f2_9q" transform="matrix(11,0,0,11,242.7,231.1)" />
<use xlink:href="#f2_am" transform="matrix(11,0,0,11,246.7,231.1)" />
<use xlink:href="#f2_af" transform="matrix(11,0,0,11,255.5,231.1)" />
<use xlink:href="#f2_nq" transform="matrix(11,0,0,11,264.3,231.1)" />
<use xlink:href="#f2_b5" transform="matrix(11,0,0,11,272,231.1)" />
<use xlink:href="#f2_c6" transform="matrix(11,0,0,11,278.6,231.1)" />
<use xlink:href="#f2_7l" transform="matrix(11,0,0,11,287.4,231.1)" />
<use xlink:href="#f2_9n" transform="matrix(11,0,0,11,294.3,231.1)" />
<use xlink:href="#f2_77" transform="matrix(11,0,0,11,306.8,231.1)" />
<use xlink:href="#f2_b5" transform="matrix(11,0,0,11,314.9,231.1)" />
<use xlink:href="#f2_oj" transform="matrix(11,0,0,11,321.7,231.1)" />
<use xlink:href="#f3_3d" transform="matrix(11,0,0,11,82.5,274.7)" />
<use xlink:href="#f2_24" transform="matrix(11,0,0,11,110,274.7)" />
<use xlink:href="#f2_b1" transform="matrix(11,0,0,11,121,274.7)" />
<use xlink:href="#f2_9d" transform="matrix(11,0,0,11,126.9,274.7)" />
<use xlink:href="#f2_77" transform="matrix(11,0,0,11,134.9,274.7)" />
<use xlink:href="#f2_af" transform="matrix(11,0,0,11,143,274.7)" />
<use xlink:href="#f2_9q" transform="matrix(11,0,0,11,151.8,274.7)" />
<use xlink:href="#f2_b5" transform="matrix(11,0,0,11,155.8,274.7)" />
<use xlink:href="#f2_ae" transform="matrix(11,0,0,11,162.4,274.7)" />
<use xlink:href="#f2_oj" transform="matrix(11,0,0,11,176.1,274.7)" />
<use xlink:href="#f2_7z" transform="matrix(11,0,0,11,184.9,274.7)" />
<use xlink:href="#f2_77" transform="matrix(11,0,0,11,193.3,274.7)" />
<use xlink:href="#f2_7l" transform="matrix(11,0,0,11,201.4,274.7)" />
<use xlink:href="#f2_9n" transform="matrix(11,0,0,11,208.3,274.7)" />
<use xlink:href="#f2_9q" transform="matrix(11,0,0,11,220.8,274.7)" />
<use xlink:href="#f2_af" transform="matrix(11,0,0,11,224.8,274.7)" />
<use xlink:href="#f2_7v" transform="matrix(11,0,0,11,233.6,274.7)" />
<use xlink:href="#f2_9q" transform="matrix(11,0,0,11,242.4,274.7)" />
<use xlink:href="#f2_ch" transform="matrix(11,0,0,11,246.4,274.7)" />
<use xlink:href="#f2_9q" transform="matrix(11,0,0,11,253.8,274.7)" />
<use xlink:href="#f2_7v" transform="matrix(11,0,0,11,257.8,274.7)" />
<use xlink:href="#f2_c6" transform="matrix(11,0,0,11,266.6,274.7)" />
<use xlink:href="#f2_77" transform="matrix(11,0,0,11,275.4,274.7)" />
<use xlink:href="#f2_a8" transform="matrix(11,0,0,11,283.5,274.7)" />
<use xlink:href="#f2_am" transform="matrix(11,0,0,11,291.1,274.7)" />
<use xlink:href="#f2_89" transform="matrix(11,0,0,11,299.9,274.7)" />
<use xlink:href="#f2_bf" transform="matrix(11,0,0,11,308.7,274.7)" />
<use xlink:href="#f2_9n" transform="matrix(11,0,0,11,314.2,274.7)" />
<use xlink:href="#f2_7z" transform="matrix(11,0,0,11,323,274.7)" />
<use xlink:href="#f2_b5" transform="matrix(11,0,0,11,335.2,274.7)" />
<use xlink:href="#f2_ay" transform="matrix(11,0,0,11,341.8,274.7)" />
<use xlink:href="#f2_7z" transform="matrix(11,0,0,11,350.7,274.7)" />
<use xlink:href="#f2_7l" transform="matrix(11,0,0,11,359.1,274.7)" />
<use xlink:href="#f2_9q" transform="matrix(11,0,0,11,366,274.7)" />
<use xlink:href="#f2_7z" transform="matrix(11,0,0,11,370.1,274.7)" />
<use xlink:href="#f2_b5" transform="matrix(11,0,0,11,378.5,274.7)" />
<use xlink:href="#f2_nt" transform="matrix(11,0,0,11,385,274.7)" />
<use xlink:href="#f3_3d" transform="matrix(11,0,0,11,82.5,306.2)" />
<use xlink:href="#f2_2g" transform="matrix(11,0,0,11,110,306.2)" />
<use xlink:href="#f2_am" transform="matrix(11,0,0,11,118.8,306.2)" />
<use xlink:href="#f2_ay" transform="matrix(11,0,0,11,127.6,306.2)" />
<use xlink:href="#f2_c6" transform="matrix(11,0,0,11,136.4,306.2)" />
<use xlink:href="#f2_a8" transform="matrix(11,0,0,11,145.2,306.2)" />
<use xlink:href="#f2_77" transform="matrix(11,0,0,11,149.3,306.2)" />
<use xlink:href="#f2_bf" transform="matrix(11,0,0,11,157.3,306.2)" />
<use xlink:href="#f2_9q" transform="matrix(11,0,0,11,162.8,306.2)" />
<use xlink:href="#f2_am" transform="matrix(11,0,0,11,166.8,306.2)" />
<use xlink:href="#f2_af" transform="matrix(11,0,0,11,175.6,306.2)" />
<use xlink:href="#f2_oj" transform="matrix(11,0,0,11,184.5,306.2)" />
<use xlink:href="#f2_9q" transform="matrix(11,0,0,11,193.3,306.2)" />
<use xlink:href="#f2_bf" transform="matrix(11,0,0,11,197.3,306.2)" />
<use xlink:href="#f2_9q" transform="matrix(11,0,0,11,206.5,306.2)" />
<use xlink:href="#f2_b5" transform="matrix(11,0,0,11,210.5,306.2)" />
<use xlink:href="#f2_7v" transform="matrix(11,0,0,11,220.8,306.2)" />
<use xlink:href="#f2_7z" transform="matrix(11,0,0,11,229.6,306.2)" />
<use xlink:href="#f2_89" transform="matrix(11,0,0,11,238,306.2)" />
<use xlink:href="#f2_9q" transform="matrix(11,0,0,11,243.1,306.2)" />
<use xlink:href="#f2_af" transform="matrix(11,0,0,11,247.1,306.2)" />
<use xlink:href="#f2_7z" transform="matrix(11,0,0,11,256,306.2)" />
<use xlink:href="#f2_7v" transform="matrix(11,0,0,11,264.4,306.2)" />
<use xlink:href="#f2_77" transform="matrix(11,0,0,11,276.9,306.2)" />
<use xlink:href="#f2_b5" transform="matrix(11,0,0,11,284.9,306.2)" />
<use xlink:href="#f2_9d" transform="matrix(11,0,0,11,295.2,306.2)" />
<use xlink:href="#f2_b1" transform="matrix(11,0,0,11,303.2,306.2)" />
<use xlink:href="#f2_am" transform="matrix(11,0,0,11,309.1,306.2)" />
<use xlink:href="#f2_c6" transform="matrix(11,0,0,11,317.9,306.2)" />
<use xlink:href="#f2_ay" transform="matrix(11,0,0,11,326.7,306.2)" />
<use xlink:href="#f2_am" transform="matrix(11,0,0,11,339.2,306.2)" />
<use xlink:href="#f2_89" transform="matrix(11,0,0,11,348,306.2)" />
<use xlink:href="#f2_am" transform="matrix(11,0,0,11,356.8,306.2)" />
<use xlink:href="#f2_b1" transform="matrix(11,0,0,11,365.6,306.2)" />
<use xlink:href="#f2_9d" transform="matrix(11,0,0,11,371.5,306.2)" />
<use xlink:href="#f2_77" transform="matrix(11,0,0,11,379.5,306.2)" />
<use xlink:href="#f2_af" transform="matrix(11,0,0,11,387.6,306.2)" />
<use xlink:href="#f2_9q" transform="matrix(11,0,0,11,396.4,306.2)" />
<use xlink:href="#f2_b5" transform="matrix(11,0,0,11,400.4,306.2)" />
<use xlink:href="#f2_ae" transform="matrix(11,0,0,11,407,306.2)" />
<use xlink:href="#f2_b5" transform="matrix(11,0,0,11,420.5,306.2)" />
<use xlink:href="#f2_bf" transform="matrix(11,0,0,11,430.8,306.2)" />
<use xlink:href="#f2_9n" transform="matrix(11,0,0,11,436.3,306.2)" />
<use xlink:href="#f2_77" transform="matrix(11,0,0,11,445.1,306.2)" />
<use xlink:href="#f2_bf" transform="matrix(11,0,0,11,453.2,306.2)" />
<use xlink:href="#f2_7l" transform="matrix(11,0,0,11,462.3,306.2)" />
<use xlink:href="#f2_77" transform="matrix(11,0,0,11,469.3,306.2)" />
<use xlink:href="#f2_af" transform="matrix(11,0,0,11,477.7,306.2)" />
<use xlink:href="#f2_9q" transform="matrix(11,0,0,11,490.2,306.2)" />
<use xlink:href="#f2_af" transform="matrix(11,0,0,11,494.2,306.2)" />
<use xlink:href="#f2_bf" transform="matrix(11,0,0,11,503,306.2)" />
<use xlink:href="#f2_7z" transform="matrix(11,0,0,11,508.5,306.2)" />
<use xlink:href="#f2_b1" transform="matrix(11,0,0,11,516.9,306.2)" />
<use xlink:href="#f2_7k" transform="matrix(11,0,0,11,522.8,306.2)" />
<use xlink:href="#f2_b1" transform="matrix(11,0,0,11,531.6,306.2)" />
<use xlink:href="#f2_7z" transform="matrix(11,0,0,11,537.5,306.2)" />
<use xlink:href="#f2_7z" transform="matrix(11,0,0,11,545.9,306.2)" />
<use xlink:href="#f2_7v" transform="matrix(11,0,0,11,554.3,306.2)" />
<use xlink:href="#f2_nt" transform="matrix(11,0,0,11,563.1,306.2)" />
<use xlink:href="#f3_3d" transform="matrix(11,0,0,11,82.5,338.2)" />
<use xlink:href="#f2_j" transform="matrix(11,0,0,11,110,338.2)" />
<use xlink:href="#f2_am" transform="matrix(11,0,0,11,119.2,338.2)" />
<use xlink:href="#f2_ae" transform="matrix(11,0,0,11,128,338.2)" />
<use xlink:href="#f2_ae" transform="matrix(11,0,0,11,141.5,338.2)" />
<use xlink:href="#f2_c6" transform="matrix(11,0,0,11,155.1,338.2)" />
<use xlink:href="#f2_af" transform="matrix(11,0,0,11,163.9,338.2)" />
<use xlink:href="#f2_9q" transform="matrix(11,0,0,11,172.3,338.2)" />
<use xlink:href="#f2_bf" transform="matrix(11,0,0,11,176.3,338.2)" />
<use xlink:href="#f2_9q" transform="matrix(11,0,0,11,181.8,338.2)" />
<use xlink:href="#f2_7z" transform="matrix(11,0,0,11,185.8,338.2)" />
<use xlink:href="#f2_b5" transform="matrix(11,0,0,11,194.2,338.2)" />
<use xlink:href="#f2_oj" transform="matrix(11,0,0,11,201,338.2)" />
<use xlink:href="#f2_7v" transform="matrix(11,0,0,11,209.8,338.2)" />
<use xlink:href="#f2_9q" transform="matrix(11,0,0,11,218.6,338.2)" />
<use xlink:href="#f2_89" transform="matrix(11,0,0,11,222.6,338.2)" />
<use xlink:href="#f2_89" transform="matrix(11,0,0,11,227.8,338.2)" />
<use xlink:href="#f2_7z" transform="matrix(11,0,0,11,232.9,338.2)" />
<use xlink:href="#f2_b1" transform="matrix(11,0,0,11,241.3,338.2)" />
<use xlink:href="#f2_7z" transform="matrix(11,0,0,11,247.2,338.2)" />
<use xlink:href="#f2_af" transform="matrix(11,0,0,11,255.6,338.2)" />
<use xlink:href="#f2_bf" transform="matrix(11,0,0,11,264.5,338.2)" />
<use xlink:href="#f2_ay" transform="matrix(11,0,0,11,273.6,338.2)" />
<use xlink:href="#f2_am" transform="matrix(11,0,0,11,282.4,338.2)" />
<use xlink:href="#f2_ay" transform="matrix(11,0,0,11,291.2,338.2)" />
<use xlink:href="#f2_c6" transform="matrix(11,0,0,11,300,338.2)" />
<use xlink:href="#f2_a8" transform="matrix(11,0,0,11,308.8,338.2)" />
<use xlink:href="#f2_77" transform="matrix(11,0,0,11,312.8,338.2)" />
<use xlink:href="#f2_bf" transform="matrix(11,0,0,11,320.9,338.2)" />
<use xlink:href="#f2_9q" transform="matrix(11,0,0,11,326.4,338.2)" />
<use xlink:href="#f2_am" transform="matrix(11,0,0,11,330.4,338.2)" />
<use xlink:href="#f2_af" transform="matrix(11,0,0,11,339.2,338.2)" />
<use xlink:href="#f2_7l" transform="matrix(11,0,0,11,351.7,338.2)" />
<use xlink:href="#f2_am" transform="matrix(11,0,0,11,358.6,338.2)" />
<use xlink:href="#f2_ae" transform="matrix(11,0,0,11,367.4,338.2)" />
<use xlink:href="#f2_7k" transform="matrix(11,0,0,11,381,338.2)" />
<use xlink:href="#f2_9q" transform="matrix(11,0,0,11,389.8,338.2)" />
<use xlink:href="#f2_af" transform="matrix(11,0,0,11,393.8,338.2)" />
<use xlink:href="#f2_7z" transform="matrix(11,0,0,11,402.6,338.2)" />
<use xlink:href="#f2_bf" transform="matrix(11,0,0,11,414.7,338.2)" />
<use xlink:href="#f2_am" transform="matrix(11,0,0,11,420.2,338.2)" />
<use xlink:href="#f2_89" transform="matrix(11,0,0,11,432.7,338.2)" />
<use xlink:href="#f2_am" transform="matrix(11,0,0,11,437.8,338.2)" />
<use xlink:href="#f2_b1" transform="matrix(11,0,0,11,446.6,338.2)" />
<use xlink:href="#f2_ae" transform="matrix(11,0,0,11,452.5,338.2)" />
<use xlink:href="#f2_7l" transform="matrix(11,0,0,11,469.7,338.2)" />
<use xlink:href="#f2_am" transform="matrix(11,0,0,11,477,338.2)" />
<use xlink:href="#f2_ae" transform="matrix(11,0,0,11,485.8,338.2)" />
<use xlink:href="#f2_ae" transform="matrix(11,0,0,11,499.3,338.2)" />
<use xlink:href="#f2_c6" transform="matrix(11,0,0,11,512.9,338.2)" />
<use xlink:href="#f2_af" transform="matrix(11,0,0,11,521.7,338.2)" />
<use xlink:href="#f2_9q" transform="matrix(11,0,0,11,530.5,338.2)" />
<use xlink:href="#f2_bf" transform="matrix(11,0,0,11,534.5,338.2)" />
<use xlink:href="#f2_9q" transform="matrix(11,0,0,11,540,338.2)" />
<use xlink:href="#f2_7z" transform="matrix(11,0,0,11,544,338.2)" />
<use xlink:href="#f2_b5" transform="matrix(11,0,0,11,552.4,338.2)" />
<use xlink:href="#f2_nt" transform="matrix(11,0,0,11,558.7,338.2)" />
<use xlink:href="#f3_3d" transform="matrix(11,0,0,11,82.5,369.7)" />
<use xlink:href="#f2_i" transform="matrix(11,0,0,11,110,369.7)" />
<use xlink:href="#f2_9q" transform="matrix(11,0,0,11,119.2,369.7)" />
<use xlink:href="#f2_am" transform="matrix(11,0,0,11,123.2,369.7)" />
<use xlink:href="#f2_ae" transform="matrix(11,0,0,11,132,369.7)" />
<use xlink:href="#f2_7z" transform="matrix(11,0,0,11,145.6,369.7)" />
<use xlink:href="#f2_b5" transform="matrix(11,0,0,11,154,369.7)" />
<use xlink:href="#f2_oj" transform="matrix(11,0,0,11,160.7,369.7)" />
<use xlink:href="#f2_a8" transform="matrix(11,0,0,11,165.4,369.7)" />
<use xlink:href="#f2_77" transform="matrix(11,0,0,11,169.5,369.7)" />
<use xlink:href="#f2_b1" transform="matrix(11,0,0,11,177.5,369.7)" />
<use xlink:href="#f2_9d" transform="matrix(11,0,0,11,183.4,369.7)" />
<use xlink:href="#f2_7z" transform="matrix(11,0,0,11,191.4,369.7)" />
<use xlink:href="#f2_c6" transform="matrix(11,0,0,11,203.5,369.7)" />
<use xlink:href="#f2_af" transform="matrix(11,0,0,11,212.3,369.7)" />
<use xlink:href="#f2_9q" transform="matrix(11,0,0,11,221.1,369.7)" />
<use xlink:href="#f2_bf" transform="matrix(11,0,0,11,225.2,369.7)" />
<use xlink:href="#f2_am" transform="matrix(11,0,0,11,234.3,369.7)" />
<use xlink:href="#f2_89" transform="matrix(11,0,0,11,243.1,369.7)" />
<use xlink:href="#f2_89" transform="matrix(11,0,0,11,251.9,369.7)" />
<use xlink:href="#f2_a8" transform="matrix(11,0,0,11,257.1,369.7)" />
<use xlink:href="#f2_am" transform="matrix(11,0,0,11,261.1,369.7)" />
<use xlink:href="#f2_b1" transform="matrix(11,0,0,11,269.9,369.7)" />
<use xlink:href="#f2_77" transform="matrix(11,0,0,11,275.8,369.7)" />
<use xlink:href="#f2_77" transform="matrix(11,0,0,11,287.5,369.7)" />
<use xlink:href="#f2_af" transform="matrix(11,0,0,11,295.5,369.7)" />
<use xlink:href="#f2_7v" transform="matrix(11,0,0,11,304.3,369.7)" />
<use xlink:href="#f2_89" transform="matrix(11,0,0,11,316.8,369.7)" />
<use xlink:href="#f2_77" transform="matrix(11,0,0,11,321.9,369.7)" />
<use xlink:href="#f2_c6" transform="matrix(11,0,0,11,330,369.7)" />
<use xlink:href="#f2_af" transform="matrix(11,0,0,11,338.8,369.7)" />
<use xlink:href="#f2_77" transform="matrix(11,0,0,11,347.6,369.7)" />
<use xlink:href="#f2_9q" transform="matrix(11,0,0,11,359.3,369.7)" />
<use xlink:href="#f2_af" transform="matrix(11,0,0,11,363.3,369.7)" />
<use xlink:href="#f2_77" transform="matrix(11,0,0,11,375.8,369.7)" />
<use xlink:href="#f2_b5" transform="matrix(11,0,0,11,387.5,369.7)" />
<use xlink:href="#f2_ay" transform="matrix(11,0,0,11,394.1,369.7)" />
<use xlink:href="#f2_7z" transform="matrix(11,0,0,11,403,369.7)" />
<use xlink:href="#f2_7l" transform="matrix(11,0,0,11,411.4,369.7)" />
<use xlink:href="#f2_9q" transform="matrix(11,0,0,11,418.3,369.7)" />
<use xlink:href="#f2_89" transform="matrix(11,0,0,11,422.4,369.7)" />
<use xlink:href="#f2_9q" transform="matrix(11,0,0,11,427.5,369.7)" />
<use xlink:href="#f2_7l" transform="matrix(11,0,0,11,431.5,369.7)" />
<use xlink:href="#f2_7l" transform="matrix(11,0,0,11,442.1,369.7)" />
<use xlink:href="#f2_a8" transform="matrix(11,0,0,11,449.1,369.7)" />
<use xlink:href="#f2_9q" transform="matrix(11,0,0,11,453.1,369.7)" />
<use xlink:href="#f2_ae" transform="matrix(11,0,0,11,457.1,369.7)" />
<use xlink:href="#f2_77" transform="matrix(11,0,0,11,470.7,369.7)" />
<use xlink:href="#f2_bf" transform="matrix(11,0,0,11,478.7,369.7)" />
<use xlink:href="#f2_9q" transform="matrix(11,0,0,11,484.2,369.7)" />
<use xlink:href="#f2_7l" transform="matrix(11,0,0,11,488.2,369.7)" />
<use xlink:href="#f2_ct" transform="matrix(11,0,0,11,498.9,369.7)" />
<use xlink:href="#f2_am" transform="matrix(11,0,0,11,505.5,369.7)" />
<use xlink:href="#f2_af" transform="matrix(11,0,0,11,514.3,369.7)" />
<use xlink:href="#f2_7z" transform="matrix(11,0,0,11,523.1,369.7)" />
<use xlink:href="#f2_nt" transform="matrix(11,0,0,11,531.5,369.7)" />
<use xlink:href="#f1_13" transform="matrix(11,0,0,11,398.4,734.3)" />
<use xlink:href="#f1_9q" transform="matrix(11,0,0,11,406.1,734.3)" />
<use xlink:href="#f1_9d" transform="matrix(11,0,0,11,410.1,734.3)" />
<use xlink:href="#f1_nt" transform="matrix(11,0,0,11,418.1,734.3)" />
<use xlink:href="#f1_ry" transform="matrix(11,0,0,11,422.5,734.3)" />
<use xlink:href="#f1_nt" transform="matrix(11,0,0,11,431,734.3)" />
<use xlink:href="#f1_1r" transform="matrix(11,0,0,11,439,734.3)" />
<use xlink:href="#f1_7z" transform="matrix(11,0,0,11,446.4,734.3)" />
<use xlink:href="#f1_ch" transform="matrix(11,0,0,11,454.8,734.3)" />
<use xlink:href="#f1_7z" transform="matrix(11,0,0,11,462.8,734.3)" />
<use xlink:href="#f1_a8" transform="matrix(11,0,0,11,471.3,734.3)" />
<use xlink:href="#f1_b5" transform="matrix(11,0,0,11,475.3,734.3)" />
<use xlink:href="#f1_am" transform="matrix(11,0,0,11,485.6,734.3)" />
<use xlink:href="#f1_89" transform="matrix(11,0,0,11,494.7,734.3)" />
<use xlink:href="#f1_am" transform="matrix(11,0,0,11,503.8,734.3)" />
<use xlink:href="#f1_b1" transform="matrix(11,0,0,11,513,734.3)" />
<use xlink:href="#f1_9d" transform="matrix(11,0,0,11,518.8,734.3)" />
<use xlink:href="#f1_77" transform="matrix(11,0,0,11,526.9,734.3)" />
<use xlink:href="#f1_af" transform="matrix(11,0,0,11,535.3,734.3)" />
<use xlink:href="#f1_9q" transform="matrix(11,0,0,11,544.5,734.3)" />
<use xlink:href="#f1_ct" transform="matrix(11,0,0,11,548.5,734.3)" />
<use xlink:href="#f1_77" transform="matrix(11,0,0,11,555.1,734.3)" />
<use xlink:href="#f1_bf" transform="matrix(11,0,0,11,563.5,734.3)" />
<use xlink:href="#f1_9q" transform="matrix(11,0,0,11,569.3,734.3)" />
<use xlink:href="#f1_am" transform="matrix(11,0,0,11,573.4,734.3)" />
<use xlink:href="#f1_af" transform="matrix(11,0,0,11,582.5,734.3)" />
<use xlink:href="#f1_1x" transform="matrix(11,0,0,11,110,765.1)" />
<use xlink:href="#f1_77" transform="matrix(11,0,0,11,124.7,765.1)" />
<use xlink:href="#f1_a2" transform="matrix(11,0,0,11,133.1,765.1)" />
<use xlink:href="#f1_am" transform="matrix(11,0,0,11,137.5,765.1)" />
<use xlink:href="#f1_b1" transform="matrix(11,0,0,11,146.7,765.1)" />
<use xlink:href="#f1_i" transform="matrix(11,0,0,11,156.2,765.1)" />
<use xlink:href="#f1_9q" transform="matrix(11,0,0,11,165.7,765.1)" />
<use xlink:href="#f1_am" transform="matrix(11,0,0,11,169.7,765.1)" />
<use xlink:href="#f1_ae" transform="matrix(11,0,0,11,178.9,765.1)" />
<use xlink:href="#f1_7z" transform="matrix(11,0,0,11,192.4,765.1)" />
<use xlink:href="#f1_b5" transform="matrix(11,0,0,11,200.9,765.1)" />
<use xlink:href="#f1_9q" transform="matrix(11,0,0,11,211.1,765.1)" />
<use xlink:href="#f1_af" transform="matrix(11,0,0,11,215.1,765.1)" />
<use xlink:href="#f1_1c" transform="matrix(11,0,0,11,228,765.1)" />
<use xlink:href="#f1_af" transform="matrix(11,0,0,11,232.5,765.1)" />
<use xlink:href="#f1_7v" transform="matrix(11,0,0,11,241.7,765.1)" />
<use xlink:href="#f1_9q" transform="matrix(11,0,0,11,250.8,765.1)" />
<use xlink:href="#f1_77" transform="matrix(11,0,0,11,254.9,765.1)" />
<use xlink:href="#f1_2t" transform="matrix(11,0,0,11,110,1079.8)" />
<use xlink:href="#f1_b1" transform="matrix(11,0,0,11,118.5,1079.8)" />
<use xlink:href="#f1_am" transform="matrix(11,0,0,11,124.3,1079.8)" />
<use xlink:href="#f1_ay" transform="matrix(11,0,0,11,133.5,1079.8)" />
<use xlink:href="#f1_9q" transform="matrix(11,0,0,11,142.6,1079.8)" />
<use xlink:href="#f1_7l" transform="matrix(11,0,0,11,146.6,1079.8)" />
<use xlink:href="#f1_77" transform="matrix(11,0,0,11,153.6,1079.8)" />
<use xlink:href="#f1_a8" transform="matrix(11,0,0,11,162,1079.8)" />
<use xlink:href="#f1_2j" transform="matrix(11,0,0,11,169.7,1079.8)" />
<use xlink:href="#f1_77" transform="matrix(11,0,0,11,179.2,1079.8)" />
<use xlink:href="#f1_9q" transform="matrix(11,0,0,11,187.7,1079.8)" />
<use xlink:href="#f1_af" transform="matrix(11,0,0,11,191.7,1079.8)" />
<use xlink:href="#f1_13" transform="matrix(11,0,0,11,204.5,1079.8)" />
<use xlink:href="#f1_am" transform="matrix(11,0,0,11,212.2,1079.8)" />
<use xlink:href="#f1_b1" transform="matrix(11,0,0,11,221.3,1079.8)" />
<use xlink:href="#f1_7z" transform="matrix(11,0,0,11,227.2,1079.8)" />
<use xlink:href="#f1_b5" transform="matrix(11,0,0,11,235.6,1079.8)" />
<use xlink:href="#f1_bf" transform="matrix(11,0,0,11,242.2,1079.8)" />
<use xlink:href="#f1_i" transform="matrix(11,0,0,11,251.8,1079.8)" />
<use xlink:href="#f1_9q" transform="matrix(11,0,0,11,261.3,1079.8)" />
<use xlink:href="#f1_am" transform="matrix(11,0,0,11,265.3,1079.8)" />
<use xlink:href="#f1_ae" transform="matrix(11,0,0,11,274.5,1079.8)" />
<use xlink:href="#f1_7z" transform="matrix(11,0,0,11,288,1079.8)" />
<use xlink:href="#f1_p" transform="matrix(11,0,0,11,516.8,1079.8)" />
<use xlink:href="#f1_7z" transform="matrix(11,0,0,11,527.4,1079.8)" />
<use xlink:href="#f1_7l" transform="matrix(11,0,0,11,535.9,1079.8)" />
<use xlink:href="#f1_9q" transform="matrix(11,0,0,11,543.2,1079.8)" />
<use xlink:href="#f1_7v" transform="matrix(11,0,0,11,547.2,1079.8)" />
<use xlink:href="#f1_c6" transform="matrix(11,0,0,11,556.4,1079.8)" />
<use xlink:href="#f1_am" transform="matrix(11,0,0,11,565.5,1079.8)" />
<use xlink:href="#f1_c6" transform="matrix(11,0,0,11,574.7,1079.8)" />
<use xlink:href="#f1_b5" transform="matrix(11,0,0,11,583.8,1079.8)" />
<use xlink:href="#f1_13" transform="matrix(11,0,0,11,594,1079.8)" />
<use xlink:href="#f1_am" transform="matrix(11,0,0,11,601.8,1079.8)" />
<use xlink:href="#f1_b1" transform="matrix(11,0,0,11,610.9,1079.8)" />
<use xlink:href="#f1_7z" transform="matrix(11,0,0,11,616.8,1079.8)" />
<use xlink:href="#f1_b5" transform="matrix(11,0,0,11,625.2,1079.8)" />
<use xlink:href="#f1_bf" transform="matrix(11,0,0,11,631.8,1079.8)" />
<use xlink:href="#f1_i" transform="matrix(11,0,0,11,641.5,1079.8)" />
<use xlink:href="#f1_9q" transform="matrix(11,0,0,11,651,1079.8)" />
<use xlink:href="#f1_am" transform="matrix(11,0,0,11,655.1,1079.8)" />
<use xlink:href="#f1_ae" transform="matrix(11,0,0,11,664.2,1079.8)" />
<use xlink:href="#f1_7z" transform="matrix(11,0,0,11,677.8,1079.8)" />
</g>
<image preserveAspectRatio="none" x="333" y="384" width="322" height="322" xlink:href="img/1.png" />
<image preserveAspectRatio="none" x="110" y="863" width="316" height="190" xlink:href="img/2.png" />
<image preserveAspectRatio="none" x="434" y="810" width="303" height="243" xlink:href="img/3.png" />
<g fill="#000000" >
<use xlink:href="#f4_l" transform="matrix(8,0,0,8,818.2,1187.9)" />
<use xlink:href="#f5_13" transform="matrix(16,0,0,16,430.9,44.8)" />
<use xlink:href="#f5_24" transform="matrix(16,0,0,16,448.5,44.8)" />
<use xlink:href="#f5_1x" transform="matrix(16,0,0,16,462.1,44.8)" />
<use xlink:href="#f5_2c" transform="matrix(16,0,0,16,474.4,44.8)" />
<use xlink:href="#f5_2g" transform="matrix(16,0,0,16,488,44.8)" />
<use xlink:href="#f5_21" transform="matrix(16,0,0,16,496.1,44.8)" />
<use xlink:href="#f5_2e" transform="matrix(16,0,0,16,506.9,44.8)" />
<use xlink:href="#f5_l" transform="matrix(16,0,0,16,523.9,44.8)" />
<use xlink:href="#f5_n" transform="matrix(16,0,0,16,536.1,44.8)" />
</g>
<defs>
<path d="M597,33c0,0,77,0,129,38c0,0,65,47,102,152c0,0,36,105,36,273c0,0,0,201,-37,300c0,0,-37,100,-95,141c0,0,-58,41,-133,41c0,0,-139,0,-211,-142c0,0,-59,-116,-59,-334c0,0,0,-259,91,-382c0,0,63,-87,177,-87Zm3,-54c0,0,-273,0,-423,183C177,162,60,309,60,509c0,0,0,225,153,375c0,0,144,142,358,142c6,0,12,0,19,0c0,0,3,0,8,0c42,0,250,-7,385,-141c0,0,151,-150,151,-375c0,0,0,-193,-113,-339c0,0,-149,-192,-421,-192Z" 
id="f0_1f"
transform="scale(0.001,-0.001)" />

<path d="M448,514c0,0,104,0,155,19c0,0,52,19,81,69c0,0,30,50,30,129c0,0,0,116,-54,171c0,0,-54,55,-174,55H406V514ZM28,0V27c0,0,70,0,95,13c0,0,25,14,35,35c0,0,10,21,10,103V834c0,0,0,82,-10,104c0,0,-10,21,-35,34c0,0,-25,13,-95,13v27H498c0,0,184,0,269,-25c0,0,85,-26,138,-94c0,0,54,-68,54,-160c0,0,0,-112,-80,-185c0,0,-52,-46,-145,-69L977,135c0,0,48,-66,68,-82c0,0,31,-23,72,-26V0H798L472,462H406V178c0,0,0,-82,10,-104c0,0,10,-21,35,-34c0,0,25,-13,95,-13V0Z" 
id="f0_1i"
transform="scale(0.001,-0.001)" />

<path d="M635,-22c0,0,-144,0,-239,38c0,0,-96,39,-168,102c0,0,-73,64,-114,144c0,0,-52,103,-52,230c0,0,0,228,160,385c0,0,161,157,404,157c0,0,75,0,136,-12c0,0,33,-6,106,-34c0,0,74,-28,87,-28c0,0,21,0,39,16c0,0,18,15,33,58h27V678h-27c0,0,-50,146,-150,222c0,0,-100,76,-219,76c0,0,-113,0,-189,-64c0,0,-75,-64,-107,-178c0,0,-31,-114,-31,-234c0,0,0,-145,34,-255c0,0,35,-110,111,-161c0,0,76,-52,181,-52c0,0,37,0,75,8c0,0,39,8,79,23V274c0,0,0,60,-8,77c0,0,-9,18,-34,32c0,0,-26,14,-63,14H680v27h493V397c0,0,-56,-4,-78,-15c0,0,-22,-12,-34,-39c0,0,-6,-14,-6,-69L1054,63c0,0,-97,-43,-201,-64c0,0,-105,-21,-218,-21Z" 
id="f0_17"
transform="scale(0.001,-0.001)" />

<path d="M610,343L459,690L304,343ZM12,0V27c0,0,54,9,89,46c0,0,35,37,87,153l361,807h14L928,203c0,0,52,-118,86,-149c0,0,25,-23,71,-27V0H596V27h20c0,0,59,0,83,17c0,0,16,12,16,34c0,0,0,14,-4,28c0,0,-1,7,-22,56L634,288H279L235,190c0,0,-20,-50,-20,-82c0,0,0,-42,34,-63c0,0,20,-12,99,-18V0Z" 
id="f0_11"
transform="scale(0.001,-0.001)" />

<path d="M910,-21L225,820V176c0,0,0,-87,40,-118c0,0,40,-31,91,-31h24V0H21V27c0,0,83,1,116,35c0,0,33,33,33,114V891l-21,26c0,0,-32,41,-57,53c0,0,-24,13,-71,15v27H380L880,385V819c0,0,0,92,-26,124c0,0,-34,42,-116,42c-1,0,-3,0,-4,0v27h334V985c0,0,-64,-9,-86,-22c0,0,-22,-13,-35,-42c0,0,-12,-30,-12,-102V-21Z" 
id="f0_1e"
transform="scale(0.001,-0.001)" />

<path d="M29,0V27H63c0,0,44,0,71,16c0,0,19,11,30,36c0,0,8,18,8,94V839c0,0,0,78,-8,97c0,0,-8,20,-33,34c0,0,-25,15,-68,15H29v27H558V985H525c0,0,-44,0,-71,-16c0,0,-19,-11,-30,-36c0,0,-8,-18,-8,-94V173c0,0,0,-78,8,-97c0,0,9,-20,34,-34c0,0,24,-15,67,-15h33V0Z" 
id="f0_19"
transform="scale(0.001,-0.001)" />

<path d="M78,-22V359h28c0,0,32,-161,126,-246c0,0,94,-85,202,-85c0,0,84,0,133,46c0,0,50,45,50,106c0,0,0,36,-19,69c0,0,-19,34,-58,64c0,0,-39,30,-138,79c0,0,-138,68,-198,115c0,0,-60,48,-92,107c0,0,-33,59,-33,130c0,0,0,120,89,205c0,0,89,85,224,85c0,0,49,0,96,-11c0,0,35,-9,85,-34c0,0,51,-24,71,-24c0,0,19,0,30,12c0,0,12,12,21,57h23l8,-337H695c0,0,-21,127,-106,204c0,0,-85,78,-184,78c0,0,-76,0,-121,-41c0,0,-44,-41,-44,-94c0,0,0,-33,15,-59c0,0,22,-35,70,-70c0,0,35,-24,162,-87c0,0,178,-87,240,-165c0,0,61,-77,61,-177c0,0,0,-127,-99,-218c0,0,-99,-90,-251,-90c0,0,-48,0,-90,9c0,0,-43,10,-107,36c0,0,-36,15,-59,15c0,0,-20,0,-41,-15c0,0,-22,-15,-35,-45Z" 
id="f0_1j"
transform="scale(0.001,-0.001)" />

<path d="M30,0V27H40c0,0,1,0,2,0c6,0,36,1,62,11c0,0,29,12,44,31c0,0,15,20,23,55c0,0,2,8,2,76V841c0,0,0,77,-9,96c0,0,-8,19,-33,33c0,0,-26,15,-69,15H30v27H445L729,346l274,666h412V985h-33c0,0,-45,0,-72,-16c0,0,-19,-10,-30,-35c0,0,-8,-18,-8,-93V173c0,0,0,-78,8,-97c0,0,8,-20,34,-34c0,0,25,-15,68,-15h33V0H886V27h33c0,0,44,0,71,16c0,0,19,11,30,36c0,0,8,18,8,94V923L641,0H623L229,916V203c0,0,0,-74,4,-91c0,0,10,-38,42,-61c0,0,33,-24,102,-24V0Z" 
id="f0_1d"
transform="scale(0.001,-0.001)" />

<path d="M490,56c0,0,124,0,190,85c0,0,89,115,89,356c0,0,0,195,-61,311c0,0,-48,91,-124,124c0,0,-52,22,-172,22c-2,0,-4,0,-6,0V165c0,0,0,-62,6,-76c0,0,6,-15,20,-22c0,0,20,-11,58,-11ZM20,0V27H53c0,0,44,0,68,14c0,0,23,14,35,38c0,0,6,16,6,94V839c0,0,0,78,-8,97c0,0,-8,20,-33,34c0,0,-25,15,-68,15H20v27H472c0,0,182,0,292,-49c0,0,135,-61,205,-183c0,0,70,-123,70,-277c0,0,0,-107,-35,-197c0,0,-34,-90,-88,-148c0,0,-55,-59,-126,-94C790,64,719,28,616,9C616,9,570,0,472,0Z" 
id="f0_14"
transform="scale(0.001,-0.001)" />

<path d="M450,515c0,0,91,0,141,54c0,0,49,54,49,167c0,0,0,113,-49,165c0,0,-50,52,-148,52H413V516c0,0,24,-1,37,-1ZM39,0V27c0,0,70,0,95,13c0,0,25,14,35,35c0,0,10,21,10,103V834c0,0,0,82,-10,104c0,0,-10,21,-36,34c0,0,-25,13,-94,13v27H480c0,0,218,0,313,-78c0,0,94,-77,94,-194c0,0,0,-99,-61,-169c0,0,-61,-70,-169,-95c0,0,-72,-18,-244,-18V178c0,0,0,-82,10,-104c0,0,10,-21,35,-34c0,0,26,-13,94,-13V0Z" 
id="f0_1g"
transform="scale(0.001,-0.001)" />

<path d="M549,-22c0,0,-132,0,-203,34c0,0,-98,47,-138,122c0,0,-41,75,-41,201V830c0,0,0,87,-9,109c0,0,-10,21,-34,34c0,0,-22,12,-82,12c-2,0,-4,0,-6,0v27H558V985H532c0,0,-59,0,-81,-13c0,0,-22,-12,-31,-34c0,0,-9,-21,-9,-108V335c0,0,0,-136,20,-180c0,0,21,-44,68,-73c0,0,47,-29,118,-29c0,0,82,0,140,37c0,0,58,37,87,102c0,0,29,64,29,226V830c0,0,0,68,-15,97c0,0,-14,29,-35,40c0,0,-34,18,-95,18v27h350V985h-21c0,0,-43,0,-71,-18c0,0,-28,-17,-41,-51c0,0,-10,-24,-10,-86V446c0,0,0,-178,-23,-258c0,0,-24,-79,-115,-145c0,0,-91,-65,-248,-65Z" 
id="f0_1l"
transform="scale(0.001,-0.001)" />

<path d="M28,0V27H62c0,0,44,0,71,16c0,0,19,11,30,36c0,0,8,18,8,94V839c0,0,0,78,-8,97c0,0,-8,20,-33,34c0,0,-25,15,-68,15H28v27H568V985H524c0,0,-44,0,-71,-16c0,0,-19,-11,-30,-36c0,0,-8,-18,-8,-94V194c0,0,0,-78,9,-99c0,0,8,-21,35,-32c0,0,18,-6,90,-6h84c0,0,81,0,135,28c0,0,53,28,93,90c0,0,39,61,74,180h30L927,0Z" 
id="f0_1c"
transform="scale(0.001,-0.001)" />

<path d="M244,0V27h34c0,0,44,0,71,16c0,0,19,11,30,36c0,0,8,18,8,94V953H314c0,0,-103,0,-149,-43c0,0,-66,-60,-83,-172H55v274H965V738H938c0,0,-24,95,-53,136c0,0,-29,41,-80,66c0,0,-28,13,-99,13H631V173c0,0,0,-78,8,-97c0,0,9,-20,34,-34c0,0,25,-15,68,-15h33V0Z" 
id="f0_1k"
transform="scale(0.001,-0.001)" />

<path d="M514,145c0,0,72,0,121,27c0,0,48,26,78,73c0,0,30,46,42,107c0,0,13,62,13,131c0,0,0,76,-12,139c0,0,-12,62,-41,106c0,0,-29,45,-76,69c0,0,-48,24,-120,24c0,0,-72,0,-120,-27c0,0,-49,-27,-79,-73c0,0,-29,-45,-42,-106c0,0,-12,-61,-12,-129c0,0,0,-79,12,-142c0,0,12,-63,40,-108c0,0,28,-44,76,-68c0,0,48,-23,120,-23ZM508,-17c0,0,-113,0,-196,29c0,0,-84,29,-140,90c0,0,-56,60,-84,154c0,0,-28,93,-28,221c0,0,0,117,29,210c0,0,30,94,89,160c0,0,59,65,146,101c0,0,87,35,202,35c0,0,110,0,194,-29c0,0,84,-30,140,-90c0,0,56,-60,85,-153c0,0,29,-92,29,-217c0,0,0,-120,-30,-215c0,0,-30,-95,-89,-161C855,118,796,52,709,17c0,0,-87,-34,-201,-34Z" 
id="f1_24"
transform="scale(0.001,-0.001)" />

<path d="M402,542c0,0,41,0,72,10c0,0,32,10,52,28c0,0,21,18,32,44c0,0,10,25,10,56c0,0,0,48,-21,81c0,0,-22,33,-71,46c0,0,-15,4,-34,6c0,0,-19,2,-52,2H302V542ZM203,-4c0,0,-28,0,-47,2c0,0,-19,2,-30,5c0,0,-11,4,-16,10c0,0,-4,6,-4,13V903c0,0,0,33,16,48c0,0,17,14,42,14H414c0,0,38,0,62,-1c0,0,25,-2,45,-4c0,0,58,-8,105,-28c0,0,46,-21,79,-53c0,0,32,-32,49,-77c0,0,17,-44,17,-101c0,0,0,-49,-12,-89c0,0,-12,-40,-36,-71c0,0,-24,-31,-59,-54c0,0,-35,-23,-80,-38c0,0,22,-10,41,-25c0,0,19,-15,36,-36c0,0,17,-22,31,-49c0,0,15,-27,30,-61L803,87c0,0,11,-28,15,-41c0,0,3,-14,3,-21c0,0,0,-8,-3,-14c0,0,-3,-5,-14,-9c0,0,-11,-3,-33,-4c0,0,-21,-2,-59,-2c0,0,-31,0,-50,2c0,0,-18,1,-29,4c0,0,-11,4,-15,11c0,0,-5,6,-8,15L524,244c0,0,-16,37,-31,65c0,0,-14,28,-33,48c0,0,-18,19,-42,28c0,0,-24,10,-55,10H302V27c0,0,0,-8,-5,-14c0,0,-5,-6,-16,-10c0,0,-11,-3,-30,-5c0,0,-18,-2,-48,-2Z" 
id="f1_2j"
transform="scale(0.001,-0.001)" />

<path d="M547,-16c0,0,-115,0,-207,33c0,0,-91,33,-155,96c0,0,-63,63,-97,154c0,0,-33,91,-33,206c0,0,0,118,36,213c0,0,35,94,101,160c0,0,66,66,159,102c0,0,92,35,207,35c0,0,62,0,114,-9c0,0,51,-8,90,-21c0,0,38,-12,64,-26c0,0,25,-14,35,-25c0,0,10,-10,15,-29c0,0,4,-19,4,-57c0,0,0,-21,-2,-37c0,0,-2,-16,-5,-25c0,0,-3,-9,-8,-13c0,0,-5,-4,-12,-4c0,0,-10,0,-31,14c0,0,-22,13,-58,29c0,0,-35,15,-85,29c0,0,-50,13,-115,13c0,0,-71,0,-127,-24c0,0,-57,-24,-97,-69c0,0,-41,-44,-62,-107c0,0,-22,-62,-22,-138c0,0,0,-82,22,-146c0,0,22,-63,62,-105c0,0,39,-43,95,-65c0,0,56,-21,123,-21c0,0,33,0,65,7c0,0,32,8,60,23V401H500c0,0,-14,0,-21,17c0,0,-8,17,-8,57c0,0,0,21,2,35c0,0,2,14,6,23c0,0,3,8,9,12c0,0,5,5,12,5H826c0,0,12,0,21,-5c0,0,9,-4,16,-12c0,0,8,-8,11,-20c0,0,4,-11,4,-26V102c0,0,0,-22,-8,-39c0,0,-8,-17,-32,-27c0,0,-24,-9,-60,-20C778,16,742,6,704,-1c0,0,-39,-7,-78,-11c0,0,-39,-4,-79,-4Z" 
id="f1_14"
transform="scale(0.001,-0.001)" />

<path d="M589,371L453,782h-1L317,371ZM106,-4c0,0,-35,0,-54,2C52,-2,32,0,25,8c0,0,-7,9,-5,24c0,0,2,16,11,42L329,931c0,0,4,13,10,21c0,0,6,7,19,12c0,0,13,4,36,5c0,0,23,1,61,1c0,0,44,0,71,-1c0,0,26,-1,40,-5c0,0,15,-5,21,-13c0,0,6,-8,11,-22L896,73c0,0,9,-27,11,-43c0,0,3,-15,-6,-23c0,0,-8,-7,-29,-9c0,0,-21,-2,-57,-2c0,0,-38,0,-59,1c0,0,-22,1,-33,4c0,0,-11,3,-16,9c0,0,-4,6,-7,16L635,220H272L211,31c0,0,-2,-11,-7,-18c0,0,-5,-7,-16,-11c0,0,-11,-3,-31,-4c0,0,-19,-2,-51,-2Z" 
id="f1_5"
transform="scale(0.001,-0.001)" />

<path d="M193,-4c0,0,-26,0,-43,2c0,0,-18,2,-27,6c0,0,-10,4,-14,10c0,0,-3,6,-3,13V895c0,0,0,35,20,53c0,0,21,17,50,17H282c0,0,28,0,47,-5c0,0,20,-5,35,-16c0,0,15,-11,29,-31c0,0,13,-20,27,-49L608,511c0,0,17,-32,33,-63c0,0,16,-31,31,-62c0,0,14,-31,29,-60c0,0,14,-30,27,-60h1c0,0,-2,52,-3,109c0,0,-1,57,-1,108V936c0,0,0,7,4,13c0,0,5,6,15,11c0,0,10,4,28,6c0,0,17,2,44,2c0,0,25,0,42,-2c0,0,17,-2,27,-6c0,0,9,-5,13,-11c0,0,4,-6,4,-13V68c0,0,0,-17,-6,-30c0,0,-6,-14,-17,-23C879,15,869,6,856,2c0,0,-14,-3,-28,-3H744c0,0,-26,0,-45,4c0,0,-19,5,-35,19c0,0,-16,14,-31,38c0,0,-15,23,-34,60L359,572c0,0,-21,40,-43,86c0,0,-21,47,-38,91h-2c0,0,3,-54,5,-107c0,0,2,-53,2,-110V27c0,0,0,-7,-5,-13c0,0,-4,-6,-14,-10c0,0,-10,-4,-27,-6c0,0,-17,-2,-44,-2Z" 
id="f1_1y"
transform="scale(0.001,-0.001)" />

<path d="M204,-4c0,0,-28,0,-47,2c0,0,-19,2,-31,5c0,0,-11,4,-16,10c0,0,-4,6,-4,13V939c0,0,0,7,4,13c0,0,5,6,17,10c0,0,11,3,30,6c0,0,19,2,47,2c0,0,29,0,48,-2c0,0,18,-3,29,-6c0,0,11,-4,16,-10c0,0,5,-6,5,-13V26c0,0,0,-7,-5,-13c0,0,-5,-6,-16,-10c0,0,-11,-3,-29,-5c0,0,-19,-2,-48,-2Z" 
id="f1_1c"
transform="scale(0.001,-0.001)" />

<path d="M320,-17c0,0,-50,0,-93,9c0,0,-43,8,-76,19c0,0,-32,11,-54,24C97,35,75,48,65,58c0,0,-10,9,-14,28c0,0,-4,18,-4,52c0,0,0,23,1,39c0,0,2,15,5,25c0,0,4,10,9,14c0,0,6,4,13,4c0,0,11,0,30,-12c0,0,19,-13,49,-28c0,0,30,-15,71,-27c0,0,42,-12,96,-12c0,0,36,0,64,8c0,0,29,9,49,25c0,0,19,15,30,38c0,0,10,23,10,52c0,0,0,33,-18,56c0,0,-18,24,-46,42c0,0,-29,18,-66,34c0,0,-36,16,-75,34c0,0,-39,18,-76,41c0,0,-36,23,-65,54c0,0,-29,32,-47,75c0,0,-17,44,-17,104c0,0,0,70,25,122c0,0,26,53,70,88c0,0,43,34,103,51c0,0,59,18,125,18c0,0,35,0,69,-6c0,0,34,-5,64,-14c0,0,30,-9,53,-20c0,0,23,-11,31,-18c0,0,7,-8,10,-13c0,0,3,-5,4,-14c0,0,2,-8,3,-21c0,0,1,-13,1,-33c0,0,0,-21,-1,-36c0,0,-1,-15,-4,-25c0,0,-3,-9,-7,-14c0,0,-5,-4,-14,-4c0,0,-8,0,-26,10c0,0,-18,10,-44,23c0,0,-26,12,-60,22c0,0,-34,10,-75,10c0,0,-32,0,-56,-8c0,0,-24,-8,-40,-21c0,0,-16,-14,-24,-34c0,0,-8,-19,-8,-41c0,0,0,-32,18,-56c0,0,17,-23,46,-42c0,0,30,-18,67,-34c0,0,38,-16,76,-34c0,0,39,-18,76,-41c0,0,38,-22,67,-54c0,0,29,-32,47,-75c0,0,18,-43,18,-101c0,0,0,-76,-29,-133c0,0,-28,-58,-77,-96C572,60,524,21,459,2c0,0,-65,-19,-139,-19Z" 
id="f1_2n"
transform="scale(0.001,-0.001)" />

<path d="M198,-4c0,0,-27,0,-45,2c0,0,-18,2,-28,5c0,0,-11,4,-15,10c0,0,-4,6,-4,13V887c0,0,0,38,20,58c0,0,20,20,53,20H308c0,0,34,0,59,-6c0,0,24,-5,42,-18c0,0,18,-13,30,-35c0,0,12,-21,21,-52L669,279h3L889,852c0,0,9,32,21,53c0,0,11,22,27,35c0,0,15,14,36,19c0,0,21,6,48,6h132c0,0,21,0,35,-5c0,0,15,-5,24,-15c0,0,9,-11,14,-25c0,0,5,-15,5,-33V26c0,0,0,-7,-4,-13c0,0,-4,-6,-15,-10c0,0,-11,-3,-29,-5c0,0,-18,-2,-45,-2c0,0,-27,0,-45,2c0,0,-18,2,-28,5c0,0,-11,4,-15,10c0,0,-5,6,-5,13V813h-1L764,27c0,0,-3,-10,-10,-16c0,0,-6,-6,-18,-10c0,0,-12,-3,-29,-4c0,0,-18,-1,-44,-1c0,0,-25,0,-43,2c0,0,-18,2,-29,5c0,0,-12,4,-19,10c0,0,-6,6,-9,14L293,813h-2V26c0,0,0,-7,-4,-13c0,0,-4,-6,-15,-10c0,0,-11,-3,-29,-5c0,0,-17,-2,-45,-2Z" 
id="f1_1x"
transform="scale(0.001,-0.001)" />

<path d="M403,155c0,0,81,0,136,21c0,0,55,21,92,63c0,0,37,42,55,105c0,0,18,63,18,146c0,0,0,69,-16,128c0,0,-16,59,-51,102c0,0,-36,43,-91,67c0,0,-56,25,-146,25H301V155ZM164,0c0,0,-25,0,-42,15c0,0,-16,14,-16,47V903c0,0,0,33,16,48c0,0,17,14,42,14H411c0,0,129,0,219,-30c0,0,90,-30,152,-90c0,0,61,-59,93,-146c0,0,32,-87,32,-202c0,0,0,-133,-34,-227c0,0,-35,-95,-100,-154c0,0,-65,-60,-158,-88C615,28,523,0,394,0Z" 
id="f1_p"
transform="scale(0.001,-0.001)" />

<path d="M378,-4c0,0,-28,0,-47,2c0,0,-19,2,-31,5c0,0,-11,4,-16,10c0,0,-4,6,-4,13V805H38c0,0,-8,0,-13,4c0,0,-5,5,-9,14c0,0,-3,9,-5,25c0,0,-2,15,-2,37c0,0,0,22,2,38c0,0,2,15,5,25c0,0,4,9,9,13c0,0,5,4,13,4H718c0,0,7,0,12,-4c0,0,6,-4,10,-13c0,0,3,-10,5,-25c0,0,2,-16,2,-38c0,0,0,-22,-2,-37c0,0,-2,-16,-5,-25c0,0,-4,-9,-10,-14c0,0,-5,-4,-12,-4H476V26c0,0,0,-7,-5,-13c0,0,-5,-6,-16,-10c0,0,-11,-3,-30,-5c0,0,-19,-2,-47,-2Z" 
id="f1_2t"
transform="scale(0.001,-0.001)" />

<path d="M164,0c0,0,-25,0,-42,15c0,0,-16,14,-16,47V903c0,0,0,33,16,48c0,0,17,14,42,14H645c0,0,7,0,12,-4c0,0,5,-3,9,-13c0,0,4,-9,6,-24c0,0,2,-14,2,-36c0,0,0,-21,-2,-36c0,0,-2,-14,-6,-23c0,0,-4,-9,-9,-13c0,0,-5,-4,-12,-4H301V576H593c0,0,6,0,12,-4c0,0,6,-4,9,-13c0,0,4,-8,6,-23c0,0,2,-14,2,-35c0,0,0,-22,-2,-36c0,0,-2,-14,-6,-23c0,0,-3,-8,-9,-12c0,0,-6,-4,-12,-4H301V154H649c0,0,6,0,12,-5c0,0,5,-4,9,-13c0,0,4,-9,6,-23c0,0,2,-15,2,-36c0,0,0,-22,-2,-36c0,0,-2,-15,-6,-24c0,0,-4,-9,-9,-13c0,0,-6,-4,-12,-4Z" 
id="f1_t"
transform="scale(0.001,-0.001)" />

<path d="M460,-4c0,0,-30,0,-51,0c0,0,-22,1,-37,2c0,0,-15,2,-24,4c0,0,-9,3,-16,7c0,0,-6,5,-9,11c0,0,-4,6,-7,16L29,892c0,0,-9,27,-11,43c0,0,-2,16,7,23c0,0,10,8,32,10c0,0,22,2,63,2c0,0,34,0,53,-2c0,0,20,-1,30,-5c0,0,10,-4,15,-11c0,0,4,-7,7,-19L461,188h1L693,930c0,0,3,12,7,20c0,0,5,8,15,12c0,0,11,5,31,6c0,0,20,2,55,2c0,0,35,0,54,-2c0,0,19,-3,26,-11c0,0,7,-9,4,-24c0,0,-2,-16,-11,-42L586,34c0,0,-4,-13,-10,-21c0,0,-6,-7,-19,-12c0,0,-14,-3,-37,-4c0,0,-23,-1,-60,-1Z" 
id="f1_38"
transform="scale(0.001,-0.001)" />

<path d="M176,0c0,0,-17,0,-33,12c0,0,-15,11,-15,40V913c0,0,0,29,15,41c0,0,16,11,33,11H635c0,0,6,0,10,-3c0,0,5,-3,8,-10c0,0,3,-6,5,-16c0,0,2,-10,2,-25c0,0,0,-14,-2,-24c0,0,-2,-10,-5,-16c0,0,-3,-7,-8,-10c0,0,-4,-2,-10,-2H256V555H581c0,0,6,0,11,-3c0,0,5,-3,8,-9c0,0,3,-6,5,-17c0,0,1,-10,1,-24c0,0,0,-14,-1,-23c0,0,-2,-10,-5,-16c0,0,-3,-6,-8,-9c0,0,-5,-2,-11,-2H256V107H640c0,0,6,0,11,-3c0,0,4,-3,8,-10c0,0,4,-6,5,-16c0,0,2,-10,2,-25c0,0,0,-14,-2,-24c0,0,-1,-10,-5,-16c0,0,-4,-7,-8,-10c0,0,-5,-3,-11,-3Z" 
id="f2_t"
transform="scale(0.001,-0.001)" />

<path d="M367,-13c0,0,-73,0,-129,23c0,0,-56,24,-93,70c0,0,-38,46,-58,112c0,0,-20,67,-20,154c0,0,0,99,25,171c0,0,24,71,66,116c0,0,42,46,99,68c0,0,58,22,124,22c0,0,32,0,62,-6c0,0,31,-6,56,-16c0,0,25,-10,45,-22c0,0,20,-13,29,-22c0,0,9,-9,12,-14c0,0,3,-5,6,-13c0,0,2,-7,3,-16c0,0,0,-9,0,-22c0,0,0,-29,-6,-41c0,0,-7,-11,-17,-11c0,0,-11,0,-25,12c0,0,-15,12,-37,27c0,0,-23,15,-55,28c0,0,-31,12,-75,12c0,0,-88,0,-136,-68c0,0,-47,-68,-47,-198c0,0,0,-65,12,-114c0,0,12,-49,36,-81c0,0,24,-33,59,-49c0,0,35,-16,79,-16c0,0,43,0,75,13c0,0,32,14,56,30c0,0,23,16,39,29c0,0,16,13,25,13c0,0,5,0,9,-3c0,0,4,-3,7,-10c0,0,2,-7,3,-18c0,0,1,-11,1,-26c0,0,0,-12,0,-22c0,0,-1,-9,-3,-15c0,0,-2,-7,-4,-12c0,0,-3,-4,-12,-14c0,0,-10,-9,-32,-23c0,0,-22,-14,-50,-24C496,11,468,0,435,-6c0,0,-33,-7,-68,-7Z" 
id="f2_7l"
transform="scale(0.001,-0.001)" />

<path d="M401,90c0,0,54,0,93,19c0,0,40,20,65,55c0,0,26,35,37,84c0,0,12,48,12,106c0,0,0,55,-10,104c0,0,-10,48,-33,85c0,0,-23,36,-62,58c0,0,-40,21,-99,21c0,0,-54,0,-93,-20c0,0,-39,-19,-65,-54c0,0,-25,-36,-37,-85c0,0,-12,-48,-12,-106c0,0,0,-55,10,-103c0,0,10,-49,33,-85c0,0,24,-36,63,-58c0,0,39,-21,98,-21ZM395,-13c0,0,-82,0,-144,24c0,0,-61,25,-102,72c0,0,-41,47,-61,114c0,0,-21,67,-21,152c0,0,0,82,22,151c0,0,21,69,64,119c0,0,43,50,107,78c0,0,64,28,150,28c0,0,82,0,144,-25c0,0,61,-25,102,-72c0,0,41,-47,62,-114c0,0,20,-67,20,-151c0,0,0,-83,-21,-152c0,0,-22,-69,-65,-119C652,92,609,42,545,14c0,0,-65,-27,-150,-27Z" 
id="f2_am"
transform="scale(0.001,-0.001)" />

<path d="M176,-4c0,0,-18,0,-30,2c0,0,-12,1,-19,3c0,0,-7,3,-10,7c0,0,-3,4,-3,10v997c0,0,0,6,3,11c0,0,3,4,10,7c0,0,7,3,19,5c0,0,12,1,30,1c0,0,18,0,30,-1c0,0,12,-2,19,-5c0,0,7,-3,9,-7c0,0,3,-5,3,-11V18c0,0,0,-6,-3,-10c0,0,-2,-4,-9,-7c0,0,-7,-2,-19,-3c0,0,-12,-2,-30,-2Z" 
id="f2_a8"
transform="scale(0.001,-0.001)" />

<path d="M346,-177c0,0,56,0,94,11c0,0,37,11,60,28c0,0,24,18,34,41c0,0,10,23,10,49c0,0,0,43,-36,65c0,0,-35,23,-95,25L239,48c0,0,-24,-19,-39,-35c0,0,-15,-16,-24,-31c0,0,-9,-16,-12,-30c0,0,-4,-15,-4,-31c0,0,0,-48,49,-73c0,0,50,-25,137,-25Zm-6,512c0,0,36,0,63,12c0,0,27,12,44,32c0,0,18,21,26,48c0,0,9,27,9,56c0,0,0,69,-38,107c0,0,-37,39,-107,39c0,0,-35,0,-62,-12c0,0,-26,-12,-44,-33c0,0,-17,-21,-26,-48c0,0,-8,-28,-8,-58c0,0,0,-66,37,-104c0,0,38,-39,106,-39Zm0,-606c0,0,-81,0,-138,14c0,0,-57,14,-94,38c0,0,-36,24,-52,57c0,0,-17,33,-17,72c0,0,0,24,6,47c0,0,6,24,18,43c0,0,13,21,31,40c0,0,18,19,42,38c0,0,-36,19,-54,47c0,0,-17,28,-17,61c0,0,0,45,18,81c0,0,19,36,46,64c0,0,-23,28,-36,62c0,0,-14,35,-14,84c0,0,0,58,20,104c0,0,19,45,53,77c0,0,35,31,83,48c0,0,48,17,105,17c0,0,30,0,57,-4c0,0,26,-3,49,-9H649c0,0,13,0,19,-12c0,0,7,-13,7,-38c0,0,0,-26,-7,-37c0,0,-7,-12,-19,-12H553c0,0,26,-27,37,-60c0,0,10,-32,10,-68c0,0,0,-58,-18,-103c0,0,-19,-45,-54,-76c0,0,-34,-31,-82,-47c0,0,-48,-16,-106,-16c0,0,-41,0,-78,10c0,0,-37,11,-57,28c0,0,-14,-14,-22,-31c0,0,-9,-17,-9,-39c0,0,0,-27,24,-44c0,0,25,-17,65,-18l175,-8c0,0,50,-1,92,-14c0,0,41,-12,72,-35c0,0,31,-22,48,-55c0,0,17,-34,17,-76c0,0,0,-47,-20,-88c0,0,-19,-42,-59,-74c0,0,-40,-31,-102,-50c0,0,-61,-18,-146,-18Z" 
id="f2_9d"
transform="scale(0.001,-0.001)" />

<path d="M252,-271c0,0,-19,0,-31,2c0,0,-12,2,-18,6c0,0,-7,5,-8,12c0,0,0,8,4,18L292,0c0,0,-7,3,-13,10c0,0,-6,6,-8,14L31,665c0,0,-6,16,-6,25c0,0,0,9,6,14c0,0,6,5,20,7c0,0,13,2,36,2c0,0,22,0,35,-1c0,0,12,-1,20,-4c0,0,7,-3,11,-9c0,0,3,-6,7,-15L351,145h3L539,687c0,0,4,14,10,18c0,0,7,4,19,6c0,0,13,2,37,2c0,0,21,0,34,-2c0,0,14,-2,20,-7c0,0,6,-5,6,-14c0,0,0,-9,-4,-23L420,0L330,-246c0,0,-4,-12,-22,-18c0,0,-19,-7,-56,-7Z" 
id="f2_co"
transform="scale(0.001,-0.001)" />

<path d="M176,-4c0,0,-18,0,-30,2c0,0,-12,1,-19,3c0,0,-7,3,-10,7c0,0,-3,4,-3,10V690c0,0,0,5,3,9c0,0,3,5,10,8c0,0,7,3,19,4c0,0,12,2,30,2c0,0,18,0,30,-2c0,0,12,-1,19,-4c0,0,7,-3,9,-8c0,0,3,-4,3,-9V18c0,0,0,-6,-3,-10c0,0,-2,-4,-9,-7c0,0,-7,-2,-19,-3c0,0,-12,-2,-30,-2Zm-1,846c0,0,-43,0,-59,15c0,0,-16,15,-16,58c0,0,0,43,16,59c0,0,17,16,61,16c0,0,43,0,59,-16c0,0,16,-15,16,-58c0,0,0,-43,-16,-58c0,0,-17,-16,-61,-16Z" 
id="f2_9q"
transform="scale(0.001,-0.001)" />

<path d="M272,-13c0,0,-35,0,-68,6c0,0,-32,6,-58,13c0,0,-26,9,-44,18c0,0,-17,10,-26,17c0,0,-8,8,-12,21c0,0,-3,14,-3,37c0,0,0,14,1,24c0,0,2,9,4,15c0,0,2,6,6,9c0,0,4,3,10,3c0,0,8,0,24,-11c0,0,16,-10,39,-22c0,0,24,-12,56,-22c0,0,32,-10,74,-10c0,0,31,0,56,7c0,0,26,6,44,19c0,0,19,14,29,34c0,0,10,20,10,47c0,0,0,29,-14,48c0,0,-15,19,-39,34c0,0,-24,15,-53,27c0,0,-30,11,-62,24c0,0,-32,13,-62,29c0,0,-30,16,-54,39c0,0,-24,23,-38,55c0,0,-15,32,-15,77c0,0,0,40,16,76c0,0,15,36,45,63c0,0,31,28,77,44c0,0,46,17,107,17c0,0,27,0,54,-5c0,0,26,-5,48,-11c0,0,22,-7,37,-15c0,0,15,-8,23,-14c0,0,8,-6,11,-11c0,0,2,-4,3,-10c0,0,1,-5,2,-14c0,0,2,-8,2,-20c0,0,0,-12,-2,-22c0,0,-1,-9,-3,-15c0,0,-3,-6,-7,-8c0,0,-3,-3,-8,-3c0,0,-7,0,-19,8c0,0,-13,8,-33,18c0,0,-20,9,-47,17c0,0,-28,9,-63,9c0,0,-31,0,-55,-7c0,0,-24,-7,-39,-20c0,0,-15,-13,-23,-31c0,0,-8,-18,-8,-39c0,0,0,-29,15,-49c0,0,15,-20,39,-35c0,0,24,-15,54,-27c0,0,31,-11,62,-24c0,0,32,-13,63,-29c0,0,31,-15,55,-38c0,0,24,-22,38,-53c0,0,15,-32,15,-75c0,0,0,-51,-19,-92c0,0,-19,-40,-54,-68C463,42,428,15,379,1c0,0,-48,-14,-107,-14Z" 
id="f2_b5"
transform="scale(0.001,-0.001)" />

<path d="M339,-13c0,0,-52,0,-90,13c0,0,-37,14,-61,42c0,0,-24,28,-34,71c0,0,-11,43,-11,101V607H49c0,0,-11,0,-18,12c0,0,-7,12,-7,39c0,0,0,14,2,24c0,0,2,10,5,16c0,0,3,7,8,9c0,0,5,3,11,3h93V870c0,0,0,5,2,9c0,0,3,5,10,8c0,0,7,4,19,5c0,0,12,2,30,2c0,0,19,0,31,-2c0,0,11,-1,18,-5c0,0,7,-3,10,-8c0,0,3,-4,3,-9V710H438c0,0,6,0,10,-3c0,0,5,-2,8,-9c0,0,4,-6,5,-16c0,0,1,-10,1,-24c0,0,0,-27,-6,-39c0,0,-7,-12,-18,-12H266V232c0,0,0,-69,20,-105c0,0,21,-35,74,-35c0,0,17,0,30,3c0,0,14,4,24,7c0,0,10,4,18,7c0,0,7,4,13,4c0,0,4,0,7,-2c0,0,4,-2,6,-7c0,0,2,-5,3,-14c0,0,1,-9,1,-23c0,0,0,-22,-2,-34c0,0,-3,-13,-9,-19c0,0,-6,-6,-18,-11c0,0,-12,-4,-28,-8c0,0,-15,-3,-32,-5c0,0,-17,-3,-34,-3Z" 
id="f2_bf"
transform="scale(0.001,-0.001)" />

<path d="M176,-4c0,0,-18,0,-30,2c0,0,-12,1,-19,3c0,0,-7,3,-10,7c0,0,-3,4,-3,10v997c0,0,0,6,3,11c0,0,3,4,10,7c0,0,7,3,19,5c0,0,12,1,30,1c0,0,18,0,30,-1c0,0,12,-2,19,-5c0,0,7,-3,9,-7c0,0,3,-5,3,-10V614c0,0,53,56,107,83c0,0,54,28,108,28c0,0,67,0,113,-23c0,0,46,-23,74,-61c0,0,29,-38,41,-89c0,0,12,-52,12,-124V18c0,0,0,-6,-3,-10c0,0,-3,-4,-9,-7c0,0,-7,-2,-19,-3c0,0,-12,-2,-30,-2c0,0,-19,0,-30,2c0,0,-12,1,-19,3c0,0,-7,3,-10,7c0,0,-3,4,-3,10V412c0,0,0,58,-9,93c0,0,-9,35,-26,61c0,0,-17,25,-44,38c0,0,-27,14,-63,14c0,0,-46,0,-93,-33c0,0,-46,-33,-97,-96V18c0,0,0,-6,-3,-10c0,0,-2,-4,-9,-7c0,0,-7,-2,-19,-3c0,0,-12,-2,-30,-2Z" 
id="f2_9n"
transform="scale(0.001,-0.001)" />

<path d="M564,420c0,0,2,98,-43,153c0,0,-46,56,-134,56c0,0,-46,0,-80,-18c0,0,-35,-17,-58,-45c0,0,-23,-29,-36,-67c0,0,-12,-37,-14,-79ZM405,-13c0,0,-83,0,-145,22c0,0,-62,24,-105,69c0,0,-42,46,-64,114c0,0,-22,69,-22,160c0,0,0,87,23,156c0,0,22,69,64,117c0,0,43,48,102,74c0,0,60,26,134,26c0,0,79,0,135,-26c0,0,55,-25,91,-68c0,0,36,-43,53,-101c0,0,16,-58,16,-123V384c0,0,0,-29,-14,-41c0,0,-15,-13,-33,-13H199c0,0,0,-56,11,-100c0,0,12,-45,38,-77c0,0,26,-33,68,-50c0,0,41,-17,102,-17c0,0,48,0,85,8c0,0,37,8,65,17c0,0,27,10,44,18c0,0,18,8,27,8c0,0,5,0,9,-3c0,0,4,-2,7,-8c0,0,2,-5,3,-14c0,0,1,-9,1,-23c0,0,0,-9,-1,-16c0,0,0,-8,-2,-13c0,0,-1,-6,-3,-10c0,0,-3,-5,-7,-9c0,0,-4,-4,-24,-13c0,0,-20,-10,-53,-18c0,0,-32,-9,-74,-16c0,0,-42,-7,-90,-7Z" 
id="f2_7z"
transform="scale(0.001,-0.001)" />

<path d="M431,92c0,0,46,0,79,22c0,0,33,23,53,60c0,0,21,37,30,83c0,0,10,46,10,93c0,0,0,51,-8,100c0,0,-8,49,-28,86c0,0,-19,37,-51,60c0,0,-32,23,-80,23c0,0,-24,0,-47,-7c0,0,-23,-7,-47,-22c0,0,-24,-16,-50,-41c0,0,-25,-24,-55,-62V219c0,0,51,-62,98,-95c0,0,46,-32,96,-32ZM443,-13c0,0,-32,0,-59,7c0,0,-27,6,-53,19c0,0,-26,14,-52,36c0,0,-27,22,-56,52V18c0,0,0,-6,-3,-10c0,0,-3,-5,-9,-7c0,0,-7,-2,-17,-3c0,0,-10,-2,-26,-2c0,0,-15,0,-25,2c0,0,-11,1,-17,3c0,0,-7,2,-9,7c0,0,-3,4,-3,10v997c0,0,0,6,3,11c0,0,3,4,10,7c0,0,7,3,19,5c0,0,12,1,30,1c0,0,18,0,30,-1c0,0,12,-2,19,-5c0,0,7,-3,9,-7c0,0,3,-5,3,-10V614c0,0,30,31,58,52c0,0,28,20,55,34c0,0,27,13,54,19c0,0,27,6,57,6c0,0,73,0,125,-30c0,0,52,-29,84,-78c0,0,32,-48,47,-114c0,0,15,-66,15,-139c0,0,0,-87,-19,-157c0,0,-19,-70,-56,-119c0,0,-37,-49,-90,-76c0,0,-54,-25,-124,-25Z" 
id="f2_7k"
transform="scale(0.001,-0.001)" />

<path d="M176,-4c0,0,-18,0,-30,2c0,0,-12,1,-19,3c0,0,-7,3,-10,7c0,0,-3,4,-3,10V690c0,0,0,6,3,10c0,0,2,4,9,7c0,0,6,4,17,5c0,0,10,1,27,1c0,0,17,0,28,-1c0,0,10,-1,16,-5c0,0,6,-3,9,-7c0,0,3,-4,3,-10V592c0,0,27,41,51,66c0,0,25,26,46,41c0,0,22,14,43,20c0,0,21,6,43,6c0,0,10,0,22,-2c0,0,12,-1,26,-4c0,0,13,-3,24,-6c0,0,11,-4,15,-8c0,0,5,-4,6,-7c0,0,2,-3,3,-9c0,0,1,-5,1,-15c0,0,0,-10,0,-27c0,0,0,-16,0,-28c0,0,-1,-11,-3,-17c0,0,-2,-6,-6,-10c0,0,-3,-3,-9,-3c0,0,-6,0,-15,3c0,0,-8,4,-19,7c0,0,-11,3,-24,6c0,0,-14,3,-29,3c0,0,-19,0,-37,-7c0,0,-18,-8,-37,-25c0,0,-20,-18,-42,-46c0,0,-21,-29,-48,-70V18c0,0,0,-6,-3,-10c0,0,-2,-4,-9,-7c0,0,-7,-2,-19,-3c0,0,-12,-2,-30,-2Z" 
id="f2_b1"
transform="scale(0.001,-0.001)" />

<path d="M321,82c0,0,48,0,90,25c0,0,41,24,87,75V325H392c0,0,-50,0,-88,-9c0,0,-37,-9,-62,-25c0,0,-24,-17,-36,-41c0,0,-11,-23,-11,-54c0,0,0,-52,33,-83c0,0,33,-31,93,-31ZM301,-13c0,0,-53,0,-96,13c0,0,-43,14,-73,40c0,0,-30,26,-47,64c0,0,-17,38,-17,87c0,0,0,56,24,98c0,0,23,42,66,69c0,0,43,28,106,42c0,0,63,14,141,14h93v52c0,0,0,39,-9,69c0,0,-8,30,-26,50c0,0,-18,20,-47,30c0,0,-30,10,-72,10c0,0,-46,0,-82,-11c0,0,-36,-11,-63,-24c0,0,-27,-13,-46,-24c0,0,-18,-11,-27,-11c0,0,-6,0,-10,3c0,0,-5,3,-8,9c0,0,-3,6,-5,16c0,0,-1,9,-1,20c0,0,0,19,2,30c0,0,3,11,13,20c0,0,10,10,35,23c0,0,24,13,56,24c0,0,32,10,70,17c0,0,38,8,77,8c0,0,73,0,123,-17c0,0,51,-16,82,-48c0,0,32,-32,46,-79c0,0,14,-47,14,-110V18c0,0,0,-9,-6,-14c0,0,-6,-4,-16,-6c0,0,-11,-2,-31,-2c0,0,-19,0,-31,2c0,0,-12,2,-17,6c0,0,-5,5,-5,13V85c0,0,-44,-47,-98,-73c0,0,-54,-25,-115,-25Z" 
id="f2_77"
transform="scale(0.001,-0.001)" />

<path d="M176,-4c0,0,-18,0,-30,2c0,0,-12,1,-19,3c0,0,-7,3,-10,7c0,0,-3,4,-3,10V690c0,0,0,6,3,10c0,0,2,4,9,7c0,0,6,4,17,5c0,0,10,1,27,1c0,0,17,0,28,-1c0,0,10,-1,16,-5c0,0,6,-3,9,-7c0,0,3,-4,3,-10V601c0,0,56,64,112,94c0,0,57,30,114,30c0,0,67,0,113,-23c0,0,46,-23,74,-61c0,0,29,-38,41,-89c0,0,12,-52,12,-123V18c0,0,0,-6,-3,-10c0,0,-3,-4,-9,-7c0,0,-7,-2,-19,-3c0,0,-12,-2,-30,-2c0,0,-19,0,-30,2c0,0,-12,1,-19,3c0,0,-7,3,-10,7c0,0,-3,4,-3,10V412c0,0,0,58,-9,93c0,0,-9,35,-26,61c0,0,-17,25,-44,38c0,0,-27,14,-63,14c0,0,-46,0,-93,-33c0,0,-46,-33,-97,-96V18c0,0,0,-6,-3,-10c0,0,-2,-4,-9,-7c0,0,-7,-2,-19,-3c0,0,-12,-2,-30,-2Z" 
id="f2_af"
transform="scale(0.001,-0.001)" />

<path d="M209,-4c0,0,-18,0,-30,2c0,0,-12,1,-19,3c0,0,-7,3,-10,7c0,0,-3,4,-3,10V607H52c0,0,-12,0,-18,12c0,0,-6,12,-6,39c0,0,0,14,2,24c0,0,1,10,4,16c0,0,3,7,8,9c0,0,4,3,10,3h95v69c0,0,0,71,13,121c0,0,13,50,40,82c0,0,27,33,67,48c0,0,41,15,96,15c0,0,26,0,51,-5c0,0,25,-4,38,-10c0,0,13,-6,18,-10c0,0,4,-5,7,-12c0,0,3,-7,5,-17c0,0,1,-10,1,-24c0,0,0,-15,-2,-23c0,0,-1,-9,-3,-14c0,0,-2,-5,-5,-7c0,0,-3,-2,-8,-2c0,0,-5,0,-13,3c0,0,-7,4,-19,8c0,0,-11,4,-26,7c0,0,-15,4,-36,4c0,0,-27,0,-47,-9c0,0,-19,-9,-31,-28c0,0,-12,-19,-17,-50c0,0,-5,-30,-5,-73V710H421c0,0,6,0,10,-3c0,0,4,-2,7,-9c0,0,4,-6,6,-16c0,0,2,-10,2,-24c0,0,0,-27,-7,-39c0,0,-7,-12,-18,-12H271V18c0,0,0,-6,-3,-10c0,0,-3,-4,-11,-7c0,0,-7,-2,-19,-3c0,0,-12,-2,-29,-2Z" 
id="f2_89"
transform="scale(0.001,-0.001)" />

<path d="M366,92c0,0,25,0,48,7c0,0,22,6,46,22c0,0,24,16,50,41c0,0,26,24,56,61V492c0,0,-51,62,-97,94c0,0,-47,33,-98,33c0,0,-47,0,-79,-22c0,0,-33,-23,-54,-59c0,0,-20,-37,-30,-83c0,0,-9,-47,-9,-94c0,0,0,-51,8,-100c0,0,8,-48,27,-86c0,0,19,-38,52,-60c0,0,32,-23,80,-23ZM345,-13c0,0,-74,0,-127,28c0,0,-52,29,-84,78c0,0,-33,49,-48,115c0,0,-15,66,-15,139c0,0,0,86,19,156c0,0,19,70,55,119c0,0,37,50,91,76c0,0,54,27,125,27c0,0,59,0,108,-26c0,0,49,-26,97,-76v390c0,0,0,5,2,10c0,0,3,4,10,7c0,0,8,3,19,5c0,0,12,1,30,1c0,0,18,0,30,-1c0,0,12,-2,19,-5c0,0,7,-3,10,-7c0,0,3,-5,3,-10V18c0,0,0,-6,-2,-10c0,0,-3,-5,-9,-7c0,0,-7,-2,-17,-3c0,0,-10,-2,-25,-2c0,0,-16,0,-26,2c0,0,-11,1,-18,3c0,0,-6,2,-9,7c0,0,-3,4,-3,10v90c0,0,-53,-58,-110,-90c0,0,-58,-31,-125,-31Z" 
id="f2_7v"
transform="scale(0.001,-0.001)" />

<path d="M324,-4c0,0,-23,0,-37,2c0,0,-15,1,-24,3c0,0,-9,3,-14,8c0,0,-4,6,-7,13L46,660c0,0,-4,11,-5,18c0,0,-2,8,-2,13c0,0,0,7,3,11c0,0,3,4,10,7c0,0,8,2,19,3c0,0,12,1,30,1c0,0,20,0,33,-1c0,0,13,-1,20,-4c0,0,6,-3,9,-8c0,0,3,-4,5,-11L330,136l2,-7l1,7L482,689c0,0,1,7,5,11c0,0,3,5,10,8c0,0,6,3,18,4c0,0,12,1,31,1c0,0,18,0,29,-1c0,0,12,-1,18,-4c0,0,7,-3,10,-7c0,0,3,-5,5,-11L768,136l1,-7l1,7L930,689c0,0,1,7,5,11c0,0,3,5,10,8c0,0,7,3,20,4c0,0,12,1,31,1c0,0,18,0,29,-1c0,0,11,-1,17,-4c0,0,6,-3,9,-6c0,0,3,-4,3,-11c0,0,0,-5,-2,-13c0,0,-1,-7,-5,-18L849,22c0,0,-2,-8,-7,-13c0,0,-5,-6,-13,-9c0,0,-9,-2,-24,-3c0,0,-15,-1,-37,-1c0,0,-23,0,-39,2c0,0,-15,1,-25,3c0,0,-9,3,-14,8c0,0,-4,6,-6,13L543,510l-2,6l-2,-6L409,22c0,0,-3,-8,-7,-13c0,0,-5,-6,-15,-9c0,0,-10,-2,-25,-3c0,0,-15,-1,-38,-1Z" 
id="f2_ci"
transform="scale(0.001,-0.001)" />

<path d="M429,92c0,0,47,0,80,22c0,0,33,23,54,60c0,0,20,38,30,84c0,0,10,46,10,93c0,0,0,52,-8,100c0,0,-8,48,-27,86c0,0,-19,37,-51,60c0,0,-32,22,-80,22c0,0,-24,0,-47,-7c0,0,-23,-7,-47,-23c0,0,-24,-15,-50,-40c0,0,-26,-25,-56,-62V220c0,0,51,-62,97,-95c0,0,45,-33,95,-33ZM176,-271c0,0,-18,0,-30,2c0,0,-12,1,-19,4c0,0,-7,3,-10,8c0,0,-3,4,-3,10V690c0,0,0,6,3,10c0,0,2,5,9,8c0,0,6,3,17,4c0,0,10,1,25,1c0,0,16,0,26,-1c0,0,10,-1,17,-4c0,0,6,-3,9,-7c0,0,3,-4,3,-11V601c0,0,30,31,59,54c0,0,28,23,57,39c0,0,28,15,59,23c0,0,30,8,63,8c0,0,74,0,125,-29c0,0,52,-28,84,-77c0,0,32,-50,47,-115c0,0,15,-65,15,-139c0,0,0,-88,-19,-158c0,0,-19,-70,-56,-119c0,0,-37,-49,-91,-75c0,0,-55,-26,-125,-26c0,0,-30,0,-55,6c0,0,-25,6,-50,18c0,0,-24,13,-48,32c0,0,-24,19,-51,46V-247c0,0,0,-6,-3,-10c0,0,-2,-5,-9,-8c0,0,-7,-3,-19,-4c0,0,-12,-2,-30,-2Z" 
id="f2_ay"
transform="scale(0.001,-0.001)" />

<path d="M176,-4c0,0,-18,0,-30,2c0,0,-12,1,-19,3c0,0,-7,3,-10,7c0,0,-3,4,-3,10V690c0,0,0,6,3,10c0,0,2,4,9,7c0,0,6,4,17,5c0,0,10,1,27,1c0,0,17,0,28,-1c0,0,10,-1,16,-5c0,0,6,-3,9,-7c0,0,3,-4,3,-10V601c0,0,56,64,110,94c0,0,53,30,108,30c0,0,42,0,75,-10c0,0,33,-10,58,-28c0,0,26,-17,44,-42c0,0,18,-24,30,-55c0,0,33,37,63,63c0,0,31,26,59,41c0,0,28,16,54,23c0,0,27,8,53,8c0,0,65,0,109,-23c0,0,44,-23,71,-61c0,0,28,-38,39,-89c0,0,12,-52,12,-108V18c0,0,0,-6,-3,-10c0,0,-3,-4,-10,-7c0,0,-7,-2,-19,-3c0,0,-12,-2,-29,-2c0,0,-19,0,-31,2c0,0,-12,1,-19,3c0,0,-7,3,-10,7c0,0,-3,4,-3,10V427c0,0,0,43,-8,78c0,0,-7,35,-23,61c0,0,-17,25,-42,38c0,0,-25,14,-60,14c0,0,-42,0,-85,-33c0,0,-43,-33,-94,-96V18c0,0,0,-6,-3,-10c0,0,-3,-4,-11,-7c0,0,-7,-2,-19,-3c0,0,-11,-2,-29,-2c0,0,-18,0,-30,2c0,0,-12,1,-19,3c0,0,-7,3,-10,7c0,0,-3,4,-3,10V427c0,0,0,43,-8,78c0,0,-8,35,-24,61c0,0,-17,25,-42,38c0,0,-25,14,-59,14c0,0,-43,0,-86,-33c0,0,-44,-33,-95,-96V18c0,0,0,-6,-3,-10c0,0,-2,-4,-9,-7c0,0,-7,-2,-19,-3c0,0,-12,-2,-30,-2Z" 
id="f2_ae"
transform="scale(0.001,-0.001)" />

<path d="M346,-4c0,0,-23,0,-38,2c0,0,-15,1,-24,3c0,0,-9,3,-15,8c0,0,-5,6,-8,13L33,660c0,0,-3,9,-5,15c0,0,-2,7,-2,11c0,0,0,3,0,5c0,0,0,6,3,11c0,0,3,4,10,7c0,0,7,2,18,3c0,0,12,1,29,1c0,0,22,0,35,-1c0,0,13,-1,20,-4c0,0,7,-3,10,-8c0,0,4,-4,7,-11L347,135l3,-9l2,9L540,689c0,0,1,7,5,11c0,0,3,5,11,8c0,0,7,3,19,4c0,0,12,1,32,1c0,0,18,0,29,-1c0,0,11,-1,17,-4c0,0,7,-3,9,-7c0,0,3,-4,3,-10c0,0,0,-3,-1,-6c0,0,0,-4,-1,-7c0,0,0,-4,-2,-8c0,0,-1,-5,-2,-10L430,22c0,0,-3,-8,-8,-13c0,0,-5,-6,-15,-9c0,0,-9,-2,-24,-3c0,0,-15,-1,-37,-1Z" 
id="f2_ch"
transform="scale(0.001,-0.001)" />

<path d="M192,-6c0,0,-45,0,-62,16c0,0,-18,18,-18,69c0,0,0,53,18,71c0,0,18,17,64,17c0,0,45,0,62,-17c0,0,17,-17,17,-69c0,0,0,-53,-18,-70c0,0,-17,-17,-63,-17Z" 
id="f2_nt"
transform="scale(0.001,-0.001)" />

<path d="M372,-4c0,0,-18,0,-30,2c0,0,-13,2,-21,3c0,0,-7,3,-10,8c0,0,-3,4,-3,10V857H36c0,0,-6,0,-11,3c0,0,-5,2,-8,9c0,0,-2,6,-4,17c0,0,-2,10,-2,24c0,0,0,14,2,25c0,0,2,11,4,17c0,0,3,7,8,10c0,0,5,3,11,3H708c0,0,6,0,11,-3c0,0,5,-3,8,-10c0,0,4,-6,5,-17c0,0,2,-11,2,-25c0,0,0,-14,-2,-24c0,0,-1,-11,-5,-17c0,0,-3,-7,-8,-9c0,0,-5,-3,-11,-3H436V19c0,0,0,-6,-3,-10c0,0,-3,-5,-10,-8c0,0,-8,-1,-20,-3c0,0,-12,-2,-31,-2Z" 
id="f2_2t"
transform="scale(0.001,-0.001)" />

<path d="M102,0C102,0,87,0,77,10C77,10,66,21,66,45V71c0,0,0,10,2,18c0,0,1,9,4,17c0,0,3,8,9,17c0,0,5,10,12,22L390,606H102c0,0,-12,0,-19,13c0,0,-7,12,-7,39c0,0,0,14,2,24c0,0,1,10,5,16c0,0,3,7,8,9c0,0,5,3,11,3H487c0,0,9,0,15,-2c0,0,6,-3,11,-8c0,0,4,-5,7,-13c0,0,3,-8,3,-21V642c0,0,0,-10,-2,-19c0,0,-1,-9,-4,-18c0,0,-3,-8,-9,-18c0,0,-5,-10,-12,-22L201,104H516c0,0,6,0,11,-3c0,0,4,-3,8,-9c0,0,3,-6,5,-16c0,0,3,-10,3,-24c0,0,0,-14,-3,-24c0,0,-2,-10,-5,-16c0,0,-3,-7,-8,-9c0,0,-5,-3,-11,-3Z" 
id="f2_ct"
transform="scale(0.001,-0.001)" />

<path d="M69,-215c0,0,-12,0,-21,1c0,0,-8,1,-12,4c0,0,-4,2,-4,7c0,0,-1,4,2,10L134,11v96c0,0,0,20,4,32c0,0,4,12,13,18c0,0,9,6,22,8c0,0,13,2,33,2c0,0,19,0,32,-2c0,0,13,-2,22,-8c0,0,9,-6,13,-18c0,0,4,-12,4,-32c0,0,0,-23,-2,-43c0,0,-3,-19,-8,-36c0,0,-5,-17,-14,-33c0,0,-8,-17,-21,-36L130,-194c0,0,-4,-5,-9,-9c0,0,-5,-4,-12,-7c0,0,-7,-3,-16,-4c0,0,-9,-1,-24,-1Z" 
id="f2_nq"
transform="scale(0.001,-0.001)" />

<path d="M351,-13c0,0,-67,0,-113,22c0,0,-46,22,-75,60c0,0,-28,39,-40,90c0,0,-13,51,-13,124V690c0,0,0,6,3,10c0,0,3,4,10,7c0,0,8,4,20,5c0,0,11,1,29,1c0,0,18,0,30,-1c0,0,12,-1,19,-5c0,0,7,-3,10,-7c0,0,3,-4,3,-10V299c0,0,0,-59,9,-94c0,0,8,-36,26,-61c0,0,18,-24,44,-38c0,0,27,-14,63,-14c0,0,46,0,92,33c0,0,46,32,98,95V690c0,0,0,6,2,10c0,0,3,4,10,7c0,0,8,4,19,5c0,0,12,1,30,1c0,0,18,0,30,-1c0,0,12,-1,19,-5c0,0,7,-3,10,-7c0,0,3,-4,3,-10V18c0,0,0,-6,-2,-10c0,0,-3,-4,-10,-7c0,0,-6,-2,-17,-3c0,0,-11,-2,-27,-2c0,0,-17,0,-28,2c0,0,-10,1,-17,3c0,0,-6,3,-8,7c0,0,-3,4,-3,10v89c0,0,-57,-63,-113,-92c0,0,-56,-28,-113,-28Z" 
id="f2_c6"
transform="scale(0.001,-0.001)" />

<path d="M79,326c0,0,-14,0,-20,11c0,0,-7,12,-7,40c0,0,0,29,7,40c0,0,6,11,20,11H390c0,0,6,0,11,-2c0,0,5,-2,8,-9c0,0,4,-6,6,-16c0,0,2,-9,2,-24c0,0,0,-29,-7,-40c0,0,-7,-11,-20,-11Z" 
id="f2_oj"
transform="scale(0.001,-0.001)" />

<path d="M273,157c0,0,-114,0,-193,80C80,237,0,317,0,431c0,0,0,112,80,192c0,0,79,80,193,80c0,0,113,0,192,-80c0,0,80,-80,80,-192c0,0,0,-114,-80,-194c0,0,-79,-80,-192,-80Z" 
id="f3_3d"
transform="scale(0.001,-0.001)" />

<path d="M503,98c0,0,85,0,142,31c0,0,58,31,93,85c0,0,35,53,50,123c0,0,15,70,15,148c0,0,0,83,-15,153c0,0,-14,70,-48,122c0,0,-34,52,-91,81c0,0,-57,29,-140,29c0,0,-84,0,-141,-31c0,0,-56,-31,-92,-84c0,0,-35,-52,-51,-122c0,0,-15,-69,-15,-146c0,0,0,-85,14,-157c0,0,14,-71,48,-123c0,0,34,-52,90,-80c0,0,56,-29,141,-29ZM497,-13c0,0,-109,0,-189,32c0,0,-79,32,-131,94c0,0,-52,62,-77,154c0,0,-26,91,-26,211c0,0,0,114,28,207c0,0,28,93,83,159c0,0,55,65,138,100c0,0,83,36,193,36c0,0,107,0,186,-32c0,0,79,-32,132,-94c0,0,52,-61,78,-152c0,0,26,-91,26,-208c0,0,0,-117,-28,-211c0,0,-28,-94,-82,-160C828,123,773,57,690,22c0,0,-83,-35,-193,-35Z" 
id="f2_24"
transform="scale(0.001,-0.001)" />

<path d="M372,472c0,0,58,0,97,15c0,0,38,15,65,42c0,0,26,26,39,63c0,0,14,37,14,80c0,0,0,59,-22,99c0,0,-23,39,-55,59c0,0,-32,19,-67,24c0,0,-35,5,-68,5H256V472ZM192,-4c0,0,-18,0,-31,2c0,0,-12,2,-19,3c0,0,-8,3,-11,8c0,0,-3,4,-3,10V910c0,0,0,30,16,42c0,0,15,13,35,13H386c0,0,31,0,60,-3c0,0,28,-2,68,-11c0,0,39,-8,80,-32c0,0,40,-23,69,-58c0,0,28,-34,43,-79c0,0,16,-45,16,-100c0,0,0,-72,-24,-130c0,0,-24,-58,-69,-100c0,0,-44,-41,-109,-63c0,0,-64,-22,-154,-22H256V19c0,0,0,-6,-3,-10c0,0,-3,-5,-10,-8c0,0,-7,-1,-20,-3c0,0,-12,-2,-31,-2Z" 
id="f2_2g"
transform="scale(0.001,-0.001)" />

<path d="M482,-11c0,0,-94,0,-170,31c0,0,-76,31,-129,92c0,0,-53,61,-82,151c0,0,-29,90,-29,207c0,0,0,120,31,214c0,0,31,94,87,159c0,0,56,65,134,100c0,0,78,34,173,34c0,0,41,0,81,-8c0,0,39,-8,73,-19c0,0,33,-12,60,-28c0,0,26,-15,36,-25c0,0,10,-10,13,-15c0,0,3,-6,5,-13c0,0,1,-7,3,-17c0,0,1,-9,1,-23c0,0,0,-15,-2,-25c0,0,-1,-11,-4,-18c0,0,-3,-7,-7,-10c0,0,-4,-4,-10,-4c0,0,-11,0,-30,15c0,0,-18,14,-48,32c0,0,-29,17,-71,32c0,0,-42,14,-101,14c0,0,-64,0,-117,-25c0,0,-52,-26,-90,-76c0,0,-37,-50,-57,-122c0,0,-21,-72,-21,-164c0,0,0,-92,20,-163c0,0,20,-70,57,-117c0,0,36,-48,90,-72c0,0,54,-24,122,-24c0,0,57,0,100,14c0,0,43,14,73,32c0,0,30,17,50,31c0,0,19,15,30,15c0,0,5,0,9,-3c0,0,4,-2,6,-8c0,0,2,-7,3,-18c0,0,2,-11,2,-28c0,0,0,-12,-1,-21c0,0,-1,-9,-3,-16c0,0,-2,-6,-5,-12c0,0,-3,-5,-10,-12c0,0,-8,-8,-31,-23c0,0,-24,-15,-60,-30C663,23,628,8,582,-1c0,0,-46,-10,-100,-10Z" 
id="f2_j"
transform="scale(0.001,-0.001)" />

<path d="M441,106c0,0,45,0,77,10c0,0,33,10,58,31c0,0,25,21,39,51c0,0,15,31,15,71c0,0,0,43,-14,76c0,0,-14,33,-41,55c0,0,-26,23,-66,34c0,0,-40,12,-100,12H255V106ZM401,549c0,0,50,0,81,13c0,0,30,13,50,35c0,0,20,22,30,51c0,0,9,29,9,61c0,0,0,35,-10,63c0,0,-9,28,-30,48c0,0,-21,20,-55,30c0,0,-33,10,-88,10H255V549ZM176,0c0,0,-17,0,-33,12c0,0,-15,11,-15,40V913c0,0,0,29,15,41c0,0,16,11,33,11H395c0,0,87,0,142,-16c0,0,55,-17,92,-48c0,0,37,-31,55,-77c0,0,19,-45,19,-103c0,0,0,-34,-8,-65c0,0,-8,-32,-24,-58c0,0,-16,-27,-41,-47c0,0,-24,-21,-55,-35c0,0,39,-7,74,-27c0,0,34,-20,60,-50c0,0,26,-31,41,-72c0,0,15,-41,15,-90c0,0,0,-46,-12,-84c0,0,-12,-39,-32,-69c0,0,-21,-31,-51,-54c0,0,-29,-23,-66,-39C604,31,567,16,525,8C525,8,483,0,428,0Z" 
id="f2_i"
transform="scale(0.001,-0.001)" />

<path d="M204,-4c0,0,-28,0,-47,2c0,0,-19,2,-31,6c0,0,-11,4,-16,10c0,0,-4,6,-4,14V903c0,0,0,33,16,48c0,0,17,14,42,14H618c0,0,7,0,12,-4c0,0,5,-4,9,-13c0,0,5,-10,6,-25c0,0,2,-16,2,-38c0,0,0,-23,-2,-38c0,0,-1,-15,-6,-24c0,0,-4,-9,-9,-14c0,0,-5,-4,-12,-4H302V545H599c0,0,6,0,12,-4c0,0,5,-4,9,-13c0,0,4,-9,6,-24c0,0,2,-15,2,-37c0,0,0,-22,-2,-37c0,0,-2,-15,-6,-25c0,0,-4,-10,-9,-14c0,0,-6,-4,-12,-4H302V28c0,0,0,-8,-4,-14c0,0,-5,-6,-16,-10c0,0,-12,-4,-30,-6c0,0,-19,-2,-48,-2Z" 
id="f1_13"
transform="scale(0.001,-0.001)" />

<path d="M188,-4c0,0,-28,0,-46,2c0,0,-18,2,-28,5c0,0,-11,3,-16,9c0,0,-4,5,-4,13V689c0,0,0,8,4,13c0,0,5,6,16,10c0,0,10,4,28,6c0,0,18,3,46,3c0,0,27,0,45,-3c0,0,18,-2,29,-6c0,0,11,-4,15,-10c0,0,5,-5,5,-13V25c0,0,0,-8,-5,-13c0,0,-4,-6,-15,-9c0,0,-11,-3,-29,-5c0,0,-18,-2,-45,-2Zm-1,820c0,0,-63,0,-85,21c0,0,-22,21,-22,75c0,0,0,57,23,79c0,0,23,22,86,22c0,0,63,0,85,-21c0,0,22,-21,22,-76c0,0,0,-56,-23,-78c0,0,-23,-22,-86,-22Z" 
id="f1_9q"
transform="scale(0.001,-0.001)" />

<path d="M345,-143c0,0,43,0,72,9c0,0,29,8,47,23c0,0,18,14,25,31c0,0,8,18,8,37c0,0,0,33,-27,50c0,0,-27,18,-74,20L263,30C263,30,243,16,232,3c0,0,-12,-12,-19,-24c0,0,-7,-12,-9,-23c0,0,-3,-11,-3,-23c0,0,0,-37,38,-56c0,0,38,-20,106,-20Zm-4,517c0,0,28,0,49,9c0,0,21,9,35,25c0,0,14,16,21,36c0,0,7,21,7,43c0,0,0,54,-30,84c0,0,-30,29,-84,29c0,0,-28,0,-49,-9c0,0,-21,-9,-34,-25c0,0,-14,-16,-21,-38c0,0,-7,-21,-7,-44c0,0,0,-51,30,-80c0,0,30,-30,83,-30Zm-4,-645c0,0,-85,0,-145,14c0,0,-60,13,-98,37c0,0,-39,24,-56,57c0,0,-18,33,-18,73c0,0,0,24,6,47c0,0,7,22,19,42c0,0,12,20,30,39c0,0,18,18,41,35c0,0,-32,18,-49,47c0,0,-18,29,-18,64c0,0,0,44,20,80c0,0,21,36,53,65c0,0,-27,26,-42,63c0,0,-16,37,-16,91c0,0,0,58,21,104c0,0,20,46,57,78c0,0,36,32,87,49c0,0,51,16,112,16c0,0,31,0,60,-3c0,0,29,-4,53,-11H665c0,0,13,0,21,-17c0,0,8,-16,8,-55c0,0,0,-36,-8,-53c0,0,-9,-17,-21,-17H587c0,0,17,-18,24,-41c0,0,7,-22,7,-47c0,0,0,-58,-20,-103c0,0,-19,-45,-55,-76c0,0,-36,-31,-88,-47c0,0,-51,-17,-113,-17c0,0,-32,0,-61,8c0,0,-30,8,-45,19c0,0,-9,-10,-16,-23c0,0,-7,-14,-7,-30c0,0,0,-22,19,-36c0,0,19,-13,53,-15l162,-6c0,0,57,-2,101,-16c0,0,44,-14,75,-39c0,0,30,-24,46,-59c0,0,16,-35,16,-79c0,0,0,-49,-22,-93c0,0,-21,-44,-65,-76c0,0,-43,-32,-108,-50c0,0,-66,-19,-153,-19Z" 
id="f1_9d"
transform="scale(0.001,-0.001)" />

<path d="M204,-9c0,0,-63,0,-87,23c0,0,-24,23,-24,89c0,0,0,70,24,94c0,0,25,24,88,24c0,0,62,0,86,-24c0,0,24,-23,24,-90c0,0,0,-69,-24,-93c0,0,-25,-23,-87,-23Z" 
id="f1_nt"
transform="scale(0.001,-0.001)" />

<path d="M142,0c0,0,-6,0,-12,4c0,0,-5,3,-9,12c0,0,-4,9,-6,23c0,0,-3,15,-3,36c0,0,0,21,2,36c0,0,2,14,6,23c0,0,4,9,10,13c0,0,5,5,12,5H322V779L166,693c0,0,-17,-8,-28,-10c0,0,-1,0,-3,0c-4,0,-10,1,-14,5c0,0,-6,6,-8,22c0,0,-2,15,-2,44c0,0,0,18,0,29c0,0,1,12,4,20c0,0,3,8,8,14c0,0,5,5,14,11L345,962c0,0,4,3,9,5c0,0,6,2,15,3c0,0,9,1,23,2c0,0,15,0,38,0c0,0,28,0,46,-1c0,0,17,-1,26,-4c0,0,9,-3,12,-7c0,0,3,-4,3,-11V152H675c0,0,7,0,12,-5c0,0,6,-4,10,-13c0,0,4,-9,6,-23c0,0,2,-15,2,-36c0,0,0,-21,-2,-36c0,0,-3,-14,-7,-23c0,0,-4,-9,-9,-12c0,0,-5,-4,-12,-4Z" 
id="f1_ry"
transform="scale(0.001,-0.001)" />

<path d="M164,0c0,0,-25,0,-42,15c0,0,-16,14,-16,47V939c0,0,0,7,4,13c0,0,5,6,16,10c0,0,12,3,31,6c0,0,19,2,47,2c0,0,29,0,48,-2c0,0,18,-3,29,-6c0,0,11,-4,16,-10c0,0,5,-6,5,-13V162H606c0,0,7,0,13,-4c0,0,5,-4,9,-13c0,0,4,-10,6,-25c0,0,2,-15,2,-38c0,0,0,-22,-2,-37c0,0,-2,-16,-6,-26c0,0,-4,-10,-9,-15c0,0,-6,-4,-13,-4Z" 
id="f1_1r"
transform="scale(0.001,-0.001)" />

<path d="M526,431c0,0,2,79,-32,124c0,0,-34,45,-105,45c0,0,-35,0,-62,-13c0,0,-26,-13,-44,-36c0,0,-17,-23,-27,-54c0,0,-9,-31,-11,-66ZM410,-17c0,0,-88,0,-155,22c0,0,-67,22,-112,68c0,0,-44,45,-66,115c0,0,-22,69,-22,162c0,0,0,89,23,161c0,0,23,71,67,120c0,0,44,50,107,76c0,0,63,26,142,26c0,0,84,0,143,-24c0,0,59,-25,97,-69c0,0,38,-43,56,-103c0,0,18,-60,18,-130V377c0,0,0,-34,-15,-51c0,0,-16,-16,-43,-16H245c0,0,0,-43,10,-77c0,0,11,-35,33,-59c0,0,22,-24,56,-37c0,0,35,-13,83,-13c0,0,50,0,87,7c0,0,37,8,65,16c0,0,27,9,45,16c0,0,18,7,29,7c0,0,6,0,11,-2c0,0,4,-3,7,-10c0,0,3,-7,4,-19c0,0,2,-12,2,-31c0,0,0,-16,-1,-28c0,0,-1,-12,-2,-20c0,0,-2,-8,-5,-14c0,0,-3,-5,-8,-10c0,0,-5,-6,-26,-15c0,0,-22,-9,-55,-17c0,0,-34,-8,-77,-14c0,0,-43,-7,-93,-7Z" 
id="f1_7z"
transform="scale(0.001,-0.001)" />

<path d="M361,-4c0,0,-39,0,-64,2c0,0,-25,2,-40,5c0,0,-14,5,-20,13c0,0,-7,7,-10,19L27,638c0,0,-5,15,-7,27c0,0,-3,12,-3,17c0,0,-1,5,-1,10c0,0,0,7,4,13c0,0,4,5,15,9c0,0,10,4,28,5c0,0,19,2,46,2c0,0,31,0,50,-2c0,0,18,-2,29,-5c0,0,11,-4,15,-10c0,0,5,-7,8,-15L363,200l4,-19l5,19L521,689c0,0,2,8,7,15c0,0,5,6,15,10c0,0,10,3,28,5c0,0,18,2,46,2c0,0,28,0,45,-2c0,0,18,-1,27,-5c0,0,10,-4,14,-9c0,0,3,-6,3,-13c0,0,0,-4,0,-9c0,0,0,-6,-1,-12c0,0,-2,-6,-3,-15c0,0,-2,-8,-5,-18L497,35c0,0,-4,-12,-10,-20c0,0,-7,-8,-21,-12c0,0,-15,-4,-40,-5c0,0,-25,-2,-65,-2Z" 
id="f1_ch"
transform="scale(0.001,-0.001)" />

<path d="M188,-4c0,0,-28,0,-46,2c0,0,-18,2,-28,5c0,0,-11,3,-16,9c0,0,-4,5,-4,13v981c0,0,0,8,4,14c0,0,5,6,16,10c0,0,10,4,28,6c0,0,18,2,46,2c0,0,27,0,45,-2c0,0,18,-2,29,-6c0,0,11,-4,15,-10c0,0,5,-6,5,-14V25c0,0,0,-8,-5,-13c0,0,-4,-6,-15,-9c0,0,-11,-3,-29,-5c0,0,-18,-2,-45,-2Z" 
id="f1_a8"
transform="scale(0.001,-0.001)" />

<path d="M275,-17c0,0,-37,0,-71,6c0,0,-34,6,-61,13c0,0,-27,9,-45,18c0,0,-18,9,-26,17c0,0,-8,8,-13,25c0,0,-4,17,-4,49c0,0,0,22,1,35c0,0,2,13,5,21c0,0,3,8,7,10c0,0,5,3,11,3c0,0,9,0,25,-9c0,0,16,-10,40,-21c0,0,24,-11,55,-21c0,0,32,-10,72,-10c0,0,26,0,46,5c0,0,19,6,34,15c0,0,14,10,22,25c0,0,7,15,7,34c0,0,0,23,-13,39c0,0,-14,16,-37,28c0,0,-23,11,-52,22c0,0,-28,10,-58,23c0,0,-31,13,-59,29c0,0,-29,17,-52,41c0,0,-23,23,-37,57c0,0,-13,34,-13,81c0,0,0,47,18,87c0,0,19,40,54,69c0,0,35,28,86,44c0,0,50,15,113,15c0,0,31,0,61,-4c0,0,29,-5,53,-11c0,0,24,-7,40,-15c0,0,17,-7,24,-13c0,0,7,-6,10,-11c0,0,3,-6,4,-14c0,0,2,-7,3,-19c0,0,1,-12,1,-29c0,0,0,-20,-1,-33c0,0,-1,-12,-4,-20c0,0,-2,-7,-7,-10c0,0,-4,-3,-10,-3c0,0,-7,0,-21,8c0,0,-14,8,-36,17c0,0,-21,9,-49,17c0,0,-28,7,-64,7c0,0,-25,0,-44,-5c0,0,-19,-5,-30,-15c0,0,-12,-9,-18,-22c0,0,-6,-14,-6,-28c0,0,0,-24,14,-39c0,0,14,-16,37,-28c0,0,23,-12,53,-22c0,0,29,-11,59,-23c0,0,31,-12,60,-29c0,0,30,-16,53,-40c0,0,23,-24,37,-57c0,0,14,-33,14,-79c0,0,0,-57,-21,-100c0,0,-21,-43,-60,-72c0,0,-39,-29,-92,-43c0,0,-53,-15,-115,-15Z" 
id="f1_b5"
transform="scale(0.001,-0.001)" />

<path d="M409,132c0,0,42,0,73,15c0,0,32,16,52,45c0,0,20,29,29,70c0,0,10,42,10,95c0,0,0,49,-8,91c0,0,-8,41,-26,72c0,0,-19,30,-50,48c0,0,-30,17,-77,17c0,0,-42,0,-73,-16c0,0,-31,-15,-51,-44c0,0,-21,-30,-31,-71c0,0,-10,-42,-10,-95c0,0,0,-49,9,-91c0,0,8,-41,26,-72c0,0,18,-30,49,-47c0,0,32,-17,78,-17ZM402,-17c0,0,-89,0,-154,24c0,0,-66,25,-109,72c0,0,-43,47,-64,115c0,0,-21,69,-21,157c0,0,0,85,23,156c0,0,22,70,68,121c0,0,45,50,113,78c0,0,69,27,160,27c0,0,90,0,155,-24c0,0,66,-24,109,-71c0,0,43,-47,64,-116c0,0,21,-69,21,-157c0,0,0,-86,-23,-156c0,0,-22,-70,-68,-121C676,88,631,38,562,10c0,0,-68,-27,-160,-27Z" 
id="f1_am"
transform="scale(0.001,-0.001)" />

<path d="M224,-4c0,0,-26,0,-45,2c0,0,-18,2,-29,5c0,0,-11,3,-15,9c0,0,-4,5,-4,13V563H48c0,0,-14,0,-21,18c0,0,-7,17,-7,58c0,0,0,22,1,37c0,0,2,15,6,24c0,0,3,8,9,12c0,0,5,4,13,4h82v56c0,0,0,68,13,119c0,0,14,51,43,85c0,0,29,34,73,51c0,0,45,17,105,17c0,0,29,0,55,-5c0,0,27,-4,42,-10c0,0,15,-6,20,-10c0,0,5,-5,8,-15c0,0,4,-9,5,-23c0,0,2,-15,2,-37c0,0,0,-21,-2,-34c0,0,-1,-13,-4,-20c0,0,-3,-7,-7,-10c0,0,-4,-3,-8,-3c0,0,-5,0,-12,3c0,0,-6,3,-16,6c0,0,-9,2,-22,5c0,0,-12,3,-29,3c0,0,-21,0,-35,-7c0,0,-15,-6,-25,-20c0,0,-9,-14,-14,-36c0,0,-4,-22,-4,-54V716H440c0,0,7,0,13,-4c0,0,5,-4,9,-12c0,0,4,-9,5,-24c0,0,2,-15,2,-37c0,0,0,-41,-7,-58c0,0,-8,-18,-22,-18H319V25c0,0,0,-8,-5,-13c0,0,-4,-6,-15,-9c0,0,-10,-3,-29,-5c0,0,-19,-2,-46,-2Z" 
id="f1_89"
transform="scale(0.001,-0.001)" />

<path d="M188,-4c0,0,-28,0,-46,2c0,0,-18,2,-28,5c0,0,-11,3,-16,9c0,0,-4,5,-4,13V691c0,0,0,7,4,13c0,0,3,5,13,9c0,0,10,4,25,6c0,0,15,2,38,2c0,0,24,0,40,-2c0,0,15,-2,24,-6c0,0,9,-4,12,-9c0,0,4,-6,4,-13V608c0,0,26,37,49,61c0,0,23,25,44,39c0,0,21,14,42,20c0,0,21,5,42,5c0,0,10,0,21,-1c0,0,11,-1,23,-4c0,0,12,-2,21,-5c0,0,9,-4,13,-8c0,0,4,-3,6,-8c0,0,2,-4,3,-12c0,0,2,-8,2,-24c0,0,1,-15,1,-42c0,0,0,-27,-1,-44c0,0,-2,-17,-5,-27c0,0,-3,-10,-8,-13c0,0,-5,-4,-12,-4c0,0,-6,0,-13,3c0,0,-8,2,-17,5c0,0,-10,3,-21,6c0,0,-11,2,-24,2c0,0,-16,0,-32,-6c0,0,-15,-6,-32,-20c0,0,-17,-13,-35,-36c0,0,-19,-22,-39,-55V25c0,0,0,-8,-5,-13c0,0,-4,-6,-15,-9c0,0,-11,-3,-29,-5c0,0,-18,-2,-45,-2Z" 
id="f1_b1"
transform="scale(0.001,-0.001)" />

<path d="M337,115c0,0,39,0,73,21c0,0,33,20,67,59V308H405c0,0,-45,0,-77,-7c0,0,-32,-6,-53,-20c0,0,-20,-13,-29,-32c0,0,-9,-19,-9,-44c0,0,0,-42,26,-66c0,0,27,-24,74,-24ZM296,-17c0,0,-53,0,-98,14c0,0,-44,13,-77,40c0,0,-32,28,-50,68c0,0,-18,40,-18,94c0,0,0,58,23,101c0,0,22,43,68,71c0,0,45,28,112,42c0,0,67,13,156,13h65v40c0,0,0,32,-6,55c0,0,-7,24,-21,39c0,0,-15,16,-39,23c0,0,-24,8,-60,8c0,0,-47,0,-84,-11c0,0,-37,-10,-66,-23c0,0,-28,-13,-47,-23c0,0,-19,-11,-31,-11c0,0,-9,0,-15,5c0,0,-6,6,-10,15c0,0,-5,10,-7,24c0,0,-2,14,-2,31c0,0,0,23,4,37c0,0,3,13,14,24c0,0,10,11,36,24c0,0,27,13,62,25c0,0,35,11,76,18c0,0,42,7,86,7c0,0,78,0,134,-15c0,0,55,-15,91,-47c0,0,36,-32,53,-82c0,0,16,-50,16,-118V23c0,0,0,-11,-7,-17c0,0,-8,-6,-24,-7c0,0,-16,-3,-47,-3c0,0,-34,0,-49,3c0,0,-15,1,-21,7c0,0,-7,6,-7,17V76C506,76,465,32,412,7c0,0,-52,-24,-116,-24Z" 
id="f1_77"
transform="scale(0.001,-0.001)" />

<path d="M188,-4c0,0,-28,0,-46,2c0,0,-18,2,-28,5c0,0,-11,3,-16,9c0,0,-4,5,-4,13V691c0,0,0,7,4,13c0,0,3,5,13,9c0,0,10,4,25,6c0,0,15,2,38,2c0,0,24,0,40,-2c0,0,15,-2,24,-6c0,0,9,-4,12,-9c0,0,4,-6,4,-13V614c0,0,55,60,112,89c0,0,57,30,119,30c0,0,68,0,115,-22c0,0,47,-22,75,-61c0,0,29,-38,42,-90c0,0,12,-51,12,-124V25c0,0,0,-8,-4,-13c0,0,-5,-6,-15,-9c0,0,-10,-3,-29,-5c0,0,-18,-2,-45,-2c0,0,-28,0,-46,2c0,0,-18,2,-29,5c0,0,-10,3,-15,9c0,0,-4,6,-4,13V405c0,0,0,49,-7,76c0,0,-7,28,-21,48c0,0,-13,19,-35,30c0,0,-21,11,-49,11c0,0,-36,0,-72,-26c0,0,-37,-26,-76,-76V25c0,0,0,-7,-5,-13c0,0,-4,-6,-15,-9c0,0,-11,-3,-29,-5c0,0,-18,-2,-45,-2Z" 
id="f1_af"
transform="scale(0.001,-0.001)" />

<path d="M94,0C94,0,73,0,63,13C63,13,52,27,52,57V92c0,0,0,13,1,24c0,0,1,11,4,21c0,0,4,10,9,20c0,0,6,11,15,23L331,565H94c0,0,-14,0,-23,18c0,0,-8,18,-8,57c0,0,0,22,1,37c0,0,2,14,6,23c0,0,4,8,10,12c0,0,6,4,14,4H501c0,0,11,0,18,-2c0,0,8,-3,13,-9c0,0,4,-6,7,-16c0,0,3,-11,3,-26V626c0,0,0,-15,-2,-26c0,0,-1,-12,-4,-22c0,0,-3,-11,-9,-21c0,0,-5,-10,-13,-22L266,151H529c0,0,7,0,13,-3c0,0,6,-3,10,-12c0,0,4,-8,6,-22c0,0,2,-15,2,-37c0,0,0,-22,-2,-37c0,0,-2,-15,-6,-24c0,0,-4,-9,-10,-13c0,0,-6,-3,-13,-3Z" 
id="f1_ct"
transform="scale(0.001,-0.001)" />

<path d="M344,-14c0,0,-56,0,-97,14c0,0,-42,14,-69,43c0,0,-26,29,-39,74c0,0,-13,45,-13,106V563H47c0,0,-15,0,-22,18c0,0,-7,17,-7,58c0,0,0,22,1,37c0,0,2,15,6,24c0,0,4,8,9,12c0,0,6,4,13,4h79V864c0,0,0,8,4,14c0,0,4,6,15,10c0,0,11,4,29,6c0,0,19,2,46,2c0,0,27,0,46,-2c0,0,18,-2,28,-6c0,0,11,-4,15,-10c0,0,5,-6,5,-14V716H459c0,0,7,0,13,-4c0,0,6,-4,9,-12c0,0,4,-9,6,-24c0,0,2,-15,2,-37c0,0,0,-41,-8,-58c0,0,-7,-18,-21,-18H314V251c0,0,0,-54,17,-81c0,0,17,-27,61,-27c0,0,15,0,27,2c0,0,12,3,22,6c0,0,9,4,15,6c0,0,7,3,12,3c0,0,4,0,9,-3c0,0,4,-2,6,-10c0,0,2,-8,4,-21c0,0,2,-14,2,-35c0,0,0,-33,-4,-50c0,0,-4,-18,-11,-25c0,0,-7,-7,-20,-12c0,0,-13,-5,-31,-9c0,0,-17,-4,-38,-6c0,0,-20,-3,-41,-3Z" 
id="f1_bf"
transform="scale(0.001,-0.001)" />

<path d="M77,-271c0,0,-31,0,-52,4c0,0,-22,4,-31,9c0,0,-9,4,-13,11c0,0,-4,7,-5,15c0,0,-2,9,-3,20c0,0,0,11,0,28c0,0,0,21,1,35c0,0,1,13,4,22c0,0,3,8,7,12c0,0,3,3,9,3c0,0,4,0,15,-1c0,0,11,-2,25,-2c0,0,19,0,33,6c0,0,15,6,24,19c0,0,9,13,13,33c0,0,5,21,5,64V689c0,0,0,8,4,13c0,0,5,6,15,10c0,0,10,4,28,6c0,0,18,3,46,3c0,0,28,0,46,-3c0,0,18,-2,28,-6c0,0,11,-4,16,-10c0,0,4,-5,4,-13V3c0,0,0,-77,-13,-125c0,0,-14,-49,-41,-82c0,0,-27,-33,-68,-50c0,0,-42,-17,-97,-17ZM201,816c0,0,-62,0,-85,21c0,0,-22,21,-22,75c0,0,0,57,23,79c0,0,23,22,86,22c0,0,63,0,85,-21c0,0,22,-21,22,-76c0,0,0,-56,-23,-78c0,0,-22,-22,-86,-22Z" 
id="f1_a2"
transform="scale(0.001,-0.001)" />

<path d="M440,150c0,0,41,0,68,8c0,0,28,9,49,26c0,0,20,16,32,41c0,0,11,25,11,58c0,0,0,33,-11,60c0,0,-11,26,-33,44c0,0,-21,18,-55,28c0,0,-33,9,-87,9H298V150ZM407,567c0,0,42,0,68,10c0,0,25,10,42,28c0,0,16,17,24,41c0,0,9,24,9,50c0,0,0,29,-9,52c0,0,-9,23,-27,39c0,0,-18,15,-45,23c0,0,-27,8,-72,8H298V567ZM164,0c0,0,-25,0,-42,15c0,0,-16,14,-16,47V903c0,0,0,33,16,48c0,0,17,14,42,14H406c0,0,88,0,150,-15c0,0,61,-15,103,-45c0,0,42,-30,65,-77c0,0,22,-46,22,-108c0,0,0,-36,-9,-67c0,0,-9,-31,-26,-56c0,0,-17,-25,-42,-45c0,0,-25,-19,-57,-31c0,0,41,-7,76,-26c0,0,34,-19,60,-48c0,0,26,-30,41,-69c0,0,15,-40,15,-89c0,0,0,-51,-14,-93c0,0,-15,-42,-40,-74c0,0,-25,-32,-59,-55c0,0,-35,-23,-77,-38C614,29,573,14,525,7C525,7,478,0,420,0Z" 
id="f1_i"
transform="scale(0.001,-0.001)" />

<path d="M188,-4c0,0,-28,0,-46,2c0,0,-18,2,-28,5c0,0,-11,3,-16,9c0,0,-4,5,-4,13V691c0,0,0,7,4,13c0,0,3,5,13,9c0,0,10,4,25,6c0,0,15,2,38,2c0,0,24,0,40,-2c0,0,15,-2,24,-6c0,0,9,-4,12,-9c0,0,4,-6,4,-13V614c0,0,55,60,110,89c0,0,55,30,115,30c0,0,41,0,74,-8c0,0,33,-9,59,-25c0,0,26,-16,44,-38c0,0,19,-23,32,-50c0,0,30,32,58,55c0,0,29,23,57,38c0,0,28,14,56,21c0,0,28,7,57,7c0,0,66,0,112,-22c0,0,45,-22,73,-61c0,0,28,-38,40,-90c0,0,12,-51,12,-109V25c0,0,0,-8,-5,-13c0,0,-4,-6,-15,-9c0,0,-10,-3,-28,-5c0,0,-18,-2,-46,-2c0,0,-28,0,-46,2c0,0,-18,2,-29,5c0,0,-11,3,-15,9c0,0,-4,6,-4,13V420c0,0,0,34,-6,61c0,0,-7,28,-20,48c0,0,-13,19,-32,30c0,0,-20,11,-47,11c0,0,-34,0,-68,-26c0,0,-34,-26,-74,-76V25c0,0,0,-7,-5,-13c0,0,-4,-6,-15,-9c0,0,-11,-3,-29,-5c0,0,-18,-2,-45,-2c0,0,-27,0,-45,2c0,0,-18,2,-29,5c0,0,-11,3,-16,9c0,0,-4,6,-4,13V420c0,0,0,34,-6,61c0,0,-7,28,-19,48c0,0,-13,19,-33,30c0,0,-21,11,-48,11c0,0,-34,0,-68,-26c0,0,-35,-26,-74,-76V25c0,0,0,-7,-5,-13c0,0,-4,-6,-15,-9c0,0,-11,-3,-29,-5c0,0,-18,-2,-45,-2Z" 
id="f1_ae"
transform="scale(0.001,-0.001)" />

<path d="M380,142c0,0,19,0,37,5c0,0,19,6,38,19c0,0,19,12,39,33c0,0,20,20,44,50V470c0,0,-40,50,-77,77c0,0,-37,27,-77,27c0,0,-37,0,-63,-18c0,0,-27,-19,-43,-49c0,0,-16,-31,-24,-68c0,0,-8,-38,-8,-77c0,0,0,-42,7,-82c0,0,7,-39,22,-70c0,0,15,-31,41,-50c0,0,25,-18,64,-18ZM333,-17c0,0,-76,0,-129,29c0,0,-52,29,-85,79c0,0,-33,50,-48,117c0,0,-15,67,-15,141c0,0,0,89,19,160c0,0,19,71,55,121c0,0,37,50,91,76c0,0,55,27,125,27c0,0,56,0,102,-22c0,0,45,-23,90,-67v360c0,0,0,8,4,14c0,0,4,6,15,10c0,0,11,4,29,6c0,0,18,2,45,2c0,0,28,0,46,-2c0,0,18,-2,28,-6c0,0,11,-4,15,-10c0,0,5,-6,5,-14V25c0,0,0,-8,-4,-14c0,0,-4,-5,-13,-9c0,0,-9,-3,-24,-4c0,0,-15,-2,-38,-2c0,0,-24,0,-39,2c0,0,-15,1,-24,4c0,0,-9,4,-13,9c0,0,-5,6,-5,14V99C565,99,514,44,458,13c0,0,-57,-30,-125,-30Z" 
id="f1_7v"
transform="scale(0.001,-0.001)" />

<path d="M432,142c0,0,36,0,62,18c0,0,26,19,42,49c0,0,16,31,24,69c0,0,8,38,8,76c0,0,0,43,-6,82c0,0,-7,39,-22,70c0,0,-15,30,-40,49c0,0,-25,18,-62,18c0,0,-19,0,-37,-6c0,0,-19,-5,-38,-18c0,0,-19,-13,-39,-33c0,0,-20,-20,-42,-50V247c0,0,39,-51,75,-78c0,0,36,-27,75,-27ZM188,-270c0,0,-28,0,-46,2c0,0,-18,3,-28,7c0,0,-11,4,-16,10c0,0,-4,6,-4,13V691c0,0,0,7,4,13c0,0,3,5,13,9c0,0,9,4,24,6c0,0,15,2,39,2c0,0,22,0,37,-2c0,0,15,-2,25,-6c0,0,9,-4,13,-9c0,0,4,-6,4,-13V612c0,0,29,30,57,53c0,0,28,23,57,38c0,0,29,15,60,23c0,0,31,7,66,7c0,0,73,0,124,-28c0,0,52,-29,84,-79c0,0,33,-50,48,-117c0,0,15,-66,15,-141c0,0,0,-89,-19,-161c0,0,-19,-71,-56,-121C689,86,652,36,598,9c0,0,-54,-26,-125,-26c0,0,-29,0,-53,6c0,0,-24,6,-47,16c0,0,-23,12,-45,29c0,0,-23,17,-46,40V-238c0,0,0,-7,-5,-13c0,0,-4,-6,-15,-10c0,0,-11,-4,-29,-7c0,0,-18,-2,-45,-2Z" 
id="f1_ay"
transform="scale(0.001,-0.001)" />

<path d="M371,-16c0,0,-77,0,-136,23c0,0,-60,24,-100,71c0,0,-40,47,-61,114c0,0,-20,67,-20,154c0,0,0,100,25,173c0,0,25,72,69,120c0,0,45,48,106,71c0,0,62,23,135,23c0,0,29,0,58,-5c0,0,29,-5,54,-14c0,0,25,-9,45,-20c0,0,19,-12,28,-20c0,0,8,-8,11,-14c0,0,3,-5,5,-14c0,0,2,-9,3,-22c0,0,1,-13,1,-32c0,0,0,-43,-7,-61c0,0,-7,-18,-19,-18c0,0,-13,0,-27,11c0,0,-14,10,-34,23c0,0,-19,13,-46,23c0,0,-27,11,-64,11c0,0,-73,0,-112,-57c0,0,-39,-56,-39,-165c0,0,0,-54,10,-95c0,0,10,-41,29,-69c0,0,19,-28,47,-41c0,0,29,-14,67,-14c0,0,39,0,67,11c0,0,28,12,49,26c0,0,21,14,35,26c0,0,14,11,24,11c0,0,6,0,11,-4c0,0,4,-3,7,-13c0,0,2,-11,4,-26c0,0,1,-16,1,-41c0,0,0,-19,-1,-32c0,0,-1,-13,-3,-22c0,0,-2,-9,-4,-15c0,0,-3,-5,-12,-14c0,0,-9,-8,-30,-20C547,27,525,14,497,5c0,0,-27,-9,-60,-15c0,0,-32,-6,-66,-6Z" 
id="f1_7l"
transform="scale(0.001,-0.001)" />

<path d="M334,-17c0,0,-69,0,-115,22c0,0,-47,22,-76,61c0,0,-28,39,-41,90c0,0,-12,51,-12,127V691c0,0,0,7,4,13c0,0,4,5,15,9c0,0,11,4,29,6c0,0,19,2,45,2c0,0,28,0,46,-2c0,0,18,-2,29,-6c0,0,11,-4,15,-9c0,0,5,-6,5,-13V314c0,0,0,-52,6,-79c0,0,7,-28,21,-48c0,0,14,-20,35,-30c0,0,21,-11,49,-11c0,0,36,0,72,26c0,0,36,26,77,76V691c0,0,0,7,4,13c0,0,4,5,15,9c0,0,11,4,29,6c0,0,18,2,45,2c0,0,28,0,46,-2c0,0,18,-2,28,-6c0,0,11,-4,15,-9c0,0,5,-6,5,-13V25c0,0,0,-8,-4,-13c0,0,-4,-6,-13,-9c0,0,-10,-3,-25,-5c0,0,-15,-2,-38,-2c0,0,-25,0,-40,2c0,0,-16,2,-25,5c0,0,-9,3,-12,9c0,0,-4,5,-4,13v77c0,0,-55,-60,-112,-90c0,0,-57,-29,-118,-29Z" 
id="f1_c6"
transform="scale(0.001,-0.001)" />

<path d="M435,0V856c0,0,-48,-47,-127,-93c0,0,-79,-46,-142,-69V824c0,0,113,52,197,128c0,0,85,75,120,146h86V0Z" 
id="f4_l"
transform="scale(0.001,-0.001)" />

<path d="M610,-21c0,0,-162,0,-287,63c0,0,-126,65,-194,187c0,0,-68,121,-68,258c0,0,0,145,75,275c0,0,76,129,205,201c0,0,128,71,273,71c0,0,107,0,225,-46c0,0,69,-27,88,-27c0,0,24,0,41,18c0,0,18,17,23,55h29V683H991c0,0,-33,138,-122,211c0,0,-90,73,-203,73c0,0,-95,0,-174,-54c0,0,-79,-55,-116,-143c0,0,-47,-112,-47,-250c0,0,0,-135,34,-247c0,0,35,-111,108,-168c0,0,73,-57,189,-57c0,0,96,0,175,42c0,0,80,41,168,144V146c0,0,-85,-89,-178,-129c0,0,-92,-38,-215,-38Z" 
id="f5_13"
transform="scale(0.001,-0.001)" />

<path d="M52,0V26c0,0,44,5,62,29c0,0,13,16,13,97V860c0,0,0,80,-14,99c0,0,-15,20,-61,26v27H336V608c0,0,58,61,106,86c0,0,47,25,99,25c0,0,65,0,112,-38c0,0,47,-37,62,-87c0,0,15,-51,15,-170V152c0,0,0,-81,15,-100c0,0,15,-20,61,-26V0H452V26c0,0,37,6,56,30c0,0,13,20,13,96V463c0,0,0,86,-7,108c0,0,-6,22,-22,35c0,0,-16,12,-36,12c0,0,-30,0,-59,-21c0,0,-28,-20,-61,-72V152c0,0,0,-75,12,-94c0,0,14,-26,58,-32V0Z" 
id="f5_24"
transform="scale(0.001,-0.001)" />

<path d="M350,115c0,0,37,0,86,42V391c0,0,-90,-53,-134,-113c0,0,-29,-41,-29,-82c0,0,0,-34,24,-60c0,0,19,-21,53,-21ZM207,-9c0,0,-59,0,-99,38c0,0,-40,40,-40,99c0,0,0,80,69,143c0,0,69,64,299,170v70c0,0,0,79,-8,100c0,0,-9,20,-33,36c0,0,-23,15,-53,15c0,0,-49,0,-80,-22c0,0,-19,-13,-19,-31c0,0,0,-16,21,-39c0,0,28,-32,28,-62c0,0,0,-36,-27,-62c0,0,-27,-26,-71,-26c0,0,-47,0,-79,29c0,0,-32,28,-32,66c0,0,0,54,43,103c0,0,42,48,118,75c0,0,76,26,158,26c0,0,99,0,157,-42c0,0,58,-43,75,-92c0,0,11,-31,11,-144V170c0,0,0,-47,3,-60c0,0,4,-12,11,-18c0,0,8,-6,18,-6c0,0,19,0,39,28L738,96c0,0,-37,-56,-77,-81c0,0,-40,-24,-90,-24c0,0,-60,0,-94,27c0,0,-33,28,-41,85C436,103,309,-9,207,-9Z" 
id="f5_1x"
transform="scale(0.001,-0.001)" />

<path d="M459,56c0,0,40,0,66,42c0,0,39,63,39,239c0,0,0,180,-42,247c0,0,-29,44,-76,44c0,0,-76,0,-124,-109V147c0,0,64,-91,137,-91ZM29,-326v28c0,0,46,1,69,26c0,0,14,17,14,89V551c0,0,0,75,-17,95c0,0,-17,21,-66,24v27H322V605c0,0,36,54,74,78c0,0,55,36,119,36c0,0,77,0,140,-49c0,0,63,-48,95,-134c0,0,33,-85,33,-184c0,0,0,-106,-34,-193c0,0,-34,-88,-98,-134c0,0,-65,-45,-144,-45c0,0,-57,0,-107,25c0,0,-37,19,-78,66V-188c0,0,0,-53,8,-73c0,0,9,-19,27,-28c0,0,18,-9,70,-9v-28Z" 
id="f5_2c"
transform="scale(0.001,-0.001)" />

<path d="M298,-9c0,0,-67,0,-113,36c0,0,-46,37,-58,83c0,0,-8,25,-8,137V624H28v26c0,0,94,66,161,139c0,0,66,73,115,163h25V697H494V624H329V193c0,0,0,-60,5,-78c0,0,6,-17,20,-28c0,0,14,-11,26,-11c0,0,48,0,92,75l22,-17C494,134,434,-9,298,-9Z" 
id="f5_2g"
transform="scale(0.001,-0.001)" />

<path d="M458,424c0,0,0,120,-13,165c0,0,-13,44,-40,67c0,0,-16,14,-42,14c0,0,-39,0,-63,-38c0,0,-44,-66,-44,-182V424ZM358,-20c0,0,-155,0,-235,119c0,0,-64,96,-64,239c0,0,0,174,94,277c0,0,94,104,221,104c0,0,106,0,184,-87c0,0,78,-87,84,-257H259c0,0,7,-139,74,-220c0,0,51,-62,124,-62c0,0,45,0,81,25c0,0,37,25,79,90l25,-16C642,192,585,76,517,28c0,0,-69,-48,-159,-48Z" 
id="f5_21"
transform="scale(0.001,-0.001)" />

<path d="M57,0V26c0,0,45,4,61,25c0,0,16,22,16,113V550c0,0,0,59,-6,76c0,0,-7,21,-22,30c0,0,-14,10,-49,14v27H342l1,-158c0,0,69,109,121,144c0,0,52,36,100,36c0,0,42,0,66,-26c0,0,25,-26,25,-73c0,0,0,-50,-24,-77c0,0,-25,-28,-59,-28c0,0,-39,0,-68,25c0,0,-28,26,-33,29c0,0,-8,4,-17,4c0,0,-22,0,-41,-16c0,0,-31,-26,-46,-73c0,0,-24,-72,-24,-159V122c0,0,0,-42,5,-54c0,0,9,-21,27,-30c0,0,17,-9,59,-12V0Z" 
id="f5_2e"
transform="scale(0.001,-0.001)" />

<path d="M114,0V27h27c0,0,65,0,93,15c0,0,27,15,37,41c0,0,10,27,10,122V729c0,0,0,71,-7,89c0,0,-7,17,-25,30c0,0,-18,12,-42,12c0,0,-38,0,-93,-24l-13,26l372,171h25V205c0,0,0,-93,8,-119c0,0,8,-26,34,-42c0,0,27,-17,84,-17h23V0Z" 
id="f5_l"
transform="scale(0.001,-0.001)" />

<path d="M254,-20c0,0,-128,0,-187,41C67,21,24,51,24,98c0,0,0,34,25,59c0,0,25,24,57,24c0,0,25,0,46,-11c0,0,12,-6,85,-65c0,0,73,-59,136,-59c0,0,56,0,95,44c0,0,40,43,40,110c0,0,0,102,-72,189c0,0,-72,86,-210,118v27c0,0,85,24,118,46c0,0,33,21,57,64c0,0,24,44,24,89c0,0,0,61,-46,106c0,0,-45,44,-112,44c0,0,-105,0,-178,-110l-27,9c0,0,53,125,137,188c0,0,84,63,187,63c0,0,105,0,174,-65c0,0,68,-64,68,-150c0,0,0,-56,-32,-107c0,0,-32,-52,-100,-92c0,0,88,-42,134,-105c0,0,46,-62,46,-156c0,0,0,-158,-115,-269C561,89,447,-20,254,-20Z" 
id="f5_n"
transform="scale(0.001,-0.001)" />


</defs>
</svg>