<?xml version="1.0" encoding="UTF-8" standalone="no"?>
<!DOCTYPE svg PUBLIC "-//W3C//DTD SVG 1.1//EN"
"http://www.w3.org/Graphics/SVG/1.1/DTD/svg11.dtd">
<svg viewBox="0 0 909 1286" version="1.1" xmlns="http://www.w3.org/2000/svg" xmlns:xlink="http://www.w3.org/1999/xlink">
<defs>
<style type="text/css"><![CDATA[
.g0_41{
fill: #FFFFFF;
}
.g1_41{
fill: #1F3331;
}
]]></style>
</defs>
<path fill-rule="evenodd" d="M52.8,79.6H857.2V55H52.8V79.6Z" class="g0_41" />
<g fill="#1F3331" >
<use xlink:href="#f0_1g" transform="matrix(12,0,0,12,55,72.3)" />
<use xlink:href="#f0_1x" transform="matrix(12,0,0,12,66,72.3)" />
<use xlink:href="#f0_2e" transform="matrix(12,0,0,12,75.6,72.3)" />
<use xlink:href="#f0_2g" transform="matrix(12,0,0,12,83.3,72.3)" />
<use xlink:href="#f0_24" transform="matrix(12,0,0,12,89.5,72.3)" />
<use xlink:href="#f0_21" transform="matrix(12,0,0,12,99.7,72.3)" />
<use xlink:href="#f0_2a" transform="matrix(12,0,0,12,107.8,72.3)" />
<use xlink:href="#f0_2b" transform="matrix(12,0,0,12,118,72.3)" />
<use xlink:href="#f0_1z" transform="matrix(12,0,0,12,127.2,72.3)" />
<use xlink:href="#f0_1x" transform="matrix(12,0,0,12,135.3,72.3)" />
<use xlink:href="#f0_2e" transform="matrix(12,0,0,12,144.8,72.3)" />
<use xlink:href="#f0_2c" transform="matrix(12,0,0,12,152.5,72.3)" />
<use xlink:href="#f0_2l" transform="matrix(12,0,0,12,162.7,72.3)" />
<use xlink:href="#f0_u" transform="matrix(12,0,0,12,171.9,72.3)" />
<use xlink:href="#f1_c" transform="matrix(12,0,0,12,183,72.3)" />
<use xlink:href="#f1_17" transform="matrix(12,0,0,12,189.3,72.3)" />
<use xlink:href="#f1_27" transform="matrix(12,0,0,12,202.5,72.3)" />
<use xlink:href="#f1_i" transform="matrix(12,0,0,12,211.7,72.3)" />
<use xlink:href="#f1_1g" transform="matrix(12,0,0,12,220.8,72.3)" />
<use xlink:href="#f1_1x" transform="matrix(12,0,0,12,231,72.3)" />
<use xlink:href="#f1_2e" transform="matrix(12,0,0,12,239.1,72.3)" />
<use xlink:href="#f1_2g" transform="matrix(12,0,0,12,245,72.3)" />
<use xlink:href="#f1_24" transform="matrix(12,0,0,12,250.4,72.3)" />
<use xlink:href="#f1_21" transform="matrix(12,0,0,12,259.2,72.3)" />
<use xlink:href="#f1_2a" transform="matrix(12,0,0,12,267.3,72.3)" />
<use xlink:href="#f1_2b" transform="matrix(12,0,0,12,276.1,72.3)" />
<use xlink:href="#f1_2f" transform="matrix(12,0,0,12,285.6,72.3)" />
<use xlink:href="#f2_4y" transform="matrix(12,0,0,12,297.5,72.3)" />
<use xlink:href="#f1_2i" transform="matrix(12,0,0,12,311.4,72.3)" />
<use xlink:href="#f1_25" transform="matrix(12,0,0,12,320.6,72.3)" />
<use xlink:href="#f1_2e" transform="matrix(12,0,0,12,325,72.3)" />
<use xlink:href="#f1_23" transform="matrix(12,0,0,12,331.2,72.3)" />
<use xlink:href="#f1_25" transform="matrix(12,0,0,12,340.7,72.3)" />
<use xlink:href="#f1_2a" transform="matrix(12,0,0,12,345.5,72.3)" />
<use xlink:href="#f1_g" transform="matrix(12,0,0,12,354.3,72.3)" />
<use xlink:href="#f1_27" transform="matrix(12,0,0,12,363.8,72.3)" />
<use xlink:href="#f1_1x" transform="matrix(12,0,0,12,373,72.3)" />
<use xlink:href="#f1_2e" transform="matrix(12,0,0,12,381,72.3)" />
<use xlink:href="#f1_2c" transform="matrix(12,0,0,12,387.3,72.3)" />
<use xlink:href="#f1_2b" transform="matrix(12,0,0,12,396.4,72.3)" />
<use xlink:href="#f1_2f" transform="matrix(12,0,0,12,405.9,72.3)" />
<use xlink:href="#f2_4y" transform="matrix(12,0,0,12,417.8,72.3)" />
<use xlink:href="#f1_22" transform="matrix(12,0,0,12,431.8,72.3)" />
<use xlink:href="#f1_2e" transform="matrix(12,0,0,12,437.3,72.3)" />
<use xlink:href="#f1_2h" transform="matrix(12,0,0,12,443.5,72.3)" />
<use xlink:href="#f1_25" transform="matrix(12,0,0,12,453,72.3)" />
<use xlink:href="#f1_2g" transform="matrix(12,0,0,12,457.4,72.3)" />
<use xlink:href="#f1_d" transform="matrix(12,0,0,12,462.9,72.3)" />
</g>
<path fill-rule="evenodd" d="M55,75.9H178.3V74.1H55v1.8Z" class="g1_41" />
<path fill-rule="evenodd" d="M80.3,121.8H857.2V100.5H80.3v21.3Z" class="g0_41" />
<g fill="#1F3331" >
<use xlink:href="#f3_3d" transform="matrix(10.1,0,0,10.1,82.5,117.7)" />
<use xlink:href="#f1_19" transform="matrix(12,0,0,12,110,117.7)" />
<use xlink:href="#f1_2g" transform="matrix(12,0,0,12,116.3,117.7)" />
<use xlink:href="#f1_25" transform="matrix(12,0,0,12,126.1,117.7)" />
<use xlink:href="#f1_2f" transform="matrix(12,0,0,12,130.5,117.7)" />
<use xlink:href="#f1_2g" transform="matrix(12,0,0,12,142.3,117.7)" />
<use xlink:href="#f1_24" transform="matrix(12,0,0,12,147.8,117.7)" />
<use xlink:href="#f1_21" transform="matrix(12,0,0,12,156.6,117.7)" />
<use xlink:href="#f1_2c" transform="matrix(12,0,0,12,169.4,117.7)" />
<use xlink:href="#f1_2e" transform="matrix(12,0,0,12,178.6,117.7)" />
<use xlink:href="#f1_2b" transform="matrix(12,0,0,12,184.8,117.7)" />
<use xlink:href="#f1_1z" transform="matrix(12,0,0,12,194.3,117.7)" />
<use xlink:href="#f1_21" transform="matrix(12,0,0,12,202.4,117.7)" />
<use xlink:href="#f1_2f" transform="matrix(12,0,0,12,210.5,117.7)" />
<use xlink:href="#f1_2f" transform="matrix(12,0,0,12,217.4,117.7)" />
<use xlink:href="#f1_2b" transform="matrix(12,0,0,12,229.1,117.7)" />
<use xlink:href="#f1_22" transform="matrix(12,0,0,12,238.7,117.7)" />
<use xlink:href="#f0_22" transform="matrix(12,0,0,12,249.1,117.7)" />
<use xlink:href="#f0_2b" transform="matrix(12,0,0,12,254.9,117.7)" />
<use xlink:href="#f0_2e" transform="matrix(12,0,0,12,264.5,117.7)" />
<use xlink:href="#f0_29" transform="matrix(12,0,0,12,272.2,117.7)" />
<use xlink:href="#f0_1x" transform="matrix(12,0,0,12,287.2,117.7)" />
<use xlink:href="#f0_2g" transform="matrix(12,0,0,12,296.4,117.7)" />
<use xlink:href="#f0_25" transform="matrix(12,0,0,12,302.6,117.7)" />
<use xlink:href="#f0_2b" transform="matrix(12,0,0,12,307.7,117.7)" />
<use xlink:href="#f0_2a" transform="matrix(12,0,0,12,316.8,117.7)" />
<use xlink:href="#f0_2b" transform="matrix(12,0,0,12,331.9,117.7)" />
<use xlink:href="#f0_22" transform="matrix(12,0,0,12,341,117.7)" />
<use xlink:href="#f0_22" transform="matrix(12,0,0,12,351.6,117.7)" />
<use xlink:href="#f0_2e" transform="matrix(12,0,0,12,357.9,117.7)" />
<use xlink:href="#f0_2h" transform="matrix(12,0,0,12,365.6,117.7)" />
<use xlink:href="#f0_25" transform="matrix(12,0,0,12,375.8,117.7)" />
<use xlink:href="#f0_2g" transform="matrix(12,0,0,12,380.9,117.7)" />
<use xlink:href="#f0_2j" transform="matrix(12,0,0,12,391.9,117.7)" />
<use xlink:href="#f0_25" transform="matrix(12,0,0,12,405.1,117.7)" />
<use xlink:href="#f0_2g" transform="matrix(12,0,0,12,410.2,117.7)" />
<use xlink:href="#f0_24" transform="matrix(12,0,0,12,416.5,117.7)" />
<use xlink:href="#f0_2b" transform="matrix(12,0,0,12,426.7,117.7)" />
<use xlink:href="#f0_2h" transform="matrix(12,0,0,12,435.9,117.7)" />
<use xlink:href="#f0_2g" transform="matrix(12,0,0,12,446.1,117.7)" />
<use xlink:href="#f0_1x" transform="matrix(12,0,0,12,457.4,117.7)" />
<use xlink:href="#f0_2a" transform="matrix(12,0,0,12,466.2,117.7)" />
<use xlink:href="#f0_21" transform="matrix(12,0,0,12,480.9,117.7)" />
<use xlink:href="#f0_2i" transform="matrix(12,0,0,12,488.9,117.7)" />
<use xlink:href="#f0_21" transform="matrix(12,0,0,12,498.1,117.7)" />
<use xlink:href="#f0_2a" transform="matrix(12,0,0,12,506.2,117.7)" />
<use xlink:href="#f0_2g" transform="matrix(12,0,0,12,516.4,117.7)" />
<use xlink:href="#f0_2b" transform="matrix(12,0,0,12,527.4,117.7)" />
<use xlink:href="#f0_22" transform="matrix(12,0,0,12,536.5,117.7)" />
<use xlink:href="#f0_22" transform="matrix(12,0,0,12,547.3,117.7)" />
<use xlink:href="#f0_21" transform="matrix(12,0,0,12,553.1,117.7)" />
<use xlink:href="#f0_2e" transform="matrix(12,0,0,12,561.2,117.7)" />
<use xlink:href="#f0_2g" transform="matrix(12,0,0,12,568.9,117.7)" />
<use xlink:href="#f0_25" transform="matrix(12,0,0,12,575.1,117.7)" />
<use xlink:href="#f0_28" transform="matrix(12,0,0,12,580.6,117.7)" />
<use xlink:href="#f0_25" transform="matrix(12,0,0,12,585.4,117.7)" />
<use xlink:href="#f0_2m" transform="matrix(12,0,0,12,590.9,117.7)" />
<use xlink:href="#f0_1x" transform="matrix(12,0,0,12,598.6,117.7)" />
<use xlink:href="#f0_2g" transform="matrix(12,0,0,12,607.7,117.7)" />
<use xlink:href="#f0_25" transform="matrix(12,0,0,12,613.9,117.7)" />
<use xlink:href="#f0_2b" transform="matrix(12,0,0,12,619,117.7)" />
<use xlink:href="#f0_2a" transform="matrix(12,0,0,12,628.2,117.7)" />
<use xlink:href="#f1_i" transform="matrix(12,0,0,12,638.6,117.7)" />
</g>
<path fill-rule="evenodd" d="M80.3,142.7H857.2V121.8H80.3v20.9Z" class="g0_41" />
<g fill="#1F3331" >
<use xlink:href="#f3_3d" transform="matrix(10.1,0,0,10.1,82.5,138.6)" />
<use xlink:href="#f1_1g" transform="matrix(12,0,0,12,110,138.6)" />
<use xlink:href="#f1_1x" transform="matrix(12,0,0,12,120.3,138.6)" />
<use xlink:href="#f1_2e" transform="matrix(12,0,0,12,128.4,138.6)" />
<use xlink:href="#f1_2g" transform="matrix(12,0,0,12,134.6,138.6)" />
<use xlink:href="#f1_24" transform="matrix(12,0,0,12,140,138.6)" />
<use xlink:href="#f1_21" transform="matrix(12,0,0,12,148.8,138.6)" />
<use xlink:href="#f1_2a" transform="matrix(12,0,0,12,156.9,138.6)" />
<use xlink:href="#f1_2b" transform="matrix(12,0,0,12,165.7,138.6)" />
<use xlink:href="#f1_1z" transform="matrix(12,0,0,12,175.2,138.6)" />
<use xlink:href="#f1_1x" transform="matrix(12,0,0,12,183.3,138.6)" />
<use xlink:href="#f1_2e" transform="matrix(12,0,0,12,191.4,138.6)" />
<use xlink:href="#f1_2c" transform="matrix(12,0,0,12,197.6,138.6)" />
<use xlink:href="#f1_25" transform="matrix(12,0,0,12,207.1,138.6)" />
<use xlink:href="#f1_1z" transform="matrix(12,0,0,12,211.5,138.6)" />
<use xlink:href="#f1_22" transform="matrix(12,0,0,12,224.7,138.6)" />
<use xlink:href="#f1_2e" transform="matrix(12,0,0,12,230.2,138.6)" />
<use xlink:href="#f1_2h" transform="matrix(12,0,0,12,236.4,138.6)" />
<use xlink:href="#f1_25" transform="matrix(12,0,0,12,245.9,138.6)" />
<use xlink:href="#f1_2g" transform="matrix(12,0,0,12,250.3,138.6)" />
<use xlink:href="#f1_2f" transform="matrix(12,0,0,12,255.8,138.6)" />
<use xlink:href="#f1_1x" transform="matrix(12,0,0,12,267.5,138.6)" />
<use xlink:href="#f1_2e" transform="matrix(12,0,0,12,275.6,138.6)" />
<use xlink:href="#f1_21" transform="matrix(12,0,0,12,281.8,138.6)" />
<use xlink:href="#f0_2f" transform="matrix(12,0,0,12,294.9,138.6)" />
<use xlink:href="#f0_21" transform="matrix(12,0,0,12,301.9,138.6)" />
<use xlink:href="#f0_21" transform="matrix(12,0,0,12,309.9,138.6)" />
<use xlink:href="#f0_20" transform="matrix(12,0,0,12,318,138.6)" />
<use xlink:href="#f0_28" transform="matrix(12,0,0,12,328.3,138.6)" />
<use xlink:href="#f0_21" transform="matrix(12,0,0,12,333.4,138.6)" />
<use xlink:href="#f0_2f" transform="matrix(12,0,0,12,341.5,138.6)" />
<use xlink:href="#f0_2f" transform="matrix(12,0,0,12,348.4,138.6)" />
<use xlink:href="#f1_21" transform="matrix(12,0,0,12,360.2,138.6)" />
<use xlink:href="#f1_i" transform="matrix(12,0,0,12,368.3,138.6)" />
<use xlink:href="#f1_23" transform="matrix(12,0,0,12,373,138.6)" />
<use xlink:href="#f1_i" transform="matrix(12,0,0,12,382.2,138.6)" />
<use xlink:href="#f1_1x" transform="matrix(12,0,0,12,391.7,138.6)" />
<use xlink:href="#f1_2c" transform="matrix(12,0,0,12,399.8,138.6)" />
<use xlink:href="#f1_2c" transform="matrix(12,0,0,12,408.9,138.6)" />
<use xlink:href="#f1_28" transform="matrix(12,0,0,12,418.4,138.6)" />
<use xlink:href="#f1_21" transform="matrix(12,0,0,12,422.8,138.6)" />
<use xlink:href="#f1_g" transform="matrix(12,0,0,12,430.9,138.6)" />
<use xlink:href="#f1_2c" transform="matrix(12,0,0,12,440.4,138.6)" />
<use xlink:href="#f1_21" transform="matrix(12,0,0,12,449.6,138.6)" />
<use xlink:href="#f1_1x" transform="matrix(12,0,0,12,457.6,138.6)" />
<use xlink:href="#f1_2e" transform="matrix(12,0,0,12,465.7,138.6)" />
<use xlink:href="#f1_g" transform="matrix(12,0,0,12,471.9,138.6)" />
<use xlink:href="#f1_1y" transform="matrix(12,0,0,12,481.1,138.6)" />
<use xlink:href="#f1_1x" transform="matrix(12,0,0,12,489.9,138.6)" />
<use xlink:href="#f1_2a" transform="matrix(12,0,0,12,498.3,138.6)" />
<use xlink:href="#f1_1x" transform="matrix(12,0,0,12,507.1,138.6)" />
<use xlink:href="#f1_2a" transform="matrix(12,0,0,12,515.5,138.6)" />
<use xlink:href="#f1_1x" transform="matrix(12,0,0,12,524.7,138.6)" />
<use xlink:href="#f1_g" transform="matrix(12,0,0,12,532.7,138.6)" />
<use xlink:href="#f1_2c" transform="matrix(12,0,0,12,542.2,138.6)" />
<use xlink:href="#f1_25" transform="matrix(12,0,0,12,551.4,138.6)" />
<use xlink:href="#f1_2a" transform="matrix(12,0,0,12,556.2,138.6)" />
<use xlink:href="#f1_21" transform="matrix(12,0,0,12,565.3,138.6)" />
<use xlink:href="#f1_1x" transform="matrix(12,0,0,12,573.4,138.6)" />
<use xlink:href="#f1_2c" transform="matrix(12,0,0,12,581.5,138.6)" />
<use xlink:href="#f1_2c" transform="matrix(12,0,0,12,590.6,138.6)" />
<use xlink:href="#f1_28" transform="matrix(12,0,0,12,600.1,138.6)" />
<use xlink:href="#f1_21" transform="matrix(12,0,0,12,604.9,138.6)" />
<use xlink:href="#f1_21" transform="matrix(12,0,0,12,617.7,138.6)" />
<use xlink:href="#f1_2g" transform="matrix(12,0,0,12,625.8,138.6)" />
<use xlink:href="#f1_1z" transform="matrix(12,0,0,12,631.3,138.6)" />
</g>
<path fill-rule="evenodd" d="M80.3,163.9H857.2V142.7H80.3v21.2Z" class="g0_41" />
<g fill="#1F3331" >
<use xlink:href="#f3_3d" transform="matrix(10.1,0,0,10.1,82.5,159.5)" />
<use xlink:href="#f1_16" transform="matrix(12,0,0,12,110,159.5)" />
<use xlink:href="#f1_2e" transform="matrix(12,0,0,12,119.9,159.5)" />
<use xlink:href="#f1_2h" transform="matrix(12,0,0,12,126.2,159.5)" />
<use xlink:href="#f1_25" transform="matrix(12,0,0,12,135.7,159.5)" />
<use xlink:href="#f1_2g" transform="matrix(12,0,0,12,140.1,159.5)" />
<use xlink:href="#f1_2f" transform="matrix(12,0,0,12,145.6,159.5)" />
<use xlink:href="#f1_2g" transform="matrix(12,0,0,12,157.4,159.5)" />
<use xlink:href="#f1_24" transform="matrix(12,0,0,12,162.9,159.5)" />
<use xlink:href="#f1_1x" transform="matrix(12,0,0,12,171.7,159.5)" />
<use xlink:href="#f1_2g" transform="matrix(12,0,0,12,179.7,159.5)" />
<use xlink:href="#f1_24" transform="matrix(12,0,0,12,190,159.5)" />
<use xlink:href="#f1_1x" transform="matrix(12,0,0,12,198.8,159.5)" />
<use xlink:href="#f1_2i" transform="matrix(12,0,0,12,206.8,159.5)" />
<use xlink:href="#f1_21" transform="matrix(12,0,0,12,215.6,159.5)" />
<use xlink:href="#f1_2f" transform="matrix(12,0,0,12,228.4,159.5)" />
<use xlink:href="#f1_21" transform="matrix(12,0,0,12,235.4,159.5)" />
<use xlink:href="#f1_21" transform="matrix(12,0,0,12,243.5,159.5)" />
<use xlink:href="#f1_20" transform="matrix(12,0,0,12,251.5,159.5)" />
<use xlink:href="#f1_2f" transform="matrix(12,0,0,12,261.1,159.5)" />
<use xlink:href="#f1_2j" transform="matrix(12,0,0,12,272.9,159.5)" />
<use xlink:href="#f1_25" transform="matrix(12,0,0,12,286.5,159.5)" />
<use xlink:href="#f1_2g" transform="matrix(12,0,0,12,290.9,159.5)" />
<use xlink:href="#f1_24" transform="matrix(12,0,0,12,296.3,159.5)" />
<use xlink:href="#f1_1x" transform="matrix(12,0,0,12,309.9,159.5)" />
<use xlink:href="#f1_2a" transform="matrix(12,0,0,12,318.3,159.5)" />
<use xlink:href="#f1_1x" transform="matrix(12,0,0,12,331.8,159.5)" />
<use xlink:href="#f1_2f" transform="matrix(12,0,0,12,339.9,159.5)" />
<use xlink:href="#f1_21" transform="matrix(12,0,0,12,346.9,159.5)" />
<use xlink:href="#f1_2k" transform="matrix(12,0,0,12,355.3,159.5)" />
<use xlink:href="#f1_2h" transform="matrix(12,0,0,12,364.1,159.5)" />
<use xlink:href="#f1_1x" transform="matrix(12,0,0,12,373.3,159.5)" />
<use xlink:href="#f1_28" transform="matrix(12,0,0,12,381.7,159.5)" />
<use xlink:href="#f1_21" transform="matrix(12,0,0,12,391.2,159.5)" />
<use xlink:href="#f1_29" transform="matrix(12,0,0,12,399.6,159.5)" />
<use xlink:href="#f1_1y" transform="matrix(12,0,0,12,413.5,159.5)" />
<use xlink:href="#f1_2e" transform="matrix(12,0,0,12,422.3,159.5)" />
<use xlink:href="#f1_2l" transform="matrix(12,0,0,12,428.9,159.5)" />
<use xlink:href="#f1_2b" transform="matrix(12,0,0,12,437.4,159.5)" />
<use xlink:href="#f1_2b" transform="matrix(12,0,0,12,451.9,159.5)" />
<use xlink:href="#f1_2e" transform="matrix(12,0,0,12,461.5,159.5)" />
<use xlink:href="#f0_2c" transform="matrix(12,0,0,12,472.5,159.5)" />
<use xlink:href="#f0_2f" transform="matrix(12,0,0,12,482.4,159.5)" />
<use xlink:href="#f0_21" transform="matrix(12,0,0,12,489.3,159.5)" />
<use xlink:href="#f0_2h" transform="matrix(12,0,0,12,497.4,159.5)" />
<use xlink:href="#f0_20" transform="matrix(12,0,0,12,507.6,159.5)" />
<use xlink:href="#f0_2b" transform="matrix(12,0,0,12,517.9,159.5)" />
<use xlink:href="#f0_2f" transform="matrix(12,0,0,12,527,159.5)" />
<use xlink:href="#f0_21" transform="matrix(12,0,0,12,534,159.5)" />
<use xlink:href="#f0_21" transform="matrix(12,0,0,12,542.1,159.5)" />
<use xlink:href="#f0_20" transform="matrix(12,0,0,12,550.1,159.5)" />
<use xlink:href="#f0_2f" transform="matrix(12,0,0,12,560.4,159.5)" />
<use xlink:href="#f1_1x" transform="matrix(12,0,0,12,572.2,159.5)" />
<use xlink:href="#f1_2e" transform="matrix(12,0,0,12,580.3,159.5)" />
<use xlink:href="#f1_21" transform="matrix(12,0,0,12,586.5,159.5)" />
<use xlink:href="#f1_1x" transform="matrix(12,0,0,12,599.3,159.5)" />
<use xlink:href="#f1_28" transform="matrix(12,0,0,12,607.7,159.5)" />
<use xlink:href="#f1_2f" transform="matrix(12,0,0,12,612.5,159.5)" />
<use xlink:href="#f1_2b" transform="matrix(12,0,0,12,619.5,159.5)" />
<use xlink:href="#f1_2c" transform="matrix(12,0,0,12,633.7,159.5)" />
<use xlink:href="#f1_1x" transform="matrix(12,0,0,12,642.9,159.5)" />
<use xlink:href="#f1_2e" transform="matrix(12,0,0,12,651,159.5)" />
<use xlink:href="#f1_2g" transform="matrix(12,0,0,12,656.8,159.5)" />
<use xlink:href="#f1_24" transform="matrix(12,0,0,12,662.3,159.5)" />
<use xlink:href="#f1_21" transform="matrix(12,0,0,12,671.1,159.5)" />
<use xlink:href="#f1_2a" transform="matrix(12,0,0,12,679.2,159.5)" />
<use xlink:href="#f1_2b" transform="matrix(12,0,0,12,688,159.5)" />
<use xlink:href="#f1_1z" transform="matrix(12,0,0,12,697.5,159.5)" />
<use xlink:href="#f1_1x" transform="matrix(12,0,0,12,705.6,159.5)" />
<use xlink:href="#f1_2e" transform="matrix(12,0,0,12,713.6,159.5)" />
<use xlink:href="#f1_2c" transform="matrix(12,0,0,12,719.8,159.5)" />
<use xlink:href="#f1_25" transform="matrix(12,0,0,12,729.3,159.5)" />
<use xlink:href="#f1_1z" transform="matrix(12,0,0,12,733.7,159.5)" />
<use xlink:href="#f1_22" transform="matrix(12,0,0,12,746.9,159.5)" />
<use xlink:href="#f1_2e" transform="matrix(12,0,0,12,752.4,159.5)" />
<use xlink:href="#f1_2h" transform="matrix(12,0,0,12,758.6,159.5)" />
<use xlink:href="#f1_25" transform="matrix(12,0,0,12,768.2,159.5)" />
<use xlink:href="#f1_2g" transform="matrix(12,0,0,12,772.6,159.5)" />
<use xlink:href="#f1_i" transform="matrix(12,0,0,12,778.4,159.5)" />
</g>
<path fill-rule="evenodd" d="M80.3,185.2H857.2V163.9H80.3v21.3Z" class="g0_41" />
<g fill="#1F3331" >
<use xlink:href="#f3_3d" transform="matrix(10.1,0,0,10.1,82.5,181.2)" />
<use xlink:href="#f1_1g" transform="matrix(12,0,0,12,110,181.2)" />
<use xlink:href="#f1_1x" transform="matrix(12,0,0,12,120.3,181.2)" />
<use xlink:href="#f1_2e" transform="matrix(12,0,0,12,128.4,181.2)" />
<use xlink:href="#f1_2g" transform="matrix(12,0,0,12,134.6,181.2)" />
<use xlink:href="#f1_24" transform="matrix(12,0,0,12,140,181.2)" />
<use xlink:href="#f1_21" transform="matrix(12,0,0,12,148.8,181.2)" />
<use xlink:href="#f1_2a" transform="matrix(12,0,0,12,156.9,181.2)" />
<use xlink:href="#f1_2b" transform="matrix(12,0,0,12,165.7,181.2)" />
<use xlink:href="#f1_1z" transform="matrix(12,0,0,12,175.2,181.2)" />
<use xlink:href="#f1_1x" transform="matrix(12,0,0,12,183.3,181.2)" />
<use xlink:href="#f1_2e" transform="matrix(12,0,0,12,191.4,181.2)" />
<use xlink:href="#f1_2c" transform="matrix(12,0,0,12,197.6,181.2)" />
<use xlink:href="#f1_2l" transform="matrix(12,0,0,12,207.1,181.2)" />
<use xlink:href="#f1_25" transform="matrix(12,0,0,12,220.6,181.2)" />
<use xlink:href="#f1_2f" transform="matrix(12,0,0,12,225.4,181.2)" />
<use xlink:href="#f1_2b" transform="matrix(12,0,0,12,237.1,181.2)" />
<use xlink:href="#f1_22" transform="matrix(12,0,0,12,246.6,181.2)" />
<use xlink:href="#f1_2g" transform="matrix(12,0,0,12,256.9,181.2)" />
<use xlink:href="#f1_24" transform="matrix(12,0,0,12,262.4,181.2)" />
<use xlink:href="#f1_2e" transform="matrix(12,0,0,12,271.2,181.2)" />
<use xlink:href="#f1_21" transform="matrix(12,0,0,12,277.4,181.2)" />
<use xlink:href="#f1_21" transform="matrix(12,0,0,12,285.4,181.2)" />
<use xlink:href="#f1_2g" transform="matrix(12,0,0,12,298.3,181.2)" />
<use xlink:href="#f1_2l" transform="matrix(12,0,0,12,303.7,181.2)" />
<use xlink:href="#f1_2c" transform="matrix(12,0,0,12,312.2,181.2)" />
<use xlink:href="#f1_21" transform="matrix(12,0,0,12,321.3,181.2)" />
<use xlink:href="#f1_2f" transform="matrix(12,0,0,12,329.4,181.2)" />
<use xlink:href="#f1_u" transform="matrix(12,0,0,12,336.4,181.2)" />
<use xlink:href="#f1_23" transform="matrix(12,0,0,12,346.3,181.2)" />
<use xlink:href="#f1_21" transform="matrix(12,0,0,12,355.4,181.2)" />
<use xlink:href="#f1_2a" transform="matrix(12,0,0,12,363.8,181.2)" />
<use xlink:href="#f1_21" transform="matrix(12,0,0,12,372.6,181.2)" />
<use xlink:href="#f1_2g" transform="matrix(12,0,0,12,380.7,181.2)" />
<use xlink:href="#f1_25" transform="matrix(12,0,0,12,386.6,181.2)" />
<use xlink:href="#f1_1z" transform="matrix(12,0,0,12,391,181.2)" />
<use xlink:href="#f1_g" transform="matrix(12,0,0,12,399,181.2)" />
<use xlink:href="#f1_21" transform="matrix(12,0,0,12,408.5,181.2)" />
<use xlink:href="#f1_2a" transform="matrix(12,0,0,12,416.6,181.2)" />
<use xlink:href="#f1_2i" transform="matrix(12,0,0,12,425.8,181.2)" />
<use xlink:href="#f1_25" transform="matrix(12,0,0,12,434.9,181.2)" />
<use xlink:href="#f1_2e" transform="matrix(12,0,0,12,439.7,181.2)" />
<use xlink:href="#f1_2b" transform="matrix(12,0,0,12,445.9,181.2)" />
<use xlink:href="#f1_2a" transform="matrix(12,0,0,12,455.4,181.2)" />
<use xlink:href="#f1_29" transform="matrix(12,0,0,12,464.6,181.2)" />
<use xlink:href="#f1_21" transform="matrix(12,0,0,12,478.5,181.2)" />
<use xlink:href="#f1_2a" transform="matrix(12,0,0,12,486.6,181.2)" />
<use xlink:href="#f1_2g" transform="matrix(12,0,0,12,495.4,181.2)" />
<use xlink:href="#f1_1x" transform="matrix(12,0,0,12,500.9,181.2)" />
<use xlink:href="#f1_28" transform="matrix(12,0,0,12,509.3,181.2)" />
<use xlink:href="#f1_1x" transform="matrix(12,0,0,12,518.4,181.2)" />
<use xlink:href="#f1_2a" transform="matrix(12,0,0,12,526.8,181.2)" />
<use xlink:href="#f1_20" transform="matrix(12,0,0,12,535.6,181.2)" />
<use xlink:href="#f1_1z" transform="matrix(12,0,0,12,549.6,181.2)" />
<use xlink:href="#f1_24" transform="matrix(12,0,0,12,558,181.2)" />
<use xlink:href="#f1_21" transform="matrix(12,0,0,12,566.8,181.2)" />
<use xlink:href="#f1_29" transform="matrix(12,0,0,12,575.2,181.2)" />
<use xlink:href="#f1_25" transform="matrix(12,0,0,12,589.1,181.2)" />
<use xlink:href="#f1_1z" transform="matrix(12,0,0,12,593.9,181.2)" />
<use xlink:href="#f1_1x" transform="matrix(12,0,0,12,602.3,181.2)" />
<use xlink:href="#f1_28" transform="matrix(12,0,0,12,610.7,181.2)" />
<use xlink:href="#f1_28" transform="matrix(12,0,0,12,615.8,181.2)" />
<use xlink:href="#f1_2l" transform="matrix(12,0,0,12,621,181.2)" />
<use xlink:href="#f1_25" transform="matrix(12,0,0,12,634.5,181.2)" />
<use xlink:href="#f1_2a" transform="matrix(12,0,0,12,639.3,181.2)" />
<use xlink:href="#f1_20" transform="matrix(12,0,0,12,648.4,181.2)" />
<use xlink:href="#f1_2h" transform="matrix(12,0,0,12,657.6,181.2)" />
<use xlink:href="#f1_1z" transform="matrix(12,0,0,12,666.8,181.2)" />
<use xlink:href="#f1_21" transform="matrix(12,0,0,12,674.9,181.2)" />
<use xlink:href="#f1_20" transform="matrix(12,0,0,12,682.9,181.2)" />
<use xlink:href="#f1_h" transform="matrix(12,0,0,12,692.9,181.2)" />
</g>
<path fill-rule="evenodd" d="M52.8,228.9H857.2V206.5H52.8v22.4Z" class="g0_41" />
<g fill="#1F3331" >
<use xlink:href="#f0_17" transform="matrix(12,0,0,12,59.8,224.8)" />
<use xlink:href="#f0_21" transform="matrix(12,0,0,12,74.1,224.8)" />
<use xlink:href="#f0_2a" transform="matrix(12,0,0,12,82.2,224.8)" />
<use xlink:href="#f0_21" transform="matrix(12,0,0,12,92.4,224.8)" />
<use xlink:href="#f0_2g" transform="matrix(12,0,0,12,100.5,224.8)" />
<use xlink:href="#f0_25" transform="matrix(12,0,0,12,106.7,224.8)" />
<use xlink:href="#f0_1z" transform="matrix(12,0,0,12,111.8,224.8)" />
<use xlink:href="#f0_2c" transform="matrix(12,0,0,12,124.7,224.8)" />
<use xlink:href="#f0_1x" transform="matrix(12,0,0,12,134.9,224.8)" />
<use xlink:href="#f0_2e" transform="matrix(12,0,0,12,144.1,224.8)" />
<use xlink:href="#f0_2g" transform="matrix(12,0,0,12,151.8,224.8)" />
<use xlink:href="#f0_24" transform="matrix(12,0,0,12,158,224.8)" />
<use xlink:href="#f0_21" transform="matrix(12,0,0,12,168.2,224.8)" />
<use xlink:href="#f0_2a" transform="matrix(12,0,0,12,176.3,224.8)" />
<use xlink:href="#f0_2b" transform="matrix(12,0,0,12,186.6,224.8)" />
<use xlink:href="#f0_1z" transform="matrix(12,0,0,12,195.7,224.8)" />
<use xlink:href="#f0_1x" transform="matrix(12,0,0,12,203.8,224.8)" />
<use xlink:href="#f0_2e" transform="matrix(12,0,0,12,213,224.8)" />
<use xlink:href="#f0_2c" transform="matrix(12,0,0,12,220.7,224.8)" />
<use xlink:href="#f0_2l" transform="matrix(12,0,0,12,230.9,224.8)" />
<use xlink:href="#f0_u" transform="matrix(12,0,0,12,240.1,224.8)" />
</g>
<g fill="#1F3331" stroke-width="43.66897964477539" stroke="#1F3331" >
<use xlink:href="#f3_3k" transform="matrix(12,0,0,12,246.5,224.8)" />
</g>
<path fill-rule="evenodd" d="M59.8,228.5h205v-1.8H59.8v1.8Z" class="g1_41" />
<path fill-rule="evenodd" d="M80.3,271.4H857.2V250.1H80.3v21.3Z" class="g0_41" />
<g fill="#1F3331" >
<use xlink:href="#f3_3d" transform="matrix(10.1,0,0,10.1,82.5,267.4)" />
<use xlink:href="#f1_1g" transform="matrix(12,0,0,12,110,267.4)" />
<use xlink:href="#f1_1x" transform="matrix(12,0,0,12,120.3,267.4)" />
<use xlink:href="#f1_2e" transform="matrix(12,0,0,12,128.4,267.4)" />
<use xlink:href="#f1_2g" transform="matrix(12,0,0,12,134.6,267.4)" />
<use xlink:href="#f1_24" transform="matrix(12,0,0,12,140,267.4)" />
<use xlink:href="#f1_21" transform="matrix(12,0,0,12,148.8,267.4)" />
<use xlink:href="#f1_2a" transform="matrix(12,0,0,12,156.9,267.4)" />
<use xlink:href="#f1_2b" transform="matrix(12,0,0,12,165.7,267.4)" />
<use xlink:href="#f1_1z" transform="matrix(12,0,0,12,175.2,267.4)" />
<use xlink:href="#f1_1x" transform="matrix(12,0,0,12,183.3,267.4)" />
<use xlink:href="#f1_2e" transform="matrix(12,0,0,12,191.4,267.4)" />
<use xlink:href="#f1_2c" transform="matrix(12,0,0,12,197.6,267.4)" />
<use xlink:href="#f1_2l" transform="matrix(12,0,0,12,207.1,267.4)" />
<use xlink:href="#f1_25" transform="matrix(12,0,0,12,219.9,267.4)" />
<use xlink:href="#f1_2f" transform="matrix(12,0,0,12,224.7,267.4)" />
<use xlink:href="#f1_20" transform="matrix(12,0,0,12,235.7,267.4)" />
<use xlink:href="#f1_2h" transform="matrix(12,0,0,12,244.9,267.4)" />
<use xlink:href="#f1_21" transform="matrix(12,0,0,12,254,267.4)" />
<use xlink:href="#f1_2g" transform="matrix(12,0,0,12,266.1,267.4)" />
<use xlink:href="#f1_2b" transform="matrix(12,0,0,12,271.2,267.4)" />
<use xlink:href="#f1_23" transform="matrix(12,0,0,12,284.5,267.4)" />
<use xlink:href="#f1_21" transform="matrix(12,0,0,12,293.6,267.4)" />
<use xlink:href="#f1_2a" transform="matrix(12,0,0,12,301.7,267.4)" />
<use xlink:href="#f1_21" transform="matrix(12,0,0,12,310.5,267.4)" />
<use xlink:href="#f1_2g" transform="matrix(12,0,0,12,318.6,267.4)" />
<use xlink:href="#f1_25" transform="matrix(12,0,0,12,324,267.4)" />
<use xlink:href="#f1_1z" transform="matrix(12,0,0,12,328.4,267.4)" />
<use xlink:href="#f1_1x" transform="matrix(12,0,0,12,340.5,267.4)" />
<use xlink:href="#f1_28" transform="matrix(12,0,0,12,349,267.4)" />
<use xlink:href="#f1_2g" transform="matrix(12,0,0,12,353.4,267.4)" />
<use xlink:href="#f1_21" transform="matrix(12,0,0,12,358.8,267.4)" />
<use xlink:href="#f1_2e" transform="matrix(12,0,0,12,366.9,267.4)" />
<use xlink:href="#f1_1x" transform="matrix(12,0,0,12,373.1,267.4)" />
<use xlink:href="#f1_2g" transform="matrix(12,0,0,12,381.2,267.4)" />
<use xlink:href="#f1_25" transform="matrix(12,0,0,12,387,267.4)" />
<use xlink:href="#f1_2b" transform="matrix(12,0,0,12,391.4,267.4)" />
<use xlink:href="#f1_2a" transform="matrix(12,0,0,12,400.9,267.4)" />
<use xlink:href="#f1_1z" transform="matrix(12,0,0,12,413.8,267.4)" />
<use xlink:href="#f1_1x" transform="matrix(12,0,0,12,421.9,267.4)" />
<use xlink:href="#f1_2h" transform="matrix(12,0,0,12,429.9,267.4)" />
<use xlink:href="#f1_2f" transform="matrix(12,0,0,12,439.1,267.4)" />
<use xlink:href="#f1_21" transform="matrix(12,0,0,12,446.1,267.4)" />
<use xlink:href="#f1_20" transform="matrix(12,0,0,12,454.1,267.4)" />
<use xlink:href="#f1_1y" transform="matrix(12,0,0,12,467.7,267.4)" />
<use xlink:href="#f1_2l" transform="matrix(12,0,0,12,476.9,267.4)" />
<use xlink:href="#f1_29" transform="matrix(12,0,0,12,489.7,267.4)" />
<use xlink:href="#f1_2h" transform="matrix(12,0,0,12,503.6,267.4)" />
<use xlink:href="#f1_2g" transform="matrix(12,0,0,12,512.8,267.4)" />
<use xlink:href="#f1_1x" transform="matrix(12,0,0,12,518.3,267.4)" />
<use xlink:href="#f1_2g" transform="matrix(12,0,0,12,526.3,267.4)" />
<use xlink:href="#f1_25" transform="matrix(12,0,0,12,531.8,267.4)" />
<use xlink:href="#f1_2b" transform="matrix(12,0,0,12,536.2,267.4)" />
<use xlink:href="#f1_2a" transform="matrix(12,0,0,12,545.7,267.4)" />
<use xlink:href="#f1_2b" transform="matrix(12,0,0,12,558.6,267.4)" />
<use xlink:href="#f1_2e" transform="matrix(12,0,0,12,568.1,267.4)" />
<use xlink:href="#f1_24" transform="matrix(12,0,0,12,578.3,267.4)" />
<use xlink:href="#f1_2l" transform="matrix(12,0,0,12,587.5,267.4)" />
<use xlink:href="#f1_1y" transform="matrix(12,0,0,12,596.3,267.4)" />
<use xlink:href="#f1_2e" transform="matrix(12,0,0,12,605.1,267.4)" />
<use xlink:href="#f1_25" transform="matrix(12,0,0,12,611.7,267.4)" />
<use xlink:href="#f1_20" transform="matrix(12,0,0,12,616.1,267.4)" />
<use xlink:href="#f1_25" transform="matrix(12,0,0,12,625.6,267.4)" />
<use xlink:href="#f1_2m" transform="matrix(12,0,0,12,630.4,267.4)" />
<use xlink:href="#f1_1x" transform="matrix(12,0,0,12,638.8,267.4)" />
<use xlink:href="#f1_2g" transform="matrix(12,0,0,12,646.8,267.4)" />
<use xlink:href="#f1_25" transform="matrix(12,0,0,12,652.3,267.4)" />
<use xlink:href="#f1_2b" transform="matrix(12,0,0,12,656.7,267.4)" />
<use xlink:href="#f1_2a" transform="matrix(12,0,0,12,666.2,267.4)" />
<use xlink:href="#f1_i" transform="matrix(12,0,0,12,675,267.4)" />
<use xlink:href="#f1_19" transform="matrix(12,0,0,12,683.8,267.4)" />
<use xlink:href="#f1_2g" transform="matrix(12,0,0,12,690,267.4)" />
<use xlink:href="#f1_25" transform="matrix(12,0,0,12,699.2,267.4)" />
<use xlink:href="#f1_2f" transform="matrix(12,0,0,12,704,267.4)" />
<use xlink:href="#f1_1x" transform="matrix(12,0,0,12,715,267.4)" />
<use xlink:href="#f1_28" transform="matrix(12,0,0,12,723.4,267.4)" />
<use xlink:href="#f1_2f" transform="matrix(12,0,0,12,728.1,267.4)" />
<use xlink:href="#f1_2b" transform="matrix(12,0,0,12,735.1,267.4)" />
<use xlink:href="#f1_1z" transform="matrix(12,0,0,12,748.7,267.4)" />
<use xlink:href="#f1_1x" transform="matrix(12,0,0,12,756.7,267.4)" />
<use xlink:href="#f1_28" transform="matrix(12,0,0,12,765.1,267.4)" />
<use xlink:href="#f1_28" transform="matrix(12,0,0,12,769.9,267.4)" />
<use xlink:href="#f1_21" transform="matrix(12,0,0,12,774.7,267.4)" />
<use xlink:href="#f1_20" transform="matrix(12,0,0,12,782.7,267.4)" />
<use xlink:href="#f0_2a" transform="matrix(12,0,0,12,796.7,267.4)" />
<use xlink:href="#f0_1x" transform="matrix(12,0,0,12,807,267.4)" />
<use xlink:href="#f0_2g" transform="matrix(12,0,0,12,816.2,267.4)" />
<use xlink:href="#f0_2h" transform="matrix(12,0,0,12,822.4,267.4)" />
<use xlink:href="#f0_2e" transform="matrix(12,0,0,12,832.6,267.4)" />
<use xlink:href="#f0_1x" transform="matrix(12,0,0,12,840.3,267.4)" />
<use xlink:href="#f0_28" transform="matrix(12,0,0,12,849.8,267.4)" />
</g>
<path fill-rule="evenodd" d="M80.3,292.7H857.2V271.4H80.3v21.3Z" class="g0_41" />
<g fill="#1F3331" >
<use xlink:href="#f0_2c" transform="matrix(12,0,0,12,110,288.6)" />
<use xlink:href="#f0_1x" transform="matrix(12,0,0,12,120.3,288.6)" />
<use xlink:href="#f0_2e" transform="matrix(12,0,0,12,129.5,288.6)" />
<use xlink:href="#f0_2g" transform="matrix(12,0,0,12,137.2,288.6)" />
<use xlink:href="#f0_24" transform="matrix(12,0,0,12,143.4,288.6)" />
<use xlink:href="#f0_21" transform="matrix(12,0,0,12,153.6,288.6)" />
<use xlink:href="#f0_2a" transform="matrix(12,0,0,12,161.7,288.6)" />
<use xlink:href="#f0_2b" transform="matrix(12,0,0,12,171.9,288.6)" />
<use xlink:href="#f0_1z" transform="matrix(12,0,0,12,181.1,288.6)" />
<use xlink:href="#f0_1x" transform="matrix(12,0,0,12,189.2,288.6)" />
<use xlink:href="#f0_2e" transform="matrix(12,0,0,12,198.7,288.6)" />
<use xlink:href="#f0_2c" transform="matrix(12,0,0,12,206.4,288.6)" />
<use xlink:href="#f0_2l" transform="matrix(12,0,0,12,216.6,288.6)" />
<use xlink:href="#f1_i" transform="matrix(12,0,0,12,225.9,288.6)" />
<use xlink:href="#f1_15" transform="matrix(12,0,0,12,235.4,288.6)" />
<use xlink:href="#f1_i" transform="matrix(12,0,0,12,246.8,288.6)" />
<use xlink:href="#f1_23" transform="matrix(12,0,0,12,251.5,288.6)" />
<use xlink:href="#f1_i" transform="matrix(12,0,0,12,260.3,288.6)" />
<use xlink:href="#f1_1y" transform="matrix(12,0,0,12,269.8,288.6)" />
<use xlink:href="#f1_1x" transform="matrix(12,0,0,12,278.6,288.6)" />
<use xlink:href="#f1_2a" transform="matrix(12,0,0,12,286.7,288.6)" />
<use xlink:href="#f1_1x" transform="matrix(12,0,0,12,295.5,288.6)" />
<use xlink:href="#f1_2a" transform="matrix(12,0,0,12,303.9,288.6)" />
<use xlink:href="#f1_1x" transform="matrix(12,0,0,12,312.7,288.6)" />
<use xlink:href="#f1_g" transform="matrix(12,0,0,12,320.8,288.6)" />
<use xlink:href="#f1_1x" transform="matrix(12,0,0,12,330.3,288.6)" />
<use xlink:href="#f1_2c" transform="matrix(12,0,0,12,338.3,288.6)" />
<use xlink:href="#f1_2c" transform="matrix(12,0,0,12,347.5,288.6)" />
<use xlink:href="#f1_28" transform="matrix(12,0,0,12,357,288.6)" />
<use xlink:href="#f1_21" transform="matrix(12,0,0,12,361.4,288.6)" />
<use xlink:href="#f1_g" transform="matrix(12,0,0,12,369.5,288.6)" />
<use xlink:href="#f1_2c" transform="matrix(12,0,0,12,379,288.6)" />
<use xlink:href="#f1_25" transform="matrix(12,0,0,12,388.5,288.6)" />
<use xlink:href="#f1_2a" transform="matrix(12,0,0,12,393.3,288.6)" />
<use xlink:href="#f1_21" transform="matrix(12,0,0,12,402.4,288.6)" />
<use xlink:href="#f1_1x" transform="matrix(12,0,0,12,410.5,288.6)" />
<use xlink:href="#f1_2c" transform="matrix(12,0,0,12,418.6,288.6)" />
<use xlink:href="#f1_2c" transform="matrix(12,0,0,12,427.7,288.6)" />
<use xlink:href="#f1_28" transform="matrix(12,0,0,12,437.3,288.6)" />
<use xlink:href="#f1_21" transform="matrix(12,0,0,12,442,288.6)" />
<use xlink:href="#f1_g" transform="matrix(12,0,0,12,450.1,288.6)" />
<use xlink:href="#f1_2i" transform="matrix(12,0,0,12,459.6,288.6)" />
<use xlink:href="#f1_1x" transform="matrix(12,0,0,12,468.4,288.6)" />
<use xlink:href="#f1_2e" transform="matrix(12,0,0,12,476.4,288.6)" />
<use xlink:href="#f1_25" transform="matrix(12,0,0,12,483,288.6)" />
<use xlink:href="#f1_21" transform="matrix(12,0,0,12,487.8,288.6)" />
<use xlink:href="#f1_2g" transform="matrix(12,0,0,12,495.9,288.6)" />
<use xlink:href="#f1_25" transform="matrix(12,0,0,12,501.7,288.6)" />
<use xlink:href="#f1_21" transform="matrix(12,0,0,12,506.1,288.6)" />
<use xlink:href="#f1_2f" transform="matrix(12,0,0,12,514.5,288.6)" />
<use xlink:href="#f1_2b" transform="matrix(12,0,0,12,526.2,288.6)" />
<use xlink:href="#f1_22" transform="matrix(12,0,0,12,535.8,288.6)" />
<use xlink:href="#f1_23" transform="matrix(12,0,0,12,546,288.6)" />
<use xlink:href="#f1_2e" transform="matrix(12,0,0,12,555.2,288.6)" />
<use xlink:href="#f1_1x" transform="matrix(12,0,0,12,561.4,288.6)" />
<use xlink:href="#f1_2c" transform="matrix(12,0,0,12,569.5,288.6)" />
<use xlink:href="#f1_21" transform="matrix(12,0,0,12,578.6,288.6)" />
<use xlink:href="#f1_2f" transform="matrix(12,0,0,12,586.7,288.6)" />
<use xlink:href="#f1_g" transform="matrix(12,0,0,12,593.7,288.6)" />
<use xlink:href="#f1_2c" transform="matrix(12,0,0,12,603.2,288.6)" />
<use xlink:href="#f1_21" transform="matrix(12,0,0,12,612.3,288.6)" />
<use xlink:href="#f1_1x" transform="matrix(12,0,0,12,620.4,288.6)" />
<use xlink:href="#f1_2e" transform="matrix(12,0,0,12,628.5,288.6)" />
</g>
<path fill-rule="evenodd" d="M52.8,336.3H857.2V313.9H52.8v22.4Z" class="g0_41" />
<g fill="#1F3331" >
<use xlink:href="#f0_15" transform="matrix(12,0,0,12,59.8,332.3)" />
<use xlink:href="#f0_2a" transform="matrix(12,0,0,12,71.9,332.3)" />
<use xlink:href="#f0_2i" transform="matrix(12,0,0,12,82.2,332.3)" />
<use xlink:href="#f0_25" transform="matrix(12,0,0,12,91.3,332.3)" />
<use xlink:href="#f0_2e" transform="matrix(12,0,0,12,96.4,332.3)" />
<use xlink:href="#f0_2b" transform="matrix(12,0,0,12,104.2,332.3)" />
<use xlink:href="#f0_2a" transform="matrix(12,0,0,12,113.3,332.3)" />
<use xlink:href="#f0_29" transform="matrix(12,0,0,12,123.6,332.3)" />
<use xlink:href="#f0_21" transform="matrix(12,0,0,12,138.6,332.3)" />
<use xlink:href="#f0_2a" transform="matrix(12,0,0,12,146.7,332.3)" />
<use xlink:href="#f0_2g" transform="matrix(12,0,0,12,156.9,332.3)" />
<use xlink:href="#f0_1x" transform="matrix(12,0,0,12,163.1,332.3)" />
<use xlink:href="#f0_28" transform="matrix(12,0,0,12,172.6,332.3)" />
<use xlink:href="#f0_2c" transform="matrix(12,0,0,12,182.2,332.3)" />
<use xlink:href="#f0_1x" transform="matrix(12,0,0,12,192.4,332.3)" />
<use xlink:href="#f0_2e" transform="matrix(12,0,0,12,201.6,332.3)" />
<use xlink:href="#f0_2g" transform="matrix(12,0,0,12,209.3,332.3)" />
<use xlink:href="#f0_24" transform="matrix(12,0,0,12,215.5,332.3)" />
<use xlink:href="#f0_21" transform="matrix(12,0,0,12,225.7,332.3)" />
<use xlink:href="#f0_2a" transform="matrix(12,0,0,12,233.8,332.3)" />
<use xlink:href="#f0_2b" transform="matrix(12,0,0,12,244.1,332.3)" />
<use xlink:href="#f0_1z" transform="matrix(12,0,0,12,253.2,332.3)" />
<use xlink:href="#f0_1x" transform="matrix(12,0,0,12,261.3,332.3)" />
<use xlink:href="#f0_2e" transform="matrix(12,0,0,12,270.8,332.3)" />
<use xlink:href="#f0_2c" transform="matrix(12,0,0,12,278.5,332.3)" />
<use xlink:href="#f0_2l" transform="matrix(12,0,0,12,288.8,332.3)" />
<use xlink:href="#f0_u" transform="matrix(12,0,0,12,297.9,332.3)" />
</g>
<g fill="#1F3331" stroke-width="43.66897964477539" stroke="#1F3331" >
<use xlink:href="#f3_3k" transform="matrix(12,0,0,12,304.4,332.3)" />
</g>
<path fill-rule="evenodd" d="M55,335.9H322.8v-1.8H55v1.8Z" class="g1_41" />
<path fill-rule="evenodd" d="M80.3,378.9H857.2V357.6H80.3v21.3Z" class="g0_41" />
<g fill="#1F3331" >
<use xlink:href="#f3_3d" transform="matrix(10.1,0,0,10.1,82.5,374.8)" />
<use xlink:href="#f1_1c" transform="matrix(12,0,0,12,110,374.8)" />
<use xlink:href="#f1_2b" transform="matrix(12,0,0,12,121,374.8)" />
<use xlink:href="#f1_2j" transform="matrix(12,0,0,12,130.6,374.8)" />
<use xlink:href="#f1_2g" transform="matrix(12,0,0,12,148.2,374.8)" />
<use xlink:href="#f1_21" transform="matrix(12,0,0,12,153.6,374.8)" />
<use xlink:href="#f1_29" transform="matrix(12,0,0,12,161.7,374.8)" />
<use xlink:href="#f1_2c" transform="matrix(12,0,0,12,175.3,374.8)" />
<use xlink:href="#f1_21" transform="matrix(12,0,0,12,184.4,374.8)" />
<use xlink:href="#f1_2e" transform="matrix(12,0,0,12,192.5,374.8)" />
<use xlink:href="#f1_1x" transform="matrix(12,0,0,12,198.7,374.8)" />
<use xlink:href="#f1_2g" transform="matrix(12,0,0,12,206.8,374.8)" />
<use xlink:href="#f1_2h" transform="matrix(12,0,0,12,212.3,374.8)" />
<use xlink:href="#f1_2e" transform="matrix(12,0,0,12,221.4,374.8)" />
<use xlink:href="#f1_21" transform="matrix(12,0,0,12,227.6,374.8)" />
<use xlink:href="#f1_g" transform="matrix(12,0,0,12,235.7,374.8)" />
<use xlink:href="#f1_22" transform="matrix(12,0,0,12,244.9,374.8)" />
<use xlink:href="#f1_2e" transform="matrix(12,0,0,12,250.4,374.8)" />
<use xlink:href="#f1_2b" transform="matrix(12,0,0,12,256.6,374.8)" />
<use xlink:href="#f1_2f" transform="matrix(12,0,0,12,266.1,374.8)" />
<use xlink:href="#f1_2g" transform="matrix(12,0,0,12,272.7,374.8)" />
<use xlink:href="#f1_1x" transform="matrix(12,0,0,12,282.6,374.8)" />
<use xlink:href="#f1_2a" transform="matrix(12,0,0,12,290.6,374.8)" />
<use xlink:href="#f1_20" transform="matrix(12,0,0,12,299.4,374.8)" />
<use xlink:href="#f1_22" transform="matrix(12,0,0,12,313.4,374.8)" />
<use xlink:href="#f1_2b" transform="matrix(12,0,0,12,318.9,374.8)" />
<use xlink:href="#f1_23" transform="matrix(12,0,0,12,328.4,374.8)" />
<use xlink:href="#f1_1z" transform="matrix(12,0,0,12,342.3,374.8)" />
<use xlink:href="#f1_1x" transform="matrix(12,0,0,12,350.3,374.8)" />
<use xlink:href="#f1_2a" transform="matrix(12,0,0,12,358.7,374.8)" />
<use xlink:href="#f1_25" transform="matrix(12,0,0,12,372.3,374.8)" />
<use xlink:href="#f1_2a" transform="matrix(12,0,0,12,377.1,374.8)" />
<use xlink:href="#f1_20" transform="matrix(12,0,0,12,386.3,374.8)" />
<use xlink:href="#f1_2h" transform="matrix(12,0,0,12,395.4,374.8)" />
<use xlink:href="#f1_1z" transform="matrix(12,0,0,12,404.6,374.8)" />
<use xlink:href="#f1_21" transform="matrix(12,0,0,12,412.7,374.8)" />
<use xlink:href="#f1_2c" transform="matrix(12,0,0,12,425.1,374.8)" />
<use xlink:href="#f1_1x" transform="matrix(12,0,0,12,434.3,374.8)" />
<use xlink:href="#f1_2e" transform="matrix(12,0,0,12,442.4,374.8)" />
<use xlink:href="#f1_2g" transform="matrix(12,0,0,12,448.6,374.8)" />
<use xlink:href="#f1_24" transform="matrix(12,0,0,12,454,374.8)" />
<use xlink:href="#f1_21" transform="matrix(12,0,0,12,462.8,374.8)" />
<use xlink:href="#f1_2a" transform="matrix(12,0,0,12,471.3,374.8)" />
<use xlink:href="#f1_2b" transform="matrix(12,0,0,12,480.4,374.8)" />
<use xlink:href="#f1_1z" transform="matrix(12,0,0,12,489.9,374.8)" />
<use xlink:href="#f1_1x" transform="matrix(12,0,0,12,498,374.8)" />
<use xlink:href="#f1_2e" transform="matrix(12,0,0,12,506.1,374.8)" />
<use xlink:href="#f1_2c" transform="matrix(12,0,0,12,512.3,374.8)" />
<use xlink:href="#f1_2l" transform="matrix(12,0,0,12,521.5,374.8)" />
<use xlink:href="#f1_25" transform="matrix(12,0,0,12,534.6,374.8)" />
<use xlink:href="#f1_2a" transform="matrix(12,0,0,12,539.4,374.8)" />
<use xlink:href="#f1_1x" transform="matrix(12,0,0,12,553,374.8)" />
<use xlink:href="#f1_2a" transform="matrix(12,0,0,12,565.8,374.8)" />
<use xlink:href="#f1_2h" transform="matrix(12,0,0,12,574.6,374.8)" />
<use xlink:href="#f1_29" transform="matrix(12,0,0,12,584.1,374.8)" />
<use xlink:href="#f1_1y" transform="matrix(12,0,0,12,598,374.8)" />
<use xlink:href="#f1_21" transform="matrix(12,0,0,12,607.2,374.8)" />
<use xlink:href="#f1_2e" transform="matrix(12,0,0,12,615.3,374.8)" />
<use xlink:href="#f1_2b" transform="matrix(12,0,0,12,625.9,374.8)" />
<use xlink:href="#f1_22" transform="matrix(12,0,0,12,635.4,374.8)" />
<use xlink:href="#f1_2c" transform="matrix(12,0,0,12,645.3,374.8)" />
<use xlink:href="#f1_28" transform="matrix(12,0,0,12,654.8,374.8)" />
<use xlink:href="#f1_1x" transform="matrix(12,0,0,12,659.6,374.8)" />
<use xlink:href="#f1_2a" transform="matrix(12,0,0,12,668,374.8)" />
<use xlink:href="#f1_2g" transform="matrix(12,0,0,12,676.8,374.8)" />
<use xlink:href="#f1_2f" transform="matrix(12,0,0,12,682.3,374.8)" />
<use xlink:href="#f1_21" transform="matrix(12,0,0,12,693.6,374.8)" />
<use xlink:href="#f1_2k" transform="matrix(12,0,0,12,702.1,374.8)" />
<use xlink:href="#f1_1x" transform="matrix(12,0,0,12,710.9,374.8)" />
<use xlink:href="#f1_29" transform="matrix(12,0,0,12,719.3,374.8)" />
<use xlink:href="#f1_2c" transform="matrix(12,0,0,12,733.2,374.8)" />
<use xlink:href="#f1_28" transform="matrix(12,0,0,12,742.7,374.8)" />
<use xlink:href="#f1_21" transform="matrix(12,0,0,12,747.5,374.8)" />
<use xlink:href="#f1_2f" transform="matrix(12,0,0,12,755.9,374.8)" />
<use xlink:href="#f1_u" transform="matrix(12,0,0,12,762.9,374.8)" />
<use xlink:href="#f1_2c" transform="matrix(12,0,0,12,772.4,374.8)" />
<use xlink:href="#f1_21" transform="matrix(12,0,0,12,781.6,374.8)" />
<use xlink:href="#f1_1x" transform="matrix(12,0,0,12,789.6,374.8)" />
<use xlink:href="#f1_2e" transform="matrix(12,0,0,12,797.7,374.8)" />
<use xlink:href="#f1_g" transform="matrix(12,0,0,12,803.9,374.8)" />
<use xlink:href="#f1_2b" transform="matrix(12,0,0,12,813.1,374.8)" />
<use xlink:href="#f1_28" transform="matrix(12,0,0,12,822.6,374.8)" />
<use xlink:href="#f1_25" transform="matrix(12,0,0,12,827.4,374.8)" />
<use xlink:href="#f1_2i" transform="matrix(12,0,0,12,832.1,374.8)" />
<use xlink:href="#f1_21" transform="matrix(12,0,0,12,841.3,374.8)" />
<use xlink:href="#f1_g" transform="matrix(12,0,0,12,849.4,374.8)" />
</g>
<path fill-rule="evenodd" d="M80.3,400.1H857.2V378.9H80.3v21.2Z" class="g0_41" />
<g fill="#1F3331" >
<use xlink:href="#f1_1z" transform="matrix(12,0,0,12,110,396.1)" />
<use xlink:href="#f1_1x" transform="matrix(12,0,0,12,118.1,396.1)" />
<use xlink:href="#f1_2c" transform="matrix(12,0,0,12,126.2,396.1)" />
<use xlink:href="#f1_2f" transform="matrix(12,0,0,12,135.3,396.1)" />
<use xlink:href="#f1_25" transform="matrix(12,0,0,12,142.7,396.1)" />
<use xlink:href="#f1_1z" transform="matrix(12,0,0,12,147.4,396.1)" />
<use xlink:href="#f1_2h" transform="matrix(12,0,0,12,155.5,396.1)" />
<use xlink:href="#f1_29" transform="matrix(12,0,0,12,165,396.1)" />
<use xlink:href="#f1_g" transform="matrix(12,0,0,12,178.6,396.1)" />
<use xlink:href="#f1_2g" transform="matrix(12,0,0,12,188.1,396.1)" />
<use xlink:href="#f1_2b" transform="matrix(12,0,0,12,193.5,396.1)" />
<use xlink:href="#f1_29" transform="matrix(12,0,0,12,203.1,396.1)" />
<use xlink:href="#f1_1x" transform="matrix(12,0,0,12,216.6,396.1)" />
<use xlink:href="#f1_2g" transform="matrix(12,0,0,12,224.7,396.1)" />
<use xlink:href="#f1_2b" transform="matrix(12,0,0,12,230.2,396.1)" />
</g>
<path fill-rule="evenodd" d="M52.8,443.8H857.2V421.4H52.8v22.4Z" class="g0_41" />
<g fill="#1F3331" >
<use xlink:href="#f0_13" transform="matrix(12,0,0,12,59.8,439.7)" />
<use xlink:href="#f0_24" transform="matrix(12,0,0,12,73,439.7)" />
<use xlink:href="#f0_21" transform="matrix(12,0,0,12,83.2,439.7)" />
<use xlink:href="#f0_29" transform="matrix(12,0,0,12,91.4,439.7)" />
<use xlink:href="#f0_25" transform="matrix(12,0,0,12,106.4,439.7)" />
<use xlink:href="#f0_1z" transform="matrix(12,0,0,12,111.5,439.7)" />
<use xlink:href="#f0_1x" transform="matrix(12,0,0,12,119.6,439.7)" />
<use xlink:href="#f0_28" transform="matrix(12,0,0,12,128.8,439.7)" />
<use xlink:href="#f0_28" transform="matrix(12,0,0,12,133.9,439.7)" />
<use xlink:href="#f0_2l" transform="matrix(12,0,0,12,138.6,439.7)" />
<use xlink:href="#f0_25" transform="matrix(12,0,0,12,152.6,439.7)" />
<use xlink:href="#f0_2a" transform="matrix(12,0,0,12,157.6,439.7)" />
<use xlink:href="#f0_20" transform="matrix(12,0,0,12,167.9,439.7)" />
<use xlink:href="#f0_2h" transform="matrix(12,0,0,12,178.2,439.7)" />
<use xlink:href="#f0_1z" transform="matrix(12,0,0,12,188.4,439.7)" />
<use xlink:href="#f0_21" transform="matrix(12,0,0,12,196.5,439.7)" />
<use xlink:href="#f0_20" transform="matrix(12,0,0,12,204.6,439.7)" />
<use xlink:href="#f0_2c" transform="matrix(12,0,0,12,219.7,439.7)" />
<use xlink:href="#f0_1x" transform="matrix(12,0,0,12,230,439.7)" />
<use xlink:href="#f0_2e" transform="matrix(12,0,0,12,239.1,439.7)" />
<use xlink:href="#f0_2g" transform="matrix(12,0,0,12,246.8,439.7)" />
<use xlink:href="#f0_24" transform="matrix(12,0,0,12,253,439.7)" />
<use xlink:href="#f0_21" transform="matrix(12,0,0,12,263.3,439.7)" />
<use xlink:href="#f0_2a" transform="matrix(12,0,0,12,271.4,439.7)" />
<use xlink:href="#f0_2b" transform="matrix(12,0,0,12,281.6,439.7)" />
<use xlink:href="#f0_1z" transform="matrix(12,0,0,12,290.8,439.7)" />
<use xlink:href="#f0_1x" transform="matrix(12,0,0,12,298.8,439.7)" />
<use xlink:href="#f0_2e" transform="matrix(12,0,0,12,308,439.7)" />
<use xlink:href="#f0_2c" transform="matrix(12,0,0,12,315.7,439.7)" />
<use xlink:href="#f0_2l" transform="matrix(12,0,0,12,326,439.7)" />
<use xlink:href="#f0_u" transform="matrix(12,0,0,12,335.1,439.7)" />
</g>
<g fill="#1F3331" stroke-width="43.66897964477539" stroke="#1F3331" >
<use xlink:href="#f3_3k" transform="matrix(12,0,0,12,341.5,439.7)" />
</g>
<path fill-rule="evenodd" d="M59.8,443.4H360.2v-1.8H59.8v1.8Z" class="g1_41" />
<path fill-rule="evenodd" d="M80.3,486.4H857.2V465H80.3v21.4Z" class="g0_41" />
<g fill="#1F3331" >
<use xlink:href="#f3_3d" transform="matrix(10.1,0,0,10.1,82.5,482.3)" />
<use xlink:href="#f1_1j" transform="matrix(12,0,0,12,110,482.3)" />
<use xlink:href="#f1_2c" transform="matrix(12,0,0,12,120.3,482.3)" />
<use xlink:href="#f1_2e" transform="matrix(12,0,0,12,129.5,482.3)" />
<use xlink:href="#f1_1x" transform="matrix(12,0,0,12,135.7,482.3)" />
<use xlink:href="#f1_2l" transform="matrix(12,0,0,12,144.1,482.3)" />
<use xlink:href="#f1_2b" transform="matrix(12,0,0,12,158,482.3)" />
<use xlink:href="#f1_2e" transform="matrix(12,0,0,12,167.5,482.3)" />
<use xlink:href="#f1_2c" transform="matrix(12,0,0,12,179.2,482.3)" />
<use xlink:href="#f1_1x" transform="matrix(12,0,0,12,188.4,482.3)" />
<use xlink:href="#f1_2f" transform="matrix(12,0,0,12,196.4,482.3)" />
<use xlink:href="#f1_2g" transform="matrix(12,0,0,12,203,482.3)" />
<use xlink:href="#f1_21" transform="matrix(12,0,0,12,208.5,482.3)" />
<use xlink:href="#f1_2b" transform="matrix(12,0,0,12,221.7,482.3)" />
<use xlink:href="#f1_22" transform="matrix(12,0,0,12,231.2,482.3)" />
<use xlink:href="#f0_1x" transform="matrix(12,0,0,12,242.5,482.3)" />
<use xlink:href="#f0_2h" transform="matrix(12,0,0,12,251.6,482.3)" />
<use xlink:href="#f0_2k" transform="matrix(12,0,0,12,261.9,482.3)" />
<use xlink:href="#f0_25" transform="matrix(12,0,0,12,270.7,482.3)" />
<use xlink:href="#f0_2a" transform="matrix(12,0,0,12,275.8,482.3)" />
<use xlink:href="#f0_2f" transform="matrix(12,0,0,12,286.1,482.3)" />
<use xlink:href="#f0_1x" transform="matrix(12,0,0,12,298.5,482.3)" />
<use xlink:href="#f0_2a" transform="matrix(12,0,0,12,307.7,482.3)" />
<use xlink:href="#f0_20" transform="matrix(12,0,0,12,317.9,482.3)" />
<use xlink:href="#f0_23" transform="matrix(12,0,0,12,333.7,482.3)" />
<use xlink:href="#f0_25" transform="matrix(12,0,0,12,342.8,482.3)" />
<use xlink:href="#f0_1y" transform="matrix(12,0,0,12,347.9,482.3)" />
<use xlink:href="#f0_1y" transform="matrix(12,0,0,12,358.2,482.3)" />
<use xlink:href="#f0_21" transform="matrix(12,0,0,12,368.5,482.3)" />
<use xlink:href="#f0_2e" transform="matrix(12,0,0,12,376.5,482.3)" />
<use xlink:href="#f0_21" transform="matrix(12,0,0,12,384.2,482.3)" />
<use xlink:href="#f0_28" transform="matrix(12,0,0,12,392.6,482.3)" />
<use xlink:href="#f0_28" transform="matrix(12,0,0,12,397.7,482.3)" />
<use xlink:href="#f0_25" transform="matrix(12,0,0,12,402.5,482.3)" />
<use xlink:href="#f0_2a" transform="matrix(12,0,0,12,407.6,482.3)" />
<use xlink:href="#f0_2f" transform="matrix(12,0,0,12,417.9,482.3)" />
<use xlink:href="#f0_25" transform="matrix(12,0,0,12,430.4,482.3)" />
<use xlink:href="#f0_2a" transform="matrix(12,0,0,12,435.5,482.3)" />
<use xlink:href="#f0_28" transform="matrix(12,0,0,12,451.2,482.3)" />
<use xlink:href="#f0_2b" transform="matrix(12,0,0,12,456,482.3)" />
<use xlink:href="#f0_2j" transform="matrix(12,0,0,12,465.2,482.3)" />
<use xlink:href="#f0_1z" transform="matrix(12,0,0,12,484.2,482.3)" />
<use xlink:href="#f0_2b" transform="matrix(12,0,0,12,492.3,482.3)" />
<use xlink:href="#f0_2a" transform="matrix(12,0,0,12,501.5,482.3)" />
<use xlink:href="#f0_1z" transform="matrix(12,0,0,12,511.7,482.3)" />
<use xlink:href="#f0_21" transform="matrix(12,0,0,12,519.8,482.3)" />
<use xlink:href="#f0_2a" transform="matrix(12,0,0,12,527.8,482.3)" />
<use xlink:href="#f0_2g" transform="matrix(12,0,0,12,538.1,482.3)" />
<use xlink:href="#f0_2e" transform="matrix(12,0,0,12,544.3,482.3)" />
<use xlink:href="#f0_1x" transform="matrix(12,0,0,12,552,482.3)" />
<use xlink:href="#f0_2g" transform="matrix(12,0,0,12,561.2,482.3)" />
<use xlink:href="#f0_25" transform="matrix(12,0,0,12,567.4,482.3)" />
<use xlink:href="#f0_2b" transform="matrix(12,0,0,12,572.5,482.3)" />
<use xlink:href="#f0_2a" transform="matrix(12,0,0,12,581.6,482.3)" />
<use xlink:href="#f1_2b" transform="matrix(12,0,0,12,597.9,482.3)" />
<use xlink:href="#f1_22" transform="matrix(12,0,0,12,607.4,482.3)" />
<use xlink:href="#f1_l" transform="matrix(12,0,0,12,618.4,482.3)" />
<use xlink:href="#f1_k" transform="matrix(12,0,0,12,627.6,482.3)" />
<use xlink:href="#f1_h" transform="matrix(7.9,0,0,7.9,636.8,475.3)" />
<use xlink:href="#f1_q" transform="matrix(7.9,0,0,7.9,640.5,475.3)" />
<use xlink:href="#f2_4y" transform="matrix(12,0,0,12,652.2,482.3)" />
<use xlink:href="#f1_l" transform="matrix(12,0,0,12,666.9,482.3)" />
<use xlink:href="#f1_k" transform="matrix(12,0,0,12,676,482.3)" />
<use xlink:href="#f1_h" transform="matrix(7.9,0,0,7.9,685.2,475.3)" />
<use xlink:href="#f1_r" transform="matrix(7.9,0,0,7.9,688.9,475.3)" />
<use xlink:href="#f1_1d" transform="matrix(12,0,0,12,700.6,482.3)" />
<use xlink:href="#f1_24" transform="matrix(12,0,0,12,722.6,482.3)" />
<use xlink:href="#f1_1x" transform="matrix(12,0,0,12,731.4,482.3)" />
<use xlink:href="#f1_2f" transform="matrix(12,0,0,12,739.8,482.3)" />
<use xlink:href="#f1_1y" transform="matrix(12,0,0,12,752.3,482.3)" />
<use xlink:href="#f1_21" transform="matrix(12,0,0,12,761.1,482.3)" />
<use xlink:href="#f1_21" transform="matrix(12,0,0,12,769.5,482.3)" />
<use xlink:href="#f1_2a" transform="matrix(12,0,0,12,777.9,482.3)" />
<use xlink:href="#f1_22" transform="matrix(12,0,0,12,792.5,482.3)" />
<use xlink:href="#f1_2b" transform="matrix(12,0,0,12,798,482.3)" />
<use xlink:href="#f1_2h" transform="matrix(12,0,0,12,807.6,482.3)" />
<use xlink:href="#f1_2a" transform="matrix(12,0,0,12,816.7,482.3)" />
<use xlink:href="#f1_20" transform="matrix(12,0,0,12,825.5,482.3)" />
<use xlink:href="#f1_2g" transform="matrix(12,0,0,12,840.2,482.3)" />
<use xlink:href="#f1_2b" transform="matrix(12,0,0,12,845.3,482.3)" />
</g>
<path fill-rule="evenodd" d="M80.3,507.6H857.2V486.4H80.3v21.2Z" class="g0_41" />
<g fill="#1F3331" >
<use xlink:href="#f1_25" transform="matrix(12,0,0,12,110,503.6)" />
<use xlink:href="#f1_2a" transform="matrix(12,0,0,12,114.8,503.6)" />
<use xlink:href="#f1_20" transform="matrix(12,0,0,12,124,503.6)" />
<use xlink:href="#f1_2h" transform="matrix(12,0,0,12,133.1,503.6)" />
<use xlink:href="#f1_1z" transform="matrix(12,0,0,12,142.3,503.6)" />
<use xlink:href="#f1_21" transform="matrix(12,0,0,12,150.4,503.6)" />
<use xlink:href="#f1_2c" transform="matrix(12,0,0,12,163.2,503.6)" />
<use xlink:href="#f1_1x" transform="matrix(12,0,0,12,172.4,503.6)" />
<use xlink:href="#f1_2e" transform="matrix(12,0,0,12,180.4,503.6)" />
<use xlink:href="#f1_2g" transform="matrix(12,0,0,12,186.6,503.6)" />
<use xlink:href="#f1_24" transform="matrix(12,0,0,12,192.1,503.6)" />
<use xlink:href="#f1_21" transform="matrix(12,0,0,12,200.9,503.6)" />
<use xlink:href="#f1_2a" transform="matrix(12,0,0,12,209.3,503.6)" />
<use xlink:href="#f1_2b" transform="matrix(12,0,0,12,218.1,503.6)" />
<use xlink:href="#f1_1z" transform="matrix(12,0,0,12,227.6,503.6)" />
<use xlink:href="#f1_1x" transform="matrix(12,0,0,12,235.7,503.6)" />
<use xlink:href="#f1_2e" transform="matrix(12,0,0,12,243.8,503.6)" />
<use xlink:href="#f1_2c" transform="matrix(12,0,0,12,250,503.6)" />
<use xlink:href="#f1_2l" transform="matrix(12,0,0,12,259.5,503.6)" />
<use xlink:href="#f1_25" transform="matrix(12,0,0,12,273.1,503.6)" />
<use xlink:href="#f1_2a" transform="matrix(12,0,0,12,277.8,503.6)" />
<use xlink:href="#f1_2f" transform="matrix(12,0,0,12,291.4,503.6)" />
<use xlink:href="#f1_21" transform="matrix(12,0,0,12,298.3,503.6)" />
<use xlink:href="#f1_2i" transform="matrix(12,0,0,12,306.8,503.6)" />
<use xlink:href="#f1_21" transform="matrix(12,0,0,12,315.6,503.6)" />
<use xlink:href="#f1_2e" transform="matrix(12,0,0,12,323.6,503.6)" />
<use xlink:href="#f1_1x" transform="matrix(12,0,0,12,329.8,503.6)" />
<use xlink:href="#f1_28" transform="matrix(12,0,0,12,338.2,503.6)" />
<use xlink:href="#f1_2c" transform="matrix(12,0,0,12,347.8,503.6)" />
<use xlink:href="#f1_28" transform="matrix(12,0,0,12,357.3,503.6)" />
<use xlink:href="#f1_1x" transform="matrix(12,0,0,12,362,503.6)" />
<use xlink:href="#f1_2a" transform="matrix(12,0,0,12,370.5,503.6)" />
<use xlink:href="#f1_2g" transform="matrix(12,0,0,12,379.3,503.6)" />
<use xlink:href="#f1_2f" transform="matrix(12,0,0,12,384.7,503.6)" />
<use xlink:href="#f1_i" transform="matrix(12,0,0,12,392.1,503.6)" />
<use xlink:href="#f1_15" transform="matrix(12,0,0,12,401.6,503.6)" />
<use xlink:href="#f1_2k" transform="matrix(12,0,0,12,413,503.6)" />
<use xlink:href="#f1_1x" transform="matrix(12,0,0,12,421.8,503.6)" />
<use xlink:href="#f1_29" transform="matrix(12,0,0,12,430.2,503.6)" />
<use xlink:href="#f1_2c" transform="matrix(12,0,0,12,443.7,503.6)" />
<use xlink:href="#f1_28" transform="matrix(12,0,0,12,453.3,503.6)" />
<use xlink:href="#f1_21" transform="matrix(12,0,0,12,458,503.6)" />
<use xlink:href="#f1_u" transform="matrix(12,0,0,12,466.1,503.6)" />
<use xlink:href="#f1_2g" transform="matrix(12,0,0,12,476,503.6)" />
<use xlink:href="#f1_2b" transform="matrix(12,0,0,12,481.1,503.6)" />
<use xlink:href="#f1_29" transform="matrix(12,0,0,12,490.6,503.6)" />
<use xlink:href="#f1_1x" transform="matrix(12,0,0,12,504.2,503.6)" />
<use xlink:href="#f1_2g" transform="matrix(12,0,0,12,512.3,503.6)" />
<use xlink:href="#f1_2b" transform="matrix(12,0,0,12,517.7,503.6)" />
<use xlink:href="#f1_g" transform="matrix(12,0,0,12,526.9,503.6)" />
<use xlink:href="#f1_1z" transform="matrix(12,0,0,12,536.4,503.6)" />
<use xlink:href="#f1_25" transform="matrix(12,0,0,12,544.5,503.6)" />
<use xlink:href="#f1_2g" transform="matrix(12,0,0,12,548.9,503.6)" />
<use xlink:href="#f1_2e" transform="matrix(12,0,0,12,554.4,503.6)" />
<use xlink:href="#f1_2h" transform="matrix(12,0,0,12,560.6,503.6)" />
<use xlink:href="#f1_2f" transform="matrix(12,0,0,12,569.7,503.6)" />
<use xlink:href="#f1_g" transform="matrix(12,0,0,12,576.7,503.6)" />
<use xlink:href="#f1_2f" transform="matrix(12,0,0,12,586.2,503.6)" />
<use xlink:href="#f1_2g" transform="matrix(12,0,0,12,592.8,503.6)" />
<use xlink:href="#f1_2e" transform="matrix(12,0,0,12,598.3,503.6)" />
<use xlink:href="#f1_1x" transform="matrix(12,0,0,12,604.5,503.6)" />
<use xlink:href="#f1_2j" transform="matrix(12,0,0,12,612.6,503.6)" />
<use xlink:href="#f1_1y" transform="matrix(12,0,0,12,625.8,503.6)" />
<use xlink:href="#f1_21" transform="matrix(12,0,0,12,634.6,503.6)" />
<use xlink:href="#f1_2e" transform="matrix(12,0,0,12,642.6,503.6)" />
<use xlink:href="#f1_2e" transform="matrix(12,0,0,12,648.8,503.6)" />
<use xlink:href="#f1_2l" transform="matrix(12,0,0,12,655.4,503.6)" />
<use xlink:href="#f1_g" transform="matrix(12,0,0,12,663.9,503.6)" />
<use xlink:href="#f1_1y" transform="matrix(12,0,0,12,673.4,503.6)" />
<use xlink:href="#f1_28" transform="matrix(12,0,0,12,682.5,503.6)" />
<use xlink:href="#f1_1x" transform="matrix(12,0,0,12,687.3,503.6)" />
<use xlink:href="#f1_1z" transform="matrix(12,0,0,12,695.4,503.6)" />
<use xlink:href="#f1_27" transform="matrix(12,0,0,12,703.4,503.6)" />
<use xlink:href="#f1_1y" transform="matrix(12,0,0,12,712.9,503.6)" />
<use xlink:href="#f1_21" transform="matrix(12,0,0,12,721.7,503.6)" />
<use xlink:href="#f1_2e" transform="matrix(12,0,0,12,729.8,503.6)" />
<use xlink:href="#f1_2e" transform="matrix(12,0,0,12,736,503.6)" />
<use xlink:href="#f1_2l" transform="matrix(12,0,0,12,742.6,503.6)" />
<use xlink:href="#f1_g" transform="matrix(12,0,0,12,751,503.6)" />
<use xlink:href="#f1_22" transform="matrix(12,0,0,12,760.9,503.6)" />
<use xlink:href="#f1_25" transform="matrix(12,0,0,12,766.8,503.6)" />
<use xlink:href="#f1_23" transform="matrix(12,0,0,12,771.5,503.6)" />
<use xlink:href="#f1_21" transform="matrix(12,0,0,12,785.4,503.6)" />
<use xlink:href="#f1_2g" transform="matrix(12,0,0,12,793.5,503.6)" />
<use xlink:href="#f1_1z" transform="matrix(12,0,0,12,799,503.6)" />
<use xlink:href="#f1_i" transform="matrix(12,0,0,12,807.1,503.6)" />
</g>
<path fill-rule="evenodd" d="M52.8,713H857.2V528.9H52.8V713Z" class="g0_41" />
<path fill-rule="evenodd" d="M52.8,755.5H857.2V713H52.8v42.5Z" class="g0_41" />
<path fill-rule="evenodd" d="M52.8,780.1H857.2V755.5H52.8v24.6Z" class="g0_41" />
<g fill="#1F3331" >
<use xlink:href="#f0_19" transform="matrix(12,0,0,12,55,772.8)" />
<use xlink:href="#f0_29" transform="matrix(12,0,0,12,62,772.8)" />
<use xlink:href="#f0_2c" transform="matrix(12,0,0,12,77,772.8)" />
<use xlink:href="#f0_2b" transform="matrix(12,0,0,12,87.3,772.8)" />
<use xlink:href="#f0_2e" transform="matrix(12,0,0,12,96.8,772.8)" />
<use xlink:href="#f0_2g" transform="matrix(12,0,0,12,104.5,772.8)" />
<use xlink:href="#f0_1x" transform="matrix(12,0,0,12,110.7,772.8)" />
<use xlink:href="#f0_2a" transform="matrix(12,0,0,12,119.9,772.8)" />
<use xlink:href="#f0_1z" transform="matrix(12,0,0,12,130.1,772.8)" />
<use xlink:href="#f0_21" transform="matrix(12,0,0,12,138.2,772.8)" />
<use xlink:href="#f0_2b" transform="matrix(12,0,0,12,151,772.8)" />
<use xlink:href="#f0_22" transform="matrix(12,0,0,12,160.2,772.8)" />
<use xlink:href="#f0_2c" transform="matrix(12,0,0,12,170.8,772.8)" />
<use xlink:href="#f0_1x" transform="matrix(12,0,0,12,181,772.8)" />
<use xlink:href="#f0_2e" transform="matrix(12,0,0,12,190.6,772.8)" />
<use xlink:href="#f0_2g" transform="matrix(12,0,0,12,198.3,772.8)" />
<use xlink:href="#f0_24" transform="matrix(12,0,0,12,204.5,772.8)" />
<use xlink:href="#f0_21" transform="matrix(12,0,0,12,214.7,772.8)" />
<use xlink:href="#f0_2a" transform="matrix(12,0,0,12,222.8,772.8)" />
<use xlink:href="#f0_2b" transform="matrix(12,0,0,12,233,772.8)" />
<use xlink:href="#f0_1z" transform="matrix(12,0,0,12,242.2,772.8)" />
<use xlink:href="#f0_1x" transform="matrix(12,0,0,12,250.3,772.8)" />
<use xlink:href="#f0_2e" transform="matrix(12,0,0,12,259.4,772.8)" />
<use xlink:href="#f0_2c" transform="matrix(12,0,0,12,267.1,772.8)" />
<use xlink:href="#f0_25" transform="matrix(12,0,0,12,277.4,772.8)" />
<use xlink:href="#f0_1z" transform="matrix(12,0,0,12,282.5,772.8)" />
<use xlink:href="#f0_22" transform="matrix(12,0,0,12,295.3,772.8)" />
<use xlink:href="#f0_2e" transform="matrix(12,0,0,12,301.5,772.8)" />
<use xlink:href="#f0_2h" transform="matrix(12,0,0,12,309.2,772.8)" />
<use xlink:href="#f0_25" transform="matrix(12,0,0,12,319.5,772.8)" />
<use xlink:href="#f0_2g" transform="matrix(12,0,0,12,324.6,772.8)" />
<use xlink:href="#f0_2f" transform="matrix(12,0,0,12,330.8,772.8)" />
</g>
<path fill-rule="evenodd" d="M55,776.4H338.6v-1.8H55v1.8Z" class="g1_41" />
<path fill-rule="evenodd" d="M80.3,822.3H857.2V801H80.3v21.3Z" class="g0_41" />
<g fill="#1F3331" >
<use xlink:href="#f3_3d" transform="matrix(10.1,0,0,10.1,82.5,818.2)" />
<use xlink:href="#f1_1k" transform="matrix(12,0,0,12,110,818.2)" />
<use xlink:href="#f1_24" transform="matrix(12,0,0,12,121.4,818.2)" />
<use xlink:href="#f1_21" transform="matrix(12,0,0,12,130.2,818.2)" />
<use xlink:href="#f1_2l" transform="matrix(12,0,0,12,138.6,818.2)" />
<use xlink:href="#f1_20" transform="matrix(12,0,0,12,151.8,818.2)" />
<use xlink:href="#f1_2b" transform="matrix(12,0,0,12,160.9,818.2)" />
<use xlink:href="#f1_2a" transform="matrix(12,0,0,12,175.2,818.2)" />
<use xlink:href="#f1_2b" transform="matrix(12,0,0,12,184,818.2)" />
<use xlink:href="#f1_2g" transform="matrix(12,0,0,12,193.5,818.2)" />
<use xlink:href="#f1_1z" transform="matrix(12,0,0,12,203.4,818.2)" />
<use xlink:href="#f1_2b" transform="matrix(12,0,0,12,211.1,818.2)" />
<use xlink:href="#f1_2a" transform="matrix(12,0,0,12,220.6,818.2)" />
<use xlink:href="#f1_2g" transform="matrix(12,0,0,12,229.4,818.2)" />
<use xlink:href="#f1_1x" transform="matrix(12,0,0,12,234.9,818.2)" />
<use xlink:href="#f1_25" transform="matrix(12,0,0,12,243,818.2)" />
<use xlink:href="#f1_2a" transform="matrix(12,0,0,12,247.7,818.2)" />
<use xlink:href="#f1_2f" transform="matrix(12,0,0,12,261.3,818.2)" />
<use xlink:href="#f1_21" transform="matrix(12,0,0,12,268.3,818.2)" />
<use xlink:href="#f1_21" transform="matrix(12,0,0,12,276.7,818.2)" />
<use xlink:href="#f1_20" transform="matrix(12,0,0,12,284.7,818.2)" />
<use xlink:href="#f1_2f" transform="matrix(12,0,0,12,293.9,818.2)" />
<use xlink:href="#f1_2j" transform="matrix(12,0,0,12,305.6,818.2)" />
<use xlink:href="#f1_24" transform="matrix(12,0,0,12,319.2,818.2)" />
<use xlink:href="#f1_25" transform="matrix(12,0,0,12,328.3,818.2)" />
<use xlink:href="#f1_1z" transform="matrix(12,0,0,12,333.1,818.2)" />
<use xlink:href="#f1_24" transform="matrix(12,0,0,12,341.5,818.2)" />
<use xlink:href="#f1_24" transform="matrix(12,0,0,12,355.1,818.2)" />
<use xlink:href="#f1_1x" transform="matrix(12,0,0,12,363.9,818.2)" />
<use xlink:href="#f1_2i" transform="matrix(12,0,0,12,372.3,818.2)" />
<use xlink:href="#f1_21" transform="matrix(12,0,0,12,381.4,818.2)" />
<use xlink:href="#f1_2g" transform="matrix(12,0,0,12,394.3,818.2)" />
<use xlink:href="#f1_2b" transform="matrix(12,0,0,12,399.4,818.2)" />
<use xlink:href="#f1_1y" transform="matrix(12,0,0,12,413.3,818.2)" />
<use xlink:href="#f1_21" transform="matrix(12,0,0,12,422.1,818.2)" />
<use xlink:href="#f1_2e" transform="matrix(12,0,0,12,434.9,818.2)" />
<use xlink:href="#f1_21" transform="matrix(12,0,0,12,441.1,818.2)" />
<use xlink:href="#f1_29" transform="matrix(12,0,0,12,449.6,818.2)" />
<use xlink:href="#f1_2b" transform="matrix(12,0,0,12,463.1,818.2)" />
<use xlink:href="#f1_2i" transform="matrix(12,0,0,12,472.6,818.2)" />
<use xlink:href="#f1_21" transform="matrix(12,0,0,12,481.8,818.2)" />
<use xlink:href="#f1_20" transform="matrix(12,0,0,12,489.9,818.2)" />
<use xlink:href="#f1_1y" transform="matrix(12,0,0,12,503.8,818.2)" />
<use xlink:href="#f1_21" transform="matrix(12,0,0,12,512.6,818.2)" />
<use xlink:href="#f1_22" transform="matrix(12,0,0,12,521,818.2)" />
<use xlink:href="#f1_2b" transform="matrix(12,0,0,12,526.5,818.2)" />
<use xlink:href="#f1_2e" transform="matrix(12,0,0,12,536,818.2)" />
<use xlink:href="#f1_21" transform="matrix(12,0,0,12,542.2,818.2)" />
<use xlink:href="#f1_21" transform="matrix(12,0,0,12,555,818.2)" />
<use xlink:href="#f1_1x" transform="matrix(12,0,0,12,563.1,818.2)" />
<use xlink:href="#f1_2g" transform="matrix(12,0,0,12,571.2,818.2)" />
<use xlink:href="#f1_25" transform="matrix(12,0,0,12,576.7,818.2)" />
<use xlink:href="#f1_2a" transform="matrix(12,0,0,12,581.4,818.2)" />
<use xlink:href="#f1_23" transform="matrix(12,0,0,12,590.2,818.2)" />
<use xlink:href="#f1_22" transform="matrix(12,0,0,12,604.5,818.2)" />
<use xlink:href="#f1_2e" transform="matrix(12,0,0,12,610,818.2)" />
<use xlink:href="#f1_2h" transform="matrix(12,0,0,12,616.2,818.2)" />
<use xlink:href="#f1_25" transform="matrix(12,0,0,12,625.7,818.2)" />
<use xlink:href="#f1_2g" transform="matrix(12,0,0,12,630.1,818.2)" />
<use xlink:href="#f1_2f" transform="matrix(12,0,0,12,635.6,818.2)" />
<use xlink:href="#f1_i" transform="matrix(12,0,0,12,642.6,818.2)" />
</g>
<path fill-rule="evenodd" d="M80.3,843.2H857.2V822.3H80.3v20.9Z" class="g0_41" />
<g fill="#1F3331" >
<use xlink:href="#f3_3d" transform="matrix(10.1,0,0,10.1,82.5,839.1)" />
<use xlink:href="#f1_16" transform="matrix(12,0,0,12,110,839.1)" />
<use xlink:href="#f1_2e" transform="matrix(12,0,0,12,119.9,839.1)" />
<use xlink:href="#f1_2h" transform="matrix(12,0,0,12,126.2,839.1)" />
<use xlink:href="#f1_25" transform="matrix(12,0,0,12,135.7,839.1)" />
<use xlink:href="#f1_2g" transform="matrix(12,0,0,12,140.1,839.1)" />
<use xlink:href="#f1_2f" transform="matrix(12,0,0,12,145.5,839.1)" />
<use xlink:href="#f1_1z" transform="matrix(12,0,0,12,157.3,839.1)" />
<use xlink:href="#f1_1x" transform="matrix(12,0,0,12,165.3,839.1)" />
<use xlink:href="#f1_2a" transform="matrix(12,0,0,12,173.7,839.1)" />
<use xlink:href="#f1_1y" transform="matrix(12,0,0,12,187.3,839.1)" />
<use xlink:href="#f1_21" transform="matrix(12,0,0,12,196.1,839.1)" />
<use xlink:href="#f1_20" transform="matrix(12,0,0,12,208.9,839.1)" />
<use xlink:href="#f1_21" transform="matrix(12,0,0,12,218.1,839.1)" />
<use xlink:href="#f1_2i" transform="matrix(12,0,0,12,226.5,839.1)" />
<use xlink:href="#f1_21" transform="matrix(12,0,0,12,235.3,839.1)" />
<use xlink:href="#f1_28" transform="matrix(12,0,0,12,243.7,839.1)" />
<use xlink:href="#f1_2b" transform="matrix(12,0,0,12,248.1,839.1)" />
<use xlink:href="#f1_2c" transform="matrix(12,0,0,12,257.6,839.1)" />
<use xlink:href="#f1_21" transform="matrix(12,0,0,12,266.8,839.1)" />
<use xlink:href="#f1_20" transform="matrix(12,0,0,12,274.9,839.1)" />
<use xlink:href="#f1_25" transform="matrix(12,0,0,12,289.1,839.1)" />
<use xlink:href="#f1_2a" transform="matrix(12,0,0,12,293.9,839.1)" />
<use xlink:href="#f1_2f" transform="matrix(12,0,0,12,303.1,839.1)" />
<use xlink:href="#f1_25" transform="matrix(12,0,0,12,310.4,839.1)" />
<use xlink:href="#f1_20" transform="matrix(12,0,0,12,315.1,839.1)" />
<use xlink:href="#f1_21" transform="matrix(12,0,0,12,324.3,839.1)" />
<use xlink:href="#f1_2g" transform="matrix(12,0,0,12,337.1,839.1)" />
<use xlink:href="#f1_24" transform="matrix(12,0,0,12,342.6,839.1)" />
<use xlink:href="#f1_21" transform="matrix(12,0,0,12,351.4,839.1)" />
<use xlink:href="#f1_23" transform="matrix(12,0,0,12,364.2,839.1)" />
<use xlink:href="#f1_2e" transform="matrix(12,0,0,12,373.4,839.1)" />
<use xlink:href="#f1_21" transform="matrix(12,0,0,12,379.6,839.1)" />
<use xlink:href="#f1_21" transform="matrix(12,0,0,12,387.7,839.1)" />
<use xlink:href="#f1_2a" transform="matrix(12,0,0,12,395.7,839.1)" />
<use xlink:href="#f1_24" transform="matrix(12,0,0,12,409.7,839.1)" />
<use xlink:href="#f1_2b" transform="matrix(12,0,0,12,418.5,839.1)" />
<use xlink:href="#f1_2h" transform="matrix(12,0,0,12,428,839.1)" />
<use xlink:href="#f1_2f" transform="matrix(12,0,0,12,437.1,839.1)" />
<use xlink:href="#f1_21" transform="matrix(12,0,0,12,444.1,839.1)" />
<use xlink:href="#f1_2f" transform="matrix(12,0,0,12,452.2,839.1)" />
<use xlink:href="#f1_2j" transform="matrix(12,0,0,12,463.9,839.1)" />
<use xlink:href="#f1_24" transform="matrix(12,0,0,12,477.1,839.1)" />
<use xlink:href="#f1_21" transform="matrix(12,0,0,12,485.9,839.1)" />
<use xlink:href="#f1_2e" transform="matrix(12,0,0,12,494,839.1)" />
<use xlink:href="#f1_21" transform="matrix(12,0,0,12,500.2,839.1)" />
<use xlink:href="#f1_2c" transform="matrix(12,0,0,12,513,839.1)" />
<use xlink:href="#f1_2b" transform="matrix(12,0,0,12,522.2,839.1)" />
<use xlink:href="#f1_28" transform="matrix(12,0,0,12,531.7,839.1)" />
<use xlink:href="#f1_28" transform="matrix(12,0,0,12,536.4,839.1)" />
<use xlink:href="#f1_25" transform="matrix(12,0,0,12,541.5,839.1)" />
<use xlink:href="#f1_2a" transform="matrix(12,0,0,12,546.3,839.1)" />
<use xlink:href="#f1_1x" transform="matrix(12,0,0,12,555.5,839.1)" />
<use xlink:href="#f1_2g" transform="matrix(12,0,0,12,563.6,839.1)" />
<use xlink:href="#f1_2b" transform="matrix(12,0,0,12,569,839.1)" />
<use xlink:href="#f1_2e" transform="matrix(12,0,0,12,578.6,839.1)" />
<use xlink:href="#f1_2f" transform="matrix(12,0,0,12,584.8,839.1)" />
<use xlink:href="#f1_1x" transform="matrix(12,0,0,12,596.5,839.1)" />
<use xlink:href="#f1_2e" transform="matrix(12,0,0,12,604.6,839.1)" />
<use xlink:href="#f1_21" transform="matrix(12,0,0,12,610.8,839.1)" />
<use xlink:href="#f1_2a" transform="matrix(12,0,0,12,623.2,839.1)" />
<use xlink:href="#f1_2b" transform="matrix(12,0,0,12,632,839.1)" />
<use xlink:href="#f1_2g" transform="matrix(12,0,0,12,641.2,839.1)" />
<use xlink:href="#f1_1x" transform="matrix(12,0,0,12,651.4,839.1)" />
<use xlink:href="#f1_2i" transform="matrix(12,0,0,12,659.5,839.1)" />
<use xlink:href="#f1_1x" transform="matrix(12,0,0,12,668.3,839.1)" />
<use xlink:href="#f1_25" transform="matrix(12,0,0,12,676.7,839.1)" />
<use xlink:href="#f1_28" transform="matrix(12,0,0,12,681.5,839.1)" />
<use xlink:href="#f1_1x" transform="matrix(12,0,0,12,686.2,839.1)" />
<use xlink:href="#f1_1y" transform="matrix(12,0,0,12,694.7,839.1)" />
<use xlink:href="#f1_28" transform="matrix(12,0,0,12,703.8,839.1)" />
<use xlink:href="#f1_21" transform="matrix(12,0,0,12,708.6,839.1)" />
<use xlink:href="#f1_i" transform="matrix(12,0,0,12,716.6,839.1)" />
</g>
<path fill-rule="evenodd" d="M80.3,864.4H857.2V843.2H80.3v21.2Z" class="g0_41" />
<g fill="#1F3331" >
<use xlink:href="#f3_3d" transform="matrix(10.1,0,0,10.1,82.5,860.4)" />
<use xlink:href="#f1_1h" transform="matrix(12,0,0,12,110,860.4)" />
<use xlink:href="#f1_2h" transform="matrix(12,0,0,12,123.3,860.4)" />
<use xlink:href="#f1_25" transform="matrix(12,0,0,12,132.8,860.4)" />
<use xlink:href="#f1_1z" transform="matrix(12,0,0,12,137.2,860.4)" />
<use xlink:href="#f1_27" transform="matrix(12,0,0,12,145.2,860.4)" />
<use xlink:href="#f1_21" transform="matrix(12,0,0,12,154.4,860.4)" />
<use xlink:href="#f1_2e" transform="matrix(12,0,0,12,162.5,860.4)" />
<use xlink:href="#f1_22" transform="matrix(12,0,0,12,173.8,860.4)" />
<use xlink:href="#f1_2b" transform="matrix(12,0,0,12,179.3,860.4)" />
<use xlink:href="#f1_2b" transform="matrix(12,0,0,12,188.8,860.4)" />
<use xlink:href="#f1_20" transform="matrix(12,0,0,12,198.3,860.4)" />
<use xlink:href="#f1_2c" transform="matrix(12,0,0,12,212.2,860.4)" />
<use xlink:href="#f1_2e" transform="matrix(12,0,0,12,221,860.4)" />
<use xlink:href="#f1_2b" transform="matrix(12,0,0,12,226.9,860.4)" />
<use xlink:href="#f1_1z" transform="matrix(12,0,0,12,236.4,860.4)" />
<use xlink:href="#f1_21" transform="matrix(12,0,0,12,244.5,860.4)" />
<use xlink:href="#f1_2f" transform="matrix(12,0,0,12,252.5,860.4)" />
<use xlink:href="#f1_2f" transform="matrix(12,0,0,12,259.5,860.4)" />
<use xlink:href="#f1_25" transform="matrix(12,0,0,12,266.8,860.4)" />
<use xlink:href="#f1_2a" transform="matrix(12,0,0,12,271.6,860.4)" />
<use xlink:href="#f1_23" transform="matrix(12,0,0,12,280.4,860.4)" />
<use xlink:href="#f1_i" transform="matrix(12,0,0,12,289.6,860.4)" />
</g>
<image preserveAspectRatio="none" x="57" y="529" width="669" height="162" xlink:href="img/1.png" />
<g fill="#000000" >
<use xlink:href="#f4_m" transform="matrix(8,0,0,8,786.1,1264.1)" />
<use xlink:href="#f4_q" transform="matrix(8,0,0,8,792.9,1264.1)" />
</g>
<defs>
<path d="M452,474c0,0,104,0,151,52c0,0,47,53,47,178c0,0,0,119,-45,167c0,0,-44,47,-156,47H390V474ZM36,0V54L154,74V926L26,945v55H467c0,0,213,0,318,-71c0,0,105,-71,105,-224c0,0,0,-313,-366,-313H390V74L557,54V0Z" 
id="f0_1g"
transform="scale(0.001,-0.001)" />

<path d="M345,75c0,0,50,0,110,26V351l-63,-2c0,0,-72,-3,-100,-38c0,0,-28,-35,-28,-113c0,0,0,-63,22,-93c0,0,23,-30,59,-30ZM266,-14c0,0,-217,0,-217,208c0,0,0,79,32,126c0,0,32,48,93,71c0,0,60,22,190,25l91,2V521c0,0,0,126,-104,126c0,0,-62,0,-140,-39L183,521H134V691c0,0,112,17,165,21c0,0,53,5,108,5c0,0,264,0,264,-194V67L741,49V0H483L466,54C466,54,408,14,361,0c0,0,-47,-14,-95,-14Z" 
id="f0_1x"
transform="scale(0.001,-0.001)" />

<path d="M41,0V49l91,18V634L41,652v49H336l8,-145c0,0,80,89,144,128c0,0,64,40,117,40h40V468H604l-45,94c0,0,-47,0,-106,-21c0,0,-60,-20,-105,-48V67L460,49V0Z" 
id="f0_2e"
transform="scale(0.001,-0.001)" />

<path d="M327,-14c0,0,-101,0,-156,45c0,0,-55,45,-55,131V624H25v48l108,29l87,159H332V701H480V624H332V176c0,0,0,-49,20,-73c0,0,20,-25,53,-25c0,0,40,0,97,12V26c0,0,-22,-15,-76,-27c0,0,-55,-13,-99,-13Z" 
id="f0_2g"
transform="scale(0.001,-0.001)" />

<path d="M41,0V49l69,18V992l-72,18v50H325V756c0,0,0,-49,-4,-116l51,26c0,0,106,54,190,54c0,0,194,0,194,-207V67L827,49V0H478V49l63,18V484c0,0,0,63,-27,98c0,0,-26,35,-75,35c0,0,-57,0,-114,-25V67L389,49V0Z" 
id="f0_24"
transform="scale(0.001,-0.001)" />

<path d="M434,423c0,0,0,101,-7,142c0,0,-6,40,-22,60c0,0,-16,19,-45,19c0,0,-44,0,-66,-48c0,0,-22,-49,-22,-173ZM389,-14c0,0,-172,0,-254,89c0,0,-83,90,-83,279c0,0,0,184,79,274c0,0,79,91,238,91c0,0,142,0,206,-76c0,0,64,-76,64,-237V345H271V333c0,0,0,-111,18,-158c0,0,18,-47,58,-72c0,0,40,-25,110,-25c0,0,66,0,166,22V42C623,42,582,18,517,1c0,0,-66,-15,-128,-15Z" 
id="f0_21"
transform="scale(0.001,-0.001)" />

<path d="M41,0V49l69,18V634L41,652v49H313l11,-61l50,26c0,0,105,54,188,54c0,0,194,0,194,-207V67L827,49V0H478V49l63,18V484c0,0,0,63,-27,98c0,0,-26,35,-75,35c0,0,-57,0,-114,-25V67L389,49V0Z" 
id="f0_2a"
transform="scale(0.001,-0.001)" />

<path d="M379,60c0,0,59,0,84,64c0,0,24,65,24,231c0,0,0,164,-24,227c0,0,-24,63,-84,63c0,0,-57,0,-80,-60c0,0,-22,-61,-22,-230c0,0,0,-173,23,-234c0,0,22,-61,79,-61Zm-2,-74c0,0,-161,0,-240,91c0,0,-79,91,-79,277c0,0,0,186,80,276c0,0,81,90,245,90c0,0,167,0,245,-93c0,0,78,-93,78,-273c0,0,0,-188,-81,-278c0,0,-81,-90,-248,-90Z" 
id="f0_2b"
transform="scale(0.001,-0.001)" />

<path d="M425,-14c0,0,-187,0,-280,90c0,0,-93,90,-93,276c0,0,0,115,42,198c0,0,43,82,121,126c0,0,78,44,182,44c0,0,104,0,227,-26V486H571L539,609c0,0,-25,19,-50,26c0,0,-24,7,-65,7c0,0,-44,0,-79,-35c0,0,-36,-35,-56,-98c0,0,-20,-64,-20,-153c0,0,0,-150,47,-214c0,0,47,-64,148,-64c0,0,103,0,176,21V42C640,42,606,15,547,0c0,0,-59,-14,-122,-14Z" 
id="f0_1z"
transform="scale(0.001,-0.001)" />

<path d="M438,65c0,0,131,0,131,293c0,0,0,279,-130,279c0,0,-69,0,-127,-29V80c0,0,60,-15,126,-15ZM20,-325v50l76,18V634L19,652v49H304l1,-36c0,0,80,55,194,55c0,0,146,0,218,-86c0,0,71,-86,71,-271c0,0,0,-183,-83,-280c0,0,-83,-97,-238,-97c0,0,-79,0,-160,19c0,0,5,-48,5,-109V-257l103,-18v-50Z" 
id="f0_2c"
transform="scale(0.001,-0.001)" />

<path d="M159,-329c0,0,-61,0,-123,14v180H81l32,-94c0,0,21,-17,55,-17c0,0,28,0,50,13c0,0,21,14,40,39c0,0,20,25,37,62c0,0,17,37,50,110L64,634L15,652v49H374V652L290,632L455,244L602,634l-82,18v49H749V652L698,637L421,-44c0,0,-47,-121,-83,-176c0,0,-36,-55,-80,-82c0,0,-43,-27,-99,-27Z" 
id="f0_2l"
transform="scale(0.001,-0.001)" />

<path d="M248,-20c0,0,-52,0,-87,34c0,0,-36,36,-36,88c0,0,0,52,36,88c0,0,35,36,87,36c0,0,52,0,88,-36c0,0,36,-36,36,-88c0,0,0,-51,-36,-87c0,0,-35,-35,-88,-35Zm0,488c0,0,-52,0,-87,36c0,0,-36,36,-36,88c0,0,0,52,35,88c0,0,35,36,88,36c0,0,53,0,89,-36c0,0,35,-37,35,-88c0,0,0,-51,-36,-87c0,0,-35,-37,-88,-37Z" 
id="f0_u"
transform="scale(0.001,-0.001)" />

<path d="M460,-325c0,0,-148,79,-231,172c0,0,-84,93,-123,217c0,0,-39,126,-39,304c0,0,0,178,39,303c0,0,39,125,122,217c0,0,82,93,232,172V997c0,0,-91,-52,-145,-134c0,0,-54,-81,-79,-190c0,0,-25,-109,-25,-305c0,0,0,-194,26,-309c0,0,26,-114,82,-193c0,0,56,-79,141,-128v-63Z" 
id="f1_c"
transform="scale(0.001,-0.001)" />

<path d="M577,-14c0,0,-243,0,-379,131C198,117,63,248,63,488c0,0,0,263,131,393c0,0,132,130,386,130c0,0,182,0,352,-45V751H882L862,875c0,0,-52,37,-124,57c0,0,-72,19,-152,19c0,0,-191,0,-279,-113c0,0,-88,-114,-88,-348c0,0,0,-220,91,-333c0,0,91,-114,269,-114c0,0,63,0,131,15c0,0,69,15,105,36V377L686,397v40h370V397L958,377V52C958,52,871,24,778,5c0,0,-93,-19,-201,-19Z" 
id="f1_17"
transform="scale(0.001,-0.001)" />

<path d="M477,0V33l64,19L348,354L257,254V52L331,33V0H44V33l89,19v956L29,1026v34H257V338L544,647l-73,20v34H718V667L631,650L431,446L688,50L764,33V0Z" 
id="f1_27"
transform="scale(0.001,-0.001)" />

<path d="M191,-20c0,0,-39,0,-65,25c0,0,-25,27,-25,64c0,0,0,38,26,64c0,0,26,26,64,26c0,0,38,0,64,-26c0,0,26,-26,26,-64c0,0,0,-37,-25,-64c0,0,-26,-25,-65,-25Z" 
id="f1_i"
transform="scale(0.001,-0.001)" />

<path d="M394,460c0,0,126,0,186,57c0,0,60,57,60,187c0,0,0,123,-57,176c0,0,-58,53,-194,53H316V460ZM54,0V40L172,60V941L44,960v40H421c0,0,368,0,368,-295c0,0,0,-153,-93,-233c0,0,-93,-80,-267,-80H316V60L475,40V0Z" 
id="f1_1g"
transform="scale(0.001,-0.001)" />

<path d="M284,67c0,0,51,0,88,12c0,0,37,12,74,30V358l-98,-3c0,0,-100,-4,-135,-39c0,0,-35,-35,-35,-117c0,0,0,-132,106,-132ZM233,-14c0,0,-179,0,-179,208c0,0,0,70,27,116c0,0,27,46,87,70c0,0,60,24,173,27l105,3V519c0,0,0,72,-26,107c0,0,-27,34,-82,34c0,0,-75,0,-137,-35L176,538H134V691c0,0,121,26,213,26c0,0,115,0,169,-47c0,0,54,-47,54,-144V52L657,33V0H465L451,70c0,0,-85,-84,-218,-84Z" 
id="f1_1x"
transform="scale(0.001,-0.001)" />

<path d="M31,0V33l88,19V649L31,668v33H235l7,-87c0,0,44,37,121,71c0,0,76,35,121,35h11V530H463l-43,82c0,0,-37,0,-88,-10c0,0,-52,-10,-89,-26V52L363,33V0Z" 
id="f1_2e"
transform="scale(0.001,-0.001)" />

<path d="M249,-14c0,0,-71,0,-107,42c0,0,-35,42,-35,119V639H15v33l93,29l76,159h47V701H391V639H231V161c0,0,0,-48,22,-73c0,0,22,-24,57,-24c0,0,44,0,106,12V26C416,26,389,8,340,-2c0,0,-49,-12,-91,-12Z" 
id="f1_2g"
transform="scale(0.001,-0.001)" />

<path d="M442,0V33l93,19V504c0,0,0,129,-124,129c0,0,-70,0,-168,-22V52L338,33V0H31V33l88,19v956L15,1026v34H243V756c0,0,0,-77,-5,-112c0,0,54,31,122,53c0,0,68,23,115,23c0,0,91,0,137,-53c0,0,47,-53,47,-154V52L744,33V0Z" 
id="f1_24"
transform="scale(0.001,-0.001)" />

<path d="M495,413c0,0,0,133,-34,190c0,0,-34,57,-105,57c0,0,-78,0,-119,-63c0,0,-42,-62,-42,-184ZM374,-14c0,0,-163,0,-239,87c0,0,-75,88,-75,283c0,0,0,183,77,273c0,0,76,91,219,91c0,0,269,0,269,-306V353H194V340c0,0,0,-103,23,-160c0,0,22,-57,70,-87c0,0,47,-29,124,-29c0,0,40,0,96,6c0,0,55,7,91,15V43C598,43,562,20,500,3c0,0,-61,-17,-126,-17Z" 
id="f1_21"
transform="scale(0.001,-0.001)" />

<path d="M439,0V33l93,19V500c0,0,0,62,-30,97c0,0,-31,36,-94,36c0,0,-67,0,-165,-22V52L338,33V0H35V33l84,19V649L35,668v33H235l7,-57c0,0,57,33,122,54c0,0,65,22,108,22c0,0,91,0,137,-53c0,0,47,-53,47,-154V52L741,33V0Z" 
id="f1_2a"
transform="scale(0.001,-0.001)" />

<path d="M377,45c0,0,99,0,147,73c0,0,47,73,47,237c0,0,0,161,-47,233c0,0,-47,72,-147,72c0,0,-97,0,-141,-69c0,0,-44,-69,-44,-236c0,0,0,-169,45,-240c0,0,44,-70,140,-70Zm0,-59c0,0,-158,0,-238,94c0,0,-81,95,-81,274c0,0,0,178,81,272c0,0,80,94,244,94c0,0,160,0,241,-92c0,0,82,-92,82,-274c0,0,0,-368,-329,-368Z" 
id="f1_2b"
transform="scale(0.001,-0.001)" />

<path d="M278,-14c0,0,-52,0,-115,11c0,0,-63,10,-99,23V193H98L134,95c0,0,56,-50,146,-50c0,0,144,0,144,123c0,0,0,91,-114,130l-66,21c0,0,-75,25,-110,50c0,0,-34,26,-53,63c0,0,-18,36,-18,89c0,0,0,92,63,145c0,0,63,54,170,54c0,0,77,0,193,-23V544H454l-32,81c0,0,-39,35,-124,35c0,0,-61,0,-92,-30c0,0,-32,-30,-32,-80c0,0,0,-43,29,-72c0,0,28,-29,86,-48c0,0,110,-38,144,-55c0,0,33,-17,57,-42c0,0,23,-25,36,-57c0,0,13,-32,13,-79c0,0,0,-104,-66,-158c0,0,-66,-53,-195,-53Z" 
id="f1_2f"
transform="scale(0.001,-0.001)" />

<path d="M-12,338v55H777V338Z" 
id="f2_4y"
transform="scale(0.001,-0.001)" />

<path d="M360,-14L72,649L0,668v33H327V668L216,648L420,164L615,649L504,668v33H764V668L697,652L416,-14Z" 
id="f1_2i"
transform="scale(0.001,-0.001)" />

<path d="M32,0V33L151,52V649L52,668v33H275V52L395,33V0ZM201,850c0,0,-32,0,-56,24c0,0,-24,24,-24,56c0,0,0,34,24,58c0,0,24,24,56,24c0,0,34,0,58,-24c0,0,24,-24,24,-58c0,0,0,-32,-24,-56c0,0,-24,-24,-58,-24Z" 
id="f1_25"
transform="scale(0.001,-0.001)" />

<path d="M359,-270c0,0,124,0,192,46c0,0,67,47,67,129c0,0,0,43,-26,67c0,0,-26,24,-79,24H242c0,0,-32,-27,-51,-69c0,0,-20,-41,-20,-77c0,0,0,-64,46,-92c0,0,46,-28,142,-28Zm11,561c0,0,81,0,115,47c0,0,34,47,34,141c0,0,0,100,-35,142c0,0,-35,42,-113,42c0,0,-78,0,-114,-43c0,0,-37,-42,-37,-141c0,0,0,-98,36,-143c0,0,36,-45,114,-45ZM359,-329c0,0,-143,0,-218,44c0,0,-75,43,-75,125c0,0,0,39,27,78c0,0,26,38,98,89c0,0,-43,14,-72,48c0,0,-29,35,-29,74L208,262c0,0,-118,55,-118,217c0,0,0,115,73,178c0,0,73,63,211,63c0,0,28,0,71,-6c0,0,44,-6,67,-13l165,83l26,-32L599,644c0,0,50,-56,50,-165c0,0,0,-120,-72,-182c0,0,-73,-62,-208,-62c0,0,-62,0,-114,11L208,148c0,0,2,-13,29,-24c0,0,27,-12,67,-12H512c0,0,113,0,168,-49c0,0,55,-49,55,-134c0,0,0,-79,-44,-137c0,0,-43,-58,-128,-90c0,0,-84,-31,-204,-31Z" 
id="f1_23"
transform="scale(0.001,-0.001)" />

<path d="M58,-234v58c0,0,131,42,131,125c0,0,0,15,-11,27c0,0,-11,12,-38,25C140,1,89,27,89,75c0,0,0,40,25,61c0,0,26,21,65,21c0,0,48,0,77,-34c0,0,30,-34,30,-86c0,0,0,-101,-60,-170c0,0,-59,-69,-168,-101Z" 
id="f1_g"
transform="scale(0.001,-0.001)" />

<path d="M382,45c0,0,188,0,188,314c0,0,0,143,-47,213c0,0,-46,69,-141,69c0,0,-87,0,-146,-24V58c0,0,67,-13,146,-13ZM25,-325v35l88,18V649L34,668v33H231l1,-41c0,0,31,27,84,43c0,0,53,17,107,17c0,0,134,0,208,-94c0,0,73,-93,73,-267c0,0,0,-178,-80,-276c0,0,-80,-97,-232,-97c0,0,-84,0,-160,16c0,0,4,-53,4,-84V-272l123,-18v-35Z" 
id="f1_2c"
transform="scale(0.001,-0.001)" />

<path d="M64,0V34L168,59V639H47v36l121,29v49c0,0,0,155,61,239c0,0,62,84,173,84c0,0,58,0,107,-15V908H472l-33,92c0,0,-26,16,-62,16c0,0,-47,0,-66,-42c0,0,-19,-42,-19,-157V701H478V639H292V59L443,34V0Z" 
id="f1_22"
transform="scale(0.001,-0.001)" />

<path d="M289,-14c0,0,-179,0,-179,205V649L20,668v33H233V200c0,0,0,-128,120,-128c0,0,92,0,173,23V649L420,668v33H649V52L738,33V0H533l-6,57C527,57,474,28,405,7c0,0,-69,-21,-116,-21Z" 
id="f1_2h"
transform="scale(0.001,-0.001)" />

<path d="M49,-325v63c0,0,85,49,140,128c0,0,56,79,83,194c0,0,26,115,26,308c0,0,0,196,-25,305c0,0,-25,109,-79,190c0,0,-54,82,-145,134v63c0,0,149,-80,232,-172c0,0,83,-92,122,-217c0,0,39,-125,39,-303c0,0,0,-177,-39,-303c0,0,-39,-125,-122,-217c0,0,-83,-93,-232,-173Z" 
id="f1_d"
transform="scale(0.001,-0.001)" />

<path d="M273,157c0,0,-114,0,-193,80C80,237,0,317,0,431c0,0,0,112,80,192c0,0,79,80,193,80c0,0,113,0,192,-80c0,0,80,-80,80,-192c0,0,0,-114,-80,-194c0,0,-79,-80,-192,-80Z" 
id="f3_3d"
transform="scale(0.001,-0.001)" />

<path d="M55,0V40L184,60V941L55,960v40H455V960L327,941V60L455,40V0Z" 
id="f1_19"
transform="scale(0.001,-0.001)" />

<path d="M399,-14c0,0,-341,0,-341,370c0,0,0,175,87,269c0,0,87,95,249,95c0,0,101,0,220,-23V501H573L541,625c0,0,-62,35,-149,35c0,0,-200,0,-200,-304c0,0,0,-158,61,-225c0,0,61,-67,189,-67c0,0,109,0,189,24V43C631,43,595,16,530,1c0,0,-64,-15,-131,-15Z" 
id="f1_1z"
transform="scale(0.001,-0.001)" />

<path d="M41,0V49l76,18V624H11v51l106,29v75c0,0,0,144,73,220c0,0,73,77,210,77c0,0,74,0,124,-15V894H476l-22,81c0,0,-18,17,-47,17c0,0,-74,0,-74,-189V701H475V624H333V67L447,49V0Z" 
id="f0_22"
transform="scale(0.001,-0.001)" />

<path d="M41,0V49l69,18V634L41,652v49H313l11,-61l50,26c0,0,105,54,188,54c0,0,125,0,167,-91c0,0,153,91,258,91c0,0,189,0,189,-207V67l71,-17V0H898V50l63,17V484c0,0,0,63,-24,98c0,0,-25,35,-74,35c0,0,-55,0,-119,-31c0,0,7,-32,7,-73V67L821,50V0H473V50l63,17V484c0,0,0,63,-25,98c0,0,-24,35,-73,35c0,0,-49,0,-113,-29V67L389,49V0Z" 
id="f0_29"
transform="scale(0.001,-0.001)" />

<path d="M34,0V49l76,18V634L38,652v49H325V67L402,49V0ZM217,831c0,0,-48,0,-81,33c0,0,-34,33,-34,82c0,0,0,48,34,81c0,0,34,33,81,33c0,0,48,0,81,-33c0,0,33,-33,33,-81c0,0,0,-47,-33,-81c0,0,-32,-34,-81,-34Z" 
id="f0_25"
transform="scale(0.001,-0.001)" />

<path d="M287,-18c0,0,-194,0,-194,206V634L23,652v49H309V217c0,0,0,-63,26,-98c0,0,27,-35,76,-35c0,0,57,0,113,25V634l-64,18v49H740V67L809,49V0H536L526,61L475,35c0,0,-104,-53,-188,-53Z" 
id="f0_2h"
transform="scale(0.001,-0.001)" />

<path d="M305,-14L57,634L4,652v49H351V652L268,632L419,232L581,631h71L814,232L950,634l-82,18v49h227V652l-54,-15L806,-14H715L555,378L395,-14Z" 
id="f0_2j"
transform="scale(0.001,-0.001)" />

<path d="M342,-14L49,634L0,652v49H359V652L275,632L455,233L617,634l-82,18v49H764V652L713,637L433,-14Z" 
id="f0_2i"
transform="scale(0.001,-0.001)" />

<path d="M30,0V49l76,18V992l-72,18v50H322V67L398,49V0Z" 
id="f0_28"
transform="scale(0.001,-0.001)" />

<path d="M30,0V34L352,634H272c0,0,-41,0,-80,-7c0,0,-39,-8,-54,-19L115,492H61V701H606V664L283,67H395c0,0,43,0,90,11c0,0,47,10,66,24l40,162h54L624,0Z" 
id="f0_2m"
transform="scale(0.001,-0.001)" />

<path d="M276,-14c0,0,-57,0,-125,13C151,-1,83,10,48,23V214H97l28,-98c0,0,26,-26,69,-44c0,0,42,-17,86,-17c0,0,65,0,97,28c0,0,32,28,32,71c0,0,0,41,-31,65c0,0,-30,25,-133,57c0,0,-108,34,-154,92c0,0,-45,58,-45,143c0,0,0,95,71,152c0,0,71,57,183,57c0,0,77,0,207,-22V518H457l-24,82c0,0,-21,22,-60,35c0,0,-40,14,-75,14c0,0,-53,0,-79,-22c0,0,-26,-22,-26,-59c0,0,0,-40,32,-65c0,0,32,-26,132,-55c0,0,109,-34,155,-89c0,0,45,-55,45,-137c0,0,0,-117,-72,-177c0,0,-72,-59,-209,-59Z" 
id="f0_2f"
transform="scale(0.001,-0.001)" />

<path d="M416,68c0,0,60,0,124,32V628c0,0,-58,15,-118,15c0,0,-67,0,-104,-73c0,0,-38,-73,-38,-216c0,0,0,-139,36,-212c0,0,35,-74,100,-74ZM369,-14c0,0,-155,0,-231,88c0,0,-76,90,-76,274c0,0,0,182,82,277c0,0,81,95,236,95c0,0,82,0,165,-20c0,0,-5,24,-5,115V992l-72,18v50H756V67L833,49V0H562L547,40C547,40,505,13,483,4c0,0,-23,-7,-51,-12c0,0,-28,-6,-63,-6Z" 
id="f0_20"
transform="scale(0.001,-0.001)" />

<path d="M31,0V33L150,52v956L31,1026v34H274V52L394,33V0Z" 
id="f1_28"
transform="scale(0.001,-0.001)" />

<path d="M376,50c0,0,103,0,149,80c0,0,46,81,46,240c0,0,0,137,-47,204c0,0,-48,67,-148,67c0,0,-44,0,-87,-7c0,0,-44,-8,-63,-17V62c0,0,63,-12,150,-12Zm3,-64c0,0,-64,0,-141,14c0,0,-78,14,-136,37v971L0,1026v34H226V809c0,0,0,-40,-4,-148c0,0,74,59,188,59c0,0,143,0,219,-87c0,0,77,-87,77,-263c0,0,0,-189,-84,-287c0,0,-84,-97,-243,-97Z" 
id="f1_1y"
transform="scale(0.001,-0.001)" />

<path d="M54,0V40L172,60V941L44,960v40H794V760H745L721,922c0,0,-83,11,-241,11H316V516H611l23,120h46V328H634L611,449H316V60L483,40V0Z" 
id="f1_16"
transform="scale(0.001,-0.001)" />

<path d="M383,64c0,0,85,0,152,28V645c0,0,-67,13,-152,13c0,0,-194,0,-194,-314c0,0,0,-141,48,-211c0,0,48,-69,146,-69ZM342,-14c0,0,-287,0,-287,358c0,0,0,184,82,280c0,0,81,96,239,96c0,0,81,0,163,-18c0,0,-4,25,-4,124v182l-118,18v34H659V52L745,33V0H548l-9,52c0,0,-84,-66,-197,-66Z" 
id="f1_20"
transform="scale(0.001,-0.001)" />

<path d="M327,-14L84,649L1,668v33H335V668L219,648L385,174L554,632h63L786,171L944,649L830,668v33h267V668l-78,-16L784,-14H726L553,448L382,-14Z" 
id="f1_2j"
transform="scale(0.001,-0.001)" />

<path d="M13,0V34L95,46L325,350L122,649L40,668v33H357V668L264,648L399,446L554,649l-96,19v33H710V668L630,652L433,397L663,50L745,34V0H427V34l94,17L359,299L169,50L266,34V0Z" 
id="f1_2k"
transform="scale(0.001,-0.001)" />

<path d="M431,0V33L535,52V499c0,0,0,62,-32,96c0,0,-32,33,-95,33c0,0,-66,0,-163,-22V52L350,33V0H32V33l89,19V649L32,668v33H237l6,-57c0,0,56,32,119,54c0,0,62,22,110,22c0,0,52,0,95,-20c0,0,44,-19,66,-62c0,0,57,32,134,57c0,0,77,25,128,25c0,0,179,0,179,-207V52l90,-19V0H846V33L950,52V499c0,0,0,129,-119,129c0,0,-19,0,-45,-3c0,0,-26,-3,-52,-7c0,0,-25,-4,-49,-8c0,0,-23,-5,-39,-8c0,0,13,-41,13,-89V52L764,33V0Z" 
id="f1_29"
transform="scale(0.001,-0.001)" />

<path d="M148,-329c0,0,-58,0,-114,13v151H69l24,-71c0,0,23,-17,64,-17c0,0,39,0,72,22c0,0,33,23,60,67c0,0,27,44,68,157L90,649L19,668v33H344V668L233,648L423,158L606,649L497,668v33H758V668L685,652L411,-43c0,0,-48,-124,-84,-177c0,0,-36,-54,-79,-82c0,0,-44,-27,-100,-27Z" 
id="f1_2l"
transform="scale(0.001,-0.001)" />

<path d="M211,-20c0,0,-39,0,-64,25c0,0,-26,27,-26,64c0,0,0,38,26,64c0,0,26,26,64,26c0,0,37,0,64,-25c0,0,26,-26,26,-65c0,0,0,-37,-26,-64c0,0,-26,-25,-64,-25Zm0,556c0,0,-38,0,-64,26c0,0,-26,26,-26,64c0,0,0,37,26,64c0,0,25,27,64,27c0,0,38,0,64,-27c0,0,26,-27,26,-64c0,0,0,-38,-26,-64c0,0,-27,-26,-64,-26Z" 
id="f1_u"
transform="scale(0.001,-0.001)" />

<path d="M57,302V417H454V302Z" 
id="f1_h"
transform="scale(0.001,-0.001)" />

<path d="M614,-14c0,0,-163,0,-285,59c0,0,-122,60,-188,174c0,0,-66,114,-66,269c0,0,0,252,143,387c0,0,144,136,410,136c0,0,65,0,118,-5c0,0,54,-5,100,-14c0,0,46,-9,170,-44V718H949L931,848c0,0,-59,40,-130,62c0,0,-71,23,-146,23c0,0,-174,0,-253,-108c0,0,-80,-108,-80,-335c0,0,0,-211,84,-319c0,0,84,-108,243,-108c0,0,87,0,165,26V377L686,397v55h461V397l-98,-20V52C1049,52,956,22,834,4C834,4,712,-14,614,-14Z" 
id="f0_17"
transform="scale(0.001,-0.001)" />

<path d="M0,334v73H1700V334Z" 
id="f3_3k"
transform="scale(0.001,-0.001)" />

<path d="M41,0V34L426,641H261c0,0,-42,0,-80,-7c0,0,-39,-7,-54,-19L104,515H69V701H586V665L201,60H407c0,0,42,0,89,10c0,0,47,10,66,25l39,147h35L617,0Z" 
id="f1_2m"
transform="scale(0.001,-0.001)" />

<path d="M44,0V40L172,60V941L44,960v40H794V760H745L721,922c0,0,-83,11,-241,11H316V543H586l23,119h48V354H609L586,475H316V67H513c0,0,193,0,252,12l43,185h49L843,0Z" 
id="f1_15"
transform="scale(0.001,-0.001)" />

<path d="M26,0V54L154,74V926L26,945v55H878V746H810L786,908c0,0,-83,10,-241,10H389V551H651l23,111h67V355H674L651,468H389V82H578c0,0,193,0,252,12l43,185h68L927,0Z" 
id="f0_15"
transform="scale(0.001,-0.001)" />

<path d="M44,0V40L172,60V941L44,960v40H471V960L316,941V65H513c0,0,159,0,234,14l46,208h48L828,0Z" 
id="f1_1c"
transform="scale(0.001,-0.001)" />

<path d="M608,-14c0,0,-251,0,-392,133C216,119,75,252,75,488c0,0,0,257,134,390c0,0,135,133,398,133c0,0,174,0,361,-50l4,-240H905L884,866c0,0,-98,67,-229,67c0,0,-173,0,-253,-108c0,0,-80,-108,-80,-334c0,0,0,-209,84,-319c0,0,83,-109,243,-109c0,0,84,0,147,22c0,0,63,22,99,53l24,164h68L982,48C982,48,915,22,808,4C808,4,700,-14,608,-14Z" 
id="f0_13"
transform="scale(0.001,-0.001)" />

<path d="M410,-14c0,0,-80,0,-162,14c0,0,-81,14,-144,38V270h48L178,134c0,0,28,-35,95,-62c0,0,68,-27,134,-27c0,0,104,0,163,53c0,0,58,54,58,148c0,0,0,54,-23,89c0,0,-22,35,-59,59c0,0,-37,24,-84,41c0,0,-47,17,-97,34c0,0,-49,17,-96,38c0,0,-47,21,-84,53c0,0,-37,32,-60,79c0,0,-23,48,-23,117c0,0,0,119,90,187c0,0,89,68,248,68c0,0,121,0,263,-32V771H654L628,893c0,0,-76,55,-188,55c0,0,-100,0,-156,-40c0,0,-56,-41,-56,-112c0,0,0,-49,22,-81c0,0,23,-32,60,-55c0,0,37,-22,84,-39c0,0,48,-16,97,-34c0,0,50,-17,97,-39c0,0,48,-22,85,-56c0,0,36,-34,59,-83c0,0,23,-49,23,-120c0,0,0,-145,-89,-224c0,0,-89,-79,-256,-79Z" 
id="f1_1j"
transform="scale(0.001,-0.001)" />

<path d="M6,0V49L69,61L292,323L91,634L23,652v49H398V652L319,632L421,475L557,634l-71,18v49H725V652L663,637L466,406L689,65L756,49V0H381V49l79,17L337,254L175,65L245,49V0Z" 
id="f0_2k"
transform="scale(0.001,-0.001)" />

<path d="M360,-256c0,0,108,0,167,35c0,0,59,35,59,98c0,0,0,70,-95,70H254c0,0,-65,-47,-65,-108c0,0,0,-47,46,-71c0,0,45,-24,125,-24Zm9,561c0,0,55,0,79,43c0,0,25,43,25,129c0,0,0,87,-24,127c0,0,-25,41,-80,41c0,0,-52,0,-75,-41c0,0,-24,-40,-24,-127c0,0,0,-86,23,-129c0,0,23,-43,76,-43Zm-9,-641c0,0,-153,0,-236,43c0,0,-84,44,-84,120c0,0,0,33,28,65c0,0,27,31,105,76c0,0,-44,17,-75,59c0,0,-31,43,-31,90L192,258c0,0,-133,56,-133,219c0,0,0,116,81,180c0,0,82,63,233,63c0,0,32,0,82,-6c0,0,51,-6,74,-13l168,83l26,-32L638,631c0,0,46,-57,46,-154c0,0,0,-119,-80,-182c0,0,-80,-64,-234,-64c0,0,-59,0,-114,9L238,183c0,0,1,-22,28,-41c0,0,26,-19,64,-19H493c0,0,256,0,256,-196c0,0,0,-81,-44,-139c0,0,-45,-59,-131,-92c0,0,-86,-32,-214,-32Z" 
id="f0_23"
transform="scale(0.001,-0.001)" />

<path d="M424,64c0,0,74,0,109,71c0,0,36,72,36,236c0,0,0,137,-34,201c0,0,-34,65,-111,65c0,0,-29,0,-62,-7c0,0,-34,-6,-55,-19V76c0,0,47,-12,117,-12Zm21,-78c0,0,-121,0,-354,50V994l-72,18v48H307V802c0,0,0,-69,-8,-141c0,0,30,25,86,42c0,0,57,17,110,17c0,0,153,0,223,-84c0,0,70,-83,70,-266c0,0,0,-180,-90,-283C698,87,608,-14,445,-14Z" 
id="f0_1y"
transform="scale(0.001,-0.001)" />

<path d="M134,0V40L339,60V876L137,804v39l292,166h39V60L672,40V0Z" 
id="f1_l"
transform="scale(0.001,-0.001)" />

<path d="M377,45c0,0,99,0,145,108c0,0,46,109,46,352c0,0,0,240,-45,345c0,0,-46,106,-146,106c0,0,-97,0,-139,-100c0,0,-43,-99,-43,-351c0,0,0,-254,44,-357c0,0,43,-103,138,-103Zm0,-59c0,0,-158,0,-238,132c0,0,-81,133,-81,386c0,0,0,249,81,380c0,0,80,132,244,132c0,0,159,0,241,-130c0,0,82,-130,82,-382c0,0,0,-518,-329,-518Z" 
id="f1_k"
transform="scale(0.001,-0.001)" />

<path d="M410,45c0,0,90,0,130,58c0,0,40,59,40,193c0,0,0,122,-38,177c0,0,-38,54,-122,54c0,0,-102,0,-217,-37c0,0,0,-227,51,-336c0,0,52,-109,156,-109Zm3,-59c0,0,-169,0,-258,131c0,0,-89,131,-89,377c0,0,0,161,47,278c0,0,47,117,131,178c0,0,85,61,196,61c0,0,109,0,217,-26V813H608L582,915c0,0,-25,13,-67,23c0,0,-41,10,-75,10c0,0,-109,0,-170,-105c0,0,-60,-106,-66,-308c0,0,121,63,244,63c0,0,132,0,201,-74c0,0,69,-74,69,-214c0,0,0,-156,-78,-240c0,0,-79,-84,-227,-84Z" 
id="f1_q"
transform="scale(0.001,-0.001)" />

<path d="M178,0L615,886H176L150,764H101v236H720V943L274,0Z" 
id="f1_r"
transform="scale(0.001,-0.001)" />

<path d="M617,0L251,860V60L385,40V0H44V40L172,60V941L44,960v40H347L672,239l355,761h287V960L1185,941V60L1314,40V0H908V40l134,20V859L643,0Z" 
id="f1_1d"
transform="scale(0.001,-0.001)" />

<path d="M51,0V55L180,74V926L51,946v54H543V946L415,926V74L543,55V0Z" 
id="f0_19"
transform="scale(0.001,-0.001)" />

<path d="M235,0V40L394,60V936H356c0,0,-189,0,-258,-15L78,766H28v234H908V766H857L837,921c0,0,-22,5,-98,9c0,0,-75,4,-165,4H538V60L697,40V0Z" 
id="f1_1k"
transform="scale(0.001,-0.001)" />

<path d="M551,45c0,0,171,0,252,106c0,0,82,107,82,349c0,0,0,241,-82,346c0,0,-82,105,-252,105c0,0,-171,0,-252,-106c0,0,-80,-106,-80,-345c0,0,0,-241,80,-348c0,0,81,-107,252,-107ZM930,-246c0,0,-53,0,-94,17c0,0,-41,18,-83,56c0,0,-41,39,-139,162c0,0,-27,-3,-63,-3c0,0,-239,0,-364,130C187,116,63,247,63,500c0,0,0,511,488,511c0,0,240,0,365,-129c0,0,125,-130,125,-382c0,0,0,-366,-265,-475l37,-45c0,0,66,-82,112,-117c0,0,46,-35,91,-35l61,2v-49c0,0,-17,-7,-64,-17c0,0,-48,-10,-83,-10Z" 
id="f1_1h"
transform="scale(0.001,-0.001)" />

<path d="M46,0c0,0,-2,48,16,93c0,0,27,74,88,146c0,0,61,71,176,165c0,0,178,146,241,232c0,0,63,85,63,161c0,0,0,80,-57,135c0,0,-58,55,-149,55c0,0,-98,0,-156,-59c0,0,-58,-58,-59,-160L71,782c0,0,15,154,107,235c0,0,93,81,249,81c0,0,157,0,249,-87c0,0,92,-88,92,-217c0,0,0,-65,-27,-129c0,0,-27,-63,-89,-133c0,0,-62,-70,-207,-193C445,339,324,238,290,202c0,0,-35,-36,-57,-73H770V0Z" 
id="f4_m"
transform="scale(0.001,-0.001)" />

<path d="M435,92c0,0,86,0,147,69c0,0,60,68,60,186c0,0,0,114,-60,179c0,0,-60,66,-152,66c0,0,-91,0,-154,-66c0,0,-64,-65,-64,-171c0,0,0,-70,30,-133c0,0,29,-64,82,-97c0,0,52,-33,111,-33Zm3,-110c0,0,-168,0,-274,123C164,105,58,228,58,512c0,0,0,317,117,461c0,0,102,125,275,125c0,0,129,0,212,-72c0,0,82,-72,99,-200L627,815c0,0,-18,79,-51,115c0,0,-54,58,-134,58c0,0,-64,0,-113,-36c0,0,-63,-46,-99,-135c0,0,-37,-89,-38,-253c0,0,48,74,118,110c0,0,70,36,147,36c0,0,135,0,229,-99c0,0,94,-99,94,-256c0,0,0,-103,-44,-191C736,164,691,75,614,28c0,0,-78,-46,-176,-46Z" 
id="f4_q"
transform="scale(0.001,-0.001)" />


</defs>
</svg>