<?xml version="1.0" encoding="UTF-8" standalone="no"?>
<!DOCTYPE svg PUBLIC "-//W3C//DTD SVG 1.1//EN"
"http://www.w3.org/Graphics/SVG/1.1/DTD/svg11.dtd">
<svg viewBox="0 0 909 1286" version="1.1" xmlns="http://www.w3.org/2000/svg" xmlns:xlink="http://www.w3.org/1999/xlink">
<defs>
<style type="text/css"><![CDATA[
.g0_11{
fill: #FFFFFF;
}
.g1_11{
fill: #1F3331;
}
]]></style>
</defs>
<path fill-rule="evenodd" d="M80.3,75.6H857.2V55H80.3V75.6Z" class="g0_11" />
<g fill="#1F3331" >
<use xlink:href="#f0_3d" transform="matrix(10.1,0,0,10.1,82.5,71.2)" />
<use xlink:href="#f1_5" transform="matrix(11,0,0,11,110,71.2)" />
<use xlink:href="#f1_ae" transform="matrix(11,0,0,11,124.3,71.2)" />
<use xlink:href="#f1_77" transform="matrix(11,0,0,11,137.9,71.2)" />
<use xlink:href="#f1_a2" transform="matrix(11,0,0,11,146,71.2)" />
<use xlink:href="#f1_am" transform="matrix(11,0,0,11,150,71.2)" />
<use xlink:href="#f1_b1" transform="matrix(11,0,0,11,158.8,71.2)" />
<use xlink:href="#f1_9q" transform="matrix(11,0,0,11,164.7,71.2)" />
<use xlink:href="#f1_bf" transform="matrix(11,0,0,11,168.7,71.2)" />
<use xlink:href="#f1_co" transform="matrix(11,0,0,11,174.2,71.2)" />
<use xlink:href="#f1_am" transform="matrix(11,0,0,11,186.2,71.2)" />
<use xlink:href="#f1_89" transform="matrix(11,0,0,11,195,71.2)" />
<use xlink:href="#f1_b5" transform="matrix(11,0,0,11,204.6,71.2)" />
<use xlink:href="#f1_7z" transform="matrix(11,0,0,11,211.1,71.2)" />
<use xlink:href="#f1_cn" transform="matrix(11,0,0,11,219.2,71.2)" />
<use xlink:href="#f1_c6" transform="matrix(11,0,0,11,226.5,71.2)" />
<use xlink:href="#f1_77" transform="matrix(11,0,0,11,235.4,71.2)" />
<use xlink:href="#f1_a8" transform="matrix(11,0,0,11,243.5,71.2)" />
<use xlink:href="#f1_a8" transform="matrix(11,0,0,11,247.4,71.2)" />
<use xlink:href="#f1_co" transform="matrix(11,0,0,11,251.1,71.2)" />
<use xlink:href="#f1_b1" transform="matrix(11,0,0,11,263.2,71.2)" />
<use xlink:href="#f1_7z" transform="matrix(11,0,0,11,269.1,71.2)" />
<use xlink:href="#f1_ay" transform="matrix(11,0,0,11,277.5,71.2)" />
<use xlink:href="#f1_b1" transform="matrix(11,0,0,11,286.3,71.2)" />
<use xlink:href="#f1_am" transform="matrix(11,0,0,11,292.1,71.2)" />
<use xlink:href="#f1_7v" transform="matrix(11,0,0,11,300.9,71.2)" />
<use xlink:href="#f1_c6" transform="matrix(11,0,0,11,309.8,71.2)" />
<use xlink:href="#f1_7l" transform="matrix(11,0,0,11,318.6,71.2)" />
<use xlink:href="#f1_9q" transform="matrix(11,0,0,11,325.5,71.2)" />
<use xlink:href="#f1_af" transform="matrix(11,0,0,11,329.5,71.2)" />
<use xlink:href="#f1_9d" transform="matrix(11,0,0,11,338.3,71.2)" />
<use xlink:href="#f1_am" transform="matrix(11,0,0,11,350.8,71.2)" />
<use xlink:href="#f1_b1" transform="matrix(11,0,0,11,359.6,71.2)" />
<use xlink:href="#f1_9d" transform="matrix(11,0,0,11,365.5,71.2)" />
<use xlink:href="#f1_77" transform="matrix(11,0,0,11,373.5,71.2)" />
<use xlink:href="#f1_af" transform="matrix(11,0,0,11,381.6,71.2)" />
<use xlink:href="#f1_9q" transform="matrix(11,0,0,11,390,71.2)" />
<use xlink:href="#f1_b5" transform="matrix(11,0,0,11,394,71.2)" />
<use xlink:href="#f1_ae" transform="matrix(11,0,0,11,400.6,71.2)" />
<use xlink:href="#f1_b5" transform="matrix(11,0,0,11,414.2,71.2)" />
<use xlink:href="#f1_b5" transform="matrix(11,0,0,11,425.5,71.2)" />
<use xlink:href="#f1_9n" transform="matrix(11,0,0,11,432.1,71.2)" />
<use xlink:href="#f1_am" transform="matrix(11,0,0,11,441,71.2)" />
<use xlink:href="#f1_ci" transform="matrix(11,0,0,11,449.7,71.2)" />
<use xlink:href="#f1_bf" transform="matrix(11,0,0,11,465.9,71.2)" />
<use xlink:href="#f1_ci" transform="matrix(11,0,0,11,471.3,71.2)" />
<use xlink:href="#f1_am" transform="matrix(11,0,0,11,483.4,71.2)" />
<use xlink:href="#f1_ae" transform="matrix(11,0,0,11,496.6,71.2)" />
<use xlink:href="#f1_am" transform="matrix(11,0,0,11,510.2,71.2)" />
<use xlink:href="#f1_b1" transform="matrix(11,0,0,11,519,71.2)" />
<use xlink:href="#f1_ay" transform="matrix(11,0,0,11,524.9,71.2)" />
<use xlink:href="#f1_9n" transform="matrix(11,0,0,11,533.7,71.2)" />
<use xlink:href="#f1_am" transform="matrix(11,0,0,11,542.5,71.2)" />
<use xlink:href="#f1_a8" transform="matrix(11,0,0,11,551.3,71.2)" />
<use xlink:href="#f1_am" transform="matrix(11,0,0,11,555.3,71.2)" />
<use xlink:href="#f1_9d" transform="matrix(11,0,0,11,564.1,71.2)" />
<use xlink:href="#f1_9q" transform="matrix(11,0,0,11,572.1,71.2)" />
<use xlink:href="#f1_7l" transform="matrix(11,0,0,11,576.1,71.2)" />
<use xlink:href="#f1_77" transform="matrix(11,0,0,11,583.1,71.2)" />
<use xlink:href="#f1_a8" transform="matrix(11,0,0,11,591.2,71.2)" />
<use xlink:href="#f1_a8" transform="matrix(11,0,0,11,594.8,71.2)" />
<use xlink:href="#f1_co" transform="matrix(11,0,0,11,598.9,71.2)" />
<use xlink:href="#f1_77" transform="matrix(11,0,0,11,610.9,71.2)" />
<use xlink:href="#f1_af" transform="matrix(11,0,0,11,619,71.2)" />
<use xlink:href="#f1_7v" transform="matrix(11,0,0,11,627.8,71.2)" />
<use xlink:href="#f1_ay" transform="matrix(11,0,0,11,641,71.2)" />
<use xlink:href="#f1_9n" transform="matrix(11,0,0,11,649.8,71.2)" />
<use xlink:href="#f1_co" transform="matrix(11,0,0,11,658.6,71.2)" />
<use xlink:href="#f1_b5" transform="matrix(11,0,0,11,666.3,71.2)" />
<use xlink:href="#f1_9q" transform="matrix(11,0,0,11,672.5,71.2)" />
<use xlink:href="#f1_am" transform="matrix(11,0,0,11,676.5,71.2)" />
<use xlink:href="#f1_a8" transform="matrix(11,0,0,11,685.4,71.2)" />
<use xlink:href="#f1_am" transform="matrix(11,0,0,11,689.4,71.2)" />
<use xlink:href="#f1_9d" transform="matrix(11,0,0,11,698.2,71.2)" />
<use xlink:href="#f1_9q" transform="matrix(11,0,0,11,705.9,71.2)" />
<use xlink:href="#f1_7l" transform="matrix(11,0,0,11,709.9,71.2)" />
<use xlink:href="#f1_77" transform="matrix(11,0,0,11,716.9,71.2)" />
<use xlink:href="#f1_a8" transform="matrix(11,0,0,11,724.9,71.2)" />
<use xlink:href="#f1_a8" transform="matrix(11,0,0,11,728.9,71.2)" />
<use xlink:href="#f1_co" transform="matrix(11,0,0,11,733,71.2)" />
<use xlink:href="#f1_7v" transform="matrix(11,0,0,11,745,71.2)" />
<use xlink:href="#f1_9q" transform="matrix(11,0,0,11,753.5,71.2)" />
<use xlink:href="#f1_b5" transform="matrix(11,0,0,11,757.5,71.2)" />
<use xlink:href="#f1_bf" transform="matrix(11,0,0,11,764.1,71.2)" />
<use xlink:href="#f1_9q" transform="matrix(11,0,0,11,769.6,71.2)" />
<use xlink:href="#f1_af" transform="matrix(11,0,0,11,773.6,71.2)" />
<use xlink:href="#f1_7l" transform="matrix(11,0,0,11,782.4,71.2)" />
<use xlink:href="#f1_bf" transform="matrix(11,0,0,11,789.4,71.2)" />
<use xlink:href="#f1_bf" transform="matrix(11,0,0,11,799.2,71.2)" />
<use xlink:href="#f1_co" transform="matrix(11,0,0,11,804.7,71.2)" />
<use xlink:href="#f1_ay" transform="matrix(11,0,0,11,812.4,71.2)" />
<use xlink:href="#f1_7z" transform="matrix(11,0,0,11,821.2,71.2)" />
<use xlink:href="#f1_b5" transform="matrix(11,0,0,11,829.6,71.2)" />
<use xlink:href="#f1_am" transform="matrix(11,0,0,11,841.1,71.2)" />
<use xlink:href="#f1_89" transform="matrix(11,0,0,11,849.9,71.2)" />
</g>
<path fill-rule="evenodd" d="M80.3,96.1H857.2V75.6H80.3V96.1Z" class="g0_11" />
<g fill="#1F3331" >
<use xlink:href="#f1_9d" transform="matrix(11,0,0,11,110,91.7)" />
<use xlink:href="#f1_77" transform="matrix(11,0,0,11,118.1,91.7)" />
<use xlink:href="#f1_ae" transform="matrix(11,0,0,11,126.2,91.7)" />
<use xlink:href="#f1_7z" transform="matrix(11,0,0,11,139.7,91.7)" />
<use xlink:href="#f1_bf" transform="matrix(11,0,0,11,148.1,91.7)" />
<use xlink:href="#f1_7z" transform="matrix(11,0,0,11,153.6,91.7)" />
<use xlink:href="#f1_b5" transform="matrix(11,0,0,11,162,91.7)" />
<use xlink:href="#f1_nt" transform="matrix(11,0,0,11,168.7,91.7)" />
<use xlink:href="#f1_2n" transform="matrix(11,0,0,11,178.2,91.7)" />
<use xlink:href="#f1_c6" transform="matrix(11,0,0,11,186,91.7)" />
<use xlink:href="#f1_7l" transform="matrix(11,0,0,11,194.7,91.7)" />
<use xlink:href="#f1_9n" transform="matrix(11,0,0,11,201.7,91.7)" />
<use xlink:href="#f1_9d" transform="matrix(11,0,0,11,215.6,91.7)" />
<use xlink:href="#f1_77" transform="matrix(11,0,0,11,223.7,91.7)" />
<use xlink:href="#f1_ae" transform="matrix(11,0,0,11,231.7,91.7)" />
<use xlink:href="#f1_7z" transform="matrix(11,0,0,11,245.4,91.7)" />
<use xlink:href="#f1_bf" transform="matrix(11,0,0,11,253.8,91.7)" />
<use xlink:href="#f1_7z" transform="matrix(11,0,0,11,259.3,91.7)" />
<use xlink:href="#f1_b5" transform="matrix(11,0,0,11,267.7,91.7)" />
<use xlink:href="#f1_77" transform="matrix(11,0,0,11,279.5,91.7)" />
<use xlink:href="#f1_b1" transform="matrix(11,0,0,11,287.6,91.7)" />
<use xlink:href="#f1_7z" transform="matrix(11,0,0,11,293.5,91.7)" />
<use xlink:href="#f1_7l" transform="matrix(11,0,0,11,307,91.7)" />
<use xlink:href="#f1_77" transform="matrix(11,0,0,11,313.9,91.7)" />
<use xlink:href="#f1_a8" transform="matrix(11,0,0,11,322,91.7)" />
<use xlink:href="#f1_a8" transform="matrix(11,0,0,11,326,91.7)" />
<use xlink:href="#f1_7z" transform="matrix(11,0,0,11,329.7,91.7)" />
<use xlink:href="#f1_7v" transform="matrix(11,0,0,11,338.1,91.7)" />
<use xlink:href="#f1_77" transform="matrix(11,0,0,11,352.2,91.7)" />
<use xlink:href="#f1_b5" transform="matrix(11,0,0,11,360.2,91.7)" />
<use xlink:href="#f2_9n" transform="matrix(11,0,0,11,372,91.7)" />
<use xlink:href="#f2_7z" transform="matrix(11,0,0,11,381.1,91.7)" />
<use xlink:href="#f2_bf" transform="matrix(11,0,0,11,389.5,91.7)" />
<use xlink:href="#f2_7z" transform="matrix(11,0,0,11,395.4,91.7)" />
<use xlink:href="#f2_b1" transform="matrix(11,0,0,11,403.9,91.7)" />
<use xlink:href="#f2_am" transform="matrix(11,0,0,11,409.7,91.7)" />
<use xlink:href="#f2_9d" transform="matrix(11,0,0,11,418.8,91.7)" />
<use xlink:href="#f2_77" transform="matrix(11,0,0,11,426.9,91.7)" />
<use xlink:href="#f2_ae" transform="matrix(11,0,0,11,435.3,91.7)" />
<use xlink:href="#f2_7z" transform="matrix(11,0,0,11,448.9,91.7)" />
<use xlink:href="#f2_bf" transform="matrix(11,0,0,11,457.3,91.7)" />
<use xlink:href="#f2_7z" transform="matrix(11,0,0,11,463.2,91.7)" />
<use xlink:href="#f2_b5" transform="matrix(11,0,0,11,471.6,91.7)" />
<use xlink:href="#f2_am" transform="matrix(11,0,0,11,483.3,91.7)" />
<use xlink:href="#f2_b1" transform="matrix(11,0,0,11,492.4,91.7)" />
<use xlink:href="#f2_77" transform="matrix(11,0,0,11,503.4,91.7)" />
<use xlink:href="#f2_af" transform="matrix(11,0,0,11,511.8,91.7)" />
<use xlink:href="#f2_9q" transform="matrix(11,0,0,11,521,91.7)" />
<use xlink:href="#f2_b5" transform="matrix(11,0,0,11,525,91.7)" />
<use xlink:href="#f2_am" transform="matrix(11,0,0,11,531.6,91.7)" />
<use xlink:href="#f2_9d" transform="matrix(11,0,0,11,540.8,91.7)" />
<use xlink:href="#f2_77" transform="matrix(11,0,0,11,548.8,91.7)" />
<use xlink:href="#f2_ae" transform="matrix(11,0,0,11,557.2,91.7)" />
<use xlink:href="#f2_7z" transform="matrix(11,0,0,11,570.8,91.7)" />
<use xlink:href="#f2_bf" transform="matrix(11,0,0,11,579.2,91.7)" />
<use xlink:href="#f2_7z" transform="matrix(11,0,0,11,585.1,91.7)" />
<use xlink:href="#f2_b5" transform="matrix(11,0,0,11,593.5,91.7)" />
<use xlink:href="#f1_nt" transform="matrix(11,0,0,11,600.5,91.7)" />
<use xlink:href="#f1_2t" transform="matrix(11,0,0,11,610,91.7)" />
<use xlink:href="#f1_9n" transform="matrix(11,0,0,11,618.1,91.7)" />
<use xlink:href="#f1_7z" transform="matrix(11,0,0,11,626.9,91.7)" />
<use xlink:href="#f2_ae" transform="matrix(11,0,0,11,640.5,91.7)" />
<use xlink:href="#f2_77" transform="matrix(11,0,0,11,654,91.7)" />
<use xlink:href="#f2_a8" transform="matrix(11,0,0,11,662.4,91.7)" />
<use xlink:href="#f2_7z" transform="matrix(11,0,0,11,666.5,91.7)" />
<use xlink:href="#f2_9d" transform="matrix(11,0,0,11,680,91.7)" />
<use xlink:href="#f2_77" transform="matrix(11,0,0,11,688.1,91.7)" />
<use xlink:href="#f2_ae" transform="matrix(11,0,0,11,696.5,91.7)" />
<use xlink:href="#f2_7z" transform="matrix(11,0,0,11,710,91.7)" />
<use xlink:href="#f2_bf" transform="matrix(11,0,0,11,718.5,91.7)" />
<use xlink:href="#f2_7z" transform="matrix(11,0,0,11,724.3,91.7)" />
<use xlink:href="#f2_b5" transform="matrix(11,0,0,11,732.8,91.7)" />
<use xlink:href="#f1_77" transform="matrix(11,0,0,11,744.6,91.7)" />
<use xlink:href="#f1_b1" transform="matrix(11,0,0,11,752.7,91.7)" />
<use xlink:href="#f1_7z" transform="matrix(11,0,0,11,758.6,91.7)" />
<use xlink:href="#f2_b5" transform="matrix(11,0,0,11,772.1,91.7)" />
<use xlink:href="#f2_ae" transform="matrix(11,0,0,11,779.1,91.7)" />
<use xlink:href="#f2_77" transform="matrix(11,0,0,11,792.6,91.7)" />
<use xlink:href="#f2_a8" transform="matrix(11,0,0,11,801.1,91.7)" />
<use xlink:href="#f2_a8" transform="matrix(11,0,0,11,805.1,91.7)" />
<use xlink:href="#f2_7z" transform="matrix(11,0,0,11,809.1,91.7)" />
<use xlink:href="#f2_b1" transform="matrix(11,0,0,11,817.5,91.7)" />
<use xlink:href="#f1_77" transform="matrix(11,0,0,11,828.6,91.7)" />
<use xlink:href="#f1_af" transform="matrix(11,0,0,11,836.7,91.7)" />
<use xlink:href="#f1_7v" transform="matrix(11,0,0,11,845.5,91.7)" />
</g>
<path fill-rule="evenodd" d="M80.3,116.6H857.2V96.1H80.3v20.5Z" class="g0_11" />
<g fill="#1F3331" >
<use xlink:href="#f1_ae" transform="matrix(11,0,0,11,110,112.2)" />
<use xlink:href="#f1_am" transform="matrix(11,0,0,11,123.6,112.2)" />
<use xlink:href="#f1_b1" transform="matrix(11,0,0,11,132.4,112.2)" />
<use xlink:href="#f1_7z" transform="matrix(11,0,0,11,138.3,112.2)" />
<use xlink:href="#f1_77" transform="matrix(11,0,0,11,151.1,112.2)" />
<use xlink:href="#f1_7l" transform="matrix(11,0,0,11,159.2,112.2)" />
<use xlink:href="#f1_bf" transform="matrix(11,0,0,11,166.1,112.2)" />
<use xlink:href="#f1_9q" transform="matrix(11,0,0,11,171.6,112.2)" />
<use xlink:href="#f1_ch" transform="matrix(11,0,0,11,175.6,112.2)" />
<use xlink:href="#f1_7z" transform="matrix(11,0,0,11,183.3,112.2)" />
<use xlink:href="#f1_ci" transform="matrix(11,0,0,11,196.2,112.2)" />
<use xlink:href="#f1_9n" transform="matrix(11,0,0,11,208.3,112.2)" />
<use xlink:href="#f1_7z" transform="matrix(11,0,0,11,217.2,112.2)" />
<use xlink:href="#f1_b1" transform="matrix(11,0,0,11,225.6,112.2)" />
<use xlink:href="#f1_7z" transform="matrix(11,0,0,11,231.4,112.2)" />
<use xlink:href="#f1_77" transform="matrix(11,0,0,11,239.8,112.2)" />
<use xlink:href="#f1_b5" transform="matrix(11,0,0,11,247.9,112.2)" />
<use xlink:href="#f1_bf" transform="matrix(11,0,0,11,259,112.2)" />
<use xlink:href="#f1_9n" transform="matrix(11,0,0,11,264.5,112.2)" />
<use xlink:href="#f1_7z" transform="matrix(11,0,0,11,273.3,112.2)" />
<use xlink:href="#f2_89" transform="matrix(11,0,0,11,285.7,112.2)" />
<use xlink:href="#f2_7z" transform="matrix(11,0,0,11,291.2,112.2)" />
<use xlink:href="#f2_ae" transform="matrix(11,0,0,11,299.7,112.2)" />
<use xlink:href="#f2_77" transform="matrix(11,0,0,11,313.2,112.2)" />
<use xlink:href="#f2_a8" transform="matrix(11,0,0,11,321.6,112.2)" />
<use xlink:href="#f2_7z" transform="matrix(11,0,0,11,325.7,112.2)" />
<use xlink:href="#f2_9d" transform="matrix(11,0,0,11,338.5,112.2)" />
<use xlink:href="#f2_77" transform="matrix(11,0,0,11,346.5,112.2)" />
<use xlink:href="#f2_ae" transform="matrix(11,0,0,11,354.9,112.2)" />
<use xlink:href="#f2_7z" transform="matrix(11,0,0,11,368.5,112.2)" />
<use xlink:href="#f2_bf" transform="matrix(11,0,0,11,376.9,112.2)" />
<use xlink:href="#f2_7z" transform="matrix(11,0,0,11,382.8,112.2)" />
<use xlink:href="#f2_b5" transform="matrix(11,0,0,11,391.3,112.2)" />
<use xlink:href="#f1_77" transform="matrix(11,0,0,11,402.4,112.2)" />
<use xlink:href="#f1_b1" transform="matrix(11,0,0,11,410.5,112.2)" />
<use xlink:href="#f1_7z" transform="matrix(11,0,0,11,416.4,112.2)" />
<use xlink:href="#f2_a8" transform="matrix(11,0,0,11,429.2,112.2)" />
<use xlink:href="#f2_77" transform="matrix(11,0,0,11,433.2,112.2)" />
<use xlink:href="#f2_b1" transform="matrix(11,0,0,11,441.6,112.2)" />
<use xlink:href="#f2_9d" transform="matrix(11,0,0,11,447.5,112.2)" />
<use xlink:href="#f2_7z" transform="matrix(11,0,0,11,455.5,112.2)" />
<use xlink:href="#f2_b1" transform="matrix(11,0,0,11,464,112.2)" />
<use xlink:href="#f2_77" transform="matrix(11,0,0,11,474.2,112.2)" />
<use xlink:href="#f2_af" transform="matrix(11,0,0,11,482.3,112.2)" />
<use xlink:href="#f2_7v" transform="matrix(11,0,0,11,491.4,112.2)" />
<use xlink:href="#f2_b5" transform="matrix(11,0,0,11,505,112.2)" />
<use xlink:href="#f2_a8" transform="matrix(11,0,0,11,511.6,112.2)" />
<use xlink:href="#f2_c6" transform="matrix(11,0,0,11,515.6,112.2)" />
<use xlink:href="#f2_9d" transform="matrix(11,0,0,11,524.7,112.2)" />
<use xlink:href="#f2_9d" transform="matrix(11,0,0,11,532.8,112.2)" />
<use xlink:href="#f2_9q" transform="matrix(11,0,0,11,540.8,112.2)" />
<use xlink:href="#f2_b5" transform="matrix(11,0,0,11,544.9,112.2)" />
<use xlink:href="#f2_9n" transform="matrix(11,0,0,11,551.4,112.2)" />
<use xlink:href="#f1_nt" transform="matrix(11,0,0,11,560.8,112.2)" />
<use xlink:href="#f1_2t" transform="matrix(11,0,0,11,569.6,112.2)" />
<use xlink:href="#f1_9n" transform="matrix(11,0,0,11,577.7,112.2)" />
<use xlink:href="#f1_7z" transform="matrix(11,0,0,11,586.5,112.2)" />
<use xlink:href="#f1_ae" transform="matrix(11,0,0,11,599,112.2)" />
<use xlink:href="#f1_77" transform="matrix(11,0,0,11,612.5,112.2)" />
<use xlink:href="#f1_a8" transform="matrix(11,0,0,11,620.6,112.2)" />
<use xlink:href="#f1_7z" transform="matrix(11,0,0,11,624.6,112.2)" />
<use xlink:href="#f1_9d" transform="matrix(11,0,0,11,637,112.2)" />
<use xlink:href="#f1_77" transform="matrix(11,0,0,11,645.1,112.2)" />
<use xlink:href="#f1_ae" transform="matrix(11,0,0,11,653.2,112.2)" />
<use xlink:href="#f1_7z" transform="matrix(11,0,0,11,666.7,112.2)" />
<use xlink:href="#f1_bf" transform="matrix(11,0,0,11,675.1,112.2)" />
<use xlink:href="#f1_7z" transform="matrix(11,0,0,11,680.6,112.2)" />
<use xlink:href="#f1_b5" transform="matrix(11,0,0,11,689,112.2)" />
<use xlink:href="#f1_9q" transform="matrix(11,0,0,11,699.7,112.2)" />
<use xlink:href="#f1_b5" transform="matrix(11,0,0,11,703.7,112.2)" />
<use xlink:href="#f1_7l" transform="matrix(11,0,0,11,714.7,112.2)" />
<use xlink:href="#f1_77" transform="matrix(11,0,0,11,721.6,112.2)" />
<use xlink:href="#f1_a8" transform="matrix(11,0,0,11,729.7,112.2)" />
<use xlink:href="#f1_a8" transform="matrix(11,0,0,11,733.7,112.2)" />
<use xlink:href="#f1_7z" transform="matrix(11,0,0,11,737.4,112.2)" />
<use xlink:href="#f1_7v" transform="matrix(11,0,0,11,745.8,112.2)" />
<use xlink:href="#f2_77" transform="matrix(11,0,0,11,759.3,112.2)" />
<use xlink:href="#f2_af" transform="matrix(11,0,0,11,767.7,112.2)" />
<use xlink:href="#f2_bf" transform="matrix(11,0,0,11,776.8,112.2)" />
<use xlink:href="#f2_9n" transform="matrix(11,0,0,11,782.3,112.2)" />
<use xlink:href="#f2_b1" transform="matrix(11,0,0,11,791.5,112.2)" />
<use xlink:href="#f2_am" transform="matrix(11,0,0,11,797.4,112.2)" />
<use xlink:href="#f2_ct" transform="matrix(11,0,0,11,806.5,112.2)" />
<use xlink:href="#f2_am" transform="matrix(11,0,0,11,813.1,112.2)" />
<use xlink:href="#f2_9q" transform="matrix(11,0,0,11,822.2,112.2)" />
<use xlink:href="#f2_7v" transform="matrix(11,0,0,11,826.3,112.2)" />
<use xlink:href="#f2_am" transform="matrix(11,0,0,11,839.8,112.2)" />
<use xlink:href="#f2_b1" transform="matrix(11,0,0,11,848.9,112.2)" />
</g>
<path fill-rule="evenodd" d="M80.3,137.2H857.2V116.6H80.3v20.6Z" class="g0_11" />
<g fill="#1F3331" >
<use xlink:href="#f2_b5" transform="matrix(11,0,0,11,110,132.8)" />
<use xlink:href="#f2_ay" transform="matrix(11,0,0,11,116.6,132.8)" />
<use xlink:href="#f2_7z" transform="matrix(11,0,0,11,125.8,132.8)" />
<use xlink:href="#f2_b1" transform="matrix(11,0,0,11,134.2,132.8)" />
<use xlink:href="#f2_ae" transform="matrix(11,0,0,11,140.1,132.8)" />
<use xlink:href="#f1_77" transform="matrix(11,0,0,11,157.4,132.8)" />
<use xlink:href="#f1_af" transform="matrix(11,0,0,11,165.5,132.8)" />
<use xlink:href="#f1_7v" transform="matrix(11,0,0,11,174.2,132.8)" />
<use xlink:href="#f1_bf" transform="matrix(11,0,0,11,187.1,132.8)" />
<use xlink:href="#f1_9n" transform="matrix(11,0,0,11,192.6,132.8)" />
<use xlink:href="#f1_7z" transform="matrix(11,0,0,11,201.4,132.8)" />
<use xlink:href="#f1_89" transform="matrix(11,0,0,11,213.5,132.8)" />
<use xlink:href="#f1_7z" transform="matrix(11,0,0,11,218.6,132.8)" />
<use xlink:href="#f1_ae" transform="matrix(11,0,0,11,227,132.8)" />
<use xlink:href="#f1_77" transform="matrix(11,0,0,11,240.6,132.8)" />
<use xlink:href="#f1_a8" transform="matrix(11,0,0,11,248.7,132.8)" />
<use xlink:href="#f1_7z" transform="matrix(11,0,0,11,252.7,132.8)" />
<use xlink:href="#f1_9d" transform="matrix(11,0,0,11,264.7,132.8)" />
<use xlink:href="#f1_77" transform="matrix(11,0,0,11,272.8,132.8)" />
<use xlink:href="#f1_ae" transform="matrix(11,0,0,11,280.9,132.8)" />
<use xlink:href="#f1_7z" transform="matrix(11,0,0,11,294.4,132.8)" />
<use xlink:href="#f1_bf" transform="matrix(11,0,0,11,302.8,132.8)" />
<use xlink:href="#f1_7z" transform="matrix(11,0,0,11,308.3,132.8)" />
<use xlink:href="#f1_9q" transform="matrix(11,0,0,11,320.4,132.8)" />
<use xlink:href="#f1_b5" transform="matrix(11,0,0,11,324.5,132.8)" />
<use xlink:href="#f1_7l" transform="matrix(11,0,0,11,334.7,132.8)" />
<use xlink:href="#f1_77" transform="matrix(11,0,0,11,341.7,132.8)" />
<use xlink:href="#f1_a8" transform="matrix(11,0,0,11,349.8,132.8)" />
<use xlink:href="#f1_a8" transform="matrix(11,0,0,11,353.8,132.8)" />
<use xlink:href="#f1_7z" transform="matrix(11,0,0,11,357.4,132.8)" />
<use xlink:href="#f1_7v" transform="matrix(11,0,0,11,365.8,132.8)" />
<use xlink:href="#f2_7z" transform="matrix(11,0,0,11,378.6,132.8)" />
<use xlink:href="#f2_9d" transform="matrix(11,0,0,11,387,132.8)" />
<use xlink:href="#f2_9d" transform="matrix(11,0,0,11,395,132.8)" />
<use xlink:href="#f2_am" transform="matrix(11,0,0,11,406.7,132.8)" />
<use xlink:href="#f2_b1" transform="matrix(11,0,0,11,415.9,132.8)" />
<use xlink:href="#f2_am" transform="matrix(11,0,0,11,425.4,132.8)" />
<use xlink:href="#f2_ch" transform="matrix(11,0,0,11,434.5,132.8)" />
<use xlink:href="#f2_c6" transform="matrix(11,0,0,11,442.6,132.8)" />
<use xlink:href="#f2_ae" transform="matrix(11,0,0,11,451.7,132.8)" />
<use xlink:href="#f1_nt" transform="matrix(11,0,0,11,465.5,132.8)" />
</g>
<path fill-rule="evenodd" d="M80.3,157.7H857.2V137.2H80.3v20.5Z" class="g0_11" />
<g fill="#1F3331" >
<use xlink:href="#f0_3d" transform="matrix(10.1,0,0,10.1,82.5,153.3)" />
<use xlink:href="#f1_14" transform="matrix(11,0,0,11,110,153.3)" />
<use xlink:href="#f1_77" transform="matrix(11,0,0,11,120.7,153.3)" />
<use xlink:href="#f1_ae" transform="matrix(11,0,0,11,128.8,153.3)" />
<use xlink:href="#f1_7z" transform="matrix(11,0,0,11,142.3,153.3)" />
<use xlink:href="#f1_bf" transform="matrix(11,0,0,11,150.7,153.3)" />
<use xlink:href="#f1_7z" transform="matrix(11,0,0,11,156.2,153.3)" />
<use xlink:href="#f1_b5" transform="matrix(11,0,0,11,164.6,153.3)" />
<use xlink:href="#f1_77" transform="matrix(11,0,0,11,178.2,153.3)" />
<use xlink:href="#f1_b1" transform="matrix(11,0,0,11,186.3,153.3)" />
<use xlink:href="#f1_7z" transform="matrix(11,0,0,11,192.2,153.3)" />
<use xlink:href="#f1_77" transform="matrix(11,0,0,11,207.6,153.3)" />
<use xlink:href="#f1_a8" transform="matrix(11,0,0,11,215.7,153.3)" />
<use xlink:href="#f1_ci" transform="matrix(11,0,0,11,219.7,153.3)" />
<use xlink:href="#f1_77" transform="matrix(11,0,0,11,231.7,153.3)" />
<use xlink:href="#f1_co" transform="matrix(11,0,0,11,239.8,153.3)" />
<use xlink:href="#f1_b5" transform="matrix(11,0,0,11,247.5,153.3)" />
<use xlink:href="#f1_9n" transform="matrix(11,0,0,11,261.1,153.3)" />
<use xlink:href="#f1_77" transform="matrix(11,0,0,11,269.9,153.3)" />
<use xlink:href="#f1_ay" transform="matrix(11,0,0,11,278,153.3)" />
<use xlink:href="#f1_a8" transform="matrix(11,0,0,11,286.7,153.3)" />
<use xlink:href="#f1_am" transform="matrix(11,0,0,11,290.8,153.3)" />
<use xlink:href="#f1_9q" transform="matrix(11,0,0,11,299.6,153.3)" />
<use xlink:href="#f1_7v" transform="matrix(11,0,0,11,303.6,153.3)" />
<use xlink:href="#f1_b5" transform="matrix(11,0,0,11,312.4,153.3)" />
<use xlink:href="#f1_nt" transform="matrix(11,0,0,11,319,153.3)" />
<use xlink:href="#f1_2t" transform="matrix(11,0,0,11,330.3,153.3)" />
<use xlink:href="#f1_9n" transform="matrix(11,0,0,11,338.6,153.3)" />
<use xlink:href="#f1_7z" transform="matrix(11,0,0,11,347.4,153.3)" />
<use xlink:href="#f1_ay" transform="matrix(11,0,0,11,362.8,153.3)" />
<use xlink:href="#f1_77" transform="matrix(11,0,0,11,371.6,153.3)" />
<use xlink:href="#f1_b1" transform="matrix(11,0,0,11,379.7,153.3)" />
<use xlink:href="#f1_7z" transform="matrix(11,0,0,11,385.5,153.3)" />
<use xlink:href="#f1_af" transform="matrix(11,0,0,11,393.9,153.3)" />
<use xlink:href="#f1_bf" transform="matrix(11,0,0,11,402.7,153.3)" />
<use xlink:href="#f1_ae" transform="matrix(11,0,0,11,415.6,153.3)" />
<use xlink:href="#f1_77" transform="matrix(11,0,0,11,429.2,153.3)" />
<use xlink:href="#f1_co" transform="matrix(11,0,0,11,437.2,153.3)" />
<use xlink:href="#f1_7k" transform="matrix(11,0,0,11,451.9,153.3)" />
<use xlink:href="#f1_7z" transform="matrix(11,0,0,11,460.7,153.3)" />
<use xlink:href="#f1_7z" transform="matrix(11,0,0,11,476.1,153.3)" />
<use xlink:href="#f1_9q" transform="matrix(11,0,0,11,484.9,153.3)" />
<use xlink:href="#f1_bf" transform="matrix(11,0,0,11,488.9,153.3)" />
<use xlink:href="#f1_9n" transform="matrix(11,0,0,11,494.4,153.3)" />
<use xlink:href="#f1_7z" transform="matrix(11,0,0,11,503.2,153.3)" />
<use xlink:href="#f1_b1" transform="matrix(11,0,0,11,511.6,153.3)" />
<use xlink:href="#f1_9n" transform="matrix(11,0,0,11,524.5,153.3)" />
<use xlink:href="#f1_77" transform="matrix(11,0,0,11,533.3,153.3)" />
<use xlink:href="#f1_ay" transform="matrix(11,0,0,11,541.3,153.3)" />
<use xlink:href="#f1_a8" transform="matrix(11,0,0,11,550.1,153.3)" />
<use xlink:href="#f1_am" transform="matrix(11,0,0,11,554.1,153.3)" />
<use xlink:href="#f1_9q" transform="matrix(11,0,0,11,563,153.3)" />
<use xlink:href="#f1_7v" transform="matrix(11,0,0,11,567,153.3)" />
<use xlink:href="#f1_am" transform="matrix(11,0,0,11,582.7,153.3)" />
<use xlink:href="#f1_b1" transform="matrix(11,0,0,11,591.5,153.3)" />
<use xlink:href="#f1_7v" transform="matrix(11,0,0,11,604.3,153.3)" />
<use xlink:href="#f1_9q" transform="matrix(11,0,0,11,613.1,153.3)" />
<use xlink:href="#f1_ay" transform="matrix(11,0,0,11,617.2,153.3)" />
<use xlink:href="#f1_a8" transform="matrix(11,0,0,11,626,153.3)" />
<use xlink:href="#f1_am" transform="matrix(11,0,0,11,630,153.3)" />
<use xlink:href="#f1_9q" transform="matrix(11,0,0,11,638.8,153.3)" />
<use xlink:href="#f1_7v" transform="matrix(11,0,0,11,642.8,153.3)" />
<use xlink:href="#f1_nt" transform="matrix(11,0,0,11,651.6,153.3)" />
<use xlink:href="#f1_5" transform="matrix(11,0,0,11,662.9,153.3)" />
<use xlink:href="#f1_9n" transform="matrix(11,0,0,11,679.8,153.3)" />
<use xlink:href="#f1_77" transform="matrix(11,0,0,11,688.6,153.3)" />
<use xlink:href="#f1_ay" transform="matrix(11,0,0,11,696.7,153.3)" />
<use xlink:href="#f1_a8" transform="matrix(11,0,0,11,705.4,153.3)" />
<use xlink:href="#f1_am" transform="matrix(11,0,0,11,709.5,153.3)" />
<use xlink:href="#f1_9q" transform="matrix(11,0,0,11,718.3,153.3)" />
<use xlink:href="#f1_7v" transform="matrix(11,0,0,11,722.3,153.3)" />
<use xlink:href="#f1_ay" transform="matrix(11,0,0,11,738,153.3)" />
<use xlink:href="#f1_77" transform="matrix(11,0,0,11,746.8,153.3)" />
<use xlink:href="#f1_b1" transform="matrix(11,0,0,11,754.9,153.3)" />
<use xlink:href="#f1_7z" transform="matrix(11,0,0,11,760.8,153.3)" />
<use xlink:href="#f1_af" transform="matrix(11,0,0,11,769.2,153.3)" />
<use xlink:href="#f1_bf" transform="matrix(11,0,0,11,778,153.3)" />
<use xlink:href="#f1_ay" transform="matrix(11,0,0,11,790.8,153.3)" />
<use xlink:href="#f1_b1" transform="matrix(11,0,0,11,799.6,153.3)" />
<use xlink:href="#f1_am" transform="matrix(11,0,0,11,805.5,153.3)" />
<use xlink:href="#f1_7v" transform="matrix(11,0,0,11,814.3,153.3)" />
<use xlink:href="#f1_c6" transform="matrix(11,0,0,11,823.1,153.3)" />
<use xlink:href="#f1_7l" transform="matrix(11,0,0,11,832.2,153.3)" />
<use xlink:href="#f1_7z" transform="matrix(11,0,0,11,839.2,153.3)" />
<use xlink:href="#f1_b5" transform="matrix(11,0,0,11,847.6,153.3)" />
</g>
<path fill-rule="evenodd" d="M80.3,178.2H857.2V157.7H80.3v20.5Z" class="g0_11" />
<g fill="#1F3331" >
<use xlink:href="#f1_9n" transform="matrix(11,0,0,11,110,173.8)" />
<use xlink:href="#f1_77" transform="matrix(11,0,0,11,118.8,173.8)" />
<use xlink:href="#f1_ay" transform="matrix(11,0,0,11,126.9,173.8)" />
<use xlink:href="#f1_a8" transform="matrix(11,0,0,11,135.7,173.8)" />
<use xlink:href="#f1_am" transform="matrix(11,0,0,11,139.7,173.8)" />
<use xlink:href="#f1_9q" transform="matrix(11,0,0,11,148.5,173.8)" />
<use xlink:href="#f1_7v" transform="matrix(11,0,0,11,152.5,173.8)" />
<use xlink:href="#f1_9d" transform="matrix(11,0,0,11,165.1,173.8)" />
<use xlink:href="#f1_77" transform="matrix(11,0,0,11,173.1,173.8)" />
<use xlink:href="#f1_ae" transform="matrix(11,0,0,11,181.2,173.8)" />
<use xlink:href="#f1_7z" transform="matrix(11,0,0,11,194.7,173.8)" />
<use xlink:href="#f1_bf" transform="matrix(11,0,0,11,203.1,173.8)" />
<use xlink:href="#f1_7z" transform="matrix(11,0,0,11,208.7,173.8)" />
<use xlink:href="#f1_b5" transform="matrix(11,0,0,11,217.1,173.8)" />
<use xlink:href="#f1_7k" transform="matrix(11,0,0,11,227.4,173.8)" />
<use xlink:href="#f1_co" transform="matrix(11,0,0,11,236.2,173.8)" />
<use xlink:href="#f1_ae" transform="matrix(11,0,0,11,247.5,173.8)" />
<use xlink:href="#f1_9q" transform="matrix(11,0,0,11,260.7,173.8)" />
<use xlink:href="#f1_bf" transform="matrix(11,0,0,11,264.8,173.8)" />
<use xlink:href="#f1_am" transform="matrix(11,0,0,11,270.3,173.8)" />
<use xlink:href="#f1_bf" transform="matrix(11,0,0,11,279.1,173.8)" />
<use xlink:href="#f1_9q" transform="matrix(11,0,0,11,284.6,173.8)" />
<use xlink:href="#f1_7l" transform="matrix(11,0,0,11,288.6,173.8)" />
<use xlink:href="#f1_7v" transform="matrix(11,0,0,11,299.2,173.8)" />
<use xlink:href="#f1_9q" transform="matrix(11,0,0,11,308,173.8)" />
<use xlink:href="#f1_ch" transform="matrix(11,0,0,11,312,173.8)" />
<use xlink:href="#f1_9q" transform="matrix(11,0,0,11,319.7,173.8)" />
<use xlink:href="#f1_b5" transform="matrix(11,0,0,11,323.7,173.8)" />
<use xlink:href="#f1_9q" transform="matrix(11,0,0,11,330.3,173.8)" />
<use xlink:href="#f1_am" transform="matrix(11,0,0,11,334.3,173.8)" />
<use xlink:href="#f1_af" transform="matrix(11,0,0,11,343.1,173.8)" />
<use xlink:href="#f1_nt" transform="matrix(11,0,0,11,351.9,173.8)" />
</g>
<path fill-rule="evenodd" d="M80.3,198.8H857.2V178.2H80.3v20.6Z" class="g0_11" />
<g fill="#1F3331" >
<use xlink:href="#f0_3d" transform="matrix(10.1,0,0,10.1,82.5,194.4)" />
<use xlink:href="#f1_2n" transform="matrix(11,0,0,11,110,194.4)" />
<use xlink:href="#f1_7z" transform="matrix(11,0,0,11,117.8,194.4)" />
<use xlink:href="#f1_ch" transform="matrix(11,0,0,11,126.2,194.4)" />
<use xlink:href="#f1_7z" transform="matrix(11,0,0,11,133.9,194.4)" />
<use xlink:href="#f1_b1" transform="matrix(11,0,0,11,142.3,194.4)" />
<use xlink:href="#f1_77" transform="matrix(11,0,0,11,148.1,194.4)" />
<use xlink:href="#f1_a8" transform="matrix(11,0,0,11,156.2,194.4)" />
<use xlink:href="#f1_am" transform="matrix(11,0,0,11,165,194.4)" />
<use xlink:href="#f1_b1" transform="matrix(11,0,0,11,173.8,194.4)" />
<use xlink:href="#f1_9d" transform="matrix(11,0,0,11,179.7,194.4)" />
<use xlink:href="#f1_77" transform="matrix(11,0,0,11,187.7,194.4)" />
<use xlink:href="#f1_af" transform="matrix(11,0,0,11,195.8,194.4)" />
<use xlink:href="#f1_9q" transform="matrix(11,0,0,11,204.6,194.4)" />
<use xlink:href="#f1_b5" transform="matrix(11,0,0,11,208.2,194.4)" />
<use xlink:href="#f1_ae" transform="matrix(11,0,0,11,214.8,194.4)" />
<use xlink:href="#f1_7k" transform="matrix(11,0,0,11,233.1,194.4)" />
<use xlink:href="#f1_7z" transform="matrix(11,0,0,11,242,194.4)" />
<use xlink:href="#f1_a8" transform="matrix(11,0,0,11,250.4,194.4)" />
<use xlink:href="#f1_am" transform="matrix(11,0,0,11,254.4,194.4)" />
<use xlink:href="#f1_af" transform="matrix(11,0,0,11,263.2,194.4)" />
<use xlink:href="#f1_9d" transform="matrix(11,0,0,11,272,194.4)" />
<use xlink:href="#f1_9q" transform="matrix(11,0,0,11,279.7,194.4)" />
<use xlink:href="#f1_af" transform="matrix(11,0,0,11,283.7,194.4)" />
<use xlink:href="#f1_9d" transform="matrix(11,0,0,11,292.5,194.4)" />
<use xlink:href="#f1_bf" transform="matrix(11,0,0,11,305.3,194.4)" />
<use xlink:href="#f1_am" transform="matrix(11,0,0,11,310.8,194.4)" />
<use xlink:href="#f1_1x" transform="matrix(11,0,0,11,324.4,194.4)" />
<use xlink:href="#f1_am" transform="matrix(11,0,0,11,338.7,194.4)" />
<use xlink:href="#f1_af" transform="matrix(11,0,0,11,347.5,194.4)" />
<use xlink:href="#f1_7z" transform="matrix(11,0,0,11,356.3,194.4)" />
<use xlink:href="#f1_b1" transform="matrix(11,0,0,11,364.7,194.4)" />
<use xlink:href="#f1_77" transform="matrix(11,0,0,11,370.6,194.4)" />
<use xlink:href="#f1_nq" transform="matrix(11,0,0,11,378.7,194.4)" />
<use xlink:href="#f1_13" transform="matrix(11,0,0,11,387.8,194.4)" />
<use xlink:href="#f1_c6" transform="matrix(11,0,0,11,395.6,194.4)" />
<use xlink:href="#f1_af" transform="matrix(11,0,0,11,404.3,194.4)" />
<use xlink:href="#f1_9d" transform="matrix(11,0,0,11,413.1,194.4)" />
<use xlink:href="#f1_9q" transform="matrix(11,0,0,11,421.2,194.4)" />
<use xlink:href="#f1_nq" transform="matrix(11,0,0,11,425.2,194.4)" />
<use xlink:href="#f1_5" transform="matrix(11,0,0,11,434,194.4)" />
<use xlink:href="#f1_a8" transform="matrix(11,0,0,11,443.8,194.4)" />
<use xlink:href="#f1_9d" transform="matrix(11,0,0,11,447.9,194.4)" />
<use xlink:href="#f1_77" transform="matrix(11,0,0,11,455.9,194.4)" />
<use xlink:href="#f1_7z" transform="matrix(11,0,0,11,464,194.4)" />
<use xlink:href="#f1_77" transform="matrix(11,0,0,11,477.2,194.4)" />
<use xlink:href="#f1_af" transform="matrix(11,0,0,11,485.2,194.4)" />
<use xlink:href="#f1_7v" transform="matrix(11,0,0,11,494,194.4)" />
<use xlink:href="#f1_i" transform="matrix(11,0,0,11,507.6,194.4)" />
<use xlink:href="#f1_b1" transform="matrix(11,0,0,11,516.8,194.4)" />
<use xlink:href="#f1_co" transform="matrix(11,0,0,11,522.6,194.4)" />
<use xlink:href="#f1_am" transform="matrix(11,0,0,11,530.3,194.4)" />
<use xlink:href="#f1_ay" transform="matrix(11,0,0,11,539.1,194.4)" />
<use xlink:href="#f1_9n" transform="matrix(11,0,0,11,547.9,194.4)" />
<use xlink:href="#f1_co" transform="matrix(11,0,0,11,556.7,194.4)" />
<use xlink:href="#f1_bf" transform="matrix(11,0,0,11,564.4,194.4)" />
<use xlink:href="#f1_77" transform="matrix(11,0,0,11,569.9,194.4)" />
<use xlink:href="#f1_nq" transform="matrix(11,0,0,11,578,194.4)" />
<use xlink:href="#f1_14" transform="matrix(11,0,0,11,587.1,194.4)" />
<use xlink:href="#f1_co" transform="matrix(11,0,0,11,597.8,194.4)" />
<use xlink:href="#f1_ae" transform="matrix(11,0,0,11,605.4,194.4)" />
<use xlink:href="#f1_af" transform="matrix(11,0,0,11,619,194.4)" />
<use xlink:href="#f1_am" transform="matrix(11,0,0,11,627.8,194.4)" />
<use xlink:href="#f1_b5" transform="matrix(11,0,0,11,636.6,194.4)" />
<use xlink:href="#f1_ay" transform="matrix(11,0,0,11,643.2,194.4)" />
<use xlink:href="#f1_7z" transform="matrix(11,0,0,11,652.1,194.4)" />
<use xlink:href="#f1_b1" transform="matrix(11,0,0,11,660.5,194.4)" />
<use xlink:href="#f1_ae" transform="matrix(11,0,0,11,666.4,194.4)" />
<use xlink:href="#f1_b5" transform="matrix(11,0,0,11,679.9,194.4)" />
<use xlink:href="#f1_nq" transform="matrix(11,0,0,11,686.5,194.4)" />
<use xlink:href="#f1_5" transform="matrix(11,0,0,11,695.2,194.4)" />
<use xlink:href="#f1_af" transform="matrix(11,0,0,11,705.1,194.4)" />
<use xlink:href="#f1_9d" transform="matrix(11,0,0,11,713.9,194.4)" />
<use xlink:href="#f1_9q" transform="matrix(11,0,0,11,722,194.4)" />
<use xlink:href="#f1_am" transform="matrix(11,0,0,11,726,194.4)" />
<use xlink:href="#f1_b5" transform="matrix(11,0,0,11,734.8,194.4)" />
<use xlink:href="#f1_ay" transform="matrix(11,0,0,11,741.4,194.4)" />
<use xlink:href="#f1_7z" transform="matrix(11,0,0,11,750.2,194.4)" />
<use xlink:href="#f1_b1" transform="matrix(11,0,0,11,758.6,194.4)" />
<use xlink:href="#f1_ae" transform="matrix(11,0,0,11,765.2,194.4)" />
<use xlink:href="#f1_b5" transform="matrix(11,0,0,11,778.4,194.4)" />
<use xlink:href="#f1_77" transform="matrix(11,0,0,11,789.7,194.4)" />
<use xlink:href="#f1_af" transform="matrix(11,0,0,11,797.8,194.4)" />
<use xlink:href="#f1_7v" transform="matrix(11,0,0,11,806.6,194.4)" />
<use xlink:href="#f1_ae" transform="matrix(11,0,0,11,820.1,194.4)" />
<use xlink:href="#f1_am" transform="matrix(11,0,0,11,833.7,194.4)" />
<use xlink:href="#f1_b5" transform="matrix(11,0,0,11,842.5,194.4)" />
<use xlink:href="#f1_bf" transform="matrix(11,0,0,11,849.1,194.4)" />
</g>
<path fill-rule="evenodd" d="M80.3,219.3H857.2V198.8H80.3v20.5Z" class="g0_11" />
<g fill="#1F3331" >
<use xlink:href="#f1_am" transform="matrix(11,0,0,11,110,214.9)" />
<use xlink:href="#f1_89" transform="matrix(11,0,0,11,118.8,214.9)" />
<use xlink:href="#f1_bf" transform="matrix(11,0,0,11,127.6,214.9)" />
<use xlink:href="#f1_9n" transform="matrix(11,0,0,11,133.1,214.9)" />
<use xlink:href="#f1_7z" transform="matrix(11,0,0,11,141.9,214.9)" />
<use xlink:href="#f1_77" transform="matrix(11,0,0,11,154,214.9)" />
<use xlink:href="#f1_af" transform="matrix(11,0,0,11,162.1,214.9)" />
<use xlink:href="#f1_9q" transform="matrix(11,0,0,11,170.9,214.9)" />
<use xlink:href="#f1_ae" transform="matrix(11,0,0,11,174.9,214.9)" />
<use xlink:href="#f1_77" transform="matrix(11,0,0,11,188.5,214.9)" />
<use xlink:href="#f1_a8" transform="matrix(11,0,0,11,196.5,214.9)" />
<use xlink:href="#f1_b5" transform="matrix(11,0,0,11,200.5,214.9)" />
<use xlink:href="#f1_77" transform="matrix(11,0,0,11,210.8,214.9)" />
<use xlink:href="#f1_b1" transform="matrix(11,0,0,11,218.9,214.9)" />
<use xlink:href="#f1_7z" transform="matrix(11,0,0,11,224.8,214.9)" />
<use xlink:href="#f1_7v" transform="matrix(11,0,0,11,237,214.9)" />
<use xlink:href="#f1_9q" transform="matrix(11,0,0,11,245.8,214.9)" />
<use xlink:href="#f1_ay" transform="matrix(11,0,0,11,249.8,214.9)" />
<use xlink:href="#f1_a8" transform="matrix(11,0,0,11,258.6,214.9)" />
<use xlink:href="#f1_am" transform="matrix(11,0,0,11,262.6,214.9)" />
<use xlink:href="#f1_9q" transform="matrix(11,0,0,11,271.4,214.9)" />
<use xlink:href="#f1_7v" transform="matrix(11,0,0,11,275.4,214.9)" />
<use xlink:href="#f1_nt" transform="matrix(11,0,0,11,284.2,214.9)" />
<use xlink:href="#f1_19" transform="matrix(11,0,0,11,292.3,214.9)" />
<use xlink:href="#f1_7z" transform="matrix(11,0,0,11,302.6,214.9)" />
<use xlink:href="#f1_b1" transform="matrix(11,0,0,11,311,214.9)" />
<use xlink:href="#f1_7z" transform="matrix(11,0,0,11,316.9,214.9)" />
<use xlink:href="#f1_ae" transform="matrix(11,0,0,11,329,214.9)" />
<use xlink:href="#f1_7z" transform="matrix(11,0,0,11,342.5,214.9)" />
<use xlink:href="#f1_9q" transform="matrix(11,0,0,11,350.6,214.9)" />
<use xlink:href="#f1_am" transform="matrix(11,0,0,11,354.6,214.9)" />
<use xlink:href="#f1_b5" transform="matrix(11,0,0,11,363.4,214.9)" />
<use xlink:href="#f1_9q" transform="matrix(11,0,0,11,370,214.9)" />
<use xlink:href="#f1_b5" transform="matrix(11,0,0,11,374,214.9)" />
<use xlink:href="#f1_bf" transform="matrix(11,0,0,11,384.3,214.9)" />
<use xlink:href="#f1_77" transform="matrix(11,0,0,11,389.8,214.9)" />
<use xlink:href="#f1_a5" transform="matrix(11,0,0,11,397.9,214.9)" />
<use xlink:href="#f1_7z" transform="matrix(11,0,0,11,405.6,214.9)" />
<use xlink:href="#f1_b5" transform="matrix(11,0,0,11,414,214.9)" />
<use xlink:href="#f1_ay" transform="matrix(11,0,0,11,424.2,214.9)" />
<use xlink:href="#f1_a8" transform="matrix(11,0,0,11,433.1,214.9)" />
<use xlink:href="#f1_77" transform="matrix(11,0,0,11,437.1,214.9)" />
<use xlink:href="#f1_7l" transform="matrix(11,0,0,11,445.1,214.9)" />
<use xlink:href="#f1_7z" transform="matrix(11,0,0,11,452.1,214.9)" />
<use xlink:href="#f1_bf" transform="matrix(11,0,0,11,464.2,214.9)" />
<use xlink:href="#f1_am" transform="matrix(11,0,0,11,469.7,214.9)" />
<use xlink:href="#f1_ay" transform="matrix(11,0,0,11,482.2,214.9)" />
<use xlink:href="#f1_b1" transform="matrix(11,0,0,11,491,214.9)" />
<use xlink:href="#f1_am" transform="matrix(11,0,0,11,496.8,214.9)" />
<use xlink:href="#f1_7v" transform="matrix(11,0,0,11,505.6,214.9)" />
<use xlink:href="#f1_c6" transform="matrix(11,0,0,11,514.4,214.9)" />
<use xlink:href="#f1_7l" transform="matrix(11,0,0,11,523.2,214.9)" />
<use xlink:href="#f1_7z" transform="matrix(11,0,0,11,530.2,214.9)" />
<use xlink:href="#f1_9n" transform="matrix(11,0,0,11,542.3,214.9)" />
<use xlink:href="#f1_77" transform="matrix(11,0,0,11,551.1,214.9)" />
<use xlink:href="#f1_ay" transform="matrix(11,0,0,11,559.2,214.9)" />
<use xlink:href="#f1_a8" transform="matrix(11,0,0,11,568,214.9)" />
<use xlink:href="#f1_am" transform="matrix(11,0,0,11,572,214.9)" />
<use xlink:href="#f1_9q" transform="matrix(11,0,0,11,580.8,214.9)" />
<use xlink:href="#f1_7v" transform="matrix(11,0,0,11,584.8,214.9)" />
<use xlink:href="#f1_9d" transform="matrix(11,0,0,11,597.3,214.9)" />
<use xlink:href="#f1_77" transform="matrix(11,0,0,11,605.3,214.9)" />
<use xlink:href="#f1_ae" transform="matrix(11,0,0,11,613.4,214.9)" />
<use xlink:href="#f1_7z" transform="matrix(11,0,0,11,626.9,214.9)" />
<use xlink:href="#f1_bf" transform="matrix(11,0,0,11,635.3,214.9)" />
<use xlink:href="#f1_7z" transform="matrix(11,0,0,11,640.9,214.9)" />
<use xlink:href="#f1_b5" transform="matrix(11,0,0,11,649.3,214.9)" />
<use xlink:href="#f1_nt" transform="matrix(11,0,0,11,655.9,214.9)" />
</g>
<path fill-rule="evenodd" d="M80.3,239.9H857.2V219.3H80.3v20.6Z" class="g0_11" />
<g fill="#1F3331" >
<use xlink:href="#f0_3d" transform="matrix(10.1,0,0,10.1,82.5,235.5)" />
<use xlink:href="#f1_1c" transform="matrix(11,0,0,11,110,235.5)" />
<use xlink:href="#f1_af" transform="matrix(11,0,0,11,114.4,235.5)" />
<use xlink:href="#f1_7v" transform="matrix(11,0,0,11,127.6,235.5)" />
<use xlink:href="#f1_9q" transform="matrix(11,0,0,11,136.4,235.5)" />
<use xlink:href="#f1_ay" transform="matrix(11,0,0,11,140.4,235.5)" />
<use xlink:href="#f1_a8" transform="matrix(11,0,0,11,149.2,235.5)" />
<use xlink:href="#f1_am" transform="matrix(11,0,0,11,153.2,235.5)" />
<use xlink:href="#f1_9q" transform="matrix(11,0,0,11,162.1,235.5)" />
<use xlink:href="#f1_7v" transform="matrix(11,0,0,11,166.1,235.5)" />
<use xlink:href="#f1_am" transform="matrix(11,0,0,11,179.3,235.5)" />
<use xlink:href="#f1_b1" transform="matrix(11,0,0,11,188.1,235.5)" />
<use xlink:href="#f1_9d" transform="matrix(11,0,0,11,193.9,235.5)" />
<use xlink:href="#f1_77" transform="matrix(11,0,0,11,202,235.5)" />
<use xlink:href="#f1_af" transform="matrix(11,0,0,11,210.1,235.5)" />
<use xlink:href="#f1_9q" transform="matrix(11,0,0,11,218.5,235.5)" />
<use xlink:href="#f1_b5" transform="matrix(11,0,0,11,222.5,235.5)" />
<use xlink:href="#f1_ae" transform="matrix(11,0,0,11,229.1,235.5)" />
<use xlink:href="#f1_b5" transform="matrix(11,0,0,11,242.6,235.5)" />
<use xlink:href="#f1_ci" transform="matrix(11,0,0,11,253.8,235.5)" />
<use xlink:href="#f1_9n" transform="matrix(11,0,0,11,265.9,235.5)" />
<use xlink:href="#f1_7z" transform="matrix(11,0,0,11,274.4,235.5)" />
<use xlink:href="#f1_af" transform="matrix(11,0,0,11,282.8,235.5)" />
<use xlink:href="#f1_bf" transform="matrix(11,0,0,11,296,235.5)" />
<use xlink:href="#f1_9n" transform="matrix(11,0,0,11,301.5,235.5)" />
<use xlink:href="#f1_7z" transform="matrix(11,0,0,11,310.3,235.5)" />
<use xlink:href="#f1_ae" transform="matrix(11,0,0,11,323.1,235.5)" />
<use xlink:href="#f1_7z" transform="matrix(11,0,0,11,336.7,235.5)" />
<use xlink:href="#f1_9q" transform="matrix(11,0,0,11,345.1,235.5)" />
<use xlink:href="#f1_am" transform="matrix(11,0,0,11,349.1,235.5)" />
<use xlink:href="#f1_7l" transform="matrix(11,0,0,11,357.9,235.5)" />
<use xlink:href="#f1_co" transform="matrix(11,0,0,11,364.9,235.5)" />
<use xlink:href="#f1_bf" transform="matrix(11,0,0,11,372.6,235.5)" />
<use xlink:href="#f1_7z" transform="matrix(11,0,0,11,378.1,235.5)" />
<use xlink:href="#f1_b5" transform="matrix(11,0,0,11,386.5,235.5)" />
<use xlink:href="#f1_ov" transform="matrix(11,0,0,11,397.6,235.5)" />
<use xlink:href="#f1_9d" transform="matrix(11,0,0,11,402.7,235.5)" />
<use xlink:href="#f1_77" transform="matrix(11,0,0,11,410.8,235.5)" />
<use xlink:href="#f1_ae" transform="matrix(11,0,0,11,418.9,235.5)" />
<use xlink:href="#f1_7z" transform="matrix(11,0,0,11,432.1,235.5)" />
<use xlink:href="#f1_bf" transform="matrix(11,0,0,11,440.5,235.5)" />
<use xlink:href="#f1_7z" transform="matrix(11,0,0,11,446,235.5)" />
<use xlink:href="#f1_ae" transform="matrix(11,0,0,11,458.8,235.5)" />
<use xlink:href="#f1_am" transform="matrix(11,0,0,11,472.4,235.5)" />
<use xlink:href="#f1_bf" transform="matrix(11,0,0,11,480.8,235.5)" />
<use xlink:href="#f1_9n" transform="matrix(11,0,0,11,486.3,235.5)" />
<use xlink:href="#f1_7z" transform="matrix(11,0,0,11,495.1,235.5)" />
<use xlink:href="#f1_b1" transform="matrix(11,0,0,11,503.5,235.5)" />
<use xlink:href="#f1_7l" transform="matrix(11,0,0,11,513.8,235.5)" />
<use xlink:href="#f1_7z" transform="matrix(11,0,0,11,520.8,235.5)" />
<use xlink:href="#f1_a8" transform="matrix(11,0,0,11,529.2,235.5)" />
<use xlink:href="#f1_a8" transform="matrix(11,0,0,11,533.2,235.5)" />
<use xlink:href="#f1_nq" transform="matrix(11,0,0,11,537.2,235.5)" />
<use xlink:href="#f1_7v" transform="matrix(11,0,0,11,545.6,235.5)" />
<use xlink:href="#f1_9q" transform="matrix(11,0,0,11,554.4,235.5)" />
<use xlink:href="#f1_ay" transform="matrix(11,0,0,11,558.5,235.5)" />
<use xlink:href="#f1_a8" transform="matrix(11,0,0,11,567.3,235.5)" />
<use xlink:href="#f1_am" transform="matrix(11,0,0,11,571.3,235.5)" />
<use xlink:href="#f1_9q" transform="matrix(11,0,0,11,580.1,235.5)" />
<use xlink:href="#f1_7v" transform="matrix(11,0,0,11,584.1,235.5)" />
<use xlink:href="#f1_oj" transform="matrix(11,0,0,11,593.2,235.5)" />
<use xlink:href="#f1_rz" transform="matrix(11,0,0,11,602.7,235.5)" />
<use xlink:href="#f1_af" transform="matrix(11,0,0,11,611.1,235.5)" />
<use xlink:href="#f1_ow" transform="matrix(11,0,0,11,619.9,235.5)" />
<use xlink:href="#f1_c6" transform="matrix(11,0,0,11,629.5,235.5)" />
<use xlink:href="#f1_af" transform="matrix(11,0,0,11,638.3,235.5)" />
<use xlink:href="#f1_7v" transform="matrix(11,0,0,11,647.1,235.5)" />
<use xlink:href="#f1_7z" transform="matrix(11,0,0,11,655.9,235.5)" />
<use xlink:href="#f1_b1" transform="matrix(11,0,0,11,664.3,235.5)" />
<use xlink:href="#f1_9d" transform="matrix(11,0,0,11,670.2,235.5)" />
<use xlink:href="#f1_am" transform="matrix(11,0,0,11,678.2,235.5)" />
<use xlink:href="#f1_ae" transform="matrix(11,0,0,11,691.4,235.5)" />
<use xlink:href="#f1_7z" transform="matrix(11,0,0,11,705,235.5)" />
<use xlink:href="#f1_9q" transform="matrix(11,0,0,11,713.4,235.5)" />
<use xlink:href="#f1_am" transform="matrix(11,0,0,11,717.4,235.5)" />
<use xlink:href="#f1_b5" transform="matrix(11,0,0,11,726.2,235.5)" />
<use xlink:href="#f1_9q" transform="matrix(11,0,0,11,732.4,235.5)" />
<use xlink:href="#f1_b5" transform="matrix(11,0,0,11,736.5,235.5)" />
<use xlink:href="#f1_nq" transform="matrix(11,0,0,11,743.1,235.5)" />
<use xlink:href="#f1_am" transform="matrix(11,0,0,11,751.5,235.5)" />
<use xlink:href="#f1_af" transform="matrix(11,0,0,11,760.3,235.5)" />
<use xlink:href="#f1_a8" transform="matrix(11,0,0,11,769.1,235.5)" />
<use xlink:href="#f1_co" transform="matrix(11,0,0,11,773.1,235.5)" />
<use xlink:href="#f1_am" transform="matrix(11,0,0,11,785.2,235.5)" />
<use xlink:href="#f1_af" transform="matrix(11,0,0,11,794,235.5)" />
<use xlink:href="#f1_7z" transform="matrix(11,0,0,11,802.8,235.5)" />
<use xlink:href="#f1_b5" transform="matrix(11,0,0,11,815.6,235.5)" />
<use xlink:href="#f1_7z" transform="matrix(11,0,0,11,822.2,235.5)" />
<use xlink:href="#f1_bf" transform="matrix(11,0,0,11,830.6,235.5)" />
<use xlink:href="#f1_am" transform="matrix(11,0,0,11,840.5,235.5)" />
<use xlink:href="#f1_89" transform="matrix(11,0,0,11,849.3,235.5)" />
</g>
<path fill-rule="evenodd" d="M80.3,281.7H857.2V239.9H80.3v41.8Z" class="g0_11" />
<g fill="#1F3331" >
<use xlink:href="#f1_7l" transform="matrix(11,0,0,11,110,256)" />
<use xlink:href="#f1_9n" transform="matrix(11,0,0,11,117,256)" />
<use xlink:href="#f1_b1" transform="matrix(11,0,0,11,125.8,256)" />
<use xlink:href="#f1_am" transform="matrix(11,0,0,11,131.7,256)" />
<use xlink:href="#f1_ae" transform="matrix(11,0,0,11,140.5,256)" />
<use xlink:href="#f1_am" transform="matrix(11,0,0,11,154,256)" />
<use xlink:href="#f1_b5" transform="matrix(11,0,0,11,162.8,256)" />
<use xlink:href="#f1_am" transform="matrix(11,0,0,11,169.4,256)" />
<use xlink:href="#f1_ae" transform="matrix(11,0,0,11,178.2,256)" />
<use xlink:href="#f1_7z" transform="matrix(11,0,0,11,191.8,256)" />
<use xlink:href="#f1_b5" transform="matrix(11,0,0,11,200.2,256)" />
<use xlink:href="#f1_ov" transform="matrix(11,0,0,11,210.5,256)" />
<use xlink:href="#f1_af" transform="matrix(11,0,0,11,215.6,256)" />
<use xlink:href="#f1_ow" transform="matrix(11,0,0,11,224.4,256)" />
<use xlink:href="#f1_9d" transform="matrix(11,0,0,11,233.2,256)" />
<use xlink:href="#f1_7z" transform="matrix(11,0,0,11,241.3,256)" />
<use xlink:href="#f1_bf" transform="matrix(11,0,0,11,249.7,256)" />
<use xlink:href="#f1_b5" transform="matrix(11,0,0,11,255.2,256)" />
<use xlink:href="#f1_9q" transform="matrix(11,0,0,11,265.5,256)" />
<use xlink:href="#f1_af" transform="matrix(11,0,0,11,269.5,256)" />
<use xlink:href="#f1_7l" transform="matrix(11,0,0,11,278.3,256)" />
<use xlink:href="#f1_am" transform="matrix(11,0,0,11,285.2,256)" />
<use xlink:href="#f1_b1" transform="matrix(11,0,0,11,294.1,256)" />
<use xlink:href="#f1_ay" transform="matrix(11,0,0,11,299.9,256)" />
<use xlink:href="#f1_am" transform="matrix(11,0,0,11,308.7,256)" />
<use xlink:href="#f1_b1" transform="matrix(11,0,0,11,317.5,256)" />
<use xlink:href="#f1_77" transform="matrix(11,0,0,11,323.4,256)" />
<use xlink:href="#f1_bf" transform="matrix(11,0,0,11,331.5,256)" />
<use xlink:href="#f1_7z" transform="matrix(11,0,0,11,337,256)" />
<use xlink:href="#f1_7v" transform="matrix(11,0,0,11,345.4,256)" />
<use xlink:href="#f1_9q" transform="matrix(11,0,0,11,357.9,256)" />
<use xlink:href="#f1_af" transform="matrix(11,0,0,11,361.9,256)" />
<use xlink:href="#f1_7z" transform="matrix(11,0,0,11,374.3,256)" />
<use xlink:href="#f1_77" transform="matrix(11,0,0,11,382.7,256)" />
<use xlink:href="#f1_7l" transform="matrix(11,0,0,11,390.8,256)" />
<use xlink:href="#f1_9n" transform="matrix(11,0,0,11,397.8,256)" />
<use xlink:href="#f1_9d" transform="matrix(11,0,0,11,410.6,256)" />
<use xlink:href="#f1_77" transform="matrix(11,0,0,11,418.6,256)" />
<use xlink:href="#f1_ae" transform="matrix(11,0,0,11,426.7,256)" />
<use xlink:href="#f1_7z" transform="matrix(11,0,0,11,440.3,256)" />
<use xlink:href="#f1_bf" transform="matrix(11,0,0,11,448.7,256)" />
<use xlink:href="#f1_7z" transform="matrix(11,0,0,11,454.2,256)" />
<use xlink:href="#f1_nt" transform="matrix(11,0,0,11,462.6,256)" />
</g>
<path fill-rule="evenodd" d="M80.3,559.3H857.2V281.7H80.3V559.3Z" class="g0_11" />
<path fill-rule="evenodd" d="M80.3,601.1H857.2V559.3H80.3v41.8Z" class="g0_11" />
<path fill-rule="evenodd" d="M80.3,648.8H857.2V601.1H80.3v47.7Z" class="g0_11" />
<g fill="#1F3331" >
<use xlink:href="#f2_p" transform="matrix(13.9,0,0,13.9,82.5,621.7)" />
<use xlink:href="#f2_9q" transform="matrix(13.9,0,0,13.9,96.1,621.7)" />
<use xlink:href="#f2_ch" transform="matrix(13.9,0,0,13.9,101.2,621.7)" />
<use xlink:href="#f2_7z" transform="matrix(13.9,0,0,13.9,111.1,621.7)" />
<use xlink:href="#f2_b1" transform="matrix(13.9,0,0,13.9,121.8,621.7)" />
<use xlink:href="#f2_b5" transform="matrix(13.9,0,0,13.9,129.4,621.7)" />
<use xlink:href="#f2_9q" transform="matrix(13.9,0,0,13.9,137.9,621.7)" />
<use xlink:href="#f2_bf" transform="matrix(13.9,0,0,13.9,143.3,621.7)" />
<use xlink:href="#f2_co" transform="matrix(13.9,0,0,13.9,150.7,621.7)" />
<use xlink:href="#f2_am" transform="matrix(13.9,0,0,13.9,165.7,621.7)" />
<use xlink:href="#f2_89" transform="matrix(13.9,0,0,13.9,177,621.7)" />
<use xlink:href="#f2_b5" transform="matrix(13.9,0,0,13.9,188.7,621.7)" />
<use xlink:href="#f2_7z" transform="matrix(13.9,0,0,13.9,197.2,621.7)" />
<use xlink:href="#f2_cn" transform="matrix(13.9,0,0,13.9,207.8,621.7)" />
<use xlink:href="#f2_c6" transform="matrix(13.9,0,0,13.9,217.7,621.7)" />
<use xlink:href="#f2_77" transform="matrix(13.9,0,0,13.9,229.1,621.7)" />
<use xlink:href="#f2_a8" transform="matrix(13.9,0,0,13.9,239.7,621.7)" />
<use xlink:href="#f2_9q" transform="matrix(13.9,0,0,13.9,245.1,621.7)" />
<use xlink:href="#f2_bf" transform="matrix(13.9,0,0,13.9,250.3,621.7)" />
<use xlink:href="#f2_co" transform="matrix(13.9,0,0,13.9,257.6,621.7)" />
<use xlink:href="#f2_9q" transform="matrix(13.9,0,0,13.9,272.7,621.7)" />
<use xlink:href="#f2_af" transform="matrix(13.9,0,0,13.9,277.8,621.7)" />
<use xlink:href="#f2_am" transform="matrix(13.9,0,0,13.9,294.2,621.7)" />
<use xlink:href="#f2_b1" transform="matrix(13.9,0,0,13.9,305.6,621.7)" />
<use xlink:href="#f2_9d" transform="matrix(13.9,0,0,13.9,313.3,621.7)" />
<use xlink:href="#f2_77" transform="matrix(13.9,0,0,13.9,323.5,621.7)" />
<use xlink:href="#f2_af" transform="matrix(13.9,0,0,13.9,334.1,621.7)" />
<use xlink:href="#f2_9q" transform="matrix(13.9,0,0,13.9,345.6,621.7)" />
<use xlink:href="#f2_b5" transform="matrix(13.9,0,0,13.9,350.6,621.7)" />
<use xlink:href="#f2_ae" transform="matrix(13.9,0,0,13.9,359.1,621.7)" />
<use xlink:href="#f2_b5" transform="matrix(13.9,0,0,13.9,376.7,621.7)" />
</g>
<path fill-rule="evenodd" d="M82.5,625.7H385.9v-1.4H82.5v1.4Z" class="g1_11" />
<path fill-rule="evenodd" d="M80.3,1154.2H857.2V648.8H80.3v505.4Z" class="g0_11" />
<path fill-rule="evenodd" d="M80.3,1175.1H857.2v-20.9H80.3v20.9Z" class="g0_11" />
<image preserveAspectRatio="none" x="85" y="282" width="526" height="256" xlink:href="img/1.png" />
<image preserveAspectRatio="none" x="85" y="649" width="620" height="484" xlink:href="img/2.png" />
<g fill="#000000" >
<use xlink:href="#f3_l" transform="matrix(8,0,0,8,786.1,1264.1)" />
<use xlink:href="#f3_l" transform="matrix(8,0,0,8,792.9,1264.1)" />
</g>
<defs>
<path d="M273,157c0,0,-114,0,-193,80C80,237,0,317,0,431c0,0,0,112,80,192c0,0,79,80,193,80c0,0,113,0,192,-80c0,0,80,-80,80,-192c0,0,0,-114,-80,-194c0,0,-79,-80,-192,-80Z" 
id="f0_3d"
transform="scale(0.001,-0.001)" />

<path d="M604,356L436,837h-1L269,356ZM87,-4c0,0,-22,0,-36,2C51,-2,37,0,32,4c0,0,-6,5,-6,15c0,0,1,10,7,27L357,943c0,0,3,8,7,13c0,0,5,6,15,9c0,0,9,3,23,4c0,0,15,1,37,1c0,0,24,0,40,-1c0,0,16,-1,25,-4c0,0,10,-3,15,-9c0,0,5,-5,8,-14L851,45c0,0,6,-16,7,-26c0,0,0,-10,-6,-16c0,0,-6,-4,-20,-5c0,0,-14,-2,-37,-2c0,0,-23,0,-37,1c0,0,-14,1,-21,3c0,0,-7,3,-10,7c0,0,-3,5,-6,11L638,253H236L157,21c0,0,-2,-6,-6,-11c0,0,-3,-5,-10,-9c0,0,-7,-2,-21,-3c0,0,-13,-2,-33,-2Z" 
id="f1_5"
transform="scale(0.001,-0.001)" />

<path d="M176,-4c0,0,-18,0,-30,2c0,0,-12,1,-19,3c0,0,-7,3,-10,7c0,0,-3,4,-3,10V690c0,0,0,6,3,10c0,0,2,4,9,7c0,0,6,4,17,5c0,0,10,1,27,1c0,0,17,0,28,-1c0,0,10,-1,16,-5c0,0,6,-3,9,-7c0,0,3,-4,3,-10V601c0,0,56,64,110,94c0,0,53,30,108,30c0,0,42,0,75,-10c0,0,33,-10,58,-28c0,0,26,-17,44,-42c0,0,18,-24,30,-55c0,0,33,37,63,63c0,0,31,26,59,41c0,0,28,16,54,23c0,0,27,8,53,8c0,0,65,0,109,-23c0,0,44,-23,71,-61c0,0,28,-38,39,-89c0,0,12,-52,12,-108V18c0,0,0,-6,-3,-10c0,0,-3,-4,-10,-7c0,0,-7,-2,-19,-3c0,0,-12,-2,-29,-2c0,0,-19,0,-31,2c0,0,-12,1,-19,3c0,0,-7,3,-10,7c0,0,-3,4,-3,10V427c0,0,0,43,-8,78c0,0,-7,35,-23,61c0,0,-17,25,-42,38c0,0,-25,14,-60,14c0,0,-42,0,-85,-33c0,0,-43,-33,-94,-96V18c0,0,0,-6,-3,-10c0,0,-3,-4,-11,-7c0,0,-7,-2,-19,-3c0,0,-11,-2,-29,-2c0,0,-18,0,-30,2c0,0,-12,1,-19,3c0,0,-7,3,-10,7c0,0,-3,4,-3,10V427c0,0,0,43,-8,78c0,0,-8,35,-24,61c0,0,-17,25,-42,38c0,0,-25,14,-59,14c0,0,-43,0,-86,-33c0,0,-44,-33,-95,-96V18c0,0,0,-6,-3,-10c0,0,-2,-4,-9,-7c0,0,-7,-2,-19,-3c0,0,-12,-2,-30,-2Z" 
id="f1_ae"
transform="scale(0.001,-0.001)" />

<path d="M321,82c0,0,48,0,90,25c0,0,41,24,87,75V325H392c0,0,-50,0,-88,-9c0,0,-37,-9,-62,-25c0,0,-24,-17,-36,-41c0,0,-11,-23,-11,-54c0,0,0,-52,33,-83c0,0,33,-31,93,-31ZM301,-13c0,0,-53,0,-96,13c0,0,-43,14,-73,40c0,0,-30,26,-47,64c0,0,-17,38,-17,87c0,0,0,56,24,98c0,0,23,42,66,69c0,0,43,28,106,42c0,0,63,14,141,14h93v52c0,0,0,39,-9,69c0,0,-8,30,-26,50c0,0,-18,20,-47,30c0,0,-30,10,-72,10c0,0,-46,0,-82,-11c0,0,-36,-11,-63,-24c0,0,-27,-13,-46,-24c0,0,-18,-11,-27,-11c0,0,-6,0,-10,3c0,0,-5,3,-8,9c0,0,-3,6,-5,16c0,0,-1,9,-1,20c0,0,0,19,2,30c0,0,3,11,13,20c0,0,10,10,35,23c0,0,24,13,56,24c0,0,32,10,70,17c0,0,38,8,77,8c0,0,73,0,123,-17c0,0,51,-16,82,-48c0,0,32,-32,46,-79c0,0,14,-47,14,-110V18c0,0,0,-9,-6,-14c0,0,-6,-4,-16,-6c0,0,-11,-2,-31,-2c0,0,-19,0,-31,2c0,0,-12,2,-17,6c0,0,-5,5,-5,13V85c0,0,-44,-47,-98,-73c0,0,-54,-25,-115,-25Z" 
id="f1_77"
transform="scale(0.001,-0.001)" />

<path d="M53,-271c0,0,-23,0,-40,3c0,0,-16,3,-25,7c0,0,-9,4,-12,9c0,0,-4,4,-5,11c0,0,-2,6,-2,13c0,0,0,7,0,16c0,0,0,14,1,24c0,0,1,9,4,15c0,0,2,6,6,9c0,0,3,3,8,3c0,0,5,0,17,-2c0,0,13,-2,30,-2c0,0,24,0,42,7c0,0,17,8,28,24c0,0,12,17,17,44c0,0,5,27,5,81V690c0,0,0,5,3,9c0,0,3,5,10,8c0,0,7,3,19,4c0,0,12,2,30,2c0,0,18,0,30,-2c0,0,12,-1,19,-4c0,0,7,-3,10,-8c0,0,3,-4,3,-9V-10c0,0,0,-74,-11,-120c0,0,-11,-46,-35,-77c0,0,-24,-32,-61,-48c0,0,-38,-16,-91,-16ZM188,842c0,0,-43,0,-59,15c0,0,-16,15,-16,58c0,0,0,43,16,59c0,0,17,16,61,16c0,0,44,0,59,-16c0,0,16,-15,16,-58c0,0,0,-43,-17,-58c0,0,-16,-16,-60,-16Z" 
id="f1_a2"
transform="scale(0.001,-0.001)" />

<path d="M401,90c0,0,54,0,93,19c0,0,40,20,65,55c0,0,26,35,37,84c0,0,12,48,12,106c0,0,0,55,-10,104c0,0,-10,48,-33,85c0,0,-23,36,-62,58c0,0,-40,21,-99,21c0,0,-54,0,-93,-20c0,0,-39,-19,-65,-54c0,0,-25,-36,-37,-85c0,0,-12,-48,-12,-106c0,0,0,-55,10,-103c0,0,10,-49,33,-85c0,0,24,-36,63,-58c0,0,39,-21,98,-21ZM395,-13c0,0,-82,0,-144,24c0,0,-61,25,-102,72c0,0,-41,47,-61,114c0,0,-21,67,-21,152c0,0,0,82,22,151c0,0,21,69,64,119c0,0,43,50,107,78c0,0,64,28,150,28c0,0,82,0,144,-25c0,0,61,-25,102,-72c0,0,41,-47,62,-114c0,0,20,-67,20,-151c0,0,0,-83,-21,-152c0,0,-22,-69,-65,-119C652,92,609,42,545,14c0,0,-65,-27,-150,-27Z" 
id="f1_am"
transform="scale(0.001,-0.001)" />

<path d="M176,-4c0,0,-18,0,-30,2c0,0,-12,1,-19,3c0,0,-7,3,-10,7c0,0,-3,4,-3,10V690c0,0,0,6,3,10c0,0,2,4,9,7c0,0,6,4,17,5c0,0,10,1,27,1c0,0,17,0,28,-1c0,0,10,-1,16,-5c0,0,6,-3,9,-7c0,0,3,-4,3,-10V592c0,0,27,41,51,66c0,0,25,26,46,41c0,0,22,14,43,20c0,0,21,6,43,6c0,0,10,0,22,-2c0,0,12,-1,26,-4c0,0,13,-3,24,-6c0,0,11,-4,15,-8c0,0,5,-4,6,-7c0,0,2,-3,3,-9c0,0,1,-5,1,-15c0,0,0,-10,0,-27c0,0,0,-16,0,-28c0,0,-1,-11,-3,-17c0,0,-2,-6,-6,-10c0,0,-3,-3,-9,-3c0,0,-6,0,-15,3c0,0,-8,4,-19,7c0,0,-11,3,-24,6c0,0,-14,3,-29,3c0,0,-19,0,-37,-7c0,0,-18,-8,-37,-25c0,0,-20,-18,-42,-46c0,0,-21,-29,-48,-70V18c0,0,0,-6,-3,-10c0,0,-2,-4,-9,-7c0,0,-7,-2,-19,-3c0,0,-12,-2,-30,-2Z" 
id="f1_b1"
transform="scale(0.001,-0.001)" />

<path d="M176,-4c0,0,-18,0,-30,2c0,0,-12,1,-19,3c0,0,-7,3,-10,7c0,0,-3,4,-3,10V690c0,0,0,5,3,9c0,0,3,5,10,8c0,0,7,3,19,4c0,0,12,2,30,2c0,0,18,0,30,-2c0,0,12,-1,19,-4c0,0,7,-3,9,-8c0,0,3,-4,3,-9V18c0,0,0,-6,-3,-10c0,0,-2,-4,-9,-7c0,0,-7,-2,-19,-3c0,0,-12,-2,-30,-2Zm-1,846c0,0,-43,0,-59,15c0,0,-16,15,-16,58c0,0,0,43,16,59c0,0,17,16,61,16c0,0,43,0,59,-16c0,0,16,-15,16,-58c0,0,0,-43,-16,-58c0,0,-17,-16,-61,-16Z" 
id="f1_9q"
transform="scale(0.001,-0.001)" />

<path d="M339,-13c0,0,-52,0,-90,13c0,0,-37,14,-61,42c0,0,-24,28,-34,71c0,0,-11,43,-11,101V607H49c0,0,-11,0,-18,12c0,0,-7,12,-7,39c0,0,0,14,2,24c0,0,2,10,5,16c0,0,3,7,8,9c0,0,5,3,11,3h93V870c0,0,0,5,2,9c0,0,3,5,10,8c0,0,7,4,19,5c0,0,12,2,30,2c0,0,19,0,31,-2c0,0,11,-1,18,-5c0,0,7,-3,10,-8c0,0,3,-4,3,-9V710H438c0,0,6,0,10,-3c0,0,5,-2,8,-9c0,0,4,-6,5,-16c0,0,1,-10,1,-24c0,0,0,-27,-6,-39c0,0,-7,-12,-18,-12H266V232c0,0,0,-69,20,-105c0,0,21,-35,74,-35c0,0,17,0,30,3c0,0,14,4,24,7c0,0,10,4,18,7c0,0,7,4,13,4c0,0,4,0,7,-2c0,0,4,-2,6,-7c0,0,2,-5,3,-14c0,0,1,-9,1,-23c0,0,0,-22,-2,-34c0,0,-3,-13,-9,-19c0,0,-6,-6,-18,-11c0,0,-12,-4,-28,-8c0,0,-15,-3,-32,-5c0,0,-17,-3,-34,-3Z" 
id="f1_bf"
transform="scale(0.001,-0.001)" />

<path d="M252,-271c0,0,-19,0,-31,2c0,0,-12,2,-18,6c0,0,-7,5,-8,12c0,0,0,8,4,18L292,0c0,0,-7,3,-13,10c0,0,-6,6,-8,14L31,665c0,0,-6,16,-6,25c0,0,0,9,6,14c0,0,6,5,20,7c0,0,13,2,36,2c0,0,22,0,35,-1c0,0,12,-1,20,-4c0,0,7,-3,11,-9c0,0,3,-6,7,-15L351,145h3L539,687c0,0,4,14,10,18c0,0,7,4,19,6c0,0,13,2,37,2c0,0,21,0,34,-2c0,0,14,-2,20,-7c0,0,6,-5,6,-14c0,0,0,-9,-4,-23L420,0L330,-246c0,0,-4,-12,-22,-18c0,0,-19,-7,-56,-7Z" 
id="f1_co"
transform="scale(0.001,-0.001)" />

<path d="M209,-4c0,0,-18,0,-30,2c0,0,-12,1,-19,3c0,0,-7,3,-10,7c0,0,-3,4,-3,10V607H52c0,0,-12,0,-18,12c0,0,-6,12,-6,39c0,0,0,14,2,24c0,0,1,10,4,16c0,0,3,7,8,9c0,0,4,3,10,3h95v69c0,0,0,71,13,121c0,0,13,50,40,82c0,0,27,33,67,48c0,0,41,15,96,15c0,0,26,0,51,-5c0,0,25,-4,38,-10c0,0,13,-6,18,-10c0,0,4,-5,7,-12c0,0,3,-7,5,-17c0,0,1,-10,1,-24c0,0,0,-15,-2,-23c0,0,-1,-9,-3,-14c0,0,-2,-5,-5,-7c0,0,-3,-2,-8,-2c0,0,-5,0,-13,3c0,0,-7,4,-19,8c0,0,-11,4,-26,7c0,0,-15,4,-36,4c0,0,-27,0,-47,-9c0,0,-19,-9,-31,-28c0,0,-12,-19,-17,-50c0,0,-5,-30,-5,-73V710H421c0,0,6,0,10,-3c0,0,4,-2,7,-9c0,0,4,-6,6,-16c0,0,2,-10,2,-24c0,0,0,-27,-7,-39c0,0,-7,-12,-18,-12H271V18c0,0,0,-6,-3,-10c0,0,-3,-4,-11,-7c0,0,-7,-2,-19,-3c0,0,-12,-2,-29,-2Z" 
id="f1_89"
transform="scale(0.001,-0.001)" />

<path d="M272,-13c0,0,-35,0,-68,6c0,0,-32,6,-58,13c0,0,-26,9,-44,18c0,0,-17,10,-26,17c0,0,-8,8,-12,21c0,0,-3,14,-3,37c0,0,0,14,1,24c0,0,2,9,4,15c0,0,2,6,6,9c0,0,4,3,10,3c0,0,8,0,24,-11c0,0,16,-10,39,-22c0,0,24,-12,56,-22c0,0,32,-10,74,-10c0,0,31,0,56,7c0,0,26,6,44,19c0,0,19,14,29,34c0,0,10,20,10,47c0,0,0,29,-14,48c0,0,-15,19,-39,34c0,0,-24,15,-53,27c0,0,-30,11,-62,24c0,0,-32,13,-62,29c0,0,-30,16,-54,39c0,0,-24,23,-38,55c0,0,-15,32,-15,77c0,0,0,40,16,76c0,0,15,36,45,63c0,0,31,28,77,44c0,0,46,17,107,17c0,0,27,0,54,-5c0,0,26,-5,48,-11c0,0,22,-7,37,-15c0,0,15,-8,23,-14c0,0,8,-6,11,-11c0,0,2,-4,3,-10c0,0,1,-5,2,-14c0,0,2,-8,2,-20c0,0,0,-12,-2,-22c0,0,-1,-9,-3,-15c0,0,-3,-6,-7,-8c0,0,-3,-3,-8,-3c0,0,-7,0,-19,8c0,0,-13,8,-33,18c0,0,-20,9,-47,17c0,0,-28,9,-63,9c0,0,-31,0,-55,-7c0,0,-24,-7,-39,-20c0,0,-15,-13,-23,-31c0,0,-8,-18,-8,-39c0,0,0,-29,15,-49c0,0,15,-20,39,-35c0,0,24,-15,54,-27c0,0,31,-11,62,-24c0,0,32,-13,63,-29c0,0,31,-15,55,-38c0,0,24,-22,38,-53c0,0,15,-32,15,-75c0,0,0,-51,-19,-92c0,0,-19,-40,-54,-68C463,42,428,15,379,1c0,0,-48,-14,-107,-14Z" 
id="f1_b5"
transform="scale(0.001,-0.001)" />

<path d="M564,420c0,0,2,98,-43,153c0,0,-46,56,-134,56c0,0,-46,0,-80,-18c0,0,-35,-17,-58,-45c0,0,-23,-29,-36,-67c0,0,-12,-37,-14,-79ZM405,-13c0,0,-83,0,-145,22c0,0,-62,24,-105,69c0,0,-42,46,-64,114c0,0,-22,69,-22,160c0,0,0,87,23,156c0,0,22,69,64,117c0,0,43,48,102,74c0,0,60,26,134,26c0,0,79,0,135,-26c0,0,55,-25,91,-68c0,0,36,-43,53,-101c0,0,16,-58,16,-123V384c0,0,0,-29,-14,-41c0,0,-15,-13,-33,-13H199c0,0,0,-56,11,-100c0,0,12,-45,38,-77c0,0,26,-33,68,-50c0,0,41,-17,102,-17c0,0,48,0,85,8c0,0,37,8,65,17c0,0,27,10,44,18c0,0,18,8,27,8c0,0,5,0,9,-3c0,0,4,-2,7,-8c0,0,2,-5,3,-14c0,0,1,-9,1,-23c0,0,0,-9,-1,-16c0,0,0,-8,-2,-13c0,0,-1,-6,-3,-10c0,0,-3,-5,-7,-9c0,0,-4,-4,-24,-13c0,0,-20,-10,-53,-18c0,0,-32,-9,-74,-16c0,0,-42,-7,-90,-7Z" 
id="f1_7z"
transform="scale(0.001,-0.001)" />

<path d="M92,-4c0,0,-22,0,-35,2C57,-2,43,0,37,3c0,0,-7,5,-6,12c0,0,0,7,7,17L247,360L49,675c0,0,-6,11,-6,18c0,0,-1,7,6,12c0,0,7,5,22,6c0,0,14,2,38,2c0,0,22,0,35,-1c0,0,13,-1,20,-4c0,0,8,-2,12,-6c0,0,3,-3,6,-9L335,443L490,693c0,0,3,5,7,9c0,0,4,3,10,6c0,0,7,3,18,4c0,0,12,1,32,1c0,0,21,0,35,-2c0,0,14,-1,21,-5c0,0,7,-4,6,-12c0,0,-1,-7,-8,-19L415,364L622,32c0,0,6,-10,6,-17c0,0,0,-7,-7,-12c0,0,-7,-3,-21,-5c0,0,-15,-2,-38,-2c0,0,-22,0,-35,1c0,0,-13,1,-21,3c0,0,-8,3,-12,7c0,0,-4,4,-7,9L326,282L165,16c0,0,-3,-5,-7,-9c0,0,-4,-4,-12,-7c0,0,-8,-2,-20,-3c0,0,-13,-1,-34,-1Z" 
id="f1_cn"
transform="scale(0.001,-0.001)" />

<path d="M351,-13c0,0,-67,0,-113,22c0,0,-46,22,-75,60c0,0,-28,39,-40,90c0,0,-13,51,-13,124V690c0,0,0,6,3,10c0,0,3,4,10,7c0,0,8,4,20,5c0,0,11,1,29,1c0,0,18,0,30,-1c0,0,12,-1,19,-5c0,0,7,-3,10,-7c0,0,3,-4,3,-10V299c0,0,0,-59,9,-94c0,0,8,-36,26,-61c0,0,18,-24,44,-38c0,0,27,-14,63,-14c0,0,46,0,92,33c0,0,46,32,98,95V690c0,0,0,6,2,10c0,0,3,4,10,7c0,0,8,4,19,5c0,0,12,1,30,1c0,0,18,0,30,-1c0,0,12,-1,19,-5c0,0,7,-3,10,-7c0,0,3,-4,3,-10V18c0,0,0,-6,-2,-10c0,0,-3,-4,-10,-7c0,0,-6,-2,-17,-3c0,0,-11,-2,-27,-2c0,0,-17,0,-28,2c0,0,-10,1,-17,3c0,0,-6,3,-8,7c0,0,-3,4,-3,10v89c0,0,-57,-63,-113,-92c0,0,-56,-28,-113,-28Z" 
id="f1_c6"
transform="scale(0.001,-0.001)" />

<path d="M176,-4c0,0,-18,0,-30,2c0,0,-12,1,-19,3c0,0,-7,3,-10,7c0,0,-3,4,-3,10v997c0,0,0,6,3,11c0,0,3,4,10,7c0,0,7,3,19,5c0,0,12,1,30,1c0,0,18,0,30,-1c0,0,12,-2,19,-5c0,0,7,-3,9,-7c0,0,3,-5,3,-11V18c0,0,0,-6,-3,-10c0,0,-2,-4,-9,-7c0,0,-7,-2,-19,-3c0,0,-12,-2,-30,-2Z" 
id="f1_a8"
transform="scale(0.001,-0.001)" />

<path d="M429,92c0,0,47,0,80,22c0,0,33,23,54,60c0,0,20,38,30,84c0,0,10,46,10,93c0,0,0,52,-8,100c0,0,-8,48,-27,86c0,0,-19,37,-51,60c0,0,-32,22,-80,22c0,0,-24,0,-47,-7c0,0,-23,-7,-47,-23c0,0,-24,-15,-50,-40c0,0,-26,-25,-56,-62V220c0,0,51,-62,97,-95c0,0,45,-33,95,-33ZM176,-271c0,0,-18,0,-30,2c0,0,-12,1,-19,4c0,0,-7,3,-10,8c0,0,-3,4,-3,10V690c0,0,0,6,3,10c0,0,2,5,9,8c0,0,6,3,17,4c0,0,10,1,25,1c0,0,16,0,26,-1c0,0,10,-1,17,-4c0,0,6,-3,9,-7c0,0,3,-4,3,-11V601c0,0,30,31,59,54c0,0,28,23,57,39c0,0,28,15,59,23c0,0,30,8,63,8c0,0,74,0,125,-29c0,0,52,-28,84,-77c0,0,32,-50,47,-115c0,0,15,-65,15,-139c0,0,0,-88,-19,-158c0,0,-19,-70,-56,-119c0,0,-37,-49,-91,-75c0,0,-55,-26,-125,-26c0,0,-30,0,-55,6c0,0,-25,6,-50,18c0,0,-24,13,-48,32c0,0,-24,19,-51,46V-247c0,0,0,-6,-3,-10c0,0,-2,-5,-9,-8c0,0,-7,-3,-19,-4c0,0,-12,-2,-30,-2Z" 
id="f1_ay"
transform="scale(0.001,-0.001)" />

<path d="M366,92c0,0,25,0,48,7c0,0,22,6,46,22c0,0,24,16,50,41c0,0,26,24,56,61V492c0,0,-51,62,-97,94c0,0,-47,33,-98,33c0,0,-47,0,-79,-22c0,0,-33,-23,-54,-59c0,0,-20,-37,-30,-83c0,0,-9,-47,-9,-94c0,0,0,-51,8,-100c0,0,8,-48,27,-86c0,0,19,-38,52,-60c0,0,32,-23,80,-23ZM345,-13c0,0,-74,0,-127,28c0,0,-52,29,-84,78c0,0,-33,49,-48,115c0,0,-15,66,-15,139c0,0,0,86,19,156c0,0,19,70,55,119c0,0,37,50,91,76c0,0,54,27,125,27c0,0,59,0,108,-26c0,0,49,-26,97,-76v390c0,0,0,5,2,10c0,0,3,4,10,7c0,0,8,3,19,5c0,0,12,1,30,1c0,0,18,0,30,-1c0,0,12,-2,19,-5c0,0,7,-3,10,-7c0,0,3,-5,3,-10V18c0,0,0,-6,-2,-10c0,0,-3,-5,-9,-7c0,0,-7,-2,-17,-3c0,0,-10,-2,-25,-2c0,0,-16,0,-26,2c0,0,-11,1,-18,3c0,0,-6,2,-9,7c0,0,-3,4,-3,10v90c0,0,-53,-58,-110,-90c0,0,-58,-31,-125,-31Z" 
id="f1_7v"
transform="scale(0.001,-0.001)" />

<path d="M367,-13c0,0,-73,0,-129,23c0,0,-56,24,-93,70c0,0,-38,46,-58,112c0,0,-20,67,-20,154c0,0,0,99,25,171c0,0,24,71,66,116c0,0,42,46,99,68c0,0,58,22,124,22c0,0,32,0,62,-6c0,0,31,-6,56,-16c0,0,25,-10,45,-22c0,0,20,-13,29,-22c0,0,9,-9,12,-14c0,0,3,-5,6,-13c0,0,2,-7,3,-16c0,0,0,-9,0,-22c0,0,0,-29,-6,-41c0,0,-7,-11,-17,-11c0,0,-11,0,-25,12c0,0,-15,12,-37,27c0,0,-23,15,-55,28c0,0,-31,12,-75,12c0,0,-88,0,-136,-68c0,0,-47,-68,-47,-198c0,0,0,-65,12,-114c0,0,12,-49,36,-81c0,0,24,-33,59,-49c0,0,35,-16,79,-16c0,0,43,0,75,13c0,0,32,14,56,30c0,0,23,16,39,29c0,0,16,13,25,13c0,0,5,0,9,-3c0,0,4,-3,7,-10c0,0,2,-7,3,-18c0,0,1,-11,1,-26c0,0,0,-12,0,-22c0,0,-1,-9,-3,-15c0,0,-2,-7,-4,-12c0,0,-3,-4,-12,-14c0,0,-10,-9,-32,-23c0,0,-22,-14,-50,-24C496,11,468,0,435,-6c0,0,-33,-7,-68,-7Z" 
id="f1_7l"
transform="scale(0.001,-0.001)" />

<path d="M176,-4c0,0,-18,0,-30,2c0,0,-12,1,-19,3c0,0,-7,3,-10,7c0,0,-3,4,-3,10V690c0,0,0,6,3,10c0,0,2,4,9,7c0,0,6,4,17,5c0,0,10,1,27,1c0,0,17,0,28,-1c0,0,10,-1,16,-5c0,0,6,-3,9,-7c0,0,3,-4,3,-10V601c0,0,56,64,112,94c0,0,57,30,114,30c0,0,67,0,113,-23c0,0,46,-23,74,-61c0,0,29,-38,41,-89c0,0,12,-52,12,-123V18c0,0,0,-6,-3,-10c0,0,-3,-4,-9,-7c0,0,-7,-2,-19,-3c0,0,-12,-2,-30,-2c0,0,-19,0,-30,2c0,0,-12,1,-19,3c0,0,-7,3,-10,7c0,0,-3,4,-3,10V412c0,0,0,58,-9,93c0,0,-9,35,-26,61c0,0,-17,25,-44,38c0,0,-27,14,-63,14c0,0,-46,0,-93,-33c0,0,-46,-33,-97,-96V18c0,0,0,-6,-3,-10c0,0,-2,-4,-9,-7c0,0,-7,-2,-19,-3c0,0,-12,-2,-30,-2Z" 
id="f1_af"
transform="scale(0.001,-0.001)" />

<path d="M346,-177c0,0,56,0,94,11c0,0,37,11,60,28c0,0,24,18,34,41c0,0,10,23,10,49c0,0,0,43,-36,65c0,0,-35,23,-95,25L239,48c0,0,-24,-19,-39,-35c0,0,-15,-16,-24,-31c0,0,-9,-16,-12,-30c0,0,-4,-15,-4,-31c0,0,0,-48,49,-73c0,0,50,-25,137,-25Zm-6,512c0,0,36,0,63,12c0,0,27,12,44,32c0,0,18,21,26,48c0,0,9,27,9,56c0,0,0,69,-38,107c0,0,-37,39,-107,39c0,0,-35,0,-62,-12c0,0,-26,-12,-44,-33c0,0,-17,-21,-26,-48c0,0,-8,-28,-8,-58c0,0,0,-66,37,-104c0,0,38,-39,106,-39Zm0,-606c0,0,-81,0,-138,14c0,0,-57,14,-94,38c0,0,-36,24,-52,57c0,0,-17,33,-17,72c0,0,0,24,6,47c0,0,6,24,18,43c0,0,13,21,31,40c0,0,18,19,42,38c0,0,-36,19,-54,47c0,0,-17,28,-17,61c0,0,0,45,18,81c0,0,19,36,46,64c0,0,-23,28,-36,62c0,0,-14,35,-14,84c0,0,0,58,20,104c0,0,19,45,53,77c0,0,35,31,83,48c0,0,48,17,105,17c0,0,30,0,57,-4c0,0,26,-3,49,-9H649c0,0,13,0,19,-12c0,0,7,-13,7,-38c0,0,0,-26,-7,-37c0,0,-7,-12,-19,-12H553c0,0,26,-27,37,-60c0,0,10,-32,10,-68c0,0,0,-58,-18,-103c0,0,-19,-45,-54,-76c0,0,-34,-31,-82,-47c0,0,-48,-16,-106,-16c0,0,-41,0,-78,10c0,0,-37,11,-57,28c0,0,-14,-14,-22,-31c0,0,-9,-17,-9,-39c0,0,0,-27,24,-44c0,0,25,-17,65,-18l175,-8c0,0,50,-1,92,-14c0,0,41,-12,72,-35c0,0,31,-22,48,-55c0,0,17,-34,17,-76c0,0,0,-47,-20,-88c0,0,-19,-42,-59,-74c0,0,-40,-31,-102,-50c0,0,-61,-18,-146,-18Z" 
id="f1_9d"
transform="scale(0.001,-0.001)" />

<path d="M176,-4c0,0,-18,0,-30,2c0,0,-12,1,-19,3c0,0,-7,3,-10,7c0,0,-3,4,-3,10v997c0,0,0,6,3,11c0,0,3,4,10,7c0,0,7,3,19,5c0,0,12,1,30,1c0,0,18,0,30,-1c0,0,12,-2,19,-5c0,0,7,-3,9,-7c0,0,3,-5,3,-10V614c0,0,53,56,107,83c0,0,54,28,108,28c0,0,67,0,113,-23c0,0,46,-23,74,-61c0,0,29,-38,41,-89c0,0,12,-52,12,-124V18c0,0,0,-6,-3,-10c0,0,-3,-4,-9,-7c0,0,-7,-2,-19,-3c0,0,-12,-2,-30,-2c0,0,-19,0,-30,2c0,0,-12,1,-19,3c0,0,-7,3,-10,7c0,0,-3,4,-3,10V412c0,0,0,58,-9,93c0,0,-9,35,-26,61c0,0,-17,25,-44,38c0,0,-27,14,-63,14c0,0,-46,0,-93,-33c0,0,-46,-33,-97,-96V18c0,0,0,-6,-3,-10c0,0,-2,-4,-9,-7c0,0,-7,-2,-19,-3c0,0,-12,-2,-30,-2Z" 
id="f1_9n"
transform="scale(0.001,-0.001)" />

<path d="M324,-4c0,0,-23,0,-37,2c0,0,-15,1,-24,3c0,0,-9,3,-14,8c0,0,-4,6,-7,13L46,660c0,0,-4,11,-5,18c0,0,-2,8,-2,13c0,0,0,7,3,11c0,0,3,4,10,7c0,0,8,2,19,3c0,0,12,1,30,1c0,0,20,0,33,-1c0,0,13,-1,20,-4c0,0,6,-3,9,-8c0,0,3,-4,5,-11L330,136l2,-7l1,7L482,689c0,0,1,7,5,11c0,0,3,5,10,8c0,0,6,3,18,4c0,0,12,1,31,1c0,0,18,0,29,-1c0,0,12,-1,18,-4c0,0,7,-3,10,-7c0,0,3,-5,5,-11L768,136l1,-7l1,7L930,689c0,0,1,7,5,11c0,0,3,5,10,8c0,0,7,3,20,4c0,0,12,1,31,1c0,0,18,0,29,-1c0,0,11,-1,17,-4c0,0,6,-3,9,-6c0,0,3,-4,3,-11c0,0,0,-5,-2,-13c0,0,-1,-7,-5,-18L849,22c0,0,-2,-8,-7,-13c0,0,-5,-6,-13,-9c0,0,-9,-2,-24,-3c0,0,-15,-1,-37,-1c0,0,-23,0,-39,2c0,0,-15,1,-25,3c0,0,-9,3,-14,8c0,0,-4,6,-6,13L543,510l-2,6l-2,-6L409,22c0,0,-3,-8,-7,-13c0,0,-5,-6,-15,-9c0,0,-10,-2,-25,-3c0,0,-15,-1,-38,-1Z" 
id="f1_ci"
transform="scale(0.001,-0.001)" />

<path d="M192,-6c0,0,-45,0,-62,16c0,0,-18,18,-18,69c0,0,0,53,18,71c0,0,18,17,64,17c0,0,45,0,62,-17c0,0,17,-17,17,-69c0,0,0,-53,-18,-70c0,0,-17,-17,-63,-17Z" 
id="f1_nt"
transform="scale(0.001,-0.001)" />

<path d="M318,-13c0,0,-48,0,-90,8c0,0,-41,8,-73,19c0,0,-33,12,-55,25c0,0,-22,13,-30,22c0,0,-9,8,-13,22c0,0,-4,14,-4,37c0,0,0,17,1,27c0,0,2,11,5,18c0,0,3,7,7,9c0,0,5,3,11,3c0,0,10,0,29,-13c0,0,19,-12,49,-27c0,0,30,-15,72,-28c0,0,42,-13,97,-13c0,0,42,0,77,11c0,0,34,11,59,32c0,0,25,20,39,50c0,0,13,30,13,68c0,0,0,41,-19,70c0,0,-18,29,-49,51c0,0,-30,22,-70,41c0,0,-39,18,-80,37c0,0,-41,19,-80,42c0,0,-39,23,-69,54c0,0,-31,32,-50,74c0,0,-19,42,-19,101c0,0,0,60,22,108c0,0,22,47,61,79c0,0,40,32,94,49c0,0,54,17,116,17c0,0,32,0,65,-6c0,0,32,-5,61,-15c0,0,29,-9,51,-20c0,0,22,-12,30,-19c0,0,7,-7,9,-11c0,0,2,-4,4,-10c0,0,1,-7,2,-16c0,0,1,-9,1,-23c0,0,0,-13,-2,-24c0,0,-1,-10,-3,-17c0,0,-2,-8,-6,-11c0,0,-4,-3,-10,-3c0,0,-8,0,-25,10c0,0,-18,11,-43,24c0,0,-26,13,-60,23c0,0,-35,11,-78,11c0,0,-40,0,-70,-11c0,0,-30,-10,-49,-28c0,0,-20,-18,-29,-43c0,0,-10,-25,-10,-52c0,0,0,-40,18,-70c0,0,19,-29,50,-51c0,0,31,-22,71,-41c0,0,39,-19,80,-38c0,0,41,-19,81,-41c0,0,39,-23,70,-54c0,0,31,-31,50,-73c0,0,19,-42,19,-100c0,0,0,-68,-25,-121c0,0,-25,-53,-69,-89C552,61,508,24,448,5c0,0,-60,-18,-130,-18Z" 
id="f1_2n"
transform="scale(0.001,-0.001)" />

<path d="M188,-4c0,0,-28,0,-46,2c0,0,-18,2,-28,5c0,0,-11,3,-16,9c0,0,-4,5,-4,13v981c0,0,0,8,4,14c0,0,5,6,16,10c0,0,10,4,28,6c0,0,18,2,46,2c0,0,27,0,45,-2c0,0,18,-2,29,-6c0,0,11,-4,15,-10c0,0,5,-6,5,-14V639c0,0,48,47,98,71c0,0,51,23,105,23c0,0,68,0,115,-22c0,0,47,-22,75,-61c0,0,29,-39,42,-91c0,0,12,-52,12,-126V25c0,0,0,-8,-4,-13c0,0,-5,-6,-15,-9c0,0,-10,-3,-29,-5c0,0,-18,-2,-45,-2c0,0,-28,0,-46,2c0,0,-18,2,-29,5c0,0,-10,3,-15,9c0,0,-4,6,-4,13V405c0,0,0,49,-7,76c0,0,-7,28,-21,48c0,0,-13,19,-35,30c0,0,-21,11,-49,11c0,0,-36,0,-72,-26c0,0,-37,-26,-76,-76V25c0,0,0,-7,-5,-13c0,0,-4,-6,-15,-9c0,0,-11,-3,-29,-5c0,0,-18,-2,-45,-2Z" 
id="f2_9n"
transform="scale(0.001,-0.001)" />

<path d="M526,431c0,0,2,79,-32,124c0,0,-34,45,-105,45c0,0,-35,0,-62,-13c0,0,-26,-13,-44,-36c0,0,-17,-23,-27,-54c0,0,-9,-31,-11,-66ZM410,-17c0,0,-88,0,-155,22c0,0,-67,22,-112,68c0,0,-44,45,-66,115c0,0,-22,69,-22,162c0,0,0,89,23,161c0,0,23,71,67,120c0,0,44,50,107,76c0,0,63,26,142,26c0,0,84,0,143,-24c0,0,59,-25,97,-69c0,0,38,-43,56,-103c0,0,18,-60,18,-130V377c0,0,0,-34,-15,-51c0,0,-16,-16,-43,-16H245c0,0,0,-43,10,-77c0,0,11,-35,33,-59c0,0,22,-24,56,-37c0,0,35,-13,83,-13c0,0,50,0,87,7c0,0,37,8,65,16c0,0,27,9,45,16c0,0,18,7,29,7c0,0,6,0,11,-2c0,0,4,-3,7,-10c0,0,3,-7,4,-19c0,0,2,-12,2,-31c0,0,0,-16,-1,-28c0,0,-1,-12,-2,-20c0,0,-2,-8,-5,-14c0,0,-3,-5,-8,-10c0,0,-5,-6,-26,-15c0,0,-22,-9,-55,-17c0,0,-34,-8,-77,-14c0,0,-43,-7,-93,-7Z" 
id="f2_7z"
transform="scale(0.001,-0.001)" />

<path d="M344,-14c0,0,-56,0,-97,14c0,0,-42,14,-69,43c0,0,-26,29,-39,74c0,0,-13,45,-13,106V563H47c0,0,-15,0,-22,18c0,0,-7,17,-7,58c0,0,0,22,1,37c0,0,2,15,6,24c0,0,4,8,9,12c0,0,6,4,13,4h79V864c0,0,0,8,4,14c0,0,4,6,15,10c0,0,11,4,29,6c0,0,19,2,46,2c0,0,27,0,46,-2c0,0,18,-2,28,-6c0,0,11,-4,15,-10c0,0,5,-6,5,-14V716H459c0,0,7,0,13,-4c0,0,6,-4,9,-12c0,0,4,-9,6,-24c0,0,2,-15,2,-37c0,0,0,-41,-8,-58c0,0,-7,-18,-21,-18H314V251c0,0,0,-54,17,-81c0,0,17,-27,61,-27c0,0,15,0,27,2c0,0,12,3,22,6c0,0,9,4,15,6c0,0,7,3,12,3c0,0,4,0,9,-3c0,0,4,-2,6,-10c0,0,2,-8,4,-21c0,0,2,-14,2,-35c0,0,0,-33,-4,-50c0,0,-4,-18,-11,-25c0,0,-7,-7,-20,-12c0,0,-13,-5,-31,-9c0,0,-17,-4,-38,-6c0,0,-20,-3,-41,-3Z" 
id="f2_bf"
transform="scale(0.001,-0.001)" />

<path d="M188,-4c0,0,-28,0,-46,2c0,0,-18,2,-28,5c0,0,-11,3,-16,9c0,0,-4,5,-4,13V691c0,0,0,7,4,13c0,0,3,5,13,9c0,0,10,4,25,6c0,0,15,2,38,2c0,0,24,0,40,-2c0,0,15,-2,24,-6c0,0,9,-4,12,-9c0,0,4,-6,4,-13V608c0,0,26,37,49,61c0,0,23,25,44,39c0,0,21,14,42,20c0,0,21,5,42,5c0,0,10,0,21,-1c0,0,11,-1,23,-4c0,0,12,-2,21,-5c0,0,9,-4,13,-8c0,0,4,-3,6,-8c0,0,2,-4,3,-12c0,0,2,-8,2,-24c0,0,1,-15,1,-42c0,0,0,-27,-1,-44c0,0,-2,-17,-5,-27c0,0,-3,-10,-8,-13c0,0,-5,-4,-12,-4c0,0,-6,0,-13,3c0,0,-8,2,-17,5c0,0,-10,3,-21,6c0,0,-11,2,-24,2c0,0,-16,0,-32,-6c0,0,-15,-6,-32,-20c0,0,-17,-13,-35,-36c0,0,-19,-22,-39,-55V25c0,0,0,-8,-5,-13c0,0,-4,-6,-15,-9c0,0,-11,-3,-29,-5c0,0,-18,-2,-45,-2Z" 
id="f2_b1"
transform="scale(0.001,-0.001)" />

<path d="M409,132c0,0,42,0,73,15c0,0,32,16,52,45c0,0,20,29,29,70c0,0,10,42,10,95c0,0,0,49,-8,91c0,0,-8,41,-26,72c0,0,-19,30,-50,48c0,0,-30,17,-77,17c0,0,-42,0,-73,-16c0,0,-31,-15,-51,-44c0,0,-21,-30,-31,-71c0,0,-10,-42,-10,-95c0,0,0,-49,9,-91c0,0,8,-41,26,-72c0,0,18,-30,49,-47c0,0,32,-17,78,-17ZM402,-17c0,0,-89,0,-154,24c0,0,-66,25,-109,72c0,0,-43,47,-64,115c0,0,-21,69,-21,157c0,0,0,85,23,156c0,0,22,70,68,121c0,0,45,50,113,78c0,0,69,27,160,27c0,0,90,0,155,-24c0,0,66,-24,109,-71c0,0,43,-47,64,-116c0,0,21,-69,21,-157c0,0,0,-86,-23,-156c0,0,-22,-70,-68,-121C676,88,631,38,562,10c0,0,-68,-27,-160,-27Z" 
id="f2_am"
transform="scale(0.001,-0.001)" />

<path d="M345,-143c0,0,43,0,72,9c0,0,29,8,47,23c0,0,18,14,25,31c0,0,8,18,8,37c0,0,0,33,-27,50c0,0,-27,18,-74,20L263,30C263,30,243,16,232,3c0,0,-12,-12,-19,-24c0,0,-7,-12,-9,-23c0,0,-3,-11,-3,-23c0,0,0,-37,38,-56c0,0,38,-20,106,-20Zm-4,517c0,0,28,0,49,9c0,0,21,9,35,25c0,0,14,16,21,36c0,0,7,21,7,43c0,0,0,54,-30,84c0,0,-30,29,-84,29c0,0,-28,0,-49,-9c0,0,-21,-9,-34,-25c0,0,-14,-16,-21,-38c0,0,-7,-21,-7,-44c0,0,0,-51,30,-80c0,0,30,-30,83,-30Zm-4,-645c0,0,-85,0,-145,14c0,0,-60,13,-98,37c0,0,-39,24,-56,57c0,0,-18,33,-18,73c0,0,0,24,6,47c0,0,7,22,19,42c0,0,12,20,30,39c0,0,18,18,41,35c0,0,-32,18,-49,47c0,0,-18,29,-18,64c0,0,0,44,20,80c0,0,21,36,53,65c0,0,-27,26,-42,63c0,0,-16,37,-16,91c0,0,0,58,21,104c0,0,20,46,57,78c0,0,36,32,87,49c0,0,51,16,112,16c0,0,31,0,60,-3c0,0,29,-4,53,-11H665c0,0,13,0,21,-17c0,0,8,-16,8,-55c0,0,0,-36,-8,-53c0,0,-9,-17,-21,-17H587c0,0,17,-18,24,-41c0,0,7,-22,7,-47c0,0,0,-58,-20,-103c0,0,-19,-45,-55,-76c0,0,-36,-31,-88,-47c0,0,-51,-17,-113,-17c0,0,-32,0,-61,8c0,0,-30,8,-45,19c0,0,-9,-10,-16,-23c0,0,-7,-14,-7,-30c0,0,0,-22,19,-36c0,0,19,-13,53,-15l162,-6c0,0,57,-2,101,-16c0,0,44,-14,75,-39c0,0,30,-24,46,-59c0,0,16,-35,16,-79c0,0,0,-49,-22,-93c0,0,-21,-44,-65,-76c0,0,-43,-32,-108,-50c0,0,-66,-19,-153,-19Z" 
id="f2_9d"
transform="scale(0.001,-0.001)" />

<path d="M337,115c0,0,39,0,73,21c0,0,33,20,67,59V308H405c0,0,-45,0,-77,-7c0,0,-32,-6,-53,-20c0,0,-20,-13,-29,-32c0,0,-9,-19,-9,-44c0,0,0,-42,26,-66c0,0,27,-24,74,-24ZM296,-17c0,0,-53,0,-98,14c0,0,-44,13,-77,40c0,0,-32,28,-50,68c0,0,-18,40,-18,94c0,0,0,58,23,101c0,0,22,43,68,71c0,0,45,28,112,42c0,0,67,13,156,13h65v40c0,0,0,32,-6,55c0,0,-7,24,-21,39c0,0,-15,16,-39,23c0,0,-24,8,-60,8c0,0,-47,0,-84,-11c0,0,-37,-10,-66,-23c0,0,-28,-13,-47,-23c0,0,-19,-11,-31,-11c0,0,-9,0,-15,5c0,0,-6,6,-10,15c0,0,-5,10,-7,24c0,0,-2,14,-2,31c0,0,0,23,4,37c0,0,3,13,14,24c0,0,10,11,36,24c0,0,27,13,62,25c0,0,35,11,76,18c0,0,42,7,86,7c0,0,78,0,134,-15c0,0,55,-15,91,-47c0,0,36,-32,53,-82c0,0,16,-50,16,-118V23c0,0,0,-11,-7,-17c0,0,-8,-6,-24,-7c0,0,-16,-3,-47,-3c0,0,-34,0,-49,3c0,0,-15,1,-21,7c0,0,-7,6,-7,17V76C506,76,465,32,412,7c0,0,-52,-24,-116,-24Z" 
id="f2_77"
transform="scale(0.001,-0.001)" />

<path d="M188,-4c0,0,-28,0,-46,2c0,0,-18,2,-28,5c0,0,-11,3,-16,9c0,0,-4,5,-4,13V691c0,0,0,7,4,13c0,0,3,5,13,9c0,0,10,4,25,6c0,0,15,2,38,2c0,0,24,0,40,-2c0,0,15,-2,24,-6c0,0,9,-4,12,-9c0,0,4,-6,4,-13V614c0,0,55,60,110,89c0,0,55,30,115,30c0,0,41,0,74,-8c0,0,33,-9,59,-25c0,0,26,-16,44,-38c0,0,19,-23,32,-50c0,0,30,32,58,55c0,0,29,23,57,38c0,0,28,14,56,21c0,0,28,7,57,7c0,0,66,0,112,-22c0,0,45,-22,73,-61c0,0,28,-38,40,-90c0,0,12,-51,12,-109V25c0,0,0,-8,-5,-13c0,0,-4,-6,-15,-9c0,0,-10,-3,-28,-5c0,0,-18,-2,-46,-2c0,0,-28,0,-46,2c0,0,-18,2,-29,5c0,0,-11,3,-15,9c0,0,-4,6,-4,13V420c0,0,0,34,-6,61c0,0,-7,28,-20,48c0,0,-13,19,-32,30c0,0,-20,11,-47,11c0,0,-34,0,-68,-26c0,0,-34,-26,-74,-76V25c0,0,0,-7,-5,-13c0,0,-4,-6,-15,-9c0,0,-11,-3,-29,-5c0,0,-18,-2,-45,-2c0,0,-27,0,-45,2c0,0,-18,2,-29,5c0,0,-11,3,-16,9c0,0,-4,6,-4,13V420c0,0,0,34,-6,61c0,0,-7,28,-19,48c0,0,-13,19,-33,30c0,0,-21,11,-48,11c0,0,-34,0,-68,-26c0,0,-35,-26,-74,-76V25c0,0,0,-7,-5,-13c0,0,-4,-6,-15,-9c0,0,-11,-3,-29,-5c0,0,-18,-2,-45,-2Z" 
id="f2_ae"
transform="scale(0.001,-0.001)" />

<path d="M275,-17c0,0,-37,0,-71,6c0,0,-34,6,-61,13c0,0,-27,9,-45,18c0,0,-18,9,-26,17c0,0,-8,8,-13,25c0,0,-4,17,-4,49c0,0,0,22,1,35c0,0,2,13,5,21c0,0,3,8,7,10c0,0,5,3,11,3c0,0,9,0,25,-9c0,0,16,-10,40,-21c0,0,24,-11,55,-21c0,0,32,-10,72,-10c0,0,26,0,46,5c0,0,19,6,34,15c0,0,14,10,22,25c0,0,7,15,7,34c0,0,0,23,-13,39c0,0,-14,16,-37,28c0,0,-23,11,-52,22c0,0,-28,10,-58,23c0,0,-31,13,-59,29c0,0,-29,17,-52,41c0,0,-23,23,-37,57c0,0,-13,34,-13,81c0,0,0,47,18,87c0,0,19,40,54,69c0,0,35,28,86,44c0,0,50,15,113,15c0,0,31,0,61,-4c0,0,29,-5,53,-11c0,0,24,-7,40,-15c0,0,17,-7,24,-13c0,0,7,-6,10,-11c0,0,3,-6,4,-14c0,0,2,-7,3,-19c0,0,1,-12,1,-29c0,0,0,-20,-1,-33c0,0,-1,-12,-4,-20c0,0,-2,-7,-7,-10c0,0,-4,-3,-10,-3c0,0,-7,0,-21,8c0,0,-14,8,-36,17c0,0,-21,9,-49,17c0,0,-28,7,-64,7c0,0,-25,0,-44,-5c0,0,-19,-5,-30,-15c0,0,-12,-9,-18,-22c0,0,-6,-14,-6,-28c0,0,0,-24,14,-39c0,0,14,-16,37,-28c0,0,23,-12,53,-22c0,0,29,-11,59,-23c0,0,31,-12,60,-29c0,0,30,-16,53,-40c0,0,23,-24,37,-57c0,0,14,-33,14,-79c0,0,0,-57,-21,-100c0,0,-21,-43,-60,-72c0,0,-39,-29,-92,-43c0,0,-53,-15,-115,-15Z" 
id="f2_b5"
transform="scale(0.001,-0.001)" />

<path d="M188,-4c0,0,-28,0,-46,2c0,0,-18,2,-28,5c0,0,-11,3,-16,9c0,0,-4,5,-4,13V691c0,0,0,7,4,13c0,0,3,5,13,9c0,0,10,4,25,6c0,0,15,2,38,2c0,0,24,0,40,-2c0,0,15,-2,24,-6c0,0,9,-4,12,-9c0,0,4,-6,4,-13V614c0,0,55,60,112,89c0,0,57,30,119,30c0,0,68,0,115,-22c0,0,47,-22,75,-61c0,0,29,-38,42,-90c0,0,12,-51,12,-124V25c0,0,0,-8,-4,-13c0,0,-5,-6,-15,-9c0,0,-10,-3,-29,-5c0,0,-18,-2,-45,-2c0,0,-28,0,-46,2c0,0,-18,2,-29,5c0,0,-10,3,-15,9c0,0,-4,6,-4,13V405c0,0,0,49,-7,76c0,0,-7,28,-21,48c0,0,-13,19,-35,30c0,0,-21,11,-49,11c0,0,-36,0,-72,-26c0,0,-37,-26,-76,-76V25c0,0,0,-7,-5,-13c0,0,-4,-6,-15,-9c0,0,-11,-3,-29,-5c0,0,-18,-2,-45,-2Z" 
id="f2_af"
transform="scale(0.001,-0.001)" />

<path d="M188,-4c0,0,-28,0,-46,2c0,0,-18,2,-28,5c0,0,-11,3,-16,9c0,0,-4,5,-4,13V689c0,0,0,8,4,13c0,0,5,6,16,10c0,0,10,4,28,6c0,0,18,3,46,3c0,0,27,0,45,-3c0,0,18,-2,29,-6c0,0,11,-4,15,-10c0,0,5,-5,5,-13V25c0,0,0,-8,-5,-13c0,0,-4,-6,-15,-9c0,0,-11,-3,-29,-5c0,0,-18,-2,-45,-2Zm-1,820c0,0,-63,0,-85,21c0,0,-22,21,-22,75c0,0,0,57,23,79c0,0,23,22,86,22c0,0,63,0,85,-21c0,0,22,-21,22,-76c0,0,0,-56,-23,-78c0,0,-23,-22,-86,-22Z" 
id="f2_9q"
transform="scale(0.001,-0.001)" />

<path d="M372,-4c0,0,-18,0,-30,2c0,0,-13,2,-21,3c0,0,-7,3,-10,8c0,0,-3,4,-3,10V857H36c0,0,-6,0,-11,3c0,0,-5,2,-8,9c0,0,-2,6,-4,17c0,0,-2,10,-2,24c0,0,0,14,2,25c0,0,2,11,4,17c0,0,3,7,8,10c0,0,5,3,11,3H708c0,0,6,0,11,-3c0,0,5,-3,8,-10c0,0,4,-6,5,-17c0,0,2,-11,2,-25c0,0,0,-14,-2,-24c0,0,-1,-11,-5,-17c0,0,-3,-7,-8,-9c0,0,-5,-3,-11,-3H436V19c0,0,0,-6,-3,-10c0,0,-3,-5,-10,-8c0,0,-8,-1,-20,-3c0,0,-12,-2,-31,-2Z" 
id="f1_2t"
transform="scale(0.001,-0.001)" />

<path d="M188,-4c0,0,-28,0,-46,2c0,0,-18,2,-28,5c0,0,-11,3,-16,9c0,0,-4,5,-4,13v981c0,0,0,8,4,14c0,0,5,6,16,10c0,0,10,4,28,6c0,0,18,2,46,2c0,0,27,0,45,-2c0,0,18,-2,29,-6c0,0,11,-4,15,-10c0,0,5,-6,5,-14V25c0,0,0,-8,-5,-13c0,0,-4,-6,-15,-9c0,0,-11,-3,-29,-5c0,0,-18,-2,-45,-2Z" 
id="f2_a8"
transform="scale(0.001,-0.001)" />

<path d="M346,-4c0,0,-23,0,-38,2c0,0,-15,1,-24,3c0,0,-9,3,-15,8c0,0,-5,6,-8,13L33,660c0,0,-3,9,-5,15c0,0,-2,7,-2,11c0,0,0,3,0,5c0,0,0,6,3,11c0,0,3,4,10,7c0,0,7,2,18,3c0,0,12,1,29,1c0,0,22,0,35,-1c0,0,13,-1,20,-4c0,0,7,-3,10,-8c0,0,4,-4,7,-11L347,135l3,-9l2,9L540,689c0,0,1,7,5,11c0,0,3,5,11,8c0,0,7,3,19,4c0,0,12,1,32,1c0,0,18,0,29,-1c0,0,11,-1,17,-4c0,0,7,-3,9,-7c0,0,3,-4,3,-10c0,0,0,-3,-1,-6c0,0,0,-4,-1,-7c0,0,0,-4,-2,-8c0,0,-1,-5,-2,-10L430,22c0,0,-3,-8,-8,-13c0,0,-5,-6,-15,-9c0,0,-9,-2,-24,-3c0,0,-15,-1,-37,-1Z" 
id="f1_ch"
transform="scale(0.001,-0.001)" />

<path d="M224,-4c0,0,-26,0,-45,2c0,0,-18,2,-29,5c0,0,-11,3,-15,9c0,0,-4,5,-4,13V563H48c0,0,-14,0,-21,18c0,0,-7,17,-7,58c0,0,0,22,1,37c0,0,2,15,6,24c0,0,3,8,9,12c0,0,5,4,13,4h82v56c0,0,0,68,13,119c0,0,14,51,43,85c0,0,29,34,73,51c0,0,45,17,105,17c0,0,29,0,55,-5c0,0,27,-4,42,-10c0,0,15,-6,20,-10c0,0,5,-5,8,-15c0,0,4,-9,5,-23c0,0,2,-15,2,-37c0,0,0,-21,-2,-34c0,0,-1,-13,-4,-20c0,0,-3,-7,-7,-10c0,0,-4,-3,-8,-3c0,0,-5,0,-12,3c0,0,-6,3,-16,6c0,0,-9,2,-22,5c0,0,-12,3,-29,3c0,0,-21,0,-35,-7c0,0,-15,-6,-25,-20c0,0,-9,-14,-14,-36c0,0,-4,-22,-4,-54V716H440c0,0,7,0,13,-4c0,0,5,-4,9,-12c0,0,4,-9,5,-24c0,0,2,-15,2,-37c0,0,0,-41,-7,-58c0,0,-8,-18,-22,-18H319V25c0,0,0,-8,-5,-13c0,0,-4,-6,-15,-9c0,0,-10,-3,-29,-5c0,0,-19,-2,-46,-2Z" 
id="f2_89"
transform="scale(0.001,-0.001)" />

<path d="M380,142c0,0,19,0,37,5c0,0,19,6,38,19c0,0,19,12,39,33c0,0,20,20,44,50V470c0,0,-40,50,-77,77c0,0,-37,27,-77,27c0,0,-37,0,-63,-18c0,0,-27,-19,-43,-49c0,0,-16,-31,-24,-68c0,0,-8,-38,-8,-77c0,0,0,-42,7,-82c0,0,7,-39,22,-70c0,0,15,-31,41,-50c0,0,25,-18,64,-18ZM333,-17c0,0,-76,0,-129,29c0,0,-52,29,-85,79c0,0,-33,50,-48,117c0,0,-15,67,-15,141c0,0,0,89,19,160c0,0,19,71,55,121c0,0,37,50,91,76c0,0,55,27,125,27c0,0,56,0,102,-22c0,0,45,-23,90,-67v360c0,0,0,8,4,14c0,0,4,6,15,10c0,0,11,4,29,6c0,0,18,2,45,2c0,0,28,0,46,-2c0,0,18,-2,28,-6c0,0,11,-4,15,-10c0,0,5,-6,5,-14V25c0,0,0,-8,-4,-14c0,0,-4,-5,-13,-9c0,0,-9,-3,-24,-4c0,0,-15,-2,-38,-2c0,0,-24,0,-39,2c0,0,-15,1,-24,4c0,0,-9,4,-13,9c0,0,-5,6,-5,14V99C565,99,514,44,458,13c0,0,-57,-30,-125,-30Z" 
id="f2_7v"
transform="scale(0.001,-0.001)" />

<path d="M334,-17c0,0,-69,0,-115,22c0,0,-47,22,-76,61c0,0,-28,39,-41,90c0,0,-12,51,-12,127V691c0,0,0,7,4,13c0,0,4,5,15,9c0,0,11,4,29,6c0,0,19,2,45,2c0,0,28,0,46,-2c0,0,18,-2,29,-6c0,0,11,-4,15,-9c0,0,5,-6,5,-13V314c0,0,0,-52,6,-79c0,0,7,-28,21,-48c0,0,14,-20,35,-30c0,0,21,-11,49,-11c0,0,36,0,72,26c0,0,36,26,77,76V691c0,0,0,7,4,13c0,0,4,5,15,9c0,0,11,4,29,6c0,0,18,2,45,2c0,0,28,0,46,-2c0,0,18,-2,28,-6c0,0,11,-4,15,-9c0,0,5,-6,5,-13V25c0,0,0,-8,-4,-13c0,0,-4,-6,-13,-9c0,0,-10,-3,-25,-5c0,0,-15,-2,-38,-2c0,0,-25,0,-40,2c0,0,-16,2,-25,5c0,0,-9,3,-12,9c0,0,-4,5,-4,13v77c0,0,-55,-60,-112,-90c0,0,-57,-29,-118,-29Z" 
id="f2_c6"
transform="scale(0.001,-0.001)" />

<path d="M94,0C94,0,73,0,63,13C63,13,52,27,52,57V92c0,0,0,13,1,24c0,0,1,11,4,21c0,0,4,10,9,20c0,0,6,11,15,23L331,565H94c0,0,-14,0,-23,18c0,0,-8,18,-8,57c0,0,0,22,1,37c0,0,2,14,6,23c0,0,4,8,10,12c0,0,6,4,14,4H501c0,0,11,0,18,-2c0,0,8,-3,13,-9c0,0,4,-6,7,-16c0,0,3,-11,3,-26V626c0,0,0,-15,-2,-26c0,0,-1,-12,-4,-22c0,0,-3,-11,-9,-21c0,0,-5,-10,-13,-22L266,151H529c0,0,7,0,13,-3c0,0,6,-3,10,-12c0,0,4,-8,6,-22c0,0,2,-15,2,-37c0,0,0,-22,-2,-37c0,0,-2,-15,-6,-24c0,0,-4,-9,-10,-13c0,0,-6,-3,-13,-3Z" 
id="f2_ct"
transform="scale(0.001,-0.001)" />

<path d="M432,142c0,0,36,0,62,18c0,0,26,19,42,49c0,0,16,31,24,69c0,0,8,38,8,76c0,0,0,43,-6,82c0,0,-7,39,-22,70c0,0,-15,30,-40,49c0,0,-25,18,-62,18c0,0,-19,0,-37,-6c0,0,-19,-5,-38,-18c0,0,-19,-13,-39,-33c0,0,-20,-20,-42,-50V247c0,0,39,-51,75,-78c0,0,36,-27,75,-27ZM188,-270c0,0,-28,0,-46,2c0,0,-18,3,-28,7c0,0,-11,4,-16,10c0,0,-4,6,-4,13V691c0,0,0,7,4,13c0,0,3,5,13,9c0,0,9,4,24,6c0,0,15,2,39,2c0,0,22,0,37,-2c0,0,15,-2,25,-6c0,0,9,-4,13,-9c0,0,4,-6,4,-13V612c0,0,29,30,57,53c0,0,28,23,57,38c0,0,29,15,60,23c0,0,31,7,66,7c0,0,73,0,124,-28c0,0,52,-29,84,-79c0,0,33,-50,48,-117c0,0,15,-66,15,-141c0,0,0,-89,-19,-161c0,0,-19,-71,-56,-121C689,86,652,36,598,9c0,0,-54,-26,-125,-26c0,0,-29,0,-53,6c0,0,-24,6,-47,16c0,0,-23,12,-45,29c0,0,-23,17,-46,40V-238c0,0,0,-7,-5,-13c0,0,-4,-6,-15,-10c0,0,-11,-4,-29,-7c0,0,-18,-2,-45,-2Z" 
id="f2_ay"
transform="scale(0.001,-0.001)" />

<path d="M361,-4c0,0,-39,0,-64,2c0,0,-25,2,-40,5c0,0,-14,5,-20,13c0,0,-7,7,-10,19L27,638c0,0,-5,15,-7,27c0,0,-3,12,-3,17c0,0,-1,5,-1,10c0,0,0,7,4,13c0,0,4,5,15,9c0,0,10,4,28,5c0,0,19,2,46,2c0,0,31,0,50,-2c0,0,18,-2,29,-5c0,0,11,-4,15,-10c0,0,5,-7,8,-15L363,200l4,-19l5,19L521,689c0,0,2,8,7,15c0,0,5,6,15,10c0,0,10,3,28,5c0,0,18,2,46,2c0,0,28,0,45,-2c0,0,18,-1,27,-5c0,0,10,-4,14,-9c0,0,3,-6,3,-13c0,0,0,-4,0,-9c0,0,0,-6,-1,-12c0,0,-2,-6,-3,-15c0,0,-2,-8,-5,-18L497,35c0,0,-4,-12,-10,-20c0,0,-7,-8,-21,-12c0,0,-15,-4,-40,-5c0,0,-25,-2,-65,-2Z" 
id="f2_ch"
transform="scale(0.001,-0.001)" />

<path d="M541,-13c0,0,-112,0,-200,34c0,0,-88,35,-149,99c0,0,-60,64,-92,154c0,0,-33,90,-33,200c0,0,0,115,35,208c0,0,35,94,98,160c0,0,63,65,151,101c0,0,89,37,196,37c0,0,55,0,104,-10c0,0,48,-10,86,-23c0,0,37,-12,63,-28c0,0,26,-15,35,-24c0,0,10,-10,14,-23c0,0,4,-13,4,-37c0,0,0,-14,-2,-25c0,0,-1,-10,-4,-18c0,0,-3,-7,-8,-10c0,0,-4,-3,-9,-3c0,0,-9,0,-30,14c0,0,-21,15,-56,32c0,0,-35,17,-84,31c0,0,-49,14,-116,14c0,0,-80,0,-143,-29c0,0,-64,-29,-108,-81c0,0,-44,-51,-67,-122c0,0,-24,-71,-24,-154c0,0,0,-93,26,-165c0,0,26,-72,71,-121c0,0,46,-49,109,-75c0,0,63,-25,138,-25c0,0,45,0,91,11c0,0,46,10,85,32V423H499c0,0,-13,0,-19,13c0,0,-7,13,-7,40c0,0,0,14,2,24c0,0,1,10,5,17c0,0,3,6,7,9c0,0,5,3,12,3H805c0,0,8,0,17,-3c0,0,8,-3,14,-9c0,0,7,-6,11,-16c0,0,4,-11,4,-24V108c0,0,0,-19,-7,-33c0,0,-7,-15,-28,-26c0,0,-22,-10,-56,-23C760,26,725,13,689,4c0,0,-37,-8,-74,-12c0,0,-37,-5,-74,-5Z" 
id="f1_14"
transform="scale(0.001,-0.001)" />

<path d="M431,92c0,0,46,0,79,22c0,0,33,23,53,60c0,0,21,37,30,83c0,0,10,46,10,93c0,0,0,51,-8,100c0,0,-8,49,-28,86c0,0,-19,37,-51,60c0,0,-32,23,-80,23c0,0,-24,0,-47,-7c0,0,-23,-7,-47,-22c0,0,-24,-16,-50,-41c0,0,-25,-24,-55,-62V219c0,0,51,-62,98,-95c0,0,46,-32,96,-32ZM443,-13c0,0,-32,0,-59,7c0,0,-27,6,-53,19c0,0,-26,14,-52,36c0,0,-27,22,-56,52V18c0,0,0,-6,-3,-10c0,0,-3,-5,-9,-7c0,0,-7,-2,-17,-3c0,0,-10,-2,-26,-2c0,0,-15,0,-25,2c0,0,-11,1,-17,3c0,0,-7,2,-9,7c0,0,-3,4,-3,10v997c0,0,0,6,3,11c0,0,3,4,10,7c0,0,7,3,19,5c0,0,12,1,30,1c0,0,18,0,30,-1c0,0,12,-2,19,-5c0,0,7,-3,9,-7c0,0,3,-5,3,-10V614c0,0,30,31,58,52c0,0,28,20,55,34c0,0,27,13,54,19c0,0,27,6,57,6c0,0,73,0,125,-30c0,0,52,-29,84,-78c0,0,32,-48,47,-114c0,0,15,-66,15,-139c0,0,0,-87,-19,-157c0,0,-19,-70,-56,-119c0,0,-37,-49,-90,-76c0,0,-54,-25,-124,-25Z" 
id="f1_7k"
transform="scale(0.001,-0.001)" />

<path d="M189,-4c0,0,-18,0,-30,2c0,0,-12,2,-19,3c0,0,-7,3,-9,8c0,0,-3,4,-3,10V907c0,0,0,31,16,45c0,0,17,13,37,13h78c0,0,24,0,41,-4c0,0,18,-5,32,-15c0,0,13,-9,22,-24c0,0,9,-15,16,-35L649,188h4L944,884c0,0,8,23,18,39c0,0,9,15,21,25c0,0,11,9,26,13c0,0,14,4,32,4h82c0,0,11,0,21,-3c0,0,10,-4,17,-11c0,0,7,-7,12,-18c0,0,4,-10,4,-26V19c0,0,0,-6,-3,-10c0,0,-3,-5,-10,-8c0,0,-8,-1,-19,-3c0,0,-12,-2,-30,-2c0,0,-18,0,-30,2c0,0,-12,2,-19,3c0,0,-7,3,-10,8c0,0,-3,4,-3,10V860h-2L707,15c0,0,-2,-5,-6,-9c0,0,-4,-3,-12,-6c0,0,-8,-2,-18,-3c0,0,-11,-1,-26,-1c0,0,-16,0,-27,2c0,0,-11,1,-19,3c0,0,-7,2,-11,6c0,0,-4,4,-6,8L253,860V19c0,0,0,-6,-3,-10c0,0,-3,-5,-11,-8c0,0,-7,-1,-19,-3c0,0,-12,-2,-31,-2Z" 
id="f1_1x"
transform="scale(0.001,-0.001)" />

<path d="M69,-215c0,0,-12,0,-21,1c0,0,-8,1,-12,4c0,0,-4,2,-4,7c0,0,-1,4,2,10L134,11v96c0,0,0,20,4,32c0,0,4,12,13,18c0,0,9,6,22,8c0,0,13,2,33,2c0,0,19,0,32,-2c0,0,13,-2,22,-8c0,0,9,-6,13,-18c0,0,4,-12,4,-32c0,0,0,-23,-2,-43c0,0,-3,-19,-8,-36c0,0,-5,-17,-14,-33c0,0,-8,-17,-21,-36L130,-194c0,0,-4,-5,-9,-9c0,0,-5,-4,-12,-7c0,0,-7,-3,-16,-4c0,0,-9,-1,-24,-1Z" 
id="f1_nq"
transform="scale(0.001,-0.001)" />

<path d="M192,-4c0,0,-18,0,-30,2c0,0,-13,2,-20,3c0,0,-8,3,-11,8c0,0,-3,5,-3,10V913c0,0,0,29,15,40c0,0,16,12,33,12H610c0,0,5,0,10,-3c0,0,5,-3,9,-10c0,0,4,-6,5,-17c0,0,2,-11,2,-25c0,0,0,-14,-2,-24c0,0,-1,-11,-5,-17c0,0,-4,-7,-9,-9c0,0,-5,-3,-10,-3H256V528H591c0,0,5,0,10,-3c0,0,5,-2,8,-8c0,0,4,-6,6,-16c0,0,1,-10,1,-26c0,0,0,-14,-1,-24c0,0,-2,-10,-6,-17c0,0,-3,-6,-8,-9c0,0,-5,-4,-10,-4H256V19c0,0,0,-5,-3,-10c0,0,-3,-5,-10,-8c0,0,-7,-1,-19,-3c0,0,-12,-2,-32,-2Z" 
id="f1_13"
transform="scale(0.001,-0.001)" />

<path d="M441,106c0,0,45,0,77,10c0,0,33,10,58,31c0,0,25,21,39,51c0,0,15,31,15,71c0,0,0,43,-14,76c0,0,-14,33,-41,55c0,0,-26,23,-66,34c0,0,-40,12,-100,12H255V106ZM401,549c0,0,50,0,81,13c0,0,30,13,50,35c0,0,20,22,30,51c0,0,9,29,9,61c0,0,0,35,-10,63c0,0,-9,28,-30,48c0,0,-21,20,-55,30c0,0,-33,10,-88,10H255V549ZM176,0c0,0,-17,0,-33,12c0,0,-15,11,-15,40V913c0,0,0,29,15,41c0,0,16,11,33,11H395c0,0,87,0,142,-16c0,0,55,-17,92,-48c0,0,37,-31,55,-77c0,0,19,-45,19,-103c0,0,0,-34,-8,-65c0,0,-8,-32,-24,-58c0,0,-16,-27,-41,-47c0,0,-24,-21,-55,-35c0,0,39,-7,74,-27c0,0,34,-20,60,-50c0,0,26,-31,41,-72c0,0,15,-41,15,-90c0,0,0,-46,-12,-84c0,0,-12,-39,-32,-69c0,0,-21,-31,-51,-54c0,0,-29,-23,-66,-39C604,31,567,16,525,8C525,8,483,0,428,0Z" 
id="f1_i"
transform="scale(0.001,-0.001)" />

<path d="M192,-4c0,0,-18,0,-30,2c0,0,-13,2,-20,3c0,0,-8,3,-11,8c0,0,-3,4,-3,10V946c0,0,0,6,3,11c0,0,3,4,11,7c0,0,7,2,20,4c0,0,12,2,30,2c0,0,19,0,31,-2c0,0,13,-2,20,-4c0,0,7,-3,10,-7c0,0,3,-5,3,-11V559H696V946c0,0,0,6,3,10c0,0,3,5,10,8c0,0,8,2,20,4c0,0,11,2,31,2c0,0,18,0,30,-2c0,0,12,-2,20,-4c0,0,7,-3,10,-7c0,0,3,-5,3,-11V19c0,0,0,-6,-3,-10c0,0,-3,-5,-10,-8c0,0,-8,-1,-20,-3c0,0,-12,-2,-30,-2c0,0,-20,0,-31,2c0,0,-12,2,-20,3c0,0,-7,3,-10,8c0,0,-3,4,-3,10V448H256V19c0,0,0,-6,-3,-10c0,0,-3,-5,-10,-8c0,0,-7,-1,-20,-3c0,0,-12,-2,-31,-2Z" 
id="f1_19"
transform="scale(0.001,-0.001)" />

<path d="M176,-4c0,0,-18,0,-30,2c0,0,-12,1,-19,3c0,0,-7,3,-10,7c0,0,-3,4,-3,10v997c0,0,0,6,3,11c0,0,3,4,10,7c0,0,7,3,19,5c0,0,12,1,30,1c0,0,18,0,30,-1c0,0,12,-2,19,-5c0,0,7,-3,9,-7c0,0,3,-5,3,-11V408L492,687c0,0,6,7,12,12c0,0,7,5,16,8c0,0,10,4,22,5c0,0,13,1,31,1c0,0,19,0,31,-1c0,0,13,-1,21,-4c0,0,8,-3,11,-7c0,0,3,-4,3,-11c0,0,0,-9,-4,-18c0,0,-5,-8,-16,-20L375,408L648,54c0,0,10,-13,14,-20c0,0,4,-8,4,-15c0,0,0,-6,-3,-10c0,0,-3,-5,-10,-8c0,0,-7,-2,-20,-3c0,0,-13,-2,-32,-2c0,0,-20,0,-33,1c0,0,-13,1,-22,3c0,0,-9,3,-15,7c0,0,-5,5,-10,12L237,391V18c0,0,0,-6,-3,-10c0,0,-2,-4,-9,-7c0,0,-7,-2,-19,-3c0,0,-12,-2,-30,-2Z" 
id="f1_a5"
transform="scale(0.001,-0.001)" />

<path d="M192,-4c0,0,-18,0,-30,2c0,0,-13,2,-20,3c0,0,-8,3,-11,8c0,0,-3,4,-3,10V946c0,0,0,6,3,11c0,0,4,4,12,7c0,0,7,2,20,4c0,0,12,2,29,2c0,0,19,0,31,-2c0,0,13,-2,20,-4c0,0,7,-3,10,-7c0,0,3,-5,3,-11V19c0,0,0,-6,-3,-10c0,0,-3,-5,-10,-8c0,0,-7,-1,-20,-3c0,0,-12,-2,-31,-2Z" 
id="f1_1c"
transform="scale(0.001,-0.001)" />

<path d="M321,-256c0,0,-13,0,-23,1c0,0,-10,0,-17,3c0,0,-7,2,-11,5c0,0,-5,3,-7,7c0,0,-40,76,-71,154c0,0,-31,78,-51,157c0,0,-21,81,-32,163c0,0,-10,83,-10,167c0,0,0,84,11,166c0,0,12,82,33,163c0,0,21,81,52,160c0,0,31,78,69,155c0,0,0,3,4,5c0,0,3,2,9,4c0,0,6,3,16,4c0,0,11,1,27,1c0,0,17,0,28,-2c0,0,10,-3,16,-6c0,0,6,-4,7,-10c0,0,1,-6,-2,-13c0,0,-71,-150,-106,-307c0,0,-34,-158,-34,-318c0,0,0,-160,35,-318c0,0,35,-156,103,-308c0,0,4,-9,4,-15c0,0,1,-6,-4,-10c0,0,-6,-4,-16,-6c0,0,-11,-2,-30,-2Z" 
id="f1_ov"
transform="scale(0.001,-0.001)" />

<path d="M79,326c0,0,-14,0,-20,11c0,0,-7,12,-7,40c0,0,0,29,7,40c0,0,6,11,20,11H390c0,0,6,0,11,-2c0,0,5,-2,8,-9c0,0,4,-6,6,-16c0,0,2,-9,2,-24c0,0,0,-29,-7,-40c0,0,-7,-11,-20,-11Z" 
id="f1_oj"
transform="scale(0.001,-0.001)" />

<path d="M128,0c0,0,-11,0,-19,3c0,0,-8,2,-13,8c0,0,-6,6,-8,17c0,0,-3,11,-3,28c0,0,0,15,1,26c0,0,1,11,5,20c0,0,4,8,9,17c0,0,6,8,15,18L302,336c0,0,65,68,104,123c0,0,39,54,61,99c0,0,21,45,28,81c0,0,6,37,6,69c0,0,0,32,-10,61c0,0,-11,29,-30,50c0,0,-20,22,-50,35c0,0,-30,12,-69,12c0,0,-45,0,-81,-12c0,0,-37,-13,-64,-28c0,0,-27,-15,-45,-27c0,0,-19,-13,-28,-13c0,0,-5,0,-9,3c0,0,-4,3,-7,10c0,0,-2,6,-4,18c0,0,-1,11,-1,26c0,0,0,12,0,20c0,0,1,8,3,14c0,0,2,6,5,11c0,0,3,5,12,13c0,0,9,8,31,21c0,0,22,14,55,27c0,0,33,13,73,22c0,0,40,9,84,9c0,0,70,0,123,-20c0,0,53,-20,87,-54c0,0,35,-34,52,-80c0,0,17,-46,17,-97c0,0,0,-46,-8,-92c0,0,-8,-46,-35,-99c0,0,-26,-54,-76,-119c0,0,-50,-65,-133,-151L240,109H660c0,0,6,0,12,-4c0,0,5,-3,9,-10c0,0,5,-7,6,-17c0,0,2,-10,2,-23c0,0,0,-13,-2,-24c0,0,-1,-10,-5,-17c0,0,-3,-7,-9,-11c0,0,-5,-3,-12,-3Z" 
id="f1_rz"
transform="scale(0.001,-0.001)" />

<path d="M142,-256c0,0,-19,0,-30,2c0,0,-11,2,-16,6c0,0,-5,4,-4,10c0,0,0,6,4,15c0,0,69,151,104,308c0,0,35,158,35,318c0,0,0,160,-35,318c0,0,-35,157,-106,307c0,0,-3,7,-2,13c0,0,1,6,7,10c0,0,6,3,16,6c0,0,11,2,28,2c0,0,16,0,26,-1c0,0,10,-1,17,-4c0,0,6,-2,9,-4c0,0,3,-2,5,-5c0,0,76,-153,120,-315c0,0,44,-161,44,-329c0,0,0,-84,-11,-167c0,0,-10,-82,-31,-163c0,0,-21,-79,-51,-157c0,0,-30,-78,-71,-154c0,0,-2,-4,-6,-7c0,0,-5,-3,-12,-5c0,0,-7,-3,-17,-3c0,0,-9,-1,-23,-1Z" 
id="f1_ow"
transform="scale(0.001,-0.001)" />

<path d="M403,155c0,0,81,0,136,21c0,0,55,21,92,63c0,0,37,42,55,105c0,0,18,63,18,146c0,0,0,69,-16,128c0,0,-16,59,-51,102c0,0,-36,43,-91,67c0,0,-56,25,-146,25H301V155ZM164,0c0,0,-25,0,-42,15c0,0,-16,14,-16,47V903c0,0,0,33,16,48c0,0,17,14,42,14H411c0,0,129,0,219,-30c0,0,90,-30,152,-90c0,0,61,-59,93,-146c0,0,32,-87,32,-202c0,0,0,-133,-34,-227c0,0,-35,-95,-100,-154c0,0,-65,-60,-158,-88C615,28,523,0,394,0Z" 
id="f2_p"
transform="scale(0.001,-0.001)" />

<path d="M275,-270c0,0,-30,0,-47,3c0,0,-18,2,-27,8c0,0,-9,6,-10,15c0,0,-1,9,5,22L284,0c0,0,-9,4,-17,14c0,0,-8,9,-12,20L26,645c0,0,-10,26,-10,40c0,0,0,14,9,22c0,0,9,8,30,11c0,0,22,3,57,3c0,0,32,0,50,-1c0,0,19,-2,29,-6c0,0,11,-5,16,-14c0,0,5,-9,11,-26L375,228h2L521,683c0,0,4,19,11,25c0,0,7,7,24,10c0,0,16,3,57,3c0,0,32,0,53,-3c0,0,21,-3,31,-12c0,0,11,-8,11,-22c0,0,0,-13,-6,-32L480,0L399,-235c0,0,-7,-18,-37,-27c0,0,-29,-8,-87,-8Z" 
id="f2_co"
transform="scale(0.001,-0.001)" />

<path d="M114,-4c0,0,-32,0,-52,2C62,-2,43,0,34,4C34,4,25,9,24,17c0,0,0,9,7,21L215,366L45,674c0,0,-7,13,-7,22c0,0,0,10,9,15c0,0,10,5,31,7c0,0,21,3,58,3c0,0,33,0,52,-2c0,0,20,-1,31,-3c0,0,11,-2,16,-7c0,0,6,-5,9,-12L363,474L481,697c0,0,2,6,7,10c0,0,4,5,14,8c0,0,10,3,27,4c0,0,16,2,45,2c0,0,33,0,53,-2c0,0,20,-1,28,-7c0,0,9,-5,9,-14c0,0,-1,-9,-9,-24L489,371L672,38c0,0,6,-12,6,-20c0,0,-1,-9,-11,-14c0,0,-10,-4,-32,-6c0,0,-22,-2,-57,-2c0,0,-34,0,-54,1c0,0,-21,1,-32,4c0,0,-12,3,-18,8c0,0,-5,5,-8,12L343,258L220,21c0,0,-3,-7,-9,-12c0,0,-5,-5,-16,-8c0,0,-11,-3,-30,-4c0,0,-19,-1,-51,-1Z" 
id="f2_cn"
transform="scale(0.001,-0.001)" />

<path d="M435,0V856c0,0,-48,-47,-127,-93c0,0,-79,-46,-142,-69V824c0,0,113,52,197,128c0,0,85,75,120,146h86V0Z" 
id="f3_l"
transform="scale(0.001,-0.001)" />


</defs>
</svg>