<?xml version="1.0" encoding="UTF-8" standalone="no"?>
<!DOCTYPE svg PUBLIC "-//W3C//DTD SVG 1.1//EN"
"http://www.w3.org/Graphics/SVG/1.1/DTD/svg11.dtd">
<svg viewBox="0 0 909 1286" version="1.1" xmlns="http://www.w3.org/2000/svg" xmlns:xlink="http://www.w3.org/1999/xlink">
<defs>
<style type="text/css"><![CDATA[
.g0_32{
fill: #FFFFFF;
}
.g1_32{
fill: #1F3331;
}
]]></style>
</defs>
<path fill-rule="evenodd" d="M52.8,554.9H857.2V55H52.8V554.9Z" class="g0_32" />
<path fill-rule="evenodd" d="M52.8,579.5H857.2V554.9H52.8v24.6Z" class="g0_32" />
<g fill="#1F3331" >
<use xlink:href="#f0_1j" transform="matrix(12,0,0,12,55,572.2)" />
<use xlink:href="#f0_25" transform="matrix(12,0,0,12,65.3,572.2)" />
<use xlink:href="#f0_23" transform="matrix(12,0,0,12,70.4,572.2)" />
<use xlink:href="#f0_2a" transform="matrix(12,0,0,12,79.5,572.2)" />
<use xlink:href="#f0_25" transform="matrix(12,0,0,12,89.8,572.2)" />
<use xlink:href="#f0_22" transform="matrix(12,0,0,12,94.9,572.2)" />
<use xlink:href="#f0_25" transform="matrix(12,0,0,12,100.8,572.2)" />
<use xlink:href="#f0_1z" transform="matrix(12,0,0,12,105.9,572.2)" />
<use xlink:href="#f0_1x" transform="matrix(12,0,0,12,114.1,572.2)" />
<use xlink:href="#f0_2a" transform="matrix(12,0,0,12,123.2,572.2)" />
<use xlink:href="#f0_1z" transform="matrix(12,0,0,12,133.4,572.2)" />
<use xlink:href="#f0_21" transform="matrix(12,0,0,12,141.6,572.2)" />
<use xlink:href="#f0_2b" transform="matrix(12,0,0,12,154.3,572.2)" />
<use xlink:href="#f0_22" transform="matrix(12,0,0,12,163.5,572.2)" />
<use xlink:href="#f0_2c" transform="matrix(12,0,0,12,174.1,572.2)" />
<use xlink:href="#f0_2b" transform="matrix(12,0,0,12,184.4,572.2)" />
<use xlink:href="#f0_28" transform="matrix(12,0,0,12,193.5,572.2)" />
<use xlink:href="#f0_28" transform="matrix(12,0,0,12,198.6,572.2)" />
<use xlink:href="#f0_25" transform="matrix(12,0,0,12,203.4,572.2)" />
<use xlink:href="#f0_2a" transform="matrix(12,0,0,12,208.5,572.2)" />
<use xlink:href="#f0_1x" transform="matrix(12,0,0,12,218.8,572.2)" />
<use xlink:href="#f0_2g" transform="matrix(12,0,0,12,228,572.2)" />
<use xlink:href="#f0_25" transform="matrix(12,0,0,12,234.2,572.2)" />
<use xlink:href="#f0_2b" transform="matrix(12,0,0,12,239.3,572.2)" />
<use xlink:href="#f0_2a" transform="matrix(12,0,0,12,248.5,572.2)" />
</g>
<path fill-rule="evenodd" d="M55,575.8H259V574H55v1.8Z" class="g1_32" />
<path fill-rule="evenodd" d="M80.3,621.7H857.2V600.4H80.3v21.3Z" class="g0_32" />
<g fill="#1F3331" >
<use xlink:href="#f1_3d" transform="matrix(10.1,0,0,10.1,82.5,617.6)" />
<use xlink:href="#f2_1g" transform="matrix(12,0,0,12,110,617.6)" />
<use xlink:href="#f2_2b" transform="matrix(12,0,0,12,120.3,617.6)" />
<use xlink:href="#f2_28" transform="matrix(12,0,0,12,129.8,617.6)" />
<use xlink:href="#f2_28" transform="matrix(12,0,0,12,134.6,617.6)" />
<use xlink:href="#f2_25" transform="matrix(12,0,0,12,139.3,617.6)" />
<use xlink:href="#f2_2a" transform="matrix(12,0,0,12,144.1,617.6)" />
<use xlink:href="#f2_1x" transform="matrix(12,0,0,12,153.3,617.6)" />
<use xlink:href="#f2_2g" transform="matrix(12,0,0,12,161.3,617.6)" />
<use xlink:href="#f2_25" transform="matrix(12,0,0,12,167.2,617.6)" />
<use xlink:href="#f2_2b" transform="matrix(12,0,0,12,171.6,617.6)" />
<use xlink:href="#f2_2a" transform="matrix(12,0,0,12,181.1,617.6)" />
<use xlink:href="#f2_25" transform="matrix(12,0,0,12,195.1,617.6)" />
<use xlink:href="#f2_2f" transform="matrix(12,0,0,12,199.9,617.6)" />
<use xlink:href="#f2_2e" transform="matrix(12,0,0,12,211.6,617.6)" />
<use xlink:href="#f2_21" transform="matrix(12,0,0,12,217.8,617.6)" />
<use xlink:href="#f2_2d" transform="matrix(12,0,0,12,225.9,617.6)" />
<use xlink:href="#f2_2h" transform="matrix(12,0,0,12,235.1,617.6)" />
<use xlink:href="#f2_25" transform="matrix(12,0,0,12,244.6,617.6)" />
<use xlink:href="#f2_2e" transform="matrix(12,0,0,12,249,617.6)" />
<use xlink:href="#f2_21" transform="matrix(12,0,0,12,255.2,617.6)" />
<use xlink:href="#f2_20" transform="matrix(12,0,0,12,263.3,617.6)" />
<use xlink:href="#f2_22" transform="matrix(12,0,0,12,277.6,617.6)" />
<use xlink:href="#f2_2b" transform="matrix(12,0,0,12,283.1,617.6)" />
<use xlink:href="#f2_2e" transform="matrix(12,0,0,12,292.6,617.6)" />
<use xlink:href="#f2_22" transform="matrix(12,0,0,12,303.7,617.6)" />
<use xlink:href="#f2_21" transform="matrix(12,0,0,12,309.2,617.6)" />
<use xlink:href="#f2_2e" transform="matrix(12,0,0,12,317.3,617.6)" />
<use xlink:href="#f2_2g" transform="matrix(12,0,0,12,323.5,617.6)" />
<use xlink:href="#f2_25" transform="matrix(12,0,0,12,329.3,617.6)" />
<use xlink:href="#f2_28" transform="matrix(12,0,0,12,334.1,617.6)" />
<use xlink:href="#f2_25" transform="matrix(12,0,0,12,339.2,617.6)" />
<use xlink:href="#f2_2m" transform="matrix(12,0,0,12,344,617.6)" />
<use xlink:href="#f2_1x" transform="matrix(12,0,0,12,352.1,617.6)" />
<use xlink:href="#f2_2g" transform="matrix(12,0,0,12,360.1,617.6)" />
<use xlink:href="#f2_25" transform="matrix(12,0,0,12,366,617.6)" />
<use xlink:href="#f2_2b" transform="matrix(12,0,0,12,370.4,617.6)" />
<use xlink:href="#f2_2a" transform="matrix(12,0,0,12,379.9,617.6)" />
<use xlink:href="#f2_1x" transform="matrix(12,0,0,12,393.4,617.6)" />
<use xlink:href="#f2_2a" transform="matrix(12,0,0,12,401.5,617.6)" />
<use xlink:href="#f2_20" transform="matrix(12,0,0,12,410.3,617.6)" />
<use xlink:href="#f2_2g" transform="matrix(12,0,0,12,424.4,617.6)" />
<use xlink:href="#f2_24" transform="matrix(12,0,0,12,429.9,617.6)" />
<use xlink:href="#f2_21" transform="matrix(12,0,0,12,438.7,617.6)" />
<use xlink:href="#f2_2e" transform="matrix(12,0,0,12,446.8,617.6)" />
<use xlink:href="#f2_21" transform="matrix(12,0,0,12,453,617.6)" />
<use xlink:href="#f2_22" transform="matrix(12,0,0,12,461.4,617.6)" />
<use xlink:href="#f2_2b" transform="matrix(12,0,0,12,466.9,617.6)" />
<use xlink:href="#f2_2e" transform="matrix(12,0,0,12,476.4,617.6)" />
<use xlink:href="#f2_21" transform="matrix(12,0,0,12,482.6,617.6)" />
<use xlink:href="#f2_22" transform="matrix(12,0,0,12,495.4,617.6)" />
<use xlink:href="#f2_2b" transform="matrix(12,0,0,12,500.9,617.6)" />
<use xlink:href="#f2_2e" transform="matrix(12,0,0,12,510.5,617.6)" />
<use xlink:href="#f2_2c" transform="matrix(12,0,0,12,521.4,617.6)" />
<use xlink:href="#f2_2e" transform="matrix(12,0,0,12,530.6,617.6)" />
<use xlink:href="#f2_2b" transform="matrix(12,0,0,12,536.5,617.6)" />
<use xlink:href="#f2_20" transform="matrix(12,0,0,12,546,617.6)" />
<use xlink:href="#f2_2h" transform="matrix(12,0,0,12,555.1,617.6)" />
<use xlink:href="#f2_1z" transform="matrix(12,0,0,12,564.3,617.6)" />
<use xlink:href="#f2_2g" transform="matrix(12,0,0,12,572,617.6)" />
<use xlink:href="#f2_25" transform="matrix(12,0,0,12,577.5,617.6)" />
<use xlink:href="#f2_2b" transform="matrix(12,0,0,12,581.9,617.6)" />
<use xlink:href="#f2_2a" transform="matrix(12,0,0,12,591.4,617.6)" />
<use xlink:href="#f2_2b" transform="matrix(12,0,0,12,604.9,617.6)" />
<use xlink:href="#f2_22" transform="matrix(12,0,0,12,614.5,617.6)" />
<use xlink:href="#f2_2f" transform="matrix(12,0,0,12,624.7,617.6)" />
<use xlink:href="#f2_21" transform="matrix(12,0,0,12,631.7,617.6)" />
<use xlink:href="#f2_21" transform="matrix(12,0,0,12,640.1,617.6)" />
<use xlink:href="#f2_20" transform="matrix(12,0,0,12,648.2,617.6)" />
<use xlink:href="#f2_2f" transform="matrix(12,0,0,12,657.3,617.6)" />
<use xlink:href="#f2_1x" transform="matrix(12,0,0,12,669,617.6)" />
<use xlink:href="#f2_2a" transform="matrix(12,0,0,12,677.5,617.6)" />
<use xlink:href="#f2_20" transform="matrix(12,0,0,12,686.3,617.6)" />
<use xlink:href="#f2_22" transform="matrix(12,0,0,12,700.5,617.6)" />
<use xlink:href="#f2_2e" transform="matrix(12,0,0,12,706,617.6)" />
<use xlink:href="#f2_2h" transform="matrix(12,0,0,12,712.3,617.6)" />
<use xlink:href="#f2_25" transform="matrix(12,0,0,12,721.8,617.6)" />
<use xlink:href="#f2_2g" transform="matrix(12,0,0,12,726.2,617.6)" />
<use xlink:href="#f2_2f" transform="matrix(12,0,0,12,731.6,617.6)" />
<use xlink:href="#f2_i" transform="matrix(12,0,0,12,738.6,617.6)" />
</g>
<path fill-rule="evenodd" d="M80.3,642.6H857.2V621.7H80.3v20.9Z" class="g0_32" />
<g fill="#1F3331" >
<use xlink:href="#f1_3d" transform="matrix(10.1,0,0,10.1,82.5,638.6)" />
<use xlink:href="#f2_19" transform="matrix(12,0,0,12,110,638.6)" />
<use xlink:href="#f2_2g" transform="matrix(12,0,0,12,116.3,638.6)" />
<use xlink:href="#f2_2f" transform="matrix(12,0,0,12,126.1,638.6)" />
<use xlink:href="#f2_2g" transform="matrix(12,0,0,12,132.7,638.6)" />
<use xlink:href="#f2_25" transform="matrix(12,0,0,12,138.2,638.6)" />
<use xlink:href="#f2_29" transform="matrix(12,0,0,12,143,638.6)" />
<use xlink:href="#f2_2h" transform="matrix(12,0,0,12,156.9,638.6)" />
<use xlink:href="#f2_28" transform="matrix(12,0,0,12,166.4,638.6)" />
<use xlink:href="#f2_1x" transform="matrix(12,0,0,12,171.2,638.6)" />
<use xlink:href="#f2_2g" transform="matrix(12,0,0,12,179.3,638.6)" />
<use xlink:href="#f2_21" transform="matrix(12,0,0,12,184.7,638.6)" />
<use xlink:href="#f2_2f" transform="matrix(12,0,0,12,192.8,638.6)" />
<use xlink:href="#f2_23" transform="matrix(12,0,0,12,204.5,638.6)" />
<use xlink:href="#f2_2e" transform="matrix(12,0,0,12,213.7,638.6)" />
<use xlink:href="#f2_2b" transform="matrix(12,0,0,12,219.9,638.6)" />
<use xlink:href="#f2_2j" transform="matrix(12,0,0,12,229.4,638.6)" />
<use xlink:href="#f2_2g" transform="matrix(12,0,0,12,242.3,638.6)" />
<use xlink:href="#f2_24" transform="matrix(12,0,0,12,247.7,638.6)" />
<use xlink:href="#f2_2b" transform="matrix(12,0,0,12,260.9,638.6)" />
<use xlink:href="#f2_22" transform="matrix(12,0,0,12,270.5,638.6)" />
<use xlink:href="#f2_2b" transform="matrix(12,0,0,12,280.7,638.6)" />
<use xlink:href="#f2_2i" transform="matrix(12,0,0,12,290.2,638.6)" />
<use xlink:href="#f2_1x" transform="matrix(12,0,0,12,299,638.6)" />
<use xlink:href="#f2_2e" transform="matrix(12,0,0,12,307.1,638.6)" />
<use xlink:href="#f2_2l" transform="matrix(12,0,0,12,313.7,638.6)" />
<use xlink:href="#f2_i" transform="matrix(12,0,0,12,322.1,638.6)" />
</g>
<path fill-rule="evenodd" d="M80.3,663.8H857.2V642.6H80.3v21.2Z" class="g0_32" />
<g fill="#1F3331" >
<use xlink:href="#f1_3d" transform="matrix(10.1,0,0,10.1,82.5,659.4)" />
<use xlink:href="#f2_19" transform="matrix(12,0,0,12,110,659.4)" />
<use xlink:href="#f2_2g" transform="matrix(12,0,0,12,116.3,659.4)" />
<use xlink:href="#f2_2e" transform="matrix(12,0,0,12,126.1,659.4)" />
<use xlink:href="#f2_21" transform="matrix(12,0,0,12,132.3,659.4)" />
<use xlink:href="#f2_2f" transform="matrix(12,0,0,12,140.4,659.4)" />
<use xlink:href="#f2_2h" transform="matrix(12,0,0,12,147.4,659.4)" />
<use xlink:href="#f2_28" transform="matrix(12,0,0,12,156.5,659.4)" />
<use xlink:href="#f2_2g" transform="matrix(12,0,0,12,160.9,659.4)" />
<use xlink:href="#f2_2f" transform="matrix(12,0,0,12,166.4,659.4)" />
<use xlink:href="#f2_25" transform="matrix(12,0,0,12,178.5,659.4)" />
<use xlink:href="#f2_2a" transform="matrix(12,0,0,12,183.3,659.4)" />
<use xlink:href="#f2_2c" transform="matrix(12,0,0,12,196.8,659.4)" />
<use xlink:href="#f2_2e" transform="matrix(12,0,0,12,206,659.4)" />
<use xlink:href="#f2_2b" transform="matrix(12,0,0,12,212.2,659.4)" />
<use xlink:href="#f2_20" transform="matrix(12,0,0,12,221.7,659.4)" />
<use xlink:href="#f2_2h" transform="matrix(12,0,0,12,230.9,659.4)" />
<use xlink:href="#f2_1z" transform="matrix(12,0,0,12,240.1,659.4)" />
<use xlink:href="#f2_2g" transform="matrix(12,0,0,12,247.8,659.4)" />
<use xlink:href="#f2_25" transform="matrix(12,0,0,12,253.2,659.4)" />
<use xlink:href="#f2_2b" transform="matrix(12,0,0,12,257.6,659.4)" />
<use xlink:href="#f2_2a" transform="matrix(12,0,0,12,267.2,659.4)" />
<use xlink:href="#f2_2b" transform="matrix(12,0,0,12,280.7,659.4)" />
<use xlink:href="#f2_22" transform="matrix(12,0,0,12,290.2,659.4)" />
<use xlink:href="#f2_24" transform="matrix(12,0,0,12,300.8,659.4)" />
<use xlink:href="#f2_2l" transform="matrix(12,0,0,12,310,659.4)" />
<use xlink:href="#f2_1y" transform="matrix(12,0,0,12,318.8,659.4)" />
<use xlink:href="#f2_2e" transform="matrix(12,0,0,12,327.6,659.4)" />
<use xlink:href="#f2_25" transform="matrix(12,0,0,12,334.2,659.4)" />
<use xlink:href="#f2_20" transform="matrix(12,0,0,12,338.9,659.4)" />
<use xlink:href="#f2_2f" transform="matrix(12,0,0,12,352.9,659.4)" />
<use xlink:href="#f2_21" transform="matrix(12,0,0,12,359.8,659.4)" />
<use xlink:href="#f2_21" transform="matrix(12,0,0,12,368.2,659.4)" />
<use xlink:href="#f2_20" transform="matrix(12,0,0,12,376.3,659.4)" />
<use xlink:href="#f2_2f" transform="matrix(12,0,0,12,385.5,659.4)" />
<use xlink:href="#f2_i" transform="matrix(12,0,0,12,392.9,659.4)" />
</g>
<path fill-rule="evenodd" d="M80.3,685.1H857.2V663.8H80.3v21.3Z" class="g0_32" />
<g fill="#1F3331" >
<use xlink:href="#f1_3d" transform="matrix(10.1,0,0,10.1,82.5,681.1)" />
<use xlink:href="#f2_1k" transform="matrix(12,0,0,12,110,681.1)" />
<use xlink:href="#f2_24" transform="matrix(12,0,0,12,121.4,681.1)" />
<use xlink:href="#f2_21" transform="matrix(12,0,0,12,130.2,681.1)" />
<use xlink:href="#f2_2f" transform="matrix(12,0,0,12,143,681.1)" />
<use xlink:href="#f2_21" transform="matrix(12,0,0,12,150,681.1)" />
<use xlink:href="#f2_21" transform="matrix(12,0,0,12,158,681.1)" />
<use xlink:href="#f2_20" transform="matrix(12,0,0,12,166.1,681.1)" />
<use xlink:href="#f2_2f" transform="matrix(12,0,0,12,175.6,681.1)" />
<use xlink:href="#f2_1x" transform="matrix(12,0,0,12,187.3,681.1)" />
<use xlink:href="#f2_2a" transform="matrix(12,0,0,12,195.4,681.1)" />
<use xlink:href="#f2_20" transform="matrix(12,0,0,12,204.2,681.1)" />
<use xlink:href="#f2_22" transform="matrix(12,0,0,12,218.5,681.1)" />
<use xlink:href="#f2_2e" transform="matrix(12,0,0,12,224,681.1)" />
<use xlink:href="#f2_2h" transform="matrix(12,0,0,12,230.2,681.1)" />
<use xlink:href="#f2_25" transform="matrix(12,0,0,12,239.7,681.1)" />
<use xlink:href="#f2_2g" transform="matrix(12,0,0,12,244.1,681.1)" />
<use xlink:href="#f2_2f" transform="matrix(12,0,0,12,249.6,681.1)" />
<use xlink:href="#f2_1x" transform="matrix(12,0,0,12,261.3,681.1)" />
<use xlink:href="#f2_2e" transform="matrix(12,0,0,12,269.4,681.1)" />
<use xlink:href="#f2_21" transform="matrix(12,0,0,12,275.6,681.1)" />
<use xlink:href="#f2_1x" transform="matrix(12,0,0,12,288.4,681.1)" />
<use xlink:href="#f2_28" transform="matrix(12,0,0,12,296.8,681.1)" />
<use xlink:href="#f2_2f" transform="matrix(12,0,0,12,301.6,681.1)" />
<use xlink:href="#f2_2b" transform="matrix(12,0,0,12,308.5,681.1)" />
<use xlink:href="#f2_1x" transform="matrix(12,0,0,12,322.8,681.1)" />
<use xlink:href="#f2_2f" transform="matrix(12,0,0,12,335.6,681.1)" />
<use xlink:href="#f2_2b" transform="matrix(12,0,0,12,342.2,681.1)" />
<use xlink:href="#f2_2h" transform="matrix(12,0,0,12,351.7,681.1)" />
<use xlink:href="#f2_2e" transform="matrix(12,0,0,12,360.9,681.1)" />
<use xlink:href="#f2_1z" transform="matrix(12,0,0,12,367.1,681.1)" />
<use xlink:href="#f2_21" transform="matrix(12,0,0,12,375.2,681.1)" />
<use xlink:href="#f2_2b" transform="matrix(12,0,0,12,387.7,681.1)" />
<use xlink:href="#f2_22" transform="matrix(12,0,0,12,397.2,681.1)" />
<use xlink:href="#f2_2a" transform="matrix(12,0,0,12,407.4,681.1)" />
<use xlink:href="#f2_2h" transform="matrix(12,0,0,12,416.2,681.1)" />
<use xlink:href="#f2_2g" transform="matrix(12,0,0,12,425.4,681.1)" />
<use xlink:href="#f2_2e" transform="matrix(12,0,0,12,430.9,681.1)" />
<use xlink:href="#f2_25" transform="matrix(12,0,0,12,437.1,681.1)" />
<use xlink:href="#f2_2g" transform="matrix(12,0,0,12,441.5,681.1)" />
<use xlink:href="#f2_25" transform="matrix(12,0,0,12,447.3,681.1)" />
<use xlink:href="#f2_2b" transform="matrix(12,0,0,12,451.7,681.1)" />
<use xlink:href="#f2_2a" transform="matrix(12,0,0,12,461.2,681.1)" />
<use xlink:href="#f2_i" transform="matrix(12,0,0,12,470.6,681.1)" />
</g>
<path fill-rule="evenodd" d="M52.8,730.9H857.2V706.4H52.8v24.5Z" class="g0_32" />
<g fill="#1F3331" >
<use xlink:href="#f0_1g" transform="matrix(12,0,0,12,55,723.6)" />
<use xlink:href="#f0_2b" transform="matrix(12,0,0,12,66,723.6)" />
<use xlink:href="#f0_2f" transform="matrix(12,0,0,12,75.2,723.6)" />
<use xlink:href="#f0_2g" transform="matrix(12,0,0,12,82.2,723.6)" />
<use xlink:href="#f0_2c" transform="matrix(12,0,0,12,93.1,723.6)" />
<use xlink:href="#f0_2b" transform="matrix(12,0,0,12,103.4,723.6)" />
<use xlink:href="#f0_28" transform="matrix(12,0,0,12,112.5,723.6)" />
<use xlink:href="#f0_28" transform="matrix(12,0,0,12,117.6,723.6)" />
<use xlink:href="#f0_25" transform="matrix(12,0,0,12,122.4,723.6)" />
<use xlink:href="#f0_2a" transform="matrix(12,0,0,12,127.5,723.6)" />
<use xlink:href="#f0_1x" transform="matrix(12,0,0,12,137.8,723.6)" />
<use xlink:href="#f0_2g" transform="matrix(12,0,0,12,147,723.6)" />
<use xlink:href="#f0_25" transform="matrix(12,0,0,12,153.2,723.6)" />
<use xlink:href="#f0_2b" transform="matrix(12,0,0,12,158.3,723.6)" />
<use xlink:href="#f0_2a" transform="matrix(12,0,0,12,167.5,723.6)" />
<use xlink:href="#f0_21" transform="matrix(12,0,0,12,182.5,723.6)" />
<use xlink:href="#f0_2i" transform="matrix(12,0,0,12,190.6,723.6)" />
<use xlink:href="#f0_21" transform="matrix(12,0,0,12,199.7,723.6)" />
<use xlink:href="#f0_2a" transform="matrix(12,0,0,12,207.8,723.6)" />
<use xlink:href="#f0_2g" transform="matrix(12,0,0,12,218.1,723.6)" />
<use xlink:href="#f0_2f" transform="matrix(12,0,0,12,224.3,723.6)" />
</g>
<path fill-rule="evenodd" d="M55,727.3H231.5v-1.9H55v1.9Z" class="g1_32" />
<path fill-rule="evenodd" d="M80.3,773.1H857.2V751.9H80.3v21.2Z" class="g0_32" />
<g fill="#1F3331" >
<use xlink:href="#f1_3d" transform="matrix(10.1,0,0,10.1,82.5,769.1)" />
<use xlink:href="#f2_1k" transform="matrix(12,0,0,12,110,769.1)" />
<use xlink:href="#f2_24" transform="matrix(12,0,0,12,121.4,769.1)" />
<use xlink:href="#f2_21" transform="matrix(12,0,0,12,130.2,769.1)" />
<use xlink:href="#f2_2a" transform="matrix(12,0,0,12,143,769.1)" />
<use xlink:href="#f2_2h" transform="matrix(12,0,0,12,151.8,769.1)" />
<use xlink:href="#f2_1z" transform="matrix(12,0,0,12,161,769.1)" />
<use xlink:href="#f2_28" transform="matrix(12,0,0,12,169.4,769.1)" />
<use xlink:href="#f2_21" transform="matrix(12,0,0,12,174.1,769.1)" />
<use xlink:href="#f2_2h" transform="matrix(12,0,0,12,182.2,769.1)" />
<use xlink:href="#f2_2f" transform="matrix(12,0,0,12,191.7,769.1)" />
<use xlink:href="#f2_2b" transform="matrix(12,0,0,12,203.4,769.1)" />
<use xlink:href="#f2_22" transform="matrix(12,0,0,12,213,769.1)" />
<use xlink:href="#f2_2g" transform="matrix(12,0,0,12,223.2,769.1)" />
<use xlink:href="#f2_24" transform="matrix(12,0,0,12,228.7,769.1)" />
<use xlink:href="#f2_21" transform="matrix(12,0,0,12,237.5,769.1)" />
<use xlink:href="#f2_2c" transform="matrix(12,0,0,12,250.3,769.1)" />
<use xlink:href="#f2_2b" transform="matrix(12,0,0,12,259.5,769.1)" />
<use xlink:href="#f2_28" transform="matrix(12,0,0,12,269,769.1)" />
<use xlink:href="#f2_28" transform="matrix(12,0,0,12,273.8,769.1)" />
<use xlink:href="#f2_21" transform="matrix(12,0,0,12,278.5,769.1)" />
<use xlink:href="#f2_2a" transform="matrix(12,0,0,12,286.9,769.1)" />
<use xlink:href="#f2_23" transform="matrix(12,0,0,12,300.5,769.1)" />
<use xlink:href="#f2_2e" transform="matrix(12,0,0,12,309.7,769.1)" />
<use xlink:href="#f2_1x" transform="matrix(12,0,0,12,315.9,769.1)" />
<use xlink:href="#f2_25" transform="matrix(12,0,0,12,324.3,769.1)" />
<use xlink:href="#f2_2a" transform="matrix(12,0,0,12,329,769.1)" />
<use xlink:href="#f2_20" transform="matrix(12,0,0,12,342.6,769.1)" />
<use xlink:href="#f2_25" transform="matrix(12,0,0,12,352.1,769.1)" />
<use xlink:href="#f2_2i" transform="matrix(12,0,0,12,356.9,769.1)" />
<use xlink:href="#f2_25" transform="matrix(12,0,0,12,366.4,769.1)" />
<use xlink:href="#f2_20" transform="matrix(12,0,0,12,371.2,769.1)" />
<use xlink:href="#f2_21" transform="matrix(12,0,0,12,380.3,769.1)" />
<use xlink:href="#f2_2f" transform="matrix(12,0,0,12,388.4,769.1)" />
<use xlink:href="#f2_2g" transform="matrix(12,0,0,12,400.1,769.1)" />
<use xlink:href="#f2_2b" transform="matrix(12,0,0,12,405.6,769.1)" />
<use xlink:href="#f2_2c" transform="matrix(12,0,0,12,419.5,769.1)" />
<use xlink:href="#f2_2e" transform="matrix(12,0,0,12,428.7,769.1)" />
<use xlink:href="#f2_2b" transform="matrix(12,0,0,12,434.5,769.1)" />
<use xlink:href="#f2_20" transform="matrix(12,0,0,12,444.1,769.1)" />
<use xlink:href="#f2_2h" transform="matrix(12,0,0,12,453.2,769.1)" />
<use xlink:href="#f2_1z" transform="matrix(12,0,0,12,462.4,769.1)" />
<use xlink:href="#f2_21" transform="matrix(12,0,0,12,470.5,769.1)" />
<use xlink:href="#f2_2i" transform="matrix(12,0,0,12,482.9,769.1)" />
<use xlink:href="#f2_21" transform="matrix(12,0,0,12,492.3,769.1)" />
<use xlink:href="#f2_23" transform="matrix(12,0,0,12,500.3,769.1)" />
<use xlink:href="#f2_21" transform="matrix(12,0,0,12,509.5,769.1)" />
<use xlink:href="#f2_2g" transform="matrix(12,0,0,12,517.6,769.1)" />
<use xlink:href="#f2_1x" transform="matrix(12,0,0,12,523,769.1)" />
<use xlink:href="#f2_2g" transform="matrix(12,0,0,12,531.1,769.1)" />
<use xlink:href="#f2_25" transform="matrix(12,0,0,12,536.6,769.1)" />
<use xlink:href="#f2_2i" transform="matrix(12,0,0,12,541.3,769.1)" />
<use xlink:href="#f2_21" transform="matrix(12,0,0,12,550.1,769.1)" />
<use xlink:href="#f2_1x" transform="matrix(12,0,0,12,563,769.1)" />
<use xlink:href="#f2_2a" transform="matrix(12,0,0,12,571.4,769.1)" />
<use xlink:href="#f2_20" transform="matrix(12,0,0,12,580.2,769.1)" />
<use xlink:href="#f2_23" transform="matrix(12,0,0,12,594.1,769.1)" />
<use xlink:href="#f2_21" transform="matrix(12,0,0,12,603.3,769.1)" />
<use xlink:href="#f2_2a" transform="matrix(12,0,0,12,611.7,769.1)" />
<use xlink:href="#f2_21" transform="matrix(12,0,0,12,620.5,769.1)" />
<use xlink:href="#f2_2e" transform="matrix(12,0,0,12,628.5,769.1)" />
<use xlink:href="#f2_1x" transform="matrix(12,0,0,12,634.8,769.1)" />
<use xlink:href="#f2_2g" transform="matrix(12,0,0,12,642.8,769.1)" />
<use xlink:href="#f2_25" transform="matrix(12,0,0,12,648.7,769.1)" />
<use xlink:href="#f2_2i" transform="matrix(12,0,0,12,653.4,769.1)" />
<use xlink:href="#f2_21" transform="matrix(12,0,0,12,662.2,769.1)" />
<use xlink:href="#f2_1z" transform="matrix(12,0,0,12,675.1,769.1)" />
<use xlink:href="#f2_21" transform="matrix(12,0,0,12,683.1,769.1)" />
<use xlink:href="#f2_28" transform="matrix(12,0,0,12,691.5,769.1)" />
<use xlink:href="#f2_28" transform="matrix(12,0,0,12,696.3,769.1)" />
<use xlink:href="#f2_2f" transform="matrix(12,0,0,12,701.1,769.1)" />
<use xlink:href="#f2_i" transform="matrix(12,0,0,12,708,769.1)" />
</g>
<path fill-rule="evenodd" d="M80.3,794H857.2V773.1H80.3V794Z" class="g0_32" />
<g fill="#1F3331" >
<use xlink:href="#f1_3d" transform="matrix(10.1,0,0,10.1,82.5,790)" />
<use xlink:href="#f2_11" transform="matrix(12,0,0,12,110,790)" />
<use xlink:href="#f2_2f" transform="matrix(12,0,0,12,126.9,790)" />
<use xlink:href="#f2_29" transform="matrix(12,0,0,12,134.2,790)" />
<use xlink:href="#f2_1x" transform="matrix(12,0,0,12,148.2,790)" />
<use xlink:href="#f2_28" transform="matrix(12,0,0,12,156.6,790)" />
<use xlink:href="#f2_28" transform="matrix(12,0,0,12,161.7,790)" />
<use xlink:href="#f2_2c" transform="matrix(12,0,0,12,170.5,790)" />
<use xlink:href="#f2_2e" transform="matrix(12,0,0,12,179.7,790)" />
<use xlink:href="#f2_2b" transform="matrix(12,0,0,12,185.9,790)" />
<use xlink:href="#f2_2g" transform="matrix(12,0,0,12,195,790)" />
<use xlink:href="#f2_2e" transform="matrix(12,0,0,12,200.5,790)" />
<use xlink:href="#f2_2h" transform="matrix(12,0,0,12,206.7,790)" />
<use xlink:href="#f2_2f" transform="matrix(12,0,0,12,215.9,790)" />
<use xlink:href="#f2_25" transform="matrix(12,0,0,12,222.9,790)" />
<use xlink:href="#f2_2b" transform="matrix(12,0,0,12,227.3,790)" />
<use xlink:href="#f2_2a" transform="matrix(12,0,0,12,236.8,790)" />
<use xlink:href="#f2_1z" transform="matrix(12,0,0,12,249.8,790)" />
<use xlink:href="#f2_1x" transform="matrix(12,0,0,12,257.9,790)" />
<use xlink:href="#f2_28" transform="matrix(12,0,0,12,266.3,790)" />
<use xlink:href="#f2_28" transform="matrix(12,0,0,12,271.4,790)" />
<use xlink:href="#f2_21" transform="matrix(12,0,0,12,276.2,790)" />
<use xlink:href="#f2_20" transform="matrix(12,0,0,12,284.3,790)" />
<use xlink:href="#f0_23" transform="matrix(12,0,0,12,297.5,790)" />
<use xlink:href="#f0_21" transform="matrix(12,0,0,12,306.6,790)" />
<use xlink:href="#f0_2e" transform="matrix(12,0,0,12,315.1,790)" />
<use xlink:href="#f0_29" transform="matrix(12,0,0,12,323.1,790)" />
<use xlink:href="#f0_2g" transform="matrix(12,0,0,12,342.2,790)" />
<use xlink:href="#f0_2h" transform="matrix(12,0,0,12,348.4,790)" />
<use xlink:href="#f0_1y" transform="matrix(12,0,0,12,358.7,790)" />
<use xlink:href="#f0_21" transform="matrix(12,0,0,12,368.9,790)" />
<use xlink:href="#f2_g" transform="matrix(12,0,0,12,377.1,790)" />
<use xlink:href="#f2_21" transform="matrix(12,0,0,12,385.9,790)" />
<use xlink:href="#f2_29" transform="matrix(12,0,0,12,393.9,790)" />
<use xlink:href="#f2_21" transform="matrix(12,0,0,12,407.5,790)" />
<use xlink:href="#f2_2e" transform="matrix(12,0,0,12,415.6,790)" />
<use xlink:href="#f2_23" transform="matrix(12,0,0,12,421.8,790)" />
<use xlink:href="#f2_21" transform="matrix(12,0,0,12,430.9,790)" />
<use xlink:href="#f2_2f" transform="matrix(12,0,0,12,439,790)" />
<use xlink:href="#f2_22" transform="matrix(12,0,0,12,450.4,790)" />
<use xlink:href="#f2_2e" transform="matrix(12,0,0,12,455.9,790)" />
<use xlink:href="#f2_2b" transform="matrix(12,0,0,12,462.1,790)" />
<use xlink:href="#f2_29" transform="matrix(12,0,0,12,471.6,790)" />
<use xlink:href="#f2_2g" transform="matrix(12,0,0,12,489.2,790)" />
<use xlink:href="#f2_24" transform="matrix(12,0,0,12,494.7,790)" />
<use xlink:href="#f2_21" transform="matrix(12,0,0,12,503.9,790)" />
<use xlink:href="#f2_2c" transform="matrix(12,0,0,12,516,790)" />
<use xlink:href="#f2_2b" transform="matrix(12,0,0,12,525.1,790)" />
<use xlink:href="#f2_28" transform="matrix(12,0,0,12,534.6,790)" />
<use xlink:href="#f2_28" transform="matrix(12,0,0,12,539.4,790)" />
<use xlink:href="#f2_21" transform="matrix(12,0,0,12,544.2,790)" />
<use xlink:href="#f2_2a" transform="matrix(12,0,0,12,552.6,790)" />
<use xlink:href="#f2_i" transform="matrix(12,0,0,12,561.6,790)" />
<use xlink:href="#f2_1k" transform="matrix(12,0,0,12,570.4,790)" />
<use xlink:href="#f2_24" transform="matrix(12,0,0,12,581.7,790)" />
<use xlink:href="#f2_21" transform="matrix(12,0,0,12,590.5,790)" />
<use xlink:href="#f2_23" transform="matrix(12,0,0,12,602.6,790)" />
<use xlink:href="#f2_21" transform="matrix(12,0,0,12,611.8,790)" />
<use xlink:href="#f2_2e" transform="matrix(12,0,0,12,619.8,790)" />
<use xlink:href="#f2_29" transform="matrix(12,0,0,12,626.4,790)" />
<use xlink:href="#f2_2g" transform="matrix(12,0,0,12,644,790)" />
<use xlink:href="#f2_2h" transform="matrix(12,0,0,12,649.5,790)" />
<use xlink:href="#f2_1y" transform="matrix(12,0,0,12,658.7,790)" />
<use xlink:href="#f2_21" transform="matrix(12,0,0,12,667.5,790)" />
<use xlink:href="#f2_2f" transform="matrix(12,0,0,12,679.7,790)" />
<use xlink:href="#f2_21" transform="matrix(12,0,0,12,686.7,790)" />
<use xlink:href="#f2_1z" transform="matrix(12,0,0,12,694.7,790)" />
<use xlink:href="#f2_2e" transform="matrix(12,0,0,12,702.8,790)" />
<use xlink:href="#f2_21" transform="matrix(12,0,0,12,709,790)" />
<use xlink:href="#f2_2g" transform="matrix(12,0,0,12,717.1,790)" />
<use xlink:href="#f2_21" transform="matrix(12,0,0,12,722.6,790)" />
<use xlink:href="#f2_2f" transform="matrix(12,0,0,12,730.7,790)" />
<use xlink:href="#f2_21" transform="matrix(12,0,0,12,741.7,790)" />
<use xlink:href="#f2_2a" transform="matrix(12,0,0,12,750.1,790)" />
<use xlink:href="#f2_2m" transform="matrix(12,0,0,12,758.9,790)" />
<use xlink:href="#f2_2l" transform="matrix(12,0,0,12,767.3,790)" />
<use xlink:href="#f2_29" transform="matrix(12,0,0,12,776.5,790)" />
<use xlink:href="#f2_21" transform="matrix(12,0,0,12,790.4,790)" />
<use xlink:href="#f2_2f" transform="matrix(12,0,0,12,798.5,790)" />
<use xlink:href="#f2_2j" transform="matrix(12,0,0,12,809.5,790)" />
<use xlink:href="#f2_24" transform="matrix(12,0,0,12,823,790)" />
<use xlink:href="#f2_25" transform="matrix(12,0,0,12,832.2,790)" />
<use xlink:href="#f2_1z" transform="matrix(12,0,0,12,837,790)" />
<use xlink:href="#f2_24" transform="matrix(12,0,0,12,845.8,790)" />
</g>
<path fill-rule="evenodd" d="M80.3,815.3H857.2V794H80.3v21.3Z" class="g0_32" />
<g fill="#1F3331" >
<use xlink:href="#f2_20" transform="matrix(12,0,0,12,110,810.9)" />
<use xlink:href="#f2_25" transform="matrix(12,0,0,12,119.6,810.9)" />
<use xlink:href="#f2_23" transform="matrix(12,0,0,12,124,810.9)" />
<use xlink:href="#f2_21" transform="matrix(12,0,0,12,133.1,810.9)" />
<use xlink:href="#f2_2f" transform="matrix(12,0,0,12,141.5,810.9)" />
<use xlink:href="#f2_2g" transform="matrix(12,0,0,12,148.5,810.9)" />
<use xlink:href="#f2_2f" transform="matrix(12,0,0,12,154,810.9)" />
<use xlink:href="#f2_2g" transform="matrix(12,0,0,12,165.3,810.9)" />
<use xlink:href="#f2_24" transform="matrix(12,0,0,12,170.8,810.9)" />
<use xlink:href="#f2_21" transform="matrix(12,0,0,12,179.6,810.9)" />
<use xlink:href="#f2_2g" transform="matrix(12,0,0,12,192.4,810.9)" />
<use xlink:href="#f2_25" transform="matrix(12,0,0,12,197.9,810.9)" />
<use xlink:href="#f2_2f" transform="matrix(12,0,0,12,202.3,810.9)" />
<use xlink:href="#f2_2f" transform="matrix(12,0,0,12,209.6,810.9)" />
<use xlink:href="#f2_2h" transform="matrix(12,0,0,12,216.6,810.9)" />
<use xlink:href="#f2_21" transform="matrix(12,0,0,12,225.8,810.9)" />
<use xlink:href="#f2_2f" transform="matrix(12,0,0,12,233.8,810.9)" />
<use xlink:href="#f2_2b" transform="matrix(12,0,0,12,245.6,810.9)" />
<use xlink:href="#f2_22" transform="matrix(12,0,0,12,255.1,810.9)" />
<use xlink:href="#f2_2f" transform="matrix(12,0,0,12,265.3,810.9)" />
<use xlink:href="#f2_2g" transform="matrix(12,0,0,12,272.3,810.9)" />
<use xlink:href="#f2_25" transform="matrix(12,0,0,12,278.1,810.9)" />
<use xlink:href="#f2_23" transform="matrix(12,0,0,12,282.5,810.9)" />
<use xlink:href="#f2_29" transform="matrix(12,0,0,12,292.1,810.9)" />
<use xlink:href="#f2_1x" transform="matrix(12,0,0,12,306,810.9)" />
<use xlink:href="#f2_i" transform="matrix(12,0,0,12,314.3,810.9)" />
<use xlink:href="#f2_1k" transform="matrix(12,0,0,12,323.8,810.9)" />
<use xlink:href="#f2_24" transform="matrix(12,0,0,12,335.2,810.9)" />
<use xlink:href="#f2_21" transform="matrix(12,0,0,12,344,810.9)" />
<use xlink:href="#f2_23" transform="matrix(12,0,0,12,356.8,810.9)" />
<use xlink:href="#f2_21" transform="matrix(12,0,0,12,366,810.9)" />
<use xlink:href="#f2_2e" transform="matrix(12,0,0,12,374,810.9)" />
<use xlink:href="#f2_29" transform="matrix(12,0,0,12,380.6,810.9)" />
<use xlink:href="#f2_2g" transform="matrix(12,0,0,12,398.9,810.9)" />
<use xlink:href="#f2_2h" transform="matrix(12,0,0,12,404.4,810.9)" />
<use xlink:href="#f2_1y" transform="matrix(12,0,0,12,413.6,810.9)" />
<use xlink:href="#f2_21" transform="matrix(12,0,0,12,422.4,810.9)" />
<use xlink:href="#f2_2g" transform="matrix(12,0,0,12,435.2,810.9)" />
<use xlink:href="#f2_24" transform="matrix(12,0,0,12,440.7,810.9)" />
<use xlink:href="#f2_21" transform="matrix(12,0,0,12,449.5,810.9)" />
<use xlink:href="#f2_2a" transform="matrix(12,0,0,12,457.5,810.9)" />
<use xlink:href="#f2_1z" transform="matrix(12,0,0,12,471.4,810.9)" />
<use xlink:href="#f2_2b" transform="matrix(12,0,0,12,479.8,810.9)" />
<use xlink:href="#f2_2a" transform="matrix(12,0,0,12,489.3,810.9)" />
<use xlink:href="#f2_2g" transform="matrix(12,0,0,12,498.1,810.9)" />
<use xlink:href="#f2_25" transform="matrix(12,0,0,12,503.6,810.9)" />
<use xlink:href="#f2_2a" transform="matrix(12,0,0,12,508.3,810.9)" />
<use xlink:href="#f2_2h" transform="matrix(12,0,0,12,517.1,810.9)" />
<use xlink:href="#f2_21" transform="matrix(12,0,0,12,526.3,810.9)" />
<use xlink:href="#f2_2f" transform="matrix(12,0,0,12,534.4,810.9)" />
<use xlink:href="#f2_2g" transform="matrix(12,0,0,12,546.1,810.9)" />
<use xlink:href="#f2_2b" transform="matrix(12,0,0,12,551.6,810.9)" />
<use xlink:href="#f2_23" transform="matrix(12,0,0,12,565.5,810.9)" />
<use xlink:href="#f2_2e" transform="matrix(12,0,0,12,574.6,810.9)" />
<use xlink:href="#f2_2b" transform="matrix(12,0,0,12,580.5,810.9)" />
<use xlink:href="#f2_2j" transform="matrix(12,0,0,12,590,810.9)" />
<use xlink:href="#f2_1x" transform="matrix(12,0,0,12,608,810.9)" />
<use xlink:href="#f2_2f" transform="matrix(12,0,0,12,616,810.9)" />
<use xlink:href="#f2_2c" transform="matrix(12,0,0,12,627.8,810.9)" />
<use xlink:href="#f2_2b" transform="matrix(12,0,0,12,636.6,810.9)" />
<use xlink:href="#f2_28" transform="matrix(12,0,0,12,646.1,810.9)" />
<use xlink:href="#f2_28" transform="matrix(12,0,0,12,650.8,810.9)" />
<use xlink:href="#f2_21" transform="matrix(12,0,0,12,655.6,810.9)" />
<use xlink:href="#f2_2a" transform="matrix(12,0,0,12,664,810.9)" />
<use xlink:href="#f2_2g" transform="matrix(12,0,0,12,677.6,810.9)" />
<use xlink:href="#f2_2h" transform="matrix(12,0,0,12,683,810.9)" />
<use xlink:href="#f2_1y" transform="matrix(12,0,0,12,692.2,810.9)" />
<use xlink:href="#f2_21" transform="matrix(12,0,0,12,701,810.9)" />
<use xlink:href="#f2_i" transform="matrix(12,0,0,12,709.4,810.9)" />
</g>
<path fill-rule="evenodd" d="M80.3,836.2H857.2V815.3H80.3v20.9Z" class="g0_32" />
<g fill="#1F3331" >
<use xlink:href="#f1_3d" transform="matrix(10.1,0,0,10.1,82.5,832.2)" />
<use xlink:href="#f2_1k" transform="matrix(12,0,0,12,110,832.2)" />
<use xlink:href="#f2_24" transform="matrix(12,0,0,12,121.4,832.2)" />
<use xlink:href="#f2_21" transform="matrix(12,0,0,12,130.2,832.2)" />
<use xlink:href="#f2_23" transform="matrix(12,0,0,12,147,832.2)" />
<use xlink:href="#f2_21" transform="matrix(12,0,0,12,156.2,832.2)" />
<use xlink:href="#f2_2a" transform="matrix(12,0,0,12,164.3,832.2)" />
<use xlink:href="#f2_21" transform="matrix(12,0,0,12,173.1,832.2)" />
<use xlink:href="#f2_2e" transform="matrix(12,0,0,12,181.1,832.2)" />
<use xlink:href="#f2_1x" transform="matrix(12,0,0,12,187.3,832.2)" />
<use xlink:href="#f2_2g" transform="matrix(12,0,0,12,195.4,832.2)" />
<use xlink:href="#f2_25" transform="matrix(12,0,0,12,201.3,832.2)" />
<use xlink:href="#f2_2i" transform="matrix(12,0,0,12,206,832.2)" />
<use xlink:href="#f2_21" transform="matrix(12,0,0,12,214.8,832.2)" />
<use xlink:href="#f2_2a" transform="matrix(12,0,0,12,231.7,832.2)" />
<use xlink:href="#f2_2h" transform="matrix(12,0,0,12,240.5,832.2)" />
<use xlink:href="#f2_1z" transform="matrix(12,0,0,12,249.6,832.2)" />
<use xlink:href="#f2_28" transform="matrix(12,0,0,12,258.1,832.2)" />
<use xlink:href="#f2_21" transform="matrix(12,0,0,12,262.8,832.2)" />
<use xlink:href="#f2_2h" transform="matrix(12,0,0,12,270.9,832.2)" />
<use xlink:href="#f2_2f" transform="matrix(12,0,0,12,280.4,832.2)" />
<use xlink:href="#f2_23" transform="matrix(12,0,0,12,296.4,832.2)" />
<use xlink:href="#f2_25" transform="matrix(12,0,0,12,305.9,832.2)" />
<use xlink:href="#f2_2i" transform="matrix(12,0,0,12,310.7,832.2)" />
<use xlink:href="#f2_21" transform="matrix(12,0,0,12,319.5,832.2)" />
<use xlink:href="#f2_2f" transform="matrix(12,0,0,12,327.9,832.2)" />
<use xlink:href="#f2_2e" transform="matrix(12,0,0,12,343.6,832.2)" />
<use xlink:href="#f2_25" transform="matrix(12,0,0,12,349.8,832.2)" />
<use xlink:href="#f2_2f" transform="matrix(12,0,0,12,354.6,832.2)" />
<use xlink:href="#f2_21" transform="matrix(12,0,0,12,361.6,832.2)" />
<use xlink:href="#f2_2g" transform="matrix(12,0,0,12,378.4,832.2)" />
<use xlink:href="#f2_2b" transform="matrix(12,0,0,12,383.5,832.2)" />
<use xlink:href="#f2_2g" transform="matrix(12,0,0,12,401.1,832.2)" />
<use xlink:href="#f2_2j" transform="matrix(12,0,0,12,406.6,832.2)" />
<use xlink:href="#f2_2b" transform="matrix(12,0,0,12,419.4,832.2)" />
<use xlink:href="#f2_29" transform="matrix(12,0,0,12,437.6,832.2)" />
<use xlink:href="#f2_1x" transform="matrix(12,0,0,12,451.2,832.2)" />
<use xlink:href="#f2_28" transform="matrix(12,0,0,12,459.6,832.2)" />
<use xlink:href="#f2_21" transform="matrix(12,0,0,12,464.4,832.2)" />
<use xlink:href="#f2_2a" transform="matrix(12,0,0,12,481.6,832.2)" />
<use xlink:href="#f2_2h" transform="matrix(12,0,0,12,490.4,832.2)" />
<use xlink:href="#f2_1z" transform="matrix(12,0,0,12,499.5,832.2)" />
<use xlink:href="#f2_28" transform="matrix(12,0,0,12,508,832.2)" />
<use xlink:href="#f2_21" transform="matrix(12,0,0,12,512.7,832.2)" />
<use xlink:href="#f2_25" transform="matrix(12,0,0,12,521.1,832.2)" />
<use xlink:href="#f2_1y" transform="matrix(12,0,0,12,534.7,832.2)" />
<use xlink:href="#f2_2l" transform="matrix(12,0,0,12,543.9,832.2)" />
<use xlink:href="#f2_20" transform="matrix(12,0,0,12,561.1,832.2)" />
<use xlink:href="#f2_25" transform="matrix(12,0,0,12,570.6,832.2)" />
<use xlink:href="#f2_2i" transform="matrix(12,0,0,12,575.4,832.2)" />
<use xlink:href="#f2_25" transform="matrix(12,0,0,12,584.9,832.2)" />
<use xlink:href="#f2_2f" transform="matrix(12,0,0,12,589.6,832.2)" />
<use xlink:href="#f2_25" transform="matrix(12,0,0,12,597.3,832.2)" />
<use xlink:href="#f2_2b" transform="matrix(12,0,0,12,601.7,832.2)" />
<use xlink:href="#f2_2a" transform="matrix(12,0,0,12,611.6,832.2)" />
<use xlink:href="#f2_i" transform="matrix(12,0,0,12,620.4,832.2)" />
<use xlink:href="#f2_1k" transform="matrix(12,0,0,12,634.2,832.2)" />
<use xlink:href="#f2_24" transform="matrix(12,0,0,12,645.6,832.2)" />
<use xlink:href="#f2_21" transform="matrix(12,0,0,12,654.4,832.2)" />
<use xlink:href="#f2_2l" transform="matrix(12,0,0,12,662.8,832.2)" />
<use xlink:href="#f2_1y" transform="matrix(12,0,0,12,680.1,832.2)" />
<use xlink:href="#f2_21" transform="matrix(12,0,0,12,688.9,832.2)" />
<use xlink:href="#f2_1z" transform="matrix(12,0,0,12,696.9,832.2)" />
<use xlink:href="#f2_2b" transform="matrix(12,0,0,12,705,832.2)" />
<use xlink:href="#f2_29" transform="matrix(12,0,0,12,714.9,832.2)" />
<use xlink:href="#f2_21" transform="matrix(12,0,0,12,728.8,832.2)" />
<use xlink:href="#f2_2f" transform="matrix(12,0,0,12,745.7,832.2)" />
<use xlink:href="#f2_2h" transform="matrix(12,0,0,12,752.6,832.2)" />
<use xlink:href="#f2_2e" transform="matrix(12,0,0,12,761.8,832.2)" />
<use xlink:href="#f2_2e" transform="matrix(12,0,0,12,768,832.2)" />
<use xlink:href="#f2_2b" transform="matrix(12,0,0,12,773.9,832.2)" />
<use xlink:href="#f2_2h" transform="matrix(12,0,0,12,783.4,832.2)" />
<use xlink:href="#f2_2a" transform="matrix(12,0,0,12,792.6,832.2)" />
<use xlink:href="#f2_20" transform="matrix(12,0,0,12,801.4,832.2)" />
<use xlink:href="#f2_21" transform="matrix(12,0,0,12,810.5,832.2)" />
<use xlink:href="#f2_20" transform="matrix(12,0,0,12,818.6,832.2)" />
<use xlink:href="#f2_1y" transform="matrix(12,0,0,12,836.5,832.2)" />
<use xlink:href="#f2_2l" transform="matrix(12,0,0,12,845.7,832.2)" />
</g>
<path fill-rule="evenodd" d="M80.3,857.5H857.2V836.2H80.3v21.3Z" class="g0_32" />
<g fill="#1F3331" >
<use xlink:href="#f2_1z" transform="matrix(12,0,0,12,110,853.1)" />
<use xlink:href="#f2_2l" transform="matrix(12,0,0,12,118.5,853.1)" />
<use xlink:href="#f2_2g" transform="matrix(12,0,0,12,126.9,853.1)" />
<use xlink:href="#f2_2b" transform="matrix(12,0,0,12,132.4,853.1)" />
<use xlink:href="#f2_2c" transform="matrix(12,0,0,12,141.9,853.1)" />
<use xlink:href="#f2_28" transform="matrix(12,0,0,12,151,853.1)" />
<use xlink:href="#f2_1x" transform="matrix(12,0,0,12,155.4,853.1)" />
<use xlink:href="#f2_2f" transform="matrix(12,0,0,12,163.9,853.1)" />
<use xlink:href="#f2_29" transform="matrix(12,0,0,12,171.2,853.1)" />
<use xlink:href="#f2_25" transform="matrix(12,0,0,12,185.1,853.1)" />
<use xlink:href="#f2_1z" transform="matrix(12,0,0,12,189.9,853.1)" />
<use xlink:href="#f2_29" transform="matrix(12,0,0,12,203.1,853.1)" />
<use xlink:href="#f2_1x" transform="matrix(12,0,0,12,217,853.1)" />
<use xlink:href="#f2_2f" transform="matrix(12,0,0,12,225.4,853.1)" />
<use xlink:href="#f2_2f" transform="matrix(12,0,0,12,232.4,853.1)" />
<use xlink:href="#f2_21" transform="matrix(12,0,0,12,239.3,853.1)" />
<use xlink:href="#f2_2f" transform="matrix(12,0,0,12,247.8,853.1)" />
<use xlink:href="#f2_1x" transform="matrix(12,0,0,12,259.5,853.1)" />
<use xlink:href="#f2_2a" transform="matrix(12,0,0,12,267.5,853.1)" />
<use xlink:href="#f2_20" transform="matrix(12,0,0,12,276.3,853.1)" />
<use xlink:href="#f2_2c" transform="matrix(12,0,0,12,290.5,853.1)" />
<use xlink:href="#f2_2e" transform="matrix(12,0,0,12,299.7,853.1)" />
<use xlink:href="#f2_21" transform="matrix(12,0,0,12,305.9,853.1)" />
<use xlink:href="#f2_2f" transform="matrix(12,0,0,12,314,853.1)" />
<use xlink:href="#f2_21" transform="matrix(12,0,0,12,320.9,853.1)" />
<use xlink:href="#f2_2a" transform="matrix(12,0,0,12,329.3,853.1)" />
<use xlink:href="#f2_2g" transform="matrix(12,0,0,12,338.1,853.1)" />
<use xlink:href="#f2_1x" transform="matrix(12,0,0,12,348.5,853.1)" />
<use xlink:href="#f2_2f" transform="matrix(12,0,0,12,356.6,853.1)" />
<use xlink:href="#f2_20" transform="matrix(12,0,0,12,368.3,853.1)" />
<use xlink:href="#f2_25" transform="matrix(12,0,0,12,377.8,853.1)" />
<use xlink:href="#f2_2f" transform="matrix(12,0,0,12,382.2,853.1)" />
<use xlink:href="#f2_2g" transform="matrix(12,0,0,12,389.1,853.1)" />
<use xlink:href="#f2_25" transform="matrix(12,0,0,12,395,853.1)" />
<use xlink:href="#f2_2a" transform="matrix(12,0,0,12,399.8,853.1)" />
<use xlink:href="#f2_1z" transform="matrix(12,0,0,12,408.6,853.1)" />
<use xlink:href="#f2_2g" transform="matrix(12,0,0,12,416.6,853.1)" />
<use xlink:href="#f2_29" transform="matrix(12,0,0,12,426.9,853.1)" />
<use xlink:href="#f2_1x" transform="matrix(12,0,0,12,440.8,853.1)" />
<use xlink:href="#f2_28" transform="matrix(12,0,0,12,449.2,853.1)" />
<use xlink:href="#f2_21" transform="matrix(12,0,0,12,454,853.1)" />
<use xlink:href="#f2_23" transform="matrix(12,0,0,12,466.8,853.1)" />
<use xlink:href="#f2_1x" transform="matrix(12,0,0,12,476,853.1)" />
<use xlink:href="#f2_29" transform="matrix(12,0,0,12,484,853.1)" />
<use xlink:href="#f2_21" transform="matrix(12,0,0,12,498,853.1)" />
<use xlink:href="#f2_2g" transform="matrix(12,0,0,12,506,853.1)" />
<use xlink:href="#f2_21" transform="matrix(12,0,0,12,511.5,853.1)" />
<use xlink:href="#f2_2f" transform="matrix(12,0,0,12,519.6,853.1)" />
<use xlink:href="#f2_i" transform="matrix(12,0,0,12,526.7,853.1)" />
</g>
<path fill-rule="evenodd" d="M80.3,878.4H857.2V857.5H80.3v20.9Z" class="g0_32" />
<g fill="#1F3331" >
<use xlink:href="#f1_3d" transform="matrix(10.1,0,0,10.1,82.5,874.3)" />
<use xlink:href="#f2_1k" transform="matrix(12,0,0,12,110,874.3)" />
<use xlink:href="#f2_24" transform="matrix(12,0,0,12,121.4,874.3)" />
<use xlink:href="#f2_21" transform="matrix(12,0,0,12,130.2,874.3)" />
<use xlink:href="#f2_2c" transform="matrix(12,0,0,12,143,874.3)" />
<use xlink:href="#f2_2b" transform="matrix(12,0,0,12,152.2,874.3)" />
<use xlink:href="#f2_28" transform="matrix(12,0,0,12,161.7,874.3)" />
<use xlink:href="#f2_28" transform="matrix(12,0,0,12,166.4,874.3)" />
<use xlink:href="#f2_21" transform="matrix(12,0,0,12,171.2,874.3)" />
<use xlink:href="#f2_2a" transform="matrix(12,0,0,12,179.6,874.3)" />
<use xlink:href="#f2_2g" transform="matrix(12,0,0,12,193.2,874.3)" />
<use xlink:href="#f2_2h" transform="matrix(12,0,0,12,198.7,874.3)" />
<use xlink:href="#f2_1y" transform="matrix(12,0,0,12,207.8,874.3)" />
<use xlink:href="#f2_21" transform="matrix(12,0,0,12,216.6,874.3)" />
<use xlink:href="#f2_23" transform="matrix(12,0,0,12,229.4,874.3)" />
<use xlink:href="#f2_2e" transform="matrix(12,0,0,12,238.6,874.3)" />
<use xlink:href="#f2_2b" transform="matrix(12,0,0,12,244.8,874.3)" />
<use xlink:href="#f2_2j" transform="matrix(12,0,0,12,254.3,874.3)" />
<use xlink:href="#f2_2f" transform="matrix(12,0,0,12,267.6,874.3)" />
<use xlink:href="#f2_2g" transform="matrix(12,0,0,12,278.9,874.3)" />
<use xlink:href="#f2_24" transform="matrix(12,0,0,12,284.4,874.3)" />
<use xlink:href="#f2_2e" transform="matrix(12,0,0,12,293.2,874.3)" />
<use xlink:href="#f2_2b" transform="matrix(12,0,0,12,299.1,874.3)" />
<use xlink:href="#f2_2h" transform="matrix(12,0,0,12,308.6,874.3)" />
<use xlink:href="#f2_23" transform="matrix(12,0,0,12,317.7,874.3)" />
<use xlink:href="#f2_24" transform="matrix(12,0,0,12,326.9,874.3)" />
<use xlink:href="#f2_2g" transform="matrix(12,0,0,12,340.4,874.3)" />
<use xlink:href="#f2_24" transform="matrix(12,0,0,12,345.9,874.3)" />
<use xlink:href="#f2_21" transform="matrix(12,0,0,12,354.7,874.3)" />
<use xlink:href="#f2_2f" transform="matrix(12,0,0,12,367.5,874.3)" />
<use xlink:href="#f2_2g" transform="matrix(12,0,0,12,374.5,874.3)" />
<use xlink:href="#f2_25" transform="matrix(12,0,0,12,380,874.3)" />
<use xlink:href="#f2_23" transform="matrix(12,0,0,12,384.4,874.3)" />
<use xlink:href="#f2_29" transform="matrix(12,0,0,12,393.9,874.3)" />
<use xlink:href="#f2_1x" transform="matrix(12,0,0,12,407.8,874.3)" />
<use xlink:href="#f2_1x" transform="matrix(12,0,0,12,420.7,874.3)" />
<use xlink:href="#f2_2a" transform="matrix(12,0,0,12,429.1,874.3)" />
<use xlink:href="#f2_20" transform="matrix(12,0,0,12,437.9,874.3)" />
<use xlink:href="#f2_2c" transform="matrix(12,0,0,12,451.8,874.3)" />
<use xlink:href="#f2_1x" transform="matrix(12,0,0,12,461,874.3)" />
<use xlink:href="#f2_2f" transform="matrix(12,0,0,12,469,874.3)" />
<use xlink:href="#f2_2f" transform="matrix(12,0,0,12,476,874.3)" />
<use xlink:href="#f2_21" transform="matrix(12,0,0,12,483.3,874.3)" />
<use xlink:href="#f2_2f" transform="matrix(12,0,0,12,491.4,874.3)" />
<use xlink:href="#f2_25" transform="matrix(12,0,0,12,503.5,874.3)" />
<use xlink:href="#f2_2a" transform="matrix(12,0,0,12,508.2,874.3)" />
<use xlink:href="#f2_2g" transform="matrix(12,0,0,12,517,874.3)" />
<use xlink:href="#f2_2b" transform="matrix(12,0,0,12,522.5,874.3)" />
<use xlink:href="#f2_2g" transform="matrix(12,0,0,12,536.1,874.3)" />
<use xlink:href="#f2_24" transform="matrix(12,0,0,12,541.5,874.3)" />
<use xlink:href="#f2_21" transform="matrix(12,0,0,12,550.3,874.3)" />
<use xlink:href="#f2_2g" transform="matrix(12,0,0,12,563.2,874.3)" />
<use xlink:href="#f2_25" transform="matrix(12,0,0,12,568.6,874.3)" />
<use xlink:href="#f2_2f" transform="matrix(12,0,0,12,573,874.3)" />
<use xlink:href="#f2_2f" transform="matrix(12,0,0,12,580.4,874.3)" />
<use xlink:href="#f2_2h" transform="matrix(12,0,0,12,587.3,874.3)" />
<use xlink:href="#f2_21" transform="matrix(12,0,0,12,596.5,874.3)" />
<use xlink:href="#f2_2f" transform="matrix(12,0,0,12,604.6,874.3)" />
<use xlink:href="#f2_2b" transform="matrix(12,0,0,12,616.3,874.3)" />
<use xlink:href="#f2_22" transform="matrix(12,0,0,12,625.8,874.3)" />
<use xlink:href="#f2_2f" transform="matrix(12,0,0,12,636,874.3)" />
<use xlink:href="#f2_2g" transform="matrix(12,0,0,12,643,874.3)" />
<use xlink:href="#f2_2l" transform="matrix(12,0,0,12,648.9,874.3)" />
<use xlink:href="#f2_28" transform="matrix(12,0,0,12,657.7,874.3)" />
<use xlink:href="#f2_21" transform="matrix(12,0,0,12,662.4,874.3)" />
<use xlink:href="#f2_i" transform="matrix(12,0,0,12,670.5,874.3)" />
</g>
<path fill-rule="evenodd" d="M80.3,899.7H857.2V878.4H80.3v21.3Z" class="g0_32" />
<g fill="#1F3331" >
<use xlink:href="#f1_3d" transform="matrix(10.1,0,0,10.1,82.5,895.7)" />
<use xlink:href="#f2_15" transform="matrix(12,0,0,12,110,895.7)" />
<use xlink:href="#f2_2a" transform="matrix(12,0,0,12,121.4,895.7)" />
<use xlink:href="#f2_2g" transform="matrix(12,0,0,12,130.2,895.7)" />
<use xlink:href="#f2_2e" transform="matrix(12,0,0,12,135.7,895.7)" />
<use xlink:href="#f2_2l" transform="matrix(12,0,0,12,141.9,895.7)" />
<use xlink:href="#f2_2b" transform="matrix(12,0,0,12,155.1,895.7)" />
<use xlink:href="#f2_22" transform="matrix(12,0,0,12,164.6,895.7)" />
<use xlink:href="#f2_2c" transform="matrix(12,0,0,12,174.8,895.7)" />
<use xlink:href="#f2_2b" transform="matrix(12,0,0,12,184,895.7)" />
<use xlink:href="#f2_28" transform="matrix(12,0,0,12,193.9,895.7)" />
<use xlink:href="#f2_28" transform="matrix(12,0,0,12,198.6,895.7)" />
<use xlink:href="#f2_21" transform="matrix(12,0,0,12,203.4,895.7)" />
<use xlink:href="#f2_2a" transform="matrix(12,0,0,12,211.8,895.7)" />
<use xlink:href="#f2_2g" transform="matrix(12,0,0,12,225.4,895.7)" />
<use xlink:href="#f2_2h" transform="matrix(12,0,0,12,230.9,895.7)" />
<use xlink:href="#f2_1y" transform="matrix(12,0,0,12,240,895.7)" />
<use xlink:href="#f2_21" transform="matrix(12,0,0,12,248.8,895.7)" />
<use xlink:href="#f2_25" transform="matrix(12,0,0,12,262,895.7)" />
<use xlink:href="#f2_2a" transform="matrix(12,0,0,12,266.8,895.7)" />
<use xlink:href="#f2_2g" transform="matrix(12,0,0,12,275.6,895.7)" />
<use xlink:href="#f2_2b" transform="matrix(12,0,0,12,281,895.7)" />
<use xlink:href="#f2_2b" transform="matrix(12,0,0,12,294.6,895.7)" />
<use xlink:href="#f2_2i" transform="matrix(12,0,0,12,304.1,895.7)" />
<use xlink:href="#f2_2h" transform="matrix(12,0,0,12,312.9,895.7)" />
<use xlink:href="#f2_28" transform="matrix(12,0,0,12,322.4,895.7)" />
<use xlink:href="#f2_21" transform="matrix(12,0,0,12,326.8,895.7)" />
<use xlink:href="#f2_25" transform="matrix(12,0,0,12,340,895.7)" />
<use xlink:href="#f2_2f" transform="matrix(12,0,0,12,344.8,895.7)" />
<use xlink:href="#f2_2b" transform="matrix(12,0,0,12,356.5,895.7)" />
<use xlink:href="#f2_22" transform="matrix(12,0,0,12,366,895.7)" />
<use xlink:href="#f2_20" transform="matrix(12,0,0,12,376.3,895.7)" />
<use xlink:href="#f2_25" transform="matrix(12,0,0,12,385.8,895.7)" />
<use xlink:href="#f2_22" transform="matrix(12,0,0,12,390.6,895.7)" />
<use xlink:href="#f2_22" transform="matrix(12,0,0,12,396.8,895.7)" />
<use xlink:href="#f2_21" transform="matrix(12,0,0,12,402.6,895.7)" />
<use xlink:href="#f2_2e" transform="matrix(12,0,0,12,410.7,895.7)" />
<use xlink:href="#f2_21" transform="matrix(12,0,0,12,416.9,895.7)" />
<use xlink:href="#f2_2a" transform="matrix(12,0,0,12,425.3,895.7)" />
<use xlink:href="#f2_2g" transform="matrix(12,0,0,12,434.1,895.7)" />
<use xlink:href="#f2_2g" transform="matrix(12,0,0,12,444,895.7)" />
<use xlink:href="#f2_2l" transform="matrix(12,0,0,12,449.5,895.7)" />
<use xlink:href="#f2_2c" transform="matrix(12,0,0,12,457.9,895.7)" />
<use xlink:href="#f2_21" transform="matrix(12,0,0,12,467.1,895.7)" />
<use xlink:href="#f2_2f" transform="matrix(12,0,0,12,475.5,895.7)" />
<use xlink:href="#f2_20" transform="matrix(12,0,0,12,487.6,895.7)" />
<use xlink:href="#f2_21" transform="matrix(12,0,0,12,497.4,895.7)" />
<use xlink:href="#f2_2c" transform="matrix(12,0,0,12,505.5,895.7)" />
<use xlink:href="#f2_21" transform="matrix(12,0,0,12,514.6,895.7)" />
<use xlink:href="#f2_2a" transform="matrix(12,0,0,12,522.7,895.7)" />
<use xlink:href="#f2_20" transform="matrix(12,0,0,12,531.5,895.7)" />
<use xlink:href="#f2_25" transform="matrix(12,0,0,12,541,895.7)" />
<use xlink:href="#f2_2a" transform="matrix(12,0,0,12,545.8,895.7)" />
<use xlink:href="#f2_23" transform="matrix(12,0,0,12,554.9,895.7)" />
<use xlink:href="#f2_2h" transform="matrix(12,0,0,12,568.8,895.7)" />
<use xlink:href="#f2_2c" transform="matrix(12,0,0,12,578,895.7)" />
<use xlink:href="#f2_2b" transform="matrix(12,0,0,12,587.2,895.7)" />
<use xlink:href="#f2_2a" transform="matrix(12,0,0,12,596.7,895.7)" />
<use xlink:href="#f2_2g" transform="matrix(12,0,0,12,610.4,895.7)" />
<use xlink:href="#f2_24" transform="matrix(12,0,0,12,615.9,895.7)" />
<use xlink:href="#f2_21" transform="matrix(12,0,0,12,624.7,895.7)" />
<use xlink:href="#f2_2e" transform="matrix(12,0,0,12,637.5,895.7)" />
<use xlink:href="#f2_21" transform="matrix(12,0,0,12,643.7,895.7)" />
<use xlink:href="#f2_23" transform="matrix(12,0,0,12,651.8,895.7)" />
<use xlink:href="#f2_25" transform="matrix(12,0,0,12,660.9,895.7)" />
<use xlink:href="#f2_2b" transform="matrix(12,0,0,12,665.3,895.7)" />
<use xlink:href="#f2_2a" transform="matrix(12,0,0,12,674.9,895.7)" />
<use xlink:href="#f2_2b" transform="matrix(12,0,0,12,688.4,895.7)" />
<use xlink:href="#f2_22" transform="matrix(12,0,0,12,697.9,895.7)" />
<use xlink:href="#f2_21" transform="matrix(12,0,0,12,708.2,895.7)" />
<use xlink:href="#f2_2a" transform="matrix(12,0,0,12,716.6,895.7)" />
<use xlink:href="#f2_2g" transform="matrix(12,0,0,12,725.4,895.7)" />
<use xlink:href="#f2_2e" transform="matrix(12,0,0,12,730.9,895.7)" />
<use xlink:href="#f2_2l" transform="matrix(12,0,0,12,737.1,895.7)" />
<use xlink:href="#f2_25" transform="matrix(12,0,0,12,750.6,895.7)" />
<use xlink:href="#f2_2a" transform="matrix(12,0,0,12,755.4,895.7)" />
<use xlink:href="#f2_2g" transform="matrix(12,0,0,12,764.2,895.7)" />
<use xlink:href="#f2_2b" transform="matrix(12,0,0,12,769.7,895.7)" />
<use xlink:href="#f2_2b" transform="matrix(12,0,0,12,783.6,895.7)" />
<use xlink:href="#f2_2i" transform="matrix(12,0,0,12,793.1,895.7)" />
<use xlink:href="#f2_2h" transform="matrix(12,0,0,12,801.9,895.7)" />
<use xlink:href="#f2_28" transform="matrix(12,0,0,12,811.4,895.7)" />
<use xlink:href="#f2_21" transform="matrix(12,0,0,12,815.8,895.7)" />
<use xlink:href="#f2_i" transform="matrix(12,0,0,12,823.9,895.7)" />
</g>
<path fill-rule="evenodd" d="M52.8,955.4H857.2V921H52.8v34.4Z" class="g0_32" />
<g fill="#1F3331" >
<use xlink:href="#f2_1k" transform="matrix(12,0,0,12,55,938.2)" />
<use xlink:href="#f2_24" transform="matrix(12,0,0,12,66.4,938.2)" />
<use xlink:href="#f2_21" transform="matrix(12,0,0,12,75.2,938.2)" />
<use xlink:href="#f2_2f" transform="matrix(12,0,0,12,83.3,938.2)" />
<use xlink:href="#f2_21" transform="matrix(12,0,0,12,90.2,938.2)" />
<use xlink:href="#f2_1x" transform="matrix(12,0,0,12,103,938.2)" />
<use xlink:href="#f2_2e" transform="matrix(12,0,0,12,111.1,938.2)" />
<use xlink:href="#f2_21" transform="matrix(12,0,0,12,117.3,938.2)" />
<use xlink:href="#f2_u" transform="matrix(12,0,0,12,125.4,938.2)" />
<use xlink:href="#f2_h" transform="matrix(12,0,0,12,130.6,938.2)" />
</g>
<path fill-rule="evenodd" d="M52.8,990.3H857.2V955.4H52.8v34.9Z" class="g0_32" />
<g fill="#1F3331" >
<use xlink:href="#f0_25" transform="matrix(12,0,0,12,55,972.7)" />
<use xlink:href="#f0_d" transform="matrix(12,0,0,12,60.1,972.7)" />
<use xlink:href="#f0_1g" transform="matrix(12,0,0,12,71.2,972.7)" />
<use xlink:href="#f0_2b" transform="matrix(12,0,0,12,82.2,972.7)" />
<use xlink:href="#f0_2e" transform="matrix(12,0,0,12,91.3,972.7)" />
<use xlink:href="#f0_2b" transform="matrix(12,0,0,12,99,972.7)" />
<use xlink:href="#f0_23" transform="matrix(12,0,0,12,108.2,972.7)" />
<use xlink:href="#f0_1x" transform="matrix(12,0,0,12,117.4,972.7)" />
<use xlink:href="#f0_29" transform="matrix(12,0,0,12,126.5,972.7)" />
<use xlink:href="#f0_2l" transform="matrix(12,0,0,12,141.6,972.7)" />
<use xlink:href="#f0_u" transform="matrix(12,0,0,12,150.7,972.7)" />
<use xlink:href="#f2_1k" transform="matrix(12,0,0,12,161.8,972.7)" />
<use xlink:href="#f2_24" transform="matrix(12,0,0,12,173.1,972.7)" />
<use xlink:href="#f2_21" transform="matrix(12,0,0,12,181.9,972.7)" />
<use xlink:href="#f2_21" transform="matrix(12,0,0,12,194.7,972.7)" />
<use xlink:href="#f2_2a" transform="matrix(12,0,0,12,203.2,972.7)" />
<use xlink:href="#f2_2g" transform="matrix(12,0,0,12,212,972.7)" />
<use xlink:href="#f2_2e" transform="matrix(12,0,0,12,217.4,972.7)" />
<use xlink:href="#f2_2l" transform="matrix(12,0,0,12,223.7,972.7)" />
<use xlink:href="#f2_2b" transform="matrix(12,0,0,12,236.8,972.7)" />
<use xlink:href="#f2_22" transform="matrix(12,0,0,12,246.7,972.7)" />
<use xlink:href="#f2_2c" transform="matrix(12,0,0,12,257,972.7)" />
<use xlink:href="#f2_2b" transform="matrix(12,0,0,12,266.1,972.7)" />
<use xlink:href="#f2_28" transform="matrix(12,0,0,12,275.6,972.7)" />
<use xlink:href="#f2_28" transform="matrix(12,0,0,12,280.4,972.7)" />
<use xlink:href="#f2_21" transform="matrix(12,0,0,12,285.2,972.7)" />
<use xlink:href="#f2_2a" transform="matrix(12,0,0,12,293.6,972.7)" />
<use xlink:href="#f2_2g" transform="matrix(12,0,0,12,307.1,972.7)" />
<use xlink:href="#f2_2h" transform="matrix(12,0,0,12,312.6,972.7)" />
<use xlink:href="#f2_1y" transform="matrix(12,0,0,12,321.8,972.7)" />
<use xlink:href="#f2_21" transform="matrix(12,0,0,12,330.6,972.7)" />
<use xlink:href="#f2_25" transform="matrix(12,0,0,12,343.8,972.7)" />
<use xlink:href="#f2_2a" transform="matrix(12,0,0,12,348.5,972.7)" />
<use xlink:href="#f2_2g" transform="matrix(12,0,0,12,357.3,972.7)" />
<use xlink:href="#f2_2b" transform="matrix(12,0,0,12,362.8,972.7)" />
<use xlink:href="#f2_2g" transform="matrix(12,0,0,12,376.4,972.7)" />
<use xlink:href="#f2_24" transform="matrix(12,0,0,12,381.9,972.7)" />
<use xlink:href="#f2_21" transform="matrix(12,0,0,12,391,972.7)" />
<use xlink:href="#f2_2b" transform="matrix(12,0,0,12,403.8,972.7)" />
<use xlink:href="#f2_2i" transform="matrix(12,0,0,12,413.3,972.7)" />
<use xlink:href="#f2_2h" transform="matrix(12,0,0,12,422.1,972.7)" />
<use xlink:href="#f2_28" transform="matrix(12,0,0,12,431.7,972.7)" />
<use xlink:href="#f2_21" transform="matrix(12,0,0,12,436.1,972.7)" />
<use xlink:href="#f2_2g" transform="matrix(12,0,0,12,448.9,972.7)" />
<use xlink:href="#f2_24" transform="matrix(12,0,0,12,454.4,972.7)" />
<use xlink:href="#f2_2e" transform="matrix(12,0,0,12,463.2,972.7)" />
<use xlink:href="#f2_2b" transform="matrix(12,0,0,12,469.4,972.7)" />
<use xlink:href="#f2_2h" transform="matrix(12,0,0,12,478.9,972.7)" />
<use xlink:href="#f2_23" transform="matrix(12,0,0,12,488.1,972.7)" />
<use xlink:href="#f2_24" transform="matrix(12,0,0,12,497.2,972.7)" />
<use xlink:href="#f2_29" transform="matrix(12,0,0,12,510.8,972.7)" />
<use xlink:href="#f2_25" transform="matrix(12,0,0,12,524.7,972.7)" />
<use xlink:href="#f2_1z" transform="matrix(12,0,0,12,529.5,972.7)" />
<use xlink:href="#f2_2e" transform="matrix(12,0,0,12,537.5,972.7)" />
<use xlink:href="#f2_2b" transform="matrix(12,0,0,12,543.8,972.7)" />
<use xlink:href="#f2_2c" transform="matrix(12,0,0,12,553.3,972.7)" />
<use xlink:href="#f2_2l" transform="matrix(12,0,0,12,562.8,972.7)" />
<use xlink:href="#f2_28" transform="matrix(12,0,0,12,571.6,972.7)" />
<use xlink:href="#f2_21" transform="matrix(12,0,0,12,576.4,972.7)" />
<use xlink:href="#f2_21" transform="matrix(12,0,0,12,589.2,972.7)" />
<use xlink:href="#f2_i" transform="matrix(12,0,0,12,597.2,972.7)" />
<use xlink:href="#f2_23" transform="matrix(12,0,0,12,602,972.7)" />
<use xlink:href="#f2_i" transform="matrix(12,0,0,12,611.1,972.7)" />
<use xlink:href="#f3_1f" transform="matrix(12,0,0,12,621,972.7)" />
<use xlink:href="#f3_2g" transform="matrix(12,0,0,12,634.2,972.7)" />
<use xlink:href="#f3_2g" transform="matrix(12,0,0,12,639.3,972.7)" />
<use xlink:href="#f3_21" transform="matrix(12,0,0,12,644.5,972.7)" />
<use xlink:href="#f3_28" transform="matrix(12,0,0,12,652.5,972.7)" />
<use xlink:href="#f3_25" transform="matrix(12,0,0,12,657.6,972.7)" />
<use xlink:href="#f3_1x" transform="matrix(12,0,0,12,662.8,972.7)" />
</g>
<path fill-rule="evenodd" d="M52.8,1024.8H857.2V990.3H52.8v34.5Z" class="g0_32" />
<g fill="#1F3331" >
<use xlink:href="#f0_25" transform="matrix(12,0,0,12,55,1007.5)" />
<use xlink:href="#f0_25" transform="matrix(12,0,0,12,60.1,1007.5)" />
<use xlink:href="#f0_d" transform="matrix(12,0,0,12,65.3,1007.5)" />
<use xlink:href="#f0_13" transform="matrix(12,0,0,12,76.2,1007.5)" />
<use xlink:href="#f0_24" transform="matrix(12,0,0,12,89.5,1007.5)" />
<use xlink:href="#f0_1x" transform="matrix(12,0,0,12,99.7,1007.5)" />
<use xlink:href="#f0_28" transform="matrix(12,0,0,12,108.8,1007.5)" />
<use xlink:href="#f0_1x" transform="matrix(12,0,0,12,113.6,1007.5)" />
<use xlink:href="#f0_2m" transform="matrix(12,0,0,12,122.8,1007.5)" />
<use xlink:href="#f0_2b" transform="matrix(12,0,0,12,130.5,1007.5)" />
<use xlink:href="#f0_23" transform="matrix(12,0,0,12,139.7,1007.5)" />
<use xlink:href="#f0_1x" transform="matrix(12,0,0,12,148.8,1007.5)" />
<use xlink:href="#f0_29" transform="matrix(12,0,0,12,158.4,1007.5)" />
<use xlink:href="#f0_2l" transform="matrix(12,0,0,12,173.4,1007.5)" />
<use xlink:href="#f0_u" transform="matrix(12,0,0,12,182.6,1007.5)" />
<use xlink:href="#f2_1k" transform="matrix(12,0,0,12,193.7,1007.5)" />
<use xlink:href="#f2_24" transform="matrix(12,0,0,12,205,1007.5)" />
<use xlink:href="#f2_21" transform="matrix(12,0,0,12,213.8,1007.5)" />
<use xlink:href="#f2_21" transform="matrix(12,0,0,12,226.6,1007.5)" />
<use xlink:href="#f2_2a" transform="matrix(12,0,0,12,234.7,1007.5)" />
<use xlink:href="#f2_2g" transform="matrix(12,0,0,12,243.5,1007.5)" />
<use xlink:href="#f2_2e" transform="matrix(12,0,0,12,249,1007.5)" />
<use xlink:href="#f2_2l" transform="matrix(12,0,0,12,255.6,1007.5)" />
<use xlink:href="#f2_2b" transform="matrix(12,0,0,12,268.8,1007.5)" />
<use xlink:href="#f2_22" transform="matrix(12,0,0,12,278.3,1007.5)" />
<use xlink:href="#f2_2c" transform="matrix(12,0,0,12,288.5,1007.5)" />
<use xlink:href="#f2_2b" transform="matrix(12,0,0,12,297.7,1007.5)" />
<use xlink:href="#f2_28" transform="matrix(12,0,0,12,307.2,1007.5)" />
<use xlink:href="#f2_28" transform="matrix(12,0,0,12,312,1007.5)" />
<use xlink:href="#f2_21" transform="matrix(12,0,0,12,316.7,1007.5)" />
<use xlink:href="#f2_2a" transform="matrix(12,0,0,12,325.1,1007.5)" />
<use xlink:href="#f2_2g" transform="matrix(12,0,0,12,338.7,1007.5)" />
<use xlink:href="#f2_2h" transform="matrix(12,0,0,12,344.2,1007.5)" />
<use xlink:href="#f2_1y" transform="matrix(12,0,0,12,353.3,1007.5)" />
<use xlink:href="#f2_21" transform="matrix(12,0,0,12,362.1,1007.5)" />
<use xlink:href="#f2_25" transform="matrix(12,0,0,12,375.3,1007.5)" />
<use xlink:href="#f2_2a" transform="matrix(12,0,0,12,380.1,1007.5)" />
<use xlink:href="#f2_2g" transform="matrix(12,0,0,12,388.9,1007.5)" />
<use xlink:href="#f2_2b" transform="matrix(12,0,0,12,394.4,1007.5)" />
<use xlink:href="#f2_2g" transform="matrix(12,0,0,12,408.3,1007.5)" />
<use xlink:href="#f2_24" transform="matrix(12,0,0,12,413.8,1007.5)" />
<use xlink:href="#f2_21" transform="matrix(12,0,0,12,422.2,1007.5)" />
<use xlink:href="#f2_2b" transform="matrix(12,0,0,12,435,1007.5)" />
<use xlink:href="#f2_2i" transform="matrix(12,0,0,12,444.5,1007.5)" />
<use xlink:href="#f2_2h" transform="matrix(12,0,0,12,453.3,1007.5)" />
<use xlink:href="#f2_28" transform="matrix(12,0,0,12,462.8,1007.5)" />
<use xlink:href="#f2_21" transform="matrix(12,0,0,12,467.2,1007.5)" />
<use xlink:href="#f2_2g" transform="matrix(12,0,0,12,480.1,1007.5)" />
<use xlink:href="#f2_24" transform="matrix(12,0,0,12,485.5,1007.5)" />
<use xlink:href="#f2_2e" transform="matrix(12,0,0,12,494.3,1007.5)" />
<use xlink:href="#f2_2b" transform="matrix(12,0,0,12,500.6,1007.5)" />
<use xlink:href="#f2_2h" transform="matrix(12,0,0,12,510.1,1007.5)" />
<use xlink:href="#f2_23" transform="matrix(12,0,0,12,519.2,1007.5)" />
<use xlink:href="#f2_24" transform="matrix(12,0,0,12,528.4,1007.5)" />
<use xlink:href="#f2_1z" transform="matrix(12,0,0,12,542,1007.5)" />
<use xlink:href="#f2_24" transform="matrix(12,0,0,12,550,1007.5)" />
<use xlink:href="#f2_1x" transform="matrix(12,0,0,12,558.8,1007.5)" />
<use xlink:href="#f2_28" transform="matrix(12,0,0,12,567.2,1007.5)" />
<use xlink:href="#f2_1x" transform="matrix(12,0,0,12,572,1007.5)" />
<use xlink:href="#f2_2m" transform="matrix(12,0,0,12,580.1,1007.5)" />
<use xlink:href="#f2_1x" transform="matrix(12,0,0,12,588.1,1007.5)" />
<use xlink:href="#f2_21" transform="matrix(12,0,0,12,601,1007.5)" />
<use xlink:href="#f2_i" transform="matrix(12,0,0,12,609,1007.5)" />
<use xlink:href="#f2_23" transform="matrix(12,0,0,12,613.8,1007.5)" />
<use xlink:href="#f2_i" transform="matrix(12,0,0,12,622.9,1007.5)" />
<use xlink:href="#f3_13" transform="matrix(12,0,0,12,633.1,1007.5)" />
<use xlink:href="#f3_1x" transform="matrix(12,0,0,12,645.2,1007.5)" />
<use xlink:href="#f3_2f" transform="matrix(12,0,0,12,654.4,1007.5)" />
<use xlink:href="#f3_2h" transform="matrix(12,0,0,12,661.4,1007.5)" />
<use xlink:href="#f3_1x" transform="matrix(12,0,0,12,670.5,1007.5)" />
<use xlink:href="#f3_2e" transform="matrix(12,0,0,12,679.7,1007.5)" />
<use xlink:href="#f3_25" transform="matrix(12,0,0,12,686.7,1007.5)" />
<use xlink:href="#f3_2a" transform="matrix(12,0,0,12,691.8,1007.5)" />
<use xlink:href="#f3_1x" transform="matrix(12,0,0,12,700.9,1007.5)" />
</g>
<path fill-rule="evenodd" d="M52.8,1059.2H857.2v-34.4H52.8v34.4Z" class="g0_32" />
<g fill="#1F3331" >
<use xlink:href="#f0_25" transform="matrix(12,0,0,12,55,1042)" />
<use xlink:href="#f0_25" transform="matrix(12,0,0,12,60.1,1042)" />
<use xlink:href="#f0_25" transform="matrix(12,0,0,12,65.3,1042)" />
<use xlink:href="#f0_d" transform="matrix(12,0,0,12,70.4,1042)" />
<use xlink:href="#f0_1d" transform="matrix(12,0,0,12,81,1042)" />
<use xlink:href="#f0_21" transform="matrix(12,0,0,12,98.6,1042)" />
<use xlink:href="#f0_2f" transform="matrix(12,0,0,12,106.7,1042)" />
<use xlink:href="#f0_2b" transform="matrix(12,0,0,12,113.6,1042)" />
<use xlink:href="#f0_23" transform="matrix(12,0,0,12,122.8,1042)" />
<use xlink:href="#f0_1x" transform="matrix(12,0,0,12,132,1042)" />
<use xlink:href="#f0_29" transform="matrix(12,0,0,12,141.1,1042)" />
<use xlink:href="#f0_2l" transform="matrix(12,0,0,12,156.2,1042)" />
<use xlink:href="#f2_u" transform="matrix(12,0,0,12,165.4,1042)" />
<use xlink:href="#f2_1k" transform="matrix(12,0,0,12,175.3,1042)" />
<use xlink:href="#f2_24" transform="matrix(12,0,0,12,186.7,1042)" />
<use xlink:href="#f2_21" transform="matrix(12,0,0,12,195.5,1042)" />
<use xlink:href="#f2_21" transform="matrix(12,0,0,12,208.3,1042)" />
<use xlink:href="#f2_2a" transform="matrix(12,0,0,12,216.4,1042)" />
<use xlink:href="#f2_2g" transform="matrix(12,0,0,12,225.2,1042)" />
<use xlink:href="#f2_2e" transform="matrix(12,0,0,12,230.6,1042)" />
<use xlink:href="#f2_2l" transform="matrix(12,0,0,12,237.2,1042)" />
<use xlink:href="#f2_2b" transform="matrix(12,0,0,12,250.4,1042)" />
<use xlink:href="#f2_22" transform="matrix(12,0,0,12,259.9,1042)" />
<use xlink:href="#f2_2c" transform="matrix(12,0,0,12,270.2,1042)" />
<use xlink:href="#f2_2b" transform="matrix(12,0,0,12,279.3,1042)" />
<use xlink:href="#f2_28" transform="matrix(12,0,0,12,288.8,1042)" />
<use xlink:href="#f2_28" transform="matrix(12,0,0,12,293.6,1042)" />
<use xlink:href="#f2_21" transform="matrix(12,0,0,12,298.4,1042)" />
<use xlink:href="#f2_2a" transform="matrix(12,0,0,12,306.8,1042)" />
<use xlink:href="#f2_2g" transform="matrix(12,0,0,12,320.3,1042)" />
<use xlink:href="#f2_2h" transform="matrix(12,0,0,12,325.8,1042)" />
<use xlink:href="#f2_1y" transform="matrix(12,0,0,12,335,1042)" />
<use xlink:href="#f2_21" transform="matrix(12,0,0,12,343.8,1042)" />
<use xlink:href="#f2_25" transform="matrix(12,0,0,12,357.3,1042)" />
<use xlink:href="#f2_2a" transform="matrix(12,0,0,12,362.1,1042)" />
<use xlink:href="#f2_2g" transform="matrix(12,0,0,12,370.9,1042)" />
<use xlink:href="#f2_2b" transform="matrix(12,0,0,12,376.3,1042)" />
<use xlink:href="#f2_2g" transform="matrix(12,0,0,12,390.2,1042)" />
<use xlink:href="#f2_24" transform="matrix(12,0,0,12,395.7,1042)" />
<use xlink:href="#f2_21" transform="matrix(12,0,0,12,404.5,1042)" />
<use xlink:href="#f2_2b" transform="matrix(12,0,0,12,417,1042)" />
<use xlink:href="#f2_2i" transform="matrix(12,0,0,12,426.2,1042)" />
<use xlink:href="#f2_2h" transform="matrix(12,0,0,12,435,1042)" />
<use xlink:href="#f2_28" transform="matrix(12,0,0,12,444.5,1042)" />
<use xlink:href="#f2_21" transform="matrix(12,0,0,12,449.2,1042)" />
<use xlink:href="#f2_2g" transform="matrix(12,0,0,12,462.2,1042)" />
<use xlink:href="#f2_24" transform="matrix(12,0,0,12,467.7,1042)" />
<use xlink:href="#f2_2e" transform="matrix(12,0,0,12,476.5,1042)" />
<use xlink:href="#f2_2b" transform="matrix(12,0,0,12,482.7,1042)" />
<use xlink:href="#f2_2h" transform="matrix(12,0,0,12,492.2,1042)" />
<use xlink:href="#f2_23" transform="matrix(12,0,0,12,501.4,1042)" />
<use xlink:href="#f2_24" transform="matrix(12,0,0,12,510.6,1042)" />
<use xlink:href="#f2_22" transform="matrix(12,0,0,12,524.2,1042)" />
<use xlink:href="#f2_2h" transform="matrix(12,0,0,12,529.7,1042)" />
<use xlink:href="#f2_2a" transform="matrix(12,0,0,12,539.2,1042)" />
<use xlink:href="#f2_25" transform="matrix(12,0,0,12,548.3,1042)" />
<use xlink:href="#f2_1z" transform="matrix(12,0,0,12,553.1,1042)" />
<use xlink:href="#f2_28" transform="matrix(12,0,0,12,561.5,1042)" />
<use xlink:href="#f2_21" transform="matrix(12,0,0,12,566.3,1042)" />
<use xlink:href="#f2_2b" transform="matrix(12,0,0,12,579.1,1042)" />
<use xlink:href="#f2_2e" transform="matrix(12,0,0,12,588.6,1042)" />
<use xlink:href="#f2_25" transform="matrix(12,0,0,12,599.6,1042)" />
<use xlink:href="#f2_2a" transform="matrix(12,0,0,12,604.4,1042)" />
<use xlink:href="#f2_2g" transform="matrix(12,0,0,12,613.2,1042)" />
<use xlink:href="#f2_21" transform="matrix(12,0,0,12,618.6,1042)" />
<use xlink:href="#f2_23" transform="matrix(12,0,0,12,626.7,1042)" />
<use xlink:href="#f2_2h" transform="matrix(12,0,0,12,635.9,1042)" />
<use xlink:href="#f2_29" transform="matrix(12,0,0,12,645.4,1042)" />
<use xlink:href="#f2_21" transform="matrix(12,0,0,12,658.9,1042)" />
<use xlink:href="#f2_2a" transform="matrix(12,0,0,12,667.4,1042)" />
<use xlink:href="#f2_2g" transform="matrix(12,0,0,12,676.2,1042)" />
<use xlink:href="#f2_2f" transform="matrix(12,0,0,12,681.6,1042)" />
<use xlink:href="#f2_21" transform="matrix(12,0,0,12,693.4,1042)" />
<use xlink:href="#f2_i" transform="matrix(12,0,0,12,701.4,1042)" />
<use xlink:href="#f2_23" transform="matrix(12,0,0,12,706.2,1042)" />
<use xlink:href="#f2_i" transform="matrix(12,0,0,12,715.3,1042)" />
<use xlink:href="#f3_13" transform="matrix(12,0,0,12,725.2,1042)" />
<use xlink:href="#f3_2h" transform="matrix(12,0,0,12,737.3,1042)" />
<use xlink:href="#f3_1z" transform="matrix(12,0,0,12,746.5,1042)" />
<use xlink:href="#f3_2h" transform="matrix(12,0,0,12,754.5,1042)" />
<use xlink:href="#f3_2e" transform="matrix(12,0,0,12,763.7,1042)" />
<use xlink:href="#f3_1y" transform="matrix(12,0,0,12,770.7,1042)" />
<use xlink:href="#f3_25" transform="matrix(12,0,0,12,779.8,1042)" />
<use xlink:href="#f3_2g" transform="matrix(12,0,0,12,784.9,1042)" />
<use xlink:href="#f3_1x" transform="matrix(12,0,0,12,790.1,1042)" />
<use xlink:href="#f2_i" transform="matrix(12,0,0,12,798.9,1042)" />
</g>
<path fill-rule="evenodd" d="M52.8,1217.7H857.2V1059.2H52.8v158.5Z" class="g0_32" />
<image preserveAspectRatio="none" x="57" y="55" width="734" height="478" xlink:href="img/1.png" />
<image preserveAspectRatio="none" x="55" y="1059" width="678" height="157" xlink:href="img/2.png" />
<g fill="#000000" >
<use xlink:href="#f4_l" transform="matrix(8,0,0,8,786.1,1264.1)" />
<use xlink:href="#f4_r" transform="matrix(8,0,0,8,792.9,1264.1)" />
</g>
<defs>
<path d="M410,-14c0,0,-86,0,-175,14C235,0,145,14,81,38V307h66L181,146c0,0,31,-37,94,-62c0,0,64,-24,132,-24c0,0,214,0,214,177c0,0,0,55,-41,93c0,0,-41,38,-128,68c0,0,-128,42,-185,68c0,0,-56,27,-95,63c0,0,-38,36,-62,87c0,0,-23,51,-23,125c0,0,0,132,90,201c0,0,90,69,263,69c0,0,125,0,278,-32V741H651L618,878c0,0,-76,56,-178,56c0,0,-92,0,-141,-34c0,0,-49,-34,-49,-104c0,0,0,-50,41,-86c0,0,41,-35,128,-63c0,0,171,-56,235,-97c0,0,64,-41,97,-103c0,0,34,-61,34,-143c0,0,0,-318,-375,-318Z" 
id="f0_1j"
transform="scale(0.001,-0.001)" />

<path d="M34,0V49l76,18V634L38,652v49H325V67L402,49V0ZM217,831c0,0,-48,0,-81,33c0,0,-34,33,-34,82c0,0,0,48,34,81c0,0,34,33,81,33c0,0,48,0,81,-33c0,0,33,-33,33,-81c0,0,0,-47,-33,-81c0,0,-32,-34,-81,-34Z" 
id="f0_25"
transform="scale(0.001,-0.001)" />

<path d="M360,-256c0,0,108,0,167,35c0,0,59,35,59,98c0,0,0,70,-95,70H254c0,0,-65,-47,-65,-108c0,0,0,-47,46,-71c0,0,45,-24,125,-24Zm9,561c0,0,55,0,79,43c0,0,25,43,25,129c0,0,0,87,-24,127c0,0,-25,41,-80,41c0,0,-52,0,-75,-41c0,0,-24,-40,-24,-127c0,0,0,-86,23,-129c0,0,23,-43,76,-43Zm-9,-641c0,0,-153,0,-236,43c0,0,-84,44,-84,120c0,0,0,33,28,65c0,0,27,31,105,76c0,0,-44,17,-75,59c0,0,-31,43,-31,90L192,258c0,0,-133,56,-133,219c0,0,0,116,81,180c0,0,82,63,233,63c0,0,32,0,82,-6c0,0,51,-6,74,-13l168,83l26,-32L638,631c0,0,46,-57,46,-154c0,0,0,-119,-80,-182c0,0,-80,-64,-234,-64c0,0,-59,0,-114,9L238,183c0,0,1,-22,28,-41c0,0,26,-19,64,-19H493c0,0,256,0,256,-196c0,0,0,-81,-44,-139c0,0,-45,-59,-131,-92c0,0,-86,-32,-214,-32Z" 
id="f0_23"
transform="scale(0.001,-0.001)" />

<path d="M41,0V49l69,18V634L41,652v49H313l11,-61l50,26c0,0,105,54,188,54c0,0,194,0,194,-207V67L827,49V0H478V49l63,18V484c0,0,0,63,-27,98c0,0,-26,35,-75,35c0,0,-57,0,-114,-25V67L389,49V0Z" 
id="f0_2a"
transform="scale(0.001,-0.001)" />

<path d="M41,0V49l76,18V624H11v51l106,29v75c0,0,0,144,73,220c0,0,73,77,210,77c0,0,74,0,124,-15V894H476l-22,81c0,0,-18,17,-47,17c0,0,-74,0,-74,-189V701H475V624H333V67L447,49V0Z" 
id="f0_22"
transform="scale(0.001,-0.001)" />

<path d="M425,-14c0,0,-187,0,-280,90c0,0,-93,90,-93,276c0,0,0,115,42,198c0,0,43,82,121,126c0,0,78,44,182,44c0,0,104,0,227,-26V486H571L539,609c0,0,-25,19,-50,26c0,0,-24,7,-65,7c0,0,-44,0,-79,-35c0,0,-36,-35,-56,-98c0,0,-20,-64,-20,-153c0,0,0,-150,47,-214c0,0,47,-64,148,-64c0,0,103,0,176,21V42C640,42,606,15,547,0c0,0,-59,-14,-122,-14Z" 
id="f0_1z"
transform="scale(0.001,-0.001)" />

<path d="M345,75c0,0,50,0,110,26V351l-63,-2c0,0,-72,-3,-100,-38c0,0,-28,-35,-28,-113c0,0,0,-63,22,-93c0,0,23,-30,59,-30ZM266,-14c0,0,-217,0,-217,208c0,0,0,79,32,126c0,0,32,48,93,71c0,0,60,22,190,25l91,2V521c0,0,0,126,-104,126c0,0,-62,0,-140,-39L183,521H134V691c0,0,112,17,165,21c0,0,53,5,108,5c0,0,264,0,264,-194V67L741,49V0H483L466,54C466,54,408,14,361,0c0,0,-47,-14,-95,-14Z" 
id="f0_1x"
transform="scale(0.001,-0.001)" />

<path d="M434,423c0,0,0,101,-7,142c0,0,-6,40,-22,60c0,0,-16,19,-45,19c0,0,-44,0,-66,-48c0,0,-22,-49,-22,-173ZM389,-14c0,0,-172,0,-254,89c0,0,-83,90,-83,279c0,0,0,184,79,274c0,0,79,91,238,91c0,0,142,0,206,-76c0,0,64,-76,64,-237V345H271V333c0,0,0,-111,18,-158c0,0,18,-47,58,-72c0,0,40,-25,110,-25c0,0,66,0,166,22V42C623,42,582,18,517,1c0,0,-66,-15,-128,-15Z" 
id="f0_21"
transform="scale(0.001,-0.001)" />

<path d="M379,60c0,0,59,0,84,64c0,0,24,65,24,231c0,0,0,164,-24,227c0,0,-24,63,-84,63c0,0,-57,0,-80,-60c0,0,-22,-61,-22,-230c0,0,0,-173,23,-234c0,0,22,-61,79,-61Zm-2,-74c0,0,-161,0,-240,91c0,0,-79,91,-79,277c0,0,0,186,80,276c0,0,81,90,245,90c0,0,167,0,245,-93c0,0,78,-93,78,-273c0,0,0,-188,-81,-278c0,0,-81,-90,-248,-90Z" 
id="f0_2b"
transform="scale(0.001,-0.001)" />

<path d="M438,65c0,0,131,0,131,293c0,0,0,279,-130,279c0,0,-69,0,-127,-29V80c0,0,60,-15,126,-15ZM20,-325v50l76,18V634L19,652v49H304l1,-36c0,0,80,55,194,55c0,0,146,0,218,-86c0,0,71,-86,71,-271c0,0,0,-183,-83,-280c0,0,-83,-97,-238,-97c0,0,-79,0,-160,19c0,0,5,-48,5,-109V-257l103,-18v-50Z" 
id="f0_2c"
transform="scale(0.001,-0.001)" />

<path d="M30,0V49l76,18V992l-72,18v50H322V67L398,49V0Z" 
id="f0_28"
transform="scale(0.001,-0.001)" />

<path d="M327,-14c0,0,-101,0,-156,45c0,0,-55,45,-55,131V624H25v48l108,29l87,159H332V701H480V624H332V176c0,0,0,-49,20,-73c0,0,20,-25,53,-25c0,0,40,0,97,12V26c0,0,-22,-15,-76,-27c0,0,-55,-13,-99,-13Z" 
id="f0_2g"
transform="scale(0.001,-0.001)" />

<path d="M273,157c0,0,-114,0,-193,80C80,237,0,317,0,431c0,0,0,112,80,192c0,0,79,80,193,80c0,0,113,0,192,-80c0,0,80,-80,80,-192c0,0,0,-114,-80,-194c0,0,-79,-80,-192,-80Z" 
id="f1_3d"
transform="scale(0.001,-0.001)" />

<path d="M394,460c0,0,126,0,186,57c0,0,60,57,60,187c0,0,0,123,-57,176c0,0,-58,53,-194,53H316V460ZM54,0V40L172,60V941L44,960v40H421c0,0,368,0,368,-295c0,0,0,-153,-93,-233c0,0,-93,-80,-267,-80H316V60L475,40V0Z" 
id="f2_1g"
transform="scale(0.001,-0.001)" />

<path d="M377,45c0,0,99,0,147,73c0,0,47,73,47,237c0,0,0,161,-47,233c0,0,-47,72,-147,72c0,0,-97,0,-141,-69c0,0,-44,-69,-44,-236c0,0,0,-169,45,-240c0,0,44,-70,140,-70Zm0,-59c0,0,-158,0,-238,94c0,0,-81,95,-81,274c0,0,0,178,81,272c0,0,80,94,244,94c0,0,160,0,241,-92c0,0,82,-92,82,-274c0,0,0,-368,-329,-368Z" 
id="f2_2b"
transform="scale(0.001,-0.001)" />

<path d="M31,0V33L150,52v956L31,1026v34H274V52L394,33V0Z" 
id="f2_28"
transform="scale(0.001,-0.001)" />

<path d="M32,0V33L151,52V649L52,668v33H275V52L395,33V0ZM201,850c0,0,-32,0,-56,24c0,0,-24,24,-24,56c0,0,0,34,24,58c0,0,24,24,56,24c0,0,34,0,58,-24c0,0,24,-24,24,-58c0,0,0,-32,-24,-56c0,0,-24,-24,-58,-24Z" 
id="f2_25"
transform="scale(0.001,-0.001)" />

<path d="M439,0V33l93,19V500c0,0,0,62,-30,97c0,0,-31,36,-94,36c0,0,-67,0,-165,-22V52L338,33V0H35V33l84,19V649L35,668v33H235l7,-57c0,0,57,33,122,54c0,0,65,22,108,22c0,0,91,0,137,-53c0,0,47,-53,47,-154V52L741,33V0Z" 
id="f2_2a"
transform="scale(0.001,-0.001)" />

<path d="M284,67c0,0,51,0,88,12c0,0,37,12,74,30V358l-98,-3c0,0,-100,-4,-135,-39c0,0,-35,-35,-35,-117c0,0,0,-132,106,-132ZM233,-14c0,0,-179,0,-179,208c0,0,0,70,27,116c0,0,27,46,87,70c0,0,60,24,173,27l105,3V519c0,0,0,72,-26,107c0,0,-27,34,-82,34c0,0,-75,0,-137,-35L176,538H134V691c0,0,121,26,213,26c0,0,115,0,169,-47c0,0,54,-47,54,-144V52L657,33V0H465L451,70c0,0,-85,-84,-218,-84Z" 
id="f2_1x"
transform="scale(0.001,-0.001)" />

<path d="M249,-14c0,0,-71,0,-107,42c0,0,-35,42,-35,119V639H15v33l93,29l76,159h47V701H391V639H231V161c0,0,0,-48,22,-73c0,0,22,-24,57,-24c0,0,44,0,106,12V26C416,26,389,8,340,-2c0,0,-49,-12,-91,-12Z" 
id="f2_2g"
transform="scale(0.001,-0.001)" />

<path d="M278,-14c0,0,-52,0,-115,11c0,0,-63,10,-99,23V193H98L134,95c0,0,56,-50,146,-50c0,0,144,0,144,123c0,0,0,91,-114,130l-66,21c0,0,-75,25,-110,50c0,0,-34,26,-53,63c0,0,-18,36,-18,89c0,0,0,92,63,145c0,0,63,54,170,54c0,0,77,0,193,-23V544H454l-32,81c0,0,-39,35,-124,35c0,0,-61,0,-92,-30c0,0,-32,-30,-32,-80c0,0,0,-43,29,-72c0,0,28,-29,86,-48c0,0,110,-38,144,-55c0,0,33,-17,57,-42c0,0,23,-25,36,-57c0,0,13,-32,13,-79c0,0,0,-104,-66,-158c0,0,-66,-53,-195,-53Z" 
id="f2_2f"
transform="scale(0.001,-0.001)" />

<path d="M31,0V33l88,19V649L31,668v33H235l7,-87c0,0,44,37,121,71c0,0,76,35,121,35h11V530H463l-43,82c0,0,-37,0,-88,-10c0,0,-52,-10,-89,-26V52L363,33V0Z" 
id="f2_2e"
transform="scale(0.001,-0.001)" />

<path d="M495,413c0,0,0,133,-34,190c0,0,-34,57,-105,57c0,0,-78,0,-119,-63c0,0,-42,-62,-42,-184ZM374,-14c0,0,-163,0,-239,87c0,0,-75,88,-75,283c0,0,0,183,77,273c0,0,76,91,219,91c0,0,269,0,269,-306V353H194V340c0,0,0,-103,23,-160c0,0,22,-57,70,-87c0,0,47,-29,124,-29c0,0,40,0,96,6c0,0,55,7,91,15V43C598,43,562,20,500,3c0,0,-61,-17,-126,-17Z" 
id="f2_21"
transform="scale(0.001,-0.001)" />

<path d="M383,64c0,0,44,0,87,7c0,0,43,7,65,17V645c0,0,-67,13,-152,13c0,0,-194,0,-194,-309c0,0,0,-143,48,-214c0,0,47,-71,146,-71Zm56,-389v35l96,18V-77c0,0,0,73,7,124c0,0,-79,-61,-200,-61c0,0,-287,0,-287,362c0,0,0,180,81,276c0,0,81,96,237,96c0,0,84,0,166,-18l67,33h53V-272l77,-18v-35Z" 
id="f2_2d"
transform="scale(0.001,-0.001)" />

<path d="M289,-14c0,0,-179,0,-179,205V649L20,668v33H233V200c0,0,0,-128,120,-128c0,0,92,0,173,23V649L420,668v33H649V52L738,33V0H533l-6,57C527,57,474,28,405,7c0,0,-69,-21,-116,-21Z" 
id="f2_2h"
transform="scale(0.001,-0.001)" />

<path d="M383,64c0,0,85,0,152,28V645c0,0,-67,13,-152,13c0,0,-194,0,-194,-314c0,0,0,-141,48,-211c0,0,48,-69,146,-69ZM342,-14c0,0,-287,0,-287,358c0,0,0,184,82,280c0,0,81,96,239,96c0,0,81,0,163,-18c0,0,-4,25,-4,124v182l-118,18v34H659V52L745,33V0H548l-9,52c0,0,-84,-66,-197,-66Z" 
id="f2_20"
transform="scale(0.001,-0.001)" />

<path d="M64,0V34L168,59V639H47v36l121,29v49c0,0,0,155,61,239c0,0,62,84,173,84c0,0,58,0,107,-15V908H472l-33,92c0,0,-26,16,-62,16c0,0,-47,0,-66,-42c0,0,-19,-42,-19,-157V701H478V639H292V59L443,34V0Z" 
id="f2_22"
transform="scale(0.001,-0.001)" />

<path d="M41,0V34L426,641H261c0,0,-42,0,-80,-7c0,0,-39,-7,-54,-19L104,515H69V701H586V665L201,60H407c0,0,42,0,89,10c0,0,47,10,66,25l39,147h35L617,0Z" 
id="f2_2m"
transform="scale(0.001,-0.001)" />

<path d="M442,0V33l93,19V504c0,0,0,129,-124,129c0,0,-70,0,-168,-22V52L338,33V0H31V33l88,19v956L15,1026v34H243V756c0,0,0,-77,-5,-112c0,0,54,31,122,53c0,0,68,23,115,23c0,0,91,0,137,-53c0,0,47,-53,47,-154V52L744,33V0Z" 
id="f2_24"
transform="scale(0.001,-0.001)" />

<path d="M382,45c0,0,188,0,188,314c0,0,0,143,-47,213c0,0,-46,69,-141,69c0,0,-87,0,-146,-24V58c0,0,67,-13,146,-13ZM25,-325v35l88,18V649L34,668v33H231l1,-41c0,0,31,27,84,43c0,0,53,17,107,17c0,0,134,0,208,-94c0,0,73,-93,73,-267c0,0,0,-178,-80,-276c0,0,-80,-97,-232,-97c0,0,-84,0,-160,16c0,0,4,-53,4,-84V-272l123,-18v-35Z" 
id="f2_2c"
transform="scale(0.001,-0.001)" />

<path d="M399,-14c0,0,-341,0,-341,370c0,0,0,175,87,269c0,0,87,95,249,95c0,0,101,0,220,-23V501H573L541,625c0,0,-62,35,-149,35c0,0,-200,0,-200,-304c0,0,0,-158,61,-225c0,0,61,-67,189,-67c0,0,109,0,189,24V43C631,43,595,16,530,1c0,0,-64,-15,-131,-15Z" 
id="f2_1z"
transform="scale(0.001,-0.001)" />

<path d="M191,-20c0,0,-39,0,-65,25c0,0,-25,27,-25,64c0,0,0,38,26,64c0,0,26,26,64,26c0,0,38,0,64,-26c0,0,26,-26,26,-64c0,0,0,-37,-25,-64c0,0,-26,-25,-65,-25Z" 
id="f2_i"
transform="scale(0.001,-0.001)" />

<path d="M55,0V40L184,60V941L55,960v40H455V960L327,941V60L455,40V0Z" 
id="f2_19"
transform="scale(0.001,-0.001)" />

<path d="M431,0V33L535,52V499c0,0,0,62,-32,96c0,0,-32,33,-95,33c0,0,-66,0,-163,-22V52L350,33V0H32V33l89,19V649L32,668v33H237l6,-57c0,0,56,32,119,54c0,0,62,22,110,22c0,0,52,0,95,-20c0,0,44,-19,66,-62c0,0,57,32,134,57c0,0,77,25,128,25c0,0,179,0,179,-207V52l90,-19V0H846V33L950,52V499c0,0,0,129,-119,129c0,0,-19,0,-45,-3c0,0,-26,-3,-52,-7c0,0,-25,-4,-49,-8c0,0,-23,-5,-39,-8c0,0,13,-41,13,-89V52L764,33V0Z" 
id="f2_29"
transform="scale(0.001,-0.001)" />

<path d="M359,-270c0,0,124,0,192,46c0,0,67,47,67,129c0,0,0,43,-26,67c0,0,-26,24,-79,24H242c0,0,-32,-27,-51,-69c0,0,-20,-41,-20,-77c0,0,0,-64,46,-92c0,0,46,-28,142,-28Zm11,561c0,0,81,0,115,47c0,0,34,47,34,141c0,0,0,100,-35,142c0,0,-35,42,-113,42c0,0,-78,0,-114,-43c0,0,-37,-42,-37,-141c0,0,0,-98,36,-143c0,0,36,-45,114,-45ZM359,-329c0,0,-143,0,-218,44c0,0,-75,43,-75,125c0,0,0,39,27,78c0,0,26,38,98,89c0,0,-43,14,-72,48c0,0,-29,35,-29,74L208,262c0,0,-118,55,-118,217c0,0,0,115,73,178c0,0,73,63,211,63c0,0,28,0,71,-6c0,0,44,-6,67,-13l165,83l26,-32L599,644c0,0,50,-56,50,-165c0,0,0,-120,-72,-182c0,0,-73,-62,-208,-62c0,0,-62,0,-114,11L208,148c0,0,2,-13,29,-24c0,0,27,-12,67,-12H512c0,0,113,0,168,-49c0,0,55,-49,55,-134c0,0,0,-79,-44,-137c0,0,-43,-58,-128,-90c0,0,-84,-31,-204,-31Z" 
id="f2_23"
transform="scale(0.001,-0.001)" />

<path d="M327,-14L84,649L1,668v33H335V668L219,648L385,174L554,632h63L786,171L944,649L830,668v33h267V668l-78,-16L784,-14H726L553,448L382,-14Z" 
id="f2_2j"
transform="scale(0.001,-0.001)" />

<path d="M360,-14L72,649L0,668v33H327V668L216,648L420,164L615,649L504,668v33H764V668L697,652L416,-14Z" 
id="f2_2i"
transform="scale(0.001,-0.001)" />

<path d="M148,-329c0,0,-58,0,-114,13v151H69l24,-71c0,0,23,-17,64,-17c0,0,39,0,72,22c0,0,33,23,60,67c0,0,27,44,68,157L90,649L19,668v33H344V668L233,648L423,158L606,649L497,668v33H758V668L685,652L411,-43c0,0,-48,-124,-84,-177c0,0,-36,-54,-79,-82c0,0,-44,-27,-100,-27Z" 
id="f2_2l"
transform="scale(0.001,-0.001)" />

<path d="M376,50c0,0,103,0,149,80c0,0,46,81,46,240c0,0,0,137,-47,204c0,0,-48,67,-148,67c0,0,-44,0,-87,-7c0,0,-44,-8,-63,-17V62c0,0,63,-12,150,-12Zm3,-64c0,0,-64,0,-141,14c0,0,-78,14,-136,37v971L0,1026v34H226V809c0,0,0,-40,-4,-148c0,0,74,59,188,59c0,0,143,0,219,-87c0,0,77,-87,77,-263c0,0,0,-189,-84,-287c0,0,-84,-97,-243,-97Z" 
id="f2_1y"
transform="scale(0.001,-0.001)" />

<path d="M235,0V40L394,60V936H356c0,0,-189,0,-258,-15L78,766H28v234H908V766H857L837,921c0,0,-22,5,-98,9c0,0,-75,4,-165,4H538V60L697,40V0Z" 
id="f2_1k"
transform="scale(0.001,-0.001)" />

<path d="M452,474c0,0,104,0,151,52c0,0,47,53,47,178c0,0,0,119,-45,167c0,0,-44,47,-156,47H390V474ZM36,0V54L154,74V926L26,945v55H467c0,0,213,0,318,-71c0,0,105,-71,105,-224c0,0,0,-313,-366,-313H390V74L557,54V0Z" 
id="f0_1g"
transform="scale(0.001,-0.001)" />

<path d="M276,-14c0,0,-57,0,-125,13C151,-1,83,10,48,23V214H97l28,-98c0,0,26,-26,69,-44c0,0,42,-17,86,-17c0,0,65,0,97,28c0,0,32,28,32,71c0,0,0,41,-31,65c0,0,-30,25,-133,57c0,0,-108,34,-154,92c0,0,-45,58,-45,143c0,0,0,95,71,152c0,0,71,57,183,57c0,0,77,0,207,-22V518H457l-24,82c0,0,-21,22,-60,35c0,0,-40,14,-75,14c0,0,-53,0,-79,-22c0,0,-26,-22,-26,-59c0,0,0,-40,32,-65c0,0,32,-26,132,-55c0,0,109,-34,155,-89c0,0,45,-55,45,-137c0,0,0,-117,-72,-177c0,0,-72,-59,-209,-59Z" 
id="f0_2f"
transform="scale(0.001,-0.001)" />

<path d="M342,-14L49,634L0,652v49H359V652L275,632L455,233L617,634l-82,18v49H764V652L713,637L433,-14Z" 
id="f0_2i"
transform="scale(0.001,-0.001)" />

<path d="M681,416L504,902L333,416ZM669,0V40L803,60L704,348H310L210,60L344,40V0H15V40L128,60l341,949H611L965,60L1092,40V0Z" 
id="f2_11"
transform="scale(0.001,-0.001)" />

<path d="M41,0V49l91,18V634L41,652v49H336l8,-145c0,0,80,89,144,128c0,0,64,40,117,40h40V468H604l-45,94c0,0,-47,0,-106,-21c0,0,-60,-20,-105,-48V67L460,49V0Z" 
id="f0_2e"
transform="scale(0.001,-0.001)" />

<path d="M41,0V49l69,18V634L41,652v49H313l11,-61l50,26c0,0,105,54,188,54c0,0,125,0,167,-91c0,0,153,91,258,91c0,0,189,0,189,-207V67l71,-17V0H898V50l63,17V484c0,0,0,63,-24,98c0,0,-25,35,-74,35c0,0,-55,0,-119,-31c0,0,7,-32,7,-73V67L821,50V0H473V50l63,17V484c0,0,0,63,-25,98c0,0,-24,35,-73,35c0,0,-49,0,-113,-29V67L389,49V0Z" 
id="f0_29"
transform="scale(0.001,-0.001)" />

<path d="M287,-18c0,0,-194,0,-194,206V634L23,652v49H309V217c0,0,0,-63,26,-98c0,0,27,-35,76,-35c0,0,57,0,113,25V634l-64,18v49H740V67L809,49V0H536L526,61L475,35c0,0,-104,-53,-188,-53Z" 
id="f0_2h"
transform="scale(0.001,-0.001)" />

<path d="M424,64c0,0,74,0,109,71c0,0,36,72,36,236c0,0,0,137,-34,201c0,0,-34,65,-111,65c0,0,-29,0,-62,-7c0,0,-34,-6,-55,-19V76c0,0,47,-12,117,-12Zm21,-78c0,0,-121,0,-354,50V994l-72,18v48H307V802c0,0,0,-69,-8,-141c0,0,30,25,86,42c0,0,57,17,110,17c0,0,153,0,223,-84c0,0,70,-83,70,-266c0,0,0,-180,-90,-283C698,87,608,-14,445,-14Z" 
id="f0_1y"
transform="scale(0.001,-0.001)" />

<path d="M58,-234v58c0,0,131,42,131,125c0,0,0,15,-11,27c0,0,-11,12,-38,25C140,1,89,27,89,75c0,0,0,40,25,61c0,0,26,21,65,21c0,0,48,0,77,-34c0,0,30,-34,30,-86c0,0,0,-101,-60,-170c0,0,-59,-69,-168,-101Z" 
id="f2_g"
transform="scale(0.001,-0.001)" />

<path d="M44,0V40L172,60V941L44,960v40H794V760H745L721,922c0,0,-83,11,-241,11H316V543H586l23,119h48V354H609L586,475H316V67H513c0,0,193,0,252,12l43,185h49L843,0Z" 
id="f2_15"
transform="scale(0.001,-0.001)" />

<path d="M211,-20c0,0,-39,0,-64,25c0,0,-26,27,-26,64c0,0,0,38,26,64c0,0,26,26,64,26c0,0,37,0,64,-25c0,0,26,-26,26,-65c0,0,0,-37,-26,-64c0,0,-26,-25,-64,-25Zm0,556c0,0,-38,0,-64,26c0,0,-26,26,-26,64c0,0,0,37,26,64c0,0,25,27,64,27c0,0,38,0,64,-27c0,0,26,-27,26,-64c0,0,0,-38,-26,-64c0,0,-27,-26,-64,-26Z" 
id="f2_u"
transform="scale(0.001,-0.001)" />

<path d="M57,302V417H454V302Z" 
id="f2_h"
transform="scale(0.001,-0.001)" />

<path d="M49,-325v85c0,0,68,53,110,135c0,0,41,82,60,190c0,0,19,109,19,283c0,0,0,177,-19,285c0,0,-20,108,-61,189c0,0,-41,81,-109,133v85c0,0,149,-80,232,-172c0,0,83,-92,122,-217c0,0,39,-125,39,-302c0,0,0,-178,-39,-304c0,0,-39,-125,-122,-218c0,0,-83,-93,-232,-172Z" 
id="f0_d"
transform="scale(0.001,-0.001)" />

<path d="M159,-329c0,0,-61,0,-123,14v180H81l32,-94c0,0,21,-17,55,-17c0,0,28,0,50,13c0,0,21,14,40,39c0,0,20,25,37,62c0,0,17,37,50,110L64,634L15,652v49H374V652L290,632L455,244L602,634l-82,18v49H749V652L698,637L421,-44c0,0,-47,-121,-83,-176c0,0,-36,-55,-80,-82c0,0,-43,-27,-99,-27Z" 
id="f0_2l"
transform="scale(0.001,-0.001)" />

<path d="M248,-20c0,0,-52,0,-87,34c0,0,-36,36,-36,88c0,0,0,52,36,88c0,0,35,36,87,36c0,0,52,0,88,-36c0,0,36,-36,36,-88c0,0,0,-51,-36,-87c0,0,-35,-35,-88,-35Zm0,488c0,0,-52,0,-87,36c0,0,-36,36,-36,88c0,0,0,52,35,88c0,0,35,36,88,36c0,0,53,0,89,-36c0,0,35,-37,35,-88c0,0,0,-51,-36,-87c0,0,-35,-37,-88,-37Z" 
id="f0_u"
transform="scale(0.001,-0.001)" />

<path d="M500,49c0,0,111,0,205,75c0,0,95,75,154,216c0,0,59,140,59,280c0,0,0,150,-76,240c0,0,-77,91,-202,91c0,0,-111,0,-204,-75c0,0,-93,-76,-151,-217c0,0,-59,-141,-59,-284c0,0,0,-147,75,-237c0,0,75,-89,199,-89Zm-5,-63c0,0,-121,0,-216,50c0,0,-96,50,-149,142c0,0,-53,91,-53,205c0,0,0,180,74,326c0,0,75,145,204,224c0,0,129,78,295,78c0,0,120,0,216,-50c0,0,96,-51,149,-142c0,0,53,-91,53,-206c0,0,0,-177,-75,-325C993,288,918,140,789,63c0,0,-129,-77,-294,-77Z" 
id="f3_1f"
transform="scale(0.001,-0.001)" />

<path d="M200,-14c0,0,-59,0,-93,35c0,0,-34,36,-34,100c0,0,0,22,4,51c0,0,4,30,82,467H67l6,33l99,29L275,860h47L295,701H455L443,639H283L210,230c0,0,-13,-69,-13,-99c0,0,0,-34,17,-51c0,0,17,-16,43,-16c0,0,54,0,113,21L386,50c0,0,-92,-64,-186,-64Z" 
id="f3_2g"
transform="scale(0.001,-0.001)" />

<path d="M188,355c0,0,148,11,236,69c0,0,89,58,89,143c0,0,0,41,-23,68c0,0,-22,27,-66,27c0,0,-52,0,-101,-43c0,0,-49,-42,-85,-114c0,0,-36,-71,-50,-150ZM298,-14c0,0,-120,0,-186,67c0,0,-65,67,-65,193c0,0,0,125,53,232c0,0,52,108,145,175c0,0,94,67,196,67c0,0,92,0,147,-42c0,0,56,-43,56,-111c0,0,0,-102,-126,-173c0,0,-125,-72,-336,-86l-3,-54c0,0,0,-95,40,-143c0,0,40,-47,118,-47c0,0,67,0,124,22c0,0,57,23,106,52l22,-32c0,0,-69,-58,-146,-89c0,0,-76,-31,-145,-31Z" 
id="f3_21"
transform="scale(0.001,-0.001)" />

<path d="M81,0L258,1008l-96,18l6,34H391L214,52L331,33L325,0Z" 
id="f3_28"
transform="scale(0.001,-0.001)" />

<path d="M85,0L199,649l-96,19l6,33H332L218,52L335,33L329,0ZM297,849c0,0,-33,0,-57,24c0,0,-24,24,-24,57c0,0,0,33,24,57c0,0,24,24,57,24c0,0,33,0,57,-24c0,0,24,-24,24,-57c0,0,0,-33,-24,-57c0,0,-24,-24,-57,-24Z" 
id="f3_25"
transform="scale(0.001,-0.001)" />

<path d="M301,78c0,0,85,0,185,104l81,442c0,0,-29,20,-55,28c0,0,-25,8,-62,8c0,0,-75,0,-137,-56c0,0,-62,-56,-98,-152c0,0,-36,-95,-36,-199c0,0,0,-79,33,-127c0,0,33,-48,89,-48ZM245,-14c0,0,-90,0,-145,66c0,0,-54,66,-54,182c0,0,0,131,57,244c0,0,57,114,152,178c0,0,96,64,208,64c0,0,90,0,170,-33l33,26h40L589,52L673,33L667,0H454l22,117C476,117,350,-14,245,-14Z" 
id="f3_1x"
transform="scale(0.001,-0.001)" />

<path d="M608,-14c0,0,-251,0,-392,133C216,119,75,252,75,488c0,0,0,257,134,390c0,0,135,133,398,133c0,0,174,0,361,-50l4,-240H905L884,866c0,0,-98,67,-229,67c0,0,-173,0,-253,-108c0,0,-80,-108,-80,-334c0,0,0,-209,84,-319c0,0,83,-109,243,-109c0,0,84,0,147,22c0,0,63,22,99,53l24,164h68L982,48C982,48,915,22,808,4C808,4,700,-14,608,-14Z" 
id="f0_13"
transform="scale(0.001,-0.001)" />

<path d="M41,0V49l69,18V992l-72,18v50H325V756c0,0,0,-49,-4,-116l51,26c0,0,106,54,190,54c0,0,194,0,194,-207V67L827,49V0H478V49l63,18V484c0,0,0,63,-27,98c0,0,-26,35,-75,35c0,0,-57,0,-114,-25V67L389,49V0Z" 
id="f0_24"
transform="scale(0.001,-0.001)" />

<path d="M30,0V34L352,634H272c0,0,-41,0,-80,-7c0,0,-39,-8,-54,-19L115,492H61V701H606V664L283,67H395c0,0,43,0,90,11c0,0,47,10,66,24l40,162h54L624,0Z" 
id="f0_2m"
transform="scale(0.001,-0.001)" />

<path d="M521,-14c0,0,-205,0,-320,107C201,93,85,200,85,390c0,0,0,185,77,326c0,0,77,142,220,219c0,0,142,76,324,76c0,0,158,0,327,-38L1000,755H951V884c0,0,-46,32,-112,50c0,0,-65,17,-137,17c0,0,-135,0,-242,-72c0,0,-107,-72,-166,-203c0,0,-60,-132,-60,-301c0,0,0,-160,78,-244c0,0,78,-84,222,-84c0,0,85,0,166,25c0,0,82,26,133,65l53,149h49L889,52C889,52,803,20,705,3c0,0,-99,-17,-184,-17Z" 
id="f3_13"
transform="scale(0.001,-0.001)" />

<path d="M228,-14c0,0,-103,0,-209,46L49,200H83L95,99c0,0,20,-21,55,-38c0,0,36,-16,81,-16c0,0,163,0,163,133c0,0,0,44,-35,78c0,0,-34,34,-113,72c0,0,-75,37,-112,81c0,0,-36,45,-36,104c0,0,0,99,66,153c0,0,67,54,184,54c0,0,85,0,200,-26L521,538H486l-11,80c0,0,-47,42,-124,42c0,0,-61,0,-97,-28c0,0,-37,-28,-37,-87c0,0,0,-40,31,-71c0,0,32,-30,119,-75c0,0,78,-40,113,-86c0,0,36,-47,36,-107c0,0,0,-113,-71,-167c0,0,-72,-53,-217,-53Z" 
id="f3_2f"
transform="scale(0.001,-0.001)" />

<path d="M228,-17c0,0,-76,0,-114,40c0,0,-38,41,-38,117c0,0,0,11,4,39c0,0,4,29,80,470L78,667l6,34H293L217,268c0,0,-17,-94,-17,-124c0,0,0,-34,18,-55c0,0,18,-21,57,-21c0,0,55,0,120,47c0,0,65,47,107,115l83,471H709L595,52L683,33L677,0H469l20,144C489,144,427,64,360,23c0,0,-67,-40,-132,-40Z" 
id="f3_2h"
transform="scale(0.001,-0.001)" />

<path d="M62,0L176,649L88,668l6,33H301L278,543c0,0,55,84,124,130c0,0,69,47,138,47c0,0,37,0,59,-6L566,530H534l-28,95c0,0,-60,0,-124,-46c0,0,-63,-45,-116,-120L186,0Z" 
id="f3_2e"
transform="scale(0.001,-0.001)" />

<path d="M54,0L169,649L81,668l6,33H294L274,558c0,0,62,81,130,121c0,0,67,41,132,41c0,0,75,0,113,-41c0,0,38,-41,38,-117c0,0,0,-10,-3,-32c0,0,-3,-21,-81,-478L700,34L695,0H470l76,434c0,0,17,94,17,123c0,0,0,34,-18,55c0,0,-18,21,-56,21c0,0,-56,0,-121,-47c0,0,-65,-47,-108,-117L178,0Z" 
id="f3_2a"
transform="scale(0.001,-0.001)" />

<path d="M900,0V54l135,20V845L658,0H617L248,845V74L382,54V0H26V54L154,74V926L26,945v55H419L705,342l292,658h401V945L1270,926V74L1398,54V0Z" 
id="f0_1d"
transform="scale(0.001,-0.001)" />

<path d="M298,-14c0,0,-120,0,-185,69c0,0,-66,69,-66,191c0,0,0,130,52,237c0,0,52,107,149,172c0,0,97,65,203,65c0,0,53,0,112,-12c0,0,60,-11,99,-27L628,485H587L575,615c0,0,-47,47,-125,47c0,0,-72,0,-134,-53c0,0,-62,-53,-100,-147c0,0,-37,-95,-37,-208c0,0,0,-190,154,-190c0,0,106,0,222,74l22,-32c0,0,-60,-56,-135,-88c0,0,-76,-32,-144,-32Z" 
id="f3_1z"
transform="scale(0.001,-0.001)" />

<path d="M305,45c0,0,76,0,141,56c0,0,64,56,101,151c0,0,37,95,37,200c0,0,0,83,-35,129c0,0,-34,46,-92,46c0,0,-44,0,-96,-29c0,0,-51,-29,-97,-75L185,81c0,0,43,-36,120,-36ZM295,-14c0,0,-65,0,-128,16C167,2,104,19,57,48l171,960l-100,18l6,34H358L303,731c0,0,-13,-85,-29,-144c0,0,59,61,122,97c0,0,64,36,116,36c0,0,94,0,150,-67c0,0,56,-67,56,-182c0,0,0,-129,-56,-242C662,229,606,115,509,50c0,0,-98,-64,-214,-64Z" 
id="f3_1y"
transform="scale(0.001,-0.001)" />

<path d="M435,0V856c0,0,-48,-47,-127,-93c0,0,-79,-46,-142,-69V824c0,0,113,52,197,128c0,0,85,75,120,146h86V0Z" 
id="f4_l"
transform="scale(0.001,-0.001)" />

<path d="M225,0c0,0,2,129,51,312c0,0,48,183,139,352c0,0,91,170,193,286H72v129H780V975C780,975,676,864,573,680C573,680,470,495,414,301C414,301,374,163,363,0Z" 
id="f4_r"
transform="scale(0.001,-0.001)" />


</defs>
</svg>