<?xml version="1.0" encoding="UTF-8" standalone="no"?>
<!DOCTYPE svg PUBLIC "-//W3C//DTD SVG 1.1//EN"
"http://www.w3.org/Graphics/SVG/1.1/DTD/svg11.dtd">
<svg viewBox="0 0 909 1286" version="1.1" xmlns="http://www.w3.org/2000/svg" xmlns:xlink="http://www.w3.org/1999/xlink">
<defs>
<style type="text/css"><![CDATA[
.g0_24{
fill: #FFFFFF;
}
.g1_24{
fill: #1F3331;
}
]]></style>
</defs>
<path fill-rule="evenodd" d="M52.8,400.9H857.2V55H52.8V400.9Z" class="g0_24" />
<path fill-rule="evenodd" d="M52.8,422.1H857.2V400.9H52.8v21.2Z" class="g0_24" />
<g fill="#1F3331" >
<use xlink:href="#f0_16" transform="matrix(12,0,0,12,55,418.1)" />
<use xlink:href="#f0_2b" transform="matrix(12,0,0,12,66,418.1)" />
<use xlink:href="#f0_2e" transform="matrix(12,0,0,12,75.6,418.1)" />
<use xlink:href="#f0_29" transform="matrix(12,0,0,12,83.3,418.1)" />
<use xlink:href="#f0_2f" transform="matrix(12,0,0,12,98.6,418.1)" />
<use xlink:href="#f0_2b" transform="matrix(12,0,0,12,110.3,418.1)" />
<use xlink:href="#f0_22" transform="matrix(12,0,0,12,119.5,418.1)" />
<use xlink:href="#f0_2b" transform="matrix(12,0,0,12,130.1,418.1)" />
<use xlink:href="#f0_2i" transform="matrix(12,0,0,12,139.3,418.1)" />
<use xlink:href="#f0_2h" transform="matrix(12,0,0,12,148.5,418.1)" />
<use xlink:href="#f0_28" transform="matrix(12,0,0,12,158.7,418.1)" />
<use xlink:href="#f0_21" transform="matrix(12,0,0,12,163.5,418.1)" />
</g>
<path fill-rule="evenodd" d="M55,421.8H172v-1.9H55v1.9Z" class="g1_24" />
<path fill-rule="evenodd" d="M80.3,464.3H857.2V443H80.3v21.3Z" class="g0_24" />
<g fill="#1F3331" >
<use xlink:href="#f1_3d" transform="matrix(10.1,0,0,10.1,82.5,460.3)" />
<use xlink:href="#f0_1f" transform="matrix(12,0,0,12,110,460.3)" />
<use xlink:href="#f0_2e" transform="matrix(12,0,0,12,124.3,460.3)" />
<use xlink:href="#f0_2g" transform="matrix(12,0,0,12,132,460.3)" />
<use xlink:href="#f0_24" transform="matrix(12,0,0,12,138.3,460.3)" />
<use xlink:href="#f0_2b" transform="matrix(12,0,0,12,148.5,460.3)" />
<use xlink:href="#f0_2g" transform="matrix(12,0,0,12,157.7,460.3)" />
<use xlink:href="#f0_2e" transform="matrix(12,0,0,12,163.9,460.3)" />
<use xlink:href="#f0_2b" transform="matrix(12,0,0,12,171.6,460.3)" />
<use xlink:href="#f0_2c" transform="matrix(12,0,0,12,180.7,460.3)" />
<use xlink:href="#f0_2b" transform="matrix(12,0,0,12,191,460.3)" />
<use xlink:href="#f0_2h" transform="matrix(12,0,0,12,200.2,460.3)" />
<use xlink:href="#f0_2f" transform="matrix(12,0,0,12,210.4,460.3)" />
<use xlink:href="#f0_c" transform="matrix(12,0,0,12,224.5,460.3)" />
<use xlink:href="#f0_15" transform="matrix(12,0,0,12,230.7,460.3)" />
<use xlink:href="#f0_2e" transform="matrix(12,0,0,12,243.1,460.3)" />
<use xlink:href="#f0_21" transform="matrix(12,0,0,12,250.8,460.3)" />
<use xlink:href="#f0_1z" transform="matrix(12,0,0,12,258.9,460.3)" />
<use xlink:href="#f0_2g" transform="matrix(12,0,0,12,267,460.3)" />
<use xlink:href="#f0_d" transform="matrix(12,0,0,12,273.3,460.3)" />
<use xlink:href="#f0_u" transform="matrix(12,0,0,12,279.5,460.3)" />
<use xlink:href="#f2_4y" transform="matrix(12,0,0,12,292.7,460.3)" />
<use xlink:href="#f3_1k" transform="matrix(12,0,0,12,306.3,460.3)" />
<use xlink:href="#f3_24" transform="matrix(12,0,0,12,317.6,460.3)" />
<use xlink:href="#f3_21" transform="matrix(12,0,0,12,326.4,460.3)" />
<use xlink:href="#f3_1y" transform="matrix(12,0,0,12,341.4,460.3)" />
<use xlink:href="#f3_2b" transform="matrix(12,0,0,12,350.2,460.3)" />
<use xlink:href="#f3_20" transform="matrix(12,0,0,12,359.8,460.3)" />
<use xlink:href="#f3_2l" transform="matrix(12,0,0,12,369.3,460.3)" />
<use xlink:href="#f3_2b" transform="matrix(12,0,0,12,384.6,460.3)" />
<use xlink:href="#f3_22" transform="matrix(12,0,0,12,394.2,460.3)" />
<use xlink:href="#f3_2g" transform="matrix(12,0,0,12,406.6,460.3)" />
<use xlink:href="#f3_24" transform="matrix(12,0,0,12,412.1,460.3)" />
<use xlink:href="#f3_21" transform="matrix(12,0,0,12,420.9,460.3)" />
<use xlink:href="#f3_2b" transform="matrix(12,0,0,12,435.5,460.3)" />
<use xlink:href="#f3_2i" transform="matrix(12,0,0,12,445.1,460.3)" />
<use xlink:href="#f3_2h" transform="matrix(12,0,0,12,453.9,460.3)" />
<use xlink:href="#f3_28" transform="matrix(12,0,0,12,463.4,460.3)" />
<use xlink:href="#f3_21" transform="matrix(12,0,0,12,467.8,460.3)" />
<use xlink:href="#f3_28" transform="matrix(12,0,0,12,482.8,460.3)" />
<use xlink:href="#f3_25" transform="matrix(12,0,0,12,487.9,460.3)" />
<use xlink:href="#f3_21" transform="matrix(12,0,0,12,492.7,460.3)" />
<use xlink:href="#f3_2f" transform="matrix(12,0,0,12,500.8,460.3)" />
<use xlink:href="#f3_2f" transform="matrix(12,0,0,12,514.7,460.3)" />
<use xlink:href="#f3_2g" transform="matrix(12,0,0,12,521.6,460.3)" />
<use xlink:href="#f3_2e" transform="matrix(12,0,0,12,527.1,460.3)" />
<use xlink:href="#f3_1x" transform="matrix(12,0,0,12,533.3,460.3)" />
<use xlink:href="#f3_25" transform="matrix(12,0,0,12,541.7,460.3)" />
<use xlink:href="#f3_23" transform="matrix(12,0,0,12,546.1,460.3)" />
<use xlink:href="#f3_24" transform="matrix(12,0,0,12,555.7,460.3)" />
<use xlink:href="#f3_2g" transform="matrix(12,0,0,12,564.5,460.3)" />
<use xlink:href="#f3_1x" transform="matrix(12,0,0,12,577.3,460.3)" />
<use xlink:href="#f3_2a" transform="matrix(12,0,0,12,585.4,460.3)" />
<use xlink:href="#f3_20" transform="matrix(12,0,0,12,594.2,460.3)" />
<use xlink:href="#f3_20" transform="matrix(12,0,0,12,610.3,460.3)" />
<use xlink:href="#f3_25" transform="matrix(12,0,0,12,619.5,460.3)" />
<use xlink:href="#f3_2e" transform="matrix(12,0,0,12,623.9,460.3)" />
<use xlink:href="#f3_21" transform="matrix(12,0,0,12,630.1,460.3)" />
<use xlink:href="#f3_1z" transform="matrix(12,0,0,12,638.2,460.3)" />
<use xlink:href="#f3_2g" transform="matrix(12,0,0,12,646.2,460.3)" />
<use xlink:href="#f3_28" transform="matrix(12,0,0,12,652.1,460.3)" />
<use xlink:href="#f3_2l" transform="matrix(12,0,0,12,656.9,460.3)" />
<use xlink:href="#f3_2b" transform="matrix(12,0,0,12,672.4,460.3)" />
<use xlink:href="#f3_2i" transform="matrix(12,0,0,12,681.9,460.3)" />
<use xlink:href="#f3_21" transform="matrix(12,0,0,12,690.7,460.3)" />
<use xlink:href="#f3_2e" transform="matrix(12,0,0,12,698.7,460.3)" />
<use xlink:href="#f3_2g" transform="matrix(12,0,0,12,711.9,460.3)" />
<use xlink:href="#f3_24" transform="matrix(12,0,0,12,717.4,460.3)" />
<use xlink:href="#f3_21" transform="matrix(12,0,0,12,726.2,460.3)" />
<use xlink:href="#f3_22" transform="matrix(12,0,0,12,741.2,460.3)" />
<use xlink:href="#f3_2h" transform="matrix(12,0,0,12,746.7,460.3)" />
<use xlink:href="#f3_2a" transform="matrix(12,0,0,12,756.2,460.3)" />
<use xlink:href="#f3_25" transform="matrix(12,0,0,12,765.4,460.3)" />
<use xlink:href="#f3_1z" transform="matrix(12,0,0,12,770.1,460.3)" />
<use xlink:href="#f3_28" transform="matrix(12,0,0,12,778.6,460.3)" />
<use xlink:href="#f3_21" transform="matrix(12,0,0,12,783.3,460.3)" />
<use xlink:href="#f3_i" transform="matrix(12,0,0,12,791.4,460.3)" />
<use xlink:href="#f3_18" transform="matrix(12,0,0,12,803.1,460.3)" />
<use xlink:href="#f3_25" transform="matrix(12,0,0,12,816.6,460.3)" />
<use xlink:href="#f3_28" transform="matrix(12,0,0,12,821.4,460.3)" />
<use xlink:href="#f3_2h" transform="matrix(12,0,0,12,826.2,460.3)" />
<use xlink:href="#f3_29" transform="matrix(12,0,0,12,835.7,460.3)" />
<use xlink:href="#f3_g" transform="matrix(12,0,0,12,849.3,460.3)" />
</g>
<path fill-rule="evenodd" d="M110,463.9H285.7v-1.8H110v1.8Z" class="g1_24" />
<path fill-rule="evenodd" d="M80.3,485.6H857.2V464.3H80.3v21.3Z" class="g0_24" />
<g fill="#1F3331" >
<use xlink:href="#f3_1z" transform="matrix(12,0,0,12,110,481.6)" />
<use xlink:href="#f3_24" transform="matrix(12,0,0,12,118.1,481.6)" />
<use xlink:href="#f3_1x" transform="matrix(12,0,0,12,126.9,481.6)" />
<use xlink:href="#f3_28" transform="matrix(12,0,0,12,135.3,481.6)" />
<use xlink:href="#f3_1x" transform="matrix(12,0,0,12,140.1,481.6)" />
<use xlink:href="#f3_2m" transform="matrix(12,0,0,12,148.5,481.6)" />
<use xlink:href="#f3_1x" transform="matrix(12,0,0,12,156.6,481.6)" />
<use xlink:href="#f3_1x" transform="matrix(12,0,0,12,169.4,481.6)" />
<use xlink:href="#f3_2a" transform="matrix(12,0,0,12,177.8,481.6)" />
<use xlink:href="#f3_20" transform="matrix(12,0,0,12,186.6,481.6)" />
<use xlink:href="#f3_29" transform="matrix(12,0,0,12,200.9,481.6)" />
<use xlink:href="#f3_25" transform="matrix(12,0,0,12,214.8,481.6)" />
<use xlink:href="#f3_1z" transform="matrix(12,0,0,12,219.6,481.6)" />
<use xlink:href="#f3_2e" transform="matrix(12,0,0,12,227.6,481.6)" />
<use xlink:href="#f3_2b" transform="matrix(12,0,0,12,233.9,481.6)" />
<use xlink:href="#f3_2c" transform="matrix(12,0,0,12,243.4,481.6)" />
<use xlink:href="#f3_2l" transform="matrix(12,0,0,12,252.9,481.6)" />
<use xlink:href="#f3_28" transform="matrix(12,0,0,12,261.7,481.6)" />
<use xlink:href="#f3_21" transform="matrix(12,0,0,12,266.5,481.6)" />
<use xlink:href="#f3_28" transform="matrix(12,0,0,12,279.9,481.6)" />
<use xlink:href="#f3_25" transform="matrix(12,0,0,12,284.6,481.6)" />
<use xlink:href="#f3_21" transform="matrix(12,0,0,12,289.4,481.6)" />
<use xlink:href="#f3_2b" transform="matrix(12,0,0,12,302.2,481.6)" />
<use xlink:href="#f3_2a" transform="matrix(12,0,0,12,311.8,481.6)" />
<use xlink:href="#f3_2g" transform="matrix(12,0,0,12,325.3,481.6)" />
<use xlink:href="#f3_24" transform="matrix(12,0,0,12,330.8,481.6)" />
<use xlink:href="#f3_21" transform="matrix(12,0,0,12,339.6,481.6)" />
<use xlink:href="#f3_2f" transform="matrix(12,0,0,12,352.4,481.6)" />
<use xlink:href="#f3_1x" transform="matrix(12,0,0,12,359.4,481.6)" />
<use xlink:href="#f3_29" transform="matrix(12,0,0,12,367.8,481.6)" />
<use xlink:href="#f3_21" transform="matrix(12,0,0,12,381.3,481.6)" />
<use xlink:href="#f3_28" transform="matrix(12,0,0,12,394.5,481.6)" />
<use xlink:href="#f3_25" transform="matrix(12,0,0,12,399.6,481.6)" />
<use xlink:href="#f3_2a" transform="matrix(12,0,0,12,404.4,481.6)" />
<use xlink:href="#f3_21" transform="matrix(12,0,0,12,413.6,481.6)" />
<use xlink:href="#f3_i" transform="matrix(12,0,0,12,421.7,481.6)" />
<use xlink:href="#f3_15" transform="matrix(12,0,0,12,431.2,481.6)" />
<use xlink:href="#f3_i" transform="matrix(12,0,0,12,442.5,481.6)" />
<use xlink:href="#f3_23" transform="matrix(12,0,0,12,447.3,481.6)" />
<use xlink:href="#f3_i" transform="matrix(12,0,0,12,456.1,481.6)" />
<use xlink:href="#f4_1g" transform="matrix(12,0,0,12,465.9,481.6)" />
<use xlink:href="#f4_2b" transform="matrix(12,0,0,12,476.5,481.6)" />
<use xlink:href="#f4_28" transform="matrix(12,0,0,12,485.6,481.6)" />
<use xlink:href="#f4_2l" transform="matrix(12,0,0,12,490.7,481.6)" />
<use xlink:href="#f4_23" transform="matrix(12,0,0,12,498.9,481.6)" />
<use xlink:href="#f4_2b" transform="matrix(12,0,0,12,508.1,481.6)" />
<use xlink:href="#f4_2a" transform="matrix(12,0,0,12,517.2,481.6)" />
<use xlink:href="#f4_2h" transform="matrix(12,0,0,12,526.4,481.6)" />
<use xlink:href="#f4_29" transform="matrix(12,0,0,12,535.6,481.6)" />
<use xlink:href="#f3_i" transform="matrix(12,0,0,12,548.7,481.6)" />
</g>
<path fill-rule="evenodd" d="M52.8,832.5H857.2V506.9H52.8V832.5Z" class="g0_24" />
<path fill-rule="evenodd" d="M80.3,874.7H857.2V853.4H80.3v21.3Z" class="g0_24" />
<g fill="#1F3331" >
<use xlink:href="#f1_3d" transform="matrix(10.1,0,0,10.1,82.5,870.7)" />
<use xlink:href="#f0_11" transform="matrix(12,0,0,12,110,870.7)" />
<use xlink:href="#f0_2a" transform="matrix(12,0,0,12,123.3,870.7)" />
<use xlink:href="#f0_1x" transform="matrix(12,0,0,12,133.5,870.7)" />
<use xlink:href="#f0_2g" transform="matrix(12,0,0,12,142.6,870.7)" />
<use xlink:href="#f0_2e" transform="matrix(12,0,0,12,148.9,870.7)" />
<use xlink:href="#f0_2b" transform="matrix(12,0,0,12,156.6,870.7)" />
<use xlink:href="#f0_2c" transform="matrix(12,0,0,12,165.8,870.7)" />
<use xlink:href="#f0_2b" transform="matrix(12,0,0,12,176,870.7)" />
<use xlink:href="#f0_2h" transform="matrix(12,0,0,12,185.2,870.7)" />
<use xlink:href="#f0_2f" transform="matrix(12,0,0,12,195.4,870.7)" />
<use xlink:href="#f0_c" transform="matrix(12,0,0,12,206.1,870.7)" />
<use xlink:href="#f0_19" transform="matrix(12,0,0,12,212.4,870.7)" />
<use xlink:href="#f0_2a" transform="matrix(12,0,0,12,219.3,870.7)" />
<use xlink:href="#f0_2i" transform="matrix(12,0,0,12,229.6,870.7)" />
<use xlink:href="#f0_21" transform="matrix(12,0,0,12,238.7,870.7)" />
<use xlink:href="#f0_2e" transform="matrix(12,0,0,12,247.2,870.7)" />
<use xlink:href="#f0_2g" transform="matrix(12,0,0,12,254.9,870.7)" />
<use xlink:href="#f0_21" transform="matrix(12,0,0,12,261.1,870.7)" />
<use xlink:href="#f0_20" transform="matrix(12,0,0,12,269.1,870.7)" />
<use xlink:href="#f5_d" transform="matrix(12,0,0,12,279.5,870.7)" />
<use xlink:href="#f0_u" transform="matrix(12,0,0,12,285.7,870.7)" />
<use xlink:href="#f3_h" transform="matrix(12,0,0,12,292,870.7)" />
<use xlink:href="#f3_1k" transform="matrix(12,0,0,12,301.5,870.7)" />
<use xlink:href="#f3_24" transform="matrix(12,0,0,12,312.9,870.7)" />
<use xlink:href="#f3_21" transform="matrix(12,0,0,12,321.7,870.7)" />
<use xlink:href="#f3_1y" transform="matrix(12,0,0,12,333.4,870.7)" />
<use xlink:href="#f3_2b" transform="matrix(12,0,0,12,342.2,870.7)" />
<use xlink:href="#f3_20" transform="matrix(12,0,0,12,351.7,870.7)" />
<use xlink:href="#f3_2l" transform="matrix(12,0,0,12,361.2,870.7)" />
<use xlink:href="#f3_2b" transform="matrix(12,0,0,12,373.3,870.7)" />
<use xlink:href="#f3_22" transform="matrix(12,0,0,12,382.8,870.7)" />
<use xlink:href="#f3_2b" transform="matrix(12,0,0,12,392,870.7)" />
<use xlink:href="#f3_2i" transform="matrix(12,0,0,12,401.5,870.7)" />
<use xlink:href="#f3_2h" transform="matrix(12,0,0,12,410.3,870.7)" />
<use xlink:href="#f3_28" transform="matrix(12,0,0,12,419.8,870.7)" />
<use xlink:href="#f3_21" transform="matrix(12,0,0,12,424.6,870.7)" />
<use xlink:href="#f3_25" transform="matrix(12,0,0,12,436.7,870.7)" />
<use xlink:href="#f3_2f" transform="matrix(12,0,0,12,441.5,870.7)" />
<use xlink:href="#f3_25" transform="matrix(12,0,0,12,452.5,870.7)" />
<use xlink:href="#f3_2a" transform="matrix(12,0,0,12,457.2,870.7)" />
<use xlink:href="#f3_2i" transform="matrix(12,0,0,12,466.4,870.7)" />
<use xlink:href="#f3_21" transform="matrix(12,0,0,12,475.6,870.7)" />
<use xlink:href="#f3_2e" transform="matrix(12,0,0,12,484,870.7)" />
<use xlink:href="#f3_2g" transform="matrix(12,0,0,12,490.2,870.7)" />
<use xlink:href="#f3_21" transform="matrix(12,0,0,12,495.7,870.7)" />
<use xlink:href="#f3_20" transform="matrix(12,0,0,12,503.7,870.7)" />
<use xlink:href="#f3_i" transform="matrix(12,0,0,12,512.8,870.7)" />
<use xlink:href="#f3_1k" transform="matrix(12,0,0,12,520.9,870.7)" />
<use xlink:href="#f3_24" transform="matrix(12,0,0,12,532.2,870.7)" />
<use xlink:href="#f3_21" transform="matrix(12,0,0,12,541,870.7)" />
<use xlink:href="#f3_2b" transform="matrix(12,0,0,12,552.7,870.7)" />
<use xlink:href="#f3_2i" transform="matrix(12,0,0,12,562.3,870.7)" />
<use xlink:href="#f3_2h" transform="matrix(12,0,0,12,571.1,870.7)" />
<use xlink:href="#f3_28" transform="matrix(12,0,0,12,580.6,870.7)" />
<use xlink:href="#f3_21" transform="matrix(12,0,0,12,585,870.7)" />
<use xlink:href="#f3_25" transform="matrix(12,0,0,12,597.1,870.7)" />
<use xlink:href="#f3_2f" transform="matrix(12,0,0,12,601.8,870.7)" />
<use xlink:href="#f3_22" transform="matrix(12,0,0,12,613,870.7)" />
<use xlink:href="#f3_2h" transform="matrix(12,0,0,12,618.5,870.7)" />
<use xlink:href="#f3_2f" transform="matrix(12,0,0,12,628,870.7)" />
<use xlink:href="#f3_21" transform="matrix(12,0,0,12,634.9,870.7)" />
<use xlink:href="#f3_20" transform="matrix(12,0,0,12,643,870.7)" />
<use xlink:href="#f3_2j" transform="matrix(12,0,0,12,655.8,870.7)" />
<use xlink:href="#f3_25" transform="matrix(12,0,0,12,669.4,870.7)" />
<use xlink:href="#f3_2g" transform="matrix(12,0,0,12,673.8,870.7)" />
<use xlink:href="#f3_24" transform="matrix(12,0,0,12,679.3,870.7)" />
<use xlink:href="#f3_2g" transform="matrix(12,0,0,12,691.8,870.7)" />
<use xlink:href="#f3_24" transform="matrix(12,0,0,12,697.3,870.7)" />
<use xlink:href="#f3_21" transform="matrix(12,0,0,12,706.1,870.7)" />
<use xlink:href="#f3_22" transform="matrix(12,0,0,12,718.2,870.7)" />
<use xlink:href="#f3_2h" transform="matrix(12,0,0,12,723.7,870.7)" />
<use xlink:href="#f3_2a" transform="matrix(12,0,0,12,733.2,870.7)" />
<use xlink:href="#f3_25" transform="matrix(12,0,0,12,742.4,870.7)" />
<use xlink:href="#f3_1z" transform="matrix(12,0,0,12,747.2,870.7)" />
<use xlink:href="#f3_28" transform="matrix(12,0,0,12,755.6,870.7)" />
<use xlink:href="#f3_21" transform="matrix(12,0,0,12,760.4,870.7)" />
<use xlink:href="#f3_i" transform="matrix(12,0,0,12,768.5,870.7)" />
<use xlink:href="#f3_1k" transform="matrix(12,0,0,12,776.9,870.7)" />
<use xlink:href="#f3_24" transform="matrix(12,0,0,12,788.2,870.7)" />
<use xlink:href="#f3_21" transform="matrix(12,0,0,12,797,870.7)" />
<use xlink:href="#f3_22" transform="matrix(12,0,0,12,809.1,870.7)" />
<use xlink:href="#f3_2h" transform="matrix(12,0,0,12,814.6,870.7)" />
<use xlink:href="#f3_2f" transform="matrix(12,0,0,12,824.1,870.7)" />
<use xlink:href="#f3_25" transform="matrix(12,0,0,12,831.5,870.7)" />
<use xlink:href="#f3_2b" transform="matrix(12,0,0,12,835.9,870.7)" />
<use xlink:href="#f3_2a" transform="matrix(12,0,0,12,845.7,870.7)" />
</g>
<path fill-rule="evenodd" d="M110,874.3H298.2v-1.8H110v1.8Z" class="g1_24" />
<path fill-rule="evenodd" d="M80.3,896H857.2V874.7H80.3V896Z" class="g0_24" />
<g fill="#1F3331" >
<use xlink:href="#f3_2b" transform="matrix(12,0,0,12,110,891.6)" />
<use xlink:href="#f3_22" transform="matrix(12,0,0,12,119.6,891.6)" />
<use xlink:href="#f3_2g" transform="matrix(12,0,0,12,129.8,891.6)" />
<use xlink:href="#f3_24" transform="matrix(12,0,0,12,135.3,891.6)" />
<use xlink:href="#f3_21" transform="matrix(12,0,0,12,144.1,891.6)" />
<use xlink:href="#f3_2b" transform="matrix(12,0,0,12,156.9,891.6)" />
<use xlink:href="#f3_2i" transform="matrix(12,0,0,12,166.4,891.6)" />
<use xlink:href="#f3_2h" transform="matrix(12,0,0,12,175.2,891.6)" />
<use xlink:href="#f3_28" transform="matrix(12,0,0,12,184.7,891.6)" />
<use xlink:href="#f3_21" transform="matrix(12,0,0,12,189.1,891.6)" />
<use xlink:href="#f3_2j" transform="matrix(12,0,0,12,201.9,891.6)" />
<use xlink:href="#f3_25" transform="matrix(12,0,0,12,215.5,891.6)" />
<use xlink:href="#f3_2g" transform="matrix(12,0,0,12,219.9,891.6)" />
<use xlink:href="#f3_24" transform="matrix(12,0,0,12,225.4,891.6)" />
<use xlink:href="#f3_2g" transform="matrix(12,0,0,12,238.9,891.6)" />
<use xlink:href="#f3_24" transform="matrix(12,0,0,12,244.4,891.6)" />
<use xlink:href="#f3_21" transform="matrix(12,0,0,12,253.2,891.6)" />
<use xlink:href="#f3_22" transform="matrix(12,0,0,12,266.4,891.6)" />
<use xlink:href="#f3_2h" transform="matrix(12,0,0,12,271.9,891.6)" />
<use xlink:href="#f3_2a" transform="matrix(12,0,0,12,281.4,891.6)" />
<use xlink:href="#f3_25" transform="matrix(12,0,0,12,290.6,891.6)" />
<use xlink:href="#f3_1z" transform="matrix(12,0,0,12,295.3,891.6)" />
<use xlink:href="#f3_28" transform="matrix(12,0,0,12,303.7,891.6)" />
<use xlink:href="#f3_21" transform="matrix(12,0,0,12,308.5,891.6)" />
<use xlink:href="#f3_22" transform="matrix(12,0,0,12,322.1,891.6)" />
<use xlink:href="#f3_2b" transform="matrix(12,0,0,12,327.6,891.6)" />
<use xlink:href="#f3_2e" transform="matrix(12,0,0,12,337.1,891.6)" />
<use xlink:href="#f3_29" transform="matrix(12,0,0,12,343.7,891.6)" />
<use xlink:href="#f3_2f" transform="matrix(12,0,0,12,357.2,891.6)" />
<use xlink:href="#f3_1x" transform="matrix(12,0,0,12,369,891.6)" />
<use xlink:href="#f3_2e" transform="matrix(12,0,0,12,381.9,891.6)" />
<use xlink:href="#f3_25" transform="matrix(12,0,0,12,388.4,891.6)" />
<use xlink:href="#f3_20" transform="matrix(12,0,0,12,392.8,891.6)" />
<use xlink:href="#f3_23" transform="matrix(12,0,0,12,402,891.6)" />
<use xlink:href="#f3_21" transform="matrix(12,0,0,12,411.2,891.6)" />
<use xlink:href="#f3_1z" transform="matrix(12,0,0,12,424,891.6)" />
<use xlink:href="#f3_1x" transform="matrix(12,0,0,12,432,891.6)" />
<use xlink:href="#f3_28" transform="matrix(12,0,0,12,440.5,891.6)" />
<use xlink:href="#f3_28" transform="matrix(12,0,0,12,445.6,891.6)" />
<use xlink:href="#f3_21" transform="matrix(12,0,0,12,450.4,891.6)" />
<use xlink:href="#f3_20" transform="matrix(12,0,0,12,458.4,891.6)" />
<use xlink:href="#f3_2e" transform="matrix(12,0,0,12,472.3,891.6)" />
<use xlink:href="#f3_1x" transform="matrix(12,0,0,12,478.6,891.6)" />
<use xlink:href="#f3_2c" transform="matrix(12,0,0,12,486.6,891.6)" />
<use xlink:href="#f3_24" transform="matrix(12,0,0,12,495.8,891.6)" />
<use xlink:href="#f3_21" transform="matrix(12,0,0,12,504.6,891.6)" />
<use xlink:href="#f3_i" transform="matrix(12,0,0,12,512.7,891.6)" />
<use xlink:href="#f3_18" transform="matrix(12,0,0,12,522.2,891.6)" />
<use xlink:href="#f3_25" transform="matrix(12,0,0,12,535.7,891.6)" />
<use xlink:href="#f3_28" transform="matrix(12,0,0,12,540.5,891.6)" />
<use xlink:href="#f3_2h" transform="matrix(12,0,0,12,545.2,891.6)" />
<use xlink:href="#f3_29" transform="matrix(12,0,0,12,554.8,891.6)" />
<use xlink:href="#f3_1x" transform="matrix(12,0,0,12,573.4,891.6)" />
<use xlink:href="#f3_2a" transform="matrix(12,0,0,12,581.9,891.6)" />
<use xlink:href="#f3_20" transform="matrix(12,0,0,12,590.7,891.6)" />
<use xlink:href="#f3_29" transform="matrix(12,0,0,12,604.9,891.6)" />
<use xlink:href="#f3_25" transform="matrix(12,0,0,12,618.9,891.6)" />
<use xlink:href="#f3_1z" transform="matrix(12,0,0,12,623.6,891.6)" />
<use xlink:href="#f3_2e" transform="matrix(12,0,0,12,631.7,891.6)" />
<use xlink:href="#f3_2b" transform="matrix(12,0,0,12,637.9,891.6)" />
<use xlink:href="#f3_2c" transform="matrix(12,0,0,12,647.4,891.6)" />
<use xlink:href="#f3_2l" transform="matrix(12,0,0,12,656.9,891.6)" />
<use xlink:href="#f3_28" transform="matrix(12,0,0,12,665.7,891.6)" />
<use xlink:href="#f3_21" transform="matrix(12,0,0,12,670.5,891.6)" />
<use xlink:href="#f3_1x" transform="matrix(12,0,0,12,683.3,891.6)" />
<use xlink:href="#f3_2e" transform="matrix(12,0,0,12,691.4,891.6)" />
<use xlink:href="#f3_21" transform="matrix(12,0,0,12,697.6,891.6)" />
<use xlink:href="#f3_1z" transform="matrix(12,0,0,12,710.9,891.6)" />
<use xlink:href="#f3_28" transform="matrix(12,0,0,12,719.3,891.6)" />
<use xlink:href="#f3_2b" transform="matrix(12,0,0,12,723.7,891.6)" />
<use xlink:href="#f3_2f" transform="matrix(12,0,0,12,733.2,891.6)" />
<use xlink:href="#f3_21" transform="matrix(12,0,0,12,740.2,891.6)" />
<use xlink:href="#f3_2g" transform="matrix(12,0,0,12,753.1,891.6)" />
<use xlink:href="#f3_2b" transform="matrix(12,0,0,12,758.2,891.6)" />
<use xlink:href="#f3_2g" transform="matrix(12,0,0,12,772.1,891.6)" />
<use xlink:href="#f3_24" transform="matrix(12,0,0,12,777.6,891.6)" />
<use xlink:href="#f3_21" transform="matrix(12,0,0,12,786.4,891.6)" />
<use xlink:href="#f3_22" transform="matrix(12,0,0,12,799.2,891.6)" />
<use xlink:href="#f3_2h" transform="matrix(12,0,0,12,804.7,891.6)" />
<use xlink:href="#f3_2a" transform="matrix(12,0,0,12,814.2,891.6)" />
<use xlink:href="#f3_25" transform="matrix(12,0,0,12,823.4,891.6)" />
<use xlink:href="#f3_1z" transform="matrix(12,0,0,12,828.2,891.6)" />
<use xlink:href="#f3_28" transform="matrix(12,0,0,12,836.6,891.6)" />
<use xlink:href="#f3_21" transform="matrix(12,0,0,12,841.3,891.6)" />
<use xlink:href="#f3_i" transform="matrix(12,0,0,12,849.9,891.6)" />
</g>
<path fill-rule="evenodd" d="M80.3,916.9H857.2V896H80.3v20.9Z" class="g0_24" />
<g fill="#1F3331" >
<use xlink:href="#f3_1k" transform="matrix(12,0,0,12,110,912.9)" />
<use xlink:href="#f3_24" transform="matrix(12,0,0,12,121.4,912.9)" />
<use xlink:href="#f3_21" transform="matrix(12,0,0,12,130.2,912.9)" />
<use xlink:href="#f3_1z" transform="matrix(12,0,0,12,146,912.9)" />
<use xlink:href="#f3_24" transform="matrix(12,0,0,12,154.4,912.9)" />
<use xlink:href="#f3_1x" transform="matrix(12,0,0,12,163.2,912.9)" />
<use xlink:href="#f3_28" transform="matrix(12,0,0,12,171.6,912.9)" />
<use xlink:href="#f3_1x" transform="matrix(12,0,0,12,176.4,912.9)" />
<use xlink:href="#f3_2m" transform="matrix(12,0,0,12,184.5,912.9)" />
<use xlink:href="#f3_1x" transform="matrix(12,0,0,12,192.5,912.9)" />
<use xlink:href="#f3_25" transform="matrix(12,0,0,12,208.7,912.9)" />
<use xlink:href="#f3_2f" transform="matrix(12,0,0,12,213.5,912.9)" />
<use xlink:href="#f3_2b" transform="matrix(12,0,0,12,228.1,912.9)" />
<use xlink:href="#f3_2a" transform="matrix(12,0,0,12,237.6,912.9)" />
<use xlink:href="#f3_2g" transform="matrix(12,0,0,12,254.1,912.9)" />
<use xlink:href="#f3_24" transform="matrix(12,0,0,12,259.6,912.9)" />
<use xlink:href="#f3_21" transform="matrix(12,0,0,12,268.4,912.9)" />
<use xlink:href="#f3_21" transform="matrix(12,0,0,12,284.2,912.9)" />
<use xlink:href="#f3_2a" transform="matrix(12,0,0,12,292.6,912.9)" />
<use xlink:href="#f3_20" transform="matrix(12,0,0,12,301.4,912.9)" />
<use xlink:href="#f3_2b" transform="matrix(12,0,0,12,318.4,912.9)" />
<use xlink:href="#f3_2c" transform="matrix(12,0,0,12,327.9,912.9)" />
<use xlink:href="#f3_2c" transform="matrix(12,0,0,12,337.1,912.9)" />
<use xlink:href="#f3_2b" transform="matrix(12,0,0,12,345.9,912.9)" />
<use xlink:href="#f3_2f" transform="matrix(12,0,0,12,355.4,912.9)" />
<use xlink:href="#f3_25" transform="matrix(12,0,0,12,362.7,912.9)" />
<use xlink:href="#f3_2g" transform="matrix(12,0,0,12,367.1,912.9)" />
<use xlink:href="#f3_21" transform="matrix(12,0,0,12,372.6,912.9)" />
<use xlink:href="#f3_2g" transform="matrix(12,0,0,12,388.1,912.9)" />
<use xlink:href="#f3_2b" transform="matrix(12,0,0,12,393.2,912.9)" />
<use xlink:href="#f3_2g" transform="matrix(12,0,0,12,410,912.9)" />
<use xlink:href="#f3_24" transform="matrix(12,0,0,12,415.5,912.9)" />
<use xlink:href="#f3_21" transform="matrix(12,0,0,12,424.3,912.9)" />
<use xlink:href="#f3_29" transform="matrix(12,0,0,12,440.4,912.9)" />
<use xlink:href="#f3_25" transform="matrix(12,0,0,12,454.4,912.9)" />
<use xlink:href="#f3_1z" transform="matrix(12,0,0,12,459.1,912.9)" />
<use xlink:href="#f3_2e" transform="matrix(12,0,0,12,467.2,912.9)" />
<use xlink:href="#f3_2b" transform="matrix(12,0,0,12,473.4,912.9)" />
<use xlink:href="#f3_2c" transform="matrix(12,0,0,12,482.6,912.9)" />
<use xlink:href="#f3_2l" transform="matrix(12,0,0,12,492.1,912.9)" />
<use xlink:href="#f3_28" transform="matrix(12,0,0,12,500.9,912.9)" />
<use xlink:href="#f3_21" transform="matrix(12,0,0,12,505.7,912.9)" />
<use xlink:href="#f3_i" transform="matrix(12,0,0,12,513.9,912.9)" />
<use xlink:href="#f3_19" transform="matrix(12,0,0,12,526.3,912.9)" />
<use xlink:href="#f3_2g" transform="matrix(12,0,0,12,532.6,912.9)" />
<use xlink:href="#f3_25" transform="matrix(12,0,0,12,545.7,912.9)" />
<use xlink:href="#f3_2f" transform="matrix(12,0,0,12,550.1,912.9)" />
<use xlink:href="#f3_2g" transform="matrix(12,0,0,12,564.8,912.9)" />
<use xlink:href="#f3_24" transform="matrix(12,0,0,12,570.3,912.9)" />
<use xlink:href="#f3_21" transform="matrix(12,0,0,12,579.1,912.9)" />
<use xlink:href="#f3_29" transform="matrix(12,0,0,12,595.2,912.9)" />
<use xlink:href="#f3_2b" transform="matrix(12,0,0,12,608.7,912.9)" />
<use xlink:href="#f3_2f" transform="matrix(12,0,0,12,618.2,912.9)" />
<use xlink:href="#f3_2g" transform="matrix(12,0,0,12,625.2,912.9)" />
<use xlink:href="#f3_1z" transform="matrix(12,0,0,12,638.4,912.9)" />
<use xlink:href="#f3_2b" transform="matrix(12,0,0,12,646.1,912.9)" />
<use xlink:href="#f3_29" transform="matrix(12,0,0,12,655.6,912.9)" />
<use xlink:href="#f3_29" transform="matrix(12,0,0,12,669.5,912.9)" />
<use xlink:href="#f3_2b" transform="matrix(12,0,0,12,683.1,912.9)" />
<use xlink:href="#f3_2a" transform="matrix(12,0,0,12,693,912.9)" />
<use xlink:href="#f3_2g" transform="matrix(12,0,0,12,709.5,912.9)" />
<use xlink:href="#f3_2l" transform="matrix(12,0,0,12,715.3,912.9)" />
<use xlink:href="#f3_2c" transform="matrix(12,0,0,12,723.7,912.9)" />
<use xlink:href="#f3_21" transform="matrix(12,0,0,12,732.9,912.9)" />
<use xlink:href="#f3_2b" transform="matrix(12,0,0,12,748.7,912.9)" />
<use xlink:href="#f3_22" transform="matrix(12,0,0,12,758.2,912.9)" />
<use xlink:href="#f3_2b" transform="matrix(12,0,0,12,771.4,912.9)" />
<use xlink:href="#f3_2i" transform="matrix(12,0,0,12,780.9,912.9)" />
<use xlink:href="#f3_2h" transform="matrix(12,0,0,12,789.7,912.9)" />
<use xlink:href="#f3_28" transform="matrix(12,0,0,12,799.2,912.9)" />
<use xlink:href="#f3_21" transform="matrix(12,0,0,12,803.9,912.9)" />
<use xlink:href="#f3_i" transform="matrix(12,0,0,12,812,912.9)" />
<use xlink:href="#f3_15" transform="matrix(12,0,0,12,824.4,912.9)" />
<use xlink:href="#f3_i" transform="matrix(12,0,0,12,835.8,912.9)" />
<use xlink:href="#f3_23" transform="matrix(12,0,0,12,840.5,912.9)" />
<use xlink:href="#f3_i" transform="matrix(12,0,0,12,849.7,912.9)" />
</g>
<path fill-rule="evenodd" d="M80.3,959.5H857.2V916.9H80.3v42.6Z" class="g0_24" />
<g fill="#1F3331" >
<use xlink:href="#f4_1i" transform="matrix(12,0,0,12,110,934.2)" />
<use xlink:href="#f4_1x" transform="matrix(12,0,0,12,121.4,934.2)" />
<use xlink:href="#f4_2a" transform="matrix(12,0,0,12,130.6,934.2)" />
<use xlink:href="#f4_2h" transform="matrix(12,0,0,12,139.7,934.2)" />
<use xlink:href="#f4_2a" transform="matrix(12,0,0,12,148.9,934.2)" />
<use xlink:href="#f4_1z" transform="matrix(12,0,0,12,158.1,934.2)" />
<use xlink:href="#f4_2h" transform="matrix(12,0,0,12,166.1,934.2)" />
<use xlink:href="#f4_28" transform="matrix(12,0,0,12,175.3,934.2)" />
<use xlink:href="#f4_2h" transform="matrix(12,0,0,12,180.4,934.2)" />
<use xlink:href="#f4_2f" transform="matrix(12,0,0,12,189.5,934.2)" />
</g>
<image preserveAspectRatio="none" x="57" y="55" width="404" height="331" xlink:href="img/1.png" />
<image preserveAspectRatio="none" x="287" y="507" width="336" height="325" xlink:href="img/2.png" />
<g fill="#000000" >
<use xlink:href="#f6_t" transform="matrix(8,0,0,8,792.9,1264.1)" />
</g>
<defs>
<path d="M36,0V54L154,74V926L26,945v55H860V731H790L766,908c0,0,-36,5,-121,8c0,0,-84,2,-133,2H389V508H633l23,127h67V298H656L633,426H389V74L556,54V0Z" 
id="f0_16"
transform="scale(0.001,-0.001)" />

<path d="M379,60c0,0,59,0,84,64c0,0,24,65,24,231c0,0,0,164,-24,227c0,0,-24,63,-84,63c0,0,-57,0,-80,-60c0,0,-22,-61,-22,-230c0,0,0,-173,23,-234c0,0,22,-61,79,-61Zm-2,-74c0,0,-161,0,-240,91c0,0,-79,91,-79,277c0,0,0,186,80,276c0,0,81,90,245,90c0,0,167,0,245,-93c0,0,78,-93,78,-273c0,0,0,-188,-81,-278c0,0,-81,-90,-248,-90Z" 
id="f0_2b"
transform="scale(0.001,-0.001)" />

<path d="M41,0V49l91,18V634L41,652v49H336l8,-145c0,0,80,89,144,128c0,0,64,40,117,40h40V468H604l-45,94c0,0,-47,0,-106,-21c0,0,-60,-20,-105,-48V67L460,49V0Z" 
id="f0_2e"
transform="scale(0.001,-0.001)" />

<path d="M41,0V49l69,18V634L41,652v49H313l11,-61l50,26c0,0,105,54,188,54c0,0,125,0,167,-91c0,0,153,91,258,91c0,0,189,0,189,-207V67l71,-17V0H898V50l63,17V484c0,0,0,63,-24,98c0,0,-25,35,-74,35c0,0,-55,0,-119,-31c0,0,7,-32,7,-73V67L821,50V0H473V50l63,17V484c0,0,0,63,-25,98c0,0,-24,35,-73,35c0,0,-49,0,-113,-29V67L389,49V0Z" 
id="f0_29"
transform="scale(0.001,-0.001)" />

<path d="M276,-14c0,0,-57,0,-125,13C151,-1,83,10,48,23V214H97l28,-98c0,0,26,-26,69,-44c0,0,42,-17,86,-17c0,0,65,0,97,28c0,0,32,28,32,71c0,0,0,41,-31,65c0,0,-30,25,-133,57c0,0,-108,34,-154,92c0,0,-45,58,-45,143c0,0,0,95,71,152c0,0,71,57,183,57c0,0,77,0,207,-22V518H457l-24,82c0,0,-21,22,-60,35c0,0,-40,14,-75,14c0,0,-53,0,-79,-22c0,0,-26,-22,-26,-59c0,0,0,-40,32,-65c0,0,32,-26,132,-55c0,0,109,-34,155,-89c0,0,45,-55,45,-137c0,0,0,-117,-72,-177c0,0,-72,-59,-209,-59Z" 
id="f0_2f"
transform="scale(0.001,-0.001)" />

<path d="M41,0V49l76,18V624H11v51l106,29v75c0,0,0,144,73,220c0,0,73,77,210,77c0,0,74,0,124,-15V894H476l-22,81c0,0,-18,17,-47,17c0,0,-74,0,-74,-189V701H475V624H333V67L447,49V0Z" 
id="f0_22"
transform="scale(0.001,-0.001)" />

<path d="M342,-14L49,634L0,652v49H359V652L275,632L455,233L617,634l-82,18v49H764V652L713,637L433,-14Z" 
id="f0_2i"
transform="scale(0.001,-0.001)" />

<path d="M287,-18c0,0,-194,0,-194,206V634L23,652v49H309V217c0,0,0,-63,26,-98c0,0,27,-35,76,-35c0,0,57,0,113,25V634l-64,18v49H740V67L809,49V0H536L526,61L475,35c0,0,-104,-53,-188,-53Z" 
id="f0_2h"
transform="scale(0.001,-0.001)" />

<path d="M30,0V49l76,18V992l-72,18v50H322V67L398,49V0Z" 
id="f0_28"
transform="scale(0.001,-0.001)" />

<path d="M434,423c0,0,0,101,-7,142c0,0,-6,40,-22,60c0,0,-16,19,-45,19c0,0,-44,0,-66,-48c0,0,-22,-49,-22,-173ZM389,-14c0,0,-172,0,-254,89c0,0,-83,90,-83,279c0,0,0,184,79,274c0,0,79,91,238,91c0,0,142,0,206,-76c0,0,64,-76,64,-237V345H271V333c0,0,0,-111,18,-158c0,0,18,-47,58,-72c0,0,40,-25,110,-25c0,0,66,0,166,22V42C623,42,582,18,517,1c0,0,-66,-15,-128,-15Z" 
id="f0_21"
transform="scale(0.001,-0.001)" />

<path d="M273,157c0,0,-114,0,-193,80C80,237,0,317,0,431c0,0,0,112,80,192c0,0,79,80,193,80c0,0,113,0,192,-80c0,0,80,-80,80,-192c0,0,0,-114,-80,-194c0,0,-79,-80,-192,-80Z" 
id="f1_3d"
transform="scale(0.001,-0.001)" />

<path d="M595,60c0,0,141,0,206,102c0,0,65,102,65,340c0,0,0,236,-65,335c0,0,-65,100,-206,100c0,0,-142,0,-207,-100c0,0,-66,-99,-66,-335c0,0,0,-239,66,-340c0,0,65,-102,207,-102Zm0,-74c0,0,-253,0,-387,130C208,116,75,246,75,501c0,0,0,510,520,510c0,0,256,0,387,-129c0,0,132,-130,132,-381c0,0,0,-254,-133,-385C981,116,848,-14,595,-14Z" 
id="f0_1f"
transform="scale(0.001,-0.001)" />

<path d="M327,-14c0,0,-101,0,-156,45c0,0,-55,45,-55,131V624H25v48l108,29l87,159H332V701H480V624H332V176c0,0,0,-49,20,-73c0,0,20,-25,53,-25c0,0,40,0,97,12V26c0,0,-22,-15,-76,-27c0,0,-55,-13,-99,-13Z" 
id="f0_2g"
transform="scale(0.001,-0.001)" />

<path d="M41,0V49l69,18V992l-72,18v50H325V756c0,0,0,-49,-4,-116l51,26c0,0,106,54,190,54c0,0,194,0,194,-207V67L827,49V0H478V49l63,18V484c0,0,0,63,-27,98c0,0,-26,35,-75,35c0,0,-57,0,-114,-25V67L389,49V0Z" 
id="f0_24"
transform="scale(0.001,-0.001)" />

<path d="M438,65c0,0,131,0,131,293c0,0,0,279,-130,279c0,0,-69,0,-127,-29V80c0,0,60,-15,126,-15ZM20,-325v50l76,18V634L19,652v49H304l1,-36c0,0,80,55,194,55c0,0,146,0,218,-86c0,0,71,-86,71,-271c0,0,0,-183,-83,-280c0,0,-83,-97,-238,-97c0,0,-79,0,-160,19c0,0,5,-48,5,-109V-257l103,-18v-50Z" 
id="f0_2c"
transform="scale(0.001,-0.001)" />

<path d="M460,-325c0,0,-148,79,-231,172c0,0,-84,93,-123,217c0,0,-39,126,-39,305c0,0,0,178,39,303c0,0,39,125,123,218c0,0,83,92,231,170V975c0,0,-68,-52,-109,-133c0,0,-41,-81,-61,-189c0,0,-19,-109,-19,-285c0,0,0,-177,19,-285c0,0,19,-107,60,-189c0,0,42,-82,110,-134v-85Z" 
id="f0_c"
transform="scale(0.001,-0.001)" />

<path d="M26,0V54L154,74V926L26,945v55H878V746H810L786,908c0,0,-83,10,-241,10H389V551H651l23,111h67V355H674L651,468H389V82H578c0,0,193,0,252,12l43,185h68L927,0Z" 
id="f0_15"
transform="scale(0.001,-0.001)" />

<path d="M425,-14c0,0,-187,0,-280,90c0,0,-93,90,-93,276c0,0,0,115,42,198c0,0,43,82,121,126c0,0,78,44,182,44c0,0,104,0,227,-26V486H571L539,609c0,0,-25,19,-50,26c0,0,-24,7,-65,7c0,0,-44,0,-79,-35c0,0,-36,-35,-56,-98c0,0,-20,-64,-20,-153c0,0,0,-150,47,-214c0,0,47,-64,148,-64c0,0,103,0,176,21V42C640,42,606,15,547,0c0,0,-59,-14,-122,-14Z" 
id="f0_1z"
transform="scale(0.001,-0.001)" />

<path d="M49,-325v85c0,0,68,53,110,135c0,0,41,82,60,190c0,0,19,109,19,283c0,0,0,177,-19,285c0,0,-20,108,-61,189c0,0,-41,81,-109,133v85c0,0,149,-80,232,-172c0,0,83,-92,122,-217c0,0,39,-125,39,-302c0,0,0,-178,-39,-304c0,0,-39,-125,-122,-218c0,0,-83,-93,-232,-172Z" 
id="f0_d"
transform="scale(0.001,-0.001)" />

<path d="M248,-20c0,0,-52,0,-87,34c0,0,-36,36,-36,88c0,0,0,52,36,88c0,0,35,36,87,36c0,0,52,0,88,-36c0,0,36,-36,36,-88c0,0,0,-51,-36,-87c0,0,-35,-35,-88,-35Zm0,488c0,0,-52,0,-87,36c0,0,-36,36,-36,88c0,0,0,52,35,88c0,0,35,36,88,36c0,0,53,0,89,-36c0,0,35,-37,35,-88c0,0,0,-51,-36,-87c0,0,-35,-37,-88,-37Z" 
id="f0_u"
transform="scale(0.001,-0.001)" />

<path d="M-13,338v55H777V338Z" 
id="f2_4y"
transform="scale(0.001,-0.001)" />

<path d="M235,0V40L394,60V936H356c0,0,-189,0,-258,-15L78,766H28v234H908V766H857L837,921c0,0,-22,5,-98,9c0,0,-75,4,-165,4H538V60L697,40V0Z" 
id="f3_1k"
transform="scale(0.001,-0.001)" />

<path d="M442,0V33l93,19V504c0,0,0,129,-124,129c0,0,-70,0,-168,-22V52L338,33V0H31V33l88,19v956L15,1026v34H243V756c0,0,0,-77,-5,-112c0,0,54,31,122,53c0,0,68,23,115,23c0,0,91,0,137,-53c0,0,47,-53,47,-154V52L744,33V0Z" 
id="f3_24"
transform="scale(0.001,-0.001)" />

<path d="M495,413c0,0,0,133,-34,190c0,0,-34,57,-105,57c0,0,-78,0,-119,-63c0,0,-42,-62,-42,-184ZM374,-14c0,0,-163,0,-239,87c0,0,-75,88,-75,283c0,0,0,183,77,273c0,0,76,91,219,91c0,0,269,0,269,-306V353H194V340c0,0,0,-103,23,-160c0,0,22,-57,70,-87c0,0,47,-29,124,-29c0,0,40,0,96,6c0,0,55,7,91,15V43C598,43,562,20,500,3c0,0,-61,-17,-126,-17Z" 
id="f3_21"
transform="scale(0.001,-0.001)" />

<path d="M376,50c0,0,103,0,149,80c0,0,46,81,46,240c0,0,0,137,-47,204c0,0,-48,67,-148,67c0,0,-44,0,-87,-7c0,0,-44,-8,-63,-17V62c0,0,63,-12,150,-12Zm3,-64c0,0,-64,0,-141,14c0,0,-78,14,-136,37v971L0,1026v34H226V809c0,0,0,-40,-4,-148c0,0,74,59,188,59c0,0,143,0,219,-87c0,0,77,-87,77,-263c0,0,0,-189,-84,-287c0,0,-84,-97,-243,-97Z" 
id="f3_1y"
transform="scale(0.001,-0.001)" />

<path d="M377,45c0,0,99,0,147,73c0,0,47,73,47,237c0,0,0,161,-47,233c0,0,-47,72,-147,72c0,0,-97,0,-141,-69c0,0,-44,-69,-44,-236c0,0,0,-169,45,-240c0,0,44,-70,140,-70Zm0,-59c0,0,-158,0,-238,94c0,0,-81,95,-81,274c0,0,0,178,81,272c0,0,80,94,244,94c0,0,160,0,241,-92c0,0,82,-92,82,-274c0,0,0,-368,-329,-368Z" 
id="f3_2b"
transform="scale(0.001,-0.001)" />

<path d="M383,64c0,0,85,0,152,28V645c0,0,-67,13,-152,13c0,0,-194,0,-194,-314c0,0,0,-141,48,-211c0,0,48,-69,146,-69ZM342,-14c0,0,-287,0,-287,358c0,0,0,184,82,280c0,0,81,96,239,96c0,0,81,0,163,-18c0,0,-4,25,-4,124v182l-118,18v34H659V52L745,33V0H548l-9,52c0,0,-84,-66,-197,-66Z" 
id="f3_20"
transform="scale(0.001,-0.001)" />

<path d="M148,-329c0,0,-58,0,-114,13v151H69l24,-71c0,0,23,-17,64,-17c0,0,39,0,72,22c0,0,33,23,60,67c0,0,27,44,68,157L90,649L19,668v33H344V668L233,648L423,158L606,649L497,668v33H758V668L685,652L411,-43c0,0,-48,-124,-84,-177c0,0,-36,-54,-79,-82c0,0,-44,-27,-100,-27Z" 
id="f3_2l"
transform="scale(0.001,-0.001)" />

<path d="M64,0V34L168,59V639H47v36l121,29v49c0,0,0,155,61,239c0,0,62,84,173,84c0,0,58,0,107,-15V908H472l-33,92c0,0,-26,16,-62,16c0,0,-47,0,-66,-42c0,0,-19,-42,-19,-157V701H478V639H292V59L443,34V0Z" 
id="f3_22"
transform="scale(0.001,-0.001)" />

<path d="M249,-14c0,0,-71,0,-107,42c0,0,-35,42,-35,119V639H15v33l93,29l76,159h47V701H391V639H231V161c0,0,0,-48,22,-73c0,0,22,-24,57,-24c0,0,44,0,106,12V26C416,26,389,8,340,-2c0,0,-49,-12,-91,-12Z" 
id="f3_2g"
transform="scale(0.001,-0.001)" />

<path d="M360,-14L72,649L0,668v33H327V668L216,648L420,164L615,649L504,668v33H764V668L697,652L416,-14Z" 
id="f3_2i"
transform="scale(0.001,-0.001)" />

<path d="M289,-14c0,0,-179,0,-179,205V649L20,668v33H233V200c0,0,0,-128,120,-128c0,0,92,0,173,23V649L420,668v33H649V52L738,33V0H533l-6,57C527,57,474,28,405,7c0,0,-69,-21,-116,-21Z" 
id="f3_2h"
transform="scale(0.001,-0.001)" />

<path d="M31,0V33L150,52v956L31,1026v34H274V52L394,33V0Z" 
id="f3_28"
transform="scale(0.001,-0.001)" />

<path d="M32,0V33L151,52V649L52,668v33H275V52L395,33V0ZM201,850c0,0,-32,0,-56,24c0,0,-24,24,-24,56c0,0,0,34,24,58c0,0,24,24,56,24c0,0,34,0,58,-24c0,0,24,-24,24,-58c0,0,0,-32,-24,-56c0,0,-24,-24,-58,-24Z" 
id="f3_25"
transform="scale(0.001,-0.001)" />

<path d="M278,-14c0,0,-52,0,-115,11c0,0,-63,10,-99,23V193H98L134,95c0,0,56,-50,146,-50c0,0,144,0,144,123c0,0,0,91,-114,130l-66,21c0,0,-75,25,-110,50c0,0,-34,26,-53,63c0,0,-18,36,-18,89c0,0,0,92,63,145c0,0,63,54,170,54c0,0,77,0,193,-23V544H454l-32,81c0,0,-39,35,-124,35c0,0,-61,0,-92,-30c0,0,-32,-30,-32,-80c0,0,0,-43,29,-72c0,0,28,-29,86,-48c0,0,110,-38,144,-55c0,0,33,-17,57,-42c0,0,23,-25,36,-57c0,0,13,-32,13,-79c0,0,0,-104,-66,-158c0,0,-66,-53,-195,-53Z" 
id="f3_2f"
transform="scale(0.001,-0.001)" />

<path d="M31,0V33l88,19V649L31,668v33H235l7,-87c0,0,44,37,121,71c0,0,76,35,121,35h11V530H463l-43,82c0,0,-37,0,-88,-10c0,0,-52,-10,-89,-26V52L363,33V0Z" 
id="f3_2e"
transform="scale(0.001,-0.001)" />

<path d="M284,67c0,0,51,0,88,12c0,0,37,12,74,30V358l-98,-3c0,0,-100,-4,-135,-39c0,0,-35,-35,-35,-117c0,0,0,-132,106,-132ZM233,-14c0,0,-179,0,-179,208c0,0,0,70,27,116c0,0,27,46,87,70c0,0,60,24,173,27l105,3V519c0,0,0,72,-26,107c0,0,-27,34,-82,34c0,0,-75,0,-137,-35L176,538H134V691c0,0,121,26,213,26c0,0,115,0,169,-47c0,0,54,-47,54,-144V52L657,33V0H465L451,70c0,0,-85,-84,-218,-84Z" 
id="f3_1x"
transform="scale(0.001,-0.001)" />

<path d="M359,-270c0,0,124,0,192,46c0,0,67,47,67,129c0,0,0,43,-26,67c0,0,-26,24,-79,24H242c0,0,-32,-27,-51,-69c0,0,-20,-41,-20,-77c0,0,0,-64,46,-92c0,0,46,-28,142,-28Zm11,561c0,0,81,0,115,47c0,0,34,47,34,141c0,0,0,100,-35,142c0,0,-35,42,-113,42c0,0,-78,0,-114,-43c0,0,-37,-42,-37,-141c0,0,0,-98,36,-143c0,0,36,-45,114,-45ZM359,-329c0,0,-143,0,-218,44c0,0,-75,43,-75,125c0,0,0,39,27,78c0,0,26,38,98,89c0,0,-43,14,-72,48c0,0,-29,35,-29,74L208,262c0,0,-118,55,-118,217c0,0,0,115,73,178c0,0,73,63,211,63c0,0,28,0,71,-6c0,0,44,-6,67,-13l165,83l26,-32L599,644c0,0,50,-56,50,-165c0,0,0,-120,-72,-182c0,0,-73,-62,-208,-62c0,0,-62,0,-114,11L208,148c0,0,2,-13,29,-24c0,0,27,-12,67,-12H512c0,0,113,0,168,-49c0,0,55,-49,55,-134c0,0,0,-79,-44,-137c0,0,-43,-58,-128,-90c0,0,-84,-31,-204,-31Z" 
id="f3_23"
transform="scale(0.001,-0.001)" />

<path d="M439,0V33l93,19V500c0,0,0,62,-30,97c0,0,-31,36,-94,36c0,0,-67,0,-165,-22V52L338,33V0H35V33l84,19V649L35,668v33H235l7,-57c0,0,57,33,122,54c0,0,65,22,108,22c0,0,91,0,137,-53c0,0,47,-53,47,-154V52L741,33V0Z" 
id="f3_2a"
transform="scale(0.001,-0.001)" />

<path d="M399,-14c0,0,-341,0,-341,370c0,0,0,175,87,269c0,0,87,95,249,95c0,0,101,0,220,-23V501H573L541,625c0,0,-62,35,-149,35c0,0,-200,0,-200,-304c0,0,0,-158,61,-225c0,0,61,-67,189,-67c0,0,109,0,189,24V43C631,43,595,16,530,1c0,0,-64,-15,-131,-15Z" 
id="f3_1z"
transform="scale(0.001,-0.001)" />

<path d="M191,-20c0,0,-39,0,-65,25c0,0,-25,27,-25,64c0,0,0,38,26,64c0,0,26,26,64,26c0,0,38,0,64,-26c0,0,26,-26,26,-64c0,0,0,-37,-25,-64c0,0,-26,-25,-65,-25Z" 
id="f3_i"
transform="scale(0.001,-0.001)" />

<path d="M44,0V40L172,60V941L44,960v40H445V960L316,941V549H787V941L659,960v40h400V960L930,941V60L1059,40V0H659V40L787,60V481H316V60L445,40V0Z" 
id="f3_18"
transform="scale(0.001,-0.001)" />

<path d="M431,0V33L535,52V499c0,0,0,62,-32,96c0,0,-32,33,-95,33c0,0,-66,0,-163,-22V52L350,33V0H32V33l89,19V649L32,668v33H237l6,-57c0,0,56,32,119,54c0,0,62,22,110,22c0,0,52,0,95,-20c0,0,44,-19,66,-62c0,0,57,32,134,57c0,0,77,25,128,25c0,0,179,0,179,-207V52l90,-19V0H846V33L950,52V499c0,0,0,129,-119,129c0,0,-19,0,-45,-3c0,0,-26,-3,-52,-7c0,0,-25,-4,-49,-8c0,0,-23,-5,-39,-8c0,0,13,-41,13,-89V52L764,33V0Z" 
id="f3_29"
transform="scale(0.001,-0.001)" />

<path d="M58,-234v58c0,0,131,42,131,125c0,0,0,15,-11,27c0,0,-11,12,-38,25C140,1,89,27,89,75c0,0,0,40,25,61c0,0,26,21,65,21c0,0,48,0,77,-34c0,0,30,-34,30,-86c0,0,0,-101,-60,-170c0,0,-59,-69,-168,-101Z" 
id="f3_g"
transform="scale(0.001,-0.001)" />

<path d="M41,0V34L426,641H261c0,0,-42,0,-80,-7c0,0,-39,-7,-54,-19L104,515H69V701H586V665L201,60H407c0,0,42,0,89,10c0,0,47,10,66,25l39,147h35L617,0Z" 
id="f3_2m"
transform="scale(0.001,-0.001)" />

<path d="M382,45c0,0,188,0,188,314c0,0,0,143,-47,213c0,0,-46,69,-141,69c0,0,-87,0,-146,-24V58c0,0,67,-13,146,-13ZM25,-325v35l88,18V649L34,668v33H231l1,-41c0,0,31,27,84,43c0,0,53,17,107,17c0,0,134,0,208,-94c0,0,73,-93,73,-267c0,0,0,-178,-80,-276c0,0,-80,-97,-232,-97c0,0,-84,0,-160,16c0,0,4,-53,4,-84V-272l123,-18v-35Z" 
id="f3_2c"
transform="scale(0.001,-0.001)" />

<path d="M44,0V40L172,60V941L44,960v40H794V760H745L721,922c0,0,-83,11,-241,11H316V543H586l23,119h48V354H609L586,475H316V67H513c0,0,193,0,252,12l43,185h49L843,0Z" 
id="f3_15"
transform="scale(0.001,-0.001)" />

<path d="M457,460c0,0,289,0,289,266c0,0,0,106,-54,157c0,0,-54,50,-163,50H419L335,460ZM-7,0L0,40L120,60L276,941L151,960l7,40H559c0,0,161,0,248,-67c0,0,87,-66,87,-198c0,0,0,-167,-109,-255c0,0,-109,-88,-312,-88H323L264,60L427,40L420,0Z" 
id="f4_1g"
transform="scale(0.001,-0.001)" />

<path d="M325,47c0,0,68,0,130,54c0,0,61,55,97,149c0,0,36,94,36,202c0,0,0,103,-39,156c0,0,-39,53,-113,53c0,0,-67,0,-128,-54c0,0,-61,-55,-96,-149c0,0,-35,-94,-35,-204c0,0,0,-101,39,-154c0,0,39,-53,109,-53Zm-6,-61c0,0,-124,0,-199,79c0,0,-74,79,-74,214c0,0,0,120,51,222c0,0,51,102,143,160c0,0,91,59,205,59c0,0,124,0,199,-80c0,0,74,-79,74,-214c0,0,0,-120,-51,-222C667,204,615,102,524,43c0,0,-91,-57,-205,-57Z" 
id="f4_2b"
transform="scale(0.001,-0.001)" />

<path d="M81,0L258,1008l-96,18l6,34H391L214,52L331,33L325,0Z" 
id="f4_28"
transform="scale(0.001,-0.001)" />

<path d="M-15,-329c0,0,-61,0,-112,13l28,152h34l12,-72c0,0,18,-17,60,-17c0,0,100,0,212,202L253,9L116,649L33,668l6,33H230L338,155L513,458c0,0,48,83,48,144c0,0,0,27,-16,44c0,0,-15,16,-33,22l6,33H659c0,0,20,-17,20,-47c0,0,0,-59,-62,-164L322,-7c0,0,-86,-145,-135,-205c0,0,-50,-61,-98,-89c0,0,-49,-28,-104,-28Z" 
id="f4_2l"
transform="scale(0.001,-0.001)" />

<path d="M312,78c0,0,42,0,93,28c0,0,51,27,99,76l82,460c0,0,-18,5,-32,9c0,0,-14,3,-28,6c0,0,-14,2,-29,3c0,0,-16,1,-36,1c0,0,-75,0,-139,-56c0,0,-64,-56,-100,-150c0,0,-37,-95,-37,-202c0,0,0,-80,33,-127c0,0,33,-48,94,-48ZM249,-325c0,0,-65,0,-136,16c0,0,-70,15,-112,37l13,170H48l27,-93c0,0,60,-59,173,-59c0,0,91,0,145,47c0,0,54,48,72,152l29,175c0,0,-54,-59,-120,-97c0,0,-66,-37,-119,-37c0,0,-95,0,-149,66c0,0,-55,67,-55,182c0,0,0,131,58,243c0,0,57,112,154,177c0,0,97,66,211,66c0,0,45,0,117,-9c0,0,72,-9,128,-22L594,-25c0,0,-28,-158,-108,-229c0,0,-80,-71,-237,-71Z" 
id="f4_23"
transform="scale(0.001,-0.001)" />

<path d="M54,0L169,649L81,668l6,33H294L274,558c0,0,62,81,130,121c0,0,67,41,132,41c0,0,75,0,113,-41c0,0,38,-41,38,-117c0,0,0,-10,-3,-32c0,0,-3,-21,-81,-478L700,34L695,0H470l76,434c0,0,17,94,17,123c0,0,0,34,-18,55c0,0,-18,21,-56,21c0,0,-56,0,-121,-47c0,0,-65,-47,-108,-117L178,0Z" 
id="f4_2a"
transform="scale(0.001,-0.001)" />

<path d="M228,-17c0,0,-76,0,-114,40c0,0,-38,41,-38,117c0,0,0,11,4,39c0,0,4,29,80,470L78,667l6,34H293L217,268c0,0,-17,-94,-17,-124c0,0,0,-34,18,-55c0,0,18,-21,57,-21c0,0,55,0,120,47c0,0,65,47,107,115l83,471H709L595,52L683,33L677,0H469l20,144C489,144,427,64,360,23c0,0,-67,-40,-132,-40Z" 
id="f4_2h"
transform="scale(0.001,-0.001)" />

<path d="M55,0L169,649L81,668l6,33H295L274,557c0,0,52,73,117,118c0,0,65,45,122,45c0,0,66,0,102,-42c0,0,36,-41,36,-121c0,0,51,72,115,117c0,0,64,46,123,46c0,0,63,0,99,-40c0,0,36,-40,36,-116c0,0,0,-16,-3,-42c0,0,-3,-27,-80,-470l98,-19L1032,0H808l77,434c0,0,17,90,17,124c0,0,0,34,-16,54c0,0,-15,21,-49,21c0,0,-33,0,-78,-32c0,0,-46,-31,-83,-80c0,0,-37,-49,-44,-91L558,0H434l76,434c0,0,19,98,19,124c0,0,0,34,-17,54c0,0,-16,21,-51,21c0,0,-33,0,-81,-34c0,0,-47,-33,-84,-80c0,0,-36,-48,-43,-89L179,0Z" 
id="f4_29"
transform="scale(0.001,-0.001)" />

<path d="M639,416L478,858L313,416ZM647,0V54L762,74L667,333H283L191,74L319,54V0H15V54L90,74l355,935H662L1016,74l76,-20V0Z" 
id="f0_11"
transform="scale(0.001,-0.001)" />

<path d="M41,0V49l69,18V634L41,652v49H313l11,-61l50,26c0,0,105,54,188,54c0,0,194,0,194,-207V67L827,49V0H478V49l63,18V484c0,0,0,63,-27,98c0,0,-26,35,-75,35c0,0,-57,0,-114,-25V67L389,49V0Z" 
id="f0_2a"
transform="scale(0.001,-0.001)" />

<path d="M345,75c0,0,50,0,110,26V351l-63,-2c0,0,-72,-3,-100,-38c0,0,-28,-35,-28,-113c0,0,0,-63,22,-93c0,0,23,-30,59,-30ZM266,-14c0,0,-217,0,-217,208c0,0,0,79,32,126c0,0,32,48,93,71c0,0,60,22,190,25l91,2V521c0,0,0,126,-104,126c0,0,-62,0,-140,-39L183,521H134V691c0,0,112,17,165,21c0,0,53,5,108,5c0,0,264,0,264,-194V67L741,49V0H483L466,54C466,54,408,14,361,0c0,0,-47,-14,-95,-14Z" 
id="f0_1x"
transform="scale(0.001,-0.001)" />

<path d="M51,0V55L180,74V926L51,946v54H543V946L415,926V74L543,55V0Z" 
id="f0_19"
transform="scale(0.001,-0.001)" />

<path d="M416,68c0,0,60,0,124,32V628c0,0,-58,15,-118,15c0,0,-67,0,-104,-73c0,0,-38,-73,-38,-216c0,0,0,-139,36,-212c0,0,35,-74,100,-74ZM369,-14c0,0,-155,0,-231,88c0,0,-76,90,-76,274c0,0,0,182,82,277c0,0,81,95,236,95c0,0,82,0,165,-20c0,0,-5,24,-5,115V992l-72,18v50H756V67L833,49V0H562L547,40C547,40,505,13,483,4c0,0,-23,-7,-51,-12c0,0,-28,-6,-63,-6Z" 
id="f0_20"
transform="scale(0.001,-0.001)" />

<path d="M-113,-325l16,93c0,0,98,67,169,193c0,0,71,125,117,332c0,0,45,208,45,356c0,0,0,228,-118,334l13,77c0,0,150,-88,216,-203c0,0,66,-116,66,-284c0,0,0,-123,-33,-278c0,0,-33,-156,-92,-268c0,0,-59,-111,-152,-193c0,0,-92,-82,-247,-159Z" 
id="f5_d"
transform="scale(0.001,-0.001)" />

<path d="M57,302V417H454V302Z" 
id="f3_h"
transform="scale(0.001,-0.001)" />

<path d="M327,-14L84,649L1,668v33H335V668L219,648L385,174L554,632h63L786,171L944,649L830,668v33h267V668l-78,-16L784,-14H726L553,448L382,-14Z" 
id="f3_2j"
transform="scale(0.001,-0.001)" />

<path d="M55,0V40L184,60V941L55,960v40H455V960L327,941V60L455,40V0Z" 
id="f3_19"
transform="scale(0.001,-0.001)" />

<path d="M460,506c0,0,135,0,209,64c0,0,73,65,73,183c0,0,0,180,-213,180H419L343,506ZM671,0L487,438H331L264,60L398,40L390,0H-7L0,40L120,60L276,941L151,960l7,40H555c0,0,163,0,249,-62c0,0,86,-62,86,-180c0,0,0,-236,-261,-299L798,60L908,40L900,0Z" 
id="f4_1i"
transform="scale(0.001,-0.001)" />

<path d="M301,78c0,0,85,0,185,104l81,442c0,0,-29,20,-55,28c0,0,-25,8,-62,8c0,0,-75,0,-137,-56c0,0,-62,-56,-98,-152c0,0,-36,-95,-36,-199c0,0,0,-79,33,-127c0,0,33,-48,89,-48ZM245,-14c0,0,-90,0,-145,66c0,0,-54,66,-54,182c0,0,0,131,57,244c0,0,57,114,152,178c0,0,96,64,208,64c0,0,90,0,170,-33l33,26h40L589,52L673,33L667,0H454l22,117C476,117,350,-14,245,-14Z" 
id="f4_1x"
transform="scale(0.001,-0.001)" />

<path d="M298,-14c0,0,-120,0,-185,69c0,0,-66,69,-66,191c0,0,0,130,52,237c0,0,52,107,149,172c0,0,97,65,203,65c0,0,53,0,112,-12c0,0,60,-11,99,-27L628,485H587L575,615c0,0,-47,47,-125,47c0,0,-72,0,-134,-53c0,0,-62,-53,-100,-147c0,0,-37,-95,-37,-208c0,0,0,-190,154,-190c0,0,106,0,222,74l22,-32c0,0,-60,-56,-135,-88c0,0,-76,-32,-144,-32Z" 
id="f4_1z"
transform="scale(0.001,-0.001)" />

<path d="M228,-14c0,0,-103,0,-209,46L49,200H83L95,99c0,0,20,-21,55,-38c0,0,36,-16,81,-16c0,0,163,0,163,133c0,0,0,44,-35,78c0,0,-34,34,-113,72c0,0,-75,37,-112,81c0,0,-36,45,-36,104c0,0,0,99,66,153c0,0,67,54,184,54c0,0,85,0,200,-26L521,538H486l-11,80c0,0,-47,42,-124,42c0,0,-61,0,-97,-28c0,0,-37,-28,-37,-87c0,0,0,-40,31,-71c0,0,32,-30,119,-75c0,0,78,-40,113,-86c0,0,36,-47,36,-107c0,0,0,-113,-71,-167c0,0,-72,-53,-217,-53Z" 
id="f4_2f"
transform="scale(0.001,-0.001)" />

<path d="M420,489c0,0,93,0,153,65c0,0,60,65,60,181c0,0,0,116,-62,184c0,0,-61,68,-148,68c0,0,-90,0,-156,-74c0,0,-66,-73,-66,-189c0,0,0,-105,63,-170c0,0,63,-65,156,-65ZM391,-18c0,0,-128,0,-209,71c0,0,-82,71,-98,200l129,12c0,0,17,-91,63,-132c0,0,46,-41,118,-41c0,0,62,0,109,28c0,0,47,29,76,76c0,0,30,47,50,128c0,0,20,80,20,164c0,0,0,9,-1,27c0,0,-40,-65,-110,-105c0,0,-69,-39,-151,-39c0,0,-135,0,-229,98c0,0,-94,99,-94,260c0,0,0,166,98,268c0,0,98,101,245,101c0,0,107,0,195,-57c0,0,89,-58,134,-164c0,0,46,-106,46,-308c0,0,0,-209,-45,-334C737,235,691,111,602,46c0,0,-90,-64,-211,-64Z" 
id="f6_t"
transform="scale(0.001,-0.001)" />


</defs>
</svg>