<?xml version="1.0" encoding="UTF-8" standalone="no"?>
<!DOCTYPE svg PUBLIC "-//W3C//DTD SVG 1.1//EN"
"http://www.w3.org/Graphics/SVG/1.1/DTD/svg11.dtd">
<svg viewBox="0 0 909 1286" version="1.1" xmlns="http://www.w3.org/2000/svg" xmlns:xlink="http://www.w3.org/1999/xlink">
<defs>
<style type="text/css"><![CDATA[
.g0_27{
fill: #FFFFFF;
}
.g1_27{
fill: #1F3331;
}
]]></style>
</defs>
<path fill-rule="evenodd" d="M80.3,75.9H857.2V54.6H80.3V75.9Z" class="g0_27" />
<g fill="#1F3331" >
<use xlink:href="#f0_3d" transform="matrix(10.1,0,0,10.1,82.5,71.9)" />
<use xlink:href="#f1_13" transform="matrix(12,0,0,12,110,71.9)" />
<use xlink:href="#f1_25" transform="matrix(12,0,0,12,123.3,71.9)" />
<use xlink:href="#f1_2e" transform="matrix(12,0,0,12,128.4,71.9)" />
<use xlink:href="#f1_1z" transform="matrix(12,0,0,12,136.1,71.9)" />
<use xlink:href="#f1_25" transform="matrix(12,0,0,12,144.1,71.9)" />
<use xlink:href="#f1_2a" transform="matrix(12,0,0,12,149.2,71.9)" />
<use xlink:href="#f1_2b" transform="matrix(12,0,0,12,159.5,71.9)" />
<use xlink:href="#f1_2g" transform="matrix(12,0,0,12,168.7,71.9)" />
<use xlink:href="#f1_2e" transform="matrix(12,0,0,12,175.3,71.9)" />
<use xlink:href="#f1_2b" transform="matrix(12,0,0,12,183,71.9)" />
<use xlink:href="#f1_2c" transform="matrix(12,0,0,12,192.1,71.9)" />
<use xlink:href="#f1_2b" transform="matrix(12,0,0,12,202.4,71.9)" />
<use xlink:href="#f1_2h" transform="matrix(12,0,0,12,211.5,71.9)" />
<use xlink:href="#f1_2f" transform="matrix(12,0,0,12,221.8,71.9)" />
<use xlink:href="#f1_u" transform="matrix(12,0,0,12,228.9,71.9)" />
<use xlink:href="#f1_h" transform="matrix(12,0,0,12,242.1,71.9)" />
<use xlink:href="#f2_1k" transform="matrix(12,0,0,12,253.1,71.9)" />
<use xlink:href="#f2_24" transform="matrix(12,0,0,12,264.5,71.9)" />
<use xlink:href="#f2_21" transform="matrix(12,0,0,12,273.3,71.9)" />
<use xlink:href="#f2_2b" transform="matrix(12,0,0,12,287.9,71.9)" />
<use xlink:href="#f2_2i" transform="matrix(12,0,0,12,297.4,71.9)" />
<use xlink:href="#f2_2h" transform="matrix(12,0,0,12,306.2,71.9)" />
<use xlink:href="#f2_28" transform="matrix(12,0,0,12,315.7,71.9)" />
<use xlink:href="#f2_21" transform="matrix(12,0,0,12,320.1,71.9)" />
<use xlink:href="#f2_2g" transform="matrix(12,0,0,12,335.1,71.9)" />
<use xlink:href="#f2_2h" transform="matrix(12,0,0,12,340.6,71.9)" />
<use xlink:href="#f2_2e" transform="matrix(12,0,0,12,349.8,71.9)" />
<use xlink:href="#f2_2a" transform="matrix(12,0,0,12,356,71.9)" />
<use xlink:href="#f2_2f" transform="matrix(12,0,0,12,364.8,71.9)" />
<use xlink:href="#f2_1x" transform="matrix(12,0,0,12,378.7,71.9)" />
<use xlink:href="#f2_2g" transform="matrix(12,0,0,12,386.8,71.9)" />
<use xlink:href="#f2_29" transform="matrix(12,0,0,12,399.2,71.9)" />
<use xlink:href="#f2_2b" transform="matrix(12,0,0,12,412.8,71.9)" />
<use xlink:href="#f2_2e" transform="matrix(12,0,0,12,422.3,71.9)" />
<use xlink:href="#f2_21" transform="matrix(12,0,0,12,428.5,71.9)" />
<use xlink:href="#f2_2g" transform="matrix(12,0,0,12,443.5,71.9)" />
<use xlink:href="#f2_24" transform="matrix(12,0,0,12,449,71.9)" />
<use xlink:href="#f2_1x" transform="matrix(12,0,0,12,457.8,71.9)" />
<use xlink:href="#f2_2a" transform="matrix(12,0,0,12,465.8,71.9)" />
<use xlink:href="#f2_n" transform="matrix(12,0,0,12,481.9,71.9)" />
<use xlink:href="#f2_q" transform="matrix(12,0,0,12,491.1,71.9)" />
<use xlink:href="#f2_k" transform="matrix(12,0,0,12,500.3,71.9)" />
<use xlink:href="#f2_1f" transform="matrix(7.9,0,0,7.9,509.5,64.9)" />
<use xlink:href="#f2_1x" transform="matrix(12,0,0,12,525.3,71.9)" />
<use xlink:href="#f2_2a" transform="matrix(12,0,0,12,533.3,71.9)" />
<use xlink:href="#f2_23" transform="matrix(12,0,0,12,542.1,71.9)" />
<use xlink:href="#f2_28" transform="matrix(12,0,0,12,551.7,71.9)" />
<use xlink:href="#f2_21" transform="matrix(12,0,0,12,556.4,71.9)" />
<use xlink:href="#f2_2f" transform="matrix(12,0,0,12,571.4,71.9)" />
<use xlink:href="#f2_2b" transform="matrix(12,0,0,12,578.4,71.9)" />
<use xlink:href="#f2_22" transform="matrix(12,0,0,12,594.9,71.9)" />
<use xlink:href="#f2_2h" transform="matrix(12,0,0,12,600.4,71.9)" />
<use xlink:href="#f2_2a" transform="matrix(12,0,0,12,609.9,71.9)" />
<use xlink:href="#f2_25" transform="matrix(12,0,0,12,619.1,71.9)" />
<use xlink:href="#f2_1z" transform="matrix(12,0,0,12,623.8,71.9)" />
<use xlink:href="#f2_28" transform="matrix(12,0,0,12,632.2,71.9)" />
<use xlink:href="#f2_21" transform="matrix(12,0,0,12,637,71.9)" />
<use xlink:href="#f2_1y" transform="matrix(12,0,0,12,652,71.9)" />
<use xlink:href="#f2_21" transform="matrix(12,0,0,12,661.2,71.9)" />
<use xlink:href="#f2_1z" transform="matrix(12,0,0,12,669.3,71.9)" />
<use xlink:href="#f2_2b" transform="matrix(12,0,0,12,677.3,71.9)" />
<use xlink:href="#f2_29" transform="matrix(12,0,0,12,687.2,71.9)" />
<use xlink:href="#f2_21" transform="matrix(12,0,0,12,700.8,71.9)" />
<use xlink:href="#f2_2f" transform="matrix(12,0,0,12,708.8,71.9)" />
<use xlink:href="#f2_1z" transform="matrix(12,0,0,12,722.7,71.9)" />
<use xlink:href="#f2_2b" transform="matrix(12,0,0,12,730.8,71.9)" />
<use xlink:href="#f2_25" transform="matrix(12,0,0,12,741,71.9)" />
<use xlink:href="#f2_28" transform="matrix(12,0,0,12,745.7,71.9)" />
<use xlink:href="#f2_21" transform="matrix(12,0,0,12,750.5,71.9)" />
<use xlink:href="#f2_20" transform="matrix(12,0,0,12,758.6,71.9)" />
<use xlink:href="#f2_1x" transform="matrix(12,0,0,12,774.7,71.9)" />
<use xlink:href="#f2_2e" transform="matrix(12,0,0,12,782.7,71.9)" />
<use xlink:href="#f2_2b" transform="matrix(12,0,0,12,789,71.9)" />
<use xlink:href="#f2_2h" transform="matrix(12,0,0,12,798.5,71.9)" />
<use xlink:href="#f2_2a" transform="matrix(12,0,0,12,807.6,71.9)" />
<use xlink:href="#f2_20" transform="matrix(12,0,0,12,816.4,71.9)" />
<use xlink:href="#f2_2g" transform="matrix(12,0,0,12,832.6,71.9)" />
<use xlink:href="#f2_24" transform="matrix(12,0,0,12,838,71.9)" />
<use xlink:href="#f2_21" transform="matrix(12,0,0,12,846.8,71.9)" />
</g>
<path fill-rule="evenodd" d="M110,75.6H248.3V73.7H110v1.9Z" class="g1_27" />
<path fill-rule="evenodd" d="M80.3,97.2H857.2V75.9H80.3V97.2Z" class="g0_27" />
<g fill="#1F3331" >
<use xlink:href="#f2_2b" transform="matrix(12,0,0,12,110,93.2)" />
<use xlink:href="#f2_2i" transform="matrix(12,0,0,12,119.6,93.2)" />
<use xlink:href="#f2_2h" transform="matrix(12,0,0,12,128.4,93.2)" />
<use xlink:href="#f2_28" transform="matrix(12,0,0,12,137.9,93.2)" />
<use xlink:href="#f2_21" transform="matrix(12,0,0,12,142.3,93.2)" />
<use xlink:href="#f2_i" transform="matrix(12,0,0,12,150.3,93.2)" />
<use xlink:href="#f2_15" transform="matrix(12,0,0,12,159.8,93.2)" />
<use xlink:href="#f2_2k" transform="matrix(12,0,0,12,171.2,93.2)" />
<use xlink:href="#f2_1x" transform="matrix(12,0,0,12,180,93.2)" />
<use xlink:href="#f2_29" transform="matrix(12,0,0,12,188.4,93.2)" />
<use xlink:href="#f2_2c" transform="matrix(12,0,0,12,202.3,93.2)" />
<use xlink:href="#f2_28" transform="matrix(12,0,0,12,211.8,93.2)" />
<use xlink:href="#f2_21" transform="matrix(12,0,0,12,216.6,93.2)" />
<use xlink:href="#f3_1f" transform="matrix(12,0,0,12,229.6,93.2)" />
<use xlink:href="#f3_2c" transform="matrix(12,0,0,12,242.8,93.2)" />
<use xlink:href="#f3_2h" transform="matrix(12,0,0,12,252,93.2)" />
<use xlink:href="#f3_2a" transform="matrix(12,0,0,12,261.2,93.2)" />
<use xlink:href="#f3_2g" transform="matrix(12,0,0,12,270.3,93.2)" />
<use xlink:href="#f3_25" transform="matrix(12,0,0,12,275.4,93.2)" />
<use xlink:href="#f3_1x" transform="matrix(12,0,0,12,280.6,93.2)" />
<use xlink:href="#f2_i" transform="matrix(12,0,0,12,289.8,93.2)" />
</g>
<path fill-rule="evenodd" d="M52.8,485.3H857.2V118.5H52.8V485.3Z" class="g0_27" />
<path fill-rule="evenodd" d="M52.8,564.5H857.2V539.9H52.8v24.6Z" class="g0_27" />
<g fill="#1F3331" >
<use xlink:href="#f1_1d" transform="matrix(12,0,0,12,55,557.1)" />
<use xlink:href="#f1_21" transform="matrix(12,0,0,12,72.6,557.1)" />
<use xlink:href="#f1_23" transform="matrix(12,0,0,12,80.7,557.1)" />
<use xlink:href="#f1_1x" transform="matrix(12,0,0,12,89.9,557.1)" />
<use xlink:href="#f1_2f" transform="matrix(12,0,0,12,99,557.1)" />
<use xlink:href="#f1_2c" transform="matrix(12,0,0,12,106,557.1)" />
<use xlink:href="#f1_2b" transform="matrix(12,0,0,12,116.2,557.1)" />
<use xlink:href="#f1_2e" transform="matrix(12,0,0,12,125.4,557.1)" />
<use xlink:href="#f1_2b" transform="matrix(12,0,0,12,133.1,557.1)" />
<use xlink:href="#f1_23" transform="matrix(12,0,0,12,142.3,557.1)" />
<use xlink:href="#f1_21" transform="matrix(12,0,0,12,151.4,557.1)" />
<use xlink:href="#f1_2a" transform="matrix(12,0,0,12,159.5,557.1)" />
<use xlink:href="#f1_21" transform="matrix(12,0,0,12,169.7,557.1)" />
<use xlink:href="#f1_2f" transform="matrix(12,0,0,12,177.8,557.1)" />
<use xlink:href="#f1_25" transform="matrix(12,0,0,12,184.8,557.1)" />
<use xlink:href="#f1_2f" transform="matrix(12,0,0,12,190.3,557.1)" />
</g>
<path fill-rule="evenodd" d="M55,560.8H197.7V559H55v1.8Z" class="g1_27" />
<path fill-rule="evenodd" d="M80.3,606.6H857.2V585.4H80.3v21.2Z" class="g0_27" />
<g fill="#1F3331" >
<use xlink:href="#f0_3d" transform="matrix(10.1,0,0,10.1,82.5,602.6)" />
<use xlink:href="#f2_1k" transform="matrix(12,0,0,12,110,602.6)" />
<use xlink:href="#f2_24" transform="matrix(12,0,0,12,121.4,602.6)" />
<use xlink:href="#f2_21" transform="matrix(12,0,0,12,130.2,602.6)" />
<use xlink:href="#f2_2c" transform="matrix(12,0,0,12,143,602.6)" />
<use xlink:href="#f2_2e" transform="matrix(12,0,0,12,152.2,602.6)" />
<use xlink:href="#f2_2b" transform="matrix(12,0,0,12,158.4,602.6)" />
<use xlink:href="#f2_1z" transform="matrix(12,0,0,12,167.9,602.6)" />
<use xlink:href="#f2_21" transform="matrix(12,0,0,12,176,602.6)" />
<use xlink:href="#f2_2f" transform="matrix(12,0,0,12,184,602.6)" />
<use xlink:href="#f2_2f" transform="matrix(12,0,0,12,191,602.6)" />
<use xlink:href="#f2_2b" transform="matrix(12,0,0,12,202.7,602.6)" />
<use xlink:href="#f2_22" transform="matrix(12,0,0,12,212.2,602.6)" />
<use xlink:href="#f2_22" transform="matrix(12,0,0,12,222.5,602.6)" />
<use xlink:href="#f2_2b" transform="matrix(12,0,0,12,228,602.6)" />
<use xlink:href="#f2_2e" transform="matrix(12,0,0,12,237.5,602.6)" />
<use xlink:href="#f2_29" transform="matrix(12,0,0,12,244.1,602.6)" />
<use xlink:href="#f2_1x" transform="matrix(12,0,0,12,257.6,602.6)" />
<use xlink:href="#f2_2g" transform="matrix(12,0,0,12,265.7,602.6)" />
<use xlink:href="#f2_25" transform="matrix(12,0,0,12,271.6,602.6)" />
<use xlink:href="#f2_2b" transform="matrix(12,0,0,12,276,602.6)" />
<use xlink:href="#f2_2a" transform="matrix(12,0,0,12,285.5,602.6)" />
<use xlink:href="#f2_2b" transform="matrix(12,0,0,12,299,602.6)" />
<use xlink:href="#f2_22" transform="matrix(12,0,0,12,308.5,602.6)" />
<use xlink:href="#f2_29" transform="matrix(12,0,0,12,319.1,602.6)" />
<use xlink:href="#f2_21" transform="matrix(12,0,0,12,333.1,602.6)" />
<use xlink:href="#f2_23" transform="matrix(12,0,0,12,341.1,602.6)" />
<use xlink:href="#f2_1x" transform="matrix(12,0,0,12,350.3,602.6)" />
<use xlink:href="#f2_2f" transform="matrix(12,0,0,12,358.4,602.6)" />
<use xlink:href="#f2_2c" transform="matrix(12,0,0,12,365.3,602.6)" />
<use xlink:href="#f2_2b" transform="matrix(12,0,0,12,374.5,602.6)" />
<use xlink:href="#f2_2e" transform="matrix(12,0,0,12,384,602.6)" />
<use xlink:href="#f2_21" transform="matrix(12,0,0,12,390.2,602.6)" />
<use xlink:href="#f2_2f" transform="matrix(12,0,0,12,398.3,602.6)" />
<use xlink:href="#f2_22" transform="matrix(12,0,0,12,410.4,602.6)" />
<use xlink:href="#f2_2e" transform="matrix(12,0,0,12,415.9,602.6)" />
<use xlink:href="#f2_2b" transform="matrix(12,0,0,12,422.1,602.6)" />
<use xlink:href="#f2_29" transform="matrix(12,0,0,12,431.6,602.6)" />
<use xlink:href="#f2_29" transform="matrix(12,0,0,12,450.3,602.6)" />
<use xlink:href="#f2_21" transform="matrix(12,0,0,12,464.2,602.6)" />
<use xlink:href="#f2_23" transform="matrix(12,0,0,12,472.3,602.6)" />
<use xlink:href="#f2_1x" transform="matrix(12,0,0,12,481.8,602.6)" />
<use xlink:href="#f2_2f" transform="matrix(12,0,0,12,489.9,602.6)" />
<use xlink:href="#f2_2c" transform="matrix(12,0,0,12,496.9,602.6)" />
<use xlink:href="#f2_2b" transform="matrix(12,0,0,12,506,602.6)" />
<use xlink:href="#f2_2e" transform="matrix(12,0,0,12,515.5,602.6)" />
<use xlink:href="#f2_21" transform="matrix(12,0,0,12,521.7,602.6)" />
<use xlink:href="#f2_29" transform="matrix(12,0,0,12,534.6,602.6)" />
<use xlink:href="#f2_2b" transform="matrix(12,0,0,12,548.1,602.6)" />
<use xlink:href="#f2_2g" transform="matrix(12,0,0,12,557.6,602.6)" />
<use xlink:href="#f2_24" transform="matrix(12,0,0,12,563.1,602.6)" />
<use xlink:href="#f2_21" transform="matrix(12,0,0,12,571.9,602.6)" />
<use xlink:href="#f2_2e" transform="matrix(12,0,0,12,580,602.6)" />
<use xlink:href="#f2_1z" transform="matrix(12,0,0,12,591,602.6)" />
<use xlink:href="#f2_21" transform="matrix(12,0,0,12,599.8,602.6)" />
<use xlink:href="#f2_28" transform="matrix(12,0,0,12,607.8,602.6)" />
<use xlink:href="#f2_28" transform="matrix(12,0,0,12,612.6,602.6)" />
<use xlink:href="#f2_25" transform="matrix(12,0,0,12,622.5,602.6)" />
<use xlink:href="#f2_2f" transform="matrix(12,0,0,12,627.2,602.6)" />
<use xlink:href="#f2_1z" transform="matrix(12,0,0,12,639,602.6)" />
<use xlink:href="#f2_1x" transform="matrix(12,0,0,12,647,602.6)" />
<use xlink:href="#f2_28" transform="matrix(12,0,0,12,655.4,602.6)" />
<use xlink:href="#f2_28" transform="matrix(12,0,0,12,660.5,602.6)" />
<use xlink:href="#f2_21" transform="matrix(12,0,0,12,665.3,602.6)" />
<use xlink:href="#f2_20" transform="matrix(12,0,0,12,673.4,602.6)" />
<use xlink:href="#f2_29" transform="matrix(12,0,0,12,687.7,602.6)" />
<use xlink:href="#f2_21" transform="matrix(12,0,0,12,701.3,602.6)" />
<use xlink:href="#f2_23" transform="matrix(12,0,0,12,709.3,602.6)" />
<use xlink:href="#f2_1x" transform="matrix(12,0,0,12,718.8,602.6)" />
<use xlink:href="#f2_2f" transform="matrix(12,0,0,12,726.9,602.6)" />
<use xlink:href="#f2_2c" transform="matrix(12,0,0,12,733.9,602.6)" />
<use xlink:href="#f2_2b" transform="matrix(12,0,0,12,743,602.6)" />
<use xlink:href="#f2_2e" transform="matrix(12,0,0,12,752.5,602.6)" />
<use xlink:href="#f2_2b" transform="matrix(12,0,0,12,758.8,602.6)" />
<use xlink:href="#f2_23" transform="matrix(12,0,0,12,768.3,602.6)" />
<use xlink:href="#f2_21" transform="matrix(12,0,0,12,777.4,602.6)" />
<use xlink:href="#f2_2a" transform="matrix(12,0,0,12,785.5,602.6)" />
<use xlink:href="#f2_21" transform="matrix(12,0,0,12,794.3,602.6)" />
<use xlink:href="#f2_2f" transform="matrix(12,0,0,12,802.4,602.6)" />
<use xlink:href="#f2_25" transform="matrix(12,0,0,12,809.7,602.6)" />
<use xlink:href="#f2_2f" transform="matrix(12,0,0,12,814.5,602.6)" />
<use xlink:href="#f2_i" transform="matrix(12,0,0,12,821.4,602.6)" />
</g>
<path fill-rule="evenodd" d="M80.3,627.5H857.2V606.6H80.3v20.9Z" class="g0_27" />
<g fill="#1F3331" >
<use xlink:href="#f0_3d" transform="matrix(10.1,0,0,10.1,82.5,623.5)" />
<use xlink:href="#f2_1f" transform="matrix(12,0,0,12,110,623.5)" />
<use xlink:href="#f2_2i" transform="matrix(12,0,0,12,123.3,623.5)" />
<use xlink:href="#f2_2h" transform="matrix(12,0,0,12,132,623.5)" />
<use xlink:href="#f2_28" transform="matrix(12,0,0,12,141.6,623.5)" />
<use xlink:href="#f2_21" transform="matrix(12,0,0,12,146.3,623.5)" />
<use xlink:href="#f2_2f" transform="matrix(12,0,0,12,154.7,623.5)" />
<use xlink:href="#f2_1z" transform="matrix(12,0,0,12,166.9,623.5)" />
<use xlink:href="#f2_2b" transform="matrix(12,0,0,12,175,623.5)" />
<use xlink:href="#f2_29" transform="matrix(12,0,0,12,184.5,623.5)" />
<use xlink:href="#f2_29" transform="matrix(12,0,0,12,198.4,623.5)" />
<use xlink:href="#f2_2b" transform="matrix(12,0,0,12,212,623.5)" />
<use xlink:href="#f2_2a" transform="matrix(12,0,0,12,221.9,623.5)" />
<use xlink:href="#f2_28" transform="matrix(12,0,0,12,231,623.5)" />
<use xlink:href="#f2_2l" transform="matrix(12,0,0,12,235.8,623.5)" />
<use xlink:href="#f2_22" transform="matrix(12,0,0,12,250.1,623.5)" />
<use xlink:href="#f2_2b" transform="matrix(12,0,0,12,255.6,623.5)" />
<use xlink:href="#f2_2e" transform="matrix(12,0,0,12,265.1,623.5)" />
<use xlink:href="#f2_29" transform="matrix(12,0,0,12,271.7,623.5)" />
<use xlink:href="#f2_1x" transform="matrix(12,0,0,12,290.5,623.5)" />
<use xlink:href="#f2_2f" transform="matrix(12,0,0,12,303.7,623.5)" />
<use xlink:href="#f2_25" transform="matrix(12,0,0,12,310.7,623.5)" />
<use xlink:href="#f2_2a" transform="matrix(12,0,0,12,315.4,623.5)" />
<use xlink:href="#f2_23" transform="matrix(12,0,0,12,324.2,623.5)" />
<use xlink:href="#f2_28" transform="matrix(12,0,0,12,333.8,623.5)" />
<use xlink:href="#f2_21" transform="matrix(12,0,0,12,338.5,623.5)" />
<use xlink:href="#f2_29" transform="matrix(12,0,0,12,352.1,623.5)" />
<use xlink:href="#f2_21" transform="matrix(12,0,0,12,365.6,623.5)" />
<use xlink:href="#f2_23" transform="matrix(12,0,0,12,373.7,623.5)" />
<use xlink:href="#f2_1x" transform="matrix(12,0,0,12,383.2,623.5)" />
<use xlink:href="#f2_2f" transform="matrix(12,0,0,12,391.3,623.5)" />
<use xlink:href="#f2_2c" transform="matrix(12,0,0,12,398.3,623.5)" />
<use xlink:href="#f2_2b" transform="matrix(12,0,0,12,407.4,623.5)" />
<use xlink:href="#f2_2e" transform="matrix(12,0,0,12,416.9,623.5)" />
<use xlink:href="#f2_21" transform="matrix(12,0,0,12,423.1,623.5)" />
<use xlink:href="#f2_29" transform="matrix(12,0,0,12,436.3,623.5)" />
<use xlink:href="#f2_2b" transform="matrix(12,0,0,12,449.9,623.5)" />
<use xlink:href="#f2_2g" transform="matrix(12,0,0,12,459.4,623.5)" />
<use xlink:href="#f2_24" transform="matrix(12,0,0,12,464.9,623.5)" />
<use xlink:href="#f2_21" transform="matrix(12,0,0,12,473.7,623.5)" />
<use xlink:href="#f2_2e" transform="matrix(12,0,0,12,481.8,623.5)" />
<use xlink:href="#f2_1z" transform="matrix(12,0,0,12,493.1,623.5)" />
<use xlink:href="#f2_21" transform="matrix(12,0,0,12,501.2,623.5)" />
<use xlink:href="#f2_28" transform="matrix(12,0,0,12,509.2,623.5)" />
<use xlink:href="#f2_28" transform="matrix(12,0,0,12,514,623.5)" />
<use xlink:href="#f2_c" transform="matrix(12,0,0,12,523.5,623.5)" />
<use xlink:href="#f2_1d" transform="matrix(12,0,0,12,530,623.5)" />
<use xlink:href="#f2_1d" transform="matrix(12,0,0,12,546.2,623.5)" />
<use xlink:href="#f2_13" transform="matrix(12,0,0,12,562.7,623.5)" />
<use xlink:href="#f2_d" transform="matrix(12,0,0,12,574.8,623.5)" />
<use xlink:href="#f2_25" transform="matrix(12,0,0,12,586.1,623.5)" />
<use xlink:href="#f2_2a" transform="matrix(12,0,0,12,590.9,623.5)" />
<use xlink:href="#f2_29" transform="matrix(12,0,0,12,605.1,623.5)" />
<use xlink:href="#f2_25" transform="matrix(12,0,0,12,619.1,623.5)" />
<use xlink:href="#f2_1z" transform="matrix(12,0,0,12,623.8,623.5)" />
<use xlink:href="#f2_2e" transform="matrix(12,0,0,12,631.9,623.5)" />
<use xlink:href="#f2_2b" transform="matrix(12,0,0,12,638.1,623.5)" />
<use xlink:href="#f2_2c" transform="matrix(12,0,0,12,647.6,623.5)" />
<use xlink:href="#f2_2l" transform="matrix(12,0,0,12,657.2,623.5)" />
<use xlink:href="#f2_28" transform="matrix(12,0,0,12,666,623.5)" />
<use xlink:href="#f2_1x" transform="matrix(12,0,0,12,670.7,623.5)" />
<use xlink:href="#f2_2e" transform="matrix(12,0,0,12,678.8,623.5)" />
<use xlink:href="#f2_2e" transform="matrix(12,0,0,12,690.1,623.5)" />
<use xlink:href="#f2_21" transform="matrix(12,0,0,12,696.3,623.5)" />
<use xlink:href="#f2_23" transform="matrix(12,0,0,12,704.4,623.5)" />
<use xlink:href="#f2_25" transform="matrix(12,0,0,12,713.6,623.5)" />
<use xlink:href="#f2_2b" transform="matrix(12,0,0,12,718,623.5)" />
<use xlink:href="#f2_2a" transform="matrix(12,0,0,12,727.5,623.5)" />
<use xlink:href="#f2_2b" transform="matrix(12,0,0,12,741.4,623.5)" />
<use xlink:href="#f2_22" transform="matrix(12,0,0,12,750.9,623.5)" />
<use xlink:href="#f2_2g" transform="matrix(12,0,0,12,761.5,623.5)" />
<use xlink:href="#f2_24" transform="matrix(12,0,0,12,767,623.5)" />
<use xlink:href="#f2_21" transform="matrix(12,0,0,12,775.8,623.5)" />
<use xlink:href="#f2_2a" transform="matrix(12,0,0,12,789,623.5)" />
<use xlink:href="#f2_2h" transform="matrix(12,0,0,12,797.8,623.5)" />
<use xlink:href="#f2_1z" transform="matrix(12,0,0,12,807,623.5)" />
<use xlink:href="#f2_21" transform="matrix(12,0,0,12,815,623.5)" />
<use xlink:href="#f2_28" transform="matrix(12,0,0,12,823.4,623.5)" />
<use xlink:href="#f2_28" transform="matrix(12,0,0,12,828.2,623.5)" />
<use xlink:href="#f2_2h" transform="matrix(12,0,0,12,833,623.5)" />
<use xlink:href="#f2_2f" transform="matrix(12,0,0,12,842.5,623.5)" />
<use xlink:href="#f2_i" transform="matrix(12,0,0,12,849.5,623.5)" />
</g>
<path fill-rule="evenodd" d="M80.3,648.8H857.2V627.5H80.3v21.3Z" class="g0_27" />
<g fill="#1F3331" >
<use xlink:href="#f2_19" transform="matrix(12,0,0,12,110,644.4)" />
<use xlink:href="#f2_2g" transform="matrix(12,0,0,12,116.3,644.4)" />
<use xlink:href="#f2_25" transform="matrix(12,0,0,12,126.1,644.4)" />
<use xlink:href="#f2_2f" transform="matrix(12,0,0,12,130.5,644.4)" />
<use xlink:href="#f2_1x" transform="matrix(12,0,0,12,142.2,644.4)" />
<use xlink:href="#f2_28" transform="matrix(12,0,0,12,155.4,644.4)" />
<use xlink:href="#f2_1x" transform="matrix(12,0,0,12,160.2,644.4)" />
<use xlink:href="#f2_2e" transform="matrix(12,0,0,12,168.3,644.4)" />
<use xlink:href="#f2_23" transform="matrix(12,0,0,12,174.5,644.4)" />
<use xlink:href="#f2_21" transform="matrix(12,0,0,12,183.6,644.4)" />
<use xlink:href="#f2_1z" transform="matrix(12,0,0,12,196.5,644.4)" />
<use xlink:href="#f2_21" transform="matrix(12,0,0,12,204.5,644.4)" />
<use xlink:href="#f2_28" transform="matrix(12,0,0,12,212.9,644.4)" />
<use xlink:href="#f2_28" transform="matrix(12,0,0,12,217.7,644.4)" />
<use xlink:href="#f2_1x" transform="matrix(12,0,0,12,227.4,644.4)" />
<use xlink:href="#f2_2a" transform="matrix(12,0,0,12,235.9,644.4)" />
<use xlink:href="#f2_20" transform="matrix(12,0,0,12,244.7,644.4)" />
<use xlink:href="#f2_1z" transform="matrix(12,0,0,12,258.6,644.4)" />
<use xlink:href="#f2_2b" transform="matrix(12,0,0,12,266.6,644.4)" />
<use xlink:href="#f2_2a" transform="matrix(12,0,0,12,276.2,644.4)" />
<use xlink:href="#f2_2g" transform="matrix(12,0,0,12,285,644.4)" />
<use xlink:href="#f2_1x" transform="matrix(12,0,0,12,290.4,644.4)" />
<use xlink:href="#f2_25" transform="matrix(12,0,0,12,298.5,644.4)" />
<use xlink:href="#f2_2a" transform="matrix(12,0,0,12,303.3,644.4)" />
<use xlink:href="#f2_2f" transform="matrix(12,0,0,12,312.4,644.4)" />
<use xlink:href="#f2_20" transform="matrix(12,0,0,12,324.3,644.4)" />
<use xlink:href="#f2_21" transform="matrix(12,0,0,12,333.5,644.4)" />
<use xlink:href="#f2_2a" transform="matrix(12,0,0,12,341.9,644.4)" />
<use xlink:href="#f2_2f" transform="matrix(12,0,0,12,350.7,644.4)" />
<use xlink:href="#f2_21" transform="matrix(12,0,0,12,357.6,644.4)" />
<use xlink:href="#f2_1z" transform="matrix(12,0,0,12,370.4,644.4)" />
<use xlink:href="#f2_2l" transform="matrix(12,0,0,12,378.9,644.4)" />
<use xlink:href="#f2_2g" transform="matrix(12,0,0,12,387.3,644.4)" />
<use xlink:href="#f2_2b" transform="matrix(12,0,0,12,392.8,644.4)" />
<use xlink:href="#f2_2c" transform="matrix(12,0,0,12,402.3,644.4)" />
<use xlink:href="#f2_28" transform="matrix(12,0,0,12,411.8,644.4)" />
<use xlink:href="#f2_1x" transform="matrix(12,0,0,12,416.2,644.4)" />
<use xlink:href="#f2_2f" transform="matrix(12,0,0,12,424.3,644.4)" />
<use xlink:href="#f2_29" transform="matrix(12,0,0,12,431.6,644.4)" />
<use xlink:href="#f2_1x" transform="matrix(12,0,0,12,450.3,644.4)" />
<use xlink:href="#f2_2a" transform="matrix(12,0,0,12,458.7,644.4)" />
<use xlink:href="#f2_20" transform="matrix(12,0,0,12,467.5,644.4)" />
<use xlink:href="#f2_2c" transform="matrix(12,0,0,12,481.4,644.4)" />
<use xlink:href="#f2_2e" transform="matrix(12,0,0,12,490.6,644.4)" />
<use xlink:href="#f2_2b" transform="matrix(12,0,0,12,496.8,644.4)" />
<use xlink:href="#f2_29" transform="matrix(12,0,0,12,506.3,644.4)" />
<use xlink:href="#f2_25" transform="matrix(12,0,0,12,520.2,644.4)" />
<use xlink:href="#f2_2a" transform="matrix(12,0,0,12,525.3,644.4)" />
<use xlink:href="#f2_21" transform="matrix(12,0,0,12,534.4,644.4)" />
<use xlink:href="#f2_2a" transform="matrix(12,0,0,12,542.9,644.4)" />
<use xlink:href="#f2_2g" transform="matrix(12,0,0,12,551.7,644.4)" />
<use xlink:href="#f2_2a" transform="matrix(12,0,0,12,561.9,644.4)" />
<use xlink:href="#f2_2h" transform="matrix(12,0,0,12,570.7,644.4)" />
<use xlink:href="#f2_1z" transform="matrix(12,0,0,12,579.9,644.4)" />
<use xlink:href="#f2_28" transform="matrix(12,0,0,12,588.3,644.4)" />
<use xlink:href="#f2_21" transform="matrix(12,0,0,12,592.7,644.4)" />
<use xlink:href="#f2_2h" transform="matrix(12,0,0,12,600.7,644.4)" />
<use xlink:href="#f2_2f" transform="matrix(12,0,0,12,610.3,644.4)" />
<use xlink:href="#f2_i" transform="matrix(12,0,0,12,617.2,644.4)" />
</g>
<path fill-rule="evenodd" d="M80.3,669.7H857.2V648.8H80.3v20.9Z" class="g0_27" />
<g fill="#1F3331" >
<use xlink:href="#f0_3d" transform="matrix(10.1,0,0,10.1,82.5,665.7)" />
<use xlink:href="#f2_1k" transform="matrix(12,0,0,12,110,665.7)" />
<use xlink:href="#f2_24" transform="matrix(12,0,0,12,121.4,665.7)" />
<use xlink:href="#f2_21" transform="matrix(12,0,0,12,130.2,665.7)" />
<use xlink:href="#f2_1d" transform="matrix(12,0,0,12,143,665.7)" />
<use xlink:href="#f2_1d" transform="matrix(12,0,0,12,159.1,665.7)" />
<use xlink:href="#f2_13" transform="matrix(12,0,0,12,175.3,665.7)" />
<use xlink:href="#f2_2h" transform="matrix(12,0,0,12,192.1,665.7)" />
<use xlink:href="#f2_2a" transform="matrix(12,0,0,12,201.6,665.7)" />
<use xlink:href="#f2_20" transform="matrix(12,0,0,12,210.4,665.7)" />
<use xlink:href="#f2_21" transform="matrix(12,0,0,12,219.6,665.7)" />
<use xlink:href="#f2_2e" transform="matrix(12,0,0,12,227.7,665.7)" />
<use xlink:href="#f2_23" transform="matrix(12,0,0,12,233.9,665.7)" />
<use xlink:href="#f2_2b" transform="matrix(12,0,0,12,243,665.7)" />
<use xlink:href="#f2_21" transform="matrix(12,0,0,12,252.6,665.7)" />
<use xlink:href="#f2_2f" transform="matrix(12,0,0,12,260.6,665.7)" />
<use xlink:href="#f2_29" transform="matrix(12,0,0,12,272.9,665.7)" />
<use xlink:href="#f2_21" transform="matrix(12,0,0,12,286.5,665.7)" />
<use xlink:href="#f2_25" transform="matrix(12,0,0,12,294.9,665.7)" />
<use xlink:href="#f2_2b" transform="matrix(12,0,0,12,299.3,665.7)" />
<use xlink:href="#f2_2f" transform="matrix(12,0,0,12,308.8,665.7)" />
<use xlink:href="#f2_25" transform="matrix(12,0,0,12,316.1,665.7)" />
<use xlink:href="#f2_2f" transform="matrix(12,0,0,12,320.9,665.7)" />
<use xlink:href="#f2_2g" transform="matrix(12,0,0,12,332.6,665.7)" />
<use xlink:href="#f2_2b" transform="matrix(12,0,0,12,338.1,665.7)" />
<use xlink:href="#f2_22" transform="matrix(12,0,0,12,352.3,665.7)" />
<use xlink:href="#f2_2b" transform="matrix(12,0,0,12,357.8,665.7)" />
<use xlink:href="#f2_2e" transform="matrix(12,0,0,12,367.4,665.7)" />
<use xlink:href="#f2_29" transform="matrix(12,0,0,12,373.6,665.7)" />
<use xlink:href="#f2_22" transform="matrix(12,0,0,12,392.5,665.7)" />
<use xlink:href="#f2_2b" transform="matrix(12,0,0,12,398,665.7)" />
<use xlink:href="#f2_2h" transform="matrix(12,0,0,12,407.5,665.7)" />
<use xlink:href="#f2_2e" transform="matrix(12,0,0,12,416.7,665.7)" />
<use xlink:href="#f2_29" transform="matrix(12,0,0,12,427.6,665.7)" />
<use xlink:href="#f2_21" transform="matrix(12,0,0,12,441.2,665.7)" />
<use xlink:href="#f2_23" transform="matrix(12,0,0,12,449.3,665.7)" />
<use xlink:href="#f2_1x" transform="matrix(12,0,0,12,458.4,665.7)" />
<use xlink:href="#f2_2f" transform="matrix(12,0,0,12,466.8,665.7)" />
<use xlink:href="#f2_2c" transform="matrix(12,0,0,12,473.8,665.7)" />
<use xlink:href="#f2_2b" transform="matrix(12,0,0,12,483.3,665.7)" />
<use xlink:href="#f2_2e" transform="matrix(12,0,0,12,492.8,665.7)" />
<use xlink:href="#f2_21" transform="matrix(12,0,0,12,499.1,665.7)" />
<use xlink:href="#f2_2f" transform="matrix(12,0,0,12,507.1,665.7)" />
<use xlink:href="#f2_i" transform="matrix(12,0,0,12,514.3,665.7)" />
</g>
<path fill-rule="evenodd" d="M80.3,691H857.2V669.7H80.3V691Z" class="g0_27" />
<g fill="#1F3331" >
<use xlink:href="#f0_3d" transform="matrix(10.1,0,0,10.1,82.5,686.6)" />
<use xlink:href="#f2_19" transform="matrix(12,0,0,12,110,686.6)" />
<use xlink:href="#f2_2a" transform="matrix(12,0,0,12,116.3,686.6)" />
<use xlink:href="#f2_1x" transform="matrix(12,0,0,12,129.1,686.6)" />
<use xlink:href="#f2_29" transform="matrix(12,0,0,12,141.6,686.6)" />
<use xlink:href="#f2_1x" transform="matrix(12,0,0,12,155.1,686.6)" />
<use xlink:href="#f2_26" transform="matrix(12,0,0,12,163.5,686.6)" />
<use xlink:href="#f2_2b" transform="matrix(12,0,0,12,167.9,686.6)" />
<use xlink:href="#f2_2e" transform="matrix(12,0,0,12,177.4,686.6)" />
<use xlink:href="#f2_25" transform="matrix(12,0,0,12,184,686.6)" />
<use xlink:href="#f2_2g" transform="matrix(12,0,0,12,188.4,686.6)" />
<use xlink:href="#f2_2l" transform="matrix(12,0,0,12,194.3,686.6)" />
<use xlink:href="#f2_2b" transform="matrix(12,0,0,12,206.7,686.6)" />
<use xlink:href="#f2_22" transform="matrix(12,0,0,12,216.6,686.6)" />
<use xlink:href="#f2_22" transform="matrix(12,0,0,12,226.5,686.6)" />
<use xlink:href="#f2_28" transform="matrix(12,0,0,12,232.4,686.6)" />
<use xlink:href="#f2_2b" transform="matrix(12,0,0,12,236.8,686.6)" />
<use xlink:href="#f2_2j" transform="matrix(12,0,0,12,246.3,686.6)" />
<use xlink:href="#f2_21" transform="matrix(12,0,0,12,259.9,686.6)" />
<use xlink:href="#f2_2e" transform="matrix(12,0,0,12,267.9,686.6)" />
<use xlink:href="#f2_25" transform="matrix(12,0,0,12,274.5,686.6)" />
<use xlink:href="#f2_2a" transform="matrix(12,0,0,12,279.3,686.6)" />
<use xlink:href="#f2_23" transform="matrix(12,0,0,12,288.1,686.6)" />
<use xlink:href="#f2_2c" transform="matrix(12,0,0,12,301.3,686.6)" />
<use xlink:href="#f2_28" transform="matrix(12,0,0,12,310.8,686.6)" />
<use xlink:href="#f2_1x" transform="matrix(12,0,0,12,315.6,686.6)" />
<use xlink:href="#f2_2a" transform="matrix(12,0,0,12,324,686.6)" />
<use xlink:href="#f2_2g" transform="matrix(12,0,0,12,332.8,686.6)" />
<use xlink:href="#f2_2f" transform="matrix(12,0,0,12,338.2,686.6)" />
<use xlink:href="#f2_g" transform="matrix(12,0,0,12,345.2,686.6)" />
<use xlink:href="#f2_2b" transform="matrix(12,0,0,12,354,686.6)" />
<use xlink:href="#f2_2a" transform="matrix(12,0,0,12,363.5,686.6)" />
<use xlink:href="#f2_28" transform="matrix(12,0,0,12,372.7,686.6)" />
<use xlink:href="#f2_2l" transform="matrix(12,0,0,12,377.4,686.6)" />
<use xlink:href="#f2_2b" transform="matrix(12,0,0,12,390.3,686.6)" />
<use xlink:href="#f2_2a" transform="matrix(12,0,0,12,399.8,686.6)" />
<use xlink:href="#f2_21" transform="matrix(12,0,0,12,408.6,686.6)" />
<use xlink:href="#f2_2b" transform="matrix(12,0,0,12,420.7,686.6)" />
<use xlink:href="#f2_22" transform="matrix(12,0,0,12,430.6,686.6)" />
<use xlink:href="#f2_2g" transform="matrix(12,0,0,12,440.1,686.6)" />
<use xlink:href="#f2_24" transform="matrix(12,0,0,12,445.6,686.6)" />
<use xlink:href="#f2_21" transform="matrix(12,0,0,12,454.4,686.6)" />
<use xlink:href="#f2_29" transform="matrix(12,0,0,12,466.9,686.6)" />
<use xlink:href="#f2_21" transform="matrix(12,0,0,12,480.8,686.6)" />
<use xlink:href="#f2_23" transform="matrix(12,0,0,12,488.9,686.6)" />
<use xlink:href="#f2_1x" transform="matrix(12,0,0,12,498,686.6)" />
<use xlink:href="#f2_2f" transform="matrix(12,0,0,12,506.1,686.6)" />
<use xlink:href="#f2_2c" transform="matrix(12,0,0,12,513.1,686.6)" />
<use xlink:href="#f2_2b" transform="matrix(12,0,0,12,522.2,686.6)" />
<use xlink:href="#f2_2e" transform="matrix(12,0,0,12,531.7,686.6)" />
<use xlink:href="#f2_21" transform="matrix(12,0,0,12,538,686.6)" />
<use xlink:href="#f2_2f" transform="matrix(12,0,0,12,546,686.6)" />
<use xlink:href="#f2_25" transform="matrix(12,0,0,12,557.4,686.6)" />
<use xlink:href="#f2_2f" transform="matrix(12,0,0,12,561.8,686.6)" />
<use xlink:href="#f2_22" transform="matrix(12,0,0,12,573.2,686.6)" />
<use xlink:href="#f2_2h" transform="matrix(12,0,0,12,579,686.6)" />
<use xlink:href="#f2_2a" transform="matrix(12,0,0,12,588.5,686.6)" />
<use xlink:href="#f2_1z" transform="matrix(12,0,0,12,597.3,686.6)" />
<use xlink:href="#f2_2g" transform="matrix(12,0,0,12,605.4,686.6)" />
<use xlink:href="#f2_25" transform="matrix(12,0,0,12,611.3,686.6)" />
<use xlink:href="#f2_2b" transform="matrix(12,0,0,12,615.7,686.6)" />
<use xlink:href="#f2_2a" transform="matrix(12,0,0,12,625.2,686.6)" />
<use xlink:href="#f2_1x" transform="matrix(12,0,0,12,634,686.6)" />
<use xlink:href="#f2_28" transform="matrix(12,0,0,12,642.4,686.6)" />
<use xlink:href="#f2_i" transform="matrix(12,0,0,12,647.1,686.6)" />
<use xlink:href="#f2_1k" transform="matrix(12,0,0,12,655.9,686.6)" />
<use xlink:href="#f2_24" transform="matrix(12,0,0,12,667.2,686.6)" />
<use xlink:href="#f2_21" transform="matrix(12,0,0,12,676.4,686.6)" />
<use xlink:href="#f2_2b" transform="matrix(12,0,0,12,688.5,686.6)" />
<use xlink:href="#f2_2g" transform="matrix(12,0,0,12,697.7,686.6)" />
<use xlink:href="#f2_24" transform="matrix(12,0,0,12,703.1,686.6)" />
<use xlink:href="#f2_21" transform="matrix(12,0,0,12,711.9,686.6)" />
<use xlink:href="#f2_2e" transform="matrix(12,0,0,12,720,686.6)" />
<use xlink:href="#f2_2g" transform="matrix(12,0,0,12,730.3,686.6)" />
<use xlink:href="#f2_24" transform="matrix(12,0,0,12,735.7,686.6)" />
<use xlink:href="#f2_2e" transform="matrix(12,0,0,12,744.5,686.6)" />
<use xlink:href="#f2_21" transform="matrix(12,0,0,12,750.8,686.6)" />
<use xlink:href="#f2_21" transform="matrix(12,0,0,12,758.9,686.6)" />
<use xlink:href="#f2_20" transform="matrix(12,0,0,12,771,686.6)" />
<use xlink:href="#f2_21" transform="matrix(12,0,0,12,780.2,686.6)" />
<use xlink:href="#f2_23" transform="matrix(12,0,0,12,788.3,686.6)" />
<use xlink:href="#f2_21" transform="matrix(12,0,0,12,797.4,686.6)" />
<use xlink:href="#f2_2a" transform="matrix(12,0,0,12,805.5,686.6)" />
<use xlink:href="#f2_21" transform="matrix(12,0,0,12,814.3,686.6)" />
<use xlink:href="#f2_2e" transform="matrix(12,0,0,12,822.4,686.6)" />
<use xlink:href="#f2_1x" transform="matrix(12,0,0,12,828.6,686.6)" />
<use xlink:href="#f2_2g" transform="matrix(12,0,0,12,836.7,686.6)" />
<use xlink:href="#f2_21" transform="matrix(12,0,0,12,842.2,686.6)" />
<use xlink:href="#f2_i" transform="matrix(12,0,0,12,850.3,686.6)" />
</g>
<path fill-rule="evenodd" d="M80.3,711.9H857.2V691H80.3v20.9Z" class="g0_27" />
<g fill="#1F3331" >
<use xlink:href="#f0_3d" transform="matrix(10.1,0,0,10.1,82.5,707.9)" />
<use xlink:href="#f2_1f" transform="matrix(12,0,0,12,110,707.9)" />
<use xlink:href="#f2_2a" transform="matrix(12,0,0,12,123.3,707.9)" />
<use xlink:href="#f2_28" transform="matrix(12,0,0,12,132.4,707.9)" />
<use xlink:href="#f2_2l" transform="matrix(12,0,0,12,137.5,707.9)" />
<use xlink:href="#f2_2g" transform="matrix(12,0,0,12,150.7,707.9)" />
<use xlink:href="#f2_24" transform="matrix(12,0,0,12,156.2,707.9)" />
<use xlink:href="#f2_21" transform="matrix(12,0,0,12,165.4,707.9)" />
<use xlink:href="#f2_22" transform="matrix(12,0,0,12,178.5,707.9)" />
<use xlink:href="#f2_2h" transform="matrix(12,0,0,12,184,707.9)" />
<use xlink:href="#f2_2a" transform="matrix(12,0,0,12,193.6,707.9)" />
<use xlink:href="#f2_1z" transform="matrix(12,0,0,12,202.4,707.9)" />
<use xlink:href="#f2_2g" transform="matrix(12,0,0,12,210.4,707.9)" />
<use xlink:href="#f2_25" transform="matrix(12,0,0,12,216.3,707.9)" />
<use xlink:href="#f2_2b" transform="matrix(12,0,0,12,220.7,707.9)" />
<use xlink:href="#f2_2a" transform="matrix(12,0,0,12,230.2,707.9)" />
<use xlink:href="#f2_1x" transform="matrix(12,0,0,12,239,707.9)" />
<use xlink:href="#f2_28" transform="matrix(12,0,0,12,247.4,707.9)" />
<use xlink:href="#f2_29" transform="matrix(12,0,0,12,256.9,707.9)" />
<use xlink:href="#f2_21" transform="matrix(12,0,0,12,270.9,707.9)" />
<use xlink:href="#f2_23" transform="matrix(12,0,0,12,278.9,707.9)" />
<use xlink:href="#f2_1x" transform="matrix(12,0,0,12,288.1,707.9)" />
<use xlink:href="#f2_2f" transform="matrix(12,0,0,12,296.5,707.9)" />
<use xlink:href="#f2_2c" transform="matrix(12,0,0,12,303.5,707.9)" />
<use xlink:href="#f2_2b" transform="matrix(12,0,0,12,312.6,707.9)" />
<use xlink:href="#f2_2e" transform="matrix(12,0,0,12,322.2,707.9)" />
<use xlink:href="#f2_21" transform="matrix(12,0,0,12,328.4,707.9)" />
<use xlink:href="#f2_25" transform="matrix(12,0,0,12,341.5,707.9)" />
<use xlink:href="#f2_2f" transform="matrix(12,0,0,12,346.3,707.9)" />
<use xlink:href="#f2_1x" transform="matrix(12,0,0,12,358,707.9)" />
<use xlink:href="#f2_1y" transform="matrix(12,0,0,12,366.1,707.9)" />
<use xlink:href="#f2_28" transform="matrix(12,0,0,12,375.2,707.9)" />
<use xlink:href="#f2_21" transform="matrix(12,0,0,12,380,707.9)" />
<use xlink:href="#f2_2g" transform="matrix(12,0,0,12,392.8,707.9)" />
<use xlink:href="#f2_2b" transform="matrix(12,0,0,12,398.3,707.9)" />
<use xlink:href="#f2_20" transform="matrix(12,0,0,12,412.2,707.9)" />
<use xlink:href="#f2_21" transform="matrix(12,0,0,12,421.4,707.9)" />
<use xlink:href="#f2_2i" transform="matrix(12,0,0,12,429.4,707.9)" />
<use xlink:href="#f2_21" transform="matrix(12,0,0,12,438.2,707.9)" />
<use xlink:href="#f2_28" transform="matrix(12,0,0,12,446.7,707.9)" />
<use xlink:href="#f2_2b" transform="matrix(12,0,0,12,451.1,707.9)" />
<use xlink:href="#f2_2c" transform="matrix(12,0,0,12,460.6,707.9)" />
<use xlink:href="#f2_25" transform="matrix(12,0,0,12,475,707.9)" />
<use xlink:href="#f2_2a" transform="matrix(12,0,0,12,479.8,707.9)" />
<use xlink:href="#f2_2g" transform="matrix(12,0,0,12,488.6,707.9)" />
<use xlink:href="#f2_2b" transform="matrix(12,0,0,12,494.1,707.9)" />
<use xlink:href="#f2_2g" transform="matrix(12,0,0,12,507.6,707.9)" />
<use xlink:href="#f2_24" transform="matrix(12,0,0,12,513.1,707.9)" />
<use xlink:href="#f2_21" transform="matrix(12,0,0,12,521.9,707.9)" />
<use xlink:href="#f2_22" transform="matrix(12,0,0,12,535.1,707.9)" />
<use xlink:href="#f2_21" transform="matrix(12,0,0,12,540.6,707.9)" />
<use xlink:href="#f2_29" transform="matrix(12,0,0,12,549,707.9)" />
<use xlink:href="#f2_1x" transform="matrix(12,0,0,12,563,707.9)" />
<use xlink:href="#f2_28" transform="matrix(12,0,0,12,571.5,707.9)" />
<use xlink:href="#f2_21" transform="matrix(12,0,0,12,576.2,707.9)" />
<use xlink:href="#f2_23" transform="matrix(12,0,0,12,589,707.9)" />
<use xlink:href="#f2_1x" transform="matrix(12,0,0,12,598.2,707.9)" />
<use xlink:href="#f2_29" transform="matrix(12,0,0,12,606.6,707.9)" />
<use xlink:href="#f2_21" transform="matrix(12,0,0,12,620.6,707.9)" />
<use xlink:href="#f2_2g" transform="matrix(12,0,0,12,628.6,707.9)" />
<use xlink:href="#f2_2b" transform="matrix(12,0,0,12,634.1,707.9)" />
<use xlink:href="#f2_2c" transform="matrix(12,0,0,12,643.6,707.9)" />
<use xlink:href="#f2_24" transform="matrix(12,0,0,12,652.8,707.9)" />
<use xlink:href="#f2_2l" transform="matrix(12,0,0,12,662,707.9)" />
<use xlink:href="#f2_2g" transform="matrix(12,0,0,12,670.4,707.9)" />
<use xlink:href="#f2_21" transform="matrix(12,0,0,12,675.9,707.9)" />
<use xlink:href="#f2_i" transform="matrix(12,0,0,12,683.9,707.9)" />
</g>
<path fill-rule="evenodd" d="M80.3,733.1H857.2V711.9H80.3v21.2Z" class="g0_27" />
<g fill="#1F3331" >
<use xlink:href="#f0_3d" transform="matrix(10.1,0,0,10.1,82.5,729.1)" />
<use xlink:href="#f2_14" transform="matrix(12,0,0,12,110,729.1)" />
<use xlink:href="#f2_21" transform="matrix(12,0,0,12,123.3,729.1)" />
<use xlink:href="#f2_2i" transform="matrix(12,0,0,12,131.3,729.1)" />
<use xlink:href="#f2_21" transform="matrix(12,0,0,12,140.1,729.1)" />
<use xlink:href="#f2_28" transform="matrix(12,0,0,12,148.5,729.1)" />
<use xlink:href="#f2_2b" transform="matrix(12,0,0,12,152.9,729.1)" />
<use xlink:href="#f2_2c" transform="matrix(12,0,0,12,162.4,729.1)" />
<use xlink:href="#f2_29" transform="matrix(12,0,0,12,171.9,729.1)" />
<use xlink:href="#f2_21" transform="matrix(12,0,0,12,185.9,729.1)" />
<use xlink:href="#f2_2a" transform="matrix(12,0,0,12,194.3,729.1)" />
<use xlink:href="#f2_2g" transform="matrix(12,0,0,12,203.1,729.1)" />
<use xlink:href="#f2_2b" transform="matrix(12,0,0,12,213.3,729.1)" />
<use xlink:href="#f2_22" transform="matrix(12,0,0,12,222.8,729.1)" />
<use xlink:href="#f2_21" transform="matrix(12,0,0,12,233.3,729.1)" />
<use xlink:href="#f2_29" transform="matrix(12,0,0,12,241.7,729.1)" />
<use xlink:href="#f2_1y" transform="matrix(12,0,0,12,255.7,729.1)" />
<use xlink:href="#f2_2e" transform="matrix(12,0,0,12,264.5,729.1)" />
<use xlink:href="#f2_2l" transform="matrix(12,0,0,12,271,729.1)" />
<use xlink:href="#f2_2b" transform="matrix(12,0,0,12,279.5,729.1)" />
<use xlink:href="#f2_2f" transform="matrix(12,0,0,12,293.7,729.1)" />
<use xlink:href="#f2_1x" transform="matrix(12,0,0,12,300.7,729.1)" />
<use xlink:href="#f2_1z" transform="matrix(12,0,0,12,308.8,729.1)" />
<use xlink:href="#f2_22" transform="matrix(12,0,0,12,321.9,729.1)" />
<use xlink:href="#f2_2e" transform="matrix(12,0,0,12,327.4,729.1)" />
<use xlink:href="#f2_2b" transform="matrix(12,0,0,12,333.7,729.1)" />
<use xlink:href="#f2_29" transform="matrix(12,0,0,12,343.5,729.1)" />
<use xlink:href="#f2_1x" transform="matrix(12,0,0,12,362.1,729.1)" />
<use xlink:href="#f2_2f" transform="matrix(12,0,0,12,374.9,729.1)" />
<use xlink:href="#f2_25" transform="matrix(12,0,0,12,382.2,729.1)" />
<use xlink:href="#f2_2a" transform="matrix(12,0,0,12,387,729.1)" />
<use xlink:href="#f2_23" transform="matrix(12,0,0,12,395.8,729.1)" />
<use xlink:href="#f2_28" transform="matrix(12,0,0,12,405.3,729.1)" />
<use xlink:href="#f2_21" transform="matrix(12,0,0,12,410,729.1)" />
<use xlink:href="#f2_29" transform="matrix(12,0,0,12,423.2,729.1)" />
<use xlink:href="#f2_21" transform="matrix(12,0,0,12,437.2,729.1)" />
<use xlink:href="#f2_23" transform="matrix(12,0,0,12,445.2,729.1)" />
<use xlink:href="#f2_1x" transform="matrix(12,0,0,12,454.4,729.1)" />
<use xlink:href="#f2_2f" transform="matrix(12,0,0,12,462.5,729.1)" />
<use xlink:href="#f2_2c" transform="matrix(12,0,0,12,469.4,729.1)" />
<use xlink:href="#f2_2b" transform="matrix(12,0,0,12,478.9,729.1)" />
<use xlink:href="#f2_2e" transform="matrix(12,0,0,12,488.5,729.1)" />
<use xlink:href="#f2_21" transform="matrix(12,0,0,12,494.7,729.1)" />
<use xlink:href="#f2_25" transform="matrix(12,0,0,12,507.1,729.1)" />
<use xlink:href="#f2_2f" transform="matrix(12,0,0,12,511.9,729.1)" />
<use xlink:href="#f2_1z" transform="matrix(12,0,0,12,523.8,729.1)" />
<use xlink:href="#f2_1x" transform="matrix(12,0,0,12,531.9,729.1)" />
<use xlink:href="#f2_28" transform="matrix(12,0,0,12,540.3,729.1)" />
<use xlink:href="#f2_28" transform="matrix(12,0,0,12,545.1,729.1)" />
<use xlink:href="#f2_21" transform="matrix(12,0,0,12,549.8,729.1)" />
<use xlink:href="#f2_20" transform="matrix(12,0,0,12,558.2,729.1)" />
<use xlink:href="#f1_29" transform="matrix(12,0,0,12,572.2,729.1)" />
<use xlink:href="#f1_2b" transform="matrix(12,0,0,12,587.2,729.1)" />
<use xlink:href="#f1_2a" transform="matrix(12,0,0,12,596.4,729.1)" />
<use xlink:href="#f1_2b" transform="matrix(12,0,0,12,606.7,729.1)" />
<use xlink:href="#f1_2f" transform="matrix(12,0,0,12,615.8,729.1)" />
<use xlink:href="#f1_2c" transform="matrix(12,0,0,12,622.8,729.1)" />
<use xlink:href="#f1_2b" transform="matrix(12,0,0,12,633,729.1)" />
<use xlink:href="#f1_2e" transform="matrix(12,0,0,12,642.6,729.1)" />
<use xlink:href="#f1_25" transform="matrix(12,0,0,12,650.3,729.1)" />
<use xlink:href="#f1_1z" transform="matrix(12,0,0,12,655.4,729.1)" />
<use xlink:href="#f1_20" transform="matrix(12,0,0,12,668.2,729.1)" />
<use xlink:href="#f1_21" transform="matrix(12,0,0,12,678.5,729.1)" />
<use xlink:href="#f1_2i" transform="matrix(12,0,0,12,686.5,729.1)" />
<use xlink:href="#f1_21" transform="matrix(12,0,0,12,695.7,729.1)" />
<use xlink:href="#f1_28" transform="matrix(12,0,0,12,704.1,729.1)" />
<use xlink:href="#f1_2b" transform="matrix(12,0,0,12,708.9,729.1)" />
<use xlink:href="#f1_2c" transform="matrix(12,0,0,12,718,729.1)" />
<use xlink:href="#f1_29" transform="matrix(12,0,0,12,728.3,729.1)" />
<use xlink:href="#f1_21" transform="matrix(12,0,0,12,743.3,729.1)" />
<use xlink:href="#f1_2a" transform="matrix(12,0,0,12,751.4,729.1)" />
<use xlink:href="#f1_2g" transform="matrix(12,0,0,12,761.6,729.1)" />
<use xlink:href="#f2_i" transform="matrix(12,0,0,12,768.1,729.1)" />
</g>
<path fill-rule="evenodd" d="M52.8,775.7H857.2V754.4H52.8v21.3Z" class="g0_27" />
<path fill-rule="evenodd" d="M80.3,1197.5H857.2V797H80.3v400.5Z" class="g0_27" />
<image preserveAspectRatio="none" x="57" y="119" width="301" height="366" xlink:href="img/1.png" />
<image preserveAspectRatio="none" x="85" y="797" width="586" height="400" xlink:href="img/2.png" />
<g fill="#000000" >
<use xlink:href="#f4_l" transform="matrix(8,0,0,8,786.1,1264.1)" />
<use xlink:href="#f4_m" transform="matrix(8,0,0,8,792.9,1264.1)" />
</g>
<defs>
<path d="M273,157c0,0,-114,0,-193,80C80,237,0,317,0,431c0,0,0,112,80,192c0,0,79,80,193,80c0,0,113,0,192,-80c0,0,80,-80,80,-192c0,0,0,-114,-80,-194c0,0,-79,-80,-192,-80Z" 
id="f0_3d"
transform="scale(0.001,-0.001)" />

<path d="M608,-14c0,0,-251,0,-392,133C216,119,75,252,75,488c0,0,0,257,134,390c0,0,135,133,398,133c0,0,174,0,361,-50l4,-240H905L884,866c0,0,-98,67,-229,67c0,0,-173,0,-253,-108c0,0,-80,-108,-80,-334c0,0,0,-209,84,-319c0,0,83,-109,243,-109c0,0,84,0,147,22c0,0,63,22,99,53l24,164h68L982,48C982,48,915,22,808,4C808,4,700,-14,608,-14Z" 
id="f1_13"
transform="scale(0.001,-0.001)" />

<path d="M34,0V49l76,18V634L38,652v49H325V67L402,49V0ZM217,831c0,0,-48,0,-81,33c0,0,-34,33,-34,82c0,0,0,48,34,81c0,0,34,33,81,33c0,0,48,0,81,-33c0,0,33,-33,33,-81c0,0,0,-47,-33,-81c0,0,-32,-34,-81,-34Z" 
id="f1_25"
transform="scale(0.001,-0.001)" />

<path d="M41,0V49l91,18V634L41,652v49H336l8,-145c0,0,80,89,144,128c0,0,64,40,117,40h40V468H604l-45,94c0,0,-47,0,-106,-21c0,0,-60,-20,-105,-48V67L460,49V0Z" 
id="f1_2e"
transform="scale(0.001,-0.001)" />

<path d="M425,-14c0,0,-187,0,-280,90c0,0,-93,90,-93,276c0,0,0,115,42,198c0,0,43,82,121,126c0,0,78,44,182,44c0,0,104,0,227,-26V486H571L539,609c0,0,-25,19,-50,26c0,0,-24,7,-65,7c0,0,-44,0,-79,-35c0,0,-36,-35,-56,-98c0,0,-20,-64,-20,-153c0,0,0,-150,47,-214c0,0,47,-64,148,-64c0,0,103,0,176,21V42C640,42,606,15,547,0c0,0,-59,-14,-122,-14Z" 
id="f1_1z"
transform="scale(0.001,-0.001)" />

<path d="M41,0V49l69,18V634L41,652v49H313l11,-61l50,26c0,0,105,54,188,54c0,0,194,0,194,-207V67L827,49V0H478V49l63,18V484c0,0,0,63,-27,98c0,0,-26,35,-75,35c0,0,-57,0,-114,-25V67L389,49V0Z" 
id="f1_2a"
transform="scale(0.001,-0.001)" />

<path d="M379,60c0,0,59,0,84,64c0,0,24,65,24,231c0,0,0,164,-24,227c0,0,-24,63,-84,63c0,0,-57,0,-80,-60c0,0,-22,-61,-22,-230c0,0,0,-173,23,-234c0,0,22,-61,79,-61Zm-2,-74c0,0,-161,0,-240,91c0,0,-79,91,-79,277c0,0,0,186,80,276c0,0,81,90,245,90c0,0,167,0,245,-93c0,0,78,-93,78,-273c0,0,0,-188,-81,-278c0,0,-81,-90,-248,-90Z" 
id="f1_2b"
transform="scale(0.001,-0.001)" />

<path d="M327,-14c0,0,-101,0,-156,45c0,0,-55,45,-55,131V624H25v48l108,29l87,159H332V701H480V624H332V176c0,0,0,-49,20,-73c0,0,20,-25,53,-25c0,0,40,0,97,12V26c0,0,-22,-15,-76,-27c0,0,-55,-13,-99,-13Z" 
id="f1_2g"
transform="scale(0.001,-0.001)" />

<path d="M438,65c0,0,131,0,131,293c0,0,0,279,-130,279c0,0,-69,0,-127,-29V80c0,0,60,-15,126,-15ZM20,-325v50l76,18V634L19,652v49H304l1,-36c0,0,80,55,194,55c0,0,146,0,218,-86c0,0,71,-86,71,-271c0,0,0,-183,-83,-280c0,0,-83,-97,-238,-97c0,0,-79,0,-160,19c0,0,5,-48,5,-109V-257l103,-18v-50Z" 
id="f1_2c"
transform="scale(0.001,-0.001)" />

<path d="M287,-18c0,0,-194,0,-194,206V634L23,652v49H309V217c0,0,0,-63,26,-98c0,0,27,-35,76,-35c0,0,57,0,113,25V634l-64,18v49H740V67L809,49V0H536L526,61L475,35c0,0,-104,-53,-188,-53Z" 
id="f1_2h"
transform="scale(0.001,-0.001)" />

<path d="M276,-14c0,0,-57,0,-125,13C151,-1,83,10,48,23V214H97l28,-98c0,0,26,-26,69,-44c0,0,42,-17,86,-17c0,0,65,0,97,28c0,0,32,28,32,71c0,0,0,41,-31,65c0,0,-30,25,-133,57c0,0,-108,34,-154,92c0,0,-45,58,-45,143c0,0,0,95,71,152c0,0,71,57,183,57c0,0,77,0,207,-22V518H457l-24,82c0,0,-21,22,-60,35c0,0,-40,14,-75,14c0,0,-53,0,-79,-22c0,0,-26,-22,-26,-59c0,0,0,-40,32,-65c0,0,32,-26,132,-55c0,0,109,-34,155,-89c0,0,45,-55,45,-137c0,0,0,-117,-72,-177c0,0,-72,-59,-209,-59Z" 
id="f1_2f"
transform="scale(0.001,-0.001)" />

<path d="M248,-20c0,0,-52,0,-87,34c0,0,-36,36,-36,88c0,0,0,52,36,88c0,0,35,36,87,36c0,0,52,0,88,-36c0,0,36,-36,36,-88c0,0,0,-51,-36,-87c0,0,-35,-35,-88,-35Zm0,488c0,0,-52,0,-87,36c0,0,-36,36,-36,88c0,0,0,52,35,88c0,0,35,36,88,36c0,0,53,0,89,-36c0,0,35,-37,35,-88c0,0,0,-51,-36,-87c0,0,-35,-37,-88,-37Z" 
id="f1_u"
transform="scale(0.001,-0.001)" />

<path d="M56,294V424H453V294Z" 
id="f1_h"
transform="scale(0.001,-0.001)" />

<path d="M235,0V40L394,60V936H356c0,0,-189,0,-258,-15L78,766H28v234H908V766H857L837,921c0,0,-22,5,-98,9c0,0,-75,4,-165,4H538V60L697,40V0Z" 
id="f2_1k"
transform="scale(0.001,-0.001)" />

<path d="M442,0V33l93,19V504c0,0,0,129,-124,129c0,0,-70,0,-168,-22V52L338,33V0H31V33l88,19v956L15,1026v34H243V756c0,0,0,-77,-5,-112c0,0,54,31,122,53c0,0,68,23,115,23c0,0,91,0,137,-53c0,0,47,-53,47,-154V52L744,33V0Z" 
id="f2_24"
transform="scale(0.001,-0.001)" />

<path d="M495,413c0,0,0,133,-34,190c0,0,-34,57,-105,57c0,0,-78,0,-119,-63c0,0,-42,-62,-42,-184ZM374,-14c0,0,-163,0,-239,87c0,0,-75,88,-75,283c0,0,0,183,77,273c0,0,76,91,219,91c0,0,269,0,269,-306V353H194V340c0,0,0,-103,23,-160c0,0,22,-57,70,-87c0,0,47,-29,124,-29c0,0,40,0,96,6c0,0,55,7,91,15V43C598,43,562,20,500,3c0,0,-61,-17,-126,-17Z" 
id="f2_21"
transform="scale(0.001,-0.001)" />

<path d="M377,45c0,0,99,0,147,73c0,0,47,73,47,237c0,0,0,161,-47,233c0,0,-47,72,-147,72c0,0,-97,0,-141,-69c0,0,-44,-69,-44,-236c0,0,0,-169,45,-240c0,0,44,-70,140,-70Zm0,-59c0,0,-158,0,-238,94c0,0,-81,95,-81,274c0,0,0,178,81,272c0,0,80,94,244,94c0,0,160,0,241,-92c0,0,82,-92,82,-274c0,0,0,-368,-329,-368Z" 
id="f2_2b"
transform="scale(0.001,-0.001)" />

<path d="M360,-14L72,649L0,668v33H327V668L216,648L420,164L615,649L504,668v33H764V668L697,652L416,-14Z" 
id="f2_2i"
transform="scale(0.001,-0.001)" />

<path d="M289,-14c0,0,-179,0,-179,205V649L20,668v33H233V200c0,0,0,-128,120,-128c0,0,92,0,173,23V649L420,668v33H649V52L738,33V0H533l-6,57C527,57,474,28,405,7c0,0,-69,-21,-116,-21Z" 
id="f2_2h"
transform="scale(0.001,-0.001)" />

<path d="M31,0V33L150,52v956L31,1026v34H274V52L394,33V0Z" 
id="f2_28"
transform="scale(0.001,-0.001)" />

<path d="M249,-14c0,0,-71,0,-107,42c0,0,-35,42,-35,119V639H15v33l93,29l76,159h47V701H391V639H231V161c0,0,0,-48,22,-73c0,0,22,-24,57,-24c0,0,44,0,106,12V26C416,26,389,8,340,-2c0,0,-49,-12,-91,-12Z" 
id="f2_2g"
transform="scale(0.001,-0.001)" />

<path d="M31,0V33l88,19V649L31,668v33H235l7,-87c0,0,44,37,121,71c0,0,76,35,121,35h11V530H463l-43,82c0,0,-37,0,-88,-10c0,0,-52,-10,-89,-26V52L363,33V0Z" 
id="f2_2e"
transform="scale(0.001,-0.001)" />

<path d="M439,0V33l93,19V500c0,0,0,62,-30,97c0,0,-31,36,-94,36c0,0,-67,0,-165,-22V52L338,33V0H35V33l84,19V649L35,668v33H235l7,-57c0,0,57,33,122,54c0,0,65,22,108,22c0,0,91,0,137,-53c0,0,47,-53,47,-154V52L741,33V0Z" 
id="f2_2a"
transform="scale(0.001,-0.001)" />

<path d="M278,-14c0,0,-52,0,-115,11c0,0,-63,10,-99,23V193H98L134,95c0,0,56,-50,146,-50c0,0,144,0,144,123c0,0,0,91,-114,130l-66,21c0,0,-75,25,-110,50c0,0,-34,26,-53,63c0,0,-18,36,-18,89c0,0,0,92,63,145c0,0,63,54,170,54c0,0,77,0,193,-23V544H454l-32,81c0,0,-39,35,-124,35c0,0,-61,0,-92,-30c0,0,-32,-30,-32,-80c0,0,0,-43,29,-72c0,0,28,-29,86,-48c0,0,110,-38,144,-55c0,0,33,-17,57,-42c0,0,23,-25,36,-57c0,0,13,-32,13,-79c0,0,0,-104,-66,-158c0,0,-66,-53,-195,-53Z" 
id="f2_2f"
transform="scale(0.001,-0.001)" />

<path d="M284,67c0,0,51,0,88,12c0,0,37,12,74,30V358l-98,-3c0,0,-100,-4,-135,-39c0,0,-35,-35,-35,-117c0,0,0,-132,106,-132ZM233,-14c0,0,-179,0,-179,208c0,0,0,70,27,116c0,0,27,46,87,70c0,0,60,24,173,27l105,3V519c0,0,0,72,-26,107c0,0,-27,34,-82,34c0,0,-75,0,-137,-35L176,538H134V691c0,0,121,26,213,26c0,0,115,0,169,-47c0,0,54,-47,54,-144V52L657,33V0H465L451,70c0,0,-85,-84,-218,-84Z" 
id="f2_1x"
transform="scale(0.001,-0.001)" />

<path d="M431,0V33L535,52V499c0,0,0,62,-32,96c0,0,-32,33,-95,33c0,0,-66,0,-163,-22V52L350,33V0H32V33l89,19V649L32,668v33H237l6,-57c0,0,56,32,119,54c0,0,62,22,110,22c0,0,52,0,95,-20c0,0,44,-19,66,-62c0,0,57,32,134,57c0,0,77,25,128,25c0,0,179,0,179,-207V52l90,-19V0H846V33L950,52V499c0,0,0,129,-119,129c0,0,-19,0,-45,-3c0,0,-26,-3,-52,-7c0,0,-25,-4,-49,-8c0,0,-23,-5,-39,-8c0,0,13,-41,13,-89V52L764,33V0Z" 
id="f2_29"
transform="scale(0.001,-0.001)" />

<path d="M350,-14c0,0,-142,0,-269,31L73,228h49L156,87c0,0,29,-16,82,-28c0,0,54,-12,100,-12c0,0,117,0,173,54c0,0,56,53,56,178c0,0,0,99,-52,150c0,0,-51,51,-159,56l-107,6v61l107,7c0,0,84,5,124,52c0,0,41,48,41,145c0,0,0,101,-44,147c0,0,-44,45,-139,45c0,0,-40,0,-83,-10c0,0,-43,-11,-76,-29L153,786H104V979c0,0,74,19,127,26c0,0,54,6,107,6c0,0,321,0,321,-246c0,0,0,-104,-57,-165c0,0,-57,-62,-162,-77c0,0,136,-16,200,-78c0,0,64,-62,64,-173c0,0,0,-135,-92,-211c0,0,-93,-75,-262,-75Z" 
id="f2_n"
transform="scale(0.001,-0.001)" />

<path d="M410,45c0,0,90,0,130,58c0,0,40,59,40,193c0,0,0,122,-38,177c0,0,-38,54,-122,54c0,0,-102,0,-217,-37c0,0,0,-227,51,-336c0,0,52,-109,156,-109Zm3,-59c0,0,-169,0,-258,131c0,0,-89,131,-89,377c0,0,0,161,47,278c0,0,47,117,131,178c0,0,85,61,196,61c0,0,109,0,217,-26V813H608L582,915c0,0,-25,13,-67,23c0,0,-41,10,-75,10c0,0,-109,0,-170,-105c0,0,-60,-106,-66,-308c0,0,121,63,244,63c0,0,132,0,201,-74c0,0,69,-74,69,-214c0,0,0,-156,-78,-240c0,0,-79,-84,-227,-84Z" 
id="f2_q"
transform="scale(0.001,-0.001)" />

<path d="M377,45c0,0,99,0,145,108c0,0,46,109,46,352c0,0,0,240,-45,345c0,0,-46,106,-146,106c0,0,-97,0,-139,-100c0,0,-43,-99,-43,-351c0,0,0,-254,44,-357c0,0,43,-103,138,-103Zm0,-59c0,0,-158,0,-238,132c0,0,-81,133,-81,386c0,0,0,249,81,380c0,0,80,132,244,132c0,0,159,0,241,-130c0,0,82,-130,82,-382c0,0,0,-518,-329,-518Z" 
id="f2_k"
transform="scale(0.001,-0.001)" />

<path d="M551,45c0,0,171,0,252,108c0,0,82,108,82,349c0,0,0,239,-81,344c0,0,-81,105,-253,105c0,0,-172,0,-252,-105c0,0,-80,-105,-80,-344c0,0,0,-241,80,-349c0,0,81,-108,252,-108Zm0,-59c0,0,-238,0,-363,129C188,115,63,245,63,501c0,0,0,510,488,510c0,0,242,0,366,-129c0,0,124,-130,124,-381c0,0,0,-255,-126,-385C915,116,790,-14,551,-14Z" 
id="f2_1f"
transform="scale(0.001,-0.001)" />

<path d="M359,-270c0,0,124,0,192,46c0,0,67,47,67,129c0,0,0,43,-26,67c0,0,-26,24,-79,24H242c0,0,-32,-27,-51,-69c0,0,-20,-41,-20,-77c0,0,0,-64,46,-92c0,0,46,-28,142,-28Zm11,561c0,0,81,0,115,47c0,0,34,47,34,141c0,0,0,100,-35,142c0,0,-35,42,-113,42c0,0,-78,0,-114,-43c0,0,-37,-42,-37,-141c0,0,0,-98,36,-143c0,0,36,-45,114,-45ZM359,-329c0,0,-143,0,-218,44c0,0,-75,43,-75,125c0,0,0,39,27,78c0,0,26,38,98,89c0,0,-43,14,-72,48c0,0,-29,35,-29,74L208,262c0,0,-118,55,-118,217c0,0,0,115,73,178c0,0,73,63,211,63c0,0,28,0,71,-6c0,0,44,-6,67,-13l165,83l26,-32L599,644c0,0,50,-56,50,-165c0,0,0,-120,-72,-182c0,0,-73,-62,-208,-62c0,0,-62,0,-114,11L208,148c0,0,2,-13,29,-24c0,0,27,-12,67,-12H512c0,0,113,0,168,-49c0,0,55,-49,55,-134c0,0,0,-79,-44,-137c0,0,-43,-58,-128,-90c0,0,-84,-31,-204,-31Z" 
id="f2_23"
transform="scale(0.001,-0.001)" />

<path d="M64,0V34L168,59V639H47v36l121,29v49c0,0,0,155,61,239c0,0,62,84,173,84c0,0,58,0,107,-15V908H472l-33,92c0,0,-26,16,-62,16c0,0,-47,0,-66,-42c0,0,-19,-42,-19,-157V701H478V639H292V59L443,34V0Z" 
id="f2_22"
transform="scale(0.001,-0.001)" />

<path d="M32,0V33L151,52V649L52,668v33H275V52L395,33V0ZM201,850c0,0,-32,0,-56,24c0,0,-24,24,-24,56c0,0,0,34,24,58c0,0,24,24,56,24c0,0,34,0,58,-24c0,0,24,-24,24,-58c0,0,0,-32,-24,-56c0,0,-24,-24,-58,-24Z" 
id="f2_25"
transform="scale(0.001,-0.001)" />

<path d="M399,-14c0,0,-341,0,-341,370c0,0,0,175,87,269c0,0,87,95,249,95c0,0,101,0,220,-23V501H573L541,625c0,0,-62,35,-149,35c0,0,-200,0,-200,-304c0,0,0,-158,61,-225c0,0,61,-67,189,-67c0,0,109,0,189,24V43C631,43,595,16,530,1c0,0,-64,-15,-131,-15Z" 
id="f2_1z"
transform="scale(0.001,-0.001)" />

<path d="M376,50c0,0,103,0,149,80c0,0,46,81,46,240c0,0,0,137,-47,204c0,0,-48,67,-148,67c0,0,-44,0,-87,-7c0,0,-44,-8,-63,-17V62c0,0,63,-12,150,-12Zm3,-64c0,0,-64,0,-141,14c0,0,-78,14,-136,37v971L0,1026v34H226V809c0,0,0,-40,-4,-148c0,0,74,59,188,59c0,0,143,0,219,-87c0,0,77,-87,77,-263c0,0,0,-189,-84,-287c0,0,-84,-97,-243,-97Z" 
id="f2_1y"
transform="scale(0.001,-0.001)" />

<path d="M383,64c0,0,85,0,152,28V645c0,0,-67,13,-152,13c0,0,-194,0,-194,-314c0,0,0,-141,48,-211c0,0,48,-69,146,-69ZM342,-14c0,0,-287,0,-287,358c0,0,0,184,82,280c0,0,81,96,239,96c0,0,81,0,163,-18c0,0,-4,25,-4,124v182l-118,18v34H659V52L745,33V0H548l-9,52c0,0,-84,-66,-197,-66Z" 
id="f2_20"
transform="scale(0.001,-0.001)" />

<path d="M191,-20c0,0,-39,0,-65,25c0,0,-25,27,-25,64c0,0,0,38,26,64c0,0,26,26,64,26c0,0,38,0,64,-26c0,0,26,-26,26,-64c0,0,0,-37,-25,-64c0,0,-26,-25,-65,-25Z" 
id="f2_i"
transform="scale(0.001,-0.001)" />

<path d="M44,0V40L172,60V941L44,960v40H794V760H745L721,922c0,0,-83,11,-241,11H316V543H586l23,119h48V354H609L586,475H316V67H513c0,0,193,0,252,12l43,185h49L843,0Z" 
id="f2_15"
transform="scale(0.001,-0.001)" />

<path d="M13,0V34L95,46L325,350L122,649L40,668v33H357V668L264,648L399,446L554,649l-96,19v33H710V668L630,652L433,397L663,50L745,34V0H427V34l94,17L359,299L169,50L266,34V0Z" 
id="f2_2k"
transform="scale(0.001,-0.001)" />

<path d="M382,45c0,0,188,0,188,314c0,0,0,143,-47,213c0,0,-46,69,-141,69c0,0,-87,0,-146,-24V58c0,0,67,-13,146,-13ZM25,-325v35l88,18V649L34,668v33H231l1,-41c0,0,31,27,84,43c0,0,53,17,107,17c0,0,134,0,208,-94c0,0,73,-93,73,-267c0,0,0,-178,-80,-276c0,0,-80,-97,-232,-97c0,0,-84,0,-160,16c0,0,4,-53,4,-84V-272l123,-18v-35Z" 
id="f2_2c"
transform="scale(0.001,-0.001)" />

<path d="M500,49c0,0,111,0,205,75c0,0,95,75,154,216c0,0,59,140,59,280c0,0,0,150,-76,240c0,0,-77,91,-202,91c0,0,-111,0,-204,-75c0,0,-93,-76,-151,-217c0,0,-59,-141,-59,-284c0,0,0,-147,75,-237c0,0,75,-89,199,-89Zm-5,-63c0,0,-121,0,-216,50c0,0,-96,50,-149,142c0,0,-53,91,-53,205c0,0,0,180,74,326c0,0,75,145,204,224c0,0,129,78,295,78c0,0,120,0,216,-50c0,0,96,-51,149,-142c0,0,53,-91,53,-206c0,0,0,-177,-75,-325C993,288,918,140,789,63c0,0,-129,-77,-294,-77Z" 
id="f3_1f"
transform="scale(0.001,-0.001)" />

<path d="M317,45c0,0,74,0,134,54c0,0,60,55,97,153c0,0,36,98,36,200c0,0,0,82,-33,129c0,0,-33,46,-89,46c0,0,-40,0,-93,-29c0,0,-54,-29,-96,-75L192,81c0,0,46,-36,125,-36ZM-88,-325l5,35l90,17L170,649L93,668l6,33H297L283,588c0,0,130,132,235,132c0,0,90,0,145,-67c0,0,55,-66,55,-182c0,0,0,-132,-56,-244C662,227,606,114,510,49c0,0,-97,-63,-209,-63c0,0,-35,0,-72,5c0,0,-37,5,-55,11l-8,-67L130,-273l119,-17l-6,-35Z" 
id="f3_2c"
transform="scale(0.001,-0.001)" />

<path d="M228,-17c0,0,-76,0,-114,40c0,0,-38,41,-38,117c0,0,0,11,4,39c0,0,4,29,80,470L78,667l6,34H293L217,268c0,0,-17,-94,-17,-124c0,0,0,-34,18,-55c0,0,18,-21,57,-21c0,0,55,0,120,47c0,0,65,47,107,115l83,471H709L595,52L683,33L677,0H469l20,144C489,144,427,64,360,23c0,0,-67,-40,-132,-40Z" 
id="f3_2h"
transform="scale(0.001,-0.001)" />

<path d="M54,0L169,649L81,668l6,33H294L274,558c0,0,62,81,130,121c0,0,67,41,132,41c0,0,75,0,113,-41c0,0,38,-41,38,-117c0,0,0,-10,-3,-32c0,0,-3,-21,-81,-478L700,34L695,0H470l76,434c0,0,17,94,17,123c0,0,0,34,-18,55c0,0,-18,21,-56,21c0,0,-56,0,-121,-47c0,0,-65,-47,-108,-117L178,0Z" 
id="f3_2a"
transform="scale(0.001,-0.001)" />

<path d="M200,-14c0,0,-59,0,-93,35c0,0,-34,36,-34,100c0,0,0,22,4,51c0,0,4,30,82,467H67l6,33l99,29L275,860h47L295,701H455L443,639H283L210,230c0,0,-13,-69,-13,-99c0,0,0,-34,17,-51c0,0,17,-16,43,-16c0,0,54,0,113,21L386,50c0,0,-92,-64,-186,-64Z" 
id="f3_2g"
transform="scale(0.001,-0.001)" />

<path d="M85,0L199,649l-96,19l6,33H332L218,52L335,33L329,0ZM297,849c0,0,-33,0,-57,24c0,0,-24,24,-24,57c0,0,0,33,24,57c0,0,24,24,57,24c0,0,33,0,57,-24c0,0,24,-24,24,-57c0,0,0,-33,-24,-57c0,0,-24,-24,-57,-24Z" 
id="f3_25"
transform="scale(0.001,-0.001)" />

<path d="M301,78c0,0,85,0,185,104l81,442c0,0,-29,20,-55,28c0,0,-25,8,-62,8c0,0,-75,0,-137,-56c0,0,-62,-56,-98,-152c0,0,-36,-95,-36,-199c0,0,0,-79,33,-127c0,0,33,-48,89,-48ZM245,-14c0,0,-90,0,-145,66c0,0,-54,66,-54,182c0,0,0,131,57,244c0,0,57,114,152,178c0,0,96,64,208,64c0,0,90,0,170,-33l33,26h40L589,52L673,33L667,0H454l22,117C476,117,350,-14,245,-14Z" 
id="f3_1x"
transform="scale(0.001,-0.001)" />

<path d="M900,0V54l135,20V845L658,0H617L248,845V74L382,54V0H26V54L154,74V926L26,945v55H419L705,342l292,658h401V945L1270,926V74L1398,54V0Z" 
id="f1_1d"
transform="scale(0.001,-0.001)" />

<path d="M434,423c0,0,0,101,-7,142c0,0,-6,40,-22,60c0,0,-16,19,-45,19c0,0,-44,0,-66,-48c0,0,-22,-49,-22,-173ZM389,-14c0,0,-172,0,-254,89c0,0,-83,90,-83,279c0,0,0,184,79,274c0,0,79,91,238,91c0,0,142,0,206,-76c0,0,64,-76,64,-237V345H271V333c0,0,0,-111,18,-158c0,0,18,-47,58,-72c0,0,40,-25,110,-25c0,0,66,0,166,22V42C623,42,582,18,517,1c0,0,-66,-15,-128,-15Z" 
id="f1_21"
transform="scale(0.001,-0.001)" />

<path d="M360,-256c0,0,108,0,167,35c0,0,59,35,59,98c0,0,0,70,-95,70H254c0,0,-65,-47,-65,-108c0,0,0,-47,46,-71c0,0,45,-24,125,-24Zm9,561c0,0,55,0,79,43c0,0,25,43,25,129c0,0,0,87,-24,127c0,0,-25,41,-80,41c0,0,-52,0,-75,-41c0,0,-24,-40,-24,-127c0,0,0,-86,23,-129c0,0,23,-43,76,-43Zm-9,-641c0,0,-153,0,-236,43c0,0,-84,44,-84,120c0,0,0,33,28,65c0,0,27,31,105,76c0,0,-44,17,-75,59c0,0,-31,43,-31,90L192,258c0,0,-133,56,-133,219c0,0,0,116,81,180c0,0,82,63,233,63c0,0,32,0,82,-6c0,0,51,-6,74,-13l168,83l26,-32L638,631c0,0,46,-57,46,-154c0,0,0,-119,-80,-182c0,0,-80,-64,-234,-64c0,0,-59,0,-114,9L238,183c0,0,1,-22,28,-41c0,0,26,-19,64,-19H493c0,0,256,0,256,-196c0,0,0,-81,-44,-139c0,0,-45,-59,-131,-92c0,0,-86,-32,-214,-32Z" 
id="f1_23"
transform="scale(0.001,-0.001)" />

<path d="M345,75c0,0,50,0,110,26V351l-63,-2c0,0,-72,-3,-100,-38c0,0,-28,-35,-28,-113c0,0,0,-63,22,-93c0,0,23,-30,59,-30ZM266,-14c0,0,-217,0,-217,208c0,0,0,79,32,126c0,0,32,48,93,71c0,0,60,22,190,25l91,2V521c0,0,0,126,-104,126c0,0,-62,0,-140,-39L183,521H134V691c0,0,112,17,165,21c0,0,53,5,108,5c0,0,264,0,264,-194V67L741,49V0H483L466,54C466,54,408,14,361,0c0,0,-47,-14,-95,-14Z" 
id="f1_1x"
transform="scale(0.001,-0.001)" />

<path d="M148,-329c0,0,-58,0,-114,13v151H69l24,-71c0,0,23,-17,64,-17c0,0,39,0,72,22c0,0,33,23,60,67c0,0,27,44,68,157L90,649L19,668v33H344V668L233,648L423,158L606,649L497,668v33H758V668L685,652L411,-43c0,0,-48,-124,-84,-177c0,0,-36,-54,-79,-82c0,0,-44,-27,-100,-27Z" 
id="f2_2l"
transform="scale(0.001,-0.001)" />

<path d="M460,-325c0,0,-148,79,-231,172c0,0,-84,93,-123,217c0,0,-39,126,-39,304c0,0,0,178,39,303c0,0,39,125,122,217c0,0,82,93,232,172V997c0,0,-91,-52,-145,-134c0,0,-54,-81,-79,-190c0,0,-25,-109,-25,-305c0,0,0,-194,26,-309c0,0,26,-114,82,-193c0,0,56,-79,141,-128v-63Z" 
id="f2_c"
transform="scale(0.001,-0.001)" />

<path d="M617,0L251,860V60L385,40V0H44V40L172,60V941L44,960v40H347L672,239l355,761h287V960L1185,941V60L1314,40V0H908V40l134,20V859L643,0Z" 
id="f2_1d"
transform="scale(0.001,-0.001)" />

<path d="M577,-14c0,0,-243,0,-379,132C198,118,63,250,63,488c0,0,0,258,130,391c0,0,131,132,387,132c0,0,156,0,335,-38l5,-218H871L848,884c0,0,-52,32,-121,50c0,0,-69,17,-141,17c0,0,-191,0,-279,-112c0,0,-88,-113,-88,-349c0,0,0,-217,92,-332c0,0,92,-115,268,-115c0,0,85,0,160,20c0,0,76,21,120,55l27,149h49L930,32c0,0,-164,-46,-353,-46Z" 
id="f2_13"
transform="scale(0.001,-0.001)" />

<path d="M49,-325v63c0,0,85,49,140,128c0,0,56,79,83,194c0,0,26,115,26,308c0,0,0,196,-25,305c0,0,-25,109,-79,190c0,0,-54,82,-145,134v63c0,0,149,-80,232,-172c0,0,83,-92,122,-217c0,0,39,-125,39,-303c0,0,0,-177,-39,-303c0,0,-39,-125,-122,-217c0,0,-83,-93,-232,-173Z" 
id="f2_d"
transform="scale(0.001,-0.001)" />

<path d="M55,0V40L184,60V941L55,960v40H455V960L327,941V60L455,40V0Z" 
id="f2_19"
transform="scale(0.001,-0.001)" />

<path d="M64,-325c0,0,-46,0,-107,14v148H-8l19,-81c0,0,25,-21,62,-21c0,0,44,0,67,47c0,0,22,47,22,152V649L57,668v33H286V-28c0,0,0,-146,-57,-221c0,0,-56,-76,-165,-76ZM213,850c0,0,-34,0,-58,24c0,0,-24,24,-24,56c0,0,0,34,24,58c0,0,24,24,58,24c0,0,32,0,56,-24c0,0,24,-24,24,-58c0,0,0,-32,-24,-56c0,0,-24,-24,-56,-24Z" 
id="f2_26"
transform="scale(0.001,-0.001)" />

<path d="M327,-14L84,649L1,668v33H335V668L219,648L385,174L554,632h63L786,171L944,649L830,668v33h267V668l-78,-16L784,-14H726L553,448L382,-14Z" 
id="f2_2j"
transform="scale(0.001,-0.001)" />

<path d="M58,-234v58c0,0,131,42,131,125c0,0,0,15,-11,27c0,0,-11,12,-38,25C140,1,89,27,89,75c0,0,0,40,25,61c0,0,26,21,65,21c0,0,48,0,77,-34c0,0,30,-34,30,-86c0,0,0,-101,-60,-170c0,0,-59,-69,-168,-101Z" 
id="f2_g"
transform="scale(0.001,-0.001)" />

<path d="M529,65c0,0,183,0,270,108c0,0,87,108,87,334c0,0,0,210,-113,318c0,0,-113,108,-322,108H316V71c0,0,90,-6,213,-6Zm0,-67L172,0H44V40L172,60V941L44,960v40H498c0,0,277,0,411,-123c0,0,133,-124,133,-371c0,0,0,-251,-129,-380C913,126,785,-2,529,-2Z" 
id="f2_14"
transform="scale(0.001,-0.001)" />

<path d="M41,0V49l69,18V634L41,652v49H313l11,-61l50,26c0,0,105,54,188,54c0,0,125,0,167,-91c0,0,153,91,258,91c0,0,189,0,189,-207V67l71,-17V0H898V50l63,17V484c0,0,0,63,-24,98c0,0,-25,35,-74,35c0,0,-55,0,-119,-31c0,0,7,-32,7,-73V67L821,50V0H473V50l63,17V484c0,0,0,63,-25,98c0,0,-24,35,-73,35c0,0,-49,0,-113,-29V67L389,49V0Z" 
id="f1_29"
transform="scale(0.001,-0.001)" />

<path d="M416,68c0,0,60,0,124,32V628c0,0,-58,15,-118,15c0,0,-67,0,-104,-73c0,0,-38,-73,-38,-216c0,0,0,-139,36,-212c0,0,35,-74,100,-74ZM369,-14c0,0,-155,0,-231,88c0,0,-76,90,-76,274c0,0,0,182,82,277c0,0,81,95,236,95c0,0,82,0,165,-20c0,0,-5,24,-5,115V992l-72,18v50H756V67L833,49V0H562L547,40C547,40,505,13,483,4c0,0,-23,-7,-51,-12c0,0,-28,-6,-63,-6Z" 
id="f1_20"
transform="scale(0.001,-0.001)" />

<path d="M342,-14L49,634L0,652v49H359V652L275,632L455,233L617,634l-82,18v49H764V652L713,637L433,-14Z" 
id="f1_2i"
transform="scale(0.001,-0.001)" />

<path d="M30,0V49l76,18V992l-72,18v50H322V67L398,49V0Z" 
id="f1_28"
transform="scale(0.001,-0.001)" />

<path d="M435,0V856c0,0,-48,-47,-127,-93c0,0,-79,-46,-142,-69V824c0,0,113,52,197,128c0,0,85,75,120,146h86V0Z" 
id="f4_l"
transform="scale(0.001,-0.001)" />

<path d="M46,0c0,0,-2,48,16,93c0,0,27,74,88,146c0,0,61,71,176,165c0,0,178,146,241,232c0,0,63,85,63,161c0,0,0,80,-57,135c0,0,-58,55,-149,55c0,0,-98,0,-156,-59c0,0,-58,-58,-59,-160L71,782c0,0,15,154,107,235c0,0,93,81,249,81c0,0,157,0,249,-87c0,0,92,-88,92,-217c0,0,0,-65,-27,-129c0,0,-27,-63,-89,-133c0,0,-62,-70,-207,-193C445,339,324,238,290,202c0,0,-35,-36,-57,-73H770V0Z" 
id="f4_m"
transform="scale(0.001,-0.001)" />


</defs>
</svg>