<?xml version="1.0" encoding="UTF-8" standalone="no"?>
<!DOCTYPE svg PUBLIC "-//W3C//DTD SVG 1.1//EN"
"http://www.w3.org/Graphics/SVG/1.1/DTD/svg11.dtd">
<svg viewBox="0 0 935 1210" version="1.1" xmlns="http://www.w3.org/2000/svg" xmlns:xlink="http://www.w3.org/1999/xlink">
<defs>
</defs>
<g fill="#000000" >
<use xlink:href="#f0_af" transform="matrix(11,0,0,11,55,71.2)" />
<use xlink:href="#f0_9q" transform="matrix(11,0,0,11,63.8,71.2)" />
<use xlink:href="#f0_bf" transform="matrix(11,0,0,11,67.9,71.2)" />
<use xlink:href="#f0_b1" transform="matrix(11,0,0,11,73.4,71.2)" />
<use xlink:href="#f0_am" transform="matrix(11,0,0,11,79.2,71.2)" />
<use xlink:href="#f0_9d" transform="matrix(11,0,0,11,88,71.2)" />
<use xlink:href="#f0_7z" transform="matrix(11,0,0,11,96.1,71.2)" />
<use xlink:href="#f0_af" transform="matrix(11,0,0,11,104.5,71.2)" />
<use xlink:href="#f0_nq" transform="matrix(11,0,0,11,113.3,71.2)" />
<use xlink:href="#f0_7z" transform="matrix(11,0,0,11,121.4,71.2)" />
<use xlink:href="#f0_nt" transform="matrix(11,0,0,11,129.8,71.2)" />
<use xlink:href="#f0_9d" transform="matrix(11,0,0,11,134.2,71.2)" />
<use xlink:href="#f0_nt" transform="matrix(11,0,0,11,142.2,71.2)" />
<use xlink:href="#f1_5" transform="matrix(11,0,0,11,150.8,71.2)" />
<use xlink:href="#f1_af" transform="matrix(11,0,0,11,160.7,71.2)" />
<use xlink:href="#f1_77" transform="matrix(11,0,0,11,169.1,71.2)" />
<use xlink:href="#f1_7k" transform="matrix(11,0,0,11,177.9,71.2)" />
<use xlink:href="#f1_77" transform="matrix(11,0,0,11,186.3,71.2)" />
<use xlink:href="#f1_7z" transform="matrix(11,0,0,11,195.1,71.2)" />
<use xlink:href="#f1_af" transform="matrix(11,0,0,11,203.2,71.2)" />
<use xlink:href="#f1_77" transform="matrix(11,0,0,11,211.6,71.2)" />
<use xlink:href="#f0_nq" transform="matrix(11,0,0,11,220.4,71.2)" />
<use xlink:href="#f1_1y" transform="matrix(11,0,0,11,228.5,71.2)" />
<use xlink:href="#f1_am" transform="matrix(11,0,0,11,239.5,71.2)" />
<use xlink:href="#f1_b5" transform="matrix(11,0,0,11,248.3,71.2)" />
<use xlink:href="#f1_bf" transform="matrix(11,0,0,11,254.8,71.2)" />
<use xlink:href="#f1_am" transform="matrix(11,0,0,11,260.4,71.2)" />
<use xlink:href="#f1_7l" transform="matrix(11,0,0,11,269.2,71.2)" />
<use xlink:href="#f0_nq" transform="matrix(11,0,0,11,276.2,71.2)" />
<use xlink:href="#f1_24" transform="matrix(11,0,0,11,284.3,71.2)" />
<use xlink:href="#f1_b5" transform="matrix(11,0,0,11,295.3,71.2)" />
<use xlink:href="#f1_7l" transform="matrix(11,0,0,11,301.9,71.2)" />
<use xlink:href="#f1_9q" transform="matrix(11,0,0,11,308.9,71.2)" />
<use xlink:href="#f1_a8" transform="matrix(11,0,0,11,312.9,71.2)" />
<use xlink:href="#f1_a8" transform="matrix(11,0,0,11,316.9,71.2)" />
<use xlink:href="#f1_77" transform="matrix(11,0,0,11,320.5,71.2)" />
<use xlink:href="#f1_bf" transform="matrix(11,0,0,11,329.3,71.2)" />
<use xlink:href="#f1_am" transform="matrix(11,0,0,11,334.8,71.2)" />
<use xlink:href="#f1_b1" transform="matrix(11,0,0,11,343.6,71.2)" />
<use xlink:href="#f1_9q" transform="matrix(11,0,0,11,349.1,71.2)" />
<use xlink:href="#f1_77" transform="matrix(11,0,0,11,353.1,71.2)" />
<use xlink:href="#f1_nq" transform="matrix(11,0,0,11,361.9,71.2)" />
<use xlink:href="#f0_7z" transform="matrix(11,0,0,11,370.1,71.2)" />
<use xlink:href="#f0_bf" transform="matrix(11,0,0,11,378.5,71.2)" />
<use xlink:href="#f0_7l" transform="matrix(11,0,0,11,384.1,71.2)" />
<use xlink:href="#f0_nt" transform="matrix(11,0,0,11,391,71.2)" />
<use xlink:href="#f0_2t" transform="matrix(11,0,0,11,399.5,71.2)" />
<use xlink:href="#f0_9n" transform="matrix(11,0,0,11,407.5,71.2)" />
<use xlink:href="#f0_7z" transform="matrix(11,0,0,11,416.3,71.2)" />
<use xlink:href="#f0_b1" transform="matrix(11,0,0,11,425.1,71.2)" />
<use xlink:href="#f0_7z" transform="matrix(11,0,0,11,431,71.2)" />
<use xlink:href="#f0_89" transform="matrix(11,0,0,11,439.4,71.2)" />
<use xlink:href="#f0_am" transform="matrix(11,0,0,11,444.5,71.2)" />
<use xlink:href="#f0_b1" transform="matrix(11,0,0,11,453.3,71.2)" />
<use xlink:href="#f0_7z" transform="matrix(11,0,0,11,459.2,71.2)" />
<use xlink:href="#f0_nq" transform="matrix(11,0,0,11,467.6,71.2)" />
<use xlink:href="#f0_7l" transform="matrix(11,0,0,11,475.8,71.2)" />
<use xlink:href="#f0_co" transform="matrix(11,0,0,11,482.7,71.2)" />
<use xlink:href="#f0_77" transform="matrix(11,0,0,11,490.4,71.2)" />
<use xlink:href="#f0_af" transform="matrix(11,0,0,11,498.5,71.2)" />
<use xlink:href="#f0_am" transform="matrix(11,0,0,11,507.3,71.2)" />
<use xlink:href="#f0_7k" transform="matrix(11,0,0,11,516.1,71.2)" />
<use xlink:href="#f0_77" transform="matrix(11,0,0,11,524.9,71.2)" />
<use xlink:href="#f0_7l" transform="matrix(11,0,0,11,533,71.2)" />
<use xlink:href="#f0_bf" transform="matrix(11,0,0,11,540.3,71.2)" />
<use xlink:href="#f0_7z" transform="matrix(11,0,0,11,545.8,71.2)" />
<use xlink:href="#f0_b1" transform="matrix(11,0,0,11,554.2,71.2)" />
<use xlink:href="#f0_9q" transform="matrix(11,0,0,11,560,71.2)" />
<use xlink:href="#f0_77" transform="matrix(11,0,0,11,564.1,71.2)" />
<use xlink:href="#f0_b5" transform="matrix(11,0,0,11,576.2,71.2)" />
<use xlink:href="#f0_7z" transform="matrix(11,0,0,11,582.8,71.2)" />
<use xlink:href="#f0_b1" transform="matrix(11,0,0,11,591.2,71.2)" />
<use xlink:href="#f0_ch" transform="matrix(11,0,0,11,597,71.2)" />
<use xlink:href="#f0_7z" transform="matrix(11,0,0,11,604.7,71.2)" />
<use xlink:href="#f0_77" transform="matrix(11,0,0,11,617.2,71.2)" />
<use xlink:href="#f0_b5" transform="matrix(11,0,0,11,625.3,71.2)" />
<use xlink:href="#f0_77" transform="matrix(11,0,0,11,635.9,71.2)" />
<use xlink:href="#f0_af" transform="matrix(11,0,0,11,644,71.2)" />
<use xlink:href="#f0_9q" transform="matrix(11,0,0,11,656.8,71.2)" />
<use xlink:href="#f0_ae" transform="matrix(11,0,0,11,660.8,71.2)" />
<use xlink:href="#f0_ay" transform="matrix(11,0,0,11,674.3,71.2)" />
<use xlink:href="#f0_am" transform="matrix(11,0,0,11,683.1,71.2)" />
<use xlink:href="#f0_b1" transform="matrix(11,0,0,11,692.2,71.2)" />
<use xlink:href="#f0_bf" transform="matrix(11,0,0,11,698,71.2)" />
<use xlink:href="#f0_77" transform="matrix(11,0,0,11,703.5,71.2)" />
<use xlink:href="#f0_af" transform="matrix(11,0,0,11,711.6,71.2)" />
<use xlink:href="#f0_bf" transform="matrix(11,0,0,11,720.4,71.2)" />
<use xlink:href="#f0_7k" transform="matrix(11,0,0,11,730.3,71.2)" />
<use xlink:href="#f0_9q" transform="matrix(11,0,0,11,739.1,71.2)" />
<use xlink:href="#f0_am" transform="matrix(11,0,0,11,743.1,71.2)" />
<use xlink:href="#f0_89" transform="matrix(11,0,0,11,751.9,71.2)" />
<use xlink:href="#f0_7z" transform="matrix(11,0,0,11,757.1,71.2)" />
<use xlink:href="#f0_b1" transform="matrix(11,0,0,11,765.5,71.2)" />
<use xlink:href="#f0_bf" transform="matrix(11,0,0,11,771.3,71.2)" />
<use xlink:href="#f0_9q" transform="matrix(11,0,0,11,776.8,71.2)" />
<use xlink:href="#f0_a8" transform="matrix(11,0,0,11,780.9,71.2)" />
<use xlink:href="#f0_9q" transform="matrix(11,0,0,11,784.9,71.2)" />
<use xlink:href="#f0_ct" transform="matrix(11,0,0,11,788.9,71.2)" />
<use xlink:href="#f0_7z" transform="matrix(11,0,0,11,795.1,71.2)" />
<use xlink:href="#f0_b1" transform="matrix(11,0,0,11,803.5,71.2)" />
<use xlink:href="#f0_7z" transform="matrix(11,0,0,11,813.6,71.2)" />
<use xlink:href="#f0_b5" transform="matrix(11,0,0,11,822,71.2)" />
<use xlink:href="#f0_ay" transform="matrix(11,0,0,11,828.6,71.2)" />
<use xlink:href="#f0_7z" transform="matrix(11,0,0,11,837.4,71.2)" />
<use xlink:href="#f0_7l" transform="matrix(11,0,0,11,845.8,71.2)" />
<use xlink:href="#f0_9q" transform="matrix(11,0,0,11,852.8,71.2)" />
<use xlink:href="#f0_77" transform="matrix(11,0,0,11,856.8,71.2)" />
<use xlink:href="#f0_a8" transform="matrix(11,0,0,11,864.9,71.2)" />
<use xlink:href="#f0_a8" transform="matrix(11,0,0,11,868.9,71.2)" />
<use xlink:href="#f0_co" transform="matrix(11,0,0,11,872.9,71.2)" />
<use xlink:href="#f0_9q" transform="matrix(11,0,0,11,55,102)" />
<use xlink:href="#f0_af" transform="matrix(11,0,0,11,59.1,102)" />
<use xlink:href="#f0_ay" transform="matrix(11,0,0,11,71.5,102)" />
<use xlink:href="#f0_77" transform="matrix(11,0,0,11,80.3,102)" />
<use xlink:href="#f0_7v" transform="matrix(11,0,0,11,88.4,102)" />
<use xlink:href="#f0_7v" transform="matrix(11,0,0,11,97.2,102)" />
<use xlink:href="#f0_co" transform="matrix(11,0,0,11,106,102)" />
<use xlink:href="#f0_89" transform="matrix(11,0,0,11,117.3,102)" />
<use xlink:href="#f0_9q" transform="matrix(11,0,0,11,122.5,102)" />
<use xlink:href="#f0_7z" transform="matrix(11,0,0,11,126.5,102)" />
<use xlink:href="#f0_a8" transform="matrix(11,0,0,11,134.9,102)" />
<use xlink:href="#f0_7v" transform="matrix(11,0,0,11,138.9,102)" />
<use xlink:href="#f0_b5" transform="matrix(11,0,0,11,147.7,102)" />
<use xlink:href="#f0_nt" transform="matrix(11,0,0,11,154.4,102)" />
<use xlink:href="#f0_i" transform="matrix(11,0,0,11,162.5,102)" />
<use xlink:href="#f0_a8" transform="matrix(11,0,0,11,171.3,102)" />
<use xlink:href="#f0_c6" transform="matrix(11,0,0,11,175.3,102)" />
<use xlink:href="#f0_7z" transform="matrix(11,0,0,11,184.1,102)" />
<use xlink:href="#f0_9d" transform="matrix(11,0,0,11,196.2,102)" />
<use xlink:href="#f0_b1" transform="matrix(11,0,0,11,204.3,102)" />
<use xlink:href="#f0_7z" transform="matrix(11,0,0,11,210.1,102)" />
<use xlink:href="#f0_7z" transform="matrix(11,0,0,11,218.5,102)" />
<use xlink:href="#f0_af" transform="matrix(11,0,0,11,226.9,102)" />
<use xlink:href="#f0_77" transform="matrix(11,0,0,11,239.5,102)" />
<use xlink:href="#f0_a8" transform="matrix(11,0,0,11,247.5,102)" />
<use xlink:href="#f0_9d" transform="matrix(11,0,0,11,251.2,102)" />
<use xlink:href="#f0_77" transform="matrix(11,0,0,11,259.2,102)" />
<use xlink:href="#f0_7z" transform="matrix(11,0,0,11,267.3,102)" />
<use xlink:href="#f0_77" transform="matrix(11,0,0,11,279.4,102)" />
<use xlink:href="#f0_a8" transform="matrix(11,0,0,11,287.5,102)" />
<use xlink:href="#f0_b5" transform="matrix(11,0,0,11,291.5,102)" />
<use xlink:href="#f0_am" transform="matrix(11,0,0,11,298.1,102)" />
<use xlink:href="#f0_77" transform="matrix(11,0,0,11,310.5,102)" />
<use xlink:href="#f0_7v" transform="matrix(11,0,0,11,318.6,102)" />
<use xlink:href="#f0_7v" transform="matrix(11,0,0,11,327.4,102)" />
<use xlink:href="#f0_am" transform="matrix(11,0,0,11,339.9,102)" />
<use xlink:href="#f0_b1" transform="matrix(11,0,0,11,348.7,102)" />
<use xlink:href="#f0_9d" transform="matrix(11,0,0,11,354.6,102)" />
<use xlink:href="#f0_77" transform="matrix(11,0,0,11,362.6,102)" />
<use xlink:href="#f0_af" transform="matrix(11,0,0,11,370.7,102)" />
<use xlink:href="#f0_9q" transform="matrix(11,0,0,11,379.5,102)" />
<use xlink:href="#f0_7l" transform="matrix(11,0,0,11,383.5,102)" />
<use xlink:href="#f0_ae" transform="matrix(11,0,0,11,394.1,102)" />
<use xlink:href="#f0_77" transform="matrix(11,0,0,11,407.6,102)" />
<use xlink:href="#f0_bf" transform="matrix(11,0,0,11,415.7,102)" />
<use xlink:href="#f0_bf" transform="matrix(11,0,0,11,421.2,102)" />
<use xlink:href="#f0_7z" transform="matrix(11,0,0,11,426.7,102)" />
<use xlink:href="#f0_b1" transform="matrix(11,0,0,11,435.1,102)" />
<use xlink:href="#f0_bf" transform="matrix(11,0,0,11,444.7,102)" />
<use xlink:href="#f0_am" transform="matrix(11,0,0,11,450.2,102)" />
<use xlink:href="#f0_bf" transform="matrix(11,0,0,11,462.6,102)" />
<use xlink:href="#f0_9n" transform="matrix(11,0,0,11,468.1,102)" />
<use xlink:href="#f0_7z" transform="matrix(11,0,0,11,476.9,102)" />
<use xlink:href="#f0_b5" transform="matrix(11,0,0,11,489.4,102)" />
<use xlink:href="#f0_am" transform="matrix(11,0,0,11,496,102)" />
<use xlink:href="#f0_9q" transform="matrix(11,0,0,11,504.8,102)" />
<use xlink:href="#f0_a8" transform="matrix(11,0,0,11,508.8,102)" />
<use xlink:href="#f0_77" transform="matrix(11,0,0,11,516.5,102)" />
<use xlink:href="#f0_af" transform="matrix(11,0,0,11,524.5,102)" />
<use xlink:href="#f0_7v" transform="matrix(11,0,0,11,533.3,102)" />
<use xlink:href="#f0_9q" transform="matrix(11,0,0,11,545.8,102)" />
<use xlink:href="#f0_af" transform="matrix(11,0,0,11,549.8,102)" />
<use xlink:href="#f0_7l" transform="matrix(11,0,0,11,558.6,102)" />
<use xlink:href="#f0_b1" transform="matrix(11,0,0,11,565.6,102)" />
<use xlink:href="#f0_7z" transform="matrix(11,0,0,11,571.5,102)" />
<use xlink:href="#f0_77" transform="matrix(11,0,0,11,579.9,102)" />
<use xlink:href="#f0_b5" transform="matrix(11,0,0,11,587.9,102)" />
<use xlink:href="#f0_7z" transform="matrix(11,0,0,11,594.5,102)" />
<use xlink:href="#f0_9q" transform="matrix(11,0,0,11,606.7,102)" />
<use xlink:href="#f0_bf" transform="matrix(11,0,0,11,610.7,102)" />
<use xlink:href="#f0_b5" transform="matrix(11,0,0,11,616.2,102)" />
<use xlink:href="#f0_89" transform="matrix(11,0,0,11,626.4,102)" />
<use xlink:href="#f0_7z" transform="matrix(11,0,0,11,631.6,102)" />
<use xlink:href="#f0_b1" transform="matrix(11,0,0,11,640,102)" />
<use xlink:href="#f0_bf" transform="matrix(11,0,0,11,645.9,102)" />
<use xlink:href="#f0_9q" transform="matrix(11,0,0,11,651.4,102)" />
<use xlink:href="#f0_a8" transform="matrix(11,0,0,11,655.4,102)" />
<use xlink:href="#f0_9q" transform="matrix(11,0,0,11,659.4,102)" />
<use xlink:href="#f0_bf" transform="matrix(11,0,0,11,663.4,102)" />
<use xlink:href="#f0_co" transform="matrix(11,0,0,11,668.9,102)" />
<use xlink:href="#f0_nt" transform="matrix(11,0,0,11,676.6,102)" />
<use xlink:href="#f2_q" transform="matrix(8,0,0,8,818.2,1187.9)" />
</g>
<defs>
<path d="M176,-4c0,0,-18,0,-30,2c0,0,-12,1,-19,3c0,0,-7,3,-10,7c0,0,-3,4,-3,10V690c0,0,0,6,3,10c0,0,2,4,9,7c0,0,6,4,17,5c0,0,10,1,27,1c0,0,17,0,28,-1c0,0,10,-1,16,-5c0,0,6,-3,9,-7c0,0,3,-4,3,-10V601c0,0,56,64,112,94c0,0,57,30,114,30c0,0,67,0,113,-23c0,0,46,-23,74,-61c0,0,29,-38,41,-89c0,0,12,-52,12,-123V18c0,0,0,-6,-3,-10c0,0,-3,-4,-9,-7c0,0,-7,-2,-19,-3c0,0,-12,-2,-30,-2c0,0,-19,0,-30,2c0,0,-12,1,-19,3c0,0,-7,3,-10,7c0,0,-3,4,-3,10V412c0,0,0,58,-9,93c0,0,-9,35,-26,61c0,0,-17,25,-44,38c0,0,-27,14,-63,14c0,0,-46,0,-93,-33c0,0,-46,-33,-97,-96V18c0,0,0,-6,-3,-10c0,0,-2,-4,-9,-7c0,0,-7,-2,-19,-3c0,0,-12,-2,-30,-2Z" 
id="f0_af"
transform="scale(0.001,-0.001)" />

<path d="M176,-4c0,0,-18,0,-30,2c0,0,-12,1,-19,3c0,0,-7,3,-10,7c0,0,-3,4,-3,10V690c0,0,0,5,3,9c0,0,3,5,10,8c0,0,7,3,19,4c0,0,12,2,30,2c0,0,18,0,30,-2c0,0,12,-1,19,-4c0,0,7,-3,9,-8c0,0,3,-4,3,-9V18c0,0,0,-6,-3,-10c0,0,-2,-4,-9,-7c0,0,-7,-2,-19,-3c0,0,-12,-2,-30,-2Zm-1,846c0,0,-43,0,-59,15c0,0,-16,15,-16,58c0,0,0,43,16,59c0,0,17,16,61,16c0,0,43,0,59,-16c0,0,16,-15,16,-58c0,0,0,-43,-16,-58c0,0,-17,-16,-61,-16Z" 
id="f0_9q"
transform="scale(0.001,-0.001)" />

<path d="M339,-13c0,0,-52,0,-90,13c0,0,-37,14,-61,42c0,0,-24,28,-34,71c0,0,-11,43,-11,101V607H49c0,0,-11,0,-18,12c0,0,-7,12,-7,39c0,0,0,14,2,24c0,0,2,10,5,16c0,0,3,7,8,9c0,0,5,3,11,3h93V870c0,0,0,5,2,9c0,0,3,5,10,8c0,0,7,4,19,5c0,0,12,2,30,2c0,0,19,0,31,-2c0,0,11,-1,18,-5c0,0,7,-3,10,-8c0,0,3,-4,3,-9V710H438c0,0,6,0,10,-3c0,0,5,-2,8,-9c0,0,4,-6,5,-16c0,0,1,-10,1,-24c0,0,0,-27,-6,-39c0,0,-7,-12,-18,-12H266V232c0,0,0,-69,20,-105c0,0,21,-35,74,-35c0,0,17,0,30,3c0,0,14,4,24,7c0,0,10,4,18,7c0,0,7,4,13,4c0,0,4,0,7,-2c0,0,4,-2,6,-7c0,0,2,-5,3,-14c0,0,1,-9,1,-23c0,0,0,-22,-2,-34c0,0,-3,-13,-9,-19c0,0,-6,-6,-18,-11c0,0,-12,-4,-28,-8c0,0,-15,-3,-32,-5c0,0,-17,-3,-34,-3Z" 
id="f0_bf"
transform="scale(0.001,-0.001)" />

<path d="M176,-4c0,0,-18,0,-30,2c0,0,-12,1,-19,3c0,0,-7,3,-10,7c0,0,-3,4,-3,10V690c0,0,0,6,3,10c0,0,2,4,9,7c0,0,6,4,17,5c0,0,10,1,27,1c0,0,17,0,28,-1c0,0,10,-1,16,-5c0,0,6,-3,9,-7c0,0,3,-4,3,-10V592c0,0,27,41,51,66c0,0,25,26,46,41c0,0,22,14,43,20c0,0,21,6,43,6c0,0,10,0,22,-2c0,0,12,-1,26,-4c0,0,13,-3,24,-6c0,0,11,-4,15,-8c0,0,5,-4,6,-7c0,0,2,-3,3,-9c0,0,1,-5,1,-15c0,0,0,-10,0,-27c0,0,0,-16,0,-28c0,0,-1,-11,-3,-17c0,0,-2,-6,-6,-10c0,0,-3,-3,-9,-3c0,0,-6,0,-15,3c0,0,-8,4,-19,7c0,0,-11,3,-24,6c0,0,-14,3,-29,3c0,0,-19,0,-37,-7c0,0,-18,-8,-37,-25c0,0,-20,-18,-42,-46c0,0,-21,-29,-48,-70V18c0,0,0,-6,-3,-10c0,0,-2,-4,-9,-7c0,0,-7,-2,-19,-3c0,0,-12,-2,-30,-2Z" 
id="f0_b1"
transform="scale(0.001,-0.001)" />

<path d="M401,90c0,0,54,0,93,19c0,0,40,20,65,55c0,0,26,35,37,84c0,0,12,48,12,106c0,0,0,55,-10,104c0,0,-10,48,-33,85c0,0,-23,36,-62,58c0,0,-40,21,-99,21c0,0,-54,0,-93,-20c0,0,-39,-19,-65,-54c0,0,-25,-36,-37,-85c0,0,-12,-48,-12,-106c0,0,0,-55,10,-103c0,0,10,-49,33,-85c0,0,24,-36,63,-58c0,0,39,-21,98,-21ZM395,-13c0,0,-82,0,-144,24c0,0,-61,25,-102,72c0,0,-41,47,-61,114c0,0,-21,67,-21,152c0,0,0,82,22,151c0,0,21,69,64,119c0,0,43,50,107,78c0,0,64,28,150,28c0,0,82,0,144,-25c0,0,61,-25,102,-72c0,0,41,-47,62,-114c0,0,20,-67,20,-151c0,0,0,-83,-21,-152c0,0,-22,-69,-65,-119C652,92,609,42,545,14c0,0,-65,-27,-150,-27Z" 
id="f0_am"
transform="scale(0.001,-0.001)" />

<path d="M346,-177c0,0,56,0,94,11c0,0,37,11,60,28c0,0,24,18,34,41c0,0,10,23,10,49c0,0,0,43,-36,65c0,0,-35,23,-95,25L239,48c0,0,-24,-19,-39,-35c0,0,-15,-16,-24,-31c0,0,-9,-16,-12,-30c0,0,-4,-15,-4,-31c0,0,0,-48,49,-73c0,0,50,-25,137,-25Zm-6,512c0,0,36,0,63,12c0,0,27,12,44,32c0,0,18,21,26,48c0,0,9,27,9,56c0,0,0,69,-38,107c0,0,-37,39,-107,39c0,0,-35,0,-62,-12c0,0,-26,-12,-44,-33c0,0,-17,-21,-26,-48c0,0,-8,-28,-8,-58c0,0,0,-66,37,-104c0,0,38,-39,106,-39Zm0,-606c0,0,-81,0,-138,14c0,0,-57,14,-94,38c0,0,-36,24,-52,57c0,0,-17,33,-17,72c0,0,0,24,6,47c0,0,6,24,18,43c0,0,13,21,31,40c0,0,18,19,42,38c0,0,-36,19,-54,47c0,0,-17,28,-17,61c0,0,0,45,18,81c0,0,19,36,46,64c0,0,-23,28,-36,62c0,0,-14,35,-14,84c0,0,0,58,20,104c0,0,19,45,53,77c0,0,35,31,83,48c0,0,48,17,105,17c0,0,30,0,57,-4c0,0,26,-3,49,-9H649c0,0,13,0,19,-12c0,0,7,-13,7,-38c0,0,0,-26,-7,-37c0,0,-7,-12,-19,-12H553c0,0,26,-27,37,-60c0,0,10,-32,10,-68c0,0,0,-58,-18,-103c0,0,-19,-45,-54,-76c0,0,-34,-31,-82,-47c0,0,-48,-16,-106,-16c0,0,-41,0,-78,10c0,0,-37,11,-57,28c0,0,-14,-14,-22,-31c0,0,-9,-17,-9,-39c0,0,0,-27,24,-44c0,0,25,-17,65,-18l175,-8c0,0,50,-1,92,-14c0,0,41,-12,72,-35c0,0,31,-22,48,-55c0,0,17,-34,17,-76c0,0,0,-47,-20,-88c0,0,-19,-42,-59,-74c0,0,-40,-31,-102,-50c0,0,-61,-18,-146,-18Z" 
id="f0_9d"
transform="scale(0.001,-0.001)" />

<path d="M564,420c0,0,2,98,-43,153c0,0,-46,56,-134,56c0,0,-46,0,-80,-18c0,0,-35,-17,-58,-45c0,0,-23,-29,-36,-67c0,0,-12,-37,-14,-79ZM405,-13c0,0,-83,0,-145,22c0,0,-62,24,-105,69c0,0,-42,46,-64,114c0,0,-22,69,-22,160c0,0,0,87,23,156c0,0,22,69,64,117c0,0,43,48,102,74c0,0,60,26,134,26c0,0,79,0,135,-26c0,0,55,-25,91,-68c0,0,36,-43,53,-101c0,0,16,-58,16,-123V384c0,0,0,-29,-14,-41c0,0,-15,-13,-33,-13H199c0,0,0,-56,11,-100c0,0,12,-45,38,-77c0,0,26,-33,68,-50c0,0,41,-17,102,-17c0,0,48,0,85,8c0,0,37,8,65,17c0,0,27,10,44,18c0,0,18,8,27,8c0,0,5,0,9,-3c0,0,4,-2,7,-8c0,0,2,-5,3,-14c0,0,1,-9,1,-23c0,0,0,-9,-1,-16c0,0,0,-8,-2,-13c0,0,-1,-6,-3,-10c0,0,-3,-5,-7,-9c0,0,-4,-4,-24,-13c0,0,-20,-10,-53,-18c0,0,-32,-9,-74,-16c0,0,-42,-7,-90,-7Z" 
id="f0_7z"
transform="scale(0.001,-0.001)" />

<path d="M69,-215c0,0,-12,0,-21,1c0,0,-8,1,-12,4c0,0,-4,2,-4,7c0,0,-1,4,2,10L134,11v96c0,0,0,20,4,32c0,0,4,12,13,18c0,0,9,6,22,8c0,0,13,2,33,2c0,0,19,0,32,-2c0,0,13,-2,22,-8c0,0,9,-6,13,-18c0,0,4,-12,4,-32c0,0,0,-23,-2,-43c0,0,-3,-19,-8,-36c0,0,-5,-17,-14,-33c0,0,-8,-17,-21,-36L130,-194c0,0,-4,-5,-9,-9c0,0,-5,-4,-12,-7c0,0,-7,-3,-16,-4c0,0,-9,-1,-24,-1Z" 
id="f0_nq"
transform="scale(0.001,-0.001)" />

<path d="M192,-6c0,0,-45,0,-62,16c0,0,-18,18,-18,69c0,0,0,53,18,71c0,0,18,17,64,17c0,0,45,0,62,-17c0,0,17,-17,17,-69c0,0,0,-53,-18,-70c0,0,-17,-17,-63,-17Z" 
id="f0_nt"
transform="scale(0.001,-0.001)" />

<path d="M611,356L539,837h-1L277,356ZM19,-4c0,0,-21,0,-35,2c0,0,-13,2,-18,6c0,0,-6,5,-3,15c0,0,2,10,10,27L475,943c0,0,5,8,11,13c0,0,6,6,16,9c0,0,10,3,25,4c0,0,15,1,36,1c0,0,25,0,40,-1c0,0,15,-1,25,-4c0,0,9,-3,13,-9c0,0,3,-5,5,-14L791,45c0,0,2,-16,1,-26c0,0,-1,-10,-8,-16c0,0,-7,-4,-22,-5c0,0,-15,-2,-41,-2c0,0,-16,0,-28,1c0,0,-12,1,-18,3c0,0,-7,3,-10,7c0,0,-3,5,-3,11L626,253H223L97,20C97,20,94,13,89,8C89,8,84,3,75,0C75,0,67,-2,53,-3C53,-3,39,-4,19,-4Z" 
id="f1_5"
transform="scale(0.001,-0.001)" />

<path d="M105,-4c0,0,-18,0,-30,2c0,0,-11,1,-18,3c0,0,-6,3,-8,7c0,0,-2,4,0,10L184,690c0,0,1,6,4,10c0,0,3,5,10,8c0,0,7,3,18,4c0,0,11,1,26,1c0,0,15,0,26,-1c0,0,10,-1,15,-4c0,0,6,-3,7,-8c0,0,2,-4,1,-10L266,562c0,0,11,26,36,54c0,0,26,29,61,53c0,0,35,24,77,40c0,0,42,16,88,16c0,0,50,0,83,-16c0,0,34,-15,55,-40c0,0,21,-25,30,-58c0,0,9,-33,9,-69c0,0,0,-26,-3,-51c0,0,-3,-26,-8,-53L609,18c0,0,-2,-6,-5,-10c0,0,-3,-4,-11,-7c0,0,-8,-2,-20,-3c0,0,-12,-2,-31,-2c0,0,-18,0,-29,2c0,0,-11,1,-18,3c0,0,-6,3,-8,7c0,0,-2,4,-1,10l83,415c0,0,5,23,7,45c0,0,2,22,2,39c0,0,0,45,-19,74c0,0,-20,28,-66,28c0,0,-39,0,-81,-23c0,0,-41,-23,-76,-63c0,0,-36,-40,-64,-95c0,0,-28,-55,-41,-120L172,18c0,0,-2,-6,-5,-10c0,0,-4,-4,-12,-7c0,0,-7,-2,-20,-3c0,0,-12,-2,-30,-2Z" 
id="f1_af"
transform="scale(0.001,-0.001)" />

<path d="M293,92c0,0,41,0,83,23c0,0,41,22,77,62c0,0,36,40,64,95c0,0,27,54,41,119l25,123c0,0,-35,53,-76,79c0,0,-41,26,-91,26c0,0,-41,0,-73,-19c0,0,-32,-19,-57,-50c0,0,-25,-32,-44,-72c0,0,-18,-40,-30,-82c0,0,-11,-43,-17,-84c0,0,-5,-41,-5,-74c0,0,0,-26,4,-52c0,0,4,-25,15,-47c0,0,12,-21,32,-34c0,0,20,-13,52,-13ZM262,-13c0,0,-60,0,-99,20c0,0,-39,21,-62,55c0,0,-23,35,-32,78c0,0,-8,43,-8,89c0,0,0,42,7,95c0,0,8,53,26,108c0,0,17,55,45,107c0,0,28,53,68,94c0,0,39,42,92,67c0,0,52,25,118,25c0,0,67,0,114,-28c0,0,47,-27,85,-74l14,67c0,0,3,12,17,18c0,0,14,5,44,5c0,0,15,0,25,-1c0,0,10,-1,16,-4c0,0,6,-3,7,-8c0,0,2,-4,1,-10L606,18C606,18,603,6,590,0c0,0,-14,-4,-45,-4c0,0,-15,0,-25,2c0,0,-9,1,-15,3c0,0,-6,2,-8,6c0,0,-3,5,0,11l24,127c0,0,-10,-24,-35,-52c0,0,-25,-28,-60,-52C426,41,391,17,349,2c0,0,-43,-15,-87,-15Z" 
id="f1_77"
transform="scale(0.001,-0.001)" />

<path d="M372,92c0,0,39,0,71,18c0,0,31,18,56,48c0,0,26,29,44,68c0,0,19,38,31,81c0,0,13,42,19,84c0,0,6,43,6,80c0,0,0,20,-3,46c0,0,-4,27,-15,49c0,0,-11,22,-31,38c0,0,-21,15,-55,15c0,0,-40,0,-82,-23c0,0,-42,-24,-78,-64c0,0,-35,-41,-63,-97c0,0,-28,-55,-41,-119L206,192c0,0,35,-51,76,-76c0,0,40,-24,90,-24Zm0,-105c0,0,-68,0,-115,25c0,0,-48,25,-85,73L159,18C159,18,157,6,142,0c0,0,-14,-4,-44,-4c0,0,-31,0,-42,5C56,1,46,7,49,18l198,997c0,0,2,6,5,11c0,0,4,4,11,7c0,0,8,3,20,5c0,0,13,1,31,1c0,0,18,0,29,-1c0,0,12,-2,18,-5c0,0,7,-3,9,-7c0,0,1,-5,1,-11L311,715c0,0,-4,-19,-9,-40c0,0,-5,-21,-10,-42c0,0,-6,-20,-12,-38c0,0,-6,-18,-11,-31c0,0,13,25,39,53c0,0,26,29,60,52c0,0,35,24,76,40c0,0,40,16,82,16c0,0,45,0,77,-12c0,0,32,-12,55,-32c0,0,22,-20,36,-45c0,0,14,-26,21,-53c0,0,7,-26,10,-53c0,0,3,-26,3,-49c0,0,0,-45,-8,-99c0,0,-8,-54,-26,-109c0,0,-19,-55,-46,-106c0,0,-28,-52,-68,-92c0,0,-40,-40,-92,-64c0,0,-51,-24,-116,-24Z" 
id="f1_7k"
transform="scale(0.001,-0.001)" />

<path d="M292,420c0,0,78,0,130,10c0,0,53,10,84,27c0,0,32,16,45,39c0,0,13,22,13,47c0,0,0,38,-30,61c0,0,-29,24,-84,24c0,0,-49,0,-86,-17c0,0,-37,-17,-66,-45c0,0,-29,-28,-49,-66c0,0,-21,-38,-33,-80ZM323,-13c0,0,-66,0,-116,14c0,0,-50,15,-83,46c0,0,-33,31,-50,77c0,0,-16,47,-16,109c0,0,0,49,9,105c0,0,9,55,29,110c0,0,21,54,53,104c0,0,32,50,76,88c0,0,45,38,103,61c0,0,58,24,131,24c0,0,63,0,107,-16c0,0,43,-16,71,-40c0,0,28,-25,41,-55c0,0,12,-31,12,-60c0,0,0,-52,-24,-93c0,0,-23,-41,-74,-70c0,0,-51,-29,-130,-45c0,0,-79,-15,-189,-15H194c0,0,-5,-25,-7,-48c0,0,-2,-24,-2,-44c0,0,0,-75,37,-114c0,0,37,-40,119,-40c0,0,48,0,86,7c0,0,38,7,66,16c0,0,28,8,46,15c0,0,18,7,24,7c0,0,7,0,11,-5c0,0,3,-5,3,-14c0,0,0,-7,-2,-17c0,0,-1,-11,-4,-22c0,0,-3,-10,-8,-20c0,0,-5,-10,-11,-17c0,0,-9,-8,-31,-17C521,18,498,9,467,2c0,0,-32,-6,-69,-10c0,0,-37,-5,-75,-5Z" 
id="f1_7z"
transform="scale(0.001,-0.001)" />

<path d="M117,-4c0,0,-17,0,-29,2C88,-2,77,0,71,1c0,0,-6,3,-8,8c0,0,-2,4,0,10L241,910c0,0,5,30,24,42c0,0,19,13,39,13h59c0,0,18,0,31,-4c0,0,13,-3,23,-13c0,0,10,-10,17,-25c0,0,8,-15,17,-39L633,362c0,0,17,-48,34,-97c0,0,17,-48,33,-98h2c0,0,11,62,23,127c0,0,12,66,24,127L854,944c0,0,2,6,5,11c0,0,4,4,12,7c0,0,7,3,19,4c0,0,11,2,29,2c0,0,17,0,29,-2c0,0,11,-1,18,-4c0,0,6,-3,8,-7c0,0,3,-5,2,-11L797,53c0,0,-2,-15,-9,-26c0,0,-7,-10,-15,-17c0,0,-9,-6,-18,-9c0,0,-10,-2,-20,-2H686c0,0,-19,0,-32,3c0,0,-14,5,-24,16c0,0,-10,10,-18,28c0,0,-7,17,-16,43L414,604c0,0,-19,55,-37,110c0,0,-18,55,-35,110h-2c0,0,-9,-61,-20,-122c0,0,-12,-60,-24,-120L184,19c0,0,-1,-6,-5,-10c0,0,-5,-5,-12,-8c0,0,-8,-1,-21,-3c0,0,-12,-2,-29,-2Z" 
id="f1_1y"
transform="scale(0.001,-0.001)" />

<path d="M340,89c0,0,46,0,82,16c0,0,36,16,65,44c0,0,29,27,50,64c0,0,21,36,35,78c0,0,14,42,21,85c0,0,6,44,6,85c0,0,0,38,-7,68c0,0,-8,29,-27,50c0,0,-18,20,-47,32c0,0,-30,11,-72,11c0,0,-44,0,-81,-16c0,0,-36,-16,-65,-43c0,0,-29,-28,-50,-64c0,0,-21,-37,-35,-78c0,0,-14,-42,-21,-85c0,0,-6,-44,-6,-86c0,0,0,-37,8,-67c0,0,8,-30,26,-51c0,0,19,-21,48,-32c0,0,29,-11,70,-11ZM329,-13c0,0,-71,0,-122,16c0,0,-52,18,-84,50c0,0,-33,33,-49,81c0,0,-15,48,-15,108c0,0,0,56,10,113c0,0,10,58,31,111c0,0,22,53,54,100c0,0,33,47,77,82c0,0,45,35,101,56c0,0,56,21,125,21c0,0,72,0,123,-18c0,0,52,-18,85,-50c0,0,33,-33,49,-81c0,0,15,-48,15,-108c0,0,0,-55,-10,-112c0,0,-10,-58,-32,-111c0,0,-21,-53,-54,-100c0,0,-33,-47,-77,-83C556,62,511,27,455,7c0,0,-56,-20,-126,-20Z" 
id="f1_am"
transform="scale(0.001,-0.001)" />

<path d="M210,-13c0,0,-35,0,-66,6c0,0,-30,5,-55,12C89,5,64,14,46,24C46,24,28,34,18,43c0,0,-6,6,-9,12C9,55,7,62,7,71c0,0,0,6,1,14c0,0,0,8,3,17c0,0,2,9,4,17c0,0,3,8,7,15c0,0,4,6,7,11c0,0,4,4,9,4c0,0,9,0,22,-10c0,0,13,-11,33,-22c0,0,21,-12,51,-22c0,0,31,-10,76,-10c0,0,41,0,71,10c0,0,29,10,48,27c0,0,20,17,29,39c0,0,9,22,9,47c0,0,0,31,-19,51c0,0,-19,20,-49,36c0,0,-29,16,-64,32c0,0,-34,15,-64,37c0,0,-29,21,-49,52c0,0,-20,31,-20,79c0,0,0,49,20,91c0,0,19,42,55,73c0,0,35,31,85,48c0,0,50,18,110,18c0,0,28,0,55,-5c0,0,26,-4,49,-11c0,0,22,-7,39,-15c0,0,16,-8,24,-16c0,0,8,-8,8,-24c0,0,0,-7,-2,-19c0,0,-2,-13,-6,-25c0,0,-4,-12,-10,-20c0,0,-5,-8,-12,-8c0,0,-9,0,-21,7c0,0,-13,7,-31,16c0,0,-18,9,-43,16c0,0,-25,8,-59,8c0,0,-33,0,-58,-10c0,0,-26,-9,-43,-25c0,0,-17,-16,-26,-36c0,0,-9,-21,-9,-43c0,0,0,-30,19,-50c0,0,20,-20,50,-35c0,0,30,-16,65,-31c0,0,35,-16,64,-38c0,0,30,-22,50,-53c0,0,20,-31,20,-78c0,0,0,-52,-21,-97c0,0,-21,-45,-59,-78C425,55,387,23,332,5c0,0,-54,-18,-122,-18Z" 
id="f1_b5"
transform="scale(0.001,-0.001)" />

<path d="M273,-13c0,0,-42,0,-73,9c0,0,-30,8,-51,27c0,0,-21,19,-31,48c0,0,-10,29,-10,69c0,0,0,9,1,20c0,0,0,11,2,23c0,0,2,12,4,24c0,0,2,12,4,22l76,378H101c0,0,-8,0,-12,5c0,0,-5,5,-5,19c0,0,0,11,2,25c0,0,3,13,7,25c0,0,4,12,12,21c0,0,7,8,16,8h94l32,160c0,0,1,5,5,9c0,0,4,5,12,8c0,0,7,4,20,5c0,0,12,2,30,2c0,0,18,0,30,-2c0,0,11,-1,17,-5c0,0,7,-3,8,-8c0,0,2,-4,2,-9L339,710H510c0,0,12,0,15,-8c0,0,4,-9,4,-19c0,0,0,-7,-1,-15c0,0,-1,-8,-3,-16c0,0,-2,-8,-6,-16c0,0,-3,-9,-8,-15c0,0,-4,-6,-9,-10c0,0,-5,-4,-12,-4H318L243,232c0,0,-3,-15,-5,-35c0,0,-3,-19,-3,-32c0,0,0,-38,16,-56c0,0,16,-17,53,-17c0,0,20,0,35,3c0,0,15,4,26,7c0,0,10,4,19,7c0,0,8,4,14,4c0,0,6,0,9,-4c0,0,4,-4,4,-16c0,0,0,-9,-2,-21c0,0,-2,-12,-5,-23c0,0,-3,-11,-8,-20c0,0,-4,-9,-9,-14c0,0,-6,-5,-18,-11c0,0,-12,-4,-28,-8c0,0,-16,-4,-33,-6c0,0,-18,-3,-35,-3Z" 
id="f1_bf"
transform="scale(0.001,-0.001)" />

<path d="M296,-13c0,0,-121,0,-180,60c0,0,-59,62,-59,182c0,0,0,46,8,100c0,0,7,54,26,109c0,0,19,54,48,106c0,0,29,51,71,91c0,0,43,40,99,64c0,0,56,24,128,24c0,0,30,0,58,-5c0,0,27,-5,51,-13c0,0,25,-8,44,-20c0,0,20,-13,31,-22c0,0,11,-10,14,-17c0,0,3,-6,3,-14c0,0,0,-14,-3,-28c0,0,-3,-14,-8,-27c0,0,-5,-12,-12,-20c0,0,-8,-8,-17,-8c0,0,-10,0,-21,10c0,0,-12,11,-30,24c0,0,-18,14,-46,25c0,0,-28,11,-71,11c0,0,-48,0,-85,-20c0,0,-37,-20,-64,-51c0,0,-27,-32,-45,-72c0,0,-18,-40,-29,-81c0,0,-12,-41,-16,-80c0,0,-5,-38,-5,-66c0,0,0,-77,33,-117c0,0,34,-39,100,-39c0,0,49,0,84,12c0,0,34,12,58,27c0,0,25,15,40,27c0,0,16,12,28,12c0,0,6,0,9,-5c0,0,4,-6,4,-17c0,0,0,-8,-2,-21c0,0,-1,-12,-5,-25c0,0,-3,-13,-8,-24c0,0,-5,-12,-14,-21c0,0,-9,-9,-31,-23c0,0,-22,-13,-52,-24C430,11,401,0,366,-6c0,0,-34,-7,-70,-7Z" 
id="f1_7l"
transform="scale(0.001,-0.001)" />

<path d="M448,98c0,0,77,0,135,28c0,0,58,28,100,73c0,0,43,46,71,103c0,0,29,58,46,118c0,0,17,59,24,115c0,0,7,56,7,98c0,0,0,52,-12,96c0,0,-12,44,-38,75c0,0,-26,31,-69,49c0,0,-44,17,-105,17c0,0,-77,0,-136,-28c0,0,-58,-29,-101,-75c0,0,-43,-47,-71,-105c0,0,-28,-59,-45,-118c0,0,-17,-60,-24,-116c0,0,-7,-56,-7,-97c0,0,0,-53,11,-96c0,0,12,-43,39,-73c0,0,27,-31,70,-47c0,0,43,-17,105,-17ZM428,-13c0,0,-86,0,-150,21c0,0,-64,21,-107,63c0,0,-43,42,-64,104c0,0,-22,62,-22,143c0,0,0,64,11,138c0,0,11,74,37,147c0,0,26,74,67,142c0,0,42,68,102,120c0,0,60,53,140,84c0,0,81,31,185,31c0,0,85,0,148,-22c0,0,64,-22,107,-65c0,0,43,-43,64,-106c0,0,22,-63,22,-145c0,0,0,-58,-10,-128c0,0,-11,-71,-35,-144c0,0,-25,-73,-66,-142c0,0,-40,-69,-100,-123c0,0,-60,-53,-142,-86c0,0,-82,-32,-187,-32Z" 
id="f1_24"
transform="scale(0.001,-0.001)" />

<path d="M105,-4c0,0,-18,0,-30,2c0,0,-11,1,-18,3c0,0,-6,3,-8,7c0,0,-2,4,0,10L183,690c0,0,1,5,4,9c0,0,4,5,11,8c0,0,8,3,20,4c0,0,12,2,30,2c0,0,19,0,30,-2c0,0,12,-1,18,-4c0,0,7,-3,9,-8c0,0,2,-4,1,-9L172,18c0,0,-2,-6,-5,-10c0,0,-4,-4,-12,-7c0,0,-7,-2,-20,-3c0,0,-12,-2,-30,-2ZM274,842c0,0,-22,0,-36,4c0,0,-14,3,-20,12c0,0,-7,8,-8,23c0,0,-1,14,3,35c0,0,5,21,11,34c0,0,7,14,17,23c0,0,10,10,25,13c0,0,16,4,38,4c0,0,22,0,36,-4c0,0,14,-3,21,-13c0,0,8,-9,8,-23c0,0,1,-13,-3,-34c0,0,-4,-21,-10,-35c0,0,-7,-15,-17,-23c0,0,-11,-9,-27,-12c0,0,-16,-4,-38,-4Z" 
id="f1_9q"
transform="scale(0.001,-0.001)" />

<path d="M105,-4c0,0,-18,0,-30,2c0,0,-11,1,-18,3c0,0,-6,3,-8,7c0,0,-2,4,0,10l198,997c0,0,2,6,5,11c0,0,4,4,11,7c0,0,8,3,20,5c0,0,13,1,31,1c0,0,18,0,30,-1c0,0,11,-2,18,-5c0,0,6,-3,8,-7c0,0,1,-5,1,-11L172,18c0,0,-2,-6,-5,-10c0,0,-4,-4,-12,-7c0,0,-7,-2,-20,-3c0,0,-12,-2,-30,-2Z" 
id="f1_a8"
transform="scale(0.001,-0.001)" />

<path d="M105,-4c0,0,-18,0,-30,2c0,0,-11,1,-18,3c0,0,-6,3,-8,7c0,0,-2,4,0,10L182,690c0,0,1,6,4,10c0,0,4,5,12,8c0,0,7,3,18,4c0,0,11,1,26,1c0,0,15,0,25,-1c0,0,10,-1,16,-4c0,0,6,-3,7,-8c0,0,2,-4,1,-10L266,568c0,0,17,31,41,59c0,0,23,29,51,51c0,0,28,21,58,34c0,0,30,13,59,13c0,0,13,0,26,-2c0,0,13,-2,24,-5c0,0,11,-2,20,-6c0,0,8,-3,13,-8c0,0,4,-4,4,-14c0,0,0,-3,-1,-11c0,0,-1,-9,-2,-20c0,0,-2,-11,-5,-23c0,0,-3,-12,-7,-22c0,0,-5,-10,-10,-17c0,0,-5,-7,-10,-7c0,0,-6,0,-13,3c0,0,-8,3,-16,6c0,0,-9,4,-20,7c0,0,-11,2,-26,2c0,0,-25,0,-58,-22c0,0,-34,-22,-66,-61c0,0,-32,-39,-58,-92c0,0,-27,-53,-40,-116L172,18c0,0,-2,-6,-5,-10c0,0,-4,-4,-12,-7c0,0,-7,-2,-20,-3c0,0,-12,-2,-30,-2Z" 
id="f1_b1"
transform="scale(0.001,-0.001)" />

<path d="M-43,-215c0,0,-13,0,-22,2c0,0,-8,2,-11,5c0,0,-3,3,-2,9c0,0,1,6,7,14L68,19l17,88c0,0,4,20,10,32c0,0,6,12,15,18c0,0,9,6,23,8c0,0,14,2,35,2c0,0,19,0,31,-2c0,0,12,-2,20,-6c0,0,7,-5,10,-12c0,0,3,-7,3,-19c0,0,0,-42,-19,-85c0,0,-19,-43,-54,-84L25,-194c0,0,-10,-11,-25,-16c0,0,-15,-5,-43,-5Z" 
id="f1_nq"
transform="scale(0.001,-0.001)" />

<path d="M367,-13c0,0,-73,0,-129,23c0,0,-56,24,-93,70c0,0,-38,46,-58,112c0,0,-20,67,-20,154c0,0,0,99,25,171c0,0,24,71,66,116c0,0,42,46,99,68c0,0,58,22,124,22c0,0,32,0,62,-6c0,0,31,-6,56,-16c0,0,25,-10,45,-22c0,0,20,-13,29,-22c0,0,9,-9,12,-14c0,0,3,-5,6,-13c0,0,2,-7,3,-16c0,0,0,-9,0,-22c0,0,0,-29,-6,-41c0,0,-7,-11,-17,-11c0,0,-11,0,-25,12c0,0,-15,12,-37,27c0,0,-23,15,-55,28c0,0,-31,12,-75,12c0,0,-88,0,-136,-68c0,0,-47,-68,-47,-198c0,0,0,-65,12,-114c0,0,12,-49,36,-81c0,0,24,-33,59,-49c0,0,35,-16,79,-16c0,0,43,0,75,13c0,0,32,14,56,30c0,0,23,16,39,29c0,0,16,13,25,13c0,0,5,0,9,-3c0,0,4,-3,7,-10c0,0,2,-7,3,-18c0,0,1,-11,1,-26c0,0,0,-12,0,-22c0,0,-1,-9,-3,-15c0,0,-2,-7,-4,-12c0,0,-3,-4,-12,-14c0,0,-10,-9,-32,-23c0,0,-22,-14,-50,-24C496,11,468,0,435,-6c0,0,-33,-7,-68,-7Z" 
id="f0_7l"
transform="scale(0.001,-0.001)" />

<path d="M372,-4c0,0,-18,0,-30,2c0,0,-13,2,-21,3c0,0,-7,3,-10,8c0,0,-3,4,-3,10V857H36c0,0,-6,0,-11,3c0,0,-5,2,-8,9c0,0,-2,6,-4,17c0,0,-2,10,-2,24c0,0,0,14,2,25c0,0,2,11,4,17c0,0,3,7,8,10c0,0,5,3,11,3H708c0,0,6,0,11,-3c0,0,5,-3,8,-10c0,0,4,-6,5,-17c0,0,2,-11,2,-25c0,0,0,-14,-2,-24c0,0,-1,-11,-5,-17c0,0,-3,-7,-8,-9c0,0,-5,-3,-11,-3H436V19c0,0,0,-6,-3,-10c0,0,-3,-5,-10,-8c0,0,-8,-1,-20,-3c0,0,-12,-2,-31,-2Z" 
id="f0_2t"
transform="scale(0.001,-0.001)" />

<path d="M176,-4c0,0,-18,0,-30,2c0,0,-12,1,-19,3c0,0,-7,3,-10,7c0,0,-3,4,-3,10v997c0,0,0,6,3,11c0,0,3,4,10,7c0,0,7,3,19,5c0,0,12,1,30,1c0,0,18,0,30,-1c0,0,12,-2,19,-5c0,0,7,-3,9,-7c0,0,3,-5,3,-10V614c0,0,53,56,107,83c0,0,54,28,108,28c0,0,67,0,113,-23c0,0,46,-23,74,-61c0,0,29,-38,41,-89c0,0,12,-52,12,-124V18c0,0,0,-6,-3,-10c0,0,-3,-4,-9,-7c0,0,-7,-2,-19,-3c0,0,-12,-2,-30,-2c0,0,-19,0,-30,2c0,0,-12,1,-19,3c0,0,-7,3,-10,7c0,0,-3,4,-3,10V412c0,0,0,58,-9,93c0,0,-9,35,-26,61c0,0,-17,25,-44,38c0,0,-27,14,-63,14c0,0,-46,0,-93,-33c0,0,-46,-33,-97,-96V18c0,0,0,-6,-3,-10c0,0,-2,-4,-9,-7c0,0,-7,-2,-19,-3c0,0,-12,-2,-30,-2Z" 
id="f0_9n"
transform="scale(0.001,-0.001)" />

<path d="M209,-4c0,0,-18,0,-30,2c0,0,-12,1,-19,3c0,0,-7,3,-10,7c0,0,-3,4,-3,10V607H52c0,0,-12,0,-18,12c0,0,-6,12,-6,39c0,0,0,14,2,24c0,0,1,10,4,16c0,0,3,7,8,9c0,0,4,3,10,3h95v69c0,0,0,71,13,121c0,0,13,50,40,82c0,0,27,33,67,48c0,0,41,15,96,15c0,0,26,0,51,-5c0,0,25,-4,38,-10c0,0,13,-6,18,-10c0,0,4,-5,7,-12c0,0,3,-7,5,-17c0,0,1,-10,1,-24c0,0,0,-15,-2,-23c0,0,-1,-9,-3,-14c0,0,-2,-5,-5,-7c0,0,-3,-2,-8,-2c0,0,-5,0,-13,3c0,0,-7,4,-19,8c0,0,-11,4,-26,7c0,0,-15,4,-36,4c0,0,-27,0,-47,-9c0,0,-19,-9,-31,-28c0,0,-12,-19,-17,-50c0,0,-5,-30,-5,-73V710H421c0,0,6,0,10,-3c0,0,4,-2,7,-9c0,0,4,-6,6,-16c0,0,2,-10,2,-24c0,0,0,-27,-7,-39c0,0,-7,-12,-18,-12H271V18c0,0,0,-6,-3,-10c0,0,-3,-4,-11,-7c0,0,-7,-2,-19,-3c0,0,-12,-2,-29,-2Z" 
id="f0_89"
transform="scale(0.001,-0.001)" />

<path d="M252,-271c0,0,-19,0,-31,2c0,0,-12,2,-18,6c0,0,-7,5,-8,12c0,0,0,8,4,18L292,0c0,0,-7,3,-13,10c0,0,-6,6,-8,14L31,665c0,0,-6,16,-6,25c0,0,0,9,6,14c0,0,6,5,20,7c0,0,13,2,36,2c0,0,22,0,35,-1c0,0,12,-1,20,-4c0,0,7,-3,11,-9c0,0,3,-6,7,-15L351,145h3L539,687c0,0,4,14,10,18c0,0,7,4,19,6c0,0,13,2,37,2c0,0,21,0,34,-2c0,0,14,-2,20,-7c0,0,6,-5,6,-14c0,0,0,-9,-4,-23L420,0L330,-246c0,0,-4,-12,-22,-18c0,0,-19,-7,-56,-7Z" 
id="f0_co"
transform="scale(0.001,-0.001)" />

<path d="M321,82c0,0,48,0,90,25c0,0,41,24,87,75V325H392c0,0,-50,0,-88,-9c0,0,-37,-9,-62,-25c0,0,-24,-17,-36,-41c0,0,-11,-23,-11,-54c0,0,0,-52,33,-83c0,0,33,-31,93,-31ZM301,-13c0,0,-53,0,-96,13c0,0,-43,14,-73,40c0,0,-30,26,-47,64c0,0,-17,38,-17,87c0,0,0,56,24,98c0,0,23,42,66,69c0,0,43,28,106,42c0,0,63,14,141,14h93v52c0,0,0,39,-9,69c0,0,-8,30,-26,50c0,0,-18,20,-47,30c0,0,-30,10,-72,10c0,0,-46,0,-82,-11c0,0,-36,-11,-63,-24c0,0,-27,-13,-46,-24c0,0,-18,-11,-27,-11c0,0,-6,0,-10,3c0,0,-5,3,-8,9c0,0,-3,6,-5,16c0,0,-1,9,-1,20c0,0,0,19,2,30c0,0,3,11,13,20c0,0,10,10,35,23c0,0,24,13,56,24c0,0,32,10,70,17c0,0,38,8,77,8c0,0,73,0,123,-17c0,0,51,-16,82,-48c0,0,32,-32,46,-79c0,0,14,-47,14,-110V18c0,0,0,-9,-6,-14c0,0,-6,-4,-16,-6c0,0,-11,-2,-31,-2c0,0,-19,0,-31,2c0,0,-12,2,-17,6c0,0,-5,5,-5,13V85c0,0,-44,-47,-98,-73c0,0,-54,-25,-115,-25Z" 
id="f0_77"
transform="scale(0.001,-0.001)" />

<path d="M431,92c0,0,46,0,79,22c0,0,33,23,53,60c0,0,21,37,30,83c0,0,10,46,10,93c0,0,0,51,-8,100c0,0,-8,49,-28,86c0,0,-19,37,-51,60c0,0,-32,23,-80,23c0,0,-24,0,-47,-7c0,0,-23,-7,-47,-22c0,0,-24,-16,-50,-41c0,0,-25,-24,-55,-62V219c0,0,51,-62,98,-95c0,0,46,-32,96,-32ZM443,-13c0,0,-32,0,-59,7c0,0,-27,6,-53,19c0,0,-26,14,-52,36c0,0,-27,22,-56,52V18c0,0,0,-6,-3,-10c0,0,-3,-5,-9,-7c0,0,-7,-2,-17,-3c0,0,-10,-2,-26,-2c0,0,-15,0,-25,2c0,0,-11,1,-17,3c0,0,-7,2,-9,7c0,0,-3,4,-3,10v997c0,0,0,6,3,11c0,0,3,4,10,7c0,0,7,3,19,5c0,0,12,1,30,1c0,0,18,0,30,-1c0,0,12,-2,19,-5c0,0,7,-3,9,-7c0,0,3,-5,3,-10V614c0,0,30,31,58,52c0,0,28,20,55,34c0,0,27,13,54,19c0,0,27,6,57,6c0,0,73,0,125,-30c0,0,52,-29,84,-78c0,0,32,-48,47,-114c0,0,15,-66,15,-139c0,0,0,-87,-19,-157c0,0,-19,-70,-56,-119c0,0,-37,-49,-90,-76c0,0,-54,-25,-124,-25Z" 
id="f0_7k"
transform="scale(0.001,-0.001)" />

<path d="M272,-13c0,0,-35,0,-68,6c0,0,-32,6,-58,13c0,0,-26,9,-44,18c0,0,-17,10,-26,17c0,0,-8,8,-12,21c0,0,-3,14,-3,37c0,0,0,14,1,24c0,0,2,9,4,15c0,0,2,6,6,9c0,0,4,3,10,3c0,0,8,0,24,-11c0,0,16,-10,39,-22c0,0,24,-12,56,-22c0,0,32,-10,74,-10c0,0,31,0,56,7c0,0,26,6,44,19c0,0,19,14,29,34c0,0,10,20,10,47c0,0,0,29,-14,48c0,0,-15,19,-39,34c0,0,-24,15,-53,27c0,0,-30,11,-62,24c0,0,-32,13,-62,29c0,0,-30,16,-54,39c0,0,-24,23,-38,55c0,0,-15,32,-15,77c0,0,0,40,16,76c0,0,15,36,45,63c0,0,31,28,77,44c0,0,46,17,107,17c0,0,27,0,54,-5c0,0,26,-5,48,-11c0,0,22,-7,37,-15c0,0,15,-8,23,-14c0,0,8,-6,11,-11c0,0,2,-4,3,-10c0,0,1,-5,2,-14c0,0,2,-8,2,-20c0,0,0,-12,-2,-22c0,0,-1,-9,-3,-15c0,0,-3,-6,-7,-8c0,0,-3,-3,-8,-3c0,0,-7,0,-19,8c0,0,-13,8,-33,18c0,0,-20,9,-47,17c0,0,-28,9,-63,9c0,0,-31,0,-55,-7c0,0,-24,-7,-39,-20c0,0,-15,-13,-23,-31c0,0,-8,-18,-8,-39c0,0,0,-29,15,-49c0,0,15,-20,39,-35c0,0,24,-15,54,-27c0,0,31,-11,62,-24c0,0,32,-13,63,-29c0,0,31,-15,55,-38c0,0,24,-22,38,-53c0,0,15,-32,15,-75c0,0,0,-51,-19,-92c0,0,-19,-40,-54,-68C463,42,428,15,379,1c0,0,-48,-14,-107,-14Z" 
id="f0_b5"
transform="scale(0.001,-0.001)" />

<path d="M346,-4c0,0,-23,0,-38,2c0,0,-15,1,-24,3c0,0,-9,3,-15,8c0,0,-5,6,-8,13L33,660c0,0,-3,9,-5,15c0,0,-2,7,-2,11c0,0,0,3,0,5c0,0,0,6,3,11c0,0,3,4,10,7c0,0,7,2,18,3c0,0,12,1,29,1c0,0,22,0,35,-1c0,0,13,-1,20,-4c0,0,7,-3,10,-8c0,0,4,-4,7,-11L347,135l3,-9l2,9L540,689c0,0,1,7,5,11c0,0,3,5,11,8c0,0,7,3,19,4c0,0,12,1,32,1c0,0,18,0,29,-1c0,0,11,-1,17,-4c0,0,7,-3,9,-7c0,0,3,-4,3,-10c0,0,0,-3,-1,-6c0,0,0,-4,-1,-7c0,0,0,-4,-2,-8c0,0,-1,-5,-2,-10L430,22c0,0,-3,-8,-8,-13c0,0,-5,-6,-15,-9c0,0,-9,-2,-24,-3c0,0,-15,-1,-37,-1Z" 
id="f0_ch"
transform="scale(0.001,-0.001)" />

<path d="M176,-4c0,0,-18,0,-30,2c0,0,-12,1,-19,3c0,0,-7,3,-10,7c0,0,-3,4,-3,10V690c0,0,0,6,3,10c0,0,2,4,9,7c0,0,6,4,17,5c0,0,10,1,27,1c0,0,17,0,28,-1c0,0,10,-1,16,-5c0,0,6,-3,9,-7c0,0,3,-4,3,-10V601c0,0,56,64,110,94c0,0,53,30,108,30c0,0,42,0,75,-10c0,0,33,-10,58,-28c0,0,26,-17,44,-42c0,0,18,-24,30,-55c0,0,33,37,63,63c0,0,31,26,59,41c0,0,28,16,54,23c0,0,27,8,53,8c0,0,65,0,109,-23c0,0,44,-23,71,-61c0,0,28,-38,39,-89c0,0,12,-52,12,-108V18c0,0,0,-6,-3,-10c0,0,-3,-4,-10,-7c0,0,-7,-2,-19,-3c0,0,-12,-2,-29,-2c0,0,-19,0,-31,2c0,0,-12,1,-19,3c0,0,-7,3,-10,7c0,0,-3,4,-3,10V427c0,0,0,43,-8,78c0,0,-7,35,-23,61c0,0,-17,25,-42,38c0,0,-25,14,-60,14c0,0,-42,0,-85,-33c0,0,-43,-33,-94,-96V18c0,0,0,-6,-3,-10c0,0,-3,-4,-11,-7c0,0,-7,-2,-19,-3c0,0,-11,-2,-29,-2c0,0,-18,0,-30,2c0,0,-12,1,-19,3c0,0,-7,3,-10,7c0,0,-3,4,-3,10V427c0,0,0,43,-8,78c0,0,-8,35,-24,61c0,0,-17,25,-42,38c0,0,-25,14,-59,14c0,0,-43,0,-86,-33c0,0,-44,-33,-95,-96V18c0,0,0,-6,-3,-10c0,0,-2,-4,-9,-7c0,0,-7,-2,-19,-3c0,0,-12,-2,-30,-2Z" 
id="f0_ae"
transform="scale(0.001,-0.001)" />

<path d="M429,92c0,0,47,0,80,22c0,0,33,23,54,60c0,0,20,38,30,84c0,0,10,46,10,93c0,0,0,52,-8,100c0,0,-8,48,-27,86c0,0,-19,37,-51,60c0,0,-32,22,-80,22c0,0,-24,0,-47,-7c0,0,-23,-7,-47,-23c0,0,-24,-15,-50,-40c0,0,-26,-25,-56,-62V220c0,0,51,-62,97,-95c0,0,45,-33,95,-33ZM176,-271c0,0,-18,0,-30,2c0,0,-12,1,-19,4c0,0,-7,3,-10,8c0,0,-3,4,-3,10V690c0,0,0,6,3,10c0,0,2,5,9,8c0,0,6,3,17,4c0,0,10,1,25,1c0,0,16,0,26,-1c0,0,10,-1,17,-4c0,0,6,-3,9,-7c0,0,3,-4,3,-11V601c0,0,30,31,59,54c0,0,28,23,57,39c0,0,28,15,59,23c0,0,30,8,63,8c0,0,74,0,125,-29c0,0,52,-28,84,-77c0,0,32,-50,47,-115c0,0,15,-65,15,-139c0,0,0,-88,-19,-158c0,0,-19,-70,-56,-119c0,0,-37,-49,-91,-75c0,0,-55,-26,-125,-26c0,0,-30,0,-55,6c0,0,-25,6,-50,18c0,0,-24,13,-48,32c0,0,-24,19,-51,46V-247c0,0,0,-6,-3,-10c0,0,-2,-5,-9,-8c0,0,-7,-3,-19,-4c0,0,-12,-2,-30,-2Z" 
id="f0_ay"
transform="scale(0.001,-0.001)" />

<path d="M176,-4c0,0,-18,0,-30,2c0,0,-12,1,-19,3c0,0,-7,3,-10,7c0,0,-3,4,-3,10v997c0,0,0,6,3,11c0,0,3,4,10,7c0,0,7,3,19,5c0,0,12,1,30,1c0,0,18,0,30,-1c0,0,12,-2,19,-5c0,0,7,-3,9,-7c0,0,3,-5,3,-11V18c0,0,0,-6,-3,-10c0,0,-2,-4,-9,-7c0,0,-7,-2,-19,-3c0,0,-12,-2,-30,-2Z" 
id="f0_a8"
transform="scale(0.001,-0.001)" />

<path d="M102,0C102,0,87,0,77,10C77,10,66,21,66,45V71c0,0,0,10,2,18c0,0,1,9,4,17c0,0,3,8,9,17c0,0,5,10,12,22L390,606H102c0,0,-12,0,-19,13c0,0,-7,12,-7,39c0,0,0,14,2,24c0,0,1,10,5,16c0,0,3,7,8,9c0,0,5,3,11,3H487c0,0,9,0,15,-2c0,0,6,-3,11,-8c0,0,4,-5,7,-13c0,0,3,-8,3,-21V642c0,0,0,-10,-2,-19c0,0,-1,-9,-4,-18c0,0,-3,-8,-9,-18c0,0,-5,-10,-12,-22L201,104H516c0,0,6,0,11,-3c0,0,4,-3,8,-9c0,0,3,-6,5,-16c0,0,3,-10,3,-24c0,0,0,-14,-3,-24c0,0,-2,-10,-5,-16c0,0,-3,-7,-8,-9c0,0,-5,-3,-11,-3Z" 
id="f0_ct"
transform="scale(0.001,-0.001)" />

<path d="M366,92c0,0,25,0,48,7c0,0,22,6,46,22c0,0,24,16,50,41c0,0,26,24,56,61V492c0,0,-51,62,-97,94c0,0,-47,33,-98,33c0,0,-47,0,-79,-22c0,0,-33,-23,-54,-59c0,0,-20,-37,-30,-83c0,0,-9,-47,-9,-94c0,0,0,-51,8,-100c0,0,8,-48,27,-86c0,0,19,-38,52,-60c0,0,32,-23,80,-23ZM345,-13c0,0,-74,0,-127,28c0,0,-52,29,-84,78c0,0,-33,49,-48,115c0,0,-15,66,-15,139c0,0,0,86,19,156c0,0,19,70,55,119c0,0,37,50,91,76c0,0,54,27,125,27c0,0,59,0,108,-26c0,0,49,-26,97,-76v390c0,0,0,5,2,10c0,0,3,4,10,7c0,0,8,3,19,5c0,0,12,1,30,1c0,0,18,0,30,-1c0,0,12,-2,19,-5c0,0,7,-3,10,-7c0,0,3,-5,3,-10V18c0,0,0,-6,-2,-10c0,0,-3,-5,-9,-7c0,0,-7,-2,-17,-3c0,0,-10,-2,-25,-2c0,0,-16,0,-26,2c0,0,-11,1,-18,3c0,0,-6,2,-9,7c0,0,-3,4,-3,10v90c0,0,-53,-58,-110,-90c0,0,-58,-31,-125,-31Z" 
id="f0_7v"
transform="scale(0.001,-0.001)" />

<path d="M441,106c0,0,45,0,77,10c0,0,33,10,58,31c0,0,25,21,39,51c0,0,15,31,15,71c0,0,0,43,-14,76c0,0,-14,33,-41,55c0,0,-26,23,-66,34c0,0,-40,12,-100,12H255V106ZM401,549c0,0,50,0,81,13c0,0,30,13,50,35c0,0,20,22,30,51c0,0,9,29,9,61c0,0,0,35,-10,63c0,0,-9,28,-30,48c0,0,-21,20,-55,30c0,0,-33,10,-88,10H255V549ZM176,0c0,0,-17,0,-33,12c0,0,-15,11,-15,40V913c0,0,0,29,15,41c0,0,16,11,33,11H395c0,0,87,0,142,-16c0,0,55,-17,92,-48c0,0,37,-31,55,-77c0,0,19,-45,19,-103c0,0,0,-34,-8,-65c0,0,-8,-32,-24,-58c0,0,-16,-27,-41,-47c0,0,-24,-21,-55,-35c0,0,39,-7,74,-27c0,0,34,-20,60,-50c0,0,26,-31,41,-72c0,0,15,-41,15,-90c0,0,0,-46,-12,-84c0,0,-12,-39,-32,-69c0,0,-21,-31,-51,-54c0,0,-29,-23,-66,-39C604,31,567,16,525,8C525,8,483,0,428,0Z" 
id="f0_i"
transform="scale(0.001,-0.001)" />

<path d="M351,-13c0,0,-67,0,-113,22c0,0,-46,22,-75,60c0,0,-28,39,-40,90c0,0,-13,51,-13,124V690c0,0,0,6,3,10c0,0,3,4,10,7c0,0,8,4,20,5c0,0,11,1,29,1c0,0,18,0,30,-1c0,0,12,-1,19,-5c0,0,7,-3,10,-7c0,0,3,-4,3,-10V299c0,0,0,-59,9,-94c0,0,8,-36,26,-61c0,0,18,-24,44,-38c0,0,27,-14,63,-14c0,0,46,0,92,33c0,0,46,32,98,95V690c0,0,0,6,2,10c0,0,3,4,10,7c0,0,8,4,19,5c0,0,12,1,30,1c0,0,18,0,30,-1c0,0,12,-1,19,-5c0,0,7,-3,10,-7c0,0,3,-4,3,-10V18c0,0,0,-6,-2,-10c0,0,-3,-4,-10,-7c0,0,-6,-2,-17,-3c0,0,-11,-2,-27,-2c0,0,-17,0,-28,2c0,0,-10,1,-17,3c0,0,-6,3,-8,7c0,0,-3,4,-3,10v89c0,0,-57,-63,-113,-92c0,0,-56,-28,-113,-28Z" 
id="f0_c6"
transform="scale(0.001,-0.001)" />

<path d="M435,92c0,0,86,0,147,69c0,0,60,68,60,186c0,0,0,114,-60,179c0,0,-60,66,-152,66c0,0,-91,0,-154,-66c0,0,-64,-65,-64,-171c0,0,0,-70,30,-133c0,0,29,-64,82,-97c0,0,52,-33,111,-33Zm3,-110c0,0,-168,0,-274,123C164,105,58,228,58,512c0,0,0,317,117,461c0,0,102,125,275,125c0,0,129,0,212,-72c0,0,82,-72,99,-200L627,815c0,0,-18,79,-51,115c0,0,-54,58,-134,58c0,0,-64,0,-113,-36c0,0,-63,-46,-99,-135c0,0,-37,-89,-38,-253c0,0,48,74,118,110c0,0,70,36,147,36c0,0,135,0,229,-99c0,0,94,-99,94,-256c0,0,0,-103,-44,-191C736,164,691,75,614,28c0,0,-78,-46,-176,-46Z" 
id="f2_q"
transform="scale(0.001,-0.001)" />


</defs>
</svg>