<?xml version="1.0" encoding="UTF-8" standalone="no"?>
<!DOCTYPE svg PUBLIC "-//W3C//DTD SVG 1.1//EN"
"http://www.w3.org/Graphics/SVG/1.1/DTD/svg11.dtd">
<svg viewBox="0 0 935 1210" version="1.1" xmlns="http://www.w3.org/2000/svg" xmlns:xlink="http://www.w3.org/1999/xlink">
<defs>
<style type="text/css"><![CDATA[
.g0_119{
}
]]></style>
</defs>
<g fill="#000000" >
<use xlink:href="#f0_77" transform="matrix(11,0,0,11,55,71.2)" />
<use xlink:href="#f0_b5" transform="matrix(11,0,0,11,63.1,71.2)" />
<use xlink:href="#f0_ci" transform="matrix(11,0,0,11,73.4,71.2)" />
<use xlink:href="#f0_7z" transform="matrix(11,0,0,11,85.4,71.2)" />
<use xlink:href="#f0_a8" transform="matrix(11,0,0,11,93.9,71.2)" />
<use xlink:href="#f0_a8" transform="matrix(11,0,0,11,97.9,71.2)" />
<use xlink:href="#f0_77" transform="matrix(11,0,0,11,105.6,71.2)" />
<use xlink:href="#f0_b5" transform="matrix(11,0,0,11,113.6,71.2)" />
<use xlink:href="#f0_bf" transform="matrix(11,0,0,11,123.9,71.2)" />
<use xlink:href="#f0_9n" transform="matrix(11,0,0,11,129.4,71.2)" />
<use xlink:href="#f0_7z" transform="matrix(11,0,0,11,138.2,71.2)" />
<use xlink:href="#f0_ay" transform="matrix(11,0,0,11,150.3,71.2)" />
<use xlink:href="#f0_am" transform="matrix(11,0,0,11,159.1,71.2)" />
<use xlink:href="#f0_b1" transform="matrix(11,0,0,11,167.9,71.2)" />
<use xlink:href="#f0_7z" transform="matrix(11,0,0,11,173.8,71.2)" />
<use xlink:href="#f0_b5" transform="matrix(11,0,0,11,185.9,71.2)" />
<use xlink:href="#f0_9q" transform="matrix(11,0,0,11,192.5,71.2)" />
<use xlink:href="#f0_ct" transform="matrix(11,0,0,11,196.5,71.2)" />
<use xlink:href="#f0_7z" transform="matrix(11,0,0,11,203.1,71.2)" />
<use xlink:href="#f0_am" transform="matrix(11,0,0,11,215.2,71.2)" />
<use xlink:href="#f0_89" transform="matrix(11,0,0,11,224,71.2)" />
<use xlink:href="#f0_bf" transform="matrix(11,0,0,11,233.1,71.2)" />
<use xlink:href="#f0_9n" transform="matrix(11,0,0,11,238.6,71.2)" />
<use xlink:href="#f0_7z" transform="matrix(11,0,0,11,247.4,71.2)" />
<use xlink:href="#f0_9d" transform="matrix(11,0,0,11,259.5,71.2)" />
<use xlink:href="#f0_7z" transform="matrix(11,0,0,11,267.6,71.2)" />
<use xlink:href="#f0_a8" transform="matrix(11,0,0,11,276,71.2)" />
<use xlink:href="#f0_nt" transform="matrix(11,0,0,11,280,71.2)" />
<use xlink:href="#f0_2t" transform="matrix(11,0,0,11,288,71.2)" />
<use xlink:href="#f0_9n" transform="matrix(11,0,0,11,296.1,71.2)" />
<use xlink:href="#f0_7z" transform="matrix(11,0,0,11,304.9,71.2)" />
<use xlink:href="#f0_b5" transform="matrix(11,0,0,11,317,71.2)" />
<use xlink:href="#f0_ae" transform="matrix(11,0,0,11,323.6,71.2)" />
<use xlink:href="#f0_77" transform="matrix(11,0,0,11,337.2,71.2)" />
<use xlink:href="#f0_a8" transform="matrix(11,0,0,11,345.2,71.2)" />
<use xlink:href="#f0_a8" transform="matrix(11,0,0,11,349.2,71.2)" />
<use xlink:href="#f0_7z" transform="matrix(11,0,0,11,353.3,71.2)" />
<use xlink:href="#f0_b1" transform="matrix(11,0,0,11,361.7,71.2)" />
<use xlink:href="#f0_p" transform="matrix(11,0,0,11,371.2,71.2)" />
<use xlink:href="#f0_1y" transform="matrix(11,0,0,11,381.5,71.2)" />
<use xlink:href="#f0_5" transform="matrix(11,0,0,11,392.5,71.2)" />
<use xlink:href="#f0_89" transform="matrix(11,0,0,11,406,71.2)" />
<use xlink:href="#f0_b1" transform="matrix(11,0,0,11,411.2,71.2)" />
<use xlink:href="#f0_77" transform="matrix(11,0,0,11,417,71.2)" />
<use xlink:href="#f0_9d" transform="matrix(11,0,0,11,424.7,71.2)" />
<use xlink:href="#f0_ae" transform="matrix(11,0,0,11,432.8,71.2)" />
<use xlink:href="#f0_7z" transform="matrix(11,0,0,11,446.3,71.2)" />
<use xlink:href="#f0_af" transform="matrix(11,0,0,11,454.7,71.2)" />
<use xlink:href="#f0_bf" transform="matrix(11,0,0,11,463.6,71.2)" />
<use xlink:href="#f0_b5" transform="matrix(11,0,0,11,469,71.2)" />
<use xlink:href="#f0_77" transform="matrix(11,0,0,11,479.3,71.2)" />
<use xlink:href="#f0_b1" transform="matrix(11,0,0,11,487.4,71.2)" />
<use xlink:href="#f0_7z" transform="matrix(11,0,0,11,493.3,71.2)" />
<use xlink:href="#f0_77" transform="matrix(11,0,0,11,505.3,71.2)" />
<use xlink:href="#f0_7k" transform="matrix(11,0,0,11,513.4,71.2)" />
<use xlink:href="#f0_a8" transform="matrix(11,0,0,11,522.2,71.2)" />
<use xlink:href="#f0_7z" transform="matrix(11,0,0,11,526.2,71.2)" />
<use xlink:href="#f0_bf" transform="matrix(11,0,0,11,538.3,71.2)" />
<use xlink:href="#f0_am" transform="matrix(11,0,0,11,543.8,71.2)" />
<use xlink:href="#f0_ae" transform="matrix(11,0,0,11,556.3,71.2)" />
<use xlink:href="#f0_9q" transform="matrix(11,0,0,11,569.8,71.2)" />
<use xlink:href="#f0_9d" transform="matrix(11,0,0,11,573.8,71.2)" />
<use xlink:href="#f0_b1" transform="matrix(11,0,0,11,581.9,71.2)" />
<use xlink:href="#f0_77" transform="matrix(11,0,0,11,587.8,71.2)" />
<use xlink:href="#f0_bf" transform="matrix(11,0,0,11,595.8,71.2)" />
<use xlink:href="#f0_7z" transform="matrix(11,0,0,11,601.3,71.2)" />
<use xlink:href="#f0_89" transform="matrix(11,0,0,11,613.4,71.2)" />
<use xlink:href="#f0_77" transform="matrix(11,0,0,11,618.6,71.2)" />
<use xlink:href="#f0_b1" transform="matrix(11,0,0,11,626.6,71.2)" />
<use xlink:href="#f0_bf" transform="matrix(11,0,0,11,632.5,71.2)" />
<use xlink:href="#f0_9n" transform="matrix(11,0,0,11,638,71.2)" />
<use xlink:href="#f0_7z" transform="matrix(11,0,0,11,646.8,71.2)" />
<use xlink:href="#f0_b1" transform="matrix(11,0,0,11,655.2,71.2)" />
<use xlink:href="#f0_bf" transform="matrix(11,0,0,11,664.7,71.2)" />
<use xlink:href="#f0_9n" transform="matrix(11,0,0,11,670.2,71.2)" />
<use xlink:href="#f0_77" transform="matrix(11,0,0,11,679.1,71.2)" />
<use xlink:href="#f0_af" transform="matrix(11,0,0,11,687.1,71.2)" />
<use xlink:href="#f0_bf" transform="matrix(11,0,0,11,699.9,71.2)" />
<use xlink:href="#f0_9n" transform="matrix(11,0,0,11,705.4,71.2)" />
<use xlink:href="#f0_7z" transform="matrix(11,0,0,11,714.2,71.2)" />
<use xlink:href="#f0_a8" transform="matrix(11,0,0,11,726.3,71.2)" />
<use xlink:href="#f0_77" transform="matrix(11,0,0,11,730.3,71.2)" />
<use xlink:href="#f0_b1" transform="matrix(11,0,0,11,738.4,71.2)" />
<use xlink:href="#f0_9d" transform="matrix(11,0,0,11,744.3,71.2)" />
<use xlink:href="#f0_7z" transform="matrix(11,0,0,11,752.3,71.2)" />
<use xlink:href="#f0_b1" transform="matrix(11,0,0,11,760.7,71.2)" />
<use xlink:href="#f0_p" transform="matrix(11,0,0,11,770.3,71.2)" />
<use xlink:href="#f0_1y" transform="matrix(11,0,0,11,780.6,71.2)" />
<use xlink:href="#f0_5" transform="matrix(11,0,0,11,791.5,71.2)" />
<use xlink:href="#f0_89" transform="matrix(11,0,0,11,805.1,71.2)" />
<use xlink:href="#f0_b1" transform="matrix(11,0,0,11,810.2,71.2)" />
<use xlink:href="#f0_77" transform="matrix(11,0,0,11,816.1,71.2)" />
<use xlink:href="#f0_9d" transform="matrix(11,0,0,11,824.2,71.2)" />
<use xlink:href="#f0_ae" transform="matrix(11,0,0,11,832.2,71.2)" />
<use xlink:href="#f0_7z" transform="matrix(11,0,0,11,845.7,71.2)" />
<use xlink:href="#f0_af" transform="matrix(11,0,0,11,855,71.2)" />
<use xlink:href="#f0_bf" transform="matrix(11,0,0,11,863.8,71.2)" />
<use xlink:href="#f0_b5" transform="matrix(11,0,0,11,869.3,71.2)" />
<use xlink:href="#f0_nt" transform="matrix(11,0,0,11,875.9,71.2)" />
<use xlink:href="#f0_2t" transform="matrix(11,0,0,11,55,102)" />
<use xlink:href="#f0_9n" transform="matrix(11,0,0,11,63.1,102)" />
<use xlink:href="#f0_7z" transform="matrix(11,0,0,11,71.9,102)" />
<use xlink:href="#f0_ae" transform="matrix(11,0,0,11,84,102)" />
<use xlink:href="#f0_am" transform="matrix(11,0,0,11,97.5,102)" />
<use xlink:href="#f0_b5" transform="matrix(11,0,0,11,106.3,102)" />
<use xlink:href="#f0_bf" transform="matrix(11,0,0,11,112.9,102)" />
<use xlink:href="#f0_7l" transform="matrix(11,0,0,11,122.1,102)" />
<use xlink:href="#f0_am" transform="matrix(11,0,0,11,129.4,102)" />
<use xlink:href="#f0_ae" transform="matrix(11,0,0,11,138.2,102)" />
<use xlink:href="#f0_ae" transform="matrix(11,0,0,11,151.8,102)" />
<use xlink:href="#f0_am" transform="matrix(11,0,0,11,165.3,102)" />
<use xlink:href="#f0_af" transform="matrix(11,0,0,11,174.1,102)" />
<use xlink:href="#f0_ae" transform="matrix(11,0,0,11,186.6,102)" />
<use xlink:href="#f0_77" transform="matrix(11,0,0,11,200.1,102)" />
<use xlink:href="#f0_bf" transform="matrix(11,0,0,11,208.2,102)" />
<use xlink:href="#f0_b1" transform="matrix(11,0,0,11,213.7,102)" />
<use xlink:href="#f0_9q" transform="matrix(11,0,0,11,219.6,102)" />
<use xlink:href="#f0_cn" transform="matrix(11,0,0,11,223.6,102)" />
<use xlink:href="#f0_c6" transform="matrix(11,0,0,11,234.6,102)" />
<use xlink:href="#f0_b5" transform="matrix(11,0,0,11,243.4,102)" />
<use xlink:href="#f0_7z" transform="matrix(11,0,0,11,250,102)" />
<use xlink:href="#f0_7v" transform="matrix(11,0,0,11,258.4,102)" />
<use xlink:href="#f0_89" transform="matrix(11,0,0,11,270.9,102)" />
<use xlink:href="#f0_am" transform="matrix(11,0,0,11,276,102)" />
<use xlink:href="#f0_b1" transform="matrix(11,0,0,11,284.8,102)" />
<use xlink:href="#f0_p" transform="matrix(11,0,0,11,294.3,102)" />
<use xlink:href="#f0_1y" transform="matrix(11,0,0,11,304.6,102)" />
<use xlink:href="#f0_5" transform="matrix(11,0,0,11,315.6,102)" />
<use xlink:href="#f0_7z" transform="matrix(11,0,0,11,329.1,102)" />
<use xlink:href="#f0_a8" transform="matrix(11,0,0,11,337.5,102)" />
<use xlink:href="#f0_7z" transform="matrix(11,0,0,11,341.6,102)" />
<use xlink:href="#f0_7l" transform="matrix(11,0,0,11,350,102)" />
<use xlink:href="#f0_bf" transform="matrix(11,0,0,11,357,102)" />
<use xlink:href="#f0_b1" transform="matrix(11,0,0,11,362.5,102)" />
<use xlink:href="#f0_am" transform="matrix(11,0,0,11,368.4,102)" />
<use xlink:href="#f0_ay" transform="matrix(11,0,0,11,377.1,102)" />
<use xlink:href="#f0_9n" transform="matrix(11,0,0,11,385.9,102)" />
<use xlink:href="#f0_am" transform="matrix(11,0,0,11,394.7,102)" />
<use xlink:href="#f0_b1" transform="matrix(11,0,0,11,403.6,102)" />
<use xlink:href="#f0_7z" transform="matrix(11,0,0,11,409.4,102)" />
<use xlink:href="#f0_b5" transform="matrix(11,0,0,11,417.8,102)" />
<use xlink:href="#f0_9q" transform="matrix(11,0,0,11,424.4,102)" />
<use xlink:href="#f0_b5" transform="matrix(11,0,0,11,428.5,102)" />
<use xlink:href="#f0_9q" transform="matrix(11,0,0,11,438.7,102)" />
<use xlink:href="#f0_b5" transform="matrix(11,0,0,11,442.8,102)" />
<use xlink:href="#f0_77" transform="matrix(11,0,0,11,453,102)" />
<use xlink:href="#f0_9d" transform="matrix(11,0,0,11,461.1,102)" />
<use xlink:href="#f0_77" transform="matrix(11,0,0,11,469.1,102)" />
<use xlink:href="#f0_b1" transform="matrix(11,0,0,11,477.2,102)" />
<use xlink:href="#f0_am" transform="matrix(11,0,0,11,483.1,102)" />
<use xlink:href="#f0_b5" transform="matrix(11,0,0,11,491.9,102)" />
<use xlink:href="#f0_7z" transform="matrix(11,0,0,11,498.5,102)" />
<use xlink:href="#f0_nt" transform="matrix(11,0,0,11,506.9,102)" />
<use xlink:href="#f0_5" transform="matrix(11,0,0,11,515,102)" />
<use xlink:href="#f0_9d" transform="matrix(11,0,0,11,524.5,102)" />
<use xlink:href="#f0_77" transform="matrix(11,0,0,11,532.5,102)" />
<use xlink:href="#f0_b1" transform="matrix(11,0,0,11,540.6,102)" />
<use xlink:href="#f0_am" transform="matrix(11,0,0,11,546.5,102)" />
<use xlink:href="#f0_b5" transform="matrix(11,0,0,11,555.3,102)" />
<use xlink:href="#f0_7z" transform="matrix(11,0,0,11,561.9,102)" />
<use xlink:href="#f0_9q" transform="matrix(11,0,0,11,574,102)" />
<use xlink:href="#f0_b5" transform="matrix(11,0,0,11,578,102)" />
<use xlink:href="#f0_am" transform="matrix(11,0,0,11,588.3,102)" />
<use xlink:href="#f0_7k" transform="matrix(11,0,0,11,597.1,102)" />
<use xlink:href="#f0_bf" transform="matrix(11,0,0,11,605.9,102)" />
<use xlink:href="#f0_77" transform="matrix(11,0,0,11,611.4,102)" />
<use xlink:href="#f0_9q" transform="matrix(11,0,0,11,619.4,102)" />
<use xlink:href="#f0_af" transform="matrix(11,0,0,11,623.4,102)" />
<use xlink:href="#f0_7z" transform="matrix(11,0,0,11,632.2,102)" />
<use xlink:href="#f0_7v" transform="matrix(11,0,0,11,640.6,102)" />
<use xlink:href="#f0_89" transform="matrix(11,0,0,11,653.1,102)" />
<use xlink:href="#f0_b1" transform="matrix(11,0,0,11,658.3,102)" />
<use xlink:href="#f0_am" transform="matrix(11,0,0,11,664.2,102)" />
<use xlink:href="#f0_ae" transform="matrix(11,0,0,11,672.9,102)" />
<use xlink:href="#f0_b5" transform="matrix(11,0,0,11,690.2,102)" />
<use xlink:href="#f0_7z" transform="matrix(11,0,0,11,696.7,102)" />
<use xlink:href="#f0_77" transform="matrix(11,0,0,11,705.1,102)" />
<use xlink:href="#f0_ci" transform="matrix(11,0,0,11,713.2,102)" />
<use xlink:href="#f0_7z" transform="matrix(11,0,0,11,725.3,102)" />
<use xlink:href="#f0_7z" transform="matrix(11,0,0,11,733.7,102)" />
<use xlink:href="#f0_7v" transform="matrix(11,0,0,11,742.2,102)" />
<use xlink:href="#f0_b5" transform="matrix(11,0,0,11,751,102)" />
<use xlink:href="#f0_nt" transform="matrix(11,0,0,11,757.2,102)" />
<use xlink:href="#f0_38" transform="matrix(11,0,0,11,55,144.9)" />
<use xlink:href="#f0_9q" transform="matrix(11,0,0,11,64.6,144.9)" />
<use xlink:href="#f0_b5" transform="matrix(11,0,0,11,68.6,144.9)" />
<use xlink:href="#f0_c6" transform="matrix(11,0,0,11,75.2,144.9)" />
<use xlink:href="#f0_77" transform="matrix(11,0,0,11,84,144.9)" />
<use xlink:href="#f0_a8" transform="matrix(11,0,0,11,92,144.9)" />
<use xlink:href="#f0_9q" transform="matrix(11,0,0,11,96.1,144.9)" />
<use xlink:href="#f0_ct" transform="matrix(11,0,0,11,100.1,144.9)" />
<use xlink:href="#f0_77" transform="matrix(11,0,0,11,106.7,144.9)" />
<use xlink:href="#f0_bf" transform="matrix(11,0,0,11,114.7,144.9)" />
<use xlink:href="#f0_9q" transform="matrix(11,0,0,11,119.9,144.9)" />
<use xlink:href="#f0_am" transform="matrix(11,0,0,11,123.9,144.9)" />
<use xlink:href="#f0_af" transform="matrix(11,0,0,11,132.7,144.9)" />
<use xlink:href="#f0_ns" transform="matrix(11,0,0,11,141.6,144.9)" />
<use xlink:href="#f0_p" transform="matrix(11,0,0,11,150.7,144.9)" />
<use xlink:href="#f0_1y" transform="matrix(11,0,0,11,161,144.9)" />
<use xlink:href="#f0_5" transform="matrix(11,0,0,11,172,144.9)" />
<use xlink:href="#f0_89" transform="matrix(11,0,0,11,186.6,144.9)" />
<use xlink:href="#f0_b1" transform="matrix(11,0,0,11,191.8,144.9)" />
<use xlink:href="#f0_77" transform="matrix(11,0,0,11,197.7,144.9)" />
<use xlink:href="#f0_9d" transform="matrix(11,0,0,11,205.7,144.9)" />
<use xlink:href="#f0_ae" transform="matrix(11,0,0,11,213.4,144.9)" />
<use xlink:href="#f0_7z" transform="matrix(11,0,0,11,226.9,144.9)" />
<use xlink:href="#f0_af" transform="matrix(11,0,0,11,235.3,144.9)" />
<use xlink:href="#f0_bf" transform="matrix(11,0,0,11,244.2,144.9)" />
<use xlink:href="#f0_b5" transform="matrix(11,0,0,11,249.7,144.9)" />
<use xlink:href="#f0_7l" transform="matrix(11,0,0,11,261,144.9)" />
<use xlink:href="#f0_77" transform="matrix(11,0,0,11,268,144.9)" />
<use xlink:href="#f0_af" transform="matrix(11,0,0,11,276.1,144.9)" />
<use xlink:href="#f0_af" transform="matrix(11,0,0,11,284.9,144.9)" />
<use xlink:href="#f0_am" transform="matrix(11,0,0,11,293.7,144.9)" />
<use xlink:href="#f0_bf" transform="matrix(11,0,0,11,302.5,144.9)" />
<use xlink:href="#f0_7k" transform="matrix(11,0,0,11,312.7,144.9)" />
<use xlink:href="#f0_7z" transform="matrix(11,0,0,11,321.5,144.9)" />
<use xlink:href="#f0_7v" transform="matrix(11,0,0,11,334.7,144.9)" />
<use xlink:href="#f0_9q" transform="matrix(11,0,0,11,343.5,144.9)" />
<use xlink:href="#f0_b1" transform="matrix(11,0,0,11,347.5,144.9)" />
<use xlink:href="#f0_7z" transform="matrix(11,0,0,11,353.4,144.9)" />
<use xlink:href="#f0_7l" transform="matrix(11,0,0,11,361.8,144.9)" />
<use xlink:href="#f0_bf" transform="matrix(11,0,0,11,368.8,144.9)" />
<use xlink:href="#f0_a8" transform="matrix(11,0,0,11,374.3,144.9)" />
<use xlink:href="#f0_co" transform="matrix(11,0,0,11,378.3,144.9)" />
<use xlink:href="#f0_am" transform="matrix(11,0,0,11,390.8,144.9)" />
<use xlink:href="#f0_7k" transform="matrix(11,0,0,11,399.6,144.9)" />
<use xlink:href="#f0_b5" transform="matrix(11,0,0,11,408.4,144.9)" />
<use xlink:href="#f0_7z" transform="matrix(11,0,0,11,415,144.9)" />
<use xlink:href="#f0_b1" transform="matrix(11,0,0,11,423.4,144.9)" />
<use xlink:href="#f0_ch" transform="matrix(11,0,0,11,429.2,144.9)" />
<use xlink:href="#f0_7z" transform="matrix(11,0,0,11,437,144.9)" />
<use xlink:href="#f0_7v" transform="matrix(11,0,0,11,445.4,144.9)" />
<use xlink:href="#f0_nt" transform="matrix(11,0,0,11,454.2,144.9)" />
<use xlink:href="#f0_2t" transform="matrix(11,0,0,11,463.3,144.9)" />
<use xlink:href="#f0_am" transform="matrix(11,0,0,11,471.4,144.9)" />
<use xlink:href="#f0_am" transform="matrix(11,0,0,11,485,144.9)" />
<use xlink:href="#f0_7k" transform="matrix(11,0,0,11,493.8,144.9)" />
<use xlink:href="#f0_b5" transform="matrix(11,0,0,11,502.6,144.9)" />
<use xlink:href="#f0_7z" transform="matrix(11,0,0,11,509.2,144.9)" />
<use xlink:href="#f0_b1" transform="matrix(11,0,0,11,517.6,144.9)" />
<use xlink:href="#f0_ch" transform="matrix(11,0,0,11,523.4,144.9)" />
<use xlink:href="#f0_7z" transform="matrix(11,0,0,11,531.2,144.9)" />
<use xlink:href="#f0_bf" transform="matrix(11,0,0,11,544.3,144.9)" />
<use xlink:href="#f0_9n" transform="matrix(11,0,0,11,549.8,144.9)" />
<use xlink:href="#f0_7z" transform="matrix(11,0,0,11,558.6,144.9)" />
<use xlink:href="#f0_p" transform="matrix(11,0,0,11,571.8,144.9)" />
<use xlink:href="#f0_1y" transform="matrix(11,0,0,11,582.1,144.9)" />
<use xlink:href="#f0_5" transform="matrix(11,0,0,11,593.1,144.9)" />
<use xlink:href="#f0_89" transform="matrix(11,0,0,11,608.1,144.9)" />
<use xlink:href="#f0_b1" transform="matrix(11,0,0,11,613.3,144.9)" />
<use xlink:href="#f0_77" transform="matrix(11,0,0,11,619.2,144.9)" />
<use xlink:href="#f0_9d" transform="matrix(11,0,0,11,627.3,144.9)" />
<use xlink:href="#f0_ae" transform="matrix(11,0,0,11,634.9,144.9)" />
<use xlink:href="#f0_7z" transform="matrix(11,0,0,11,648.5,144.9)" />
<use xlink:href="#f0_af" transform="matrix(11,0,0,11,656.9,144.9)" />
<use xlink:href="#f0_bf" transform="matrix(11,0,0,11,665.7,144.9)" />
<use xlink:href="#f0_b5" transform="matrix(11,0,0,11,671.2,144.9)" />
<use xlink:href="#f0_bf" transform="matrix(11,0,0,11,682.6,144.9)" />
<use xlink:href="#f0_9n" transform="matrix(11,0,0,11,688.1,144.9)" />
<use xlink:href="#f0_7z" transform="matrix(11,0,0,11,696.9,144.9)" />
<use xlink:href="#f0_co" transform="matrix(11,0,0,11,705.3,144.9)" />
<use xlink:href="#f0_af" transform="matrix(11,0,0,11,717.8,144.9)" />
<use xlink:href="#f0_7z" transform="matrix(11,0,0,11,726.6,144.9)" />
<use xlink:href="#f0_7z" transform="matrix(11,0,0,11,735,144.9)" />
<use xlink:href="#f0_7v" transform="matrix(11,0,0,11,743.5,144.9)" />
<use xlink:href="#f0_bf" transform="matrix(11,0,0,11,757,144.9)" />
<use xlink:href="#f0_am" transform="matrix(11,0,0,11,762.5,144.9)" />
<use xlink:href="#f0_7k" transform="matrix(11,0,0,11,776.1,144.9)" />
<use xlink:href="#f0_7z" transform="matrix(11,0,0,11,784.9,144.9)" />
<use xlink:href="#f0_89" transform="matrix(11,0,0,11,798.1,144.9)" />
<use xlink:href="#f0_9q" transform="matrix(11,0,0,11,803.2,144.9)" />
<use xlink:href="#f0_b1" transform="matrix(11,0,0,11,807.2,144.9)" />
<use xlink:href="#f0_b5" transform="matrix(11,0,0,11,813.1,144.9)" />
<use xlink:href="#f0_bf" transform="matrix(11,0,0,11,819.7,144.9)" />
<use xlink:href="#f0_b5" transform="matrix(11,0,0,11,830.1,144.9)" />
<use xlink:href="#f0_bf" transform="matrix(11,0,0,11,836.7,144.9)" />
<use xlink:href="#f0_77" transform="matrix(11,0,0,11,842.2,144.9)" />
<use xlink:href="#f0_9q" transform="matrix(11,0,0,11,850.2,144.9)" />
<use xlink:href="#f0_af" transform="matrix(11,0,0,11,854.2,144.9)" />
<use xlink:href="#f0_7z" transform="matrix(11,0,0,11,863,144.9)" />
<use xlink:href="#f0_7v" transform="matrix(11,0,0,11,871.4,144.9)" />
</g>
<path fill-rule="evenodd" d="M55,147.8h86.6v-1.1H55v1.1Z" class="g0_119" />
<g fill="#000000" >
<use xlink:href="#f0_ci" transform="matrix(11,0,0,11,55,175.7)" />
<use xlink:href="#f0_9q" transform="matrix(11,0,0,11,67.1,175.7)" />
<use xlink:href="#f0_bf" transform="matrix(11,0,0,11,71.2,175.7)" />
<use xlink:href="#f0_9n" transform="matrix(11,0,0,11,76.7,175.7)" />
<use xlink:href="#f0_77" transform="matrix(11,0,0,11,89.5,175.7)" />
<use xlink:href="#f0_7l" transform="matrix(11,0,0,11,101.6,175.7)" />
<use xlink:href="#f0_am" transform="matrix(11,0,0,11,108.5,175.7)" />
<use xlink:href="#f0_ae" transform="matrix(11,0,0,11,117.3,175.7)" />
<use xlink:href="#f0_ay" transform="matrix(11,0,0,11,130.9,175.7)" />
<use xlink:href="#f0_am" transform="matrix(11,0,0,11,139.7,175.7)" />
<use xlink:href="#f0_c6" transform="matrix(11,0,0,11,148.5,175.7)" />
<use xlink:href="#f0_af" transform="matrix(11,0,0,11,157.3,175.7)" />
<use xlink:href="#f0_7v" transform="matrix(11,0,0,11,166.1,175.7)" />
<use xlink:href="#f0_7l" transform="matrix(11,0,0,11,179.2,175.7)" />
<use xlink:href="#f0_77" transform="matrix(11,0,0,11,186.2,175.7)" />
<use xlink:href="#f0_a8" transform="matrix(11,0,0,11,194.3,175.7)" />
<use xlink:href="#f0_a8" transform="matrix(11,0,0,11,198.3,175.7)" />
<use xlink:href="#f0_7z" transform="matrix(11,0,0,11,202.3,175.7)" />
<use xlink:href="#f0_7v" transform="matrix(11,0,0,11,210.7,175.7)" />
<use xlink:href="#f0_77" transform="matrix(11,0,0,11,223.6,175.7)" />
<use xlink:href="#f0_b5" transform="matrix(11,0,0,11,231.6,175.7)" />
<use xlink:href="#f0_7z" transform="matrix(11,0,0,11,242.2,175.7)" />
<use xlink:href="#f0_bf" transform="matrix(11,0,0,11,250.6,175.7)" />
<use xlink:href="#f0_9n" transform="matrix(11,0,0,11,256.2,175.7)" />
<use xlink:href="#f0_9q" transform="matrix(11,0,0,11,265,175.7)" />
<use xlink:href="#f0_7v" transform="matrix(11,0,0,11,269,175.7)" />
<use xlink:href="#f0_9q" transform="matrix(11,0,0,11,277.8,175.7)" />
<use xlink:href="#f0_c6" transform="matrix(11,0,0,11,281.8,175.7)" />
<use xlink:href="#f0_ae" transform="matrix(11,0,0,11,290.6,175.7)" />
<use xlink:href="#f0_7k" transform="matrix(11,0,0,11,308.2,175.7)" />
<use xlink:href="#f0_b1" transform="matrix(11,0,0,11,317,175.7)" />
<use xlink:href="#f0_am" transform="matrix(11,0,0,11,322.9,175.7)" />
<use xlink:href="#f0_ae" transform="matrix(11,0,0,11,331.7,175.7)" />
<use xlink:href="#f0_9q" transform="matrix(11,0,0,11,345.2,175.7)" />
<use xlink:href="#f0_7v" transform="matrix(11,0,0,11,349.2,175.7)" />
<use xlink:href="#f0_7z" transform="matrix(11,0,0,11,358,175.7)" />
<use xlink:href="#f0_ov" transform="matrix(11,0,0,11,370.5,175.7)" />
<use xlink:href="#f0_t" transform="matrix(11,0,0,11,375.6,175.7)" />
<use xlink:href="#f0_bf" transform="matrix(11,0,0,11,383.7,175.7)" />
<use xlink:href="#f0_i" transform="matrix(11,0,0,11,389.2,175.7)" />
<use xlink:href="#f0_b1" transform="matrix(11,0,0,11,398.3,175.7)" />
<use xlink:href="#f0_ow" transform="matrix(11,0,0,11,404.2,175.7)" />
<use xlink:href="#f0_77" transform="matrix(11,0,0,11,413.4,175.7)" />
<use xlink:href="#f0_af" transform="matrix(11,0,0,11,421.4,175.7)" />
<use xlink:href="#f0_7v" transform="matrix(11,0,0,11,430.2,175.7)" />
<use xlink:href="#f0_bf" transform="matrix(11,0,0,11,443,175.7)" />
<use xlink:href="#f0_9n" transform="matrix(11,0,0,11,448.5,175.7)" />
<use xlink:href="#f0_7z" transform="matrix(11,0,0,11,457.3,175.7)" />
<use xlink:href="#f0_af" transform="matrix(11,0,0,11,465.7,175.7)" />
<use xlink:href="#f0_ay" transform="matrix(11,0,0,11,478.6,175.7)" />
<use xlink:href="#f0_a8" transform="matrix(11,0,0,11,487.4,175.7)" />
<use xlink:href="#f0_77" transform="matrix(11,0,0,11,491.4,175.7)" />
<use xlink:href="#f0_7l" transform="matrix(11,0,0,11,499.5,175.7)" />
<use xlink:href="#f0_7z" transform="matrix(11,0,0,11,506.4,175.7)" />
<use xlink:href="#f0_7v" transform="matrix(11,0,0,11,514.8,175.7)" />
<use xlink:href="#f0_9q" transform="matrix(11,0,0,11,528,175.7)" />
<use xlink:href="#f0_af" transform="matrix(11,0,0,11,532,175.7)" />
<use xlink:href="#f0_2x" transform="matrix(11,0,0,11,544.9,175.7)" />
<use xlink:href="#f0_38" transform="matrix(11,0,0,11,555.8,175.7)" />
<use xlink:href="#f0_a8" transform="matrix(11,0,0,11,569.4,175.7)" />
<use xlink:href="#f0_9q" transform="matrix(11,0,0,11,573.4,175.7)" />
<use xlink:href="#f0_9d" transform="matrix(11,0,0,11,577.4,175.7)" />
<use xlink:href="#f0_9n" transform="matrix(11,0,0,11,585.5,175.7)" />
<use xlink:href="#f0_bf" transform="matrix(11,0,0,11,594.3,175.7)" />
<use xlink:href="#f0_nt" transform="matrix(11,0,0,11,599.8,175.7)" />
<use xlink:href="#f0_p" transform="matrix(11,0,0,11,608.2,175.7)" />
<use xlink:href="#f0_1y" transform="matrix(11,0,0,11,618.4,175.7)" />
<use xlink:href="#f0_5" transform="matrix(11,0,0,11,629.4,175.7)" />
<use xlink:href="#f0_b5" transform="matrix(11,0,0,11,643.3,175.7)" />
<use xlink:href="#f0_bf" transform="matrix(11,0,0,11,649.9,175.7)" />
<use xlink:href="#f0_77" transform="matrix(11,0,0,11,655.4,175.7)" />
<use xlink:href="#f0_9q" transform="matrix(11,0,0,11,663.5,175.7)" />
<use xlink:href="#f0_af" transform="matrix(11,0,0,11,667.5,175.7)" />
<use xlink:href="#f0_7z" transform="matrix(11,0,0,11,676.3,175.7)" />
<use xlink:href="#f0_7v" transform="matrix(11,0,0,11,684.7,175.7)" />
<use xlink:href="#f0_ci" transform="matrix(11,0,0,11,697.5,175.7)" />
<use xlink:href="#f0_9q" transform="matrix(11,0,0,11,709.3,175.7)" />
<use xlink:href="#f0_bf" transform="matrix(11,0,0,11,713.3,175.7)" />
<use xlink:href="#f0_9n" transform="matrix(11,0,0,11,718.8,175.7)" />
<use xlink:href="#f0_t" transform="matrix(11,0,0,11,731.6,175.7)" />
<use xlink:href="#f0_bf" transform="matrix(11,0,0,11,739.7,175.7)" />
<use xlink:href="#f0_i" transform="matrix(11,0,0,11,745.2,175.7)" />
<use xlink:href="#f0_b1" transform="matrix(11,0,0,11,754.3,175.7)" />
<use xlink:href="#f0_89" transform="matrix(11,0,0,11,764.2,175.7)" />
<use xlink:href="#f0_a8" transform="matrix(11,0,0,11,769.4,175.7)" />
<use xlink:href="#f0_c6" transform="matrix(11,0,0,11,773.4,175.7)" />
<use xlink:href="#f0_am" transform="matrix(11,0,0,11,782.2,175.7)" />
<use xlink:href="#f0_b1" transform="matrix(11,0,0,11,791.3,175.7)" />
<use xlink:href="#f0_7z" transform="matrix(11,0,0,11,797.2,175.7)" />
<use xlink:href="#f0_b5" transform="matrix(11,0,0,11,805.6,175.7)" />
<use xlink:href="#f0_7l" transform="matrix(11,0,0,11,812.2,175.7)" />
<use xlink:href="#f0_7z" transform="matrix(11,0,0,11,819.2,175.7)" />
<use xlink:href="#f0_b5" transform="matrix(11,0,0,11,827.6,175.7)" />
<use xlink:href="#f0_c6" transform="matrix(11,0,0,11,838.2,175.7)" />
<use xlink:href="#f0_af" transform="matrix(11,0,0,11,847,175.7)" />
<use xlink:href="#f0_7v" transform="matrix(11,0,0,11,855.8,175.7)" />
<use xlink:href="#f0_7z" transform="matrix(11,0,0,11,864.6,175.7)" />
<use xlink:href="#f0_b1" transform="matrix(11,0,0,11,873,175.7)" />
<use xlink:href="#f0_2x" transform="matrix(11,0,0,11,55,206.5)" />
<use xlink:href="#f0_38" transform="matrix(11,0,0,11,66,206.5)" />
<use xlink:href="#f0_nt" transform="matrix(11,0,0,11,75.6,206.5)" />
<use xlink:href="#f0_t" transform="matrix(11,0,0,11,55,249.4)" />
<use xlink:href="#f0_a8" transform="matrix(11,0,0,11,63.1,249.4)" />
<use xlink:href="#f0_c6" transform="matrix(11,0,0,11,67.1,249.4)" />
<use xlink:href="#f0_bf" transform="matrix(11,0,0,11,75.9,249.4)" />
<use xlink:href="#f0_9q" transform="matrix(11,0,0,11,81.4,249.4)" />
<use xlink:href="#f0_am" transform="matrix(11,0,0,11,85.4,249.4)" />
<use xlink:href="#f0_af" transform="matrix(11,0,0,11,94.2,249.4)" />
<use xlink:href="#f0_ns" transform="matrix(11,0,0,11,103.1,249.4)" />
<use xlink:href="#f0_2g" transform="matrix(11,0,0,11,111.1,249.4)" />
<use xlink:href="#f0_c6" transform="matrix(11,0,0,11,119.9,249.4)" />
<use xlink:href="#f0_b1" transform="matrix(11,0,0,11,128.7,249.4)" />
<use xlink:href="#f0_9q" transform="matrix(11,0,0,11,134.6,249.4)" />
<use xlink:href="#f0_89" transform="matrix(11,0,0,11,138.6,249.4)" />
<use xlink:href="#f0_9q" transform="matrix(11,0,0,11,143.8,249.4)" />
<use xlink:href="#f0_7l" transform="matrix(11,0,0,11,147.7,249.4)" />
<use xlink:href="#f0_77" transform="matrix(11,0,0,11,154.7,249.4)" />
<use xlink:href="#f0_bf" transform="matrix(11,0,0,11,162.8,249.4)" />
<use xlink:href="#f0_9q" transform="matrix(11,0,0,11,168.3,249.4)" />
<use xlink:href="#f0_am" transform="matrix(11,0,0,11,172.3,249.4)" />
<use xlink:href="#f0_af" transform="matrix(11,0,0,11,181.1,249.4)" />
<use xlink:href="#f0_am" transform="matrix(11,0,0,11,193.6,249.4)" />
<use xlink:href="#f0_89" transform="matrix(11,0,0,11,202.4,249.4)" />
<use xlink:href="#f0_7v" transform="matrix(11,0,0,11,211.2,249.4)" />
<use xlink:href="#f0_7z" transform="matrix(11,0,0,11,220,249.4)" />
<use xlink:href="#f0_b5" transform="matrix(11,0,0,11,228.4,249.4)" />
<use xlink:href="#f0_9q" transform="matrix(11,0,0,11,235,249.4)" />
<use xlink:href="#f0_b1" transform="matrix(11,0,0,11,239,249.4)" />
<use xlink:href="#f0_7z" transform="matrix(11,0,0,11,244.9,249.4)" />
<use xlink:href="#f0_7v" transform="matrix(11,0,0,11,253.3,249.4)" />
<use xlink:href="#f0_p" transform="matrix(11,0,0,11,265.8,249.4)" />
<use xlink:href="#f0_1y" transform="matrix(11,0,0,11,276.1,249.4)" />
<use xlink:href="#f0_5" transform="matrix(11,0,0,11,287,249.4)" />
<use xlink:href="#f0_89" transform="matrix(11,0,0,11,300.6,249.4)" />
<use xlink:href="#f0_b1" transform="matrix(11,0,0,11,305.7,249.4)" />
<use xlink:href="#f0_77" transform="matrix(11,0,0,11,311.6,249.4)" />
<use xlink:href="#f0_9d" transform="matrix(11,0,0,11,319.7,249.4)" />
<use xlink:href="#f0_ae" transform="matrix(11,0,0,11,327.7,249.4)" />
<use xlink:href="#f0_7z" transform="matrix(11,0,0,11,341.2,249.4)" />
<use xlink:href="#f0_af" transform="matrix(11,0,0,11,349.6,249.4)" />
<use xlink:href="#f0_bf" transform="matrix(11,0,0,11,358.5,249.4)" />
<use xlink:href="#f0_b5" transform="matrix(11,0,0,11,364,249.4)" />
<use xlink:href="#f0_89" transform="matrix(11,0,0,11,374.3,249.4)" />
<use xlink:href="#f0_b1" transform="matrix(11,0,0,11,379.4,249.4)" />
<use xlink:href="#f0_am" transform="matrix(11,0,0,11,385.3,249.4)" />
<use xlink:href="#f0_ae" transform="matrix(11,0,0,11,394.1,249.4)" />
<use xlink:href="#f0_bf" transform="matrix(11,0,0,11,411.3,249.4)" />
<use xlink:href="#f0_9n" transform="matrix(11,0,0,11,416.8,249.4)" />
<use xlink:href="#f0_7z" transform="matrix(11,0,0,11,425.6,249.4)" />
<use xlink:href="#f0_9d" transform="matrix(11,0,0,11,437.7,249.4)" />
<use xlink:href="#f0_7z" transform="matrix(11,0,0,11,445.7,249.4)" />
<use xlink:href="#f0_a8" transform="matrix(11,0,0,11,454.1,249.4)" />
<use xlink:href="#f0_c6" transform="matrix(11,0,0,11,461.8,249.4)" />
<use xlink:href="#f0_b5" transform="matrix(11,0,0,11,470.6,249.4)" />
<use xlink:href="#f0_9q" transform="matrix(11,0,0,11,477.2,249.4)" />
<use xlink:href="#f0_af" transform="matrix(11,0,0,11,481.2,249.4)" />
<use xlink:href="#f0_9d" transform="matrix(11,0,0,11,490,249.4)" />
<use xlink:href="#f0_ch" transform="matrix(11,0,0,11,501.7,249.4)" />
<use xlink:href="#f0_77" transform="matrix(11,0,0,11,509.4,249.4)" />
<use xlink:href="#f0_b1" transform="matrix(11,0,0,11,517.5,249.4)" />
<use xlink:href="#f0_9q" transform="matrix(11,0,0,11,523,249.4)" />
<use xlink:href="#f0_am" transform="matrix(11,0,0,11,527,249.4)" />
<use xlink:href="#f0_c6" transform="matrix(11,0,0,11,535.8,249.4)" />
<use xlink:href="#f0_b5" transform="matrix(11,0,0,11,544.6,249.4)" />
<use xlink:href="#f0_ae" transform="matrix(11,0,0,11,554.9,249.4)" />
<use xlink:href="#f0_7z" transform="matrix(11,0,0,11,568.4,249.4)" />
<use xlink:href="#f0_bf" transform="matrix(11,0,0,11,576.8,249.4)" />
<use xlink:href="#f0_9n" transform="matrix(11,0,0,11,582.4,249.4)" />
<use xlink:href="#f0_am" transform="matrix(11,0,0,11,591.2,249.4)" />
<use xlink:href="#f0_7v" transform="matrix(11,0,0,11,600,249.4)" />
<use xlink:href="#f0_b5" transform="matrix(11,0,0,11,608.8,249.4)" />
<use xlink:href="#f0_9q" transform="matrix(11,0,0,11,619,249.4)" />
<use xlink:href="#f0_b5" transform="matrix(11,0,0,11,623.1,249.4)" />
<use xlink:href="#f0_7l" transform="matrix(11,0,0,11,633.3,249.4)" />
<use xlink:href="#f0_77" transform="matrix(11,0,0,11,640.3,249.4)" />
<use xlink:href="#f0_a8" transform="matrix(11,0,0,11,648.4,249.4)" />
<use xlink:href="#f0_a8" transform="matrix(11,0,0,11,652.4,249.4)" />
<use xlink:href="#f0_7z" transform="matrix(11,0,0,11,656.4,249.4)" />
<use xlink:href="#f0_7v" transform="matrix(11,0,0,11,664.8,249.4)" />
<use xlink:href="#f0_77" transform="matrix(11,0,0,11,677.3,249.4)" />
<use xlink:href="#f0_b5" transform="matrix(11,0,0,11,685.4,249.4)" />
<use xlink:href="#f0_7z" transform="matrix(11,0,0,11,695.6,249.4)" />
<use xlink:href="#f0_a8" transform="matrix(11,0,0,11,704,249.4)" />
<use xlink:href="#f0_c6" transform="matrix(11,0,0,11,708.1,249.4)" />
<use xlink:href="#f0_bf" transform="matrix(11,0,0,11,716.9,249.4)" />
<use xlink:href="#f0_9q" transform="matrix(11,0,0,11,722.4,249.4)" />
<use xlink:href="#f0_am" transform="matrix(11,0,0,11,726.4,249.4)" />
<use xlink:href="#f0_af" transform="matrix(11,0,0,11,735.2,249.4)" />
<use xlink:href="#f0_nt" transform="matrix(11,0,0,11,744,249.4)" />
</g>
<path fill-rule="evenodd" d="M55,252.3h48.1v-1.1H55v1.1Z" class="g0_119" />
<g fill="#000000" >
<use xlink:href="#f1_5" transform="matrix(11,0,0,11,236.9,704.6)" />
<use xlink:href="#f1_9d" transform="matrix(11,0,0,11,247.2,704.6)" />
<use xlink:href="#f1_77" transform="matrix(11,0,0,11,255.3,704.6)" />
<use xlink:href="#f1_b1" transform="matrix(11,0,0,11,263.7,704.6)" />
<use xlink:href="#f1_am" transform="matrix(11,0,0,11,269.5,704.6)" />
<use xlink:href="#f1_b5" transform="matrix(11,0,0,11,278.7,704.6)" />
<use xlink:href="#f1_7z" transform="matrix(11,0,0,11,285.3,704.6)" />
<use xlink:href="#f1_14" transform="matrix(11,0,0,11,297.4,704.6)" />
<use xlink:href="#f1_7z" transform="matrix(11,0,0,11,308,704.6)" />
<use xlink:href="#f1_a8" transform="matrix(11,0,0,11,316.8,704.6)" />
<use xlink:href="#f1_t" transform="matrix(11,0,0,11,324.5,704.6)" />
<use xlink:href="#f1_a8" transform="matrix(11,0,0,11,332.9,704.6)" />
<use xlink:href="#f1_7z" transform="matrix(11,0,0,11,336.9,704.6)" />
<use xlink:href="#f1_7l" transform="matrix(11,0,0,11,345.4,704.6)" />
<use xlink:href="#f1_bf" transform="matrix(11,0,0,11,352.3,704.6)" />
<use xlink:href="#f1_b1" transform="matrix(11,0,0,11,358.2,704.6)" />
<use xlink:href="#f1_am" transform="matrix(11,0,0,11,364.1,704.6)" />
<use xlink:href="#f1_ay" transform="matrix(11,0,0,11,373.2,704.6)" />
<use xlink:href="#f1_9n" transform="matrix(11,0,0,11,382.4,704.6)" />
<use xlink:href="#f1_am" transform="matrix(11,0,0,11,391.5,704.6)" />
<use xlink:href="#f1_b1" transform="matrix(11,0,0,11,400.6,704.6)" />
<use xlink:href="#f1_7z" transform="matrix(11,0,0,11,406.5,704.6)" />
<use xlink:href="#f1_b5" transform="matrix(11,0,0,11,414.9,704.6)" />
<use xlink:href="#f1_9q" transform="matrix(11,0,0,11,421.5,704.6)" />
<use xlink:href="#f1_b5" transform="matrix(11,0,0,11,425.6,704.6)" />
<use xlink:href="#f1_am" transform="matrix(11,0,0,11,435.8,704.6)" />
<use xlink:href="#f1_89" transform="matrix(11,0,0,11,445,704.6)" />
<use xlink:href="#f1_p" transform="matrix(11,0,0,11,454.1,704.6)" />
<use xlink:href="#f1_1y" transform="matrix(11,0,0,11,464.7,704.6)" />
<use xlink:href="#f1_5" transform="matrix(11,0,0,11,475.7,704.6)" />
<use xlink:href="#f1_38" transform="matrix(11,0,0,11,85.1,1124.5)" />
<use xlink:href="#f1_9q" transform="matrix(11,0,0,11,95,1124.5)" />
<use xlink:href="#f1_b5" transform="matrix(11,0,0,11,99.4,1124.5)" />
<use xlink:href="#f1_c6" transform="matrix(11,0,0,11,106,1124.5)" />
<use xlink:href="#f1_77" transform="matrix(11,0,0,11,115.1,1124.5)" />
<use xlink:href="#f1_a8" transform="matrix(11,0,0,11,123.5,1124.5)" />
<use xlink:href="#f1_9q" transform="matrix(11,0,0,11,127.6,1124.5)" />
<use xlink:href="#f1_ct" transform="matrix(11,0,0,11,131.6,1124.5)" />
<use xlink:href="#f1_77" transform="matrix(11,0,0,11,138.2,1124.5)" />
<use xlink:href="#f1_bf" transform="matrix(11,0,0,11,146.6,1124.5)" />
<use xlink:href="#f1_9q" transform="matrix(11,0,0,11,152.5,1124.5)" />
<use xlink:href="#f1_am" transform="matrix(11,0,0,11,156.5,1124.5)" />
<use xlink:href="#f1_af" transform="matrix(11,0,0,11,165.7,1124.5)" />
<use xlink:href="#f1_am" transform="matrix(11,0,0,11,178.5,1124.5)" />
<use xlink:href="#f1_89" transform="matrix(11,0,0,11,187.6,1124.5)" />
<use xlink:href="#f1_p" transform="matrix(11,0,0,11,196.7,1124.5)" />
<use xlink:href="#f1_1y" transform="matrix(11,0,0,11,207.4,1124.5)" />
<use xlink:href="#f1_5" transform="matrix(11,0,0,11,218.4,1124.5)" />
<use xlink:href="#f1_b5" transform="matrix(11,0,0,11,232.3,1124.5)" />
<use xlink:href="#f1_bf" transform="matrix(11,0,0,11,238.9,1124.5)" />
<use xlink:href="#f1_77" transform="matrix(11,0,0,11,244.8,1124.5)" />
<use xlink:href="#f1_9q" transform="matrix(11,0,0,11,253.2,1124.5)" />
<use xlink:href="#f1_af" transform="matrix(11,0,0,11,257.2,1124.5)" />
<use xlink:href="#f1_7z" transform="matrix(11,0,0,11,266.4,1124.5)" />
<use xlink:href="#f1_7v" transform="matrix(11,0,0,11,274.8,1124.5)" />
<use xlink:href="#f1_ci" transform="matrix(11,0,0,11,287.6,1124.5)" />
<use xlink:href="#f1_9q" transform="matrix(11,0,0,11,300.1,1124.5)" />
<use xlink:href="#f1_bf" transform="matrix(11,0,0,11,304.1,1124.5)" />
<use xlink:href="#f1_9n" transform="matrix(11,0,0,11,310,1124.5)" />
<use xlink:href="#f1_t" transform="matrix(11,0,0,11,322.8,1124.5)" />
<use xlink:href="#f1_bf" transform="matrix(11,0,0,11,330.8,1124.5)" />
<use xlink:href="#f1_9n" transform="matrix(11,0,0,11,336.7,1124.5)" />
<use xlink:href="#f1_9q" transform="matrix(11,0,0,11,345.8,1124.5)" />
<use xlink:href="#f1_7v" transform="matrix(11,0,0,11,349.9,1124.5)" />
<use xlink:href="#f1_9q" transform="matrix(11,0,0,11,359,1124.5)" />
<use xlink:href="#f1_c6" transform="matrix(11,0,0,11,363,1124.5)" />
<use xlink:href="#f1_ae" transform="matrix(11,0,0,11,372.2,1124.5)" />
<use xlink:href="#f1_7k" transform="matrix(11,0,0,11,389.4,1124.5)" />
<use xlink:href="#f1_b1" transform="matrix(11,0,0,11,398.6,1124.5)" />
<use xlink:href="#f1_am" transform="matrix(11,0,0,11,404.4,1124.5)" />
<use xlink:href="#f1_ae" transform="matrix(11,0,0,11,413.6,1124.5)" />
<use xlink:href="#f1_9q" transform="matrix(11,0,0,11,426.8,1124.5)" />
<use xlink:href="#f1_7v" transform="matrix(11,0,0,11,430.8,1124.5)" />
<use xlink:href="#f1_7z" transform="matrix(11,0,0,11,439.9,1124.5)" />
<use xlink:href="#f1_c6" transform="matrix(11,0,0,11,452,1124.5)" />
<use xlink:href="#f1_af" transform="matrix(11,0,0,11,461.2,1124.5)" />
<use xlink:href="#f1_7v" transform="matrix(11,0,0,11,470.3,1124.5)" />
<use xlink:href="#f1_7z" transform="matrix(11,0,0,11,479.5,1124.5)" />
<use xlink:href="#f1_b1" transform="matrix(11,0,0,11,487.9,1124.5)" />
<use xlink:href="#f1_2x" transform="matrix(11,0,0,11,497.4,1124.5)" />
<use xlink:href="#f1_38" transform="matrix(11,0,0,11,508.4,1124.5)" />
<use xlink:href="#f1_a8" transform="matrix(11,0,0,11,522,1124.5)" />
<use xlink:href="#f1_9q" transform="matrix(11,0,0,11,526,1124.5)" />
<use xlink:href="#f1_9d" transform="matrix(11,0,0,11,530,1124.5)" />
<use xlink:href="#f1_9n" transform="matrix(11,0,0,11,538.1,1124.5)" />
<use xlink:href="#f1_bf" transform="matrix(11,0,0,11,547.2,1124.5)" />
</g>
<image preserveAspectRatio="none" x="55" y="276" width="525" height="389" xlink:href="img/1.png" />
<image preserveAspectRatio="none" x="55" y="817" width="606" height="267" xlink:href="img/2.png" />
<g fill="#000000" >
<use xlink:href="#f2_o" transform="matrix(8,0,0,8,818.2,1187.9)" />
</g>
<defs>
<path d="M321,82c0,0,48,0,90,25c0,0,41,24,87,75V325H392c0,0,-50,0,-88,-9c0,0,-37,-9,-62,-25c0,0,-24,-17,-36,-41c0,0,-11,-23,-11,-54c0,0,0,-52,33,-83c0,0,33,-31,93,-31ZM301,-13c0,0,-53,0,-96,13c0,0,-43,14,-73,40c0,0,-30,26,-47,64c0,0,-17,38,-17,87c0,0,0,56,24,98c0,0,23,42,66,69c0,0,43,28,106,42c0,0,63,14,141,14h93v52c0,0,0,39,-9,69c0,0,-8,30,-26,50c0,0,-18,20,-47,30c0,0,-30,10,-72,10c0,0,-46,0,-82,-11c0,0,-36,-11,-63,-24c0,0,-27,-13,-46,-24c0,0,-18,-11,-27,-11c0,0,-6,0,-10,3c0,0,-5,3,-8,9c0,0,-3,6,-5,16c0,0,-1,9,-1,20c0,0,0,19,2,30c0,0,3,11,13,20c0,0,10,10,35,23c0,0,24,13,56,24c0,0,32,10,70,17c0,0,38,8,77,8c0,0,73,0,123,-17c0,0,51,-16,82,-48c0,0,32,-32,46,-79c0,0,14,-47,14,-110V18c0,0,0,-9,-6,-14c0,0,-6,-4,-16,-6c0,0,-11,-2,-31,-2c0,0,-19,0,-31,2c0,0,-12,2,-17,6c0,0,-5,5,-5,13V85c0,0,-44,-47,-98,-73c0,0,-54,-25,-115,-25Z" 
id="f0_77"
transform="scale(0.001,-0.001)" />

<path d="M272,-13c0,0,-35,0,-68,6c0,0,-32,6,-58,13c0,0,-26,9,-44,18c0,0,-17,10,-26,17c0,0,-8,8,-12,21c0,0,-3,14,-3,37c0,0,0,14,1,24c0,0,2,9,4,15c0,0,2,6,6,9c0,0,4,3,10,3c0,0,8,0,24,-11c0,0,16,-10,39,-22c0,0,24,-12,56,-22c0,0,32,-10,74,-10c0,0,31,0,56,7c0,0,26,6,44,19c0,0,19,14,29,34c0,0,10,20,10,47c0,0,0,29,-14,48c0,0,-15,19,-39,34c0,0,-24,15,-53,27c0,0,-30,11,-62,24c0,0,-32,13,-62,29c0,0,-30,16,-54,39c0,0,-24,23,-38,55c0,0,-15,32,-15,77c0,0,0,40,16,76c0,0,15,36,45,63c0,0,31,28,77,44c0,0,46,17,107,17c0,0,27,0,54,-5c0,0,26,-5,48,-11c0,0,22,-7,37,-15c0,0,15,-8,23,-14c0,0,8,-6,11,-11c0,0,2,-4,3,-10c0,0,1,-5,2,-14c0,0,2,-8,2,-20c0,0,0,-12,-2,-22c0,0,-1,-9,-3,-15c0,0,-3,-6,-7,-8c0,0,-3,-3,-8,-3c0,0,-7,0,-19,8c0,0,-13,8,-33,18c0,0,-20,9,-47,17c0,0,-28,9,-63,9c0,0,-31,0,-55,-7c0,0,-24,-7,-39,-20c0,0,-15,-13,-23,-31c0,0,-8,-18,-8,-39c0,0,0,-29,15,-49c0,0,15,-20,39,-35c0,0,24,-15,54,-27c0,0,31,-11,62,-24c0,0,32,-13,63,-29c0,0,31,-15,55,-38c0,0,24,-22,38,-53c0,0,15,-32,15,-75c0,0,0,-51,-19,-92c0,0,-19,-40,-54,-68C463,42,428,15,379,1c0,0,-48,-14,-107,-14Z" 
id="f0_b5"
transform="scale(0.001,-0.001)" />

<path d="M324,-4c0,0,-23,0,-37,2c0,0,-15,1,-24,3c0,0,-9,3,-14,8c0,0,-4,6,-7,13L46,660c0,0,-4,11,-5,18c0,0,-2,8,-2,13c0,0,0,7,3,11c0,0,3,4,10,7c0,0,8,2,19,3c0,0,12,1,30,1c0,0,20,0,33,-1c0,0,13,-1,20,-4c0,0,6,-3,9,-8c0,0,3,-4,5,-11L330,136l2,-7l1,7L482,689c0,0,1,7,5,11c0,0,3,5,10,8c0,0,6,3,18,4c0,0,12,1,31,1c0,0,18,0,29,-1c0,0,12,-1,18,-4c0,0,7,-3,10,-7c0,0,3,-5,5,-11L768,136l1,-7l1,7L930,689c0,0,1,7,5,11c0,0,3,5,10,8c0,0,7,3,20,4c0,0,12,1,31,1c0,0,18,0,29,-1c0,0,11,-1,17,-4c0,0,6,-3,9,-6c0,0,3,-4,3,-11c0,0,0,-5,-2,-13c0,0,-1,-7,-5,-18L849,22c0,0,-2,-8,-7,-13c0,0,-5,-6,-13,-9c0,0,-9,-2,-24,-3c0,0,-15,-1,-37,-1c0,0,-23,0,-39,2c0,0,-15,1,-25,3c0,0,-9,3,-14,8c0,0,-4,6,-6,13L543,510l-2,6l-2,-6L409,22c0,0,-3,-8,-7,-13c0,0,-5,-6,-15,-9c0,0,-10,-2,-25,-3c0,0,-15,-1,-38,-1Z" 
id="f0_ci"
transform="scale(0.001,-0.001)" />

<path d="M564,420c0,0,2,98,-43,153c0,0,-46,56,-134,56c0,0,-46,0,-80,-18c0,0,-35,-17,-58,-45c0,0,-23,-29,-36,-67c0,0,-12,-37,-14,-79ZM405,-13c0,0,-83,0,-145,22c0,0,-62,24,-105,69c0,0,-42,46,-64,114c0,0,-22,69,-22,160c0,0,0,87,23,156c0,0,22,69,64,117c0,0,43,48,102,74c0,0,60,26,134,26c0,0,79,0,135,-26c0,0,55,-25,91,-68c0,0,36,-43,53,-101c0,0,16,-58,16,-123V384c0,0,0,-29,-14,-41c0,0,-15,-13,-33,-13H199c0,0,0,-56,11,-100c0,0,12,-45,38,-77c0,0,26,-33,68,-50c0,0,41,-17,102,-17c0,0,48,0,85,8c0,0,37,8,65,17c0,0,27,10,44,18c0,0,18,8,27,8c0,0,5,0,9,-3c0,0,4,-2,7,-8c0,0,2,-5,3,-14c0,0,1,-9,1,-23c0,0,0,-9,-1,-16c0,0,0,-8,-2,-13c0,0,-1,-6,-3,-10c0,0,-3,-5,-7,-9c0,0,-4,-4,-24,-13c0,0,-20,-10,-53,-18c0,0,-32,-9,-74,-16c0,0,-42,-7,-90,-7Z" 
id="f0_7z"
transform="scale(0.001,-0.001)" />

<path d="M176,-4c0,0,-18,0,-30,2c0,0,-12,1,-19,3c0,0,-7,3,-10,7c0,0,-3,4,-3,10v997c0,0,0,6,3,11c0,0,3,4,10,7c0,0,7,3,19,5c0,0,12,1,30,1c0,0,18,0,30,-1c0,0,12,-2,19,-5c0,0,7,-3,9,-7c0,0,3,-5,3,-11V18c0,0,0,-6,-3,-10c0,0,-2,-4,-9,-7c0,0,-7,-2,-19,-3c0,0,-12,-2,-30,-2Z" 
id="f0_a8"
transform="scale(0.001,-0.001)" />

<path d="M339,-13c0,0,-52,0,-90,13c0,0,-37,14,-61,42c0,0,-24,28,-34,71c0,0,-11,43,-11,101V607H49c0,0,-11,0,-18,12c0,0,-7,12,-7,39c0,0,0,14,2,24c0,0,2,10,5,16c0,0,3,7,8,9c0,0,5,3,11,3h93V870c0,0,0,5,2,9c0,0,3,5,10,8c0,0,7,4,19,5c0,0,12,2,30,2c0,0,19,0,31,-2c0,0,11,-1,18,-5c0,0,7,-3,10,-8c0,0,3,-4,3,-9V710H438c0,0,6,0,10,-3c0,0,5,-2,8,-9c0,0,4,-6,5,-16c0,0,1,-10,1,-24c0,0,0,-27,-6,-39c0,0,-7,-12,-18,-12H266V232c0,0,0,-69,20,-105c0,0,21,-35,74,-35c0,0,17,0,30,3c0,0,14,4,24,7c0,0,10,4,18,7c0,0,7,4,13,4c0,0,4,0,7,-2c0,0,4,-2,6,-7c0,0,2,-5,3,-14c0,0,1,-9,1,-23c0,0,0,-22,-2,-34c0,0,-3,-13,-9,-19c0,0,-6,-6,-18,-11c0,0,-12,-4,-28,-8c0,0,-15,-3,-32,-5c0,0,-17,-3,-34,-3Z" 
id="f0_bf"
transform="scale(0.001,-0.001)" />

<path d="M176,-4c0,0,-18,0,-30,2c0,0,-12,1,-19,3c0,0,-7,3,-10,7c0,0,-3,4,-3,10v997c0,0,0,6,3,11c0,0,3,4,10,7c0,0,7,3,19,5c0,0,12,1,30,1c0,0,18,0,30,-1c0,0,12,-2,19,-5c0,0,7,-3,9,-7c0,0,3,-5,3,-10V614c0,0,53,56,107,83c0,0,54,28,108,28c0,0,67,0,113,-23c0,0,46,-23,74,-61c0,0,29,-38,41,-89c0,0,12,-52,12,-124V18c0,0,0,-6,-3,-10c0,0,-3,-4,-9,-7c0,0,-7,-2,-19,-3c0,0,-12,-2,-30,-2c0,0,-19,0,-30,2c0,0,-12,1,-19,3c0,0,-7,3,-10,7c0,0,-3,4,-3,10V412c0,0,0,58,-9,93c0,0,-9,35,-26,61c0,0,-17,25,-44,38c0,0,-27,14,-63,14c0,0,-46,0,-93,-33c0,0,-46,-33,-97,-96V18c0,0,0,-6,-3,-10c0,0,-2,-4,-9,-7c0,0,-7,-2,-19,-3c0,0,-12,-2,-30,-2Z" 
id="f0_9n"
transform="scale(0.001,-0.001)" />

<path d="M429,92c0,0,47,0,80,22c0,0,33,23,54,60c0,0,20,38,30,84c0,0,10,46,10,93c0,0,0,52,-8,100c0,0,-8,48,-27,86c0,0,-19,37,-51,60c0,0,-32,22,-80,22c0,0,-24,0,-47,-7c0,0,-23,-7,-47,-23c0,0,-24,-15,-50,-40c0,0,-26,-25,-56,-62V220c0,0,51,-62,97,-95c0,0,45,-33,95,-33ZM176,-271c0,0,-18,0,-30,2c0,0,-12,1,-19,4c0,0,-7,3,-10,8c0,0,-3,4,-3,10V690c0,0,0,6,3,10c0,0,2,5,9,8c0,0,6,3,17,4c0,0,10,1,25,1c0,0,16,0,26,-1c0,0,10,-1,17,-4c0,0,6,-3,9,-7c0,0,3,-4,3,-11V601c0,0,30,31,59,54c0,0,28,23,57,39c0,0,28,15,59,23c0,0,30,8,63,8c0,0,74,0,125,-29c0,0,52,-28,84,-77c0,0,32,-50,47,-115c0,0,15,-65,15,-139c0,0,0,-88,-19,-158c0,0,-19,-70,-56,-119c0,0,-37,-49,-91,-75c0,0,-55,-26,-125,-26c0,0,-30,0,-55,6c0,0,-25,6,-50,18c0,0,-24,13,-48,32c0,0,-24,19,-51,46V-247c0,0,0,-6,-3,-10c0,0,-2,-5,-9,-8c0,0,-7,-3,-19,-4c0,0,-12,-2,-30,-2Z" 
id="f0_ay"
transform="scale(0.001,-0.001)" />

<path d="M401,90c0,0,54,0,93,19c0,0,40,20,65,55c0,0,26,35,37,84c0,0,12,48,12,106c0,0,0,55,-10,104c0,0,-10,48,-33,85c0,0,-23,36,-62,58c0,0,-40,21,-99,21c0,0,-54,0,-93,-20c0,0,-39,-19,-65,-54c0,0,-25,-36,-37,-85c0,0,-12,-48,-12,-106c0,0,0,-55,10,-103c0,0,10,-49,33,-85c0,0,24,-36,63,-58c0,0,39,-21,98,-21ZM395,-13c0,0,-82,0,-144,24c0,0,-61,25,-102,72c0,0,-41,47,-61,114c0,0,-21,67,-21,152c0,0,0,82,22,151c0,0,21,69,64,119c0,0,43,50,107,78c0,0,64,28,150,28c0,0,82,0,144,-25c0,0,61,-25,102,-72c0,0,41,-47,62,-114c0,0,20,-67,20,-151c0,0,0,-83,-21,-152c0,0,-22,-69,-65,-119C652,92,609,42,545,14c0,0,-65,-27,-150,-27Z" 
id="f0_am"
transform="scale(0.001,-0.001)" />

<path d="M176,-4c0,0,-18,0,-30,2c0,0,-12,1,-19,3c0,0,-7,3,-10,7c0,0,-3,4,-3,10V690c0,0,0,6,3,10c0,0,2,4,9,7c0,0,6,4,17,5c0,0,10,1,27,1c0,0,17,0,28,-1c0,0,10,-1,16,-5c0,0,6,-3,9,-7c0,0,3,-4,3,-10V592c0,0,27,41,51,66c0,0,25,26,46,41c0,0,22,14,43,20c0,0,21,6,43,6c0,0,10,0,22,-2c0,0,12,-1,26,-4c0,0,13,-3,24,-6c0,0,11,-4,15,-8c0,0,5,-4,6,-7c0,0,2,-3,3,-9c0,0,1,-5,1,-15c0,0,0,-10,0,-27c0,0,0,-16,0,-28c0,0,-1,-11,-3,-17c0,0,-2,-6,-6,-10c0,0,-3,-3,-9,-3c0,0,-6,0,-15,3c0,0,-8,4,-19,7c0,0,-11,3,-24,6c0,0,-14,3,-29,3c0,0,-19,0,-37,-7c0,0,-18,-8,-37,-25c0,0,-20,-18,-42,-46c0,0,-21,-29,-48,-70V18c0,0,0,-6,-3,-10c0,0,-2,-4,-9,-7c0,0,-7,-2,-19,-3c0,0,-12,-2,-30,-2Z" 
id="f0_b1"
transform="scale(0.001,-0.001)" />

<path d="M176,-4c0,0,-18,0,-30,2c0,0,-12,1,-19,3c0,0,-7,3,-10,7c0,0,-3,4,-3,10V690c0,0,0,5,3,9c0,0,3,5,10,8c0,0,7,3,19,4c0,0,12,2,30,2c0,0,18,0,30,-2c0,0,12,-1,19,-4c0,0,7,-3,9,-8c0,0,3,-4,3,-9V18c0,0,0,-6,-3,-10c0,0,-2,-4,-9,-7c0,0,-7,-2,-19,-3c0,0,-12,-2,-30,-2Zm-1,846c0,0,-43,0,-59,15c0,0,-16,15,-16,58c0,0,0,43,16,59c0,0,17,16,61,16c0,0,43,0,59,-16c0,0,16,-15,16,-58c0,0,0,-43,-16,-58c0,0,-17,-16,-61,-16Z" 
id="f0_9q"
transform="scale(0.001,-0.001)" />

<path d="M102,0C102,0,87,0,77,10C77,10,66,21,66,45V71c0,0,0,10,2,18c0,0,1,9,4,17c0,0,3,8,9,17c0,0,5,10,12,22L390,606H102c0,0,-12,0,-19,13c0,0,-7,12,-7,39c0,0,0,14,2,24c0,0,1,10,5,16c0,0,3,7,8,9c0,0,5,3,11,3H487c0,0,9,0,15,-2c0,0,6,-3,11,-8c0,0,4,-5,7,-13c0,0,3,-8,3,-21V642c0,0,0,-10,-2,-19c0,0,-1,-9,-4,-18c0,0,-3,-8,-9,-18c0,0,-5,-10,-12,-22L201,104H516c0,0,6,0,11,-3c0,0,4,-3,8,-9c0,0,3,-6,5,-16c0,0,3,-10,3,-24c0,0,0,-14,-3,-24c0,0,-2,-10,-5,-16c0,0,-3,-7,-8,-9c0,0,-5,-3,-11,-3Z" 
id="f0_ct"
transform="scale(0.001,-0.001)" />

<path d="M209,-4c0,0,-18,0,-30,2c0,0,-12,1,-19,3c0,0,-7,3,-10,7c0,0,-3,4,-3,10V607H52c0,0,-12,0,-18,12c0,0,-6,12,-6,39c0,0,0,14,2,24c0,0,1,10,4,16c0,0,3,7,8,9c0,0,4,3,10,3h95v69c0,0,0,71,13,121c0,0,13,50,40,82c0,0,27,33,67,48c0,0,41,15,96,15c0,0,26,0,51,-5c0,0,25,-4,38,-10c0,0,13,-6,18,-10c0,0,4,-5,7,-12c0,0,3,-7,5,-17c0,0,1,-10,1,-24c0,0,0,-15,-2,-23c0,0,-1,-9,-3,-14c0,0,-2,-5,-5,-7c0,0,-3,-2,-8,-2c0,0,-5,0,-13,3c0,0,-7,4,-19,8c0,0,-11,4,-26,7c0,0,-15,4,-36,4c0,0,-27,0,-47,-9c0,0,-19,-9,-31,-28c0,0,-12,-19,-17,-50c0,0,-5,-30,-5,-73V710H421c0,0,6,0,10,-3c0,0,4,-2,7,-9c0,0,4,-6,6,-16c0,0,2,-10,2,-24c0,0,0,-27,-7,-39c0,0,-7,-12,-18,-12H271V18c0,0,0,-6,-3,-10c0,0,-3,-4,-11,-7c0,0,-7,-2,-19,-3c0,0,-12,-2,-29,-2Z" 
id="f0_89"
transform="scale(0.001,-0.001)" />

<path d="M346,-177c0,0,56,0,94,11c0,0,37,11,60,28c0,0,24,18,34,41c0,0,10,23,10,49c0,0,0,43,-36,65c0,0,-35,23,-95,25L239,48c0,0,-24,-19,-39,-35c0,0,-15,-16,-24,-31c0,0,-9,-16,-12,-30c0,0,-4,-15,-4,-31c0,0,0,-48,49,-73c0,0,50,-25,137,-25Zm-6,512c0,0,36,0,63,12c0,0,27,12,44,32c0,0,18,21,26,48c0,0,9,27,9,56c0,0,0,69,-38,107c0,0,-37,39,-107,39c0,0,-35,0,-62,-12c0,0,-26,-12,-44,-33c0,0,-17,-21,-26,-48c0,0,-8,-28,-8,-58c0,0,0,-66,37,-104c0,0,38,-39,106,-39Zm0,-606c0,0,-81,0,-138,14c0,0,-57,14,-94,38c0,0,-36,24,-52,57c0,0,-17,33,-17,72c0,0,0,24,6,47c0,0,6,24,18,43c0,0,13,21,31,40c0,0,18,19,42,38c0,0,-36,19,-54,47c0,0,-17,28,-17,61c0,0,0,45,18,81c0,0,19,36,46,64c0,0,-23,28,-36,62c0,0,-14,35,-14,84c0,0,0,58,20,104c0,0,19,45,53,77c0,0,35,31,83,48c0,0,48,17,105,17c0,0,30,0,57,-4c0,0,26,-3,49,-9H649c0,0,13,0,19,-12c0,0,7,-13,7,-38c0,0,0,-26,-7,-37c0,0,-7,-12,-19,-12H553c0,0,26,-27,37,-60c0,0,10,-32,10,-68c0,0,0,-58,-18,-103c0,0,-19,-45,-54,-76c0,0,-34,-31,-82,-47c0,0,-48,-16,-106,-16c0,0,-41,0,-78,10c0,0,-37,11,-57,28c0,0,-14,-14,-22,-31c0,0,-9,-17,-9,-39c0,0,0,-27,24,-44c0,0,25,-17,65,-18l175,-8c0,0,50,-1,92,-14c0,0,41,-12,72,-35c0,0,31,-22,48,-55c0,0,17,-34,17,-76c0,0,0,-47,-20,-88c0,0,-19,-42,-59,-74c0,0,-40,-31,-102,-50c0,0,-61,-18,-146,-18Z" 
id="f0_9d"
transform="scale(0.001,-0.001)" />

<path d="M192,-6c0,0,-45,0,-62,16c0,0,-18,18,-18,69c0,0,0,53,18,71c0,0,18,17,64,17c0,0,45,0,62,-17c0,0,17,-17,17,-69c0,0,0,-53,-18,-70c0,0,-17,-17,-63,-17Z" 
id="f0_nt"
transform="scale(0.001,-0.001)" />

<path d="M372,-4c0,0,-18,0,-30,2c0,0,-13,2,-21,3c0,0,-7,3,-10,8c0,0,-3,4,-3,10V857H36c0,0,-6,0,-11,3c0,0,-5,2,-8,9c0,0,-2,6,-4,17c0,0,-2,10,-2,24c0,0,0,14,2,25c0,0,2,11,4,17c0,0,3,7,8,10c0,0,5,3,11,3H708c0,0,6,0,11,-3c0,0,5,-3,8,-10c0,0,4,-6,5,-17c0,0,2,-11,2,-25c0,0,0,-14,-2,-24c0,0,-1,-11,-5,-17c0,0,-3,-7,-8,-9c0,0,-5,-3,-11,-3H436V19c0,0,0,-6,-3,-10c0,0,-3,-5,-10,-8c0,0,-8,-1,-20,-3c0,0,-12,-2,-31,-2Z" 
id="f0_2t"
transform="scale(0.001,-0.001)" />

<path d="M176,-4c0,0,-18,0,-30,2c0,0,-12,1,-19,3c0,0,-7,3,-10,7c0,0,-3,4,-3,10V690c0,0,0,6,3,10c0,0,2,4,9,7c0,0,6,4,17,5c0,0,10,1,27,1c0,0,17,0,28,-1c0,0,10,-1,16,-5c0,0,6,-3,9,-7c0,0,3,-4,3,-10V601c0,0,56,64,110,94c0,0,53,30,108,30c0,0,42,0,75,-10c0,0,33,-10,58,-28c0,0,26,-17,44,-42c0,0,18,-24,30,-55c0,0,33,37,63,63c0,0,31,26,59,41c0,0,28,16,54,23c0,0,27,8,53,8c0,0,65,0,109,-23c0,0,44,-23,71,-61c0,0,28,-38,39,-89c0,0,12,-52,12,-108V18c0,0,0,-6,-3,-10c0,0,-3,-4,-10,-7c0,0,-7,-2,-19,-3c0,0,-12,-2,-29,-2c0,0,-19,0,-31,2c0,0,-12,1,-19,3c0,0,-7,3,-10,7c0,0,-3,4,-3,10V427c0,0,0,43,-8,78c0,0,-7,35,-23,61c0,0,-17,25,-42,38c0,0,-25,14,-60,14c0,0,-42,0,-85,-33c0,0,-43,-33,-94,-96V18c0,0,0,-6,-3,-10c0,0,-3,-4,-11,-7c0,0,-7,-2,-19,-3c0,0,-11,-2,-29,-2c0,0,-18,0,-30,2c0,0,-12,1,-19,3c0,0,-7,3,-10,7c0,0,-3,4,-3,10V427c0,0,0,43,-8,78c0,0,-8,35,-24,61c0,0,-17,25,-42,38c0,0,-25,14,-59,14c0,0,-43,0,-86,-33c0,0,-44,-33,-95,-96V18c0,0,0,-6,-3,-10c0,0,-2,-4,-9,-7c0,0,-7,-2,-19,-3c0,0,-12,-2,-30,-2Z" 
id="f0_ae"
transform="scale(0.001,-0.001)" />

<path d="M388,108c0,0,93,0,156,23c0,0,64,23,106,71c0,0,43,47,64,119c0,0,21,72,21,171c0,0,0,78,-19,145c0,0,-20,68,-61,117c0,0,-41,49,-105,77c0,0,-63,28,-163,28H256V108ZM176,0c0,0,-17,0,-33,12c0,0,-15,11,-15,40V913c0,0,0,29,15,41c0,0,16,11,33,11H394c0,0,126,0,212,-32c0,0,87,-33,145,-94c0,0,59,-60,89,-147c0,0,30,-86,30,-195c0,0,0,-126,-32,-219c0,0,-32,-94,-93,-155c0,0,-62,-62,-151,-92C594,31,504,0,380,0Z" 
id="f0_p"
transform="scale(0.001,-0.001)" />

<path d="M189,-4c0,0,-18,0,-30,2c0,0,-12,2,-18,3c0,0,-7,3,-10,8c0,0,-3,5,-3,10V910c0,0,0,30,17,42c0,0,16,13,35,13h62c0,0,21,0,36,-4c0,0,14,-3,26,-12c0,0,11,-9,22,-24c0,0,11,-15,24,-38L584,463c0,0,21,-39,42,-76c0,0,20,-37,38,-73c0,0,19,-35,37,-70c0,0,19,-35,36,-70h1c0,0,-1,59,-2,123c0,0,0,64,0,123V944c0,0,0,5,3,10c0,0,3,4,10,8c0,0,7,3,19,5c0,0,11,1,30,1c0,0,16,0,28,-1c0,0,12,-2,19,-5c0,0,7,-4,10,-8c0,0,3,-5,3,-10V53c0,0,0,-15,-5,-25c0,0,-5,-11,-13,-17c0,0,-8,-7,-18,-10c0,0,-9,-2,-19,-2H762c0,0,-19,0,-34,3c0,0,-14,4,-27,15c0,0,-14,11,-27,29c0,0,-13,19,-28,48L342,643c0,0,-24,42,-49,89c0,0,-24,47,-45,91h-1c0,0,1,-54,2,-110c0,0,1,-56,1,-111V19c0,0,0,-5,-3,-10c0,0,-3,-5,-10,-8c0,0,-7,-1,-19,-3c0,0,-12,-2,-29,-2Z" 
id="f0_1y"
transform="scale(0.001,-0.001)" />

<path d="M604,356L436,837h-1L269,356ZM87,-4c0,0,-22,0,-36,2C51,-2,37,0,32,4c0,0,-6,5,-6,15c0,0,1,10,7,27L357,943c0,0,3,8,7,13c0,0,5,6,15,9c0,0,9,3,23,4c0,0,15,1,37,1c0,0,24,0,40,-1c0,0,16,-1,25,-4c0,0,10,-3,15,-9c0,0,5,-5,8,-14L851,45c0,0,6,-16,7,-26c0,0,0,-10,-6,-16c0,0,-6,-4,-20,-5c0,0,-14,-2,-37,-2c0,0,-23,0,-37,1c0,0,-14,1,-21,3c0,0,-7,3,-10,7c0,0,-3,5,-6,11L638,253H236L157,21c0,0,-2,-6,-6,-11c0,0,-3,-5,-10,-9c0,0,-7,-2,-21,-3c0,0,-13,-2,-33,-2Z" 
id="f0_5"
transform="scale(0.001,-0.001)" />

<path d="M176,-4c0,0,-18,0,-30,2c0,0,-12,1,-19,3c0,0,-7,3,-10,7c0,0,-3,4,-3,10V690c0,0,0,6,3,10c0,0,2,4,9,7c0,0,6,4,17,5c0,0,10,1,27,1c0,0,17,0,28,-1c0,0,10,-1,16,-5c0,0,6,-3,9,-7c0,0,3,-4,3,-10V601c0,0,56,64,112,94c0,0,57,30,114,30c0,0,67,0,113,-23c0,0,46,-23,74,-61c0,0,29,-38,41,-89c0,0,12,-52,12,-123V18c0,0,0,-6,-3,-10c0,0,-3,-4,-9,-7c0,0,-7,-2,-19,-3c0,0,-12,-2,-30,-2c0,0,-19,0,-30,2c0,0,-12,1,-19,3c0,0,-7,3,-10,7c0,0,-3,4,-3,10V412c0,0,0,58,-9,93c0,0,-9,35,-26,61c0,0,-17,25,-44,38c0,0,-27,14,-63,14c0,0,-46,0,-93,-33c0,0,-46,-33,-97,-96V18c0,0,0,-6,-3,-10c0,0,-2,-4,-9,-7c0,0,-7,-2,-19,-3c0,0,-12,-2,-30,-2Z" 
id="f0_af"
transform="scale(0.001,-0.001)" />

<path d="M431,92c0,0,46,0,79,22c0,0,33,23,53,60c0,0,21,37,30,83c0,0,10,46,10,93c0,0,0,51,-8,100c0,0,-8,49,-28,86c0,0,-19,37,-51,60c0,0,-32,23,-80,23c0,0,-24,0,-47,-7c0,0,-23,-7,-47,-22c0,0,-24,-16,-50,-41c0,0,-25,-24,-55,-62V219c0,0,51,-62,98,-95c0,0,46,-32,96,-32ZM443,-13c0,0,-32,0,-59,7c0,0,-27,6,-53,19c0,0,-26,14,-52,36c0,0,-27,22,-56,52V18c0,0,0,-6,-3,-10c0,0,-3,-5,-9,-7c0,0,-7,-2,-17,-3c0,0,-10,-2,-26,-2c0,0,-15,0,-25,2c0,0,-11,1,-17,3c0,0,-7,2,-9,7c0,0,-3,4,-3,10v997c0,0,0,6,3,11c0,0,3,4,10,7c0,0,7,3,19,5c0,0,12,1,30,1c0,0,18,0,30,-1c0,0,12,-2,19,-5c0,0,7,-3,9,-7c0,0,3,-5,3,-10V614c0,0,30,31,58,52c0,0,28,20,55,34c0,0,27,13,54,19c0,0,27,6,57,6c0,0,73,0,125,-30c0,0,52,-29,84,-78c0,0,32,-48,47,-114c0,0,15,-66,15,-139c0,0,0,-87,-19,-157c0,0,-19,-70,-56,-119c0,0,-37,-49,-90,-76c0,0,-54,-25,-124,-25Z" 
id="f0_7k"
transform="scale(0.001,-0.001)" />

<path d="M367,-13c0,0,-73,0,-129,23c0,0,-56,24,-93,70c0,0,-38,46,-58,112c0,0,-20,67,-20,154c0,0,0,99,25,171c0,0,24,71,66,116c0,0,42,46,99,68c0,0,58,22,124,22c0,0,32,0,62,-6c0,0,31,-6,56,-16c0,0,25,-10,45,-22c0,0,20,-13,29,-22c0,0,9,-9,12,-14c0,0,3,-5,6,-13c0,0,2,-7,3,-16c0,0,0,-9,0,-22c0,0,0,-29,-6,-41c0,0,-7,-11,-17,-11c0,0,-11,0,-25,12c0,0,-15,12,-37,27c0,0,-23,15,-55,28c0,0,-31,12,-75,12c0,0,-88,0,-136,-68c0,0,-47,-68,-47,-198c0,0,0,-65,12,-114c0,0,12,-49,36,-81c0,0,24,-33,59,-49c0,0,35,-16,79,-16c0,0,43,0,75,13c0,0,32,14,56,30c0,0,23,16,39,29c0,0,16,13,25,13c0,0,5,0,9,-3c0,0,4,-3,7,-10c0,0,2,-7,3,-18c0,0,1,-11,1,-26c0,0,0,-12,0,-22c0,0,-1,-9,-3,-15c0,0,-2,-7,-4,-12c0,0,-3,-4,-12,-14c0,0,-10,-9,-32,-23c0,0,-22,-14,-50,-24C496,11,468,0,435,-6c0,0,-33,-7,-68,-7Z" 
id="f0_7l"
transform="scale(0.001,-0.001)" />

<path d="M92,-4c0,0,-22,0,-35,2C57,-2,43,0,37,3c0,0,-7,5,-6,12c0,0,0,7,7,17L247,360L49,675c0,0,-6,11,-6,18c0,0,-1,7,6,12c0,0,7,5,22,6c0,0,14,2,38,2c0,0,22,0,35,-1c0,0,13,-1,20,-4c0,0,8,-2,12,-6c0,0,3,-3,6,-9L335,443L490,693c0,0,3,5,7,9c0,0,4,3,10,6c0,0,7,3,18,4c0,0,12,1,32,1c0,0,21,0,35,-2c0,0,14,-1,21,-5c0,0,7,-4,6,-12c0,0,-1,-7,-8,-19L415,364L622,32c0,0,6,-10,6,-17c0,0,0,-7,-7,-12c0,0,-7,-3,-21,-5c0,0,-15,-2,-38,-2c0,0,-22,0,-35,1c0,0,-13,1,-21,3c0,0,-8,3,-12,7c0,0,-4,4,-7,9L326,282L165,16c0,0,-3,-5,-7,-9c0,0,-4,-4,-12,-7c0,0,-8,-2,-20,-3c0,0,-13,-1,-34,-1Z" 
id="f0_cn"
transform="scale(0.001,-0.001)" />

<path d="M351,-13c0,0,-67,0,-113,22c0,0,-46,22,-75,60c0,0,-28,39,-40,90c0,0,-13,51,-13,124V690c0,0,0,6,3,10c0,0,3,4,10,7c0,0,8,4,20,5c0,0,11,1,29,1c0,0,18,0,30,-1c0,0,12,-1,19,-5c0,0,7,-3,10,-7c0,0,3,-4,3,-10V299c0,0,0,-59,9,-94c0,0,8,-36,26,-61c0,0,18,-24,44,-38c0,0,27,-14,63,-14c0,0,46,0,92,33c0,0,46,32,98,95V690c0,0,0,6,2,10c0,0,3,4,10,7c0,0,8,4,19,5c0,0,12,1,30,1c0,0,18,0,30,-1c0,0,12,-1,19,-5c0,0,7,-3,10,-7c0,0,3,-4,3,-10V18c0,0,0,-6,-2,-10c0,0,-3,-4,-10,-7c0,0,-6,-2,-17,-3c0,0,-11,-2,-27,-2c0,0,-17,0,-28,2c0,0,-10,1,-17,3c0,0,-6,3,-8,7c0,0,-3,4,-3,10v89c0,0,-57,-63,-113,-92c0,0,-56,-28,-113,-28Z" 
id="f0_c6"
transform="scale(0.001,-0.001)" />

<path d="M366,92c0,0,25,0,48,7c0,0,22,6,46,22c0,0,24,16,50,41c0,0,26,24,56,61V492c0,0,-51,62,-97,94c0,0,-47,33,-98,33c0,0,-47,0,-79,-22c0,0,-33,-23,-54,-59c0,0,-20,-37,-30,-83c0,0,-9,-47,-9,-94c0,0,0,-51,8,-100c0,0,8,-48,27,-86c0,0,19,-38,52,-60c0,0,32,-23,80,-23ZM345,-13c0,0,-74,0,-127,28c0,0,-52,29,-84,78c0,0,-33,49,-48,115c0,0,-15,66,-15,139c0,0,0,86,19,156c0,0,19,70,55,119c0,0,37,50,91,76c0,0,54,27,125,27c0,0,59,0,108,-26c0,0,49,-26,97,-76v390c0,0,0,5,2,10c0,0,3,4,10,7c0,0,8,3,19,5c0,0,12,1,30,1c0,0,18,0,30,-1c0,0,12,-2,19,-5c0,0,7,-3,10,-7c0,0,3,-5,3,-10V18c0,0,0,-6,-2,-10c0,0,-3,-5,-9,-7c0,0,-7,-2,-17,-3c0,0,-10,-2,-25,-2c0,0,-16,0,-26,2c0,0,-11,1,-18,3c0,0,-6,2,-9,7c0,0,-3,4,-3,10v90c0,0,-53,-58,-110,-90c0,0,-58,-31,-125,-31Z" 
id="f0_7v"
transform="scale(0.001,-0.001)" />

<path d="M435,-4c0,0,-16,0,-28,0c0,0,-13,1,-22,2c0,0,-9,2,-15,3c0,0,-6,2,-11,5c0,0,-4,3,-7,7c0,0,-3,4,-5,10L32,920c0,0,-6,16,-7,26c0,0,0,11,7,16c0,0,6,5,21,6c0,0,15,2,41,2c0,0,21,0,33,-1c0,0,12,-1,19,-4c0,0,7,-3,10,-8c0,0,3,-5,6,-12L439,132h1L709,943c0,0,3,8,6,13c0,0,3,6,10,9c0,0,7,3,21,4c0,0,13,1,36,1c0,0,23,0,36,-2c0,0,14,-2,18,-7c0,0,5,-5,4,-15c0,0,-1,-10,-7,-27L518,22c0,0,-3,-8,-8,-13c0,0,-5,-6,-14,-9c0,0,-10,-2,-24,-3c0,0,-15,-1,-37,-1Z" 
id="f0_38"
transform="scale(0.001,-0.001)" />

<path d="M218,-6c0,0,-24,0,-39,4c0,0,-15,3,-24,13c0,0,-8,10,-12,27c0,0,-3,16,-3,41c0,0,0,24,3,41c0,0,4,17,12,27c0,0,9,9,24,14c0,0,15,4,39,4c0,0,23,0,38,-4c0,0,15,-5,24,-14c0,0,10,-10,13,-27c0,0,3,-17,3,-41c0,0,0,-25,-3,-41c0,0,-3,-17,-13,-27c0,0,-9,-10,-24,-13c0,0,-15,-4,-38,-4Zm0,518c0,0,-24,0,-39,4c0,0,-15,5,-24,15c0,0,-8,10,-12,26c0,0,-3,16,-3,40c0,0,0,26,3,42c0,0,4,17,12,27c0,0,9,10,24,14c0,0,15,4,39,4c0,0,23,0,38,-4c0,0,15,-4,24,-14c0,0,10,-10,13,-27c0,0,3,-16,3,-42c0,0,0,-24,-3,-40c0,0,-3,-16,-13,-26c0,0,-9,-10,-24,-15c0,0,-15,-4,-38,-4Z" 
id="f0_ns"
transform="scale(0.001,-0.001)" />

<path d="M252,-271c0,0,-19,0,-31,2c0,0,-12,2,-18,6c0,0,-7,5,-8,12c0,0,0,8,4,18L292,0c0,0,-7,3,-13,10c0,0,-6,6,-8,14L31,665c0,0,-6,16,-6,25c0,0,0,9,6,14c0,0,6,5,20,7c0,0,13,2,36,2c0,0,22,0,35,-1c0,0,12,-1,20,-4c0,0,7,-3,11,-9c0,0,3,-6,7,-15L351,145h3L539,687c0,0,4,14,10,18c0,0,7,4,19,6c0,0,13,2,37,2c0,0,21,0,34,-2c0,0,14,-2,20,-7c0,0,6,-5,6,-14c0,0,0,-9,-4,-23L420,0L330,-246c0,0,-4,-12,-22,-18c0,0,-19,-7,-56,-7Z" 
id="f0_co"
transform="scale(0.001,-0.001)" />

<path d="M346,-4c0,0,-23,0,-38,2c0,0,-15,1,-24,3c0,0,-9,3,-15,8c0,0,-5,6,-8,13L33,660c0,0,-3,9,-5,15c0,0,-2,7,-2,11c0,0,0,3,0,5c0,0,0,6,3,11c0,0,3,4,10,7c0,0,7,2,18,3c0,0,12,1,29,1c0,0,22,0,35,-1c0,0,13,-1,20,-4c0,0,7,-3,10,-8c0,0,4,-4,7,-11L347,135l3,-9l2,9L540,689c0,0,1,7,5,11c0,0,3,5,11,8c0,0,7,3,19,4c0,0,12,1,32,1c0,0,18,0,29,-1c0,0,11,-1,17,-4c0,0,7,-3,9,-7c0,0,3,-4,3,-10c0,0,0,-3,-1,-6c0,0,0,-4,-1,-7c0,0,0,-4,-2,-8c0,0,-1,-5,-2,-10L430,22c0,0,-3,-8,-8,-13c0,0,-5,-6,-15,-9c0,0,-9,-2,-24,-3c0,0,-15,-1,-37,-1Z" 
id="f0_ch"
transform="scale(0.001,-0.001)" />

<path d="M321,-256c0,0,-13,0,-23,1c0,0,-10,0,-17,3c0,0,-7,2,-11,5c0,0,-5,3,-7,7c0,0,-40,76,-71,154c0,0,-31,78,-51,157c0,0,-21,81,-32,163c0,0,-10,83,-10,167c0,0,0,84,11,166c0,0,12,82,33,163c0,0,21,81,52,160c0,0,31,78,69,155c0,0,0,3,4,5c0,0,3,2,9,4c0,0,6,3,16,4c0,0,11,1,27,1c0,0,17,0,28,-2c0,0,10,-3,16,-6c0,0,6,-4,7,-10c0,0,1,-6,-2,-13c0,0,-71,-150,-106,-307c0,0,-34,-158,-34,-318c0,0,0,-160,35,-318c0,0,35,-156,103,-308c0,0,4,-9,4,-15c0,0,1,-6,-4,-10c0,0,-6,-4,-16,-6c0,0,-11,-2,-30,-2Z" 
id="f0_ov"
transform="scale(0.001,-0.001)" />

<path d="M176,0c0,0,-17,0,-33,12c0,0,-15,11,-15,40V913c0,0,0,29,15,41c0,0,16,11,33,11H635c0,0,6,0,10,-3c0,0,5,-3,8,-10c0,0,3,-6,5,-16c0,0,2,-10,2,-25c0,0,0,-14,-2,-24c0,0,-2,-10,-5,-16c0,0,-3,-7,-8,-10c0,0,-4,-2,-10,-2H256V555H581c0,0,6,0,11,-3c0,0,5,-3,8,-9c0,0,3,-6,5,-17c0,0,1,-10,1,-24c0,0,0,-14,-1,-23c0,0,-2,-10,-5,-16c0,0,-3,-6,-8,-9c0,0,-5,-2,-11,-2H256V107H640c0,0,6,0,11,-3c0,0,4,-3,8,-10c0,0,4,-6,5,-16c0,0,2,-10,2,-25c0,0,0,-14,-2,-24c0,0,-1,-10,-5,-16c0,0,-4,-7,-8,-10c0,0,-5,-3,-11,-3Z" 
id="f0_t"
transform="scale(0.001,-0.001)" />

<path d="M441,106c0,0,45,0,77,10c0,0,33,10,58,31c0,0,25,21,39,51c0,0,15,31,15,71c0,0,0,43,-14,76c0,0,-14,33,-41,55c0,0,-26,23,-66,34c0,0,-40,12,-100,12H255V106ZM401,549c0,0,50,0,81,13c0,0,30,13,50,35c0,0,20,22,30,51c0,0,9,29,9,61c0,0,0,35,-10,63c0,0,-9,28,-30,48c0,0,-21,20,-55,30c0,0,-33,10,-88,10H255V549ZM176,0c0,0,-17,0,-33,12c0,0,-15,11,-15,40V913c0,0,0,29,15,41c0,0,16,11,33,11H395c0,0,87,0,142,-16c0,0,55,-17,92,-48c0,0,37,-31,55,-77c0,0,19,-45,19,-103c0,0,0,-34,-8,-65c0,0,-8,-32,-24,-58c0,0,-16,-27,-41,-47c0,0,-24,-21,-55,-35c0,0,39,-7,74,-27c0,0,34,-20,60,-50c0,0,26,-31,41,-72c0,0,15,-41,15,-90c0,0,0,-46,-12,-84c0,0,-12,-39,-32,-69c0,0,-21,-31,-51,-54c0,0,-29,-23,-66,-39C604,31,567,16,525,8C525,8,483,0,428,0Z" 
id="f0_i"
transform="scale(0.001,-0.001)" />

<path d="M142,-256c0,0,-19,0,-30,2c0,0,-11,2,-16,6c0,0,-5,4,-4,10c0,0,0,6,4,15c0,0,69,151,104,308c0,0,35,158,35,318c0,0,0,160,-35,318c0,0,-35,157,-106,307c0,0,-3,7,-2,13c0,0,1,6,7,10c0,0,6,3,16,6c0,0,11,2,28,2c0,0,16,0,26,-1c0,0,10,-1,17,-4c0,0,6,-2,9,-4c0,0,3,-2,5,-5c0,0,76,-153,120,-315c0,0,44,-161,44,-329c0,0,0,-84,-11,-167c0,0,-10,-82,-31,-163c0,0,-21,-79,-51,-157c0,0,-30,-78,-71,-154c0,0,-2,-4,-6,-7c0,0,-5,-3,-12,-5c0,0,-7,-3,-17,-3c0,0,-9,-1,-23,-1Z" 
id="f0_ow"
transform="scale(0.001,-0.001)" />

<path d="M483,-13c0,0,-80,0,-145,22c0,0,-66,24,-113,69c0,0,-47,45,-73,113c0,0,-25,68,-25,156V946c0,0,0,6,3,11c0,0,3,4,11,7c0,0,7,2,19,4c0,0,12,2,31,2c0,0,18,0,31,-2c0,0,13,-2,20,-4c0,0,7,-3,10,-7c0,0,3,-5,3,-11V363c0,0,0,-67,16,-117c0,0,16,-50,47,-83c0,0,31,-34,75,-50c0,0,44,-17,98,-17c0,0,56,0,100,16c0,0,43,17,74,49c0,0,30,33,46,82c0,0,16,48,16,113V946c0,0,0,6,3,11c0,0,3,4,10,7c0,0,8,2,20,4c0,0,13,2,31,2c0,0,18,0,30,-2c0,0,13,-2,20,-4c0,0,7,-3,10,-7c0,0,4,-5,4,-11V357c0,0,0,-88,-26,-157c0,0,-26,-69,-74,-117C755,83,708,36,639,11c0,0,-69,-24,-156,-24Z" 
id="f0_2x"
transform="scale(0.001,-0.001)" />

<path d="M372,472c0,0,58,0,97,15c0,0,38,15,65,42c0,0,26,26,39,63c0,0,14,37,14,80c0,0,0,59,-22,99c0,0,-23,39,-55,59c0,0,-32,19,-67,24c0,0,-35,5,-68,5H256V472ZM192,-4c0,0,-18,0,-31,2c0,0,-12,2,-19,3c0,0,-8,3,-11,8c0,0,-3,4,-3,10V910c0,0,0,30,16,42c0,0,15,13,35,13H386c0,0,31,0,60,-3c0,0,28,-2,68,-11c0,0,39,-8,80,-32c0,0,40,-23,69,-58c0,0,28,-34,43,-79c0,0,16,-45,16,-100c0,0,0,-72,-24,-130c0,0,-24,-58,-69,-100c0,0,-44,-41,-109,-63c0,0,-64,-22,-154,-22H256V19c0,0,0,-6,-3,-10c0,0,-3,-5,-10,-8c0,0,-7,-1,-20,-3c0,0,-12,-2,-31,-2Z" 
id="f0_2g"
transform="scale(0.001,-0.001)" />

<path d="M589,371L453,782h-1L317,371ZM106,-4c0,0,-35,0,-54,2C52,-2,32,0,25,8c0,0,-7,9,-5,24c0,0,2,16,11,42L329,931c0,0,4,13,10,21c0,0,6,7,19,12c0,0,13,4,36,5c0,0,23,1,61,1c0,0,44,0,71,-1c0,0,26,-1,40,-5c0,0,15,-5,21,-13c0,0,6,-8,11,-22L896,73c0,0,9,-27,11,-43c0,0,3,-15,-6,-23c0,0,-8,-7,-29,-9c0,0,-21,-2,-57,-2c0,0,-38,0,-59,1c0,0,-22,1,-33,4c0,0,-11,3,-16,9c0,0,-4,6,-7,16L635,220H272L211,31c0,0,-2,-11,-7,-18c0,0,-5,-7,-16,-11c0,0,-11,-3,-31,-4c0,0,-19,-2,-51,-2Z" 
id="f1_5"
transform="scale(0.001,-0.001)" />

<path d="M345,-143c0,0,43,0,72,9c0,0,29,8,47,23c0,0,18,14,25,31c0,0,8,18,8,37c0,0,0,33,-27,50c0,0,-27,18,-74,20L263,30C263,30,243,16,232,3c0,0,-12,-12,-19,-24c0,0,-7,-12,-9,-23c0,0,-3,-11,-3,-23c0,0,0,-37,38,-56c0,0,38,-20,106,-20Zm-4,517c0,0,28,0,49,9c0,0,21,9,35,25c0,0,14,16,21,36c0,0,7,21,7,43c0,0,0,54,-30,84c0,0,-30,29,-84,29c0,0,-28,0,-49,-9c0,0,-21,-9,-34,-25c0,0,-14,-16,-21,-38c0,0,-7,-21,-7,-44c0,0,0,-51,30,-80c0,0,30,-30,83,-30Zm-4,-645c0,0,-85,0,-145,14c0,0,-60,13,-98,37c0,0,-39,24,-56,57c0,0,-18,33,-18,73c0,0,0,24,6,47c0,0,7,22,19,42c0,0,12,20,30,39c0,0,18,18,41,35c0,0,-32,18,-49,47c0,0,-18,29,-18,64c0,0,0,44,20,80c0,0,21,36,53,65c0,0,-27,26,-42,63c0,0,-16,37,-16,91c0,0,0,58,21,104c0,0,20,46,57,78c0,0,36,32,87,49c0,0,51,16,112,16c0,0,31,0,60,-3c0,0,29,-4,53,-11H665c0,0,13,0,21,-17c0,0,8,-16,8,-55c0,0,0,-36,-8,-53c0,0,-9,-17,-21,-17H587c0,0,17,-18,24,-41c0,0,7,-22,7,-47c0,0,0,-58,-20,-103c0,0,-19,-45,-55,-76c0,0,-36,-31,-88,-47c0,0,-51,-17,-113,-17c0,0,-32,0,-61,8c0,0,-30,8,-45,19c0,0,-9,-10,-16,-23c0,0,-7,-14,-7,-30c0,0,0,-22,19,-36c0,0,19,-13,53,-15l162,-6c0,0,57,-2,101,-16c0,0,44,-14,75,-39c0,0,30,-24,46,-59c0,0,16,-35,16,-79c0,0,0,-49,-22,-93c0,0,-21,-44,-65,-76c0,0,-43,-32,-108,-50c0,0,-66,-19,-153,-19Z" 
id="f1_9d"
transform="scale(0.001,-0.001)" />

<path d="M337,115c0,0,39,0,73,21c0,0,33,20,67,59V308H405c0,0,-45,0,-77,-7c0,0,-32,-6,-53,-20c0,0,-20,-13,-29,-32c0,0,-9,-19,-9,-44c0,0,0,-42,26,-66c0,0,27,-24,74,-24ZM296,-17c0,0,-53,0,-98,14c0,0,-44,13,-77,40c0,0,-32,28,-50,68c0,0,-18,40,-18,94c0,0,0,58,23,101c0,0,22,43,68,71c0,0,45,28,112,42c0,0,67,13,156,13h65v40c0,0,0,32,-6,55c0,0,-7,24,-21,39c0,0,-15,16,-39,23c0,0,-24,8,-60,8c0,0,-47,0,-84,-11c0,0,-37,-10,-66,-23c0,0,-28,-13,-47,-23c0,0,-19,-11,-31,-11c0,0,-9,0,-15,5c0,0,-6,6,-10,15c0,0,-5,10,-7,24c0,0,-2,14,-2,31c0,0,0,23,4,37c0,0,3,13,14,24c0,0,10,11,36,24c0,0,27,13,62,25c0,0,35,11,76,18c0,0,42,7,86,7c0,0,78,0,134,-15c0,0,55,-15,91,-47c0,0,36,-32,53,-82c0,0,16,-50,16,-118V23c0,0,0,-11,-7,-17c0,0,-8,-6,-24,-7c0,0,-16,-3,-47,-3c0,0,-34,0,-49,3c0,0,-15,1,-21,7c0,0,-7,6,-7,17V76C506,76,465,32,412,7c0,0,-52,-24,-116,-24Z" 
id="f1_77"
transform="scale(0.001,-0.001)" />

<path d="M188,-4c0,0,-28,0,-46,2c0,0,-18,2,-28,5c0,0,-11,3,-16,9c0,0,-4,5,-4,13V691c0,0,0,7,4,13c0,0,3,5,13,9c0,0,10,4,25,6c0,0,15,2,38,2c0,0,24,0,40,-2c0,0,15,-2,24,-6c0,0,9,-4,12,-9c0,0,4,-6,4,-13V608c0,0,26,37,49,61c0,0,23,25,44,39c0,0,21,14,42,20c0,0,21,5,42,5c0,0,10,0,21,-1c0,0,11,-1,23,-4c0,0,12,-2,21,-5c0,0,9,-4,13,-8c0,0,4,-3,6,-8c0,0,2,-4,3,-12c0,0,2,-8,2,-24c0,0,1,-15,1,-42c0,0,0,-27,-1,-44c0,0,-2,-17,-5,-27c0,0,-3,-10,-8,-13c0,0,-5,-4,-12,-4c0,0,-6,0,-13,3c0,0,-8,2,-17,5c0,0,-10,3,-21,6c0,0,-11,2,-24,2c0,0,-16,0,-32,-6c0,0,-15,-6,-32,-20c0,0,-17,-13,-35,-36c0,0,-19,-22,-39,-55V25c0,0,0,-8,-5,-13c0,0,-4,-6,-15,-9c0,0,-11,-3,-29,-5c0,0,-18,-2,-45,-2Z" 
id="f1_b1"
transform="scale(0.001,-0.001)" />

<path d="M409,132c0,0,42,0,73,15c0,0,32,16,52,45c0,0,20,29,29,70c0,0,10,42,10,95c0,0,0,49,-8,91c0,0,-8,41,-26,72c0,0,-19,30,-50,48c0,0,-30,17,-77,17c0,0,-42,0,-73,-16c0,0,-31,-15,-51,-44c0,0,-21,-30,-31,-71c0,0,-10,-42,-10,-95c0,0,0,-49,9,-91c0,0,8,-41,26,-72c0,0,18,-30,49,-47c0,0,32,-17,78,-17ZM402,-17c0,0,-89,0,-154,24c0,0,-66,25,-109,72c0,0,-43,47,-64,115c0,0,-21,69,-21,157c0,0,0,85,23,156c0,0,22,70,68,121c0,0,45,50,113,78c0,0,69,27,160,27c0,0,90,0,155,-24c0,0,66,-24,109,-71c0,0,43,-47,64,-116c0,0,21,-69,21,-157c0,0,0,-86,-23,-156c0,0,-22,-70,-68,-121C676,88,631,38,562,10c0,0,-68,-27,-160,-27Z" 
id="f1_am"
transform="scale(0.001,-0.001)" />

<path d="M275,-17c0,0,-37,0,-71,6c0,0,-34,6,-61,13c0,0,-27,9,-45,18c0,0,-18,9,-26,17c0,0,-8,8,-13,25c0,0,-4,17,-4,49c0,0,0,22,1,35c0,0,2,13,5,21c0,0,3,8,7,10c0,0,5,3,11,3c0,0,9,0,25,-9c0,0,16,-10,40,-21c0,0,24,-11,55,-21c0,0,32,-10,72,-10c0,0,26,0,46,5c0,0,19,6,34,15c0,0,14,10,22,25c0,0,7,15,7,34c0,0,0,23,-13,39c0,0,-14,16,-37,28c0,0,-23,11,-52,22c0,0,-28,10,-58,23c0,0,-31,13,-59,29c0,0,-29,17,-52,41c0,0,-23,23,-37,57c0,0,-13,34,-13,81c0,0,0,47,18,87c0,0,19,40,54,69c0,0,35,28,86,44c0,0,50,15,113,15c0,0,31,0,61,-4c0,0,29,-5,53,-11c0,0,24,-7,40,-15c0,0,17,-7,24,-13c0,0,7,-6,10,-11c0,0,3,-6,4,-14c0,0,2,-7,3,-19c0,0,1,-12,1,-29c0,0,0,-20,-1,-33c0,0,-1,-12,-4,-20c0,0,-2,-7,-7,-10c0,0,-4,-3,-10,-3c0,0,-7,0,-21,8c0,0,-14,8,-36,17c0,0,-21,9,-49,17c0,0,-28,7,-64,7c0,0,-25,0,-44,-5c0,0,-19,-5,-30,-15c0,0,-12,-9,-18,-22c0,0,-6,-14,-6,-28c0,0,0,-24,14,-39c0,0,14,-16,37,-28c0,0,23,-12,53,-22c0,0,29,-11,59,-23c0,0,31,-12,60,-29c0,0,30,-16,53,-40c0,0,23,-24,37,-57c0,0,14,-33,14,-79c0,0,0,-57,-21,-100c0,0,-21,-43,-60,-72c0,0,-39,-29,-92,-43c0,0,-53,-15,-115,-15Z" 
id="f1_b5"
transform="scale(0.001,-0.001)" />

<path d="M526,431c0,0,2,79,-32,124c0,0,-34,45,-105,45c0,0,-35,0,-62,-13c0,0,-26,-13,-44,-36c0,0,-17,-23,-27,-54c0,0,-9,-31,-11,-66ZM410,-17c0,0,-88,0,-155,22c0,0,-67,22,-112,68c0,0,-44,45,-66,115c0,0,-22,69,-22,162c0,0,0,89,23,161c0,0,23,71,67,120c0,0,44,50,107,76c0,0,63,26,142,26c0,0,84,0,143,-24c0,0,59,-25,97,-69c0,0,38,-43,56,-103c0,0,18,-60,18,-130V377c0,0,0,-34,-15,-51c0,0,-16,-16,-43,-16H245c0,0,0,-43,10,-77c0,0,11,-35,33,-59c0,0,22,-24,56,-37c0,0,35,-13,83,-13c0,0,50,0,87,7c0,0,37,8,65,16c0,0,27,9,45,16c0,0,18,7,29,7c0,0,6,0,11,-2c0,0,4,-3,7,-10c0,0,3,-7,4,-19c0,0,2,-12,2,-31c0,0,0,-16,-1,-28c0,0,-1,-12,-2,-20c0,0,-2,-8,-5,-14c0,0,-3,-5,-8,-10c0,0,-5,-6,-26,-15c0,0,-22,-9,-55,-17c0,0,-34,-8,-77,-14c0,0,-43,-7,-93,-7Z" 
id="f1_7z"
transform="scale(0.001,-0.001)" />

<path d="M547,-16c0,0,-115,0,-207,33c0,0,-91,33,-155,96c0,0,-63,63,-97,154c0,0,-33,91,-33,206c0,0,0,118,36,213c0,0,35,94,101,160c0,0,66,66,159,102c0,0,92,35,207,35c0,0,62,0,114,-9c0,0,51,-8,90,-21c0,0,38,-12,64,-26c0,0,25,-14,35,-25c0,0,10,-10,15,-29c0,0,4,-19,4,-57c0,0,0,-21,-2,-37c0,0,-2,-16,-5,-25c0,0,-3,-9,-8,-13c0,0,-5,-4,-12,-4c0,0,-10,0,-31,14c0,0,-22,13,-58,29c0,0,-35,15,-85,29c0,0,-50,13,-115,13c0,0,-71,0,-127,-24c0,0,-57,-24,-97,-69c0,0,-41,-44,-62,-107c0,0,-22,-62,-22,-138c0,0,0,-82,22,-146c0,0,22,-63,62,-105c0,0,39,-43,95,-65c0,0,56,-21,123,-21c0,0,33,0,65,7c0,0,32,8,60,23V401H500c0,0,-14,0,-21,17c0,0,-8,17,-8,57c0,0,0,21,2,35c0,0,2,14,6,23c0,0,3,8,9,12c0,0,5,5,12,5H826c0,0,12,0,21,-5c0,0,9,-4,16,-12c0,0,8,-8,11,-20c0,0,4,-11,4,-26V102c0,0,0,-22,-8,-39c0,0,-8,-17,-32,-27c0,0,-24,-9,-60,-20C778,16,742,6,704,-1c0,0,-39,-7,-78,-11c0,0,-39,-4,-79,-4Z" 
id="f1_14"
transform="scale(0.001,-0.001)" />

<path d="M188,-4c0,0,-28,0,-46,2c0,0,-18,2,-28,5c0,0,-11,3,-16,9c0,0,-4,5,-4,13v981c0,0,0,8,4,14c0,0,5,6,16,10c0,0,10,4,28,6c0,0,18,2,46,2c0,0,27,0,45,-2c0,0,18,-2,29,-6c0,0,11,-4,15,-10c0,0,5,-6,5,-14V25c0,0,0,-8,-5,-13c0,0,-4,-6,-15,-9c0,0,-11,-3,-29,-5c0,0,-18,-2,-45,-2Z" 
id="f1_a8"
transform="scale(0.001,-0.001)" />

<path d="M164,0c0,0,-25,0,-42,15c0,0,-16,14,-16,47V903c0,0,0,33,16,48c0,0,17,14,42,14H645c0,0,7,0,12,-4c0,0,5,-3,9,-13c0,0,4,-9,6,-24c0,0,2,-14,2,-36c0,0,0,-21,-2,-36c0,0,-2,-14,-6,-23c0,0,-4,-9,-9,-13c0,0,-5,-4,-12,-4H301V576H593c0,0,6,0,12,-4c0,0,6,-4,9,-13c0,0,4,-8,6,-23c0,0,2,-14,2,-35c0,0,0,-22,-2,-36c0,0,-2,-14,-6,-23c0,0,-3,-8,-9,-12c0,0,-6,-4,-12,-4H301V154H649c0,0,6,0,12,-5c0,0,5,-4,9,-13c0,0,4,-9,6,-23c0,0,2,-15,2,-36c0,0,0,-22,-2,-36c0,0,-2,-15,-6,-24c0,0,-4,-9,-9,-13c0,0,-6,-4,-12,-4Z" 
id="f1_t"
transform="scale(0.001,-0.001)" />

<path d="M371,-16c0,0,-77,0,-136,23c0,0,-60,24,-100,71c0,0,-40,47,-61,114c0,0,-20,67,-20,154c0,0,0,100,25,173c0,0,25,72,69,120c0,0,45,48,106,71c0,0,62,23,135,23c0,0,29,0,58,-5c0,0,29,-5,54,-14c0,0,25,-9,45,-20c0,0,19,-12,28,-20c0,0,8,-8,11,-14c0,0,3,-5,5,-14c0,0,2,-9,3,-22c0,0,1,-13,1,-32c0,0,0,-43,-7,-61c0,0,-7,-18,-19,-18c0,0,-13,0,-27,11c0,0,-14,10,-34,23c0,0,-19,13,-46,23c0,0,-27,11,-64,11c0,0,-73,0,-112,-57c0,0,-39,-56,-39,-165c0,0,0,-54,10,-95c0,0,10,-41,29,-69c0,0,19,-28,47,-41c0,0,29,-14,67,-14c0,0,39,0,67,11c0,0,28,12,49,26c0,0,21,14,35,26c0,0,14,11,24,11c0,0,6,0,11,-4c0,0,4,-3,7,-13c0,0,2,-11,4,-26c0,0,1,-16,1,-41c0,0,0,-19,-1,-32c0,0,-1,-13,-3,-22c0,0,-2,-9,-4,-15c0,0,-3,-5,-12,-14c0,0,-9,-8,-30,-20C547,27,525,14,497,5c0,0,-27,-9,-60,-15c0,0,-32,-6,-66,-6Z" 
id="f1_7l"
transform="scale(0.001,-0.001)" />

<path d="M344,-14c0,0,-56,0,-97,14c0,0,-42,14,-69,43c0,0,-26,29,-39,74c0,0,-13,45,-13,106V563H47c0,0,-15,0,-22,18c0,0,-7,17,-7,58c0,0,0,22,1,37c0,0,2,15,6,24c0,0,4,8,9,12c0,0,6,4,13,4h79V864c0,0,0,8,4,14c0,0,4,6,15,10c0,0,11,4,29,6c0,0,19,2,46,2c0,0,27,0,46,-2c0,0,18,-2,28,-6c0,0,11,-4,15,-10c0,0,5,-6,5,-14V716H459c0,0,7,0,13,-4c0,0,6,-4,9,-12c0,0,4,-9,6,-24c0,0,2,-15,2,-37c0,0,0,-41,-8,-58c0,0,-7,-18,-21,-18H314V251c0,0,0,-54,17,-81c0,0,17,-27,61,-27c0,0,15,0,27,2c0,0,12,3,22,6c0,0,9,4,15,6c0,0,7,3,12,3c0,0,4,0,9,-3c0,0,4,-2,6,-10c0,0,2,-8,4,-21c0,0,2,-14,2,-35c0,0,0,-33,-4,-50c0,0,-4,-18,-11,-25c0,0,-7,-7,-20,-12c0,0,-13,-5,-31,-9c0,0,-17,-4,-38,-6c0,0,-20,-3,-41,-3Z" 
id="f1_bf"
transform="scale(0.001,-0.001)" />

<path d="M432,142c0,0,36,0,62,18c0,0,26,19,42,49c0,0,16,31,24,69c0,0,8,38,8,76c0,0,0,43,-6,82c0,0,-7,39,-22,70c0,0,-15,30,-40,49c0,0,-25,18,-62,18c0,0,-19,0,-37,-6c0,0,-19,-5,-38,-18c0,0,-19,-13,-39,-33c0,0,-20,-20,-42,-50V247c0,0,39,-51,75,-78c0,0,36,-27,75,-27ZM188,-270c0,0,-28,0,-46,2c0,0,-18,3,-28,7c0,0,-11,4,-16,10c0,0,-4,6,-4,13V691c0,0,0,7,4,13c0,0,3,5,13,9c0,0,9,4,24,6c0,0,15,2,39,2c0,0,22,0,37,-2c0,0,15,-2,25,-6c0,0,9,-4,13,-9c0,0,4,-6,4,-13V612c0,0,29,30,57,53c0,0,28,23,57,38c0,0,29,15,60,23c0,0,31,7,66,7c0,0,73,0,124,-28c0,0,52,-29,84,-79c0,0,33,-50,48,-117c0,0,15,-66,15,-141c0,0,0,-89,-19,-161c0,0,-19,-71,-56,-121C689,86,652,36,598,9c0,0,-54,-26,-125,-26c0,0,-29,0,-53,6c0,0,-24,6,-47,16c0,0,-23,12,-45,29c0,0,-23,17,-46,40V-238c0,0,0,-7,-5,-13c0,0,-4,-6,-15,-10c0,0,-11,-4,-29,-7c0,0,-18,-2,-45,-2Z" 
id="f1_ay"
transform="scale(0.001,-0.001)" />

<path d="M188,-4c0,0,-28,0,-46,2c0,0,-18,2,-28,5c0,0,-11,3,-16,9c0,0,-4,5,-4,13v981c0,0,0,8,4,14c0,0,5,6,16,10c0,0,10,4,28,6c0,0,18,2,46,2c0,0,27,0,45,-2c0,0,18,-2,29,-6c0,0,11,-4,15,-10c0,0,5,-6,5,-14V639c0,0,48,47,98,71c0,0,51,23,105,23c0,0,68,0,115,-22c0,0,47,-22,75,-61c0,0,29,-39,42,-91c0,0,12,-52,12,-126V25c0,0,0,-8,-4,-13c0,0,-5,-6,-15,-9c0,0,-10,-3,-29,-5c0,0,-18,-2,-45,-2c0,0,-28,0,-46,2c0,0,-18,2,-29,5c0,0,-10,3,-15,9c0,0,-4,6,-4,13V405c0,0,0,49,-7,76c0,0,-7,28,-21,48c0,0,-13,19,-35,30c0,0,-21,11,-49,11c0,0,-36,0,-72,-26c0,0,-37,-26,-76,-76V25c0,0,0,-7,-5,-13c0,0,-4,-6,-15,-9c0,0,-11,-3,-29,-5c0,0,-18,-2,-45,-2Z" 
id="f1_9n"
transform="scale(0.001,-0.001)" />

<path d="M188,-4c0,0,-28,0,-46,2c0,0,-18,2,-28,5c0,0,-11,3,-16,9c0,0,-4,5,-4,13V689c0,0,0,8,4,13c0,0,5,6,16,10c0,0,10,4,28,6c0,0,18,3,46,3c0,0,27,0,45,-3c0,0,18,-2,29,-6c0,0,11,-4,15,-10c0,0,5,-5,5,-13V25c0,0,0,-8,-5,-13c0,0,-4,-6,-15,-9c0,0,-11,-3,-29,-5c0,0,-18,-2,-45,-2Zm-1,820c0,0,-63,0,-85,21c0,0,-22,21,-22,75c0,0,0,57,23,79c0,0,23,22,86,22c0,0,63,0,85,-21c0,0,22,-21,22,-76c0,0,0,-56,-23,-78c0,0,-23,-22,-86,-22Z" 
id="f1_9q"
transform="scale(0.001,-0.001)" />

<path d="M224,-4c0,0,-26,0,-45,2c0,0,-18,2,-29,5c0,0,-11,3,-15,9c0,0,-4,5,-4,13V563H48c0,0,-14,0,-21,18c0,0,-7,17,-7,58c0,0,0,22,1,37c0,0,2,15,6,24c0,0,3,8,9,12c0,0,5,4,13,4h82v56c0,0,0,68,13,119c0,0,14,51,43,85c0,0,29,34,73,51c0,0,45,17,105,17c0,0,29,0,55,-5c0,0,27,-4,42,-10c0,0,15,-6,20,-10c0,0,5,-5,8,-15c0,0,4,-9,5,-23c0,0,2,-15,2,-37c0,0,0,-21,-2,-34c0,0,-1,-13,-4,-20c0,0,-3,-7,-7,-10c0,0,-4,-3,-8,-3c0,0,-5,0,-12,3c0,0,-6,3,-16,6c0,0,-9,2,-22,5c0,0,-12,3,-29,3c0,0,-21,0,-35,-7c0,0,-15,-6,-25,-20c0,0,-9,-14,-14,-36c0,0,-4,-22,-4,-54V716H440c0,0,7,0,13,-4c0,0,5,-4,9,-12c0,0,4,-9,5,-24c0,0,2,-15,2,-37c0,0,0,-41,-7,-58c0,0,-8,-18,-22,-18H319V25c0,0,0,-8,-5,-13c0,0,-4,-6,-15,-9c0,0,-10,-3,-29,-5c0,0,-19,-2,-46,-2Z" 
id="f1_89"
transform="scale(0.001,-0.001)" />

<path d="M403,155c0,0,81,0,136,21c0,0,55,21,92,63c0,0,37,42,55,105c0,0,18,63,18,146c0,0,0,69,-16,128c0,0,-16,59,-51,102c0,0,-36,43,-91,67c0,0,-56,25,-146,25H301V155ZM164,0c0,0,-25,0,-42,15c0,0,-16,14,-16,47V903c0,0,0,33,16,48c0,0,17,14,42,14H411c0,0,129,0,219,-30c0,0,90,-30,152,-90c0,0,61,-59,93,-146c0,0,32,-87,32,-202c0,0,0,-133,-34,-227c0,0,-35,-95,-100,-154c0,0,-65,-60,-158,-88C615,28,523,0,394,0Z" 
id="f1_p"
transform="scale(0.001,-0.001)" />

<path d="M193,-4c0,0,-26,0,-43,2c0,0,-18,2,-27,6c0,0,-10,4,-14,10c0,0,-3,6,-3,13V895c0,0,0,35,20,53c0,0,21,17,50,17H282c0,0,28,0,47,-5c0,0,20,-5,35,-16c0,0,15,-11,29,-31c0,0,13,-20,27,-49L608,511c0,0,17,-32,33,-63c0,0,16,-31,31,-62c0,0,14,-31,29,-60c0,0,14,-30,27,-60h1c0,0,-2,52,-3,109c0,0,-1,57,-1,108V936c0,0,0,7,4,13c0,0,5,6,15,11c0,0,10,4,28,6c0,0,17,2,44,2c0,0,25,0,42,-2c0,0,17,-2,27,-6c0,0,9,-5,13,-11c0,0,4,-6,4,-13V68c0,0,0,-17,-6,-30c0,0,-6,-14,-17,-23C879,15,869,6,856,2c0,0,-14,-3,-28,-3H744c0,0,-26,0,-45,4c0,0,-19,5,-35,19c0,0,-16,14,-31,38c0,0,-15,23,-34,60L359,572c0,0,-21,40,-43,86c0,0,-21,47,-38,91h-2c0,0,3,-54,5,-107c0,0,2,-53,2,-110V27c0,0,0,-7,-5,-13c0,0,-4,-6,-14,-10c0,0,-10,-4,-27,-6c0,0,-17,-2,-44,-2Z" 
id="f1_1y"
transform="scale(0.001,-0.001)" />

<path d="M460,-4c0,0,-30,0,-51,0c0,0,-22,1,-37,2c0,0,-15,2,-24,4c0,0,-9,3,-16,7c0,0,-6,5,-9,11c0,0,-4,6,-7,16L29,892c0,0,-9,27,-11,43c0,0,-2,16,7,23c0,0,10,8,32,10c0,0,22,2,63,2c0,0,34,0,53,-2c0,0,20,-1,30,-5c0,0,10,-4,15,-11c0,0,4,-7,7,-19L461,188h1L693,930c0,0,3,12,7,20c0,0,5,8,15,12c0,0,11,5,31,6c0,0,20,2,55,2c0,0,35,0,54,-2c0,0,19,-3,26,-11c0,0,7,-9,4,-24c0,0,-2,-16,-11,-42L586,34c0,0,-4,-13,-10,-21c0,0,-6,-7,-19,-12c0,0,-14,-3,-37,-4c0,0,-23,-1,-60,-1Z" 
id="f1_38"
transform="scale(0.001,-0.001)" />

<path d="M334,-17c0,0,-69,0,-115,22c0,0,-47,22,-76,61c0,0,-28,39,-41,90c0,0,-12,51,-12,127V691c0,0,0,7,4,13c0,0,4,5,15,9c0,0,11,4,29,6c0,0,19,2,45,2c0,0,28,0,46,-2c0,0,18,-2,29,-6c0,0,11,-4,15,-9c0,0,5,-6,5,-13V314c0,0,0,-52,6,-79c0,0,7,-28,21,-48c0,0,14,-20,35,-30c0,0,21,-11,49,-11c0,0,36,0,72,26c0,0,36,26,77,76V691c0,0,0,7,4,13c0,0,4,5,15,9c0,0,11,4,29,6c0,0,18,2,45,2c0,0,28,0,46,-2c0,0,18,-2,28,-6c0,0,11,-4,15,-9c0,0,5,-6,5,-13V25c0,0,0,-8,-4,-13c0,0,-4,-6,-13,-9c0,0,-10,-3,-25,-5c0,0,-15,-2,-38,-2c0,0,-25,0,-40,2c0,0,-16,2,-25,5c0,0,-9,3,-12,9c0,0,-4,5,-4,13v77c0,0,-55,-60,-112,-90c0,0,-57,-29,-118,-29Z" 
id="f1_c6"
transform="scale(0.001,-0.001)" />

<path d="M94,0C94,0,73,0,63,13C63,13,52,27,52,57V92c0,0,0,13,1,24c0,0,1,11,4,21c0,0,4,10,9,20c0,0,6,11,15,23L331,565H94c0,0,-14,0,-23,18c0,0,-8,18,-8,57c0,0,0,22,1,37c0,0,2,14,6,23c0,0,4,8,10,12c0,0,6,4,14,4H501c0,0,11,0,18,-2c0,0,8,-3,13,-9c0,0,4,-6,7,-16c0,0,3,-11,3,-26V626c0,0,0,-15,-2,-26c0,0,-1,-12,-4,-22c0,0,-3,-11,-9,-21c0,0,-5,-10,-13,-22L266,151H529c0,0,7,0,13,-3c0,0,6,-3,10,-12c0,0,4,-8,6,-22c0,0,2,-15,2,-37c0,0,0,-22,-2,-37c0,0,-2,-15,-6,-24c0,0,-4,-9,-10,-13c0,0,-6,-3,-13,-3Z" 
id="f1_ct"
transform="scale(0.001,-0.001)" />

<path d="M188,-4c0,0,-28,0,-46,2c0,0,-18,2,-28,5c0,0,-11,3,-16,9c0,0,-4,5,-4,13V691c0,0,0,7,4,13c0,0,3,5,13,9c0,0,10,4,25,6c0,0,15,2,38,2c0,0,24,0,40,-2c0,0,15,-2,24,-6c0,0,9,-4,12,-9c0,0,4,-6,4,-13V614c0,0,55,60,112,89c0,0,57,30,119,30c0,0,68,0,115,-22c0,0,47,-22,75,-61c0,0,29,-38,42,-90c0,0,12,-51,12,-124V25c0,0,0,-8,-4,-13c0,0,-5,-6,-15,-9c0,0,-10,-3,-29,-5c0,0,-18,-2,-45,-2c0,0,-28,0,-46,2c0,0,-18,2,-29,5c0,0,-10,3,-15,9c0,0,-4,6,-4,13V405c0,0,0,49,-7,76c0,0,-7,28,-21,48c0,0,-13,19,-35,30c0,0,-21,11,-49,11c0,0,-36,0,-72,-26c0,0,-37,-26,-76,-76V25c0,0,0,-7,-5,-13c0,0,-4,-6,-15,-9c0,0,-11,-3,-29,-5c0,0,-18,-2,-45,-2Z" 
id="f1_af"
transform="scale(0.001,-0.001)" />

<path d="M380,142c0,0,19,0,37,5c0,0,19,6,38,19c0,0,19,12,39,33c0,0,20,20,44,50V470c0,0,-40,50,-77,77c0,0,-37,27,-77,27c0,0,-37,0,-63,-18c0,0,-27,-19,-43,-49c0,0,-16,-31,-24,-68c0,0,-8,-38,-8,-77c0,0,0,-42,7,-82c0,0,7,-39,22,-70c0,0,15,-31,41,-50c0,0,25,-18,64,-18ZM333,-17c0,0,-76,0,-129,29c0,0,-52,29,-85,79c0,0,-33,50,-48,117c0,0,-15,67,-15,141c0,0,0,89,19,160c0,0,19,71,55,121c0,0,37,50,91,76c0,0,55,27,125,27c0,0,56,0,102,-22c0,0,45,-23,90,-67v360c0,0,0,8,4,14c0,0,4,6,15,10c0,0,11,4,29,6c0,0,18,2,45,2c0,0,28,0,46,-2c0,0,18,-2,28,-6c0,0,11,-4,15,-10c0,0,5,-6,5,-14V25c0,0,0,-8,-4,-14c0,0,-4,-5,-13,-9c0,0,-9,-3,-24,-4c0,0,-15,-2,-38,-2c0,0,-24,0,-39,2c0,0,-15,1,-24,4c0,0,-9,4,-13,9c0,0,-5,6,-5,14V99C565,99,514,44,458,13c0,0,-57,-30,-125,-30Z" 
id="f1_7v"
transform="scale(0.001,-0.001)" />

<path d="M337,-4c0,0,-38,0,-60,2c0,0,-23,2,-36,5c0,0,-13,5,-19,13c0,0,-6,7,-9,19L37,638c0,0,-7,21,-9,34c0,0,-2,12,-2,20c0,0,0,8,4,13c0,0,4,6,15,9c0,0,11,4,29,5c0,0,19,2,46,2c0,0,30,0,49,-2c0,0,18,-1,29,-5c0,0,10,-4,14,-10c0,0,4,-7,7,-15L351,200l1,-9l2,9L478,689c0,0,2,8,7,15c0,0,4,6,14,10c0,0,10,4,27,5c0,0,18,2,45,2c0,0,28,0,45,-2c0,0,17,-2,27,-5c0,0,10,-4,14,-9c0,0,4,-6,7,-13L796,199l2,-8l2,9L926,689c0,0,2,8,6,15c0,0,5,6,15,10c0,0,11,4,29,5c0,0,18,2,45,2c0,0,28,0,46,-2c0,0,17,-1,27,-5c0,0,10,-3,14,-9c0,0,4,-5,4,-13c0,0,0,-8,-2,-20c0,0,-3,-12,-9,-34L924,35c0,0,-4,-12,-10,-20c0,0,-6,-8,-18,-12c0,0,-12,-4,-35,-5c0,0,-23,-2,-59,-2c0,0,-37,0,-60,2c0,0,-23,2,-36,5c0,0,-13,5,-19,13c0,0,-6,7,-9,19L566,440l-1,7l-2,-7L460,35c0,0,-3,-12,-8,-20c0,0,-6,-8,-19,-12c0,0,-14,-4,-37,-5c0,0,-23,-2,-59,-2Z" 
id="f1_ci"
transform="scale(0.001,-0.001)" />

<path d="M188,-4c0,0,-28,0,-46,2c0,0,-18,2,-28,5c0,0,-11,3,-16,9c0,0,-4,5,-4,13V691c0,0,0,7,4,13c0,0,3,5,13,9c0,0,10,4,25,6c0,0,15,2,38,2c0,0,24,0,40,-2c0,0,15,-2,24,-6c0,0,9,-4,12,-9c0,0,4,-6,4,-13V614c0,0,55,60,110,89c0,0,55,30,115,30c0,0,41,0,74,-8c0,0,33,-9,59,-25c0,0,26,-16,44,-38c0,0,19,-23,32,-50c0,0,30,32,58,55c0,0,29,23,57,38c0,0,28,14,56,21c0,0,28,7,57,7c0,0,66,0,112,-22c0,0,45,-22,73,-61c0,0,28,-38,40,-90c0,0,12,-51,12,-109V25c0,0,0,-8,-5,-13c0,0,-4,-6,-15,-9c0,0,-10,-3,-28,-5c0,0,-18,-2,-46,-2c0,0,-28,0,-46,2c0,0,-18,2,-29,5c0,0,-11,3,-15,9c0,0,-4,6,-4,13V420c0,0,0,34,-6,61c0,0,-7,28,-20,48c0,0,-13,19,-32,30c0,0,-20,11,-47,11c0,0,-34,0,-68,-26c0,0,-34,-26,-74,-76V25c0,0,0,-7,-5,-13c0,0,-4,-6,-15,-9c0,0,-11,-3,-29,-5c0,0,-18,-2,-45,-2c0,0,-27,0,-45,2c0,0,-18,2,-29,5c0,0,-11,3,-16,9c0,0,-4,6,-4,13V420c0,0,0,34,-6,61c0,0,-7,28,-19,48c0,0,-13,19,-33,30c0,0,-21,11,-48,11c0,0,-34,0,-68,-26c0,0,-35,-26,-74,-76V25c0,0,0,-7,-5,-13c0,0,-4,-6,-15,-9c0,0,-11,-3,-29,-5c0,0,-18,-2,-45,-2Z" 
id="f1_ae"
transform="scale(0.001,-0.001)" />

<path d="M433,142c0,0,37,0,62,18c0,0,26,19,42,49c0,0,17,30,25,68c0,0,7,38,7,76c0,0,0,43,-6,82c0,0,-7,40,-22,71c0,0,-16,30,-41,49c0,0,-25,18,-63,18c0,0,-19,0,-37,-5c0,0,-18,-5,-37,-18c0,0,-19,-13,-39,-33c0,0,-20,-20,-42,-50V246c0,0,39,-51,75,-78c0,0,37,-26,76,-26ZM477,-17c0,0,-33,0,-63,7c0,0,-29,6,-55,19c0,0,-27,14,-52,36c0,0,-26,22,-53,52V25c0,0,0,-8,-4,-14c0,0,-4,-5,-13,-9c0,0,-10,-3,-25,-4c0,0,-16,-2,-38,-2c0,0,-24,0,-39,2c0,0,-15,1,-24,4c0,0,-10,4,-13,9c0,0,-4,6,-4,14v981c0,0,0,8,4,14c0,0,5,6,16,10c0,0,10,4,28,6c0,0,18,2,46,2c0,0,27,0,45,-2c0,0,18,-2,29,-6c0,0,11,-4,15,-10c0,0,5,-6,5,-14V639c0,0,25,25,50,43c0,0,26,18,51,29c0,0,25,12,52,17c0,0,27,5,57,5c0,0,74,0,125,-29c0,0,52,-30,84,-80c0,0,33,-50,48,-116c0,0,15,-67,15,-141c0,0,0,-89,-20,-160c0,0,-19,-71,-56,-121C688,86,652,36,598,9c0,0,-53,-26,-121,-26Z" 
id="f1_7k"
transform="scale(0.001,-0.001)" />

<path d="M493,-17c0,0,-91,0,-163,22c0,0,-73,23,-122,69c0,0,-50,46,-77,116c0,0,-26,69,-26,161V939c0,0,0,7,4,13c0,0,5,6,16,10c0,0,12,3,30,6c0,0,19,2,48,2c0,0,29,0,47,-2c0,0,19,-3,30,-6c0,0,11,-4,16,-10c0,0,5,-6,5,-13V368c0,0,0,-57,14,-99c0,0,14,-42,41,-70c0,0,26,-28,63,-41c0,0,37,-14,83,-14c0,0,46,0,82,14c0,0,37,14,62,41c0,0,26,28,39,68c0,0,14,39,14,90V939c0,0,0,7,5,13c0,0,4,6,15,10c0,0,11,3,30,6c0,0,19,2,48,2c0,0,28,0,46,-2c0,0,18,-3,30,-6c0,0,11,-4,15,-10c0,0,5,-6,5,-13V359c0,0,0,-88,-26,-159c0,0,-26,-70,-77,-118C790,82,739,33,665,8c0,0,-75,-25,-172,-25Z" 
id="f1_2x"
transform="scale(0.001,-0.001)" />

<path d="M494,385V878L152,385ZM494,0V262H20V385l498,708H628V385H775V262H628V0Z" 
id="f2_o"
transform="scale(0.001,-0.001)" />


</defs>
</svg>