<?xml version="1.0" encoding="UTF-8" standalone="no"?>
<!DOCTYPE svg PUBLIC "-//W3C//DTD SVG 1.1//EN"
"http://www.w3.org/Graphics/SVG/1.1/DTD/svg11.dtd">
<svg viewBox="0 0 909 1286" version="1.1" xmlns="http://www.w3.org/2000/svg" xmlns:xlink="http://www.w3.org/1999/xlink">
<defs>
<style type="text/css"><![CDATA[
.g0_20{
fill: #FFFFFF;
}
.g1_20{
fill: #1F3331;
}
]]></style>
</defs>
<path fill-rule="evenodd" d="M80.3,385.8H857.2V55H80.3V385.8Z" class="g0_20" />
<path fill-rule="evenodd" d="M80.3,406.7H857.2V385.8H80.3v20.9Z" class="g0_20" />
<path fill-rule="evenodd" d="M52.8,1013H857.2V428H52.8v585Z" class="g0_20" />
<path fill-rule="evenodd" d="M52.8,1034.3H857.2V1013H52.8v21.3Z" class="g0_20" />
<path fill-rule="evenodd" d="M80.3,1076.5H857.2v-21.3H80.3v21.3Z" class="g0_20" />
<g fill="#1F3331" >
<use xlink:href="#f0_3d" transform="matrix(10.1,0,0,10.1,82.5,1072.4)" />
<use xlink:href="#f1_1k" transform="matrix(12,0,0,12,110,1072.4)" />
<use xlink:href="#f1_24" transform="matrix(12,0,0,12,121.4,1072.4)" />
<use xlink:href="#f1_21" transform="matrix(12,0,0,12,130.2,1072.4)" />
<use xlink:href="#f1_29" transform="matrix(12,0,0,12,144.1,1072.4)" />
<use xlink:href="#f1_25" transform="matrix(12,0,0,12,158,1072.4)" />
<use xlink:href="#f1_1z" transform="matrix(12,0,0,12,162.8,1072.4)" />
<use xlink:href="#f1_2e" transform="matrix(12,0,0,12,170.9,1072.4)" />
<use xlink:href="#f1_2b" transform="matrix(12,0,0,12,177.1,1072.4)" />
<use xlink:href="#f1_2f" transform="matrix(12,0,0,12,186.6,1072.4)" />
<use xlink:href="#f1_2c" transform="matrix(12,0,0,12,193.6,1072.4)" />
<use xlink:href="#f1_2b" transform="matrix(12,0,0,12,202.7,1072.4)" />
<use xlink:href="#f1_2e" transform="matrix(12,0,0,12,212.2,1072.4)" />
<use xlink:href="#f1_21" transform="matrix(12,0,0,12,218.5,1072.4)" />
<use xlink:href="#f1_2f" transform="matrix(12,0,0,12,226.5,1072.4)" />
<use xlink:href="#f1_1x" transform="matrix(12,0,0,12,239.2,1072.4)" />
<use xlink:href="#f1_2e" transform="matrix(12,0,0,12,247.2,1072.4)" />
<use xlink:href="#f1_21" transform="matrix(12,0,0,12,253.5,1072.4)" />
<use xlink:href="#f1_2f" transform="matrix(12,0,0,12,266.7,1072.4)" />
<use xlink:href="#f1_21" transform="matrix(12,0,0,12,273.6,1072.4)" />
<use xlink:href="#f1_2c" transform="matrix(12,0,0,12,281.7,1072.4)" />
<use xlink:href="#f1_1x" transform="matrix(12,0,0,12,290.9,1072.4)" />
<use xlink:href="#f1_2e" transform="matrix(12,0,0,12,298.9,1072.4)" />
<use xlink:href="#f1_1x" transform="matrix(12,0,0,12,305.2,1072.4)" />
<use xlink:href="#f1_2g" transform="matrix(12,0,0,12,313.2,1072.4)" />
<use xlink:href="#f1_21" transform="matrix(12,0,0,12,318.7,1072.4)" />
<use xlink:href="#f1_20" transform="matrix(12,0,0,12,326.9,1072.4)" />
<use xlink:href="#f1_22" transform="matrix(12,0,0,12,341.5,1072.4)" />
<use xlink:href="#f1_2e" transform="matrix(12,0,0,12,347,1072.4)" />
<use xlink:href="#f1_2b" transform="matrix(12,0,0,12,353.2,1072.4)" />
<use xlink:href="#f1_29" transform="matrix(12,0,0,12,362.7,1072.4)" />
<use xlink:href="#f1_2g" transform="matrix(12,0,0,12,381.8,1072.4)" />
<use xlink:href="#f1_24" transform="matrix(12,0,0,12,387.3,1072.4)" />
<use xlink:href="#f1_21" transform="matrix(12,0,0,12,396.1,1072.4)" />
<use xlink:href="#f1_2g" transform="matrix(12,0,0,12,409.6,1072.4)" />
<use xlink:href="#f1_21" transform="matrix(12,0,0,12,415.1,1072.4)" />
<use xlink:href="#f1_2g" transform="matrix(12,0,0,12,422.8,1072.4)" />
<use xlink:href="#f1_2e" transform="matrix(12,0,0,12,427.9,1072.4)" />
<use xlink:href="#f1_1x" transform="matrix(12,0,0,12,434.2,1072.4)" />
<use xlink:href="#f1_24" transform="matrix(12,0,0,12,442.2,1072.4)" />
<use xlink:href="#f1_21" transform="matrix(12,0,0,12,451,1072.4)" />
<use xlink:href="#f1_20" transform="matrix(12,0,0,12,459.1,1072.4)" />
<use xlink:href="#f1_2e" transform="matrix(12,0,0,12,468.3,1072.4)" />
<use xlink:href="#f1_1x" transform="matrix(12,0,0,12,474.5,1072.4)" />
<use xlink:href="#f1_28" transform="matrix(12,0,0,12,482.9,1072.4)" />
<use xlink:href="#f1_1x" transform="matrix(12,0,0,12,493.4,1072.4)" />
<use xlink:href="#f1_2e" transform="matrix(12,0,0,12,501.4,1072.4)" />
<use xlink:href="#f1_2e" transform="matrix(12,0,0,12,507.6,1072.4)" />
<use xlink:href="#f1_1x" transform="matrix(12,0,0,12,513.8,1072.4)" />
<use xlink:href="#f1_2a" transform="matrix(12,0,0,12,521.9,1072.4)" />
<use xlink:href="#f1_23" transform="matrix(12,0,0,12,530.7,1072.4)" />
<use xlink:href="#f1_21" transform="matrix(12,0,0,12,539.9,1072.4)" />
<use xlink:href="#f1_29" transform="matrix(12,0,0,12,548.3,1072.4)" />
<use xlink:href="#f1_21" transform="matrix(12,0,0,12,562.2,1072.4)" />
<use xlink:href="#f1_2a" transform="matrix(12,0,0,12,570.6,1072.4)" />
<use xlink:href="#f1_2g" transform="matrix(12,0,0,12,579.4,1072.4)" />
<use xlink:href="#f1_i" transform="matrix(12,0,0,12,585,1072.4)" />
<use xlink:href="#f1_1k" transform="matrix(12,0,0,12,595.3,1072.4)" />
<use xlink:href="#f1_24" transform="matrix(12,0,0,12,606.6,1072.4)" />
<use xlink:href="#f1_21" transform="matrix(12,0,0,12,615.4,1072.4)" />
<use xlink:href="#f1_2l" transform="matrix(12,0,0,12,623.8,1072.4)" />
<use xlink:href="#f1_1x" transform="matrix(12,0,0,12,637.8,1072.4)" />
<use xlink:href="#f1_2e" transform="matrix(12,0,0,12,645.8,1072.4)" />
<use xlink:href="#f1_21" transform="matrix(12,0,0,12,652,1072.4)" />
<use xlink:href="#f1_2g" transform="matrix(12,0,0,12,665.6,1072.4)" />
<use xlink:href="#f1_24" transform="matrix(12,0,0,12,671.1,1072.4)" />
<use xlink:href="#f1_21" transform="matrix(12,0,0,12,679.9,1072.4)" />
<use xlink:href="#f1_2a" transform="matrix(12,0,0,12,687.9,1072.4)" />
<use xlink:href="#f1_2f" transform="matrix(12,0,0,12,702.5,1072.4)" />
<use xlink:href="#f1_2h" transform="matrix(12,0,0,12,709.4,1072.4)" />
<use xlink:href="#f1_2e" transform="matrix(12,0,0,12,718.6,1072.4)" />
<use xlink:href="#f1_2e" transform="matrix(12,0,0,12,724.8,1072.4)" />
<use xlink:href="#f1_2b" transform="matrix(12,0,0,12,731,1072.4)" />
<use xlink:href="#f1_2h" transform="matrix(12,0,0,12,740.5,1072.4)" />
<use xlink:href="#f1_2a" transform="matrix(12,0,0,12,749.7,1072.4)" />
<use xlink:href="#f1_20" transform="matrix(12,0,0,12,758.5,1072.4)" />
<use xlink:href="#f1_21" transform="matrix(12,0,0,12,767.7,1072.4)" />
<use xlink:href="#f1_20" transform="matrix(12,0,0,12,775.7,1072.4)" />
<use xlink:href="#f1_1y" transform="matrix(12,0,0,12,790.4,1072.4)" />
<use xlink:href="#f1_2l" transform="matrix(12,0,0,12,799.6,1072.4)" />
<use xlink:href="#f1_1x" transform="matrix(12,0,0,12,813.5,1072.4)" />
<use xlink:href="#f1_2g" transform="matrix(12,0,0,12,827,1072.4)" />
<use xlink:href="#f1_2j" transform="matrix(12,0,0,12,832.5,1072.4)" />
<use xlink:href="#f1_2b" transform="matrix(12,0,0,12,845.7,1072.4)" />
</g>
<path fill-rule="evenodd" d="M80.3,1097.7H857.2v-21.2H80.3v21.2Z" class="g0_20" />
<g fill="#1F3331" >
<use xlink:href="#f1_28" transform="matrix(12,0,0,12,110,1093.3)" />
<use xlink:href="#f1_1x" transform="matrix(12,0,0,12,114.8,1093.3)" />
<use xlink:href="#f1_2l" transform="matrix(12,0,0,12,123.2,1093.3)" />
<use xlink:href="#f1_21" transform="matrix(12,0,0,12,132,1093.3)" />
<use xlink:href="#f1_2e" transform="matrix(12,0,0,12,140.1,1093.3)" />
<use xlink:href="#f1_21" transform="matrix(12,0,0,12,146.3,1093.3)" />
<use xlink:href="#f1_20" transform="matrix(12,0,0,12,154.4,1093.3)" />
<use xlink:href="#f1_2j" transform="matrix(12,0,0,12,168.3,1093.3)" />
<use xlink:href="#f1_1x" transform="matrix(12,0,0,12,181.5,1093.3)" />
<use xlink:href="#f1_28" transform="matrix(12,0,0,12,189.9,1093.3)" />
<use xlink:href="#f1_28" transform="matrix(12,0,0,12,195,1093.3)" />
<use xlink:href="#f1_i" transform="matrix(12,0,0,12,199.4,1093.3)" />
<use xlink:href="#f1_1k" transform="matrix(12,0,0,12,208.9,1093.3)" />
<use xlink:href="#f1_24" transform="matrix(12,0,0,12,220.3,1093.3)" />
<use xlink:href="#f1_21" transform="matrix(12,0,0,12,229.1,1093.3)" />
<use xlink:href="#f1_2b" transform="matrix(12,0,0,12,242.1,1093.3)" />
<use xlink:href="#f1_2h" transform="matrix(12,0,0,12,251.6,1093.3)" />
<use xlink:href="#f1_2g" transform="matrix(12,0,0,12,260.8,1093.3)" />
<use xlink:href="#f1_21" transform="matrix(12,0,0,12,266.3,1093.3)" />
<use xlink:href="#f1_2e" transform="matrix(12,0,0,12,274.3,1093.3)" />
<use xlink:href="#f1_2j" transform="matrix(12,0,0,12,285,1093.3)" />
<use xlink:href="#f1_1x" transform="matrix(12,0,0,12,298.2,1093.3)" />
<use xlink:href="#f1_28" transform="matrix(12,0,0,12,306.3,1093.3)" />
<use xlink:href="#f1_28" transform="matrix(12,0,0,12,311,1093.3)" />
<use xlink:href="#f1_25" transform="matrix(12,0,0,12,320.9,1093.3)" />
<use xlink:href="#f1_2f" transform="matrix(12,0,0,12,325.7,1093.3)" />
<use xlink:href="#f1_1z" transform="matrix(12,0,0,12,337.4,1093.3)" />
<use xlink:href="#f1_1x" transform="matrix(12,0,0,12,345.5,1093.3)" />
<use xlink:href="#f1_28" transform="matrix(12,0,0,12,353.9,1093.3)" />
<use xlink:href="#f1_28" transform="matrix(12,0,0,12,359,1093.3)" />
<use xlink:href="#f1_21" transform="matrix(12,0,0,12,363.8,1093.3)" />
<use xlink:href="#f1_20" transform="matrix(12,0,0,12,371.9,1093.3)" />
<use xlink:href="#f1_1x" transform="matrix(12,0,0,12,385.8,1093.3)" />
<use xlink:href="#f1_2f" transform="matrix(12,0,0,12,393.8,1093.3)" />
<use xlink:href="#f1_2g" transform="matrix(12,0,0,12,405.5,1093.3)" />
<use xlink:href="#f1_24" transform="matrix(12,0,0,12,411,1093.3)" />
<use xlink:href="#f1_21" transform="matrix(12,0,0,12,419.8,1093.3)" />
<use xlink:href="#f2_21" transform="matrix(12,0,0,12,432.9,1093.3)" />
<use xlink:href="#f2_2k" transform="matrix(12,0,0,12,440.9,1093.3)" />
<use xlink:href="#f2_25" transform="matrix(12,0,0,12,449.7,1093.3)" />
<use xlink:href="#f2_2a" transform="matrix(12,0,0,12,454.8,1093.3)" />
<use xlink:href="#f2_21" transform="matrix(12,0,0,12,465.1,1093.3)" />
<use xlink:href="#f1_1x" transform="matrix(12,0,0,12,478.3,1093.3)" />
<use xlink:href="#f1_2a" transform="matrix(12,0,0,12,486.4,1093.3)" />
<use xlink:href="#f1_20" transform="matrix(12,0,0,12,495.2,1093.3)" />
<use xlink:href="#f1_25" transform="matrix(12,0,0,12,509.5,1093.3)" />
<use xlink:href="#f1_2a" transform="matrix(12,0,0,12,514.2,1093.3)" />
<use xlink:href="#f1_2a" transform="matrix(12,0,0,12,523.4,1093.3)" />
<use xlink:href="#f1_21" transform="matrix(12,0,0,12,532.6,1093.3)" />
<use xlink:href="#f1_2e" transform="matrix(12,0,0,12,540.6,1093.3)" />
<use xlink:href="#f1_2j" transform="matrix(12,0,0,12,551.7,1093.3)" />
<use xlink:href="#f1_1x" transform="matrix(12,0,0,12,564.9,1093.3)" />
<use xlink:href="#f1_28" transform="matrix(12,0,0,12,573.3,1093.3)" />
<use xlink:href="#f1_28" transform="matrix(12,0,0,12,578.1,1093.3)" />
<use xlink:href="#f1_25" transform="matrix(12,0,0,12,587.6,1093.3)" />
<use xlink:href="#f1_2f" transform="matrix(12,0,0,12,592.3,1093.3)" />
<use xlink:href="#f1_1z" transform="matrix(12,0,0,12,604.1,1093.3)" />
<use xlink:href="#f1_1x" transform="matrix(12,0,0,12,612.5,1093.3)" />
<use xlink:href="#f1_28" transform="matrix(12,0,0,12,620.9,1093.3)" />
<use xlink:href="#f1_28" transform="matrix(12,0,0,12,625.7,1093.3)" />
<use xlink:href="#f1_21" transform="matrix(12,0,0,12,630.4,1093.3)" />
<use xlink:href="#f1_20" transform="matrix(12,0,0,12,638.8,1093.3)" />
<use xlink:href="#f1_1x" transform="matrix(12,0,0,12,652.8,1093.3)" />
<use xlink:href="#f1_2f" transform="matrix(12,0,0,12,660.8,1093.3)" />
<use xlink:href="#f1_2g" transform="matrix(12,0,0,12,672.5,1093.3)" />
<use xlink:href="#f1_24" transform="matrix(12,0,0,12,678,1093.3)" />
<use xlink:href="#f1_21" transform="matrix(12,0,0,12,686.8,1093.3)" />
<use xlink:href="#f2_25" transform="matrix(12,0,0,12,699.9,1093.3)" />
<use xlink:href="#f2_2a" transform="matrix(12,0,0,12,705,1093.3)" />
<use xlink:href="#f2_2g" transform="matrix(12,0,0,12,715.3,1093.3)" />
<use xlink:href="#f2_25" transform="matrix(12,0,0,12,721.5,1093.3)" />
<use xlink:href="#f2_2a" transform="matrix(12,0,0,12,726.6,1093.3)" />
<use xlink:href="#f2_21" transform="matrix(12,0,0,12,736.9,1093.3)" />
<use xlink:href="#f1_i" transform="matrix(12,0,0,12,745,1093.3)" />
</g>
<path fill-rule="evenodd" d="M242.1,1096.3H745v-1.1H242.1v1.1Z" class="g1_20" />
<path fill-rule="evenodd" d="M80.3,1118.6H857.2v-20.9H80.3v20.9Z" class="g0_20" />
<g fill="#1F3331" >
<use xlink:href="#f0_3d" transform="matrix(10.1,0,0,10.1,82.5,1114.6)" />
<use xlink:href="#f2_1k" transform="matrix(12,0,0,12,110,1114.6)" />
<use xlink:href="#f2_24" transform="matrix(12,0,0,12,122.1,1114.6)" />
<use xlink:href="#f2_21" transform="matrix(12,0,0,12,132.4,1114.6)" />
<use xlink:href="#f2_2c" transform="matrix(12,0,0,12,145.2,1114.6)" />
<use xlink:href="#f2_2b" transform="matrix(12,0,0,12,155.4,1114.6)" />
<use xlink:href="#f2_28" transform="matrix(12,0,0,12,164.6,1114.6)" />
<use xlink:href="#f2_28" transform="matrix(12,0,0,12,169.4,1114.6)" />
<use xlink:href="#f2_21" transform="matrix(12,0,0,12,174.5,1114.6)" />
<use xlink:href="#f2_2a" transform="matrix(12,0,0,12,182.6,1114.6)" />
<use xlink:href="#f2_23" transform="matrix(12,0,0,12,197.6,1114.6)" />
<use xlink:href="#f2_2e" transform="matrix(12,0,0,12,206.8,1114.6)" />
<use xlink:href="#f2_1x" transform="matrix(12,0,0,12,214.5,1114.6)" />
<use xlink:href="#f2_25" transform="matrix(12,0,0,12,223.6,1114.6)" />
<use xlink:href="#f2_2a" transform="matrix(12,0,0,12,228.7,1114.6)" />
<use xlink:href="#f2_2f" transform="matrix(12,0,0,12,239,1114.6)" />
<use xlink:href="#f2_1x" transform="matrix(12,0,0,12,250.7,1114.6)" />
<use xlink:href="#f2_2e" transform="matrix(12,0,0,12,260.2,1114.6)" />
<use xlink:href="#f2_21" transform="matrix(12,0,0,12,267.9,1114.6)" />
<use xlink:href="#f2_2g" transform="matrix(12,0,0,12,280.8,1114.6)" />
<use xlink:href="#f2_24" transform="matrix(12,0,0,12,287,1114.6)" />
<use xlink:href="#f2_21" transform="matrix(12,0,0,12,297.2,1114.6)" />
<use xlink:href="#f2_22" transform="matrix(12,0,0,12,310,1114.6)" />
<use xlink:href="#f2_25" transform="matrix(12,0,0,12,315.9,1114.6)" />
<use xlink:href="#f2_2e" transform="matrix(12,0,0,12,321,1114.6)" />
<use xlink:href="#f2_2f" transform="matrix(12,0,0,12,329.1,1114.6)" />
<use xlink:href="#f2_2g" transform="matrix(12,0,0,12,336.1,1114.6)" />
<use xlink:href="#f2_1z" transform="matrix(12,0,0,12,347,1114.6)" />
<use xlink:href="#f2_21" transform="matrix(12,0,0,12,355.1,1114.6)" />
<use xlink:href="#f2_28" transform="matrix(12,0,0,12,363.2,1114.6)" />
<use xlink:href="#f2_28" transform="matrix(12,0,0,12,368.3,1114.6)" />
<use xlink:href="#f2_2f" transform="matrix(12,0,0,12,373.4,1114.6)" />
<use xlink:href="#f2_2b" transform="matrix(12,0,0,12,385.1,1114.6)" />
<use xlink:href="#f2_22" transform="matrix(12,0,0,12,394.3,1114.6)" />
<use xlink:href="#f2_2g" transform="matrix(12,0,0,12,404.9,1114.6)" />
<use xlink:href="#f2_24" transform="matrix(12,0,0,12,411.1,1114.6)" />
<use xlink:href="#f2_21" transform="matrix(12,0,0,12,421.4,1114.6)" />
<use xlink:href="#f2_29" transform="matrix(12,0,0,12,434.2,1114.6)" />
<use xlink:href="#f2_1x" transform="matrix(12,0,0,12,449.2,1114.6)" />
<use xlink:href="#f2_28" transform="matrix(12,0,0,12,458.4,1114.6)" />
<use xlink:href="#f2_21" transform="matrix(12,0,0,12,463.2,1114.6)" />
<use xlink:href="#f2_23" transform="matrix(12,0,0,12,476.3,1114.6)" />
<use xlink:href="#f2_1x" transform="matrix(12,0,0,12,485.5,1114.6)" />
<use xlink:href="#f2_29" transform="matrix(12,0,0,12,494.7,1114.6)" />
<use xlink:href="#f2_21" transform="matrix(12,0,0,12,509.7,1114.6)" />
<use xlink:href="#f2_2g" transform="matrix(12,0,0,12,517.8,1114.6)" />
<use xlink:href="#f2_2b" transform="matrix(12,0,0,12,524,1114.6)" />
<use xlink:href="#f2_2c" transform="matrix(12,0,0,12,533.2,1114.6)" />
<use xlink:href="#f2_24" transform="matrix(12,0,0,12,543.4,1114.6)" />
<use xlink:href="#f2_2l" transform="matrix(12,0,0,12,553.6,1114.6)" />
<use xlink:href="#f2_2g" transform="matrix(12,0,0,12,562.8,1114.6)" />
<use xlink:href="#f2_21" transform="matrix(12,0,0,12,569,1114.6)" />
<use xlink:href="#f2_i" transform="matrix(12,0,0,12,577.7,1114.6)" />
</g>
<path fill-rule="evenodd" d="M110,1118.3H577.7v-1.9H110v1.9Z" class="g1_20" />
<path fill-rule="evenodd" d="M80.3,1139.9H857.2v-21.3H80.3v21.3Z" class="g0_20" />
<g fill="#1F3331" >
<use xlink:href="#f0_3d" transform="matrix(10.1,0,0,10.1,82.5,1135.5)" />
<use xlink:href="#f1_1k" transform="matrix(12,0,0,12,110,1135.5)" />
<use xlink:href="#f1_24" transform="matrix(12,0,0,12,121.4,1135.5)" />
<use xlink:href="#f1_21" transform="matrix(12,0,0,12,130.2,1135.5)" />
<use xlink:href="#f1_2g" transform="matrix(12,0,0,12,142.3,1135.5)" />
<use xlink:href="#f1_1x" transform="matrix(12,0,0,12,147.8,1135.5)" />
<use xlink:href="#f1_2c" transform="matrix(12,0,0,12,155.8,1135.5)" />
<use xlink:href="#f1_21" transform="matrix(12,0,0,12,165,1135.5)" />
<use xlink:href="#f1_2g" transform="matrix(12,0,0,12,172.7,1135.5)" />
<use xlink:href="#f1_2h" transform="matrix(12,0,0,12,178.2,1135.5)" />
<use xlink:href="#f1_29" transform="matrix(12,0,0,12,187.3,1135.5)" />
<use xlink:href="#f1_23" transform="matrix(12,0,0,12,204.9,1135.5)" />
<use xlink:href="#f1_21" transform="matrix(12,0,0,12,214.1,1135.5)" />
<use xlink:href="#f1_2g" transform="matrix(12,0,0,12,222.2,1135.5)" />
<use xlink:href="#f1_2f" transform="matrix(12,0,0,12,227.8,1135.5)" />
<use xlink:href="#f1_2h" transform="matrix(12,0,0,12,238.8,1135.5)" />
<use xlink:href="#f1_2f" transform="matrix(12,0,0,12,248,1135.5)" />
<use xlink:href="#f1_21" transform="matrix(12,0,0,12,254.9,1135.5)" />
<use xlink:href="#f1_20" transform="matrix(12,0,0,12,263,1135.5)" />
<use xlink:href="#f1_2h" transform="matrix(12,0,0,12,276.2,1135.5)" />
<use xlink:href="#f1_2c" transform="matrix(12,0,0,12,285.4,1135.5)" />
<use xlink:href="#f1_1x" transform="matrix(12,0,0,12,298.6,1135.5)" />
<use xlink:href="#f1_2a" transform="matrix(12,0,0,12,306.6,1135.5)" />
<use xlink:href="#f1_20" transform="matrix(12,0,0,12,315.4,1135.5)" />
<use xlink:href="#f1_2g" transform="matrix(12,0,0,12,328.7,1135.5)" />
<use xlink:href="#f1_24" transform="matrix(12,0,0,12,334.2,1135.5)" />
<use xlink:href="#f1_21" transform="matrix(12,0,0,12,343,1135.5)" />
<use xlink:href="#f1_1x" transform="matrix(12,0,0,12,355.1,1135.5)" />
<use xlink:href="#f1_2a" transform="matrix(12,0,0,12,363.1,1135.5)" />
<use xlink:href="#f1_2g" transform="matrix(12,0,0,12,371.9,1135.5)" />
<use xlink:href="#f1_24" transform="matrix(12,0,0,12,377.4,1135.5)" />
<use xlink:href="#f1_21" transform="matrix(12,0,0,12,386.2,1135.5)" />
<use xlink:href="#f1_2e" transform="matrix(12,0,0,12,394.3,1135.5)" />
<use xlink:href="#f1_1y" transform="matrix(12,0,0,12,404.5,1135.5)" />
<use xlink:href="#f1_21" transform="matrix(12,0,0,12,413.7,1135.5)" />
<use xlink:href="#f1_1z" transform="matrix(12,0,0,12,421.8,1135.5)" />
<use xlink:href="#f1_2b" transform="matrix(12,0,0,12,429.8,1135.5)" />
<use xlink:href="#f1_29" transform="matrix(12,0,0,12,439.7,1135.5)" />
<use xlink:href="#f1_21" transform="matrix(12,0,0,12,453.3,1135.5)" />
<use xlink:href="#f1_2f" transform="matrix(12,0,0,12,461.3,1135.5)" />
<use xlink:href="#f1_20" transform="matrix(12,0,0,12,472.3,1135.5)" />
<use xlink:href="#f1_2e" transform="matrix(12,0,0,12,481.9,1135.5)" />
<use xlink:href="#f1_2l" transform="matrix(12,0,0,12,488.4,1135.5)" />
<use xlink:href="#f1_2f" transform="matrix(12,0,0,12,500.9,1135.5)" />
<use xlink:href="#f1_2g" transform="matrix(12,0,0,12,507.9,1135.5)" />
<use xlink:href="#f1_2e" transform="matrix(12,0,0,12,513.4,1135.5)" />
<use xlink:href="#f1_2h" transform="matrix(12,0,0,12,519.6,1135.5)" />
<use xlink:href="#f1_1z" transform="matrix(12,0,0,12,528.7,1135.5)" />
<use xlink:href="#f1_2g" transform="matrix(12,0,0,12,536.4,1135.5)" />
<use xlink:href="#f1_2h" transform="matrix(12,0,0,12,541.9,1135.5)" />
<use xlink:href="#f1_2e" transform="matrix(12,0,0,12,551.1,1135.5)" />
<use xlink:href="#f1_21" transform="matrix(12,0,0,12,557.3,1135.5)" />
<use xlink:href="#f1_i" transform="matrix(12,0,0,12,565.6,1135.5)" />
<use xlink:href="#f1_1k" transform="matrix(12,0,0,12,574,1135.5)" />
<use xlink:href="#f1_24" transform="matrix(12,0,0,12,585.4,1135.5)" />
<use xlink:href="#f1_25" transform="matrix(12,0,0,12,594.6,1135.5)" />
<use xlink:href="#f1_2f" transform="matrix(12,0,0,12,599,1135.5)" />
<use xlink:href="#f1_28" transform="matrix(12,0,0,12,610.3,1135.5)" />
<use xlink:href="#f1_25" transform="matrix(12,0,0,12,615.1,1135.5)" />
<use xlink:href="#f1_1y" transform="matrix(12,0,0,12,619.9,1135.5)" />
<use xlink:href="#f1_21" transform="matrix(12,0,0,12,629,1135.5)" />
<use xlink:href="#f1_2e" transform="matrix(12,0,0,12,637.1,1135.5)" />
<use xlink:href="#f1_1x" transform="matrix(12,0,0,12,643.3,1135.5)" />
<use xlink:href="#f1_2g" transform="matrix(12,0,0,12,651.4,1135.5)" />
<use xlink:href="#f1_21" transform="matrix(12,0,0,12,656.9,1135.5)" />
<use xlink:href="#f1_2f" transform="matrix(12,0,0,12,664.9,1135.5)" />
<use xlink:href="#f1_2g" transform="matrix(12,0,0,12,675.9,1135.5)" />
<use xlink:href="#f1_24" transform="matrix(12,0,0,12,681.4,1135.5)" />
<use xlink:href="#f1_21" transform="matrix(12,0,0,12,690.2,1135.5)" />
<use xlink:href="#f1_2c" transform="matrix(12,0,0,12,702.5,1135.5)" />
<use xlink:href="#f1_2b" transform="matrix(12,0,0,12,711.6,1135.5)" />
<use xlink:href="#f1_28" transform="matrix(12,0,0,12,721.1,1135.5)" />
<use xlink:href="#f1_28" transform="matrix(12,0,0,12,725.9,1135.5)" />
<use xlink:href="#f1_21" transform="matrix(12,0,0,12,730.7,1135.5)" />
<use xlink:href="#f1_2a" transform="matrix(12,0,0,12,739.1,1135.5)" />
<use xlink:href="#f1_1y" transform="matrix(12,0,0,12,752.3,1135.5)" />
<use xlink:href="#f1_2l" transform="matrix(12,0,0,12,761.5,1135.5)" />
<use xlink:href="#f1_20" transform="matrix(12,0,0,12,773.9,1135.5)" />
<use xlink:href="#f1_21" transform="matrix(12,0,0,12,783.1,1135.5)" />
<use xlink:href="#f1_24" transform="matrix(12,0,0,12,791.5,1135.5)" />
<use xlink:href="#f1_25" transform="matrix(12,0,0,12,800.7,1135.5)" />
<use xlink:href="#f1_2f" transform="matrix(12,0,0,12,805.4,1135.5)" />
<use xlink:href="#f1_1z" transform="matrix(12,0,0,12,812.8,1135.5)" />
<use xlink:href="#f1_21" transform="matrix(12,0,0,12,820.8,1135.5)" />
<use xlink:href="#f1_2a" transform="matrix(12,0,0,12,829.2,1135.5)" />
<use xlink:href="#f1_1z" transform="matrix(12,0,0,12,838,1135.5)" />
<use xlink:href="#f1_21" transform="matrix(12,0,0,12,846.1,1135.5)" />
</g>
<path fill-rule="evenodd" d="M80.3,1160.8H857.2v-20.9H80.3v20.9Z" class="g0_20" />
<g fill="#1F3331" >
<use xlink:href="#f1_2b" transform="matrix(12,0,0,12,110,1156.8)" />
<use xlink:href="#f1_22" transform="matrix(12,0,0,12,119.6,1156.8)" />
<use xlink:href="#f1_2g" transform="matrix(12,0,0,12,129.8,1156.8)" />
<use xlink:href="#f1_24" transform="matrix(12,0,0,12,135.3,1156.8)" />
<use xlink:href="#f1_21" transform="matrix(12,0,0,12,144.1,1156.8)" />
<use xlink:href="#f1_1x" transform="matrix(12,0,0,12,156.9,1156.8)" />
<use xlink:href="#f1_2a" transform="matrix(12,0,0,12,165,1156.8)" />
<use xlink:href="#f1_2g" transform="matrix(12,0,0,12,173.8,1156.8)" />
<use xlink:href="#f1_24" transform="matrix(12,0,0,12,179.2,1156.8)" />
<use xlink:href="#f1_21" transform="matrix(12,0,0,12,188,1156.8)" />
<use xlink:href="#f1_2e" transform="matrix(12,0,0,12,196.1,1156.8)" />
<use xlink:href="#f1_i" transform="matrix(12,0,0,12,202.3,1156.8)" />
</g>
<path fill-rule="evenodd" d="M80.3,1182.1H857.2v-21.3H80.3v21.3Z" class="g0_20" />
<g fill="#1F3331" >
<use xlink:href="#f0_3d" transform="matrix(10.1,0,0,10.1,82.5,1177.7)" />
<use xlink:href="#f1_11" transform="matrix(12,0,0,12,110,1177.7)" />
<use xlink:href="#f1_28" transform="matrix(12,0,0,12,123.2,1177.7)" />
<use xlink:href="#f1_28" transform="matrix(12,0,0,12,128.3,1177.7)" />
<use xlink:href="#f1_2g" transform="matrix(12,0,0,12,137.5,1177.7)" />
<use xlink:href="#f1_24" transform="matrix(12,0,0,12,143,1177.7)" />
<use xlink:href="#f1_21" transform="matrix(12,0,0,12,151.8,1177.7)" />
<use xlink:href="#f1_22" transform="matrix(12,0,0,12,165,1177.7)" />
<use xlink:href="#f1_2b" transform="matrix(12,0,0,12,170.5,1177.7)" />
<use xlink:href="#f1_2h" transform="matrix(12,0,0,12,180,1177.7)" />
<use xlink:href="#f1_2e" transform="matrix(12,0,0,12,189.2,1177.7)" />
<use xlink:href="#f1_2a" transform="matrix(12,0,0,12,200.3,1177.7)" />
<use xlink:href="#f1_2h" transform="matrix(12,0,0,12,209.1,1177.7)" />
<use xlink:href="#f1_1z" transform="matrix(12,0,0,12,218.2,1177.7)" />
<use xlink:href="#f1_28" transform="matrix(12,0,0,12,226.7,1177.7)" />
<use xlink:href="#f1_21" transform="matrix(12,0,0,12,231.4,1177.7)" />
<use xlink:href="#f1_25" transform="matrix(12,0,0,12,239.8,1177.7)" />
<use xlink:href="#f1_25" transform="matrix(12,0,0,12,249.4,1177.7)" />
<use xlink:href="#f1_2a" transform="matrix(12,0,0,12,254.1,1177.7)" />
<use xlink:href="#f1_1x" transform="matrix(12,0,0,12,268,1177.7)" />
<use xlink:href="#f1_2g" transform="matrix(12,0,0,12,280.9,1177.7)" />
<use xlink:href="#f1_21" transform="matrix(12,0,0,12,286.3,1177.7)" />
<use xlink:href="#f1_2g" transform="matrix(12,0,0,12,294,1177.7)" />
<use xlink:href="#f1_2e" transform="matrix(12,0,0,12,299.5,1177.7)" />
<use xlink:href="#f1_1x" transform="matrix(12,0,0,12,305.7,1177.7)" />
<use xlink:href="#f1_20" transform="matrix(12,0,0,12,313.8,1177.7)" />
<use xlink:href="#f1_2e" transform="matrix(12,0,0,12,327.6,1177.7)" />
<use xlink:href="#f1_21" transform="matrix(12,0,0,12,333.8,1177.7)" />
<use xlink:href="#f1_29" transform="matrix(12,0,0,12,341.9,1177.7)" />
<use xlink:href="#f1_1x" transform="matrix(12,0,0,12,355.8,1177.7)" />
<use xlink:href="#f1_25" transform="matrix(12,0,0,12,364.2,1177.7)" />
<use xlink:href="#f1_2a" transform="matrix(12,0,0,12,369,1177.7)" />
<use xlink:href="#f1_22" transform="matrix(12,0,0,12,382.9,1177.7)" />
<use xlink:href="#f1_2h" transform="matrix(12,0,0,12,388.8,1177.7)" />
<use xlink:href="#f1_2a" transform="matrix(12,0,0,12,398.3,1177.7)" />
<use xlink:href="#f1_1z" transform="matrix(12,0,0,12,407.1,1177.7)" />
<use xlink:href="#f1_2g" transform="matrix(12,0,0,12,415.1,1177.7)" />
<use xlink:href="#f1_25" transform="matrix(12,0,0,12,421,1177.7)" />
<use xlink:href="#f1_2b" transform="matrix(12,0,0,12,425.4,1177.7)" />
<use xlink:href="#f1_2a" transform="matrix(12,0,0,12,434.9,1177.7)" />
<use xlink:href="#f1_1x" transform="matrix(12,0,0,12,443.7,1177.7)" />
<use xlink:href="#f1_28" transform="matrix(12,0,0,12,452.1,1177.7)" />
<use xlink:href="#f1_2g" transform="matrix(12,0,0,12,461.5,1177.7)" />
<use xlink:href="#f1_2b" transform="matrix(12,0,0,12,466.9,1177.7)" />
<use xlink:href="#f1_22" transform="matrix(12,0,0,12,480.8,1177.7)" />
<use xlink:href="#f1_2b" transform="matrix(12,0,0,12,486.3,1177.7)" />
<use xlink:href="#f1_2e" transform="matrix(12,0,0,12,495.9,1177.7)" />
<use xlink:href="#f1_29" transform="matrix(12,0,0,12,502.4,1177.7)" />
<use xlink:href="#f1_22" transform="matrix(12,0,0,12,521.1,1177.7)" />
<use xlink:href="#f1_2b" transform="matrix(12,0,0,12,526.6,1177.7)" />
<use xlink:href="#f1_2h" transform="matrix(12,0,0,12,536.1,1177.7)" />
<use xlink:href="#f1_2e" transform="matrix(12,0,0,12,545.3,1177.7)" />
<use xlink:href="#f1_29" transform="matrix(12,0,0,12,556.3,1177.7)" />
<use xlink:href="#f1_25" transform="matrix(12,0,0,12,570.2,1177.7)" />
<use xlink:href="#f1_1z" transform="matrix(12,0,0,12,575,1177.7)" />
<use xlink:href="#f1_2e" transform="matrix(12,0,0,12,583,1177.7)" />
<use xlink:href="#f1_2b" transform="matrix(12,0,0,12,589.3,1177.7)" />
<use xlink:href="#f1_2f" transform="matrix(12,0,0,12,598.8,1177.7)" />
<use xlink:href="#f1_2c" transform="matrix(12,0,0,12,605.7,1177.7)" />
<use xlink:href="#f1_2b" transform="matrix(12,0,0,12,614.9,1177.7)" />
<use xlink:href="#f1_2e" transform="matrix(12,0,0,12,624.4,1177.7)" />
<use xlink:href="#f1_21" transform="matrix(12,0,0,12,630.6,1177.7)" />
<use xlink:href="#f1_2f" transform="matrix(12,0,0,12,638.7,1177.7)" />
<use xlink:href="#f1_i" transform="matrix(12,0,0,12,645.7,1177.7)" />
</g>
<path fill-rule="evenodd" d="M80.3,1203H857.2v-20.9H80.3V1203Z" class="g0_20" />
<g fill="#1F3331" >
<use xlink:href="#f0_3d" transform="matrix(10.1,0,0,10.1,82.5,1199)" />
<use xlink:href="#f1_19" transform="matrix(12,0,0,12,110,1199)" />
<use xlink:href="#f1_2a" transform="matrix(12,0,0,12,116.3,1199)" />
<use xlink:href="#f1_2f" transform="matrix(12,0,0,12,132.4,1199)" />
<use xlink:href="#f1_2b" transform="matrix(12,0,0,12,139.3,1199)" />
<use xlink:href="#f1_29" transform="matrix(12,0,0,12,149.2,1199)" />
<use xlink:href="#f1_21" transform="matrix(12,0,0,12,162.8,1199)" />
<use xlink:href="#f1_1z" transform="matrix(12,0,0,12,178.2,1199)" />
<use xlink:href="#f1_1x" transform="matrix(12,0,0,12,186.2,1199)" />
<use xlink:href="#f1_2f" transform="matrix(12,0,0,12,194.6,1199)" />
<use xlink:href="#f1_21" transform="matrix(12,0,0,12,201.6,1199)" />
<use xlink:href="#f1_2f" transform="matrix(12,0,0,12,210,1199)" />
<use xlink:href="#f1_g" transform="matrix(12,0,0,12,217,1199)" />
<use xlink:href="#f1_1x" transform="matrix(12,0,0,12,229.1,1199)" />
<use xlink:href="#f1_28" transform="matrix(12,0,0,12,237.5,1199)" />
<use xlink:href="#f1_28" transform="matrix(12,0,0,12,242.2,1199)" />
<use xlink:href="#f1_2g" transform="matrix(12,0,0,12,254.3,1199)" />
<use xlink:href="#f1_24" transform="matrix(12,0,0,12,259.8,1199)" />
<use xlink:href="#f1_21" transform="matrix(12,0,0,12,268.6,1199)" />
<use xlink:href="#f1_22" transform="matrix(12,0,0,12,284.3,1199)" />
<use xlink:href="#f1_2b" transform="matrix(12,0,0,12,289.8,1199)" />
<use xlink:href="#f1_2h" transform="matrix(12,0,0,12,299.4,1199)" />
<use xlink:href="#f1_2e" transform="matrix(12,0,0,12,308.5,1199)" />
<use xlink:href="#f1_2c" transform="matrix(12,0,0,12,322.1,1199)" />
<use xlink:href="#f1_2b" transform="matrix(12,0,0,12,331.2,1199)" />
<use xlink:href="#f1_28" transform="matrix(12,0,0,12,340.7,1199)" />
<use xlink:href="#f1_28" transform="matrix(12,0,0,12,345.5,1199)" />
<use xlink:href="#f1_21" transform="matrix(12,0,0,12,350.3,1199)" />
<use xlink:href="#f1_2a" transform="matrix(12,0,0,12,358.7,1199)" />
<use xlink:href="#f1_2f" transform="matrix(12,0,0,12,367.9,1199)" />
<use xlink:href="#f1_2e" transform="matrix(12,0,0,12,382.1,1199)" />
<use xlink:href="#f1_21" transform="matrix(12,0,0,12,388.4,1199)" />
<use xlink:href="#f1_29" transform="matrix(12,0,0,12,396.8,1199)" />
<use xlink:href="#f1_1x" transform="matrix(12,0,0,12,410.7,1199)" />
<use xlink:href="#f1_25" transform="matrix(12,0,0,12,419.1,1199)" />
<use xlink:href="#f1_2a" transform="matrix(12,0,0,12,423.9,1199)" />
<use xlink:href="#f1_1x" transform="matrix(12,0,0,12,440.4,1199)" />
<use xlink:href="#f1_2g" transform="matrix(12,0,0,12,448.4,1199)" />
<use xlink:href="#f1_2g" transform="matrix(12,0,0,12,453.5,1199)" />
<use xlink:href="#f1_1x" transform="matrix(12,0,0,12,459,1199)" />
<use xlink:href="#f1_1z" transform="matrix(12,0,0,12,467.1,1199)" />
<use xlink:href="#f1_24" transform="matrix(12,0,0,12,475.2,1199)" />
<use xlink:href="#f1_21" transform="matrix(12,0,0,12,484.3,1199)" />
<use xlink:href="#f1_20" transform="matrix(12,0,0,12,492.4,1199)" />
<use xlink:href="#f1_22" transform="matrix(12,0,0,12,509.3,1199)" />
<use xlink:href="#f1_2b" transform="matrix(12,0,0,12,514.8,1199)" />
<use xlink:href="#f1_2e" transform="matrix(12,0,0,12,524.3,1199)" />
<use xlink:href="#f1_29" transform="matrix(12,0,0,12,530.5,1199)" />
<use xlink:href="#f1_25" transform="matrix(12,0,0,12,544.4,1199)" />
<use xlink:href="#f1_2a" transform="matrix(12,0,0,12,549.2,1199)" />
<use xlink:href="#f1_23" transform="matrix(12,0,0,12,558.4,1199)" />
<use xlink:href="#f1_1z" transform="matrix(12,0,0,12,574.8,1199)" />
<use xlink:href="#f1_2b" transform="matrix(12,0,0,12,582.9,1199)" />
<use xlink:href="#f1_29" transform="matrix(12,0,0,12,592.8,1199)" />
<use xlink:href="#f1_2c" transform="matrix(12,0,0,12,606.4,1199)" />
<use xlink:href="#f1_2b" transform="matrix(12,0,0,12,615.5,1199)" />
<use xlink:href="#f1_2h" transform="matrix(12,0,0,12,625,1199)" />
<use xlink:href="#f1_2a" transform="matrix(12,0,0,12,634.2,1199)" />
<use xlink:href="#f1_20" transform="matrix(12,0,0,12,643,1199)" />
<use xlink:href="#f1_2c" transform="matrix(12,0,0,12,659.5,1199)" />
<use xlink:href="#f1_2b" transform="matrix(12,0,0,12,668.7,1199)" />
<use xlink:href="#f1_28" transform="matrix(12,0,0,12,678.5,1199)" />
<use xlink:href="#f1_28" transform="matrix(12,0,0,12,683.3,1199)" />
<use xlink:href="#f1_21" transform="matrix(12,0,0,12,688.1,1199)" />
<use xlink:href="#f1_2a" transform="matrix(12,0,0,12,696.5,1199)" />
<use xlink:href="#f1_23" transform="matrix(12,0,0,12,712.6,1199)" />
<use xlink:href="#f1_2e" transform="matrix(12,0,0,12,721.8,1199)" />
<use xlink:href="#f1_1x" transform="matrix(12,0,0,12,728,1199)" />
<use xlink:href="#f1_25" transform="matrix(12,0,0,12,736.4,1199)" />
<use xlink:href="#f1_2a" transform="matrix(12,0,0,12,741.2,1199)" />
<use xlink:href="#f1_2f" transform="matrix(12,0,0,12,750.3,1199)" />
<use xlink:href="#f1_21" transform="matrix(12,0,0,12,764.6,1199)" />
<use xlink:href="#f1_i" transform="matrix(12,0,0,12,772.7,1199)" />
<use xlink:href="#f1_23" transform="matrix(12,0,0,12,777.4,1199)" />
<use xlink:href="#f1_i" transform="matrix(12,0,0,12,786.6,1199)" />
<use xlink:href="#f2_1a" transform="matrix(12,0,0,12,799.7,1199)" />
<use xlink:href="#f2_2h" transform="matrix(12,0,0,12,808.8,1199)" />
<use xlink:href="#f2_2a" transform="matrix(12,0,0,12,819.1,1199)" />
<use xlink:href="#f2_1z" transform="matrix(12,0,0,12,829.3,1199)" />
<use xlink:href="#f2_2h" transform="matrix(12,0,0,12,837.4,1199)" />
<use xlink:href="#f2_2f" transform="matrix(12,0,0,12,847.6,1199)" />
</g>
<path fill-rule="evenodd" d="M799.7,1202.6H855v-1.8H799.7v1.8Z" class="g1_20" />
<path fill-rule="evenodd" d="M80.3,1224.3H857.2V1203H80.3v21.3Z" class="g0_20" />
<g fill="#1F3331" >
<use xlink:href="#f2_26" transform="matrix(12,0,0,12,110,1219.9)" />
<use xlink:href="#f2_1x" transform="matrix(12,0,0,12,116.3,1219.9)" />
<use xlink:href="#f2_2g" transform="matrix(12,0,0,12,125.4,1219.9)" />
<use xlink:href="#f2_2e" transform="matrix(12,0,0,12,131.6,1219.9)" />
<use xlink:href="#f2_2b" transform="matrix(12,0,0,12,139.3,1219.9)" />
<use xlink:href="#f2_2c" transform="matrix(12,0,0,12,148.5,1219.9)" />
<use xlink:href="#f2_24" transform="matrix(12,0,0,12,158.7,1219.9)" />
<use xlink:href="#f2_1x" transform="matrix(12,0,0,12,169,1219.9)" />
<use xlink:href="#f1_i" transform="matrix(12,0,0,12,178.3,1219.9)" />
</g>
<path fill-rule="evenodd" d="M110,1223.5h68.3v-1.8H110v1.8Z" class="g1_20" />
<image preserveAspectRatio="none" x="85" y="55" width="604" height="309" xlink:href="img/1.png" />
<image preserveAspectRatio="none" x="57" y="428" width="547" height="570" xlink:href="img/2.png" />
<g fill="#000000" >
<use xlink:href="#f3_p" transform="matrix(8,0,0,8,792.9,1264.1)" />
</g>
<defs>
<path d="M273,157c0,0,-114,0,-193,80C80,237,0,317,0,431c0,0,0,112,80,192c0,0,79,80,193,80c0,0,113,0,192,-80c0,0,80,-80,80,-192c0,0,0,-114,-80,-194c0,0,-79,-80,-192,-80Z" 
id="f0_3d"
transform="scale(0.001,-0.001)" />

<path d="M235,0V40L394,60V936H356c0,0,-189,0,-258,-15L78,766H28v234H908V766H857L837,921c0,0,-22,5,-98,9c0,0,-75,4,-165,4H538V60L697,40V0Z" 
id="f1_1k"
transform="scale(0.001,-0.001)" />

<path d="M442,0V33l93,19V504c0,0,0,129,-124,129c0,0,-70,0,-168,-22V52L338,33V0H31V33l88,19v956L15,1026v34H243V756c0,0,0,-77,-5,-112c0,0,54,31,122,53c0,0,68,23,115,23c0,0,91,0,137,-53c0,0,47,-53,47,-154V52L744,33V0Z" 
id="f1_24"
transform="scale(0.001,-0.001)" />

<path d="M495,413c0,0,0,133,-34,190c0,0,-34,57,-105,57c0,0,-78,0,-119,-63c0,0,-42,-62,-42,-184ZM374,-14c0,0,-163,0,-239,87c0,0,-75,88,-75,283c0,0,0,183,77,273c0,0,76,91,219,91c0,0,269,0,269,-306V353H194V340c0,0,0,-103,23,-160c0,0,22,-57,70,-87c0,0,47,-29,124,-29c0,0,40,0,96,6c0,0,55,7,91,15V43C598,43,562,20,500,3c0,0,-61,-17,-126,-17Z" 
id="f1_21"
transform="scale(0.001,-0.001)" />

<path d="M431,0V33L535,52V499c0,0,0,62,-32,96c0,0,-32,33,-95,33c0,0,-66,0,-163,-22V52L350,33V0H32V33l89,19V649L32,668v33H237l6,-57c0,0,56,32,119,54c0,0,62,22,110,22c0,0,52,0,95,-20c0,0,44,-19,66,-62c0,0,57,32,134,57c0,0,77,25,128,25c0,0,179,0,179,-207V52l90,-19V0H846V33L950,52V499c0,0,0,129,-119,129c0,0,-19,0,-45,-3c0,0,-26,-3,-52,-7c0,0,-25,-4,-49,-8c0,0,-23,-5,-39,-8c0,0,13,-41,13,-89V52L764,33V0Z" 
id="f1_29"
transform="scale(0.001,-0.001)" />

<path d="M32,0V33L151,52V649L52,668v33H275V52L395,33V0ZM201,850c0,0,-32,0,-56,24c0,0,-24,24,-24,56c0,0,0,34,24,58c0,0,24,24,56,24c0,0,34,0,58,-24c0,0,24,-24,24,-58c0,0,0,-32,-24,-56c0,0,-24,-24,-58,-24Z" 
id="f1_25"
transform="scale(0.001,-0.001)" />

<path d="M399,-14c0,0,-341,0,-341,370c0,0,0,175,87,269c0,0,87,95,249,95c0,0,101,0,220,-23V501H573L541,625c0,0,-62,35,-149,35c0,0,-200,0,-200,-304c0,0,0,-158,61,-225c0,0,61,-67,189,-67c0,0,109,0,189,24V43C631,43,595,16,530,1c0,0,-64,-15,-131,-15Z" 
id="f1_1z"
transform="scale(0.001,-0.001)" />

<path d="M31,0V33l88,19V649L31,668v33H235l7,-87c0,0,44,37,121,71c0,0,76,35,121,35h11V530H463l-43,82c0,0,-37,0,-88,-10c0,0,-52,-10,-89,-26V52L363,33V0Z" 
id="f1_2e"
transform="scale(0.001,-0.001)" />

<path d="M377,45c0,0,99,0,147,73c0,0,47,73,47,237c0,0,0,161,-47,233c0,0,-47,72,-147,72c0,0,-97,0,-141,-69c0,0,-44,-69,-44,-236c0,0,0,-169,45,-240c0,0,44,-70,140,-70Zm0,-59c0,0,-158,0,-238,94c0,0,-81,95,-81,274c0,0,0,178,81,272c0,0,80,94,244,94c0,0,160,0,241,-92c0,0,82,-92,82,-274c0,0,0,-368,-329,-368Z" 
id="f1_2b"
transform="scale(0.001,-0.001)" />

<path d="M278,-14c0,0,-52,0,-115,11c0,0,-63,10,-99,23V193H98L134,95c0,0,56,-50,146,-50c0,0,144,0,144,123c0,0,0,91,-114,130l-66,21c0,0,-75,25,-110,50c0,0,-34,26,-53,63c0,0,-18,36,-18,89c0,0,0,92,63,145c0,0,63,54,170,54c0,0,77,0,193,-23V544H454l-32,81c0,0,-39,35,-124,35c0,0,-61,0,-92,-30c0,0,-32,-30,-32,-80c0,0,0,-43,29,-72c0,0,28,-29,86,-48c0,0,110,-38,144,-55c0,0,33,-17,57,-42c0,0,23,-25,36,-57c0,0,13,-32,13,-79c0,0,0,-104,-66,-158c0,0,-66,-53,-195,-53Z" 
id="f1_2f"
transform="scale(0.001,-0.001)" />

<path d="M382,45c0,0,188,0,188,314c0,0,0,143,-47,213c0,0,-46,69,-141,69c0,0,-87,0,-146,-24V58c0,0,67,-13,146,-13ZM25,-325v35l88,18V649L34,668v33H231l1,-41c0,0,31,27,84,43c0,0,53,17,107,17c0,0,134,0,208,-94c0,0,73,-93,73,-267c0,0,0,-178,-80,-276c0,0,-80,-97,-232,-97c0,0,-84,0,-160,16c0,0,4,-53,4,-84V-272l123,-18v-35Z" 
id="f1_2c"
transform="scale(0.001,-0.001)" />

<path d="M284,67c0,0,51,0,88,12c0,0,37,12,74,30V358l-98,-3c0,0,-100,-4,-135,-39c0,0,-35,-35,-35,-117c0,0,0,-132,106,-132ZM233,-14c0,0,-179,0,-179,208c0,0,0,70,27,116c0,0,27,46,87,70c0,0,60,24,173,27l105,3V519c0,0,0,72,-26,107c0,0,-27,34,-82,34c0,0,-75,0,-137,-35L176,538H134V691c0,0,121,26,213,26c0,0,115,0,169,-47c0,0,54,-47,54,-144V52L657,33V0H465L451,70c0,0,-85,-84,-218,-84Z" 
id="f1_1x"
transform="scale(0.001,-0.001)" />

<path d="M249,-14c0,0,-71,0,-107,42c0,0,-35,42,-35,119V639H15v33l93,29l76,159h47V701H391V639H231V161c0,0,0,-48,22,-73c0,0,22,-24,57,-24c0,0,44,0,106,12V26C416,26,389,8,340,-2c0,0,-49,-12,-91,-12Z" 
id="f1_2g"
transform="scale(0.001,-0.001)" />

<path d="M383,64c0,0,85,0,152,28V645c0,0,-67,13,-152,13c0,0,-194,0,-194,-314c0,0,0,-141,48,-211c0,0,48,-69,146,-69ZM342,-14c0,0,-287,0,-287,358c0,0,0,184,82,280c0,0,81,96,239,96c0,0,81,0,163,-18c0,0,-4,25,-4,124v182l-118,18v34H659V52L745,33V0H548l-9,52c0,0,-84,-66,-197,-66Z" 
id="f1_20"
transform="scale(0.001,-0.001)" />

<path d="M64,0V34L168,59V639H47v36l121,29v49c0,0,0,155,61,239c0,0,62,84,173,84c0,0,58,0,107,-15V908H472l-33,92c0,0,-26,16,-62,16c0,0,-47,0,-66,-42c0,0,-19,-42,-19,-157V701H478V639H292V59L443,34V0Z" 
id="f1_22"
transform="scale(0.001,-0.001)" />

<path d="M31,0V33L150,52v956L31,1026v34H274V52L394,33V0Z" 
id="f1_28"
transform="scale(0.001,-0.001)" />

<path d="M439,0V33l93,19V500c0,0,0,62,-30,97c0,0,-31,36,-94,36c0,0,-67,0,-165,-22V52L338,33V0H35V33l84,19V649L35,668v33H235l7,-57c0,0,57,33,122,54c0,0,65,22,108,22c0,0,91,0,137,-53c0,0,47,-53,47,-154V52L741,33V0Z" 
id="f1_2a"
transform="scale(0.001,-0.001)" />

<path d="M359,-270c0,0,124,0,192,46c0,0,67,47,67,129c0,0,0,43,-26,67c0,0,-26,24,-79,24H242c0,0,-32,-27,-51,-69c0,0,-20,-41,-20,-77c0,0,0,-64,46,-92c0,0,46,-28,142,-28Zm11,561c0,0,81,0,115,47c0,0,34,47,34,141c0,0,0,100,-35,142c0,0,-35,42,-113,42c0,0,-78,0,-114,-43c0,0,-37,-42,-37,-141c0,0,0,-98,36,-143c0,0,36,-45,114,-45ZM359,-329c0,0,-143,0,-218,44c0,0,-75,43,-75,125c0,0,0,39,27,78c0,0,26,38,98,89c0,0,-43,14,-72,48c0,0,-29,35,-29,74L208,262c0,0,-118,55,-118,217c0,0,0,115,73,178c0,0,73,63,211,63c0,0,28,0,71,-6c0,0,44,-6,67,-13l165,83l26,-32L599,644c0,0,50,-56,50,-165c0,0,0,-120,-72,-182c0,0,-73,-62,-208,-62c0,0,-62,0,-114,11L208,148c0,0,2,-13,29,-24c0,0,27,-12,67,-12H512c0,0,113,0,168,-49c0,0,55,-49,55,-134c0,0,0,-79,-44,-137c0,0,-43,-58,-128,-90c0,0,-84,-31,-204,-31Z" 
id="f1_23"
transform="scale(0.001,-0.001)" />

<path d="M191,-20c0,0,-39,0,-65,25c0,0,-25,27,-25,64c0,0,0,38,26,64c0,0,26,26,64,26c0,0,38,0,64,-26c0,0,26,-26,26,-64c0,0,0,-37,-25,-64c0,0,-26,-25,-65,-25Z" 
id="f1_i"
transform="scale(0.001,-0.001)" />

<path d="M148,-329c0,0,-58,0,-114,13v151H69l24,-71c0,0,23,-17,64,-17c0,0,39,0,72,22c0,0,33,23,60,67c0,0,27,44,68,157L90,649L19,668v33H344V668L233,648L423,158L606,649L497,668v33H758V668L685,652L411,-43c0,0,-48,-124,-84,-177c0,0,-36,-54,-79,-82c0,0,-44,-27,-100,-27Z" 
id="f1_2l"
transform="scale(0.001,-0.001)" />

<path d="M289,-14c0,0,-179,0,-179,205V649L20,668v33H233V200c0,0,0,-128,120,-128c0,0,92,0,173,23V649L420,668v33H649V52L738,33V0H533l-6,57C527,57,474,28,405,7c0,0,-69,-21,-116,-21Z" 
id="f1_2h"
transform="scale(0.001,-0.001)" />

<path d="M376,50c0,0,103,0,149,80c0,0,46,81,46,240c0,0,0,137,-47,204c0,0,-48,67,-148,67c0,0,-44,0,-87,-7c0,0,-44,-8,-63,-17V62c0,0,63,-12,150,-12Zm3,-64c0,0,-64,0,-141,14c0,0,-78,14,-136,37v971L0,1026v34H226V809c0,0,0,-40,-4,-148c0,0,74,59,188,59c0,0,143,0,219,-87c0,0,77,-87,77,-263c0,0,0,-189,-84,-287c0,0,-84,-97,-243,-97Z" 
id="f1_1y"
transform="scale(0.001,-0.001)" />

<path d="M327,-14L84,649L1,668v33H335V668L219,648L385,174L554,632h63L786,171L944,649L830,668v33h267V668l-78,-16L784,-14H726L553,448L382,-14Z" 
id="f1_2j"
transform="scale(0.001,-0.001)" />

<path d="M434,423c0,0,0,101,-7,142c0,0,-6,40,-22,60c0,0,-16,19,-45,19c0,0,-44,0,-66,-48c0,0,-22,-49,-22,-173ZM389,-14c0,0,-172,0,-254,89c0,0,-83,90,-83,279c0,0,0,184,79,274c0,0,79,91,238,91c0,0,142,0,206,-76c0,0,64,-76,64,-237V345H271V333c0,0,0,-111,18,-158c0,0,18,-47,58,-72c0,0,40,-25,110,-25c0,0,66,0,166,22V42C623,42,582,18,517,1c0,0,-66,-15,-128,-15Z" 
id="f2_21"
transform="scale(0.001,-0.001)" />

<path d="M6,0V49L69,61L292,323L91,634L23,652v49H398V652L319,632L421,475L557,634l-71,18v49H725V652L663,637L466,406L689,65L756,49V0H381V49l79,17L337,254L175,65L245,49V0Z" 
id="f2_2k"
transform="scale(0.001,-0.001)" />

<path d="M34,0V49l76,18V634L38,652v49H325V67L402,49V0ZM217,831c0,0,-48,0,-81,33c0,0,-34,33,-34,82c0,0,0,48,34,81c0,0,34,33,81,33c0,0,48,0,81,-33c0,0,33,-33,33,-81c0,0,0,-47,-33,-81c0,0,-32,-34,-81,-34Z" 
id="f2_25"
transform="scale(0.001,-0.001)" />

<path d="M41,0V49l69,18V634L41,652v49H313l11,-61l50,26c0,0,105,54,188,54c0,0,194,0,194,-207V67L827,49V0H478V49l63,18V484c0,0,0,63,-27,98c0,0,-26,35,-75,35c0,0,-57,0,-114,-25V67L389,49V0Z" 
id="f2_2a"
transform="scale(0.001,-0.001)" />

<path d="M327,-14c0,0,-101,0,-156,45c0,0,-55,45,-55,131V624H25v48l108,29l87,159H332V701H480V624H332V176c0,0,0,-49,20,-73c0,0,20,-25,53,-25c0,0,40,0,97,12V26c0,0,-22,-15,-76,-27c0,0,-55,-13,-99,-13Z" 
id="f2_2g"
transform="scale(0.001,-0.001)" />

<path d="M231,0V54L390,74V921H352c0,0,-171,0,-240,-15L92,721H24v279H996V721H927L907,906c0,0,-62,14,-245,14H626V74L785,54V0Z" 
id="f2_1k"
transform="scale(0.001,-0.001)" />

<path d="M41,0V49l69,18V992l-72,18v50H325V756c0,0,0,-49,-4,-116l51,26c0,0,106,54,190,54c0,0,194,0,194,-207V67L827,49V0H478V49l63,18V484c0,0,0,63,-27,98c0,0,-26,35,-75,35c0,0,-57,0,-114,-25V67L389,49V0Z" 
id="f2_24"
transform="scale(0.001,-0.001)" />

<path d="M438,65c0,0,131,0,131,293c0,0,0,279,-130,279c0,0,-69,0,-127,-29V80c0,0,60,-15,126,-15ZM20,-325v50l76,18V634L19,652v49H304l1,-36c0,0,80,55,194,55c0,0,146,0,218,-86c0,0,71,-86,71,-271c0,0,0,-183,-83,-280c0,0,-83,-97,-238,-97c0,0,-79,0,-160,19c0,0,5,-48,5,-109V-257l103,-18v-50Z" 
id="f2_2c"
transform="scale(0.001,-0.001)" />

<path d="M379,60c0,0,59,0,84,64c0,0,24,65,24,231c0,0,0,164,-24,227c0,0,-24,63,-84,63c0,0,-57,0,-80,-60c0,0,-22,-61,-22,-230c0,0,0,-173,23,-234c0,0,22,-61,79,-61Zm-2,-74c0,0,-161,0,-240,91c0,0,-79,91,-79,277c0,0,0,186,80,276c0,0,81,90,245,90c0,0,167,0,245,-93c0,0,78,-93,78,-273c0,0,0,-188,-81,-278c0,0,-81,-90,-248,-90Z" 
id="f2_2b"
transform="scale(0.001,-0.001)" />

<path d="M30,0V49l76,18V992l-72,18v50H322V67L398,49V0Z" 
id="f2_28"
transform="scale(0.001,-0.001)" />

<path d="M360,-256c0,0,108,0,167,35c0,0,59,35,59,98c0,0,0,70,-95,70H254c0,0,-65,-47,-65,-108c0,0,0,-47,46,-71c0,0,45,-24,125,-24Zm9,561c0,0,55,0,79,43c0,0,25,43,25,129c0,0,0,87,-24,127c0,0,-25,41,-80,41c0,0,-52,0,-75,-41c0,0,-24,-40,-24,-127c0,0,0,-86,23,-129c0,0,23,-43,76,-43Zm-9,-641c0,0,-153,0,-236,43c0,0,-84,44,-84,120c0,0,0,33,28,65c0,0,27,31,105,76c0,0,-44,17,-75,59c0,0,-31,43,-31,90L192,258c0,0,-133,56,-133,219c0,0,0,116,81,180c0,0,82,63,233,63c0,0,32,0,82,-6c0,0,51,-6,74,-13l168,83l26,-32L638,631c0,0,46,-57,46,-154c0,0,0,-119,-80,-182c0,0,-80,-64,-234,-64c0,0,-59,0,-114,9L238,183c0,0,1,-22,28,-41c0,0,26,-19,64,-19H493c0,0,256,0,256,-196c0,0,0,-81,-44,-139c0,0,-45,-59,-131,-92c0,0,-86,-32,-214,-32Z" 
id="f2_23"
transform="scale(0.001,-0.001)" />

<path d="M41,0V49l91,18V634L41,652v49H336l8,-145c0,0,80,89,144,128c0,0,64,40,117,40h40V468H604l-45,94c0,0,-47,0,-106,-21c0,0,-60,-20,-105,-48V67L460,49V0Z" 
id="f2_2e"
transform="scale(0.001,-0.001)" />

<path d="M345,75c0,0,50,0,110,26V351l-63,-2c0,0,-72,-3,-100,-38c0,0,-28,-35,-28,-113c0,0,0,-63,22,-93c0,0,23,-30,59,-30ZM266,-14c0,0,-217,0,-217,208c0,0,0,79,32,126c0,0,32,48,93,71c0,0,60,22,190,25l91,2V521c0,0,0,126,-104,126c0,0,-62,0,-140,-39L183,521H134V691c0,0,112,17,165,21c0,0,53,5,108,5c0,0,264,0,264,-194V67L741,49V0H483L466,54C466,54,408,14,361,0c0,0,-47,-14,-95,-14Z" 
id="f2_1x"
transform="scale(0.001,-0.001)" />

<path d="M276,-14c0,0,-57,0,-125,13C151,-1,83,10,48,23V214H97l28,-98c0,0,26,-26,69,-44c0,0,42,-17,86,-17c0,0,65,0,97,28c0,0,32,28,32,71c0,0,0,41,-31,65c0,0,-30,25,-133,57c0,0,-108,34,-154,92c0,0,-45,58,-45,143c0,0,0,95,71,152c0,0,71,57,183,57c0,0,77,0,207,-22V518H457l-24,82c0,0,-21,22,-60,35c0,0,-40,14,-75,14c0,0,-53,0,-79,-22c0,0,-26,-22,-26,-59c0,0,0,-40,32,-65c0,0,32,-26,132,-55c0,0,109,-34,155,-89c0,0,45,-55,45,-137c0,0,0,-117,-72,-177c0,0,-72,-59,-209,-59Z" 
id="f2_2f"
transform="scale(0.001,-0.001)" />

<path d="M41,0V49l76,18V624H11v51l106,29v75c0,0,0,144,73,220c0,0,73,77,210,77c0,0,74,0,124,-15V894H476l-22,81c0,0,-18,17,-47,17c0,0,-74,0,-74,-189V701H475V624H333V67L447,49V0Z" 
id="f2_22"
transform="scale(0.001,-0.001)" />

<path d="M425,-14c0,0,-187,0,-280,90c0,0,-93,90,-93,276c0,0,0,115,42,198c0,0,43,82,121,126c0,0,78,44,182,44c0,0,104,0,227,-26V486H571L539,609c0,0,-25,19,-50,26c0,0,-24,7,-65,7c0,0,-44,0,-79,-35c0,0,-36,-35,-56,-98c0,0,-20,-64,-20,-153c0,0,0,-150,47,-214c0,0,47,-64,148,-64c0,0,103,0,176,21V42C640,42,606,15,547,0c0,0,-59,-14,-122,-14Z" 
id="f2_1z"
transform="scale(0.001,-0.001)" />

<path d="M41,0V49l69,18V634L41,652v49H313l11,-61l50,26c0,0,105,54,188,54c0,0,125,0,167,-91c0,0,153,91,258,91c0,0,189,0,189,-207V67l71,-17V0H898V50l63,17V484c0,0,0,63,-24,98c0,0,-25,35,-74,35c0,0,-55,0,-119,-31c0,0,7,-32,7,-73V67L821,50V0H473V50l63,17V484c0,0,0,63,-25,98c0,0,-24,35,-73,35c0,0,-49,0,-113,-29V67L389,49V0Z" 
id="f2_29"
transform="scale(0.001,-0.001)" />

<path d="M159,-329c0,0,-61,0,-123,14v180H81l32,-94c0,0,21,-17,55,-17c0,0,28,0,50,13c0,0,21,14,40,39c0,0,20,25,37,62c0,0,17,37,50,110L64,634L15,652v49H374V652L290,632L455,244L602,634l-82,18v49H749V652L698,637L421,-44c0,0,-47,-121,-83,-176c0,0,-36,-55,-80,-82c0,0,-43,-27,-99,-27Z" 
id="f2_2l"
transform="scale(0.001,-0.001)" />

<path d="M191,-20c0,0,-51,0,-88,34c0,0,-36,36,-36,88c0,0,0,52,36,88c0,0,36,36,88,36c0,0,51,0,88,-36c0,0,36,-36,36,-88c0,0,0,-51,-36,-87c0,0,-36,-35,-88,-35Z" 
id="f2_i"
transform="scale(0.001,-0.001)" />

<path d="M681,416L504,902L333,416ZM669,0V40L803,60L704,348H310L210,60L344,40V0H15V40L128,60l341,949H611L965,60L1092,40V0Z" 
id="f1_11"
transform="scale(0.001,-0.001)" />

<path d="M55,0V40L184,60V941L55,960v40H455V960L327,941V60L455,40V0Z" 
id="f1_19"
transform="scale(0.001,-0.001)" />

<path d="M58,-234v58c0,0,131,42,131,125c0,0,0,15,-11,27c0,0,-11,12,-38,25C140,1,89,27,89,75c0,0,0,40,25,61c0,0,26,21,65,21c0,0,48,0,77,-34c0,0,30,-34,30,-86c0,0,0,-101,-60,-170c0,0,-59,-69,-168,-101Z" 
id="f1_g"
transform="scale(0.001,-0.001)" />

<path d="M264,-14c0,0,-56,0,-110,7c0,0,-54,6,-86,15V234h66L157,101c0,0,14,-17,40,-27c0,0,26,-9,57,-9c0,0,52,0,86,35c0,0,34,36,34,106V926L245,945v55H722V945L609,926V322c0,0,0,-162,-90,-249c0,0,-89,-87,-255,-87Z" 
id="f2_1a"
transform="scale(0.001,-0.001)" />

<path d="M287,-18c0,0,-194,0,-194,206V634L23,652v49H309V217c0,0,0,-63,26,-98c0,0,27,-35,76,-35c0,0,57,0,113,25V634l-64,18v49H740V67L809,49V0H536L526,61L475,35c0,0,-104,-53,-188,-53Z" 
id="f2_2h"
transform="scale(0.001,-0.001)" />

<path d="M116,-325c0,0,-67,0,-128,14v168H35l32,-84c0,0,18,-14,37,-14c0,0,40,0,63,49c0,0,24,50,24,141V627L67,652v49H407V-28c0,0,0,-141,-76,-219c0,0,-76,-78,-215,-78ZM298,831c0,0,-47,0,-81,33c0,0,-33,33,-33,82c0,0,0,47,33,80c0,0,33,34,81,34c0,0,47,0,81,-33c0,0,34,-33,34,-81c0,0,0,-48,-34,-81c0,0,-33,-34,-81,-34Z" 
id="f2_26"
transform="scale(0.001,-0.001)" />

<path d="M415,-18c0,0,-149,0,-244,83c0,0,-94,84,-107,222l140,11c0,0,16,-103,73,-154c0,0,56,-52,137,-52c0,0,98,0,165,73c0,0,66,73,66,194c0,0,0,115,-64,182c0,0,-64,66,-169,66c0,0,-65,0,-117,-29c0,0,-52,-30,-82,-77L87,517l106,562H736V951H300L241,657c0,0,99,69,207,69c0,0,143,0,242,-100c0,0,98,-99,98,-255c0,0,0,-149,-86,-257C702,114,597,-18,415,-18Z" 
id="f3_p"
transform="scale(0.001,-0.001)" />


</defs>
</svg>