<?xml version="1.0" encoding="UTF-8" standalone="no"?>
<!DOCTYPE svg PUBLIC "-//W3C//DTD SVG 1.1//EN"
"http://www.w3.org/Graphics/SVG/1.1/DTD/svg11.dtd">
<svg viewBox="0 0 935 1210" version="1.1" xmlns="http://www.w3.org/2000/svg" xmlns:xlink="http://www.w3.org/1999/xlink">
<defs>
</defs>
<g fill="#000000" >
<use xlink:href="#f0_ov" transform="matrix(11,0,0,11,113.7,71.2)" />
<use xlink:href="#f1_1c" transform="matrix(11,0,0,11,118.8,71.2)" />
<use xlink:href="#f1_7l" transform="matrix(11,0,0,11,123.2,71.2)" />
<use xlink:href="#f1_9n" transform="matrix(11,0,0,11,130.2,71.2)" />
<use xlink:href="#f1_bf" transform="matrix(11,0,0,11,139,71.2)" />
<use xlink:href="#f1_9n" transform="matrix(11,0,0,11,144.9,71.2)" />
<use xlink:href="#f1_co" transform="matrix(11,0,0,11,153.7,71.2)" />
<use xlink:href="#f1_am" transform="matrix(11,0,0,11,161.7,71.2)" />
<use xlink:href="#f1_b5" transform="matrix(11,0,0,11,170.5,71.2)" />
<use xlink:href="#f1_77" transform="matrix(11,0,0,11,177.2,71.2)" />
<use xlink:href="#f1_c6" transform="matrix(11,0,0,11,185.9,71.2)" />
<use xlink:href="#f1_b1" transform="matrix(11,0,0,11,194.7,71.2)" />
<use xlink:href="#f1_b5" transform="matrix(11,0,0,11,200.6,71.2)" />
<use xlink:href="#f0_ow" transform="matrix(11,0,0,11,207.2,71.2)" />
<use xlink:href="#f0_nt" transform="matrix(11,0,0,11,212.4,71.2)" />
<use xlink:href="#f2_3d" transform="matrix(11,0,0,11,82.5,95.7)" />
<use xlink:href="#f0_2t" transform="matrix(11,0,0,11,110,95.7)" />
<use xlink:href="#f0_9n" transform="matrix(11,0,0,11,118.1,95.7)" />
<use xlink:href="#f0_7z" transform="matrix(11,0,0,11,126.9,95.7)" />
<use xlink:href="#f0_7k" transform="matrix(11,0,0,11,139,95.7)" />
<use xlink:href="#f0_9q" transform="matrix(11,0,0,11,147.8,95.7)" />
<use xlink:href="#f0_9d" transform="matrix(11,0,0,11,151.8,95.7)" />
<use xlink:href="#f0_9d" transform="matrix(11,0,0,11,159.9,95.7)" />
<use xlink:href="#f0_7z" transform="matrix(11,0,0,11,167.9,95.7)" />
<use xlink:href="#f0_b5" transform="matrix(11,0,0,11,176.3,95.7)" />
<use xlink:href="#f0_bf" transform="matrix(11,0,0,11,182.9,95.7)" />
<use xlink:href="#f0_a8" transform="matrix(11,0,0,11,192.2,95.7)" />
<use xlink:href="#f0_77" transform="matrix(11,0,0,11,196.2,95.7)" />
<use xlink:href="#f0_af" transform="matrix(11,0,0,11,204.3,95.7)" />
<use xlink:href="#f0_7v" transform="matrix(11,0,0,11,213.1,95.7)" />
<use xlink:href="#f0_b1" transform="matrix(11,0,0,11,225.6,95.7)" />
<use xlink:href="#f0_7z" transform="matrix(11,0,0,11,231.4,95.7)" />
<use xlink:href="#f0_ay" transform="matrix(11,0,0,11,239.8,95.7)" />
<use xlink:href="#f0_bf" transform="matrix(11,0,0,11,248.7,95.7)" />
<use xlink:href="#f0_9q" transform="matrix(11,0,0,11,254.2,95.7)" />
<use xlink:href="#f0_a8" transform="matrix(11,0,0,11,258.2,95.7)" />
<use xlink:href="#f0_7z" transform="matrix(11,0,0,11,262.2,95.7)" />
<use xlink:href="#f0_b5" transform="matrix(11,0,0,11,270.6,95.7)" />
<use xlink:href="#f0_ci" transform="matrix(11,0,0,11,280.9,95.7)" />
<use xlink:href="#f0_7z" transform="matrix(11,0,0,11,293,95.7)" />
<use xlink:href="#f0_b1" transform="matrix(11,0,0,11,301.4,95.7)" />
<use xlink:href="#f0_7z" transform="matrix(11,0,0,11,306.9,95.7)" />
<use xlink:href="#f0_bf" transform="matrix(11,0,0,11,319,95.7)" />
<use xlink:href="#f0_9n" transform="matrix(11,0,0,11,324.5,95.7)" />
<use xlink:href="#f0_7z" transform="matrix(11,0,0,11,333.3,95.7)" />
<use xlink:href="#f0_7v" transform="matrix(11,0,0,11,345.4,95.7)" />
<use xlink:href="#f0_9q" transform="matrix(11,0,0,11,354.2,95.7)" />
<use xlink:href="#f0_af" transform="matrix(11,0,0,11,358.2,95.7)" />
<use xlink:href="#f0_am" transform="matrix(11,0,0,11,367,95.7)" />
<use xlink:href="#f0_b5" transform="matrix(11,0,0,11,375.8,95.7)" />
<use xlink:href="#f0_77" transform="matrix(11,0,0,11,382.4,95.7)" />
<use xlink:href="#f0_c6" transform="matrix(11,0,0,11,390.5,95.7)" />
<use xlink:href="#f0_b1" transform="matrix(11,0,0,11,399.3,95.7)" />
<use xlink:href="#f0_b5" transform="matrix(11,0,0,11,405.2,95.7)" />
<use xlink:href="#f0_nt" transform="matrix(11,0,0,11,411.8,95.7)" />
<use xlink:href="#f2_3d" transform="matrix(11,0,0,11,82.5,120.3)" />
<use xlink:href="#f0_2t" transform="matrix(11,0,0,11,110,120.3)" />
<use xlink:href="#f0_9n" transform="matrix(11,0,0,11,118.1,120.3)" />
<use xlink:href="#f0_7z" transform="matrix(11,0,0,11,126.9,120.3)" />
<use xlink:href="#f0_a8" transform="matrix(11,0,0,11,139,120.3)" />
<use xlink:href="#f0_77" transform="matrix(11,0,0,11,143,120.3)" />
<use xlink:href="#f0_b1" transform="matrix(11,0,0,11,151.1,120.3)" />
<use xlink:href="#f0_9d" transform="matrix(11,0,0,11,157,120.3)" />
<use xlink:href="#f0_7z" transform="matrix(11,0,0,11,165,120.3)" />
<use xlink:href="#f0_b5" transform="matrix(11,0,0,11,173.4,120.3)" />
<use xlink:href="#f0_bf" transform="matrix(11,0,0,11,180,120.3)" />
<use xlink:href="#f0_7v" transform="matrix(11,0,0,11,189.2,120.3)" />
<use xlink:href="#f0_9q" transform="matrix(11,0,0,11,198,120.3)" />
<use xlink:href="#f0_af" transform="matrix(11,0,0,11,202,120.3)" />
<use xlink:href="#f0_am" transform="matrix(11,0,0,11,210.8,120.3)" />
<use xlink:href="#f0_b5" transform="matrix(11,0,0,11,219.6,120.3)" />
<use xlink:href="#f0_77" transform="matrix(11,0,0,11,226.2,120.3)" />
<use xlink:href="#f0_c6" transform="matrix(11,0,0,11,234.3,120.3)" />
<use xlink:href="#f0_b1" transform="matrix(11,0,0,11,243.1,120.3)" />
<use xlink:href="#f1_2t" transform="matrix(11,0,0,11,252.7,120.3)" />
<use xlink:href="#f1_co" transform="matrix(11,0,0,11,261.2,120.3)" />
<use xlink:href="#f1_b1" transform="matrix(11,0,0,11,269.2,120.3)" />
<use xlink:href="#f1_77" transform="matrix(11,0,0,11,275.1,120.3)" />
<use xlink:href="#f1_af" transform="matrix(11,0,0,11,283.9,120.3)" />
<use xlink:href="#f1_af" transform="matrix(11,0,0,11,292.7,120.3)" />
<use xlink:href="#f1_am" transform="matrix(11,0,0,11,301.5,120.3)" />
<use xlink:href="#f1_b5" transform="matrix(11,0,0,11,310.3,120.3)" />
<use xlink:href="#f1_77" transform="matrix(11,0,0,11,316.9,120.3)" />
<use xlink:href="#f1_c6" transform="matrix(11,0,0,11,325.7,120.3)" />
<use xlink:href="#f1_b1" transform="matrix(11,0,0,11,334.5,120.3)" />
<use xlink:href="#f1_c6" transform="matrix(11,0,0,11,340.4,120.3)" />
<use xlink:href="#f1_b5" transform="matrix(11,0,0,11,349.2,120.3)" />
<use xlink:href="#f1_b1" transform="matrix(11,0,0,11,359.4,120.3)" />
<use xlink:href="#f1_7z" transform="matrix(11,0,0,11,365.3,120.3)" />
<use xlink:href="#f1_cn" transform="matrix(11,0,0,11,373.7,120.3)" />
<use xlink:href="#f0_ci" transform="matrix(11,0,0,11,385.2,120.3)" />
<use xlink:href="#f0_77" transform="matrix(11,0,0,11,397.2,120.3)" />
<use xlink:href="#f0_b5" transform="matrix(11,0,0,11,405.3,120.3)" />
<use xlink:href="#f0_77" transform="matrix(11,0,0,11,415.6,120.3)" />
<use xlink:href="#f0_7k" transform="matrix(11,0,0,11,423.7,120.3)" />
<use xlink:href="#f0_am" transform="matrix(11,0,0,11,432.8,120.3)" />
<use xlink:href="#f0_c6" transform="matrix(11,0,0,11,441.6,120.3)" />
<use xlink:href="#f0_bf" transform="matrix(11,0,0,11,450.4,120.3)" />
<use xlink:href="#f0_rz" transform="matrix(11,0,0,11,459.9,120.3)" />
<use xlink:href="#f0_rx" transform="matrix(11,0,0,11,468.4,120.3)" />
<use xlink:href="#f0_89" transform="matrix(11,0,0,11,480.8,120.3)" />
<use xlink:href="#f0_7z" transform="matrix(11,0,0,11,485.9,120.3)" />
<use xlink:href="#f0_7z" transform="matrix(11,0,0,11,494.3,120.3)" />
<use xlink:href="#f0_bf" transform="matrix(11,0,0,11,502.8,120.3)" />
<use xlink:href="#f0_9q" transform="matrix(11,0,0,11,511.9,120.3)" />
<use xlink:href="#f0_af" transform="matrix(11,0,0,11,516,120.3)" />
<use xlink:href="#f0_9n" transform="matrix(11,0,0,11,528.4,120.3)" />
<use xlink:href="#f0_7z" transform="matrix(11,0,0,11,537.2,120.3)" />
<use xlink:href="#f0_9q" transform="matrix(11,0,0,11,545.6,120.3)" />
<use xlink:href="#f0_9d" transform="matrix(11,0,0,11,549.7,120.3)" />
<use xlink:href="#f0_9n" transform="matrix(11,0,0,11,557.7,120.3)" />
<use xlink:href="#f0_bf" transform="matrix(11,0,0,11,566.5,120.3)" />
<use xlink:href="#f0_77" transform="matrix(11,0,0,11,575.7,120.3)" />
<use xlink:href="#f0_af" transform="matrix(11,0,0,11,583.8,120.3)" />
<use xlink:href="#f0_7v" transform="matrix(11,0,0,11,592.5,120.3)" />
<use xlink:href="#f0_9n" transform="matrix(11,0,0,11,605,120.3)" />
<use xlink:href="#f0_77" transform="matrix(11,0,0,11,613.8,120.3)" />
<use xlink:href="#f0_7v" transform="matrix(11,0,0,11,621.9,120.3)" />
<use xlink:href="#f0_9n" transform="matrix(11,0,0,11,634.3,120.3)" />
<use xlink:href="#f0_c6" transform="matrix(11,0,0,11,643.1,120.3)" />
<use xlink:href="#f0_9d" transform="matrix(11,0,0,11,651.9,120.3)" />
<use xlink:href="#f0_7z" transform="matrix(11,0,0,11,660,120.3)" />
<use xlink:href="#f0_89" transform="matrix(11,0,0,11,672.1,120.3)" />
<use xlink:href="#f0_7z" transform="matrix(11,0,0,11,677.2,120.3)" />
<use xlink:href="#f0_77" transform="matrix(11,0,0,11,685.6,120.3)" />
<use xlink:href="#f0_b1" transform="matrix(11,0,0,11,693.7,120.3)" />
<use xlink:href="#f0_b5" transform="matrix(11,0,0,11,699.6,120.3)" />
<use xlink:href="#f0_am" transform="matrix(11,0,0,11,706.2,120.3)" />
<use xlink:href="#f0_ae" transform="matrix(11,0,0,11,715,120.3)" />
<use xlink:href="#f0_7z" transform="matrix(11,0,0,11,728.5,120.3)" />
<use xlink:href="#f0_7v" transform="matrix(11,0,0,11,740.6,120.3)" />
<use xlink:href="#f0_77" transform="matrix(11,0,0,11,749.4,120.3)" />
<use xlink:href="#f0_9d" transform="matrix(11,0,0,11,757.5,120.3)" />
<use xlink:href="#f0_9d" transform="matrix(11,0,0,11,765.5,120.3)" />
<use xlink:href="#f0_7z" transform="matrix(11,0,0,11,773.6,120.3)" />
<use xlink:href="#f0_b1" transform="matrix(11,0,0,11,782,120.3)" />
<use xlink:href="#f0_a8" transform="matrix(11,0,0,11,791.9,120.3)" />
<use xlink:href="#f0_9q" transform="matrix(11,0,0,11,795.9,120.3)" />
<use xlink:href="#f0_a5" transform="matrix(11,0,0,11,800,120.3)" />
<use xlink:href="#f0_7z" transform="matrix(11,0,0,11,807.3,120.3)" />
<use xlink:href="#f0_bf" transform="matrix(11,0,0,11,819.4,120.3)" />
<use xlink:href="#f0_7z" transform="matrix(11,0,0,11,824.9,120.3)" />
<use xlink:href="#f0_7z" transform="matrix(11,0,0,11,833.3,120.3)" />
<use xlink:href="#f0_bf" transform="matrix(11,0,0,11,841.7,120.3)" />
<use xlink:href="#f0_9n" transform="matrix(11,0,0,11,847.2,120.3)" />
<use xlink:href="#f0_nt" transform="matrix(11,0,0,11,856,120.3)" />
<use xlink:href="#f2_3d" transform="matrix(11,0,0,11,82.5,144.9)" />
<use xlink:href="#f0_5" transform="matrix(11,0,0,11,110,144.9)" />
<use xlink:href="#f0_7k" transform="matrix(11,0,0,11,119.9,144.9)" />
<use xlink:href="#f0_am" transform="matrix(11,0,0,11,128.7,144.9)" />
<use xlink:href="#f0_c6" transform="matrix(11,0,0,11,137.5,144.9)" />
<use xlink:href="#f0_bf" transform="matrix(11,0,0,11,146.3,144.9)" />
<use xlink:href="#f0_s3" transform="matrix(11,0,0,11,156.9,144.9)" />
<use xlink:href="#f0_s2" transform="matrix(11,0,0,11,165.4,144.9)" />
<use xlink:href="#f0_ae" transform="matrix(11,0,0,11,178.9,144.9)" />
<use xlink:href="#f0_co" transform="matrix(11,0,0,11,192.5,144.9)" />
<use xlink:href="#f0_77" transform="matrix(11,0,0,11,200.2,144.9)" />
<use xlink:href="#f0_bf" transform="matrix(11,0,0,11,213.3,144.9)" />
<use xlink:href="#f0_9n" transform="matrix(11,0,0,11,218.8,144.9)" />
<use xlink:href="#f0_7z" transform="matrix(11,0,0,11,227.6,144.9)" />
<use xlink:href="#f0_7v" transform="matrix(11,0,0,11,241.2,144.9)" />
<use xlink:href="#f0_9q" transform="matrix(11,0,0,11,250,144.9)" />
<use xlink:href="#f0_af" transform="matrix(11,0,0,11,254,144.9)" />
<use xlink:href="#f0_am" transform="matrix(11,0,0,11,262.8,144.9)" />
<use xlink:href="#f0_b5" transform="matrix(11,0,0,11,271.6,144.9)" />
<use xlink:href="#f0_77" transform="matrix(11,0,0,11,278.2,144.9)" />
<use xlink:href="#f0_c6" transform="matrix(11,0,0,11,286.3,144.9)" />
<use xlink:href="#f0_b1" transform="matrix(11,0,0,11,295.1,144.9)" />
<use xlink:href="#f0_b5" transform="matrix(11,0,0,11,301,144.9)" />
<use xlink:href="#f0_b5" transform="matrix(11,0,0,11,312.7,144.9)" />
<use xlink:href="#f0_c6" transform="matrix(11,0,0,11,319.3,144.9)" />
<use xlink:href="#f0_7v" transform="matrix(11,0,0,11,328.1,144.9)" />
<use xlink:href="#f0_7v" transform="matrix(11,0,0,11,336.9,144.9)" />
<use xlink:href="#f0_7z" transform="matrix(11,0,0,11,345.7,144.9)" />
<use xlink:href="#f0_af" transform="matrix(11,0,0,11,354.1,144.9)" />
<use xlink:href="#f0_a8" transform="matrix(11,0,0,11,362.9,144.9)" />
<use xlink:href="#f0_co" transform="matrix(11,0,0,11,366.9,144.9)" />
<use xlink:href="#f0_c6" transform="matrix(11,0,0,11,379.7,144.9)" />
<use xlink:href="#f0_af" transform="matrix(11,0,0,11,388.5,144.9)" />
<use xlink:href="#f0_7v" transform="matrix(11,0,0,11,397.3,144.9)" />
<use xlink:href="#f0_7z" transform="matrix(11,0,0,11,406.1,144.9)" />
<use xlink:href="#f0_b1" transform="matrix(11,0,0,11,414.5,144.9)" />
<use xlink:href="#f0_ci" transform="matrix(11,0,0,11,420.4,144.9)" />
<use xlink:href="#f0_7z" transform="matrix(11,0,0,11,432.4,144.9)" />
<use xlink:href="#f0_af" transform="matrix(11,0,0,11,440.8,144.9)" />
<use xlink:href="#f0_bf" transform="matrix(11,0,0,11,449.7,144.9)" />
<use xlink:href="#f0_ae" transform="matrix(11,0,0,11,460.3,144.9)" />
<use xlink:href="#f0_77" transform="matrix(11,0,0,11,473.8,144.9)" />
<use xlink:href="#f0_b5" transform="matrix(11,0,0,11,481.5,144.9)" />
<use xlink:href="#f0_b5" transform="matrix(11,0,0,11,488.1,144.9)" />
<use xlink:href="#f0_7z" transform="matrix(11,0,0,11,499.9,144.9)" />
<use xlink:href="#f0_cn" transform="matrix(11,0,0,11,508.3,144.9)" />
<use xlink:href="#f0_bf" transform="matrix(11,0,0,11,515.6,144.9)" />
<use xlink:href="#f0_9q" transform="matrix(11,0,0,11,521.1,144.9)" />
<use xlink:href="#f0_af" transform="matrix(11,0,0,11,525.1,144.9)" />
<use xlink:href="#f0_7l" transform="matrix(11,0,0,11,533.9,144.9)" />
<use xlink:href="#f0_bf" transform="matrix(11,0,0,11,540.9,144.9)" />
<use xlink:href="#f0_9q" transform="matrix(11,0,0,11,546.4,144.9)" />
<use xlink:href="#f0_am" transform="matrix(11,0,0,11,550.4,144.9)" />
<use xlink:href="#f0_af" transform="matrix(11,0,0,11,559.2,144.9)" />
<use xlink:href="#f0_89" transform="matrix(11,0,0,11,573.3,144.9)" />
<use xlink:href="#f0_b1" transform="matrix(11,0,0,11,578.5,144.9)" />
<use xlink:href="#f0_am" transform="matrix(11,0,0,11,584.3,144.9)" />
<use xlink:href="#f0_ae" transform="matrix(11,0,0,11,593.1,144.9)" />
<use xlink:href="#f0_bf" transform="matrix(11,0,0,11,611.8,144.9)" />
<use xlink:href="#f0_9n" transform="matrix(11,0,0,11,617.3,144.9)" />
<use xlink:href="#f0_7z" transform="matrix(11,0,0,11,626.1,144.9)" />
<use xlink:href="#f0_7z" transform="matrix(11,0,0,11,639.6,144.9)" />
<use xlink:href="#f0_77" transform="matrix(11,0,0,11,648,144.9)" />
<use xlink:href="#f0_b1" transform="matrix(11,0,0,11,656.1,144.9)" />
<use xlink:href="#f0_bf" transform="matrix(11,0,0,11,662,144.9)" />
<use xlink:href="#f0_9n" transform="matrix(11,0,0,11,667.5,144.9)" />
<use xlink:href="#f0_nt" transform="matrix(11,0,0,11,676.3,144.9)" />
<use xlink:href="#f0_2n" transform="matrix(11,0,0,11,690.9,144.9)" />
<use xlink:href="#f0_am" transform="matrix(11,0,0,11,698.6,144.9)" />
<use xlink:href="#f0_ae" transform="matrix(11,0,0,11,707.4,144.9)" />
<use xlink:href="#f0_7z" transform="matrix(11,0,0,11,720.6,144.9)" />
<use xlink:href="#f0_am" transform="matrix(11,0,0,11,734.1,144.9)" />
<use xlink:href="#f0_89" transform="matrix(11,0,0,11,742.9,144.9)" />
<use xlink:href="#f0_bf" transform="matrix(11,0,0,11,753.2,144.9)" />
<use xlink:href="#f0_9n" transform="matrix(11,0,0,11,758.7,144.9)" />
<use xlink:href="#f0_7z" transform="matrix(11,0,0,11,767.5,144.9)" />
<use xlink:href="#f0_ae" transform="matrix(11,0,0,11,775.9,144.9)" />
<use xlink:href="#f0_7z" transform="matrix(11,0,0,11,794.6,144.9)" />
<use xlink:href="#f0_ch" transform="matrix(11,0,0,11,803,144.9)" />
<use xlink:href="#f0_am" transform="matrix(11,0,0,11,810.7,144.9)" />
<use xlink:href="#f0_a8" transform="matrix(11,0,0,11,819.1,144.9)" />
<use xlink:href="#f0_ch" transform="matrix(11,0,0,11,823.2,144.9)" />
<use xlink:href="#f0_7z" transform="matrix(11,0,0,11,830.9,144.9)" />
<use xlink:href="#f0_7v" transform="matrix(11,0,0,11,839.3,144.9)" />
<use xlink:href="#f0_9q" transform="matrix(11,0,0,11,852.8,144.9)" />
<use xlink:href="#f0_af" transform="matrix(11,0,0,11,856.5,144.9)" />
<use xlink:href="#f0_bf" transform="matrix(11,0,0,11,865.3,144.9)" />
<use xlink:href="#f0_am" transform="matrix(11,0,0,11,870.8,144.9)" />
<use xlink:href="#f0_7k" transform="matrix(11,0,0,11,110,168.3)" />
<use xlink:href="#f0_9q" transform="matrix(11,0,0,11,118.8,168.3)" />
<use xlink:href="#f0_b1" transform="matrix(11,0,0,11,122.9,168.3)" />
<use xlink:href="#f0_7v" transform="matrix(11,0,0,11,128.7,168.3)" />
<use xlink:href="#f0_b5" transform="matrix(11,0,0,11,137.5,168.3)" />
<use xlink:href="#f0_nt" transform="matrix(11,0,0,11,144.1,168.3)" />
<use xlink:href="#f2_3d" transform="matrix(11,0,0,11,82.5,192.9)" />
<use xlink:href="#f0_2t" transform="matrix(11,0,0,11,110,192.9)" />
<use xlink:href="#f0_9n" transform="matrix(11,0,0,11,118.1,192.9)" />
<use xlink:href="#f0_7z" transform="matrix(11,0,0,11,126.9,192.9)" />
<use xlink:href="#f0_89" transform="matrix(11,0,0,11,139,192.9)" />
<use xlink:href="#f0_9q" transform="matrix(11,0,0,11,144.1,192.9)" />
<use xlink:href="#f0_b1" transform="matrix(11,0,0,11,148.1,192.9)" />
<use xlink:href="#f0_b5" transform="matrix(11,0,0,11,154,192.9)" />
<use xlink:href="#f0_bf" transform="matrix(11,0,0,11,160.6,192.9)" />
<use xlink:href="#f0_ae" transform="matrix(11,0,0,11,169.8,192.9)" />
<use xlink:href="#f0_77" transform="matrix(11,0,0,11,183.3,192.9)" />
<use xlink:href="#f0_ae" transform="matrix(11,0,0,11,191.4,192.9)" />
<use xlink:href="#f0_ae" transform="matrix(11,0,0,11,204.9,192.9)" />
<use xlink:href="#f0_77" transform="matrix(11,0,0,11,218.5,192.9)" />
<use xlink:href="#f0_a8" transform="matrix(11,0,0,11,226.6,192.9)" />
<use xlink:href="#f0_b5" transform="matrix(11,0,0,11,230.5,192.9)" />
<use xlink:href="#f0_ci" transform="matrix(11,0,0,11,240.8,192.9)" />
<use xlink:href="#f0_7z" transform="matrix(11,0,0,11,252.9,192.9)" />
<use xlink:href="#f0_b1" transform="matrix(11,0,0,11,261.3,192.9)" />
<use xlink:href="#f0_7z" transform="matrix(11,0,0,11,267.2,192.9)" />
<use xlink:href="#f0_b5" transform="matrix(11,0,0,11,279.5,192.9)" />
<use xlink:href="#f0_ae" transform="matrix(11,0,0,11,285.7,192.9)" />
<use xlink:href="#f0_77" transform="matrix(11,0,0,11,299.3,192.9)" />
<use xlink:href="#f0_a8" transform="matrix(11,0,0,11,307.4,192.9)" />
<use xlink:href="#f0_a8" transform="matrix(11,0,0,11,311,192.9)" />
<use xlink:href="#f0_77" transform="matrix(11,0,0,11,318.7,192.9)" />
<use xlink:href="#f0_af" transform="matrix(11,0,0,11,326.8,192.9)" />
<use xlink:href="#f0_7v" transform="matrix(11,0,0,11,335.6,192.9)" />
<use xlink:href="#f0_b5" transform="matrix(11,0,0,11,348,192.9)" />
<use xlink:href="#f0_9n" transform="matrix(11,0,0,11,354.6,192.9)" />
<use xlink:href="#f0_b1" transform="matrix(11,0,0,11,363.5,192.9)" />
<use xlink:href="#f0_7z" transform="matrix(11,0,0,11,369.3,192.9)" />
<use xlink:href="#f0_ci" transform="matrix(11,0,0,11,377.7,192.9)" />
<use xlink:href="#f0_oj" transform="matrix(11,0,0,11,389.9,192.9)" />
<use xlink:href="#f0_a8" transform="matrix(11,0,0,11,395.1,192.9)" />
<use xlink:href="#f0_9q" transform="matrix(11,0,0,11,399.1,192.9)" />
<use xlink:href="#f0_a5" transform="matrix(11,0,0,11,403.1,192.9)" />
<use xlink:href="#f0_7z" transform="matrix(11,0,0,11,410.4,192.9)" />
<use xlink:href="#f0_nt" transform="matrix(11,0,0,11,418.8,192.9)" />
<use xlink:href="#f0_2t" transform="matrix(11,0,0,11,426.9,192.9)" />
<use xlink:href="#f0_9n" transform="matrix(11,0,0,11,435,192.9)" />
<use xlink:href="#f0_7z" transform="matrix(11,0,0,11,443.8,192.9)" />
<use xlink:href="#f0_co" transform="matrix(11,0,0,11,452.2,192.9)" />
<use xlink:href="#f0_9n" transform="matrix(11,0,0,11,463.5,192.9)" />
<use xlink:href="#f0_77" transform="matrix(11,0,0,11,472.4,192.9)" />
<use xlink:href="#f0_7v" transform="matrix(11,0,0,11,480.4,192.9)" />
<use xlink:href="#f0_b5" transform="matrix(11,0,0,11,492.9,192.9)" />
<use xlink:href="#f0_ae" transform="matrix(11,0,0,11,499.5,192.9)" />
<use xlink:href="#f0_77" transform="matrix(11,0,0,11,513,192.9)" />
<use xlink:href="#f0_a8" transform="matrix(11,0,0,11,521.1,192.9)" />
<use xlink:href="#f0_a8" transform="matrix(11,0,0,11,525.1,192.9)" />
<use xlink:href="#f0_b5" transform="matrix(11,0,0,11,532.8,192.9)" />
<use xlink:href="#f0_9q" transform="matrix(11,0,0,11,539.4,192.9)" />
<use xlink:href="#f0_ct" transform="matrix(11,0,0,11,543.4,192.9)" />
<use xlink:href="#f0_7z" transform="matrix(11,0,0,11,550,192.9)" />
<use xlink:href="#f0_7v" transform="matrix(11,0,0,11,558.4,192.9)" />
<use xlink:href="#f0_89" transform="matrix(11,0,0,11,571.1,192.9)" />
<use xlink:href="#f0_am" transform="matrix(11,0,0,11,576.3,192.9)" />
<use xlink:href="#f0_b5" transform="matrix(11,0,0,11,585,192.9)" />
<use xlink:href="#f0_b5" transform="matrix(11,0,0,11,591.6,192.9)" />
<use xlink:href="#f0_9q" transform="matrix(11,0,0,11,598.2,192.9)" />
<use xlink:href="#f0_a8" transform="matrix(11,0,0,11,601.9,192.9)" />
<use xlink:href="#f0_b5" transform="matrix(11,0,0,11,605.9,192.9)" />
<use xlink:href="#f0_nt" transform="matrix(11,0,0,11,612.5,192.9)" />
<use xlink:href="#f2_3d" transform="matrix(11,0,0,11,82.5,217.5)" />
<use xlink:href="#f0_1x" transform="matrix(11,0,0,11,110,217.5)" />
<use xlink:href="#f0_77" transform="matrix(11,0,0,11,124.3,217.5)" />
<use xlink:href="#f0_ae" transform="matrix(11,0,0,11,132.4,217.5)" />
<use xlink:href="#f0_ae" transform="matrix(11,0,0,11,146,217.5)" />
<use xlink:href="#f0_77" transform="matrix(11,0,0,11,159.5,217.5)" />
<use xlink:href="#f0_a8" transform="matrix(11,0,0,11,167.6,217.5)" />
<use xlink:href="#f0_b5" transform="matrix(11,0,0,11,171.6,217.5)" />
<use xlink:href="#f0_7z" transform="matrix(11,0,0,11,181.9,217.5)" />
<use xlink:href="#f0_ch" transform="matrix(11,0,0,11,190.3,217.5)" />
<use xlink:href="#f0_am" transform="matrix(11,0,0,11,198,217.5)" />
<use xlink:href="#f0_a8" transform="matrix(11,0,0,11,206.4,217.5)" />
<use xlink:href="#f0_ch" transform="matrix(11,0,0,11,210.4,217.5)" />
<use xlink:href="#f0_7z" transform="matrix(11,0,0,11,218.1,217.5)" />
<use xlink:href="#f0_7v" transform="matrix(11,0,0,11,226.5,217.5)" />
<use xlink:href="#f0_bf" transform="matrix(11,0,0,11,239,217.5)" />
<use xlink:href="#f0_am" transform="matrix(11,0,0,11,244.5,217.5)" />
<use xlink:href="#f0_7k" transform="matrix(11,0,0,11,257,217.5)" />
<use xlink:href="#f0_7z" transform="matrix(11,0,0,11,265.8,217.5)" />
<use xlink:href="#f0_7l" transform="matrix(11,0,0,11,274.2,217.5)" />
<use xlink:href="#f0_am" transform="matrix(11,0,0,11,281.2,217.5)" />
<use xlink:href="#f0_ae" transform="matrix(11,0,0,11,290,217.5)" />
<use xlink:href="#f0_7z" transform="matrix(11,0,0,11,303.5,217.5)" />
<use xlink:href="#f0_ch" transform="matrix(11,0,0,11,315.6,217.5)" />
<use xlink:href="#f0_9q" transform="matrix(11,0,0,11,323.3,217.5)" />
<use xlink:href="#f0_ch" transform="matrix(11,0,0,11,327.3,217.5)" />
<use xlink:href="#f0_9q" transform="matrix(11,0,0,11,335,217.5)" />
<use xlink:href="#f0_ay" transform="matrix(11,0,0,11,339,217.5)" />
<use xlink:href="#f0_77" transform="matrix(11,0,0,11,347.8,217.5)" />
<use xlink:href="#f0_b1" transform="matrix(11,0,0,11,355.9,217.5)" />
<use xlink:href="#f0_am" transform="matrix(11,0,0,11,361.8,217.5)" />
<use xlink:href="#f0_c6" transform="matrix(11,0,0,11,370.6,217.5)" />
<use xlink:href="#f0_b5" transform="matrix(11,0,0,11,379.4,217.5)" />
<use xlink:href="#f0_nt" transform="matrix(11,0,0,11,385.6,217.5)" />
<use xlink:href="#f0_2t" transform="matrix(11,0,0,11,393.7,217.5)" />
<use xlink:href="#f0_9n" transform="matrix(11,0,0,11,401.7,217.5)" />
<use xlink:href="#f0_9q" transform="matrix(11,0,0,11,410.5,217.5)" />
<use xlink:href="#f0_b5" transform="matrix(11,0,0,11,414.5,217.5)" />
<use xlink:href="#f3_ay" transform="matrix(11,0,0,11,425.1,217.5)" />
<use xlink:href="#f3_b1" transform="matrix(11,0,0,11,433.9,217.5)" />
<use xlink:href="#f3_am" transform="matrix(11,0,0,11,439.8,217.5)" />
<use xlink:href="#f3_bf" transform="matrix(11,0,0,11,448.6,217.5)" />
<use xlink:href="#f3_7z" transform="matrix(11,0,0,11,454.1,217.5)" />
<use xlink:href="#f3_7l" transform="matrix(11,0,0,11,462.5,217.5)" />
<use xlink:href="#f3_bf" transform="matrix(11,0,0,11,469.5,217.5)" />
<use xlink:href="#f3_7z" transform="matrix(11,0,0,11,475,217.5)" />
<use xlink:href="#f3_7v" transform="matrix(11,0,0,11,483.8,217.5)" />
<use xlink:href="#f3_bf" transform="matrix(11,0,0,11,496.2,217.5)" />
<use xlink:href="#f3_9n" transform="matrix(11,0,0,11,501.7,217.5)" />
<use xlink:href="#f3_7z" transform="matrix(11,0,0,11,510.5,217.5)" />
<use xlink:href="#f3_9q" transform="matrix(11,0,0,11,518.9,217.5)" />
<use xlink:href="#f3_b1" transform="matrix(11,0,0,11,523,217.5)" />
<use xlink:href="#f3_c6" transform="matrix(11,0,0,11,532.5,217.5)" />
<use xlink:href="#f3_af" transform="matrix(11,0,0,11,541.3,217.5)" />
<use xlink:href="#f3_7k" transform="matrix(11,0,0,11,550.1,217.5)" />
<use xlink:href="#f3_am" transform="matrix(11,0,0,11,558.9,217.5)" />
<use xlink:href="#f3_b1" transform="matrix(11,0,0,11,567.7,217.5)" />
<use xlink:href="#f3_af" transform="matrix(11,0,0,11,573.6,217.5)" />
<use xlink:href="#f3_co" transform="matrix(11,0,0,11,586.1,217.5)" />
<use xlink:href="#f3_am" transform="matrix(11,0,0,11,593.8,217.5)" />
<use xlink:href="#f3_c6" transform="matrix(11,0,0,11,602.6,217.5)" />
<use xlink:href="#f3_af" transform="matrix(11,0,0,11,611.4,217.5)" />
<use xlink:href="#f3_9d" transform="matrix(11,0,0,11,620.2,217.5)" />
<use xlink:href="#f3_9q" transform="matrix(11,0,0,11,631.9,217.5)" />
<use xlink:href="#f3_af" transform="matrix(11,0,0,11,635.9,217.5)" />
<use xlink:href="#f3_b5" transform="matrix(11,0,0,11,644.7,217.5)" />
<use xlink:href="#f3_9q" transform="matrix(11,0,0,11,651.3,217.5)" />
<use xlink:href="#f3_7v" transform="matrix(11,0,0,11,655.3,217.5)" />
<use xlink:href="#f3_7z" transform="matrix(11,0,0,11,664.1,217.5)" />
<use xlink:href="#f3_bf" transform="matrix(11,0,0,11,676.2,217.5)" />
<use xlink:href="#f3_9n" transform="matrix(11,0,0,11,681.7,217.5)" />
<use xlink:href="#f3_7z" transform="matrix(11,0,0,11,690.5,217.5)" />
<use xlink:href="#f3_ae" transform="matrix(11,0,0,11,702.6,217.5)" />
<use xlink:href="#f3_am" transform="matrix(11,0,0,11,716.2,217.5)" />
<use xlink:href="#f3_bf" transform="matrix(11,0,0,11,725,217.5)" />
<use xlink:href="#f3_9n" transform="matrix(11,0,0,11,730.5,217.5)" />
<use xlink:href="#f3_7z" transform="matrix(11,0,0,11,739.3,217.5)" />
<use xlink:href="#f3_b1" transform="matrix(11,0,0,11,747.7,217.5)" />
<use xlink:href="#f3_nw" transform="matrix(11,0,0,11,753.9,217.5)" />
<use xlink:href="#f3_b5" transform="matrix(11,0,0,11,757.9,217.5)" />
<use xlink:href="#f3_7k" transform="matrix(11,0,0,11,768.2,217.5)" />
<use xlink:href="#f3_am" transform="matrix(11,0,0,11,777,217.5)" />
<use xlink:href="#f3_7v" transform="matrix(11,0,0,11,785.8,217.5)" />
<use xlink:href="#f3_co" transform="matrix(11,0,0,11,794.6,217.5)" />
<use xlink:href="#f3_nt" transform="matrix(11,0,0,11,802.3,217.5)" />
<use xlink:href="#f2_3d" transform="matrix(11,0,0,11,82.5,242.1)" />
<use xlink:href="#f4_2g" transform="matrix(11,0,0,11,110,242.1)" />
<use xlink:href="#f4_am" transform="matrix(11,0,0,11,118.8,242.1)" />
<use xlink:href="#f4_c6" transform="matrix(11,0,0,11,128,242.1)" />
<use xlink:href="#f4_7l" transform="matrix(11,0,0,11,137.1,242.1)" />
<use xlink:href="#f4_9n" transform="matrix(11,0,0,11,144.1,242.1)" />
<use xlink:href="#f4_7z" transform="matrix(11,0,0,11,153.2,242.1)" />
<use xlink:href="#f4_7v" transform="matrix(11,0,0,11,161.7,242.1)" />
<use xlink:href="#f4_ae" transform="matrix(11,0,0,11,175.6,242.1)" />
<use xlink:href="#f4_77" transform="matrix(11,0,0,11,189.1,242.1)" />
<use xlink:href="#f4_ae" transform="matrix(11,0,0,11,197.5,242.1)" />
<use xlink:href="#f4_ae" transform="matrix(11,0,0,11,211.1,242.1)" />
<use xlink:href="#f4_77" transform="matrix(11,0,0,11,224.7,242.1)" />
<use xlink:href="#f4_a8" transform="matrix(11,0,0,11,233.1,242.1)" />
<use xlink:href="#f4_b5" transform="matrix(11,0,0,11,237.1,242.1)" />
<use xlink:href="#f0_am" transform="matrix(11,0,0,11,248.7,242.1)" />
<use xlink:href="#f0_89" transform="matrix(11,0,0,11,257.5,242.1)" />
<use xlink:href="#f0_5" transform="matrix(11,0,0,11,267.7,242.1)" />
<use xlink:href="#f0_c6" transform="matrix(11,0,0,11,277.6,242.1)" />
<use xlink:href="#f0_b5" transform="matrix(11,0,0,11,286.4,242.1)" />
<use xlink:href="#f0_bf" transform="matrix(11,0,0,11,293,242.1)" />
<use xlink:href="#f0_b1" transform="matrix(11,0,0,11,298.5,242.1)" />
<use xlink:href="#f0_77" transform="matrix(11,0,0,11,304.4,242.1)" />
<use xlink:href="#f0_a8" transform="matrix(11,0,0,11,312.5,242.1)" />
<use xlink:href="#f0_9q" transform="matrix(11,0,0,11,316.5,242.1)" />
<use xlink:href="#f0_77" transform="matrix(11,0,0,11,320.5,242.1)" />
<use xlink:href="#f0_b5" transform="matrix(11,0,0,11,333.3,242.1)" />
<use xlink:href="#f0_c6" transform="matrix(11,0,0,11,339.9,242.1)" />
<use xlink:href="#f0_b1" transform="matrix(11,0,0,11,348.8,242.1)" />
<use xlink:href="#f0_ch" transform="matrix(11,0,0,11,354.6,242.1)" />
<use xlink:href="#f0_9q" transform="matrix(11,0,0,11,362.3,242.1)" />
<use xlink:href="#f0_ch" transform="matrix(11,0,0,11,366.3,242.1)" />
<use xlink:href="#f0_7z" transform="matrix(11,0,0,11,374,242.1)" />
<use xlink:href="#f0_7v" transform="matrix(11,0,0,11,382.4,242.1)" />
<use xlink:href="#f0_7k" transform="matrix(11,0,0,11,396,242.1)" />
<use xlink:href="#f0_7z" transform="matrix(11,0,0,11,404.8,242.1)" />
<use xlink:href="#f0_7l" transform="matrix(11,0,0,11,413.2,242.1)" />
<use xlink:href="#f0_77" transform="matrix(11,0,0,11,420.2,242.1)" />
<use xlink:href="#f0_c6" transform="matrix(11,0,0,11,428.2,242.1)" />
<use xlink:href="#f0_b5" transform="matrix(11,0,0,11,437,242.1)" />
<use xlink:href="#f0_7z" transform="matrix(11,0,0,11,443.6,242.1)" />
<use xlink:href="#f0_am" transform="matrix(11,0,0,11,456.8,242.1)" />
<use xlink:href="#f0_89" transform="matrix(11,0,0,11,465.6,242.1)" />
<use xlink:href="#f0_a8" transform="matrix(11,0,0,11,475.9,242.1)" />
<use xlink:href="#f0_77" transform="matrix(11,0,0,11,479.9,242.1)" />
<use xlink:href="#f0_7l" transform="matrix(11,0,0,11,487.9,242.1)" />
<use xlink:href="#f0_a5" transform="matrix(11,0,0,11,494.9,242.1)" />
<use xlink:href="#f0_am" transform="matrix(11,0,0,11,507.3,242.1)" />
<use xlink:href="#f0_89" transform="matrix(11,0,0,11,516.1,242.1)" />
<use xlink:href="#f0_7l" transform="matrix(11,0,0,11,526.4,242.1)" />
<use xlink:href="#f0_am" transform="matrix(11,0,0,11,533.3,242.1)" />
<use xlink:href="#f0_ae" transform="matrix(11,0,0,11,542.2,242.1)" />
<use xlink:href="#f0_ay" transform="matrix(11,0,0,11,555.7,242.1)" />
<use xlink:href="#f0_7z" transform="matrix(11,0,0,11,564.5,242.1)" />
<use xlink:href="#f0_bf" transform="matrix(11,0,0,11,572.9,242.1)" />
<use xlink:href="#f0_9q" transform="matrix(11,0,0,11,578.4,242.1)" />
<use xlink:href="#f0_bf" transform="matrix(11,0,0,11,582.4,242.1)" />
<use xlink:href="#f0_9q" transform="matrix(11,0,0,11,587.9,242.1)" />
<use xlink:href="#f0_am" transform="matrix(11,0,0,11,592,242.1)" />
<use xlink:href="#f0_af" transform="matrix(11,0,0,11,600.8,242.1)" />
<use xlink:href="#f0_89" transform="matrix(11,0,0,11,614.7,242.1)" />
<use xlink:href="#f0_b1" transform="matrix(11,0,0,11,619.8,242.1)" />
<use xlink:href="#f0_am" transform="matrix(11,0,0,11,625.7,242.1)" />
<use xlink:href="#f0_ae" transform="matrix(11,0,0,11,634.5,242.1)" />
<use xlink:href="#f0_77" transform="matrix(11,0,0,11,652.8,242.1)" />
<use xlink:href="#f0_af" transform="matrix(11,0,0,11,660.8,242.1)" />
<use xlink:href="#f0_co" transform="matrix(11,0,0,11,669.6,242.1)" />
<use xlink:href="#f0_am" transform="matrix(11,0,0,11,682.4,242.1)" />
<use xlink:href="#f0_bf" transform="matrix(11,0,0,11,691.2,242.1)" />
<use xlink:href="#f0_9n" transform="matrix(11,0,0,11,696.7,242.1)" />
<use xlink:href="#f0_7z" transform="matrix(11,0,0,11,705.5,242.1)" />
<use xlink:href="#f0_b1" transform="matrix(11,0,0,11,713.9,242.1)" />
<use xlink:href="#f0_ae" transform="matrix(11,0,0,11,725,242.1)" />
<use xlink:href="#f0_77" transform="matrix(11,0,0,11,738.5,242.1)" />
<use xlink:href="#f0_ae" transform="matrix(11,0,0,11,746.6,242.1)" />
<use xlink:href="#f0_ae" transform="matrix(11,0,0,11,760.1,242.1)" />
<use xlink:href="#f0_77" transform="matrix(11,0,0,11,773.7,242.1)" />
<use xlink:href="#f0_a8" transform="matrix(11,0,0,11,781.7,242.1)" />
<use xlink:href="#f0_b5" transform="matrix(11,0,0,11,785.7,242.1)" />
<use xlink:href="#f0_nt" transform="matrix(11,0,0,11,792,242.1)" />
<use xlink:href="#f0_2t" transform="matrix(11,0,0,11,801.8,242.1)" />
<use xlink:href="#f0_9n" transform="matrix(11,0,0,11,809.9,242.1)" />
<use xlink:href="#f0_9q" transform="matrix(11,0,0,11,818.7,242.1)" />
<use xlink:href="#f0_b5" transform="matrix(11,0,0,11,822.7,242.1)" />
<use xlink:href="#f0_a8" transform="matrix(11,0,0,11,834.1,242.1)" />
<use xlink:href="#f0_77" transform="matrix(11,0,0,11,838.1,242.1)" />
<use xlink:href="#f0_7l" transform="matrix(11,0,0,11,846.1,242.1)" />
<use xlink:href="#f0_a5" transform="matrix(11,0,0,11,853.5,242.1)" />
<use xlink:href="#f0_am" transform="matrix(11,0,0,11,865.9,242.1)" />
<use xlink:href="#f0_89" transform="matrix(11,0,0,11,874.7,242.1)" />
<use xlink:href="#f0_7l" transform="matrix(11,0,0,11,110,265.2)" />
<use xlink:href="#f0_am" transform="matrix(11,0,0,11,117,265.2)" />
<use xlink:href="#f0_ae" transform="matrix(11,0,0,11,125.8,265.2)" />
<use xlink:href="#f0_ay" transform="matrix(11,0,0,11,139.4,265.2)" />
<use xlink:href="#f0_7z" transform="matrix(11,0,0,11,148.2,265.2)" />
<use xlink:href="#f0_bf" transform="matrix(11,0,0,11,156.6,265.2)" />
<use xlink:href="#f0_9q" transform="matrix(11,0,0,11,162.1,265.2)" />
<use xlink:href="#f0_bf" transform="matrix(11,0,0,11,166.1,265.2)" />
<use xlink:href="#f0_9q" transform="matrix(11,0,0,11,171.6,265.2)" />
<use xlink:href="#f0_am" transform="matrix(11,0,0,11,175.6,265.2)" />
<use xlink:href="#f0_af" transform="matrix(11,0,0,11,184.4,265.2)" />
<use xlink:href="#f0_ci" transform="matrix(11,0,0,11,196.9,265.2)" />
<use xlink:href="#f0_77" transform="matrix(11,0,0,11,208.9,265.2)" />
<use xlink:href="#f0_b5" transform="matrix(11,0,0,11,217,265.2)" />
<use xlink:href="#f0_77" transform="matrix(11,0,0,11,227.3,265.2)" />
<use xlink:href="#f0_b1" transform="matrix(11,0,0,11,239,265.2)" />
<use xlink:href="#f0_7z" transform="matrix(11,0,0,11,244.9,265.2)" />
<use xlink:href="#f0_b5" transform="matrix(11,0,0,11,253.3,265.2)" />
<use xlink:href="#f0_c6" transform="matrix(11,0,0,11,259.9,265.2)" />
<use xlink:href="#f0_a8" transform="matrix(11,0,0,11,268.8,265.2)" />
<use xlink:href="#f0_bf" transform="matrix(11,0,0,11,272.8,265.2)" />
<use xlink:href="#f0_am" transform="matrix(11,0,0,11,281.9,265.2)" />
<use xlink:href="#f0_89" transform="matrix(11,0,0,11,290.7,265.2)" />
<use xlink:href="#f4_j" transform="matrix(11,0,0,11,299.7,265.2)" />
<use xlink:href="#f4_am" transform="matrix(11,0,0,11,308.5,265.2)" />
<use xlink:href="#f4_af" transform="matrix(11,0,0,11,317.6,265.2)" />
<use xlink:href="#f4_bf" transform="matrix(11,0,0,11,326.8,265.2)" />
<use xlink:href="#f4_9q" transform="matrix(11,0,0,11,332.6,265.2)" />
<use xlink:href="#f4_af" transform="matrix(11,0,0,11,336.7,265.2)" />
<use xlink:href="#f4_7z" transform="matrix(11,0,0,11,345.8,265.2)" />
<use xlink:href="#f4_af" transform="matrix(11,0,0,11,354.2,265.2)" />
<use xlink:href="#f4_bf" transform="matrix(11,0,0,11,363.4,265.2)" />
<use xlink:href="#f4_77" transform="matrix(11,0,0,11,369.2,265.2)" />
<use xlink:href="#f4_a8" transform="matrix(11,0,0,11,377.7,265.2)" />
<use xlink:href="#f4_p" transform="matrix(11,0,0,11,385.4,265.2)" />
<use xlink:href="#f4_b1" transform="matrix(11,0,0,11,396,265.2)" />
<use xlink:href="#f4_9q" transform="matrix(11,0,0,11,401.9,265.2)" />
<use xlink:href="#f4_89" transform="matrix(11,0,0,11,405.9,265.2)" />
<use xlink:href="#f4_bf" transform="matrix(11,0,0,11,411.4,265.2)" />
<use xlink:href="#f4_nt" transform="matrix(11,0,0,11,417.2,265.2)" />
</g>
<image preserveAspectRatio="none" x="254" y="273" width="482" height="428" xlink:href="img/1.png" />
<image preserveAspectRatio="none" x="301" y="704" width="387" height="416" xlink:href="img/2.png" />
<g fill="#000000" >
<use xlink:href="#f5_l" transform="matrix(8,0,0,8,811.4,1187.9)" />
<use xlink:href="#f5_l" transform="matrix(8,0,0,8,818.2,1187.9)" />
</g>
<defs>
<path d="M321,-256c0,0,-13,0,-23,1c0,0,-10,0,-17,3c0,0,-7,2,-11,5c0,0,-5,3,-7,7c0,0,-40,76,-71,154c0,0,-31,78,-51,157c0,0,-21,81,-32,163c0,0,-10,83,-10,167c0,0,0,84,11,166c0,0,12,82,33,163c0,0,21,81,52,160c0,0,31,78,69,155c0,0,0,3,4,5c0,0,3,2,9,4c0,0,6,3,16,4c0,0,11,1,27,1c0,0,17,0,28,-2c0,0,10,-3,16,-6c0,0,6,-4,7,-10c0,0,1,-6,-2,-13c0,0,-71,-150,-106,-307c0,0,-34,-158,-34,-318c0,0,0,-160,35,-318c0,0,35,-156,103,-308c0,0,4,-9,4,-15c0,0,1,-6,-4,-10c0,0,-6,-4,-16,-6c0,0,-11,-2,-30,-2Z" 
id="f0_ov"
transform="scale(0.001,-0.001)" />

<path d="M133,-4c0,0,-29,0,-48,2C85,-2,67,0,57,3C57,3,46,6,43,12c0,0,-4,6,-2,14L224,939c0,0,1,8,7,14c0,0,6,6,19,9c0,0,12,4,31,6c0,0,19,2,47,2c0,0,29,0,47,-2c0,0,18,-2,29,-6c0,0,11,-3,14,-9c0,0,4,-6,2,-14L238,26c0,0,-2,-8,-8,-14c0,0,-6,-6,-18,-9c0,0,-12,-3,-32,-5c0,0,-19,-2,-47,-2Z" 
id="f1_1c"
transform="scale(0.001,-0.001)" />

<path d="M298,-16c0,0,-127,0,-191,64c0,0,-63,65,-63,191c0,0,0,45,9,100c0,0,8,54,28,109c0,0,19,55,50,107c0,0,31,51,76,91c0,0,44,40,103,63c0,0,59,24,136,24c0,0,30,0,58,-4c0,0,29,-5,53,-12c0,0,24,-8,42,-19c0,0,18,-10,27,-19c0,0,9,-8,12,-15c0,0,2,-7,2,-16c0,0,0,-18,-4,-39c0,0,-4,-22,-11,-41c0,0,-6,-20,-16,-33c0,0,-11,-13,-23,-13c0,0,-11,0,-21,9c0,0,-11,9,-26,20c0,0,-15,11,-38,21c0,0,-23,9,-60,9c0,0,-39,0,-70,-17c0,0,-30,-18,-53,-45c0,0,-23,-27,-38,-62c0,0,-15,-35,-24,-70c0,0,-10,-36,-14,-68c0,0,-4,-33,-4,-57c0,0,0,-60,26,-92c0,0,27,-31,84,-31c0,0,41,0,71,11c0,0,30,10,51,23c0,0,21,13,37,24c0,0,15,10,28,10c0,0,7,0,11,-6c0,0,4,-7,4,-20c0,0,0,-13,-4,-32c0,0,-3,-19,-8,-38c0,0,-5,-20,-11,-36c0,0,-7,-17,-17,-27c0,0,-10,-9,-31,-22C479,26,457,14,429,5c0,0,-29,-9,-62,-15c0,0,-33,-6,-69,-6Z" 
id="f1_7l"
transform="scale(0.001,-0.001)" />

<path d="M117,-4c0,0,-28,0,-45,2C72,-2,54,0,44,3C44,3,34,6,31,12c0,0,-3,5,-2,13l197,981c0,0,1,8,7,14c0,0,5,6,17,10c0,0,12,4,30,6c0,0,18,2,46,2c0,0,28,0,45,-2c0,0,18,-2,27,-6c0,0,10,-4,13,-10c0,0,3,-6,1,-14L359,736c0,0,-3,-16,-8,-35c0,0,-4,-18,-10,-37c0,0,-5,-18,-11,-35c0,0,-6,-17,-11,-31c0,0,14,24,39,48c0,0,25,24,56,43c0,0,32,20,69,32c0,0,37,12,76,12c0,0,50,0,85,-14c0,0,35,-14,58,-39c0,0,22,-26,32,-61c0,0,10,-35,10,-77c0,0,0,-27,-3,-53c0,0,-3,-27,-8,-53L651,25c0,0,-2,-8,-7,-13c0,0,-6,-6,-17,-9c0,0,-12,-3,-30,-5c0,0,-18,-2,-47,-2c0,0,-27,0,-44,2c0,0,-18,2,-28,5c0,0,-9,3,-13,9c0,0,-3,5,-2,13l81,399c0,0,3,16,5,36c0,0,2,20,2,35c0,0,0,17,-3,31c0,0,-4,14,-11,24c0,0,-7,10,-19,15c0,0,-12,6,-29,6c0,0,-30,0,-63,-19c0,0,-34,-20,-63,-54c0,0,-30,-33,-53,-78c0,0,-23,-45,-33,-95L217,25c0,0,-2,-8,-8,-13c0,0,-5,-6,-17,-9c0,0,-11,-3,-30,-5c0,0,-18,-2,-45,-2Z" 
id="f1_9n"
transform="scale(0.001,-0.001)" />

<path d="M275,-14c0,0,-44,0,-78,10c0,0,-34,8,-57,28c0,0,-23,20,-35,52c0,0,-12,31,-12,76c0,0,0,8,1,19c0,0,1,10,3,22c0,0,2,12,4,24c0,0,1,13,4,22l64,324H89c0,0,-10,0,-14,7c0,0,-5,6,-5,24c0,0,0,13,3,33c0,0,3,21,9,41c0,0,6,19,15,34c0,0,10,14,23,14h80l30,148c0,0,1,8,7,14c0,0,5,6,17,10c0,0,12,4,30,6c0,0,18,2,46,2c0,0,27,0,44,-2c0,0,18,-2,28,-6c0,0,10,-4,13,-10c0,0,3,-6,2,-14L387,716H532c0,0,12,0,17,-8c0,0,4,-9,4,-24c0,0,0,-8,-1,-19c0,0,-2,-12,-4,-26c0,0,-3,-13,-7,-26c0,0,-5,-14,-10,-25c0,0,-6,-11,-13,-18c0,0,-7,-7,-15,-7H357L294,251c0,0,-2,-11,-4,-26c0,0,-2,-15,-2,-25c0,0,0,-30,14,-43c0,0,14,-14,45,-14c0,0,18,0,31,2c0,0,12,3,22,6c0,0,9,4,16,6c0,0,7,3,13,3c0,0,6,0,10,-6c0,0,4,-5,4,-18c0,0,0,-14,-3,-32c0,0,-3,-18,-8,-35c0,0,-5,-17,-11,-30c0,0,-6,-14,-12,-21c0,0,-7,-7,-21,-13c0,0,-13,-5,-31,-9c0,0,-19,-4,-40,-7c0,0,-21,-3,-42,-3Z" 
id="f1_bf"
transform="scale(0.001,-0.001)" />

<path d="M104,-270c0,0,-32,0,-51,3c0,0,-20,2,-29,8c0,0,-9,6,-8,15c0,0,1,9,10,22L196,0L86,640c0,0,-2,10,-3,20c0,0,-2,11,-2,18c0,0,0,14,5,22c0,0,5,8,16,12c0,0,12,5,31,7c0,0,20,2,48,2c0,0,30,0,47,-1c0,0,18,-2,27,-5c0,0,9,-4,12,-12c0,0,3,-7,5,-18L341,219h2c0,0,37,56,68,113c0,0,30,57,56,117c0,0,25,59,46,120c0,0,22,61,39,123c0,0,2,7,7,13c0,0,5,5,18,9c0,0,12,3,32,5c0,0,20,2,52,2c0,0,48,0,66,-6c0,0,18,-6,18,-22c0,0,0,-10,-2,-22c0,0,-2,-12,-7,-24c0,0,-25,-69,-55,-142c0,0,-29,-73,-67,-151c0,0,-39,-77,-87,-160c0,0,-49,-83,-111,-172L234,-235c0,0,-7,-9,-17,-16c0,0,-10,-6,-26,-10c0,0,-15,-4,-37,-7c0,0,-21,-2,-50,-2Z" 
id="f1_co"
transform="scale(0.001,-0.001)" />

<path d="M359,131c0,0,37,0,67,15c0,0,30,14,53,39c0,0,24,25,41,58c0,0,17,32,28,68c0,0,12,37,17,73c0,0,5,37,5,70c0,0,0,32,-6,56c0,0,-7,24,-21,41c0,0,-15,17,-38,26c0,0,-22,9,-55,9c0,0,-37,0,-67,-15c0,0,-30,-14,-54,-39c0,0,-23,-25,-40,-57c0,0,-18,-33,-29,-68c0,0,-11,-36,-16,-73c0,0,-5,-37,-5,-71c0,0,0,-31,6,-56c0,0,6,-24,21,-41c0,0,14,-17,37,-26c0,0,23,-9,56,-9ZM339,-17c0,0,-76,0,-130,17c0,0,-55,17,-92,51c0,0,-36,34,-54,84c0,0,-18,50,-18,114c0,0,0,54,10,110c0,0,10,57,32,111c0,0,21,54,55,102c0,0,34,48,82,84c0,0,47,36,108,56c0,0,61,21,138,21c0,0,75,0,130,-17c0,0,55,-18,91,-52c0,0,37,-34,55,-83c0,0,18,-50,18,-114c0,0,0,-54,-10,-111c0,0,-10,-56,-32,-110c0,0,-22,-55,-56,-102c0,0,-34,-47,-81,-84C585,60,538,24,477,3c0,0,-62,-20,-138,-20Z" 
id="f1_am"
transform="scale(0.001,-0.001)" />

<path d="M210,-17c0,0,-36,0,-69,6c0,0,-32,5,-58,12C83,1,57,8,40,18C40,18,22,28,13,36c0,0,-6,6,-9,13C4,49,2,56,2,66c0,0,0,7,1,17c0,0,1,11,4,23c0,0,2,13,6,26c0,0,3,12,7,23c0,0,5,10,10,17c0,0,5,6,11,6c0,0,11,0,23,-9c0,0,13,-9,33,-20c0,0,20,-11,50,-20c0,0,29,-10,73,-10c0,0,31,0,54,7c0,0,23,7,39,20c0,0,15,13,22,29c0,0,7,16,7,35c0,0,0,26,-18,43c0,0,-19,16,-46,30c0,0,-28,14,-61,29c0,0,-33,15,-60,37c0,0,-28,22,-47,54c0,0,-18,32,-18,80c0,0,0,53,20,99c0,0,20,45,59,79c0,0,39,34,94,53c0,0,55,19,125,19c0,0,31,0,61,-4c0,0,29,-4,53,-11c0,0,23,-7,41,-15c0,0,17,-8,25,-17c0,0,9,-7,9,-25c0,0,0,-9,-3,-26c0,0,-2,-18,-8,-36c0,0,-5,-18,-12,-31c0,0,-8,-13,-17,-13c0,0,-9,0,-22,8c0,0,-14,7,-32,15c0,0,-19,9,-44,16c0,0,-25,6,-58,6c0,0,-27,0,-47,-6c0,0,-21,-7,-34,-19c0,0,-14,-11,-21,-27c0,0,-7,-15,-7,-33c0,0,0,-24,19,-39c0,0,19,-16,48,-30c0,0,28,-14,61,-28c0,0,33,-15,62,-38c0,0,28,-22,47,-54c0,0,19,-32,19,-81c0,0,0,-57,-22,-105c0,0,-21,-48,-63,-83C445,57,403,22,344,2c0,0,-60,-19,-134,-19Z" 
id="f1_b5"
transform="scale(0.001,-0.001)" />

<path d="M317,142c0,0,33,0,67,20c0,0,34,19,64,53c0,0,30,34,53,79c0,0,22,45,33,97l21,100c0,0,-26,42,-58,62c0,0,-31,21,-73,21c0,0,-32,0,-58,-15c0,0,-26,-15,-46,-40c0,0,-20,-25,-35,-58c0,0,-16,-33,-26,-68c0,0,-10,-35,-15,-72c0,0,-4,-36,-4,-67c0,0,0,-22,3,-42c0,0,3,-20,12,-36c0,0,9,-16,24,-25c0,0,15,-9,38,-9ZM253,-17c0,0,-60,0,-100,20c0,0,-39,21,-63,57c0,0,-24,35,-34,81c0,0,-10,45,-10,95c0,0,0,47,9,103c0,0,9,55,28,111c0,0,18,55,47,106c0,0,29,51,70,91c0,0,41,39,93,63c0,0,53,23,120,23c0,0,62,0,109,-25c0,0,48,-26,84,-75l12,59c0,0,3,15,23,22c0,0,21,7,66,7c0,0,23,0,38,-2c0,0,15,-2,23,-5c0,0,9,-4,12,-9c0,0,3,-6,1,-13L647,24C647,24,644,9,624,2c0,0,-21,-6,-66,-6c0,0,-23,0,-38,2c0,0,-14,1,-23,3c0,0,-9,4,-12,9c0,0,-2,6,-1,14l21,107c0,0,-11,-24,-36,-50c0,0,-24,-27,-58,-49c0,0,-34,-21,-74,-34c0,0,-41,-15,-84,-15Z" 
id="f1_77"
transform="scale(0.001,-0.001)" />

<path d="M254,-17c0,0,-53,0,-89,15c0,0,-36,14,-58,39c0,0,-22,25,-32,60c0,0,-10,35,-10,76c0,0,0,25,4,52c0,0,3,26,8,54l82,413c0,0,2,7,7,13c0,0,6,5,17,9c0,0,12,3,31,5c0,0,18,2,45,2c0,0,28,0,45,-2c0,0,18,-2,28,-5c0,0,9,-4,13,-9c0,0,3,-6,2,-13L267,291c0,0,-3,-16,-5,-34c0,0,-2,-18,-2,-34c0,0,0,-18,3,-32c0,0,4,-15,11,-25c0,0,7,-11,19,-16c0,0,11,-5,28,-5c0,0,30,0,64,19c0,0,33,20,63,55c0,0,30,35,53,82c0,0,24,47,36,102l57,289c0,0,0,7,6,13c0,0,6,5,18,9c0,0,11,3,30,5c0,0,18,2,45,2c0,0,28,0,45,-2c0,0,18,-2,28,-5c0,0,10,-4,13,-9c0,0,3,-6,2,-13L647,24c0,0,-1,-7,-6,-13c0,0,-5,-5,-15,-9c0,0,-10,-2,-26,-4c0,0,-16,-2,-39,-2c0,0,-23,0,-37,2c0,0,-15,2,-23,4c0,0,-8,4,-11,9c0,0,-2,6,0,13l20,108c0,0,-15,-26,-41,-52c0,0,-26,-27,-60,-49C409,31,375,9,335,-3c0,0,-40,-14,-81,-14Z" 
id="f1_c6"
transform="scale(0.001,-0.001)" />

<path d="M117,-4c0,0,-28,0,-45,2C72,-2,54,0,44,3C44,3,34,6,31,12c0,0,-3,5,-2,13L162,692c0,0,2,7,7,13c0,0,5,5,15,9c0,0,10,3,27,5c0,0,16,2,38,2c0,0,23,0,38,-2c0,0,14,-2,23,-5c0,0,8,-4,10,-9c0,0,3,-6,2,-13L300,586c0,0,18,32,42,58c0,0,23,27,50,47c0,0,26,20,55,31c0,0,28,11,56,11c0,0,11,0,23,-1c0,0,11,-2,21,-4c0,0,10,-2,18,-5c0,0,8,-4,12,-8c0,0,5,-4,5,-14c0,0,0,-5,-2,-18c0,0,-1,-14,-4,-32c0,0,-3,-18,-8,-37c0,0,-4,-19,-10,-35c0,0,-5,-16,-12,-27c0,0,-7,-10,-16,-10c0,0,-6,0,-13,2c0,0,-7,3,-15,6c0,0,-8,2,-18,5c0,0,-10,2,-22,2c0,0,-26,0,-54,-19c0,0,-29,-20,-55,-51c0,0,-27,-32,-47,-74c0,0,-21,-42,-30,-89L217,25c0,0,-2,-8,-8,-13c0,0,-5,-6,-17,-9c0,0,-11,-3,-30,-5c0,0,-18,-2,-45,-2Z" 
id="f1_b1"
transform="scale(0.001,-0.001)" />

<path d="M142,-256c0,0,-19,0,-30,2c0,0,-11,2,-16,6c0,0,-5,4,-4,10c0,0,0,6,4,15c0,0,69,151,104,308c0,0,35,158,35,318c0,0,0,160,-35,318c0,0,-35,157,-106,307c0,0,-3,7,-2,13c0,0,1,6,7,10c0,0,6,3,16,6c0,0,11,2,28,2c0,0,16,0,26,-1c0,0,10,-1,17,-4c0,0,6,-2,9,-4c0,0,3,-2,5,-5c0,0,76,-153,120,-315c0,0,44,-161,44,-329c0,0,0,-84,-11,-167c0,0,-10,-82,-31,-163c0,0,-21,-79,-51,-157c0,0,-30,-78,-71,-154c0,0,-2,-4,-6,-7c0,0,-5,-3,-12,-5c0,0,-7,-3,-17,-3c0,0,-9,-1,-23,-1Z" 
id="f0_ow"
transform="scale(0.001,-0.001)" />

<path d="M192,-6c0,0,-45,0,-62,16c0,0,-18,18,-18,69c0,0,0,53,18,71c0,0,18,17,64,17c0,0,45,0,62,-17c0,0,17,-17,17,-69c0,0,0,-53,-18,-70c0,0,-17,-17,-63,-17Z" 
id="f0_nt"
transform="scale(0.001,-0.001)" />

<path d="M273,157c0,0,-114,0,-193,80C80,237,0,317,0,431c0,0,0,112,80,192c0,0,79,80,193,80c0,0,113,0,192,-80c0,0,80,-80,80,-192c0,0,0,-114,-80,-194c0,0,-79,-80,-192,-80Z" 
id="f2_3d"
transform="scale(0.001,-0.001)" />

<path d="M372,-4c0,0,-18,0,-30,2c0,0,-13,2,-21,3c0,0,-7,3,-10,8c0,0,-3,4,-3,10V857H36c0,0,-6,0,-11,3c0,0,-5,2,-8,9c0,0,-2,6,-4,17c0,0,-2,10,-2,24c0,0,0,14,2,25c0,0,2,11,4,17c0,0,3,7,8,10c0,0,5,3,11,3H708c0,0,6,0,11,-3c0,0,5,-3,8,-10c0,0,4,-6,5,-17c0,0,2,-11,2,-25c0,0,0,-14,-2,-24c0,0,-1,-11,-5,-17c0,0,-3,-7,-8,-9c0,0,-5,-3,-11,-3H436V19c0,0,0,-6,-3,-10c0,0,-3,-5,-10,-8c0,0,-8,-1,-20,-3c0,0,-12,-2,-31,-2Z" 
id="f0_2t"
transform="scale(0.001,-0.001)" />

<path d="M176,-4c0,0,-18,0,-30,2c0,0,-12,1,-19,3c0,0,-7,3,-10,7c0,0,-3,4,-3,10v997c0,0,0,6,3,11c0,0,3,4,10,7c0,0,7,3,19,5c0,0,12,1,30,1c0,0,18,0,30,-1c0,0,12,-2,19,-5c0,0,7,-3,9,-7c0,0,3,-5,3,-10V614c0,0,53,56,107,83c0,0,54,28,108,28c0,0,67,0,113,-23c0,0,46,-23,74,-61c0,0,29,-38,41,-89c0,0,12,-52,12,-124V18c0,0,0,-6,-3,-10c0,0,-3,-4,-9,-7c0,0,-7,-2,-19,-3c0,0,-12,-2,-30,-2c0,0,-19,0,-30,2c0,0,-12,1,-19,3c0,0,-7,3,-10,7c0,0,-3,4,-3,10V412c0,0,0,58,-9,93c0,0,-9,35,-26,61c0,0,-17,25,-44,38c0,0,-27,14,-63,14c0,0,-46,0,-93,-33c0,0,-46,-33,-97,-96V18c0,0,0,-6,-3,-10c0,0,-2,-4,-9,-7c0,0,-7,-2,-19,-3c0,0,-12,-2,-30,-2Z" 
id="f0_9n"
transform="scale(0.001,-0.001)" />

<path d="M564,420c0,0,2,98,-43,153c0,0,-46,56,-134,56c0,0,-46,0,-80,-18c0,0,-35,-17,-58,-45c0,0,-23,-29,-36,-67c0,0,-12,-37,-14,-79ZM405,-13c0,0,-83,0,-145,22c0,0,-62,24,-105,69c0,0,-42,46,-64,114c0,0,-22,69,-22,160c0,0,0,87,23,156c0,0,22,69,64,117c0,0,43,48,102,74c0,0,60,26,134,26c0,0,79,0,135,-26c0,0,55,-25,91,-68c0,0,36,-43,53,-101c0,0,16,-58,16,-123V384c0,0,0,-29,-14,-41c0,0,-15,-13,-33,-13H199c0,0,0,-56,11,-100c0,0,12,-45,38,-77c0,0,26,-33,68,-50c0,0,41,-17,102,-17c0,0,48,0,85,8c0,0,37,8,65,17c0,0,27,10,44,18c0,0,18,8,27,8c0,0,5,0,9,-3c0,0,4,-2,7,-8c0,0,2,-5,3,-14c0,0,1,-9,1,-23c0,0,0,-9,-1,-16c0,0,0,-8,-2,-13c0,0,-1,-6,-3,-10c0,0,-3,-5,-7,-9c0,0,-4,-4,-24,-13c0,0,-20,-10,-53,-18c0,0,-32,-9,-74,-16c0,0,-42,-7,-90,-7Z" 
id="f0_7z"
transform="scale(0.001,-0.001)" />

<path d="M431,92c0,0,46,0,79,22c0,0,33,23,53,60c0,0,21,37,30,83c0,0,10,46,10,93c0,0,0,51,-8,100c0,0,-8,49,-28,86c0,0,-19,37,-51,60c0,0,-32,23,-80,23c0,0,-24,0,-47,-7c0,0,-23,-7,-47,-22c0,0,-24,-16,-50,-41c0,0,-25,-24,-55,-62V219c0,0,51,-62,98,-95c0,0,46,-32,96,-32ZM443,-13c0,0,-32,0,-59,7c0,0,-27,6,-53,19c0,0,-26,14,-52,36c0,0,-27,22,-56,52V18c0,0,0,-6,-3,-10c0,0,-3,-5,-9,-7c0,0,-7,-2,-17,-3c0,0,-10,-2,-26,-2c0,0,-15,0,-25,2c0,0,-11,1,-17,3c0,0,-7,2,-9,7c0,0,-3,4,-3,10v997c0,0,0,6,3,11c0,0,3,4,10,7c0,0,7,3,19,5c0,0,12,1,30,1c0,0,18,0,30,-1c0,0,12,-2,19,-5c0,0,7,-3,9,-7c0,0,3,-5,3,-10V614c0,0,30,31,58,52c0,0,28,20,55,34c0,0,27,13,54,19c0,0,27,6,57,6c0,0,73,0,125,-30c0,0,52,-29,84,-78c0,0,32,-48,47,-114c0,0,15,-66,15,-139c0,0,0,-87,-19,-157c0,0,-19,-70,-56,-119c0,0,-37,-49,-90,-76c0,0,-54,-25,-124,-25Z" 
id="f0_7k"
transform="scale(0.001,-0.001)" />

<path d="M176,-4c0,0,-18,0,-30,2c0,0,-12,1,-19,3c0,0,-7,3,-10,7c0,0,-3,4,-3,10V690c0,0,0,5,3,9c0,0,3,5,10,8c0,0,7,3,19,4c0,0,12,2,30,2c0,0,18,0,30,-2c0,0,12,-1,19,-4c0,0,7,-3,9,-8c0,0,3,-4,3,-9V18c0,0,0,-6,-3,-10c0,0,-2,-4,-9,-7c0,0,-7,-2,-19,-3c0,0,-12,-2,-30,-2Zm-1,846c0,0,-43,0,-59,15c0,0,-16,15,-16,58c0,0,0,43,16,59c0,0,17,16,61,16c0,0,43,0,59,-16c0,0,16,-15,16,-58c0,0,0,-43,-16,-58c0,0,-17,-16,-61,-16Z" 
id="f0_9q"
transform="scale(0.001,-0.001)" />

<path d="M346,-177c0,0,56,0,94,11c0,0,37,11,60,28c0,0,24,18,34,41c0,0,10,23,10,49c0,0,0,43,-36,65c0,0,-35,23,-95,25L239,48c0,0,-24,-19,-39,-35c0,0,-15,-16,-24,-31c0,0,-9,-16,-12,-30c0,0,-4,-15,-4,-31c0,0,0,-48,49,-73c0,0,50,-25,137,-25Zm-6,512c0,0,36,0,63,12c0,0,27,12,44,32c0,0,18,21,26,48c0,0,9,27,9,56c0,0,0,69,-38,107c0,0,-37,39,-107,39c0,0,-35,0,-62,-12c0,0,-26,-12,-44,-33c0,0,-17,-21,-26,-48c0,0,-8,-28,-8,-58c0,0,0,-66,37,-104c0,0,38,-39,106,-39Zm0,-606c0,0,-81,0,-138,14c0,0,-57,14,-94,38c0,0,-36,24,-52,57c0,0,-17,33,-17,72c0,0,0,24,6,47c0,0,6,24,18,43c0,0,13,21,31,40c0,0,18,19,42,38c0,0,-36,19,-54,47c0,0,-17,28,-17,61c0,0,0,45,18,81c0,0,19,36,46,64c0,0,-23,28,-36,62c0,0,-14,35,-14,84c0,0,0,58,20,104c0,0,19,45,53,77c0,0,35,31,83,48c0,0,48,17,105,17c0,0,30,0,57,-4c0,0,26,-3,49,-9H649c0,0,13,0,19,-12c0,0,7,-13,7,-38c0,0,0,-26,-7,-37c0,0,-7,-12,-19,-12H553c0,0,26,-27,37,-60c0,0,10,-32,10,-68c0,0,0,-58,-18,-103c0,0,-19,-45,-54,-76c0,0,-34,-31,-82,-47c0,0,-48,-16,-106,-16c0,0,-41,0,-78,10c0,0,-37,11,-57,28c0,0,-14,-14,-22,-31c0,0,-9,-17,-9,-39c0,0,0,-27,24,-44c0,0,25,-17,65,-18l175,-8c0,0,50,-1,92,-14c0,0,41,-12,72,-35c0,0,31,-22,48,-55c0,0,17,-34,17,-76c0,0,0,-47,-20,-88c0,0,-19,-42,-59,-74c0,0,-40,-31,-102,-50c0,0,-61,-18,-146,-18Z" 
id="f0_9d"
transform="scale(0.001,-0.001)" />

<path d="M272,-13c0,0,-35,0,-68,6c0,0,-32,6,-58,13c0,0,-26,9,-44,18c0,0,-17,10,-26,17c0,0,-8,8,-12,21c0,0,-3,14,-3,37c0,0,0,14,1,24c0,0,2,9,4,15c0,0,2,6,6,9c0,0,4,3,10,3c0,0,8,0,24,-11c0,0,16,-10,39,-22c0,0,24,-12,56,-22c0,0,32,-10,74,-10c0,0,31,0,56,7c0,0,26,6,44,19c0,0,19,14,29,34c0,0,10,20,10,47c0,0,0,29,-14,48c0,0,-15,19,-39,34c0,0,-24,15,-53,27c0,0,-30,11,-62,24c0,0,-32,13,-62,29c0,0,-30,16,-54,39c0,0,-24,23,-38,55c0,0,-15,32,-15,77c0,0,0,40,16,76c0,0,15,36,45,63c0,0,31,28,77,44c0,0,46,17,107,17c0,0,27,0,54,-5c0,0,26,-5,48,-11c0,0,22,-7,37,-15c0,0,15,-8,23,-14c0,0,8,-6,11,-11c0,0,2,-4,3,-10c0,0,1,-5,2,-14c0,0,2,-8,2,-20c0,0,0,-12,-2,-22c0,0,-1,-9,-3,-15c0,0,-3,-6,-7,-8c0,0,-3,-3,-8,-3c0,0,-7,0,-19,8c0,0,-13,8,-33,18c0,0,-20,9,-47,17c0,0,-28,9,-63,9c0,0,-31,0,-55,-7c0,0,-24,-7,-39,-20c0,0,-15,-13,-23,-31c0,0,-8,-18,-8,-39c0,0,0,-29,15,-49c0,0,15,-20,39,-35c0,0,24,-15,54,-27c0,0,31,-11,62,-24c0,0,32,-13,63,-29c0,0,31,-15,55,-38c0,0,24,-22,38,-53c0,0,15,-32,15,-75c0,0,0,-51,-19,-92c0,0,-19,-40,-54,-68C463,42,428,15,379,1c0,0,-48,-14,-107,-14Z" 
id="f0_b5"
transform="scale(0.001,-0.001)" />

<path d="M339,-13c0,0,-52,0,-90,13c0,0,-37,14,-61,42c0,0,-24,28,-34,71c0,0,-11,43,-11,101V607H49c0,0,-11,0,-18,12c0,0,-7,12,-7,39c0,0,0,14,2,24c0,0,2,10,5,16c0,0,3,7,8,9c0,0,5,3,11,3h93V870c0,0,0,5,2,9c0,0,3,5,10,8c0,0,7,4,19,5c0,0,12,2,30,2c0,0,19,0,31,-2c0,0,11,-1,18,-5c0,0,7,-3,10,-8c0,0,3,-4,3,-9V710H438c0,0,6,0,10,-3c0,0,5,-2,8,-9c0,0,4,-6,5,-16c0,0,1,-10,1,-24c0,0,0,-27,-6,-39c0,0,-7,-12,-18,-12H266V232c0,0,0,-69,20,-105c0,0,21,-35,74,-35c0,0,17,0,30,3c0,0,14,4,24,7c0,0,10,4,18,7c0,0,7,4,13,4c0,0,4,0,7,-2c0,0,4,-2,6,-7c0,0,2,-5,3,-14c0,0,1,-9,1,-23c0,0,0,-22,-2,-34c0,0,-3,-13,-9,-19c0,0,-6,-6,-18,-11c0,0,-12,-4,-28,-8c0,0,-15,-3,-32,-5c0,0,-17,-3,-34,-3Z" 
id="f0_bf"
transform="scale(0.001,-0.001)" />

<path d="M176,-4c0,0,-18,0,-30,2c0,0,-12,1,-19,3c0,0,-7,3,-10,7c0,0,-3,4,-3,10v997c0,0,0,6,3,11c0,0,3,4,10,7c0,0,7,3,19,5c0,0,12,1,30,1c0,0,18,0,30,-1c0,0,12,-2,19,-5c0,0,7,-3,9,-7c0,0,3,-5,3,-11V18c0,0,0,-6,-3,-10c0,0,-2,-4,-9,-7c0,0,-7,-2,-19,-3c0,0,-12,-2,-30,-2Z" 
id="f0_a8"
transform="scale(0.001,-0.001)" />

<path d="M321,82c0,0,48,0,90,25c0,0,41,24,87,75V325H392c0,0,-50,0,-88,-9c0,0,-37,-9,-62,-25c0,0,-24,-17,-36,-41c0,0,-11,-23,-11,-54c0,0,0,-52,33,-83c0,0,33,-31,93,-31ZM301,-13c0,0,-53,0,-96,13c0,0,-43,14,-73,40c0,0,-30,26,-47,64c0,0,-17,38,-17,87c0,0,0,56,24,98c0,0,23,42,66,69c0,0,43,28,106,42c0,0,63,14,141,14h93v52c0,0,0,39,-9,69c0,0,-8,30,-26,50c0,0,-18,20,-47,30c0,0,-30,10,-72,10c0,0,-46,0,-82,-11c0,0,-36,-11,-63,-24c0,0,-27,-13,-46,-24c0,0,-18,-11,-27,-11c0,0,-6,0,-10,3c0,0,-5,3,-8,9c0,0,-3,6,-5,16c0,0,-1,9,-1,20c0,0,0,19,2,30c0,0,3,11,13,20c0,0,10,10,35,23c0,0,24,13,56,24c0,0,32,10,70,17c0,0,38,8,77,8c0,0,73,0,123,-17c0,0,51,-16,82,-48c0,0,32,-32,46,-79c0,0,14,-47,14,-110V18c0,0,0,-9,-6,-14c0,0,-6,-4,-16,-6c0,0,-11,-2,-31,-2c0,0,-19,0,-31,2c0,0,-12,2,-17,6c0,0,-5,5,-5,13V85c0,0,-44,-47,-98,-73c0,0,-54,-25,-115,-25Z" 
id="f0_77"
transform="scale(0.001,-0.001)" />

<path d="M176,-4c0,0,-18,0,-30,2c0,0,-12,1,-19,3c0,0,-7,3,-10,7c0,0,-3,4,-3,10V690c0,0,0,6,3,10c0,0,2,4,9,7c0,0,6,4,17,5c0,0,10,1,27,1c0,0,17,0,28,-1c0,0,10,-1,16,-5c0,0,6,-3,9,-7c0,0,3,-4,3,-10V601c0,0,56,64,112,94c0,0,57,30,114,30c0,0,67,0,113,-23c0,0,46,-23,74,-61c0,0,29,-38,41,-89c0,0,12,-52,12,-123V18c0,0,0,-6,-3,-10c0,0,-3,-4,-9,-7c0,0,-7,-2,-19,-3c0,0,-12,-2,-30,-2c0,0,-19,0,-30,2c0,0,-12,1,-19,3c0,0,-7,3,-10,7c0,0,-3,4,-3,10V412c0,0,0,58,-9,93c0,0,-9,35,-26,61c0,0,-17,25,-44,38c0,0,-27,14,-63,14c0,0,-46,0,-93,-33c0,0,-46,-33,-97,-96V18c0,0,0,-6,-3,-10c0,0,-2,-4,-9,-7c0,0,-7,-2,-19,-3c0,0,-12,-2,-30,-2Z" 
id="f0_af"
transform="scale(0.001,-0.001)" />

<path d="M366,92c0,0,25,0,48,7c0,0,22,6,46,22c0,0,24,16,50,41c0,0,26,24,56,61V492c0,0,-51,62,-97,94c0,0,-47,33,-98,33c0,0,-47,0,-79,-22c0,0,-33,-23,-54,-59c0,0,-20,-37,-30,-83c0,0,-9,-47,-9,-94c0,0,0,-51,8,-100c0,0,8,-48,27,-86c0,0,19,-38,52,-60c0,0,32,-23,80,-23ZM345,-13c0,0,-74,0,-127,28c0,0,-52,29,-84,78c0,0,-33,49,-48,115c0,0,-15,66,-15,139c0,0,0,86,19,156c0,0,19,70,55,119c0,0,37,50,91,76c0,0,54,27,125,27c0,0,59,0,108,-26c0,0,49,-26,97,-76v390c0,0,0,5,2,10c0,0,3,4,10,7c0,0,8,3,19,5c0,0,12,1,30,1c0,0,18,0,30,-1c0,0,12,-2,19,-5c0,0,7,-3,10,-7c0,0,3,-5,3,-10V18c0,0,0,-6,-2,-10c0,0,-3,-5,-9,-7c0,0,-7,-2,-17,-3c0,0,-10,-2,-25,-2c0,0,-16,0,-26,2c0,0,-11,1,-18,3c0,0,-6,2,-9,7c0,0,-3,4,-3,10v90c0,0,-53,-58,-110,-90c0,0,-58,-31,-125,-31Z" 
id="f0_7v"
transform="scale(0.001,-0.001)" />

<path d="M176,-4c0,0,-18,0,-30,2c0,0,-12,1,-19,3c0,0,-7,3,-10,7c0,0,-3,4,-3,10V690c0,0,0,6,3,10c0,0,2,4,9,7c0,0,6,4,17,5c0,0,10,1,27,1c0,0,17,0,28,-1c0,0,10,-1,16,-5c0,0,6,-3,9,-7c0,0,3,-4,3,-10V592c0,0,27,41,51,66c0,0,25,26,46,41c0,0,22,14,43,20c0,0,21,6,43,6c0,0,10,0,22,-2c0,0,12,-1,26,-4c0,0,13,-3,24,-6c0,0,11,-4,15,-8c0,0,5,-4,6,-7c0,0,2,-3,3,-9c0,0,1,-5,1,-15c0,0,0,-10,0,-27c0,0,0,-16,0,-28c0,0,-1,-11,-3,-17c0,0,-2,-6,-6,-10c0,0,-3,-3,-9,-3c0,0,-6,0,-15,3c0,0,-8,4,-19,7c0,0,-11,3,-24,6c0,0,-14,3,-29,3c0,0,-19,0,-37,-7c0,0,-18,-8,-37,-25c0,0,-20,-18,-42,-46c0,0,-21,-29,-48,-70V18c0,0,0,-6,-3,-10c0,0,-2,-4,-9,-7c0,0,-7,-2,-19,-3c0,0,-12,-2,-30,-2Z" 
id="f0_b1"
transform="scale(0.001,-0.001)" />

<path d="M429,92c0,0,47,0,80,22c0,0,33,23,54,60c0,0,20,38,30,84c0,0,10,46,10,93c0,0,0,52,-8,100c0,0,-8,48,-27,86c0,0,-19,37,-51,60c0,0,-32,22,-80,22c0,0,-24,0,-47,-7c0,0,-23,-7,-47,-23c0,0,-24,-15,-50,-40c0,0,-26,-25,-56,-62V220c0,0,51,-62,97,-95c0,0,45,-33,95,-33ZM176,-271c0,0,-18,0,-30,2c0,0,-12,1,-19,4c0,0,-7,3,-10,8c0,0,-3,4,-3,10V690c0,0,0,6,3,10c0,0,2,5,9,8c0,0,6,3,17,4c0,0,10,1,25,1c0,0,16,0,26,-1c0,0,10,-1,17,-4c0,0,6,-3,9,-7c0,0,3,-4,3,-11V601c0,0,30,31,59,54c0,0,28,23,57,39c0,0,28,15,59,23c0,0,30,8,63,8c0,0,74,0,125,-29c0,0,52,-28,84,-77c0,0,32,-50,47,-115c0,0,15,-65,15,-139c0,0,0,-88,-19,-158c0,0,-19,-70,-56,-119c0,0,-37,-49,-91,-75c0,0,-55,-26,-125,-26c0,0,-30,0,-55,6c0,0,-25,6,-50,18c0,0,-24,13,-48,32c0,0,-24,19,-51,46V-247c0,0,0,-6,-3,-10c0,0,-2,-5,-9,-8c0,0,-7,-3,-19,-4c0,0,-12,-2,-30,-2Z" 
id="f0_ay"
transform="scale(0.001,-0.001)" />

<path d="M324,-4c0,0,-23,0,-37,2c0,0,-15,1,-24,3c0,0,-9,3,-14,8c0,0,-4,6,-7,13L46,660c0,0,-4,11,-5,18c0,0,-2,8,-2,13c0,0,0,7,3,11c0,0,3,4,10,7c0,0,8,2,19,3c0,0,12,1,30,1c0,0,20,0,33,-1c0,0,13,-1,20,-4c0,0,6,-3,9,-8c0,0,3,-4,5,-11L330,136l2,-7l1,7L482,689c0,0,1,7,5,11c0,0,3,5,10,8c0,0,6,3,18,4c0,0,12,1,31,1c0,0,18,0,29,-1c0,0,12,-1,18,-4c0,0,7,-3,10,-7c0,0,3,-5,5,-11L768,136l1,-7l1,7L930,689c0,0,1,7,5,11c0,0,3,5,10,8c0,0,7,3,20,4c0,0,12,1,31,1c0,0,18,0,29,-1c0,0,11,-1,17,-4c0,0,6,-3,9,-6c0,0,3,-4,3,-11c0,0,0,-5,-2,-13c0,0,-1,-7,-5,-18L849,22c0,0,-2,-8,-7,-13c0,0,-5,-6,-13,-9c0,0,-9,-2,-24,-3c0,0,-15,-1,-37,-1c0,0,-23,0,-39,2c0,0,-15,1,-25,3c0,0,-9,3,-14,8c0,0,-4,6,-6,13L543,510l-2,6l-2,-6L409,22c0,0,-3,-8,-7,-13c0,0,-5,-6,-15,-9c0,0,-10,-2,-25,-3c0,0,-15,-1,-38,-1Z" 
id="f0_ci"
transform="scale(0.001,-0.001)" />

<path d="M401,90c0,0,54,0,93,19c0,0,40,20,65,55c0,0,26,35,37,84c0,0,12,48,12,106c0,0,0,55,-10,104c0,0,-10,48,-33,85c0,0,-23,36,-62,58c0,0,-40,21,-99,21c0,0,-54,0,-93,-20c0,0,-39,-19,-65,-54c0,0,-25,-36,-37,-85c0,0,-12,-48,-12,-106c0,0,0,-55,10,-103c0,0,10,-49,33,-85c0,0,24,-36,63,-58c0,0,39,-21,98,-21ZM395,-13c0,0,-82,0,-144,24c0,0,-61,25,-102,72c0,0,-41,47,-61,114c0,0,-21,67,-21,152c0,0,0,82,22,151c0,0,21,69,64,119c0,0,43,50,107,78c0,0,64,28,150,28c0,0,82,0,144,-25c0,0,61,-25,102,-72c0,0,41,-47,62,-114c0,0,20,-67,20,-151c0,0,0,-83,-21,-152c0,0,-22,-69,-65,-119C652,92,609,42,545,14c0,0,-65,-27,-150,-27Z" 
id="f0_am"
transform="scale(0.001,-0.001)" />

<path d="M351,-13c0,0,-67,0,-113,22c0,0,-46,22,-75,60c0,0,-28,39,-40,90c0,0,-13,51,-13,124V690c0,0,0,6,3,10c0,0,3,4,10,7c0,0,8,4,20,5c0,0,11,1,29,1c0,0,18,0,30,-1c0,0,12,-1,19,-5c0,0,7,-3,10,-7c0,0,3,-4,3,-10V299c0,0,0,-59,9,-94c0,0,8,-36,26,-61c0,0,18,-24,44,-38c0,0,27,-14,63,-14c0,0,46,0,92,33c0,0,46,32,98,95V690c0,0,0,6,2,10c0,0,3,4,10,7c0,0,8,4,19,5c0,0,12,1,30,1c0,0,18,0,30,-1c0,0,12,-1,19,-5c0,0,7,-3,10,-7c0,0,3,-4,3,-10V18c0,0,0,-6,-2,-10c0,0,-3,-4,-10,-7c0,0,-6,-2,-17,-3c0,0,-11,-2,-27,-2c0,0,-17,0,-28,2c0,0,-10,1,-17,3c0,0,-6,3,-8,7c0,0,-3,4,-3,10v89c0,0,-57,-63,-113,-92c0,0,-56,-28,-113,-28Z" 
id="f0_c6"
transform="scale(0.001,-0.001)" />

<path d="M307,-4c0,0,-29,0,-48,2c0,0,-18,2,-29,5c0,0,-10,4,-13,10c0,0,-3,6,-2,13L371,805H130c0,0,-11,0,-15,8c0,0,-4,8,-4,22c0,0,0,6,1,18c0,0,1,11,3,26c0,0,3,14,7,30c0,0,4,15,10,28c0,0,6,12,14,20c0,0,8,8,17,8H843c0,0,9,0,14,-8c0,0,5,-8,5,-23c0,0,0,-5,-1,-17c0,0,-1,-12,-4,-26c0,0,-3,-14,-7,-29c0,0,-4,-16,-9,-28c0,0,-6,-13,-14,-21c0,0,-8,-8,-17,-8H567L412,26c0,0,-2,-7,-8,-13c0,0,-6,-6,-18,-10c0,0,-13,-3,-32,-5c0,0,-19,-2,-47,-2Z" 
id="f1_2t"
transform="scale(0.001,-0.001)" />

<path d="M117,-4c0,0,-28,0,-45,2C72,-2,54,0,44,3C44,3,34,6,31,12c0,0,-3,5,-2,13L163,692c0,0,2,7,7,13c0,0,4,5,15,9c0,0,10,3,26,5c0,0,16,2,38,2c0,0,23,0,38,-2c0,0,14,-2,22,-5c0,0,9,-4,11,-9c0,0,3,-6,1,-13L300,582c0,0,15,26,42,53c0,0,26,27,60,49c0,0,34,22,74,36c0,0,39,13,83,13c0,0,52,0,87,-15c0,0,36,-15,58,-41c0,0,22,-27,31,-61c0,0,10,-35,10,-74c0,0,0,-26,-3,-52c0,0,-4,-26,-9,-54L650,25c0,0,-2,-8,-7,-13c0,0,-6,-6,-17,-9c0,0,-12,-3,-30,-5c0,0,-18,-2,-46,-2c0,0,-27,0,-45,2c0,0,-18,2,-27,5c0,0,-10,3,-14,9c0,0,-3,5,-2,13l82,399c0,0,3,18,5,37c0,0,2,19,2,33c0,0,0,34,-14,55c0,0,-14,22,-48,22c0,0,-30,0,-63,-19c0,0,-34,-20,-63,-53c0,0,-30,-33,-53,-78c0,0,-23,-44,-33,-94L217,25c0,0,-2,-8,-8,-13c0,0,-5,-6,-17,-9c0,0,-11,-3,-30,-5c0,0,-18,-2,-45,-2Z" 
id="f1_af"
transform="scale(0.001,-0.001)" />

<path d="M327,430c0,0,60,0,100,8c0,0,40,8,65,21c0,0,24,14,36,32c0,0,11,18,11,39c0,0,0,30,-24,50c0,0,-23,19,-68,19c0,0,-37,0,-67,-13c0,0,-29,-13,-51,-36c0,0,-23,-23,-39,-54c0,0,-16,-31,-26,-66Zm3,-447c0,0,-72,0,-125,15c0,0,-54,14,-89,45c0,0,-36,30,-54,78c0,0,-18,47,-18,112c0,0,0,50,9,107c0,0,10,57,31,113c0,0,20,56,53,106c0,0,33,51,80,90c0,0,46,38,108,61c0,0,61,23,139,23c0,0,68,0,117,-16c0,0,48,-16,80,-42c0,0,31,-27,46,-61c0,0,16,-34,16,-70c0,0,0,-53,-25,-96c0,0,-24,-43,-75,-74c0,0,-51,-31,-129,-48c0,0,-79,-16,-188,-16H238c0,0,-3,-17,-5,-34c0,0,-1,-17,-1,-31c0,0,0,-61,31,-91c0,0,31,-31,100,-31c0,0,49,0,89,7c0,0,39,8,68,16c0,0,30,9,49,16c0,0,20,7,29,7c0,0,9,0,12,-5c0,0,4,-5,4,-17c0,0,0,-12,-2,-29c0,0,-2,-16,-7,-32c0,0,-4,-16,-10,-30c0,0,-6,-15,-15,-22c0,0,-9,-9,-32,-18C548,16,524,7,490,0c0,0,-33,-7,-75,-12c0,0,-42,-5,-85,-5Z" 
id="f1_7z"
transform="scale(0.001,-0.001)" />

<path d="M46,-4c0,0,-32,0,-50,2c0,0,-20,2,-29,6c0,0,-9,5,-8,12c0,0,2,8,10,21L221,368L110,676c0,0,-5,13,-3,22c0,0,1,8,11,14c0,0,10,5,31,7c0,0,22,2,57,2c0,0,31,0,48,-2c0,0,18,-1,27,-3c0,0,9,-2,13,-7c0,0,3,-5,5,-12L377,474L537,697c0,0,4,6,10,10c0,0,5,5,16,8c0,0,11,3,29,4c0,0,18,2,49,2c0,0,34,0,55,-2c0,0,20,-1,30,-6c0,0,10,-4,8,-12c0,0,-1,-8,-10,-21L493,370L612,38c0,0,4,-12,2,-20c0,0,-3,-9,-14,-14c0,0,-12,-4,-34,-6c0,0,-21,-2,-56,-2c0,0,-31,0,-49,2c0,0,-18,1,-28,3c0,0,-9,3,-13,8c0,0,-3,6,-4,12L335,256L166,20c0,0,-4,-6,-10,-11c0,0,-5,-5,-18,-8c0,0,-14,-2,-35,-3c0,0,-21,-2,-57,-2Z" 
id="f1_cn"
transform="scale(0.001,-0.001)" />

<path d="M128,0c0,0,-11,0,-19,3c0,0,-8,2,-13,8c0,0,-6,6,-8,17c0,0,-3,11,-3,28c0,0,0,15,1,26c0,0,1,11,5,20c0,0,4,8,9,17c0,0,6,8,15,18L302,336c0,0,65,68,104,123c0,0,39,54,61,99c0,0,21,45,28,81c0,0,6,37,6,69c0,0,0,32,-10,61c0,0,-11,29,-30,50c0,0,-20,22,-50,35c0,0,-30,12,-69,12c0,0,-45,0,-81,-12c0,0,-37,-13,-64,-28c0,0,-27,-15,-45,-27c0,0,-19,-13,-28,-13c0,0,-5,0,-9,3c0,0,-4,3,-7,10c0,0,-2,6,-4,18c0,0,-1,11,-1,26c0,0,0,12,0,20c0,0,1,8,3,14c0,0,2,6,5,11c0,0,3,5,12,13c0,0,9,8,31,21c0,0,22,14,55,27c0,0,33,13,73,22c0,0,40,9,84,9c0,0,70,0,123,-20c0,0,53,-20,87,-54c0,0,35,-34,52,-80c0,0,17,-46,17,-97c0,0,0,-46,-8,-92c0,0,-8,-46,-35,-99c0,0,-26,-54,-76,-119c0,0,-50,-65,-133,-151L240,109H660c0,0,6,0,12,-4c0,0,5,-3,9,-10c0,0,5,-7,6,-17c0,0,2,-10,2,-23c0,0,0,-13,-2,-24c0,0,-1,-10,-5,-17c0,0,-3,-7,-9,-11c0,0,-5,-3,-12,-3Z" 
id="f0_rz"
transform="scale(0.001,-0.001)" />

<path d="M385,92c0,0,42,0,74,13c0,0,31,14,54,39c0,0,23,25,38,60c0,0,15,35,24,77c0,0,9,43,12,92c0,0,3,50,3,103c0,0,0,73,-5,130c0,0,-5,57,-15,101c0,0,-10,44,-26,76c0,0,-16,32,-39,52c0,0,-22,21,-51,30c0,0,-29,9,-64,9c0,0,-64,0,-103,-30c0,0,-40,-29,-63,-82c0,0,-23,-52,-31,-122c0,0,-8,-70,-8,-150c0,0,0,-108,11,-184c0,0,11,-76,36,-123c0,0,24,-48,62,-69c0,0,37,-22,91,-22ZM378,-13c0,0,-91,0,-154,32c0,0,-62,32,-100,95c0,0,-38,63,-54,155c0,0,-16,92,-16,212c0,0,0,110,18,202c0,0,18,92,58,158c0,0,40,66,106,103c0,0,66,36,161,36c0,0,92,0,154,-33c0,0,62,-32,100,-95c0,0,39,-63,55,-155c0,0,16,-92,16,-212c0,0,0,-111,-18,-203c0,0,-17,-91,-58,-157C646,125,605,59,540,22c0,0,-66,-35,-162,-35Z" 
id="f0_rx"
transform="scale(0.001,-0.001)" />

<path d="M209,-4c0,0,-18,0,-30,2c0,0,-12,1,-19,3c0,0,-7,3,-10,7c0,0,-3,4,-3,10V607H52c0,0,-12,0,-18,12c0,0,-6,12,-6,39c0,0,0,14,2,24c0,0,1,10,4,16c0,0,3,7,8,9c0,0,4,3,10,3h95v69c0,0,0,71,13,121c0,0,13,50,40,82c0,0,27,33,67,48c0,0,41,15,96,15c0,0,26,0,51,-5c0,0,25,-4,38,-10c0,0,13,-6,18,-10c0,0,4,-5,7,-12c0,0,3,-7,5,-17c0,0,1,-10,1,-24c0,0,0,-15,-2,-23c0,0,-1,-9,-3,-14c0,0,-2,-5,-5,-7c0,0,-3,-2,-8,-2c0,0,-5,0,-13,3c0,0,-7,4,-19,8c0,0,-11,4,-26,7c0,0,-15,4,-36,4c0,0,-27,0,-47,-9c0,0,-19,-9,-31,-28c0,0,-12,-19,-17,-50c0,0,-5,-30,-5,-73V710H421c0,0,6,0,10,-3c0,0,4,-2,7,-9c0,0,4,-6,6,-16c0,0,2,-10,2,-24c0,0,0,-27,-7,-39c0,0,-7,-12,-18,-12H271V18c0,0,0,-6,-3,-10c0,0,-3,-4,-11,-7c0,0,-7,-2,-19,-3c0,0,-12,-2,-29,-2Z" 
id="f0_89"
transform="scale(0.001,-0.001)" />

<path d="M176,-4c0,0,-18,0,-30,2c0,0,-12,1,-19,3c0,0,-7,3,-10,7c0,0,-3,4,-3,10V690c0,0,0,6,3,10c0,0,2,4,9,7c0,0,6,4,17,5c0,0,10,1,27,1c0,0,17,0,28,-1c0,0,10,-1,16,-5c0,0,6,-3,9,-7c0,0,3,-4,3,-10V601c0,0,56,64,110,94c0,0,53,30,108,30c0,0,42,0,75,-10c0,0,33,-10,58,-28c0,0,26,-17,44,-42c0,0,18,-24,30,-55c0,0,33,37,63,63c0,0,31,26,59,41c0,0,28,16,54,23c0,0,27,8,53,8c0,0,65,0,109,-23c0,0,44,-23,71,-61c0,0,28,-38,39,-89c0,0,12,-52,12,-108V18c0,0,0,-6,-3,-10c0,0,-3,-4,-10,-7c0,0,-7,-2,-19,-3c0,0,-12,-2,-29,-2c0,0,-19,0,-31,2c0,0,-12,1,-19,3c0,0,-7,3,-10,7c0,0,-3,4,-3,10V427c0,0,0,43,-8,78c0,0,-7,35,-23,61c0,0,-17,25,-42,38c0,0,-25,14,-60,14c0,0,-42,0,-85,-33c0,0,-43,-33,-94,-96V18c0,0,0,-6,-3,-10c0,0,-3,-4,-11,-7c0,0,-7,-2,-19,-3c0,0,-11,-2,-29,-2c0,0,-18,0,-30,2c0,0,-12,1,-19,3c0,0,-7,3,-10,7c0,0,-3,4,-3,10V427c0,0,0,43,-8,78c0,0,-8,35,-24,61c0,0,-17,25,-42,38c0,0,-25,14,-59,14c0,0,-43,0,-86,-33c0,0,-44,-33,-95,-96V18c0,0,0,-6,-3,-10c0,0,-2,-4,-9,-7c0,0,-7,-2,-19,-3c0,0,-12,-2,-30,-2Z" 
id="f0_ae"
transform="scale(0.001,-0.001)" />

<path d="M176,-4c0,0,-18,0,-30,2c0,0,-12,1,-19,3c0,0,-7,3,-10,7c0,0,-3,4,-3,10v997c0,0,0,6,3,11c0,0,3,4,10,7c0,0,7,3,19,5c0,0,12,1,30,1c0,0,18,0,30,-1c0,0,12,-2,19,-5c0,0,7,-3,9,-7c0,0,3,-5,3,-11V408L492,687c0,0,6,7,12,12c0,0,7,5,16,8c0,0,10,4,22,5c0,0,13,1,31,1c0,0,19,0,31,-1c0,0,13,-1,21,-4c0,0,8,-3,11,-7c0,0,3,-4,3,-11c0,0,0,-9,-4,-18c0,0,-5,-8,-16,-20L375,408L648,54c0,0,10,-13,14,-20c0,0,4,-8,4,-15c0,0,0,-6,-3,-10c0,0,-3,-5,-10,-8c0,0,-7,-2,-20,-3c0,0,-13,-2,-32,-2c0,0,-20,0,-33,1c0,0,-13,1,-22,3c0,0,-9,3,-15,7c0,0,-5,5,-10,12L237,391V18c0,0,0,-6,-3,-10c0,0,-2,-4,-9,-7c0,0,-7,-2,-19,-3c0,0,-12,-2,-30,-2Z" 
id="f0_a5"
transform="scale(0.001,-0.001)" />

<path d="M604,356L436,837h-1L269,356ZM87,-4c0,0,-22,0,-36,2C51,-2,37,0,32,4c0,0,-6,5,-6,15c0,0,1,10,7,27L357,943c0,0,3,8,7,13c0,0,5,6,15,9c0,0,9,3,23,4c0,0,15,1,37,1c0,0,24,0,40,-1c0,0,16,-1,25,-4c0,0,10,-3,15,-9c0,0,5,-5,8,-14L851,45c0,0,6,-16,7,-26c0,0,0,-10,-6,-16c0,0,-6,-4,-20,-5c0,0,-14,-2,-37,-2c0,0,-23,0,-37,1c0,0,-14,1,-21,3c0,0,-7,3,-10,7c0,0,-3,5,-6,11L638,253H236L157,21c0,0,-2,-6,-6,-11c0,0,-3,-5,-10,-9c0,0,-7,-2,-21,-3c0,0,-13,-2,-33,-2Z" 
id="f0_5"
transform="scale(0.001,-0.001)" />

<path d="M398,90c0,0,48,0,83,17c0,0,35,18,58,49c0,0,23,30,34,67c0,0,11,38,11,78c0,0,0,43,-8,78c0,0,-9,36,-29,60c0,0,-20,25,-54,38c0,0,-33,14,-83,14c0,0,-27,0,-55,-5c0,0,-28,-5,-53,-13c0,0,-26,-9,-49,-21c0,0,-24,-11,-43,-25c0,0,0,-96,12,-161c0,0,12,-65,36,-104c0,0,23,-39,58,-56c0,0,35,-16,82,-16ZM386,-13c0,0,-60,0,-106,14c0,0,-47,15,-81,42c0,0,-34,28,-57,68c0,0,-23,40,-36,92c0,0,-14,51,-20,113c0,0,-6,61,-6,131c0,0,0,62,7,125c0,0,6,64,23,123c0,0,18,58,47,110c0,0,29,52,74,91c0,0,44,38,106,60c0,0,62,23,144,23c0,0,28,0,56,-4c0,0,28,-3,52,-9c0,0,24,-5,41,-12c0,0,16,-7,21,-11c0,0,5,-4,8,-9c0,0,3,-4,4,-10c0,0,2,-6,2,-13c0,0,1,-7,1,-17c0,0,0,-14,0,-23c0,0,-1,-10,-3,-16c0,0,-3,-6,-7,-9c0,0,-4,-3,-11,-3c0,0,-8,0,-22,5c0,0,-14,5,-34,12c0,0,-21,6,-49,11c0,0,-29,6,-67,6c0,0,-69,0,-119,-29c0,0,-50,-28,-82,-76c0,0,-32,-48,-47,-111c0,0,-15,-63,-18,-131c0,0,20,11,44,22c0,0,24,11,53,20c0,0,29,9,61,15c0,0,32,5,68,5c0,0,79,0,132,-21c0,0,54,-21,87,-59c0,0,34,-38,48,-89c0,0,14,-51,14,-110c0,0,0,-64,-19,-123c0,0,-20,-59,-60,-105C635,85,595,40,533,13c0,0,-62,-26,-147,-26Z" 
id="f0_s3"
transform="scale(0.001,-0.001)" />

<path d="M324,-13c0,0,-44,0,-85,7c0,0,-40,6,-71,14c0,0,-32,10,-52,18c0,0,-20,9,-25,15c0,0,-6,5,-8,9c0,0,-3,5,-4,11c0,0,-2,6,-3,16c0,0,-1,10,-1,23c0,0,0,13,1,23c0,0,1,10,4,16c0,0,3,7,8,10c0,0,4,3,9,3c0,0,7,0,23,-10c0,0,16,-9,42,-20c0,0,27,-11,66,-20c0,0,39,-10,93,-10c0,0,49,0,91,12c0,0,42,12,72,37c0,0,30,26,47,64c0,0,18,38,18,94c0,0,0,46,-15,81c0,0,-14,36,-45,59c0,0,-30,24,-76,35c0,0,-46,12,-111,12c0,0,-45,0,-78,-5c0,0,-33,-4,-61,-4c0,0,-21,0,-30,10c0,0,-9,9,-9,37V917c0,0,0,24,12,36c0,0,11,12,33,12H596c0,0,6,0,12,-3c0,0,6,-4,9,-10c0,0,4,-7,6,-17c0,0,2,-11,2,-25c0,0,0,-27,-8,-42c0,0,-7,-14,-21,-14H236V583c0,0,26,4,53,5c0,0,28,1,63,1c0,0,83,0,145,-20c0,0,62,-20,103,-56c0,0,42,-36,63,-88c0,0,21,-51,21,-114c0,0,0,-78,-26,-138c0,0,-26,-61,-74,-102C584,71,537,30,471,8c0,0,-66,-21,-147,-21Z" 
id="f0_s2"
transform="scale(0.001,-0.001)" />

<path d="M252,-271c0,0,-19,0,-31,2c0,0,-12,2,-18,6c0,0,-7,5,-8,12c0,0,0,8,4,18L292,0c0,0,-7,3,-13,10c0,0,-6,6,-8,14L31,665c0,0,-6,16,-6,25c0,0,0,9,6,14c0,0,6,5,20,7c0,0,13,2,36,2c0,0,22,0,35,-1c0,0,12,-1,20,-4c0,0,7,-3,11,-9c0,0,3,-6,7,-15L351,145h3L539,687c0,0,4,14,10,18c0,0,7,4,19,6c0,0,13,2,37,2c0,0,21,0,34,-2c0,0,14,-2,20,-7c0,0,6,-5,6,-14c0,0,0,-9,-4,-23L420,0L330,-246c0,0,-4,-12,-22,-18c0,0,-19,-7,-56,-7Z" 
id="f0_co"
transform="scale(0.001,-0.001)" />

<path d="M92,-4c0,0,-22,0,-35,2C57,-2,43,0,37,3c0,0,-7,5,-6,12c0,0,0,7,7,17L247,360L49,675c0,0,-6,11,-6,18c0,0,-1,7,6,12c0,0,7,5,22,6c0,0,14,2,38,2c0,0,22,0,35,-1c0,0,13,-1,20,-4c0,0,8,-2,12,-6c0,0,3,-3,6,-9L335,443L490,693c0,0,3,5,7,9c0,0,4,3,10,6c0,0,7,3,18,4c0,0,12,1,32,1c0,0,21,0,35,-2c0,0,14,-1,21,-5c0,0,7,-4,6,-12c0,0,-1,-7,-8,-19L415,364L622,32c0,0,6,-10,6,-17c0,0,0,-7,-7,-12c0,0,-7,-3,-21,-5c0,0,-15,-2,-38,-2c0,0,-22,0,-35,1c0,0,-13,1,-21,3c0,0,-8,3,-12,7c0,0,-4,4,-7,9L326,282L165,16c0,0,-3,-5,-7,-9c0,0,-4,-4,-12,-7c0,0,-8,-2,-20,-3c0,0,-13,-1,-34,-1Z" 
id="f0_cn"
transform="scale(0.001,-0.001)" />

<path d="M367,-13c0,0,-73,0,-129,23c0,0,-56,24,-93,70c0,0,-38,46,-58,112c0,0,-20,67,-20,154c0,0,0,99,25,171c0,0,24,71,66,116c0,0,42,46,99,68c0,0,58,22,124,22c0,0,32,0,62,-6c0,0,31,-6,56,-16c0,0,25,-10,45,-22c0,0,20,-13,29,-22c0,0,9,-9,12,-14c0,0,3,-5,6,-13c0,0,2,-7,3,-16c0,0,0,-9,0,-22c0,0,0,-29,-6,-41c0,0,-7,-11,-17,-11c0,0,-11,0,-25,12c0,0,-15,12,-37,27c0,0,-23,15,-55,28c0,0,-31,12,-75,12c0,0,-88,0,-136,-68c0,0,-47,-68,-47,-198c0,0,0,-65,12,-114c0,0,12,-49,36,-81c0,0,24,-33,59,-49c0,0,35,-16,79,-16c0,0,43,0,75,13c0,0,32,14,56,30c0,0,23,16,39,29c0,0,16,13,25,13c0,0,5,0,9,-3c0,0,4,-3,7,-10c0,0,2,-7,3,-18c0,0,1,-11,1,-26c0,0,0,-12,0,-22c0,0,-1,-9,-3,-15c0,0,-2,-7,-4,-12c0,0,-3,-4,-12,-14c0,0,-10,-9,-32,-23c0,0,-22,-14,-50,-24C496,11,468,0,435,-6c0,0,-33,-7,-68,-7Z" 
id="f0_7l"
transform="scale(0.001,-0.001)" />

<path d="M318,-13c0,0,-48,0,-90,8c0,0,-41,8,-73,19c0,0,-33,12,-55,25c0,0,-22,13,-30,22c0,0,-9,8,-13,22c0,0,-4,14,-4,37c0,0,0,17,1,27c0,0,2,11,5,18c0,0,3,7,7,9c0,0,5,3,11,3c0,0,10,0,29,-13c0,0,19,-12,49,-27c0,0,30,-15,72,-28c0,0,42,-13,97,-13c0,0,42,0,77,11c0,0,34,11,59,32c0,0,25,20,39,50c0,0,13,30,13,68c0,0,0,41,-19,70c0,0,-18,29,-49,51c0,0,-30,22,-70,41c0,0,-39,18,-80,37c0,0,-41,19,-80,42c0,0,-39,23,-69,54c0,0,-31,32,-50,74c0,0,-19,42,-19,101c0,0,0,60,22,108c0,0,22,47,61,79c0,0,40,32,94,49c0,0,54,17,116,17c0,0,32,0,65,-6c0,0,32,-5,61,-15c0,0,29,-9,51,-20c0,0,22,-12,30,-19c0,0,7,-7,9,-11c0,0,2,-4,4,-10c0,0,1,-7,2,-16c0,0,1,-9,1,-23c0,0,0,-13,-2,-24c0,0,-1,-10,-3,-17c0,0,-2,-8,-6,-11c0,0,-4,-3,-10,-3c0,0,-8,0,-25,10c0,0,-18,11,-43,24c0,0,-26,13,-60,23c0,0,-35,11,-78,11c0,0,-40,0,-70,-11c0,0,-30,-10,-49,-28c0,0,-20,-18,-29,-43c0,0,-10,-25,-10,-52c0,0,0,-40,18,-70c0,0,19,-29,50,-51c0,0,31,-22,71,-41c0,0,39,-19,80,-38c0,0,41,-19,81,-41c0,0,39,-23,70,-54c0,0,31,-31,50,-73c0,0,19,-42,19,-100c0,0,0,-68,-25,-121c0,0,-25,-53,-69,-89C552,61,508,24,448,5c0,0,-60,-18,-130,-18Z" 
id="f0_2n"
transform="scale(0.001,-0.001)" />

<path d="M346,-4c0,0,-23,0,-38,2c0,0,-15,1,-24,3c0,0,-9,3,-15,8c0,0,-5,6,-8,13L33,660c0,0,-3,9,-5,15c0,0,-2,7,-2,11c0,0,0,3,0,5c0,0,0,6,3,11c0,0,3,4,10,7c0,0,7,2,18,3c0,0,12,1,29,1c0,0,22,0,35,-1c0,0,13,-1,20,-4c0,0,7,-3,10,-8c0,0,4,-4,7,-11L347,135l3,-9l2,9L540,689c0,0,1,7,5,11c0,0,3,5,11,8c0,0,7,3,19,4c0,0,12,1,32,1c0,0,18,0,29,-1c0,0,11,-1,17,-4c0,0,7,-3,9,-7c0,0,3,-4,3,-10c0,0,0,-3,-1,-6c0,0,0,-4,-1,-7c0,0,0,-4,-2,-8c0,0,-1,-5,-2,-10L430,22c0,0,-3,-8,-8,-13c0,0,-5,-6,-15,-9c0,0,-9,-2,-24,-3c0,0,-15,-1,-37,-1Z" 
id="f0_ch"
transform="scale(0.001,-0.001)" />

<path d="M79,326c0,0,-14,0,-20,11c0,0,-7,12,-7,40c0,0,0,29,7,40c0,0,6,11,20,11H390c0,0,6,0,11,-2c0,0,5,-2,8,-9c0,0,4,-6,6,-16c0,0,2,-9,2,-24c0,0,0,-29,-7,-40c0,0,-7,-11,-20,-11Z" 
id="f0_oj"
transform="scale(0.001,-0.001)" />

<path d="M102,0C102,0,87,0,77,10C77,10,66,21,66,45V71c0,0,0,10,2,18c0,0,1,9,4,17c0,0,3,8,9,17c0,0,5,10,12,22L390,606H102c0,0,-12,0,-19,13c0,0,-7,12,-7,39c0,0,0,14,2,24c0,0,1,10,5,16c0,0,3,7,8,9c0,0,5,3,11,3H487c0,0,9,0,15,-2c0,0,6,-3,11,-8c0,0,4,-5,7,-13c0,0,3,-8,3,-21V642c0,0,0,-10,-2,-19c0,0,-1,-9,-4,-18c0,0,-3,-8,-9,-18c0,0,-5,-10,-12,-22L201,104H516c0,0,6,0,11,-3c0,0,4,-3,8,-9c0,0,3,-6,5,-16c0,0,3,-10,3,-24c0,0,0,-14,-3,-24c0,0,-2,-10,-5,-16c0,0,-3,-7,-8,-9c0,0,-5,-3,-11,-3Z" 
id="f0_ct"
transform="scale(0.001,-0.001)" />

<path d="M189,-4c0,0,-18,0,-30,2c0,0,-12,2,-19,3c0,0,-7,3,-9,8c0,0,-3,4,-3,10V907c0,0,0,31,16,45c0,0,17,13,37,13h78c0,0,24,0,41,-4c0,0,18,-5,32,-15c0,0,13,-9,22,-24c0,0,9,-15,16,-35L649,188h4L944,884c0,0,8,23,18,39c0,0,9,15,21,25c0,0,11,9,26,13c0,0,14,4,32,4h82c0,0,11,0,21,-3c0,0,10,-4,17,-11c0,0,7,-7,12,-18c0,0,4,-10,4,-26V19c0,0,0,-6,-3,-10c0,0,-3,-5,-10,-8c0,0,-8,-1,-19,-3c0,0,-12,-2,-30,-2c0,0,-18,0,-30,2c0,0,-12,2,-19,3c0,0,-7,3,-10,8c0,0,-3,4,-3,10V860h-2L707,15c0,0,-2,-5,-6,-9c0,0,-4,-3,-12,-6c0,0,-8,-2,-18,-3c0,0,-11,-1,-26,-1c0,0,-16,0,-27,2c0,0,-11,1,-19,3c0,0,-7,2,-11,6c0,0,-4,4,-6,8L253,860V19c0,0,0,-6,-3,-10c0,0,-3,-5,-11,-8c0,0,-7,-1,-19,-3c0,0,-12,-2,-31,-2Z" 
id="f0_1x"
transform="scale(0.001,-0.001)" />

<path d="M429,92c0,0,47,0,80,22c0,0,33,23,54,60c0,0,20,38,30,84c0,0,10,46,10,93c0,0,0,52,-8,100c0,0,-8,48,-27,86c0,0,-19,37,-51,60c0,0,-32,22,-80,22c0,0,-24,0,-47,-7c0,0,-23,-7,-47,-23c0,0,-24,-15,-50,-40c0,0,-26,-25,-56,-62V220c0,0,51,-62,97,-95c0,0,45,-33,95,-33ZM176,-271c0,0,-18,0,-30,2c0,0,-12,1,-19,4c0,0,-7,3,-10,8c0,0,-3,4,-3,10V690c0,0,0,6,3,10c0,0,2,5,9,8c0,0,6,3,17,4c0,0,10,1,25,1c0,0,16,0,26,-1c0,0,10,-1,17,-4c0,0,6,-3,9,-7c0,0,3,-4,3,-11V601c0,0,30,31,59,54c0,0,28,23,57,39c0,0,28,15,59,23c0,0,30,8,63,8c0,0,74,0,125,-29c0,0,52,-28,84,-77c0,0,32,-50,47,-115c0,0,15,-65,15,-139c0,0,0,-88,-19,-158c0,0,-19,-70,-56,-119c0,0,-37,-49,-91,-75c0,0,-55,-26,-125,-26c0,0,-30,0,-55,6c0,0,-25,6,-50,18c0,0,-24,13,-48,32c0,0,-24,19,-51,46V-247c0,0,0,-6,-3,-10c0,0,-2,-5,-9,-8c0,0,-7,-3,-19,-4c0,0,-12,-2,-30,-2Z" 
id="f3_ay"
transform="scale(0.001,-0.001)" />

<path d="M176,-4c0,0,-18,0,-30,2c0,0,-12,1,-19,3c0,0,-7,3,-10,7c0,0,-3,4,-3,10V690c0,0,0,6,3,10c0,0,2,4,9,7c0,0,6,4,17,5c0,0,10,1,27,1c0,0,17,0,28,-1c0,0,10,-1,16,-5c0,0,6,-3,9,-7c0,0,3,-4,3,-10V592c0,0,27,41,51,66c0,0,25,26,46,41c0,0,22,14,43,20c0,0,21,6,43,6c0,0,10,0,22,-2c0,0,12,-1,26,-4c0,0,13,-3,24,-6c0,0,11,-4,15,-8c0,0,5,-4,6,-7c0,0,2,-3,3,-9c0,0,1,-5,1,-15c0,0,0,-10,0,-27c0,0,0,-16,0,-28c0,0,-1,-11,-3,-17c0,0,-2,-6,-6,-10c0,0,-3,-3,-9,-3c0,0,-6,0,-15,3c0,0,-8,4,-19,7c0,0,-11,3,-24,6c0,0,-14,3,-29,3c0,0,-19,0,-37,-7c0,0,-18,-8,-37,-25c0,0,-20,-18,-42,-46c0,0,-21,-29,-48,-70V18c0,0,0,-6,-3,-10c0,0,-2,-4,-9,-7c0,0,-7,-2,-19,-3c0,0,-12,-2,-30,-2Z" 
id="f3_b1"
transform="scale(0.001,-0.001)" />

<path d="M401,90c0,0,54,0,93,19c0,0,40,20,65,55c0,0,26,35,37,84c0,0,12,48,12,106c0,0,0,55,-10,104c0,0,-10,48,-33,85c0,0,-23,36,-62,58c0,0,-40,21,-99,21c0,0,-54,0,-93,-20c0,0,-39,-19,-65,-54c0,0,-25,-36,-37,-85c0,0,-12,-48,-12,-106c0,0,0,-55,10,-103c0,0,10,-49,33,-85c0,0,24,-36,63,-58c0,0,39,-21,98,-21ZM395,-13c0,0,-82,0,-144,24c0,0,-61,25,-102,72c0,0,-41,47,-61,114c0,0,-21,67,-21,152c0,0,0,82,22,151c0,0,21,69,64,119c0,0,43,50,107,78c0,0,64,28,150,28c0,0,82,0,144,-25c0,0,61,-25,102,-72c0,0,41,-47,62,-114c0,0,20,-67,20,-151c0,0,0,-83,-21,-152c0,0,-22,-69,-65,-119C652,92,609,42,545,14c0,0,-65,-27,-150,-27Z" 
id="f3_am"
transform="scale(0.001,-0.001)" />

<path d="M339,-13c0,0,-52,0,-90,13c0,0,-37,14,-61,42c0,0,-24,28,-34,71c0,0,-11,43,-11,101V607H49c0,0,-11,0,-18,12c0,0,-7,12,-7,39c0,0,0,14,2,24c0,0,2,10,5,16c0,0,3,7,8,9c0,0,5,3,11,3h93V870c0,0,0,5,2,9c0,0,3,5,10,8c0,0,7,4,19,5c0,0,12,2,30,2c0,0,19,0,31,-2c0,0,11,-1,18,-5c0,0,7,-3,10,-8c0,0,3,-4,3,-9V710H438c0,0,6,0,10,-3c0,0,5,-2,8,-9c0,0,4,-6,5,-16c0,0,1,-10,1,-24c0,0,0,-27,-6,-39c0,0,-7,-12,-18,-12H266V232c0,0,0,-69,20,-105c0,0,21,-35,74,-35c0,0,17,0,30,3c0,0,14,4,24,7c0,0,10,4,18,7c0,0,7,4,13,4c0,0,4,0,7,-2c0,0,4,-2,6,-7c0,0,2,-5,3,-14c0,0,1,-9,1,-23c0,0,0,-22,-2,-34c0,0,-3,-13,-9,-19c0,0,-6,-6,-18,-11c0,0,-12,-4,-28,-8c0,0,-15,-3,-32,-5c0,0,-17,-3,-34,-3Z" 
id="f3_bf"
transform="scale(0.001,-0.001)" />

<path d="M564,420c0,0,2,98,-43,153c0,0,-46,56,-134,56c0,0,-46,0,-80,-18c0,0,-35,-17,-58,-45c0,0,-23,-29,-36,-67c0,0,-12,-37,-14,-79ZM405,-13c0,0,-83,0,-145,22c0,0,-62,24,-105,69c0,0,-42,46,-64,114c0,0,-22,69,-22,160c0,0,0,87,23,156c0,0,22,69,64,117c0,0,43,48,102,74c0,0,60,26,134,26c0,0,79,0,135,-26c0,0,55,-25,91,-68c0,0,36,-43,53,-101c0,0,16,-58,16,-123V384c0,0,0,-29,-14,-41c0,0,-15,-13,-33,-13H199c0,0,0,-56,11,-100c0,0,12,-45,38,-77c0,0,26,-33,68,-50c0,0,41,-17,102,-17c0,0,48,0,85,8c0,0,37,8,65,17c0,0,27,10,44,18c0,0,18,8,27,8c0,0,5,0,9,-3c0,0,4,-2,7,-8c0,0,2,-5,3,-14c0,0,1,-9,1,-23c0,0,0,-9,-1,-16c0,0,0,-8,-2,-13c0,0,-1,-6,-3,-10c0,0,-3,-5,-7,-9c0,0,-4,-4,-24,-13c0,0,-20,-10,-53,-18c0,0,-32,-9,-74,-16c0,0,-42,-7,-90,-7Z" 
id="f3_7z"
transform="scale(0.001,-0.001)" />

<path d="M367,-13c0,0,-73,0,-129,23c0,0,-56,24,-93,70c0,0,-38,46,-58,112c0,0,-20,67,-20,154c0,0,0,99,25,171c0,0,24,71,66,116c0,0,42,46,99,68c0,0,58,22,124,22c0,0,32,0,62,-6c0,0,31,-6,56,-16c0,0,25,-10,45,-22c0,0,20,-13,29,-22c0,0,9,-9,12,-14c0,0,3,-5,6,-13c0,0,2,-7,3,-16c0,0,0,-9,0,-22c0,0,0,-29,-6,-41c0,0,-7,-11,-17,-11c0,0,-11,0,-25,12c0,0,-15,12,-37,27c0,0,-23,15,-55,28c0,0,-31,12,-75,12c0,0,-88,0,-136,-68c0,0,-47,-68,-47,-198c0,0,0,-65,12,-114c0,0,12,-49,36,-81c0,0,24,-33,59,-49c0,0,35,-16,79,-16c0,0,43,0,75,13c0,0,32,14,56,30c0,0,23,16,39,29c0,0,16,13,25,13c0,0,5,0,9,-3c0,0,4,-3,7,-10c0,0,2,-7,3,-18c0,0,1,-11,1,-26c0,0,0,-12,0,-22c0,0,-1,-9,-3,-15c0,0,-2,-7,-4,-12c0,0,-3,-4,-12,-14c0,0,-10,-9,-32,-23c0,0,-22,-14,-50,-24C496,11,468,0,435,-6c0,0,-33,-7,-68,-7Z" 
id="f3_7l"
transform="scale(0.001,-0.001)" />

<path d="M366,92c0,0,25,0,48,7c0,0,22,6,46,22c0,0,24,16,50,41c0,0,26,24,56,61V492c0,0,-51,62,-97,94c0,0,-47,33,-98,33c0,0,-47,0,-79,-22c0,0,-33,-23,-54,-59c0,0,-20,-37,-30,-83c0,0,-9,-47,-9,-94c0,0,0,-51,8,-100c0,0,8,-48,27,-86c0,0,19,-38,52,-60c0,0,32,-23,80,-23ZM345,-13c0,0,-74,0,-127,28c0,0,-52,29,-84,78c0,0,-33,49,-48,115c0,0,-15,66,-15,139c0,0,0,86,19,156c0,0,19,70,55,119c0,0,37,50,91,76c0,0,54,27,125,27c0,0,59,0,108,-26c0,0,49,-26,97,-76v390c0,0,0,5,2,10c0,0,3,4,10,7c0,0,8,3,19,5c0,0,12,1,30,1c0,0,18,0,30,-1c0,0,12,-2,19,-5c0,0,7,-3,10,-7c0,0,3,-5,3,-10V18c0,0,0,-6,-2,-10c0,0,-3,-5,-9,-7c0,0,-7,-2,-17,-3c0,0,-10,-2,-25,-2c0,0,-16,0,-26,2c0,0,-11,1,-18,3c0,0,-6,2,-9,7c0,0,-3,4,-3,10v90c0,0,-53,-58,-110,-90c0,0,-58,-31,-125,-31Z" 
id="f3_7v"
transform="scale(0.001,-0.001)" />

<path d="M176,-4c0,0,-18,0,-30,2c0,0,-12,1,-19,3c0,0,-7,3,-10,7c0,0,-3,4,-3,10v997c0,0,0,6,3,11c0,0,3,4,10,7c0,0,7,3,19,5c0,0,12,1,30,1c0,0,18,0,30,-1c0,0,12,-2,19,-5c0,0,7,-3,9,-7c0,0,3,-5,3,-10V614c0,0,53,56,107,83c0,0,54,28,108,28c0,0,67,0,113,-23c0,0,46,-23,74,-61c0,0,29,-38,41,-89c0,0,12,-52,12,-124V18c0,0,0,-6,-3,-10c0,0,-3,-4,-9,-7c0,0,-7,-2,-19,-3c0,0,-12,-2,-30,-2c0,0,-19,0,-30,2c0,0,-12,1,-19,3c0,0,-7,3,-10,7c0,0,-3,4,-3,10V412c0,0,0,58,-9,93c0,0,-9,35,-26,61c0,0,-17,25,-44,38c0,0,-27,14,-63,14c0,0,-46,0,-93,-33c0,0,-46,-33,-97,-96V18c0,0,0,-6,-3,-10c0,0,-2,-4,-9,-7c0,0,-7,-2,-19,-3c0,0,-12,-2,-30,-2Z" 
id="f3_9n"
transform="scale(0.001,-0.001)" />

<path d="M176,-4c0,0,-18,0,-30,2c0,0,-12,1,-19,3c0,0,-7,3,-10,7c0,0,-3,4,-3,10V690c0,0,0,5,3,9c0,0,3,5,10,8c0,0,7,3,19,4c0,0,12,2,30,2c0,0,18,0,30,-2c0,0,12,-1,19,-4c0,0,7,-3,9,-8c0,0,3,-4,3,-9V18c0,0,0,-6,-3,-10c0,0,-2,-4,-9,-7c0,0,-7,-2,-19,-3c0,0,-12,-2,-30,-2Zm-1,846c0,0,-43,0,-59,15c0,0,-16,15,-16,58c0,0,0,43,16,59c0,0,17,16,61,16c0,0,43,0,59,-16c0,0,16,-15,16,-58c0,0,0,-43,-16,-58c0,0,-17,-16,-61,-16Z" 
id="f3_9q"
transform="scale(0.001,-0.001)" />

<path d="M351,-13c0,0,-67,0,-113,22c0,0,-46,22,-75,60c0,0,-28,39,-40,90c0,0,-13,51,-13,124V690c0,0,0,6,3,10c0,0,3,4,10,7c0,0,8,4,20,5c0,0,11,1,29,1c0,0,18,0,30,-1c0,0,12,-1,19,-5c0,0,7,-3,10,-7c0,0,3,-4,3,-10V299c0,0,0,-59,9,-94c0,0,8,-36,26,-61c0,0,18,-24,44,-38c0,0,27,-14,63,-14c0,0,46,0,92,33c0,0,46,32,98,95V690c0,0,0,6,2,10c0,0,3,4,10,7c0,0,8,4,19,5c0,0,12,1,30,1c0,0,18,0,30,-1c0,0,12,-1,19,-5c0,0,7,-3,10,-7c0,0,3,-4,3,-10V18c0,0,0,-6,-2,-10c0,0,-3,-4,-10,-7c0,0,-6,-2,-17,-3c0,0,-11,-2,-27,-2c0,0,-17,0,-28,2c0,0,-10,1,-17,3c0,0,-6,3,-8,7c0,0,-3,4,-3,10v89c0,0,-57,-63,-113,-92c0,0,-56,-28,-113,-28Z" 
id="f3_c6"
transform="scale(0.001,-0.001)" />

<path d="M176,-4c0,0,-18,0,-30,2c0,0,-12,1,-19,3c0,0,-7,3,-10,7c0,0,-3,4,-3,10V690c0,0,0,6,3,10c0,0,2,4,9,7c0,0,6,4,17,5c0,0,10,1,27,1c0,0,17,0,28,-1c0,0,10,-1,16,-5c0,0,6,-3,9,-7c0,0,3,-4,3,-10V601c0,0,56,64,112,94c0,0,57,30,114,30c0,0,67,0,113,-23c0,0,46,-23,74,-61c0,0,29,-38,41,-89c0,0,12,-52,12,-123V18c0,0,0,-6,-3,-10c0,0,-3,-4,-9,-7c0,0,-7,-2,-19,-3c0,0,-12,-2,-30,-2c0,0,-19,0,-30,2c0,0,-12,1,-19,3c0,0,-7,3,-10,7c0,0,-3,4,-3,10V412c0,0,0,58,-9,93c0,0,-9,35,-26,61c0,0,-17,25,-44,38c0,0,-27,14,-63,14c0,0,-46,0,-93,-33c0,0,-46,-33,-97,-96V18c0,0,0,-6,-3,-10c0,0,-2,-4,-9,-7c0,0,-7,-2,-19,-3c0,0,-12,-2,-30,-2Z" 
id="f3_af"
transform="scale(0.001,-0.001)" />

<path d="M431,92c0,0,46,0,79,22c0,0,33,23,53,60c0,0,21,37,30,83c0,0,10,46,10,93c0,0,0,51,-8,100c0,0,-8,49,-28,86c0,0,-19,37,-51,60c0,0,-32,23,-80,23c0,0,-24,0,-47,-7c0,0,-23,-7,-47,-22c0,0,-24,-16,-50,-41c0,0,-25,-24,-55,-62V219c0,0,51,-62,98,-95c0,0,46,-32,96,-32ZM443,-13c0,0,-32,0,-59,7c0,0,-27,6,-53,19c0,0,-26,14,-52,36c0,0,-27,22,-56,52V18c0,0,0,-6,-3,-10c0,0,-3,-5,-9,-7c0,0,-7,-2,-17,-3c0,0,-10,-2,-26,-2c0,0,-15,0,-25,2c0,0,-11,1,-17,3c0,0,-7,2,-9,7c0,0,-3,4,-3,10v997c0,0,0,6,3,11c0,0,3,4,10,7c0,0,7,3,19,5c0,0,12,1,30,1c0,0,18,0,30,-1c0,0,12,-2,19,-5c0,0,7,-3,9,-7c0,0,3,-5,3,-10V614c0,0,30,31,58,52c0,0,28,20,55,34c0,0,27,13,54,19c0,0,27,6,57,6c0,0,73,0,125,-30c0,0,52,-29,84,-78c0,0,32,-48,47,-114c0,0,15,-66,15,-139c0,0,0,-87,-19,-157c0,0,-19,-70,-56,-119c0,0,-37,-49,-90,-76c0,0,-54,-25,-124,-25Z" 
id="f3_7k"
transform="scale(0.001,-0.001)" />

<path d="M252,-271c0,0,-19,0,-31,2c0,0,-12,2,-18,6c0,0,-7,5,-8,12c0,0,0,8,4,18L292,0c0,0,-7,3,-13,10c0,0,-6,6,-8,14L31,665c0,0,-6,16,-6,25c0,0,0,9,6,14c0,0,6,5,20,7c0,0,13,2,36,2c0,0,22,0,35,-1c0,0,12,-1,20,-4c0,0,7,-3,11,-9c0,0,3,-6,7,-15L351,145h3L539,687c0,0,4,14,10,18c0,0,7,4,19,6c0,0,13,2,37,2c0,0,21,0,34,-2c0,0,14,-2,20,-7c0,0,6,-5,6,-14c0,0,0,-9,-4,-23L420,0L330,-246c0,0,-4,-12,-22,-18c0,0,-19,-7,-56,-7Z" 
id="f3_co"
transform="scale(0.001,-0.001)" />

<path d="M346,-177c0,0,56,0,94,11c0,0,37,11,60,28c0,0,24,18,34,41c0,0,10,23,10,49c0,0,0,43,-36,65c0,0,-35,23,-95,25L239,48c0,0,-24,-19,-39,-35c0,0,-15,-16,-24,-31c0,0,-9,-16,-12,-30c0,0,-4,-15,-4,-31c0,0,0,-48,49,-73c0,0,50,-25,137,-25Zm-6,512c0,0,36,0,63,12c0,0,27,12,44,32c0,0,18,21,26,48c0,0,9,27,9,56c0,0,0,69,-38,107c0,0,-37,39,-107,39c0,0,-35,0,-62,-12c0,0,-26,-12,-44,-33c0,0,-17,-21,-26,-48c0,0,-8,-28,-8,-58c0,0,0,-66,37,-104c0,0,38,-39,106,-39Zm0,-606c0,0,-81,0,-138,14c0,0,-57,14,-94,38c0,0,-36,24,-52,57c0,0,-17,33,-17,72c0,0,0,24,6,47c0,0,6,24,18,43c0,0,13,21,31,40c0,0,18,19,42,38c0,0,-36,19,-54,47c0,0,-17,28,-17,61c0,0,0,45,18,81c0,0,19,36,46,64c0,0,-23,28,-36,62c0,0,-14,35,-14,84c0,0,0,58,20,104c0,0,19,45,53,77c0,0,35,31,83,48c0,0,48,17,105,17c0,0,30,0,57,-4c0,0,26,-3,49,-9H649c0,0,13,0,19,-12c0,0,7,-13,7,-38c0,0,0,-26,-7,-37c0,0,-7,-12,-19,-12H553c0,0,26,-27,37,-60c0,0,10,-32,10,-68c0,0,0,-58,-18,-103c0,0,-19,-45,-54,-76c0,0,-34,-31,-82,-47c0,0,-48,-16,-106,-16c0,0,-41,0,-78,10c0,0,-37,11,-57,28c0,0,-14,-14,-22,-31c0,0,-9,-17,-9,-39c0,0,0,-27,24,-44c0,0,25,-17,65,-18l175,-8c0,0,50,-1,92,-14c0,0,41,-12,72,-35c0,0,31,-22,48,-55c0,0,17,-34,17,-76c0,0,0,-47,-20,-88c0,0,-19,-42,-59,-74c0,0,-40,-31,-102,-50c0,0,-61,-18,-146,-18Z" 
id="f3_9d"
transform="scale(0.001,-0.001)" />

<path d="M272,-13c0,0,-35,0,-68,6c0,0,-32,6,-58,13c0,0,-26,9,-44,18c0,0,-17,10,-26,17c0,0,-8,8,-12,21c0,0,-3,14,-3,37c0,0,0,14,1,24c0,0,2,9,4,15c0,0,2,6,6,9c0,0,4,3,10,3c0,0,8,0,24,-11c0,0,16,-10,39,-22c0,0,24,-12,56,-22c0,0,32,-10,74,-10c0,0,31,0,56,7c0,0,26,6,44,19c0,0,19,14,29,34c0,0,10,20,10,47c0,0,0,29,-14,48c0,0,-15,19,-39,34c0,0,-24,15,-53,27c0,0,-30,11,-62,24c0,0,-32,13,-62,29c0,0,-30,16,-54,39c0,0,-24,23,-38,55c0,0,-15,32,-15,77c0,0,0,40,16,76c0,0,15,36,45,63c0,0,31,28,77,44c0,0,46,17,107,17c0,0,27,0,54,-5c0,0,26,-5,48,-11c0,0,22,-7,37,-15c0,0,15,-8,23,-14c0,0,8,-6,11,-11c0,0,2,-4,3,-10c0,0,1,-5,2,-14c0,0,2,-8,2,-20c0,0,0,-12,-2,-22c0,0,-1,-9,-3,-15c0,0,-3,-6,-7,-8c0,0,-3,-3,-8,-3c0,0,-7,0,-19,8c0,0,-13,8,-33,18c0,0,-20,9,-47,17c0,0,-28,9,-63,9c0,0,-31,0,-55,-7c0,0,-24,-7,-39,-20c0,0,-15,-13,-23,-31c0,0,-8,-18,-8,-39c0,0,0,-29,15,-49c0,0,15,-20,39,-35c0,0,24,-15,54,-27c0,0,31,-11,62,-24c0,0,32,-13,63,-29c0,0,31,-15,55,-38c0,0,24,-22,38,-53c0,0,15,-32,15,-75c0,0,0,-51,-19,-92c0,0,-19,-40,-54,-68C463,42,428,15,379,1c0,0,-48,-14,-107,-14Z" 
id="f3_b5"
transform="scale(0.001,-0.001)" />

<path d="M176,-4c0,0,-18,0,-30,2c0,0,-12,1,-19,3c0,0,-7,3,-10,7c0,0,-3,4,-3,10V690c0,0,0,6,3,10c0,0,2,4,9,7c0,0,6,4,17,5c0,0,10,1,27,1c0,0,17,0,28,-1c0,0,10,-1,16,-5c0,0,6,-3,9,-7c0,0,3,-4,3,-10V601c0,0,56,64,110,94c0,0,53,30,108,30c0,0,42,0,75,-10c0,0,33,-10,58,-28c0,0,26,-17,44,-42c0,0,18,-24,30,-55c0,0,33,37,63,63c0,0,31,26,59,41c0,0,28,16,54,23c0,0,27,8,53,8c0,0,65,0,109,-23c0,0,44,-23,71,-61c0,0,28,-38,39,-89c0,0,12,-52,12,-108V18c0,0,0,-6,-3,-10c0,0,-3,-4,-10,-7c0,0,-7,-2,-19,-3c0,0,-12,-2,-29,-2c0,0,-19,0,-31,2c0,0,-12,1,-19,3c0,0,-7,3,-10,7c0,0,-3,4,-3,10V427c0,0,0,43,-8,78c0,0,-7,35,-23,61c0,0,-17,25,-42,38c0,0,-25,14,-60,14c0,0,-42,0,-85,-33c0,0,-43,-33,-94,-96V18c0,0,0,-6,-3,-10c0,0,-3,-4,-11,-7c0,0,-7,-2,-19,-3c0,0,-11,-2,-29,-2c0,0,-18,0,-30,2c0,0,-12,1,-19,3c0,0,-7,3,-10,7c0,0,-3,4,-3,10V427c0,0,0,43,-8,78c0,0,-8,35,-24,61c0,0,-17,25,-42,38c0,0,-25,14,-59,14c0,0,-43,0,-86,-33c0,0,-44,-33,-95,-96V18c0,0,0,-6,-3,-10c0,0,-2,-4,-9,-7c0,0,-7,-2,-19,-3c0,0,-12,-2,-30,-2Z" 
id="f3_ae"
transform="scale(0.001,-0.001)" />

<path d="M69,661c0,0,-12,0,-21,1c0,0,-8,1,-12,4c0,0,-4,2,-4,7c0,0,-1,4,2,11L134,889v95c0,0,0,19,4,31c0,0,4,12,13,19c0,0,9,7,22,9c0,0,13,2,33,2c0,0,19,0,32,-2c0,0,13,-2,22,-9c0,0,9,-7,13,-19c0,0,4,-12,4,-31c0,0,0,-23,-2,-42c0,0,-3,-19,-8,-37c0,0,-5,-17,-14,-34c0,0,-8,-17,-21,-35L130,683c0,0,-4,-6,-9,-10c0,0,-5,-5,-12,-7c0,0,-7,-3,-16,-4c0,0,-9,-1,-24,-1Z" 
id="f3_nw"
transform="scale(0.001,-0.001)" />

<path d="M192,-6c0,0,-45,0,-62,16c0,0,-18,18,-18,69c0,0,0,53,18,71c0,0,18,17,64,17c0,0,45,0,62,-17c0,0,17,-17,17,-69c0,0,0,-53,-18,-70c0,0,-17,-17,-63,-17Z" 
id="f3_nt"
transform="scale(0.001,-0.001)" />

<path d="M390,486c0,0,47,0,79,13c0,0,31,12,51,35c0,0,20,23,31,55c0,0,10,31,10,69c0,0,0,50,-18,83c0,0,-17,33,-44,49c0,0,-26,15,-54,19c0,0,-29,5,-59,5H302V486ZM203,-4c0,0,-28,0,-47,2c0,0,-19,2,-30,5c0,0,-11,4,-16,10c0,0,-4,6,-4,13V895c0,0,0,35,18,53c0,0,18,17,48,17H400c0,0,34,0,65,-3c0,0,31,-2,74,-11c0,0,43,-8,88,-31c0,0,44,-24,75,-59c0,0,32,-36,48,-83c0,0,17,-47,17,-106c0,0,0,-82,-26,-144c0,0,-25,-63,-74,-106c0,0,-48,-43,-118,-65c0,0,-71,-23,-166,-23H302V26c0,0,0,-7,-5,-13c0,0,-5,-6,-16,-10c0,0,-11,-3,-30,-5c0,0,-18,-2,-48,-2Z" 
id="f4_2g"
transform="scale(0.001,-0.001)" />

<path d="M409,132c0,0,42,0,73,15c0,0,32,16,52,45c0,0,20,29,29,70c0,0,10,42,10,95c0,0,0,49,-8,91c0,0,-8,41,-26,72c0,0,-19,30,-50,48c0,0,-30,17,-77,17c0,0,-42,0,-73,-16c0,0,-31,-15,-51,-44c0,0,-21,-30,-31,-71c0,0,-10,-42,-10,-95c0,0,0,-49,9,-91c0,0,8,-41,26,-72c0,0,18,-30,49,-47c0,0,32,-17,78,-17ZM402,-17c0,0,-89,0,-154,24c0,0,-66,25,-109,72c0,0,-43,47,-64,115c0,0,-21,69,-21,157c0,0,0,85,23,156c0,0,22,70,68,121c0,0,45,50,113,78c0,0,69,27,160,27c0,0,90,0,155,-24c0,0,66,-24,109,-71c0,0,43,-47,64,-116c0,0,21,-69,21,-157c0,0,0,-86,-23,-156c0,0,-22,-70,-68,-121C676,88,631,38,562,10c0,0,-68,-27,-160,-27Z" 
id="f4_am"
transform="scale(0.001,-0.001)" />

<path d="M334,-17c0,0,-69,0,-115,22c0,0,-47,22,-76,61c0,0,-28,39,-41,90c0,0,-12,51,-12,127V691c0,0,0,7,4,13c0,0,4,5,15,9c0,0,11,4,29,6c0,0,19,2,45,2c0,0,28,0,46,-2c0,0,18,-2,29,-6c0,0,11,-4,15,-9c0,0,5,-6,5,-13V314c0,0,0,-52,6,-79c0,0,7,-28,21,-48c0,0,14,-20,35,-30c0,0,21,-11,49,-11c0,0,36,0,72,26c0,0,36,26,77,76V691c0,0,0,7,4,13c0,0,4,5,15,9c0,0,11,4,29,6c0,0,18,2,45,2c0,0,28,0,46,-2c0,0,18,-2,28,-6c0,0,11,-4,15,-9c0,0,5,-6,5,-13V25c0,0,0,-8,-4,-13c0,0,-4,-6,-13,-9c0,0,-10,-3,-25,-5c0,0,-15,-2,-38,-2c0,0,-25,0,-40,2c0,0,-16,2,-25,5c0,0,-9,3,-12,9c0,0,-4,5,-4,13v77c0,0,-55,-60,-112,-90c0,0,-57,-29,-118,-29Z" 
id="f4_c6"
transform="scale(0.001,-0.001)" />

<path d="M371,-16c0,0,-77,0,-136,23c0,0,-60,24,-100,71c0,0,-40,47,-61,114c0,0,-20,67,-20,154c0,0,0,100,25,173c0,0,25,72,69,120c0,0,45,48,106,71c0,0,62,23,135,23c0,0,29,0,58,-5c0,0,29,-5,54,-14c0,0,25,-9,45,-20c0,0,19,-12,28,-20c0,0,8,-8,11,-14c0,0,3,-5,5,-14c0,0,2,-9,3,-22c0,0,1,-13,1,-32c0,0,0,-43,-7,-61c0,0,-7,-18,-19,-18c0,0,-13,0,-27,11c0,0,-14,10,-34,23c0,0,-19,13,-46,23c0,0,-27,11,-64,11c0,0,-73,0,-112,-57c0,0,-39,-56,-39,-165c0,0,0,-54,10,-95c0,0,10,-41,29,-69c0,0,19,-28,47,-41c0,0,29,-14,67,-14c0,0,39,0,67,11c0,0,28,12,49,26c0,0,21,14,35,26c0,0,14,11,24,11c0,0,6,0,11,-4c0,0,4,-3,7,-13c0,0,2,-11,4,-26c0,0,1,-16,1,-41c0,0,0,-19,-1,-32c0,0,-1,-13,-3,-22c0,0,-2,-9,-4,-15c0,0,-3,-5,-12,-14c0,0,-9,-8,-30,-20C547,27,525,14,497,5c0,0,-27,-9,-60,-15c0,0,-32,-6,-66,-6Z" 
id="f4_7l"
transform="scale(0.001,-0.001)" />

<path d="M188,-4c0,0,-28,0,-46,2c0,0,-18,2,-28,5c0,0,-11,3,-16,9c0,0,-4,5,-4,13v981c0,0,0,8,4,14c0,0,5,6,16,10c0,0,10,4,28,6c0,0,18,2,46,2c0,0,27,0,45,-2c0,0,18,-2,29,-6c0,0,11,-4,15,-10c0,0,5,-6,5,-14V639c0,0,48,47,98,71c0,0,51,23,105,23c0,0,68,0,115,-22c0,0,47,-22,75,-61c0,0,29,-39,42,-91c0,0,12,-52,12,-126V25c0,0,0,-8,-4,-13c0,0,-5,-6,-15,-9c0,0,-10,-3,-29,-5c0,0,-18,-2,-45,-2c0,0,-28,0,-46,2c0,0,-18,2,-29,5c0,0,-10,3,-15,9c0,0,-4,6,-4,13V405c0,0,0,49,-7,76c0,0,-7,28,-21,48c0,0,-13,19,-35,30c0,0,-21,11,-49,11c0,0,-36,0,-72,-26c0,0,-37,-26,-76,-76V25c0,0,0,-7,-5,-13c0,0,-4,-6,-15,-9c0,0,-11,-3,-29,-5c0,0,-18,-2,-45,-2Z" 
id="f4_9n"
transform="scale(0.001,-0.001)" />

<path d="M526,431c0,0,2,79,-32,124c0,0,-34,45,-105,45c0,0,-35,0,-62,-13c0,0,-26,-13,-44,-36c0,0,-17,-23,-27,-54c0,0,-9,-31,-11,-66ZM410,-17c0,0,-88,0,-155,22c0,0,-67,22,-112,68c0,0,-44,45,-66,115c0,0,-22,69,-22,162c0,0,0,89,23,161c0,0,23,71,67,120c0,0,44,50,107,76c0,0,63,26,142,26c0,0,84,0,143,-24c0,0,59,-25,97,-69c0,0,38,-43,56,-103c0,0,18,-60,18,-130V377c0,0,0,-34,-15,-51c0,0,-16,-16,-43,-16H245c0,0,0,-43,10,-77c0,0,11,-35,33,-59c0,0,22,-24,56,-37c0,0,35,-13,83,-13c0,0,50,0,87,7c0,0,37,8,65,16c0,0,27,9,45,16c0,0,18,7,29,7c0,0,6,0,11,-2c0,0,4,-3,7,-10c0,0,3,-7,4,-19c0,0,2,-12,2,-31c0,0,0,-16,-1,-28c0,0,-1,-12,-2,-20c0,0,-2,-8,-5,-14c0,0,-3,-5,-8,-10c0,0,-5,-6,-26,-15c0,0,-22,-9,-55,-17c0,0,-34,-8,-77,-14c0,0,-43,-7,-93,-7Z" 
id="f4_7z"
transform="scale(0.001,-0.001)" />

<path d="M380,142c0,0,19,0,37,5c0,0,19,6,38,19c0,0,19,12,39,33c0,0,20,20,44,50V470c0,0,-40,50,-77,77c0,0,-37,27,-77,27c0,0,-37,0,-63,-18c0,0,-27,-19,-43,-49c0,0,-16,-31,-24,-68c0,0,-8,-38,-8,-77c0,0,0,-42,7,-82c0,0,7,-39,22,-70c0,0,15,-31,41,-50c0,0,25,-18,64,-18ZM333,-17c0,0,-76,0,-129,29c0,0,-52,29,-85,79c0,0,-33,50,-48,117c0,0,-15,67,-15,141c0,0,0,89,19,160c0,0,19,71,55,121c0,0,37,50,91,76c0,0,55,27,125,27c0,0,56,0,102,-22c0,0,45,-23,90,-67v360c0,0,0,8,4,14c0,0,4,6,15,10c0,0,11,4,29,6c0,0,18,2,45,2c0,0,28,0,46,-2c0,0,18,-2,28,-6c0,0,11,-4,15,-10c0,0,5,-6,5,-14V25c0,0,0,-8,-4,-14c0,0,-4,-5,-13,-9c0,0,-9,-3,-24,-4c0,0,-15,-2,-38,-2c0,0,-24,0,-39,2c0,0,-15,1,-24,4c0,0,-9,4,-13,9c0,0,-5,6,-5,14V99C565,99,514,44,458,13c0,0,-57,-30,-125,-30Z" 
id="f4_7v"
transform="scale(0.001,-0.001)" />

<path d="M188,-4c0,0,-28,0,-46,2c0,0,-18,2,-28,5c0,0,-11,3,-16,9c0,0,-4,5,-4,13V691c0,0,0,7,4,13c0,0,3,5,13,9c0,0,10,4,25,6c0,0,15,2,38,2c0,0,24,0,40,-2c0,0,15,-2,24,-6c0,0,9,-4,12,-9c0,0,4,-6,4,-13V614c0,0,55,60,110,89c0,0,55,30,115,30c0,0,41,0,74,-8c0,0,33,-9,59,-25c0,0,26,-16,44,-38c0,0,19,-23,32,-50c0,0,30,32,58,55c0,0,29,23,57,38c0,0,28,14,56,21c0,0,28,7,57,7c0,0,66,0,112,-22c0,0,45,-22,73,-61c0,0,28,-38,40,-90c0,0,12,-51,12,-109V25c0,0,0,-8,-5,-13c0,0,-4,-6,-15,-9c0,0,-10,-3,-28,-5c0,0,-18,-2,-46,-2c0,0,-28,0,-46,2c0,0,-18,2,-29,5c0,0,-11,3,-15,9c0,0,-4,6,-4,13V420c0,0,0,34,-6,61c0,0,-7,28,-20,48c0,0,-13,19,-32,30c0,0,-20,11,-47,11c0,0,-34,0,-68,-26c0,0,-34,-26,-74,-76V25c0,0,0,-7,-5,-13c0,0,-4,-6,-15,-9c0,0,-11,-3,-29,-5c0,0,-18,-2,-45,-2c0,0,-27,0,-45,2c0,0,-18,2,-29,5c0,0,-11,3,-16,9c0,0,-4,6,-4,13V420c0,0,0,34,-6,61c0,0,-7,28,-19,48c0,0,-13,19,-33,30c0,0,-21,11,-48,11c0,0,-34,0,-68,-26c0,0,-35,-26,-74,-76V25c0,0,0,-7,-5,-13c0,0,-4,-6,-15,-9c0,0,-11,-3,-29,-5c0,0,-18,-2,-45,-2Z" 
id="f4_ae"
transform="scale(0.001,-0.001)" />

<path d="M337,115c0,0,39,0,73,21c0,0,33,20,67,59V308H405c0,0,-45,0,-77,-7c0,0,-32,-6,-53,-20c0,0,-20,-13,-29,-32c0,0,-9,-19,-9,-44c0,0,0,-42,26,-66c0,0,27,-24,74,-24ZM296,-17c0,0,-53,0,-98,14c0,0,-44,13,-77,40c0,0,-32,28,-50,68c0,0,-18,40,-18,94c0,0,0,58,23,101c0,0,22,43,68,71c0,0,45,28,112,42c0,0,67,13,156,13h65v40c0,0,0,32,-6,55c0,0,-7,24,-21,39c0,0,-15,16,-39,23c0,0,-24,8,-60,8c0,0,-47,0,-84,-11c0,0,-37,-10,-66,-23c0,0,-28,-13,-47,-23c0,0,-19,-11,-31,-11c0,0,-9,0,-15,5c0,0,-6,6,-10,15c0,0,-5,10,-7,24c0,0,-2,14,-2,31c0,0,0,23,4,37c0,0,3,13,14,24c0,0,10,11,36,24c0,0,27,13,62,25c0,0,35,11,76,18c0,0,42,7,86,7c0,0,78,0,134,-15c0,0,55,-15,91,-47c0,0,36,-32,53,-82c0,0,16,-50,16,-118V23c0,0,0,-11,-7,-17c0,0,-8,-6,-24,-7c0,0,-16,-3,-47,-3c0,0,-34,0,-49,3c0,0,-15,1,-21,7c0,0,-7,6,-7,17V76C506,76,465,32,412,7c0,0,-52,-24,-116,-24Z" 
id="f4_77"
transform="scale(0.001,-0.001)" />

<path d="M188,-4c0,0,-28,0,-46,2c0,0,-18,2,-28,5c0,0,-11,3,-16,9c0,0,-4,5,-4,13v981c0,0,0,8,4,14c0,0,5,6,16,10c0,0,10,4,28,6c0,0,18,2,46,2c0,0,27,0,45,-2c0,0,18,-2,29,-6c0,0,11,-4,15,-10c0,0,5,-6,5,-14V25c0,0,0,-8,-5,-13c0,0,-4,-6,-15,-9c0,0,-11,-3,-29,-5c0,0,-18,-2,-45,-2Z" 
id="f4_a8"
transform="scale(0.001,-0.001)" />

<path d="M275,-17c0,0,-37,0,-71,6c0,0,-34,6,-61,13c0,0,-27,9,-45,18c0,0,-18,9,-26,17c0,0,-8,8,-13,25c0,0,-4,17,-4,49c0,0,0,22,1,35c0,0,2,13,5,21c0,0,3,8,7,10c0,0,5,3,11,3c0,0,9,0,25,-9c0,0,16,-10,40,-21c0,0,24,-11,55,-21c0,0,32,-10,72,-10c0,0,26,0,46,5c0,0,19,6,34,15c0,0,14,10,22,25c0,0,7,15,7,34c0,0,0,23,-13,39c0,0,-14,16,-37,28c0,0,-23,11,-52,22c0,0,-28,10,-58,23c0,0,-31,13,-59,29c0,0,-29,17,-52,41c0,0,-23,23,-37,57c0,0,-13,34,-13,81c0,0,0,47,18,87c0,0,19,40,54,69c0,0,35,28,86,44c0,0,50,15,113,15c0,0,31,0,61,-4c0,0,29,-5,53,-11c0,0,24,-7,40,-15c0,0,17,-7,24,-13c0,0,7,-6,10,-11c0,0,3,-6,4,-14c0,0,2,-7,3,-19c0,0,1,-12,1,-29c0,0,0,-20,-1,-33c0,0,-1,-12,-4,-20c0,0,-2,-7,-7,-10c0,0,-4,-3,-10,-3c0,0,-7,0,-21,8c0,0,-14,8,-36,17c0,0,-21,9,-49,17c0,0,-28,7,-64,7c0,0,-25,0,-44,-5c0,0,-19,-5,-30,-15c0,0,-12,-9,-18,-22c0,0,-6,-14,-6,-28c0,0,0,-24,14,-39c0,0,14,-16,37,-28c0,0,23,-12,53,-22c0,0,29,-11,59,-23c0,0,31,-12,60,-29c0,0,30,-16,53,-40c0,0,23,-24,37,-57c0,0,14,-33,14,-79c0,0,0,-57,-21,-100c0,0,-21,-43,-60,-72c0,0,-39,-29,-92,-43c0,0,-53,-15,-115,-15Z" 
id="f4_b5"
transform="scale(0.001,-0.001)" />

<path d="M489,-15c0,0,-99,0,-179,30c0,0,-80,30,-136,91c0,0,-56,61,-85,152c0,0,-30,91,-30,212c0,0,0,123,32,218c0,0,33,96,92,161c0,0,59,65,142,98c0,0,82,34,181,34c0,0,40,0,78,-7c0,0,37,-7,69,-18c0,0,31,-11,57,-25c0,0,25,-14,35,-24c0,0,10,-10,14,-17c0,0,4,-7,6,-17c0,0,2,-11,3,-25c0,0,2,-14,2,-35c0,0,0,-22,-2,-38c0,0,-1,-15,-5,-25c0,0,-4,-10,-9,-14c0,0,-5,-5,-12,-5c0,0,-11,0,-28,13c0,0,-18,13,-45,29c0,0,-27,16,-65,29c0,0,-37,13,-89,13c0,0,-58,0,-103,-23c0,0,-45,-23,-77,-67c0,0,-31,-44,-48,-106c0,0,-16,-61,-16,-139c0,0,0,-85,17,-147c0,0,18,-62,50,-103c0,0,33,-40,79,-60c0,0,45,-19,103,-19c0,0,52,0,90,12c0,0,38,12,65,27c0,0,27,15,45,27c0,0,17,12,27,12c0,0,8,0,12,-3c0,0,4,-3,7,-12c0,0,3,-9,5,-25c0,0,1,-16,1,-43c0,0,0,-18,-1,-31c0,0,-1,-14,-3,-23c0,0,-2,-9,-6,-16c0,0,-4,-7,-12,-15c0,0,-8,-9,-32,-22c0,0,-23,-14,-57,-26C661,13,627,1,583,-6c0,0,-43,-9,-94,-9Z" 
id="f4_j"
transform="scale(0.001,-0.001)" />

<path d="M188,-4c0,0,-28,0,-46,2c0,0,-18,2,-28,5c0,0,-11,3,-16,9c0,0,-4,5,-4,13V691c0,0,0,7,4,13c0,0,3,5,13,9c0,0,10,4,25,6c0,0,15,2,38,2c0,0,24,0,40,-2c0,0,15,-2,24,-6c0,0,9,-4,12,-9c0,0,4,-6,4,-13V614c0,0,55,60,112,89c0,0,57,30,119,30c0,0,68,0,115,-22c0,0,47,-22,75,-61c0,0,29,-38,42,-90c0,0,12,-51,12,-124V25c0,0,0,-8,-4,-13c0,0,-5,-6,-15,-9c0,0,-10,-3,-29,-5c0,0,-18,-2,-45,-2c0,0,-28,0,-46,2c0,0,-18,2,-29,5c0,0,-10,3,-15,9c0,0,-4,6,-4,13V405c0,0,0,49,-7,76c0,0,-7,28,-21,48c0,0,-13,19,-35,30c0,0,-21,11,-49,11c0,0,-36,0,-72,-26c0,0,-37,-26,-76,-76V25c0,0,0,-7,-5,-13c0,0,-4,-6,-15,-9c0,0,-11,-3,-29,-5c0,0,-18,-2,-45,-2Z" 
id="f4_af"
transform="scale(0.001,-0.001)" />

<path d="M344,-14c0,0,-56,0,-97,14c0,0,-42,14,-69,43c0,0,-26,29,-39,74c0,0,-13,45,-13,106V563H47c0,0,-15,0,-22,18c0,0,-7,17,-7,58c0,0,0,22,1,37c0,0,2,15,6,24c0,0,4,8,9,12c0,0,6,4,13,4h79V864c0,0,0,8,4,14c0,0,4,6,15,10c0,0,11,4,29,6c0,0,19,2,46,2c0,0,27,0,46,-2c0,0,18,-2,28,-6c0,0,11,-4,15,-10c0,0,5,-6,5,-14V716H459c0,0,7,0,13,-4c0,0,6,-4,9,-12c0,0,4,-9,6,-24c0,0,2,-15,2,-37c0,0,0,-41,-8,-58c0,0,-7,-18,-21,-18H314V251c0,0,0,-54,17,-81c0,0,17,-27,61,-27c0,0,15,0,27,2c0,0,12,3,22,6c0,0,9,4,15,6c0,0,7,3,12,3c0,0,4,0,9,-3c0,0,4,-2,6,-10c0,0,2,-8,4,-21c0,0,2,-14,2,-35c0,0,0,-33,-4,-50c0,0,-4,-18,-11,-25c0,0,-7,-7,-20,-12c0,0,-13,-5,-31,-9c0,0,-17,-4,-38,-6c0,0,-20,-3,-41,-3Z" 
id="f4_bf"
transform="scale(0.001,-0.001)" />

<path d="M188,-4c0,0,-28,0,-46,2c0,0,-18,2,-28,5c0,0,-11,3,-16,9c0,0,-4,5,-4,13V689c0,0,0,8,4,13c0,0,5,6,16,10c0,0,10,4,28,6c0,0,18,3,46,3c0,0,27,0,45,-3c0,0,18,-2,29,-6c0,0,11,-4,15,-10c0,0,5,-5,5,-13V25c0,0,0,-8,-5,-13c0,0,-4,-6,-15,-9c0,0,-11,-3,-29,-5c0,0,-18,-2,-45,-2Zm-1,820c0,0,-63,0,-85,21c0,0,-22,21,-22,75c0,0,0,57,23,79c0,0,23,22,86,22c0,0,63,0,85,-21c0,0,22,-21,22,-76c0,0,0,-56,-23,-78c0,0,-23,-22,-86,-22Z" 
id="f4_9q"
transform="scale(0.001,-0.001)" />

<path d="M403,155c0,0,81,0,136,21c0,0,55,21,92,63c0,0,37,42,55,105c0,0,18,63,18,146c0,0,0,69,-16,128c0,0,-16,59,-51,102c0,0,-36,43,-91,67c0,0,-56,25,-146,25H301V155ZM164,0c0,0,-25,0,-42,15c0,0,-16,14,-16,47V903c0,0,0,33,16,48c0,0,17,14,42,14H411c0,0,129,0,219,-30c0,0,90,-30,152,-90c0,0,61,-59,93,-146c0,0,32,-87,32,-202c0,0,0,-133,-34,-227c0,0,-35,-95,-100,-154c0,0,-65,-60,-158,-88C615,28,523,0,394,0Z" 
id="f4_p"
transform="scale(0.001,-0.001)" />

<path d="M188,-4c0,0,-28,0,-46,2c0,0,-18,2,-28,5c0,0,-11,3,-16,9c0,0,-4,5,-4,13V691c0,0,0,7,4,13c0,0,3,5,13,9c0,0,10,4,25,6c0,0,15,2,38,2c0,0,24,0,40,-2c0,0,15,-2,24,-6c0,0,9,-4,12,-9c0,0,4,-6,4,-13V608c0,0,26,37,49,61c0,0,23,25,44,39c0,0,21,14,42,20c0,0,21,5,42,5c0,0,10,0,21,-1c0,0,11,-1,23,-4c0,0,12,-2,21,-5c0,0,9,-4,13,-8c0,0,4,-3,6,-8c0,0,2,-4,3,-12c0,0,2,-8,2,-24c0,0,1,-15,1,-42c0,0,0,-27,-1,-44c0,0,-2,-17,-5,-27c0,0,-3,-10,-8,-13c0,0,-5,-4,-12,-4c0,0,-6,0,-13,3c0,0,-8,2,-17,5c0,0,-10,3,-21,6c0,0,-11,2,-24,2c0,0,-16,0,-32,-6c0,0,-15,-6,-32,-20c0,0,-17,-13,-35,-36c0,0,-19,-22,-39,-55V25c0,0,0,-8,-5,-13c0,0,-4,-6,-15,-9c0,0,-11,-3,-29,-5c0,0,-18,-2,-45,-2Z" 
id="f4_b1"
transform="scale(0.001,-0.001)" />

<path d="M224,-4c0,0,-26,0,-45,2c0,0,-18,2,-29,5c0,0,-11,3,-15,9c0,0,-4,5,-4,13V563H48c0,0,-14,0,-21,18c0,0,-7,17,-7,58c0,0,0,22,1,37c0,0,2,15,6,24c0,0,3,8,9,12c0,0,5,4,13,4h82v56c0,0,0,68,13,119c0,0,14,51,43,85c0,0,29,34,73,51c0,0,45,17,105,17c0,0,29,0,55,-5c0,0,27,-4,42,-10c0,0,15,-6,20,-10c0,0,5,-5,8,-15c0,0,4,-9,5,-23c0,0,2,-15,2,-37c0,0,0,-21,-2,-34c0,0,-1,-13,-4,-20c0,0,-3,-7,-7,-10c0,0,-4,-3,-8,-3c0,0,-5,0,-12,3c0,0,-6,3,-16,6c0,0,-9,2,-22,5c0,0,-12,3,-29,3c0,0,-21,0,-35,-7c0,0,-15,-6,-25,-20c0,0,-9,-14,-14,-36c0,0,-4,-22,-4,-54V716H440c0,0,7,0,13,-4c0,0,5,-4,9,-12c0,0,4,-9,5,-24c0,0,2,-15,2,-37c0,0,0,-41,-7,-58c0,0,-8,-18,-22,-18H319V25c0,0,0,-8,-5,-13c0,0,-4,-6,-15,-9c0,0,-10,-3,-29,-5c0,0,-19,-2,-46,-2Z" 
id="f4_89"
transform="scale(0.001,-0.001)" />

<path d="M204,-9c0,0,-63,0,-87,23c0,0,-24,23,-24,89c0,0,0,70,24,94c0,0,25,24,88,24c0,0,62,0,86,-24c0,0,24,-23,24,-90c0,0,0,-69,-24,-93c0,0,-25,-23,-87,-23Z" 
id="f4_nt"
transform="scale(0.001,-0.001)" />

<path d="M435,0V856c0,0,-48,-47,-127,-93c0,0,-79,-46,-142,-69V824c0,0,113,52,197,128c0,0,85,75,120,146h86V0Z" 
id="f5_l"
transform="scale(0.001,-0.001)" />


</defs>
</svg>