<?xml version="1.0" encoding="UTF-8" standalone="no"?>
<!DOCTYPE svg PUBLIC "-//W3C//DTD SVG 1.1//EN"
"http://www.w3.org/Graphics/SVG/1.1/DTD/svg11.dtd">
<svg viewBox="0 0 909 1286" version="1.1" xmlns="http://www.w3.org/2000/svg" xmlns:xlink="http://www.w3.org/1999/xlink">
<defs>
<clipPath id="c0_26"><path d="M0,1286.3V0H909.7V1286.3Z" /></clipPath>
<style type="text/css"><![CDATA[
.g0_26{
fill: #FFFFFF;
}
.g1_26{
fill: #1F3331;
}
]]></style>
</defs>
<path fill-rule="evenodd" d="M52.8,428.7H857.2V55H52.8V428.7Z" class="g0_26" />
<path fill-rule="evenodd" d="M52.8,450H857.2V428.7H52.8V450Z" class="g0_26" />
<path fill-rule="evenodd" d="M80.3,492.2H857.2V470.9H80.3v21.3Z" class="g0_26" />
<g clip-path="url(#c0_26)">
<g fill="#1F3331" >
<use xlink:href="#f0_3d" transform="matrix(10.1,0,0,10.1,82.5,488.2)" />
<use xlink:href="#f1_13" transform="matrix(12,0,0,12,110,488.2)" />
<use xlink:href="#f1_1x" transform="matrix(12,0,0,12,123.3,488.2)" />
<use xlink:href="#f1_29" transform="matrix(12,0,0,12,132.4,488.2)" />
<use xlink:href="#f1_2c" transform="matrix(12,0,0,12,147.4,488.2)" />
<use xlink:href="#f1_2l" transform="matrix(12,0,0,12,157.7,488.2)" />
<use xlink:href="#f1_28" transform="matrix(12,0,0,12,166.9,488.2)" />
<use xlink:href="#f1_2b" transform="matrix(12,0,0,12,171.6,488.2)" />
<use xlink:href="#f1_2g" transform="matrix(12,0,0,12,180.8,488.2)" />
<use xlink:href="#f1_2e" transform="matrix(12,0,0,12,187.4,488.2)" />
<use xlink:href="#f1_2b" transform="matrix(12,0,0,12,195.1,488.2)" />
<use xlink:href="#f1_2c" transform="matrix(12,0,0,12,204.2,488.2)" />
<use xlink:href="#f1_2b" transform="matrix(12,0,0,12,214.5,488.2)" />
<use xlink:href="#f1_2h" transform="matrix(12,0,0,12,223.6,488.2)" />
<use xlink:href="#f1_2f" transform="matrix(12,0,0,12,233.9,488.2)" />
<use xlink:href="#f2_u" transform="matrix(12,0,0,12,241,488.2)" />
<use xlink:href="#f2_h" transform="matrix(12,0,0,12,254.2,488.2)" />
<use xlink:href="#f3_1k" transform="matrix(12,0,0,12,265.2,488.2)" />
<use xlink:href="#f3_24" transform="matrix(12,0,0,12,276.6,488.2)" />
<use xlink:href="#f3_21" transform="matrix(12,0,0,12,285.4,488.2)" />
<use xlink:href="#f3_1y" transform="matrix(12,0,0,12,300.4,488.2)" />
<use xlink:href="#f3_2b" transform="matrix(12,0,0,12,309.2,488.2)" />
<use xlink:href="#f3_20" transform="matrix(12,0,0,12,318.7,488.2)" />
<use xlink:href="#f3_2l" transform="matrix(12,0,0,12,327.9,488.2)" />
<use xlink:href="#f3_25" transform="matrix(12,0,0,12,343.6,488.2)" />
<use xlink:href="#f3_2f" transform="matrix(12,0,0,12,348.4,488.2)" />
<use xlink:href="#f3_1z" transform="matrix(12,0,0,12,362.3,488.2)" />
<use xlink:href="#f3_2h" transform="matrix(12,0,0,12,370.3,488.2)" />
<use xlink:href="#f3_2e" transform="matrix(12,0,0,12,379.5,488.2)" />
<use xlink:href="#f3_2i" transform="matrix(12,0,0,12,385.7,488.2)" />
<use xlink:href="#f3_21" transform="matrix(12,0,0,12,394.5,488.2)" />
<use xlink:href="#f3_20" transform="matrix(12,0,0,12,402.6,488.2)" />
<use xlink:href="#f3_1y" transform="matrix(12,0,0,12,419.1,488.2)" />
<use xlink:href="#f3_2h" transform="matrix(12,0,0,12,427.9,488.2)" />
<use xlink:href="#f3_2g" transform="matrix(12,0,0,12,437,488.2)" />
<use xlink:href="#f3_21" transform="matrix(12,0,0,12,449.5,488.2)" />
<use xlink:href="#f3_29" transform="matrix(12,0,0,12,457.5,488.2)" />
<use xlink:href="#f3_1y" transform="matrix(12,0,0,12,471.5,488.2)" />
<use xlink:href="#f3_2e" transform="matrix(12,0,0,12,480.6,488.2)" />
<use xlink:href="#f3_2l" transform="matrix(12,0,0,12,487.2,488.2)" />
<use xlink:href="#f3_2b" transform="matrix(12,0,0,12,495.7,488.2)" />
<use xlink:href="#f3_2f" transform="matrix(12,0,0,12,512.4,488.2)" />
<use xlink:href="#f3_1x" transform="matrix(12,0,0,12,519.4,488.2)" />
<use xlink:href="#f3_1z" transform="matrix(12,0,0,12,527.5,488.2)" />
<use xlink:href="#f3_25" transform="matrix(12,0,0,12,542.5,488.2)" />
<use xlink:href="#f3_2f" transform="matrix(12,0,0,12,546.9,488.2)" />
<use xlink:href="#f3_2f" transform="matrix(12,0,0,12,560.8,488.2)" />
<use xlink:href="#f3_2g" transform="matrix(12,0,0,12,567.8,488.2)" />
<use xlink:href="#f3_2e" transform="matrix(12,0,0,12,573.3,488.2)" />
<use xlink:href="#f3_1x" transform="matrix(12,0,0,12,579.5,488.2)" />
<use xlink:href="#f3_25" transform="matrix(12,0,0,12,587.9,488.2)" />
<use xlink:href="#f3_23" transform="matrix(12,0,0,12,592.3,488.2)" />
<use xlink:href="#f3_24" transform="matrix(12,0,0,12,601.8,488.2)" />
<use xlink:href="#f3_2g" transform="matrix(12,0,0,12,610.6,488.2)" />
<use xlink:href="#f3_i" transform="matrix(12,0,0,12,616.1,488.2)" />
<use xlink:href="#f3_18" transform="matrix(12,0,0,12,627.4,488.2)" />
<use xlink:href="#f3_25" transform="matrix(12,0,0,12,640.7,488.2)" />
<use xlink:href="#f3_28" transform="matrix(12,0,0,12,645.4,488.2)" />
<use xlink:href="#f3_2h" transform="matrix(12,0,0,12,650.2,488.2)" />
<use xlink:href="#f3_29" transform="matrix(12,0,0,12,659.7,488.2)" />
<use xlink:href="#f3_g" transform="matrix(12,0,0,12,673.6,488.2)" />
<use xlink:href="#f3_1z" transform="matrix(12,0,0,12,685.3,488.2)" />
<use xlink:href="#f3_24" transform="matrix(12,0,0,12,693.4,488.2)" />
<use xlink:href="#f3_1x" transform="matrix(12,0,0,12,702.2,488.2)" />
<use xlink:href="#f3_28" transform="matrix(12,0,0,12,710.6,488.2)" />
<use xlink:href="#f3_1x" transform="matrix(12,0,0,12,715.4,488.2)" />
<use xlink:href="#f3_2m" transform="matrix(12,0,0,12,723.8,488.2)" />
<use xlink:href="#f3_1x" transform="matrix(12,0,0,12,731.8,488.2)" />
<use xlink:href="#f3_1x" transform="matrix(12,0,0,12,746.9,488.2)" />
<use xlink:href="#f3_2a" transform="matrix(12,0,0,12,754.9,488.2)" />
<use xlink:href="#f3_20" transform="matrix(12,0,0,12,763.7,488.2)" />
<use xlink:href="#f3_29" transform="matrix(12,0,0,12,780.2,488.2)" />
<use xlink:href="#f3_25" transform="matrix(12,0,0,12,794.1,488.2)" />
<use xlink:href="#f3_1z" transform="matrix(12,0,0,12,798.9,488.2)" />
<use xlink:href="#f3_2e" transform="matrix(12,0,0,12,807,488.2)" />
<use xlink:href="#f3_2b" transform="matrix(12,0,0,12,813.2,488.2)" />
<use xlink:href="#f3_2c" transform="matrix(12,0,0,12,822.7,488.2)" />
<use xlink:href="#f3_2l" transform="matrix(12,0,0,12,832.2,488.2)" />
<use xlink:href="#f3_28" transform="matrix(12,0,0,12,841,488.2)" />
<use xlink:href="#f3_21" transform="matrix(12,0,0,12,845.8,488.2)" />
</g>
</g>
<path fill-rule="evenodd" d="M80.3,513.5H857.2V492.2H80.3v21.3Z" class="g0_26" />
<g clip-path="url(#c0_26)">
<g fill="#1F3331" >
<use xlink:href="#f3_1z" transform="matrix(12,0,0,12,110,509.5)" />
<use xlink:href="#f3_2b" transform="matrix(12,0,0,12,118.1,509.5)" />
<use xlink:href="#f3_29" transform="matrix(12,0,0,12,127.6,509.5)" />
<use xlink:href="#f3_21" transform="matrix(12,0,0,12,141.2,509.5)" />
<use xlink:href="#f3_2a" transform="matrix(12,0,0,12,154.4,509.5)" />
<use xlink:href="#f3_21" transform="matrix(12,0,0,12,163.2,509.5)" />
<use xlink:href="#f3_1x" transform="matrix(12,0,0,12,171.2,509.5)" />
<use xlink:href="#f3_2e" transform="matrix(12,0,0,12,179.3,509.5)" />
<use xlink:href="#f3_1y" transform="matrix(12,0,0,12,185.9,509.5)" />
<use xlink:href="#f3_2l" transform="matrix(12,0,0,12,195,509.5)" />
<use xlink:href="#f3_21" transform="matrix(12,0,0,12,208.2,509.5)" />
<use xlink:href="#f3_i" transform="matrix(12,0,0,12,216.3,509.5)" />
<use xlink:href="#f3_23" transform="matrix(12,0,0,12,221,509.5)" />
<use xlink:href="#f3_i" transform="matrix(12,0,0,12,230.2,509.5)" />
<use xlink:href="#f3_13" transform="matrix(12,0,0,12,239.7,509.5)" />
<use xlink:href="#f3_1x" transform="matrix(12,0,0,12,251.8,509.5)" />
<use xlink:href="#f3_2f" transform="matrix(12,0,0,12,259.9,509.5)" />
<use xlink:href="#f3_2c" transform="matrix(12,0,0,12,266.8,509.5)" />
<use xlink:href="#f3_21" transform="matrix(12,0,0,12,276,509.5)" />
<use xlink:href="#f3_28" transform="matrix(12,0,0,12,284.4,509.5)" />
<use xlink:href="#f3_28" transform="matrix(12,0,0,12,289.5,509.5)" />
<use xlink:href="#f3_2f" transform="matrix(12,0,0,12,294.3,509.5)" />
<use xlink:href="#f3_g" transform="matrix(12,0,0,12,301.3,509.5)" />
<use xlink:href="#f3_13" transform="matrix(12,0,0,12,310.8,509.5)" />
<use xlink:href="#f3_1x" transform="matrix(12,0,0,12,322.9,509.5)" />
<use xlink:href="#f3_2c" transform="matrix(12,0,0,12,331,509.5)" />
<use xlink:href="#f3_2c" transform="matrix(12,0,0,12,340.1,509.5)" />
<use xlink:href="#f3_1x" transform="matrix(12,0,0,12,349.3,509.5)" />
<use xlink:href="#f3_2e" transform="matrix(12,0,0,12,357.4,509.5)" />
<use xlink:href="#f3_25" transform="matrix(12,0,0,12,363.9,509.5)" />
<use xlink:href="#f3_2f" transform="matrix(12,0,0,12,368.7,509.5)" />
<use xlink:href="#f3_g" transform="matrix(12,0,0,12,375.7,509.5)" />
<use xlink:href="#f3_13" transform="matrix(12,0,0,12,385.2,509.5)" />
<use xlink:href="#f3_24" transform="matrix(12,0,0,12,397.3,509.5)" />
<use xlink:href="#f3_21" transform="matrix(12,0,0,12,406.4,509.5)" />
<use xlink:href="#f3_2a" transform="matrix(12,0,0,12,414.8,509.5)" />
<use xlink:href="#f3_2b" transform="matrix(12,0,0,12,423.6,509.5)" />
<use xlink:href="#f3_2c" transform="matrix(12,0,0,12,433.6,509.5)" />
<use xlink:href="#f3_2b" transform="matrix(12,0,0,12,442.8,509.5)" />
<use xlink:href="#f3_20" transform="matrix(12,0,0,12,452.3,509.5)" />
<use xlink:href="#f3_25" transform="matrix(12,0,0,12,461.4,509.5)" />
<use xlink:href="#f3_1x" transform="matrix(12,0,0,12,465.8,509.5)" />
<use xlink:href="#f3_1z" transform="matrix(12,0,0,12,473.9,509.5)" />
<use xlink:href="#f3_21" transform="matrix(12,0,0,12,482.3,509.5)" />
<use xlink:href="#f3_1x" transform="matrix(12,0,0,12,490.4,509.5)" />
<use xlink:href="#f3_21" transform="matrix(12,0,0,12,498.4,509.5)" />
</g>
</g>
<path fill-rule="evenodd" d="M52.8,853.4H857.2V534.7H52.8V853.4Z" class="g0_26" />
<path fill-rule="evenodd" d="M80.3,896H857.2V874.7H80.3V896Z" class="g0_26" />
<g clip-path="url(#c0_26)">
<g fill="#1F3331" >
<use xlink:href="#f0_3d" transform="matrix(10.1,0,0,10.1,82.5,892)" />
<use xlink:href="#f1_11" transform="matrix(12,0,0,12,110,892)" />
<use xlink:href="#f1_29" transform="matrix(12,0,0,12,123.3,892)" />
<use xlink:href="#f1_2c" transform="matrix(12,0,0,12,138.3,892)" />
<use xlink:href="#f1_24" transform="matrix(12,0,0,12,148.5,892)" />
<use xlink:href="#f1_25" transform="matrix(12,0,0,12,158.8,892)" />
<use xlink:href="#f1_2g" transform="matrix(12,0,0,12,163.9,892)" />
<use xlink:href="#f1_2e" transform="matrix(12,0,0,12,170.1,892)" />
<use xlink:href="#f1_2b" transform="matrix(12,0,0,12,177.8,892)" />
<use xlink:href="#f1_2c" transform="matrix(12,0,0,12,187,892)" />
<use xlink:href="#f1_2b" transform="matrix(12,0,0,12,197.2,892)" />
<use xlink:href="#f1_2h" transform="matrix(12,0,0,12,206.4,892)" />
<use xlink:href="#f1_2f" transform="matrix(12,0,0,12,216.6,892)" />
<use xlink:href="#f1_u" transform="matrix(12,0,0,12,223.6,892)" />
<use xlink:href="#f1_h" transform="matrix(12,0,0,12,230,892)" />
<use xlink:href="#f3_12" transform="matrix(12,0,0,12,241,892)" />
<use xlink:href="#f3_2b" transform="matrix(12,0,0,12,253.1,892)" />
<use xlink:href="#f3_2g" transform="matrix(12,0,0,12,262.3,892)" />
<use xlink:href="#f3_24" transform="matrix(12,0,0,12,267.8,892)" />
<use xlink:href="#f3_1y" transform="matrix(12,0,0,12,281.3,892)" />
<use xlink:href="#f3_2b" transform="matrix(12,0,0,12,290.1,892)" />
<use xlink:href="#f3_20" transform="matrix(12,0,0,12,299.6,892)" />
<use xlink:href="#f3_2l" transform="matrix(12,0,0,12,309.1,892)" />
<use xlink:href="#f3_2b" transform="matrix(12,0,0,12,322.3,892)" />
<use xlink:href="#f3_22" transform="matrix(12,0,0,12,331.8,892)" />
<use xlink:href="#f3_2b" transform="matrix(12,0,0,12,342.1,892)" />
<use xlink:href="#f3_2i" transform="matrix(12,0,0,12,351.6,892)" />
<use xlink:href="#f3_2h" transform="matrix(12,0,0,12,360.4,892)" />
<use xlink:href="#f3_28" transform="matrix(12,0,0,12,369.9,892)" />
<use xlink:href="#f3_21" transform="matrix(12,0,0,12,374.3,892)" />
<use xlink:href="#f3_1x" transform="matrix(12,0,0,12,387.1,892)" />
<use xlink:href="#f3_2a" transform="matrix(12,0,0,12,395.5,892)" />
<use xlink:href="#f3_20" transform="matrix(12,0,0,12,404.3,892)" />
<use xlink:href="#f3_21" transform="matrix(12,0,0,12,418.3,892)" />
<use xlink:href="#f3_29" transform="matrix(12,0,0,12,426.7,892)" />
<use xlink:href="#f3_1y" transform="matrix(12,0,0,12,440.6,892)" />
<use xlink:href="#f3_2e" transform="matrix(12,0,0,12,449.4,892)" />
<use xlink:href="#f3_2l" transform="matrix(12,0,0,12,456,892)" />
<use xlink:href="#f3_2b" transform="matrix(12,0,0,12,464.4,892)" />
<use xlink:href="#f3_2f" transform="matrix(12,0,0,12,479,892)" />
<use xlink:href="#f3_1x" transform="matrix(12,0,0,12,486,892)" />
<use xlink:href="#f3_1z" transform="matrix(12,0,0,12,494.1,892)" />
<use xlink:href="#f3_1x" transform="matrix(12,0,0,12,506.9,892)" />
<use xlink:href="#f3_2e" transform="matrix(12,0,0,12,515,892)" />
<use xlink:href="#f3_21" transform="matrix(12,0,0,12,521.2,892)" />
<use xlink:href="#f3_1z" transform="matrix(12,0,0,12,534,892)" />
<use xlink:href="#f3_2h" transform="matrix(12,0,0,12,542.1,892)" />
<use xlink:href="#f3_2e" transform="matrix(12,0,0,12,551.2,892)" />
<use xlink:href="#f3_2i" transform="matrix(12,0,0,12,557.4,892)" />
<use xlink:href="#f3_21" transform="matrix(12,0,0,12,566.2,892)" />
<use xlink:href="#f3_20" transform="matrix(12,0,0,12,574.3,892)" />
<use xlink:href="#f3_21" transform="matrix(12,0,0,12,588.2,892)" />
<use xlink:href="#f3_i" transform="matrix(12,0,0,12,596.3,892)" />
<use xlink:href="#f3_23" transform="matrix(12,0,0,12,601,892)" />
<use xlink:href="#f3_i" transform="matrix(12,0,0,12,610.2,892)" />
<use xlink:href="#f3_1z" transform="matrix(12,0,0,12,619.7,892)" />
<use xlink:href="#f3_2e" transform="matrix(12,0,0,12,627.8,892)" />
<use xlink:href="#f3_2h" transform="matrix(12,0,0,12,634,892)" />
<use xlink:href="#f3_1z" transform="matrix(12,0,0,12,643.1,892)" />
<use xlink:href="#f3_25" transform="matrix(12,0,0,12,651.2,892)" />
<use xlink:href="#f3_22" transform="matrix(12,0,0,12,656,892)" />
<use xlink:href="#f3_21" transform="matrix(12,0,0,12,661.8,892)" />
<use xlink:href="#f3_2e" transform="matrix(12,0,0,12,669.9,892)" />
<use xlink:href="#f3_2f" transform="matrix(12,0,0,12,676.1,892)" />
</g>
</g>
<path fill-rule="evenodd" d="M110,895.7H236.2v-1.9H110v1.9Z" class="g1_26" />
<path fill-rule="evenodd" d="M52.8,1203.4H857.2V917.3H52.8v286.1Z" class="g0_26" />
<image preserveAspectRatio="none" x="57" y="55" width="545" height="359" xlink:href="img/1.png" />
<image preserveAspectRatio="none" x="57" y="535" width="443" height="318" xlink:href="img/2.png" />
<image preserveAspectRatio="none" x="57" y="917" width="466" height="286" xlink:href="img/3.png" />
<g fill="#000000" >
<use xlink:href="#f4_l" transform="matrix(8,0,0,8,786.1,1264.1)" />
<use xlink:href="#f4_l" transform="matrix(8,0,0,8,792.9,1264.1)" />
</g>
<defs>
<path d="M273,157c0,0,-114,0,-193,80C80,237,0,317,0,431c0,0,0,112,80,192c0,0,79,80,193,80c0,0,113,0,192,-80c0,0,80,-80,80,-192c0,0,0,-114,-80,-194c0,0,-79,-80,-192,-80Z" 
id="f0_3d"
transform="scale(0.001,-0.001)" />

<path d="M608,-14c0,0,-251,0,-392,133C216,119,75,252,75,488c0,0,0,257,134,390c0,0,135,133,398,133c0,0,174,0,361,-50l4,-240H905L884,866c0,0,-98,67,-229,67c0,0,-173,0,-253,-108c0,0,-80,-108,-80,-334c0,0,0,-209,84,-319c0,0,83,-109,243,-109c0,0,84,0,147,22c0,0,63,22,99,53l24,164h68L982,48C982,48,915,22,808,4C808,4,700,-14,608,-14Z" 
id="f1_13"
transform="scale(0.001,-0.001)" />

<path d="M345,75c0,0,50,0,110,26V351l-63,-2c0,0,-72,-3,-100,-38c0,0,-28,-35,-28,-113c0,0,0,-63,22,-93c0,0,23,-30,59,-30ZM266,-14c0,0,-217,0,-217,208c0,0,0,79,32,126c0,0,32,48,93,71c0,0,60,22,190,25l91,2V521c0,0,0,126,-104,126c0,0,-62,0,-140,-39L183,521H134V691c0,0,112,17,165,21c0,0,53,5,108,5c0,0,264,0,264,-194V67L741,49V0H483L466,54C466,54,408,14,361,0c0,0,-47,-14,-95,-14Z" 
id="f1_1x"
transform="scale(0.001,-0.001)" />

<path d="M41,0V49l69,18V634L41,652v49H313l11,-61l50,26c0,0,105,54,188,54c0,0,125,0,167,-91c0,0,153,91,258,91c0,0,189,0,189,-207V67l71,-17V0H898V50l63,17V484c0,0,0,63,-24,98c0,0,-25,35,-74,35c0,0,-55,0,-119,-31c0,0,7,-32,7,-73V67L821,50V0H473V50l63,17V484c0,0,0,63,-25,98c0,0,-24,35,-73,35c0,0,-49,0,-113,-29V67L389,49V0Z" 
id="f1_29"
transform="scale(0.001,-0.001)" />

<path d="M438,65c0,0,131,0,131,293c0,0,0,279,-130,279c0,0,-69,0,-127,-29V80c0,0,60,-15,126,-15ZM20,-325v50l76,18V634L19,652v49H304l1,-36c0,0,80,55,194,55c0,0,146,0,218,-86c0,0,71,-86,71,-271c0,0,0,-183,-83,-280c0,0,-83,-97,-238,-97c0,0,-79,0,-160,19c0,0,5,-48,5,-109V-257l103,-18v-50Z" 
id="f1_2c"
transform="scale(0.001,-0.001)" />

<path d="M159,-329c0,0,-61,0,-123,14v180H81l32,-94c0,0,21,-17,55,-17c0,0,28,0,50,13c0,0,21,14,40,39c0,0,20,25,37,62c0,0,17,37,50,110L64,634L15,652v49H374V652L290,632L455,244L602,634l-82,18v49H749V652L698,637L421,-44c0,0,-47,-121,-83,-176c0,0,-36,-55,-80,-82c0,0,-43,-27,-99,-27Z" 
id="f1_2l"
transform="scale(0.001,-0.001)" />

<path d="M30,0V49l76,18V992l-72,18v50H322V67L398,49V0Z" 
id="f1_28"
transform="scale(0.001,-0.001)" />

<path d="M379,60c0,0,59,0,84,64c0,0,24,65,24,231c0,0,0,164,-24,227c0,0,-24,63,-84,63c0,0,-57,0,-80,-60c0,0,-22,-61,-22,-230c0,0,0,-173,23,-234c0,0,22,-61,79,-61Zm-2,-74c0,0,-161,0,-240,91c0,0,-79,91,-79,277c0,0,0,186,80,276c0,0,81,90,245,90c0,0,167,0,245,-93c0,0,78,-93,78,-273c0,0,0,-188,-81,-278c0,0,-81,-90,-248,-90Z" 
id="f1_2b"
transform="scale(0.001,-0.001)" />

<path d="M327,-14c0,0,-101,0,-156,45c0,0,-55,45,-55,131V624H25v48l108,29l87,159H332V701H480V624H332V176c0,0,0,-49,20,-73c0,0,20,-25,53,-25c0,0,40,0,97,12V26c0,0,-22,-15,-76,-27c0,0,-55,-13,-99,-13Z" 
id="f1_2g"
transform="scale(0.001,-0.001)" />

<path d="M41,0V49l91,18V634L41,652v49H336l8,-145c0,0,80,89,144,128c0,0,64,40,117,40h40V468H604l-45,94c0,0,-47,0,-106,-21c0,0,-60,-20,-105,-48V67L460,49V0Z" 
id="f1_2e"
transform="scale(0.001,-0.001)" />

<path d="M287,-18c0,0,-194,0,-194,206V634L23,652v49H309V217c0,0,0,-63,26,-98c0,0,27,-35,76,-35c0,0,57,0,113,25V634l-64,18v49H740V67L809,49V0H536L526,61L475,35c0,0,-104,-53,-188,-53Z" 
id="f1_2h"
transform="scale(0.001,-0.001)" />

<path d="M276,-14c0,0,-57,0,-125,13C151,-1,83,10,48,23V214H97l28,-98c0,0,26,-26,69,-44c0,0,42,-17,86,-17c0,0,65,0,97,28c0,0,32,28,32,71c0,0,0,41,-31,65c0,0,-30,25,-133,57c0,0,-108,34,-154,92c0,0,-45,58,-45,143c0,0,0,95,71,152c0,0,71,57,183,57c0,0,77,0,207,-22V518H457l-24,82c0,0,-21,22,-60,35c0,0,-40,14,-75,14c0,0,-53,0,-79,-22c0,0,-26,-22,-26,-59c0,0,0,-40,32,-65c0,0,32,-26,132,-55c0,0,109,-34,155,-89c0,0,45,-55,45,-137c0,0,0,-117,-72,-177c0,0,-72,-59,-209,-59Z" 
id="f1_2f"
transform="scale(0.001,-0.001)" />

<path d="M192,-20c0,0,-38,0,-64,25c0,0,-26,27,-26,64c0,0,0,38,26,64c0,0,26,26,64,26c0,0,39,0,65,-26c0,0,26,-26,26,-64c0,0,0,-37,-26,-64c0,0,-26,-25,-65,-25ZM298,535c0,0,-39,0,-65,27c0,0,-26,27,-26,63c0,0,0,38,26,65c0,0,27,26,65,26c0,0,38,0,64,-26c0,0,26,-27,26,-65c0,0,0,-36,-26,-63c0,0,-26,-27,-64,-27Z" 
id="f2_u"
transform="scale(0.001,-0.001)" />

<path d="M57,302V417H454V302Z" 
id="f2_h"
transform="scale(0.001,-0.001)" />

<path d="M235,0V40L394,60V936H356c0,0,-189,0,-258,-15L78,766H28v234H908V766H857L837,921c0,0,-22,5,-98,9c0,0,-75,4,-165,4H538V60L697,40V0Z" 
id="f3_1k"
transform="scale(0.001,-0.001)" />

<path d="M442,0V33l93,19V504c0,0,0,129,-124,129c0,0,-70,0,-168,-22V52L338,33V0H31V33l88,19v956L15,1026v34H243V756c0,0,0,-77,-5,-112c0,0,54,31,122,53c0,0,68,23,115,23c0,0,91,0,137,-53c0,0,47,-53,47,-154V52L744,33V0Z" 
id="f3_24"
transform="scale(0.001,-0.001)" />

<path d="M495,413c0,0,0,133,-34,190c0,0,-34,57,-105,57c0,0,-78,0,-119,-63c0,0,-42,-62,-42,-184ZM374,-14c0,0,-163,0,-239,87c0,0,-75,88,-75,283c0,0,0,183,77,273c0,0,76,91,219,91c0,0,269,0,269,-306V353H194V340c0,0,0,-103,23,-160c0,0,22,-57,70,-87c0,0,47,-29,124,-29c0,0,40,0,96,6c0,0,55,7,91,15V43C598,43,562,20,500,3c0,0,-61,-17,-126,-17Z" 
id="f3_21"
transform="scale(0.001,-0.001)" />

<path d="M376,50c0,0,103,0,149,80c0,0,46,81,46,240c0,0,0,137,-47,204c0,0,-48,67,-148,67c0,0,-44,0,-87,-7c0,0,-44,-8,-63,-17V62c0,0,63,-12,150,-12Zm3,-64c0,0,-64,0,-141,14c0,0,-78,14,-136,37v971L0,1026v34H226V809c0,0,0,-40,-4,-148c0,0,74,59,188,59c0,0,143,0,219,-87c0,0,77,-87,77,-263c0,0,0,-189,-84,-287c0,0,-84,-97,-243,-97Z" 
id="f3_1y"
transform="scale(0.001,-0.001)" />

<path d="M377,45c0,0,99,0,147,73c0,0,47,73,47,237c0,0,0,161,-47,233c0,0,-47,72,-147,72c0,0,-97,0,-141,-69c0,0,-44,-69,-44,-236c0,0,0,-169,45,-240c0,0,44,-70,140,-70Zm0,-59c0,0,-158,0,-238,94c0,0,-81,95,-81,274c0,0,0,178,81,272c0,0,80,94,244,94c0,0,160,0,241,-92c0,0,82,-92,82,-274c0,0,0,-368,-329,-368Z" 
id="f3_2b"
transform="scale(0.001,-0.001)" />

<path d="M383,64c0,0,85,0,152,28V645c0,0,-67,13,-152,13c0,0,-194,0,-194,-314c0,0,0,-141,48,-211c0,0,48,-69,146,-69ZM342,-14c0,0,-287,0,-287,358c0,0,0,184,82,280c0,0,81,96,239,96c0,0,81,0,163,-18c0,0,-4,25,-4,124v182l-118,18v34H659V52L745,33V0H548l-9,52c0,0,-84,-66,-197,-66Z" 
id="f3_20"
transform="scale(0.001,-0.001)" />

<path d="M148,-329c0,0,-58,0,-114,13v151H69l24,-71c0,0,23,-17,64,-17c0,0,39,0,72,22c0,0,33,23,60,67c0,0,27,44,68,157L90,649L19,668v33H344V668L233,648L423,158L606,649L497,668v33H758V668L685,652L411,-43c0,0,-48,-124,-84,-177c0,0,-36,-54,-79,-82c0,0,-44,-27,-100,-27Z" 
id="f3_2l"
transform="scale(0.001,-0.001)" />

<path d="M32,0V33L151,52V649L52,668v33H275V52L395,33V0ZM201,850c0,0,-32,0,-56,24c0,0,-24,24,-24,56c0,0,0,34,24,58c0,0,24,24,56,24c0,0,34,0,58,-24c0,0,24,-24,24,-58c0,0,0,-32,-24,-56c0,0,-24,-24,-58,-24Z" 
id="f3_25"
transform="scale(0.001,-0.001)" />

<path d="M278,-14c0,0,-52,0,-115,11c0,0,-63,10,-99,23V193H98L134,95c0,0,56,-50,146,-50c0,0,144,0,144,123c0,0,0,91,-114,130l-66,21c0,0,-75,25,-110,50c0,0,-34,26,-53,63c0,0,-18,36,-18,89c0,0,0,92,63,145c0,0,63,54,170,54c0,0,77,0,193,-23V544H454l-32,81c0,0,-39,35,-124,35c0,0,-61,0,-92,-30c0,0,-32,-30,-32,-80c0,0,0,-43,29,-72c0,0,28,-29,86,-48c0,0,110,-38,144,-55c0,0,33,-17,57,-42c0,0,23,-25,36,-57c0,0,13,-32,13,-79c0,0,0,-104,-66,-158c0,0,-66,-53,-195,-53Z" 
id="f3_2f"
transform="scale(0.001,-0.001)" />

<path d="M399,-14c0,0,-341,0,-341,370c0,0,0,175,87,269c0,0,87,95,249,95c0,0,101,0,220,-23V501H573L541,625c0,0,-62,35,-149,35c0,0,-200,0,-200,-304c0,0,0,-158,61,-225c0,0,61,-67,189,-67c0,0,109,0,189,24V43C631,43,595,16,530,1c0,0,-64,-15,-131,-15Z" 
id="f3_1z"
transform="scale(0.001,-0.001)" />

<path d="M289,-14c0,0,-179,0,-179,205V649L20,668v33H233V200c0,0,0,-128,120,-128c0,0,92,0,173,23V649L420,668v33H649V52L738,33V0H533l-6,57C527,57,474,28,405,7c0,0,-69,-21,-116,-21Z" 
id="f3_2h"
transform="scale(0.001,-0.001)" />

<path d="M31,0V33l88,19V649L31,668v33H235l7,-87c0,0,44,37,121,71c0,0,76,35,121,35h11V530H463l-43,82c0,0,-37,0,-88,-10c0,0,-52,-10,-89,-26V52L363,33V0Z" 
id="f3_2e"
transform="scale(0.001,-0.001)" />

<path d="M360,-14L72,649L0,668v33H327V668L216,648L420,164L615,649L504,668v33H764V668L697,652L416,-14Z" 
id="f3_2i"
transform="scale(0.001,-0.001)" />

<path d="M249,-14c0,0,-71,0,-107,42c0,0,-35,42,-35,119V639H15v33l93,29l76,159h47V701H391V639H231V161c0,0,0,-48,22,-73c0,0,22,-24,57,-24c0,0,44,0,106,12V26C416,26,389,8,340,-2c0,0,-49,-12,-91,-12Z" 
id="f3_2g"
transform="scale(0.001,-0.001)" />

<path d="M431,0V33L535,52V499c0,0,0,62,-32,96c0,0,-32,33,-95,33c0,0,-66,0,-163,-22V52L350,33V0H32V33l89,19V649L32,668v33H237l6,-57c0,0,56,32,119,54c0,0,62,22,110,22c0,0,52,0,95,-20c0,0,44,-19,66,-62c0,0,57,32,134,57c0,0,77,25,128,25c0,0,179,0,179,-207V52l90,-19V0H846V33L950,52V499c0,0,0,129,-119,129c0,0,-19,0,-45,-3c0,0,-26,-3,-52,-7c0,0,-25,-4,-49,-8c0,0,-23,-5,-39,-8c0,0,13,-41,13,-89V52L764,33V0Z" 
id="f3_29"
transform="scale(0.001,-0.001)" />

<path d="M284,67c0,0,51,0,88,12c0,0,37,12,74,30V358l-98,-3c0,0,-100,-4,-135,-39c0,0,-35,-35,-35,-117c0,0,0,-132,106,-132ZM233,-14c0,0,-179,0,-179,208c0,0,0,70,27,116c0,0,27,46,87,70c0,0,60,24,173,27l105,3V519c0,0,0,72,-26,107c0,0,-27,34,-82,34c0,0,-75,0,-137,-35L176,538H134V691c0,0,121,26,213,26c0,0,115,0,169,-47c0,0,54,-47,54,-144V52L657,33V0H465L451,70c0,0,-85,-84,-218,-84Z" 
id="f3_1x"
transform="scale(0.001,-0.001)" />

<path d="M359,-270c0,0,124,0,192,46c0,0,67,47,67,129c0,0,0,43,-26,67c0,0,-26,24,-79,24H242c0,0,-32,-27,-51,-69c0,0,-20,-41,-20,-77c0,0,0,-64,46,-92c0,0,46,-28,142,-28Zm11,561c0,0,81,0,115,47c0,0,34,47,34,141c0,0,0,100,-35,142c0,0,-35,42,-113,42c0,0,-78,0,-114,-43c0,0,-37,-42,-37,-141c0,0,0,-98,36,-143c0,0,36,-45,114,-45ZM359,-329c0,0,-143,0,-218,44c0,0,-75,43,-75,125c0,0,0,39,27,78c0,0,26,38,98,89c0,0,-43,14,-72,48c0,0,-29,35,-29,74L208,262c0,0,-118,55,-118,217c0,0,0,115,73,178c0,0,73,63,211,63c0,0,28,0,71,-6c0,0,44,-6,67,-13l165,83l26,-32L599,644c0,0,50,-56,50,-165c0,0,0,-120,-72,-182c0,0,-73,-62,-208,-62c0,0,-62,0,-114,11L208,148c0,0,2,-13,29,-24c0,0,27,-12,67,-12H512c0,0,113,0,168,-49c0,0,55,-49,55,-134c0,0,0,-79,-44,-137c0,0,-43,-58,-128,-90c0,0,-84,-31,-204,-31Z" 
id="f3_23"
transform="scale(0.001,-0.001)" />

<path d="M191,-20c0,0,-39,0,-65,25c0,0,-25,27,-25,64c0,0,0,38,26,64c0,0,26,26,64,26c0,0,38,0,64,-26c0,0,26,-26,26,-64c0,0,0,-37,-25,-64c0,0,-26,-25,-65,-25Z" 
id="f3_i"
transform="scale(0.001,-0.001)" />

<path d="M44,0V40L172,60V941L44,960v40H445V960L316,941V549H787V941L659,960v40h400V960L930,941V60L1059,40V0H659V40L787,60V481H316V60L445,40V0Z" 
id="f3_18"
transform="scale(0.001,-0.001)" />

<path d="M31,0V33L150,52v956L31,1026v34H274V52L394,33V0Z" 
id="f3_28"
transform="scale(0.001,-0.001)" />

<path d="M58,-234v58c0,0,131,42,131,125c0,0,0,15,-11,27c0,0,-11,12,-38,25C140,1,89,27,89,75c0,0,0,40,25,61c0,0,26,21,65,21c0,0,48,0,77,-34c0,0,30,-34,30,-86c0,0,0,-101,-60,-170c0,0,-59,-69,-168,-101Z" 
id="f3_g"
transform="scale(0.001,-0.001)" />

<path d="M41,0V34L426,641H261c0,0,-42,0,-80,-7c0,0,-39,-7,-54,-19L104,515H69V701H586V665L201,60H407c0,0,42,0,89,10c0,0,47,10,66,25l39,147h35L617,0Z" 
id="f3_2m"
transform="scale(0.001,-0.001)" />

<path d="M439,0V33l93,19V500c0,0,0,62,-30,97c0,0,-31,36,-94,36c0,0,-67,0,-165,-22V52L338,33V0H35V33l84,19V649L35,668v33H235l7,-57c0,0,57,33,122,54c0,0,65,22,108,22c0,0,91,0,137,-53c0,0,47,-53,47,-154V52L741,33V0Z" 
id="f3_2a"
transform="scale(0.001,-0.001)" />

<path d="M382,45c0,0,188,0,188,314c0,0,0,143,-47,213c0,0,-46,69,-141,69c0,0,-87,0,-146,-24V58c0,0,67,-13,146,-13ZM25,-325v35l88,18V649L34,668v33H231l1,-41c0,0,31,27,84,43c0,0,53,17,107,17c0,0,134,0,208,-94c0,0,73,-93,73,-267c0,0,0,-178,-80,-276c0,0,-80,-97,-232,-97c0,0,-84,0,-160,16c0,0,4,-53,4,-84V-272l123,-18v-35Z" 
id="f3_2c"
transform="scale(0.001,-0.001)" />

<path d="M577,-14c0,0,-243,0,-379,132C198,118,63,250,63,488c0,0,0,258,130,391c0,0,131,132,387,132c0,0,156,0,335,-38l5,-218H871L848,884c0,0,-52,32,-121,50c0,0,-69,17,-141,17c0,0,-191,0,-279,-112c0,0,-88,-113,-88,-349c0,0,0,-217,92,-332c0,0,92,-115,268,-115c0,0,85,0,160,20c0,0,76,21,120,55l27,149h49L930,32c0,0,-164,-46,-353,-46Z" 
id="f3_13"
transform="scale(0.001,-0.001)" />

<path d="M639,416L478,858L313,416ZM647,0V54L762,74L667,333H283L191,74L319,54V0H15V54L90,74l355,935H662L1016,74l76,-20V0Z" 
id="f1_11"
transform="scale(0.001,-0.001)" />

<path d="M41,0V49l69,18V992l-72,18v50H325V756c0,0,0,-49,-4,-116l51,26c0,0,106,54,190,54c0,0,194,0,194,-207V67L827,49V0H478V49l63,18V484c0,0,0,63,-27,98c0,0,-26,35,-75,35c0,0,-57,0,-114,-25V67L389,49V0Z" 
id="f1_24"
transform="scale(0.001,-0.001)" />

<path d="M34,0V49l76,18V634L38,652v49H325V67L402,49V0ZM217,831c0,0,-48,0,-81,33c0,0,-34,33,-34,82c0,0,0,48,34,81c0,0,34,33,81,33c0,0,48,0,81,-33c0,0,33,-33,33,-81c0,0,0,-47,-33,-81c0,0,-32,-34,-81,-34Z" 
id="f1_25"
transform="scale(0.001,-0.001)" />

<path d="M248,-20c0,0,-52,0,-87,34c0,0,-36,36,-36,88c0,0,0,52,36,88c0,0,35,36,87,36c0,0,52,0,88,-36c0,0,36,-36,36,-88c0,0,0,-51,-36,-87c0,0,-35,-35,-88,-35Zm0,488c0,0,-52,0,-87,36c0,0,-36,36,-36,88c0,0,0,52,35,88c0,0,35,36,88,36c0,0,53,0,89,-36c0,0,35,-37,35,-88c0,0,0,-51,-36,-87c0,0,-35,-37,-88,-37Z" 
id="f1_u"
transform="scale(0.001,-0.001)" />

<path d="M56,294V424H453V294Z" 
id="f1_h"
transform="scale(0.001,-0.001)" />

<path d="M536,63c0,0,127,0,191,54c0,0,63,54,63,168c0,0,0,105,-70,154c0,0,-70,49,-225,49H316V67c0,0,103,-4,220,-4ZM480,555c0,0,121,0,178,48c0,0,57,48,57,155c0,0,0,91,-58,133c0,0,-57,42,-186,42H316V555ZM554,-4L235,0H44V40L172,60V941L44,960v40H501c0,0,191,0,279,-56c0,0,88,-56,88,-179c0,0,0,-88,-55,-149c0,0,-54,-62,-151,-83c0,0,135,-14,209,-79c0,0,73,-65,73,-166c0,0,0,-144,-99,-219C845,69,745,-4,554,-4Z" 
id="f3_12"
transform="scale(0.001,-0.001)" />

<path d="M64,0V34L168,59V639H47v36l121,29v49c0,0,0,155,61,239c0,0,62,84,173,84c0,0,58,0,107,-15V908H472l-33,92c0,0,-26,16,-62,16c0,0,-47,0,-66,-42c0,0,-19,-42,-19,-157V701H478V639H292V59L443,34V0Z" 
id="f3_22"
transform="scale(0.001,-0.001)" />

<path d="M435,0V856c0,0,-48,-47,-127,-93c0,0,-79,-46,-142,-69V824c0,0,113,52,197,128c0,0,85,75,120,146h86V0Z" 
id="f4_l"
transform="scale(0.001,-0.001)" />


</defs>
</svg>