<?xml version="1.0" encoding="UTF-8" standalone="no"?>
<!DOCTYPE svg PUBLIC "-//W3C//DTD SVG 1.1//EN"
"http://www.w3.org/Graphics/SVG/1.1/DTD/svg11.dtd">
<svg viewBox="0 0 909 1286" version="1.1" xmlns="http://www.w3.org/2000/svg" xmlns:xlink="http://www.w3.org/1999/xlink">
<defs>
<style type="text/css"><![CDATA[
.g0_16{
fill: #FFFFFF;
}
.g1_16{
fill: #1F3331;
}
]]></style>
</defs>
<path fill-rule="evenodd" d="M52.8,91.3H857.2V70.1H52.8V91.3Z" class="g0_16" />
<g fill="#1F3331" >
<use xlink:href="#f0_1j" transform="matrix(12,0,0,12,228.5,87.3)" />
<use xlink:href="#f0_15" transform="matrix(12,0,0,12,238.8,87.3)" />
<use xlink:href="#f0_1o" transform="matrix(12,0,0,12,250.9,87.3)" />
<use xlink:href="#f0_1l" transform="matrix(12,0,0,12,264.1,87.3)" />
<use xlink:href="#f0_11" transform="matrix(12,0,0,12,277.3,87.3)" />
<use xlink:href="#f0_1c" transform="matrix(12,0,0,12,290.5,87.3)" />
<use xlink:href="#f0_1i" transform="matrix(12,0,0,12,307.3,87.3)" />
<use xlink:href="#f0_15" transform="matrix(12,0,0,12,320.6,87.3)" />
<use xlink:href="#f0_1g" transform="matrix(12,0,0,12,332.6,87.3)" />
<use xlink:href="#f0_1i" transform="matrix(12,0,0,12,343.6,87.3)" />
<use xlink:href="#f0_1f" transform="matrix(12,0,0,12,356.9,87.3)" />
<use xlink:href="#f0_14" transform="matrix(12,0,0,12,371.1,87.3)" />
<use xlink:href="#f0_1l" transform="matrix(12,0,0,12,384.4,87.3)" />
<use xlink:href="#f0_13" transform="matrix(12,0,0,12,397.9,87.3)" />
<use xlink:href="#f0_1k" transform="matrix(12,0,0,12,411.1,87.3)" />
<use xlink:href="#f0_19" transform="matrix(12,0,0,12,423.2,87.3)" />
<use xlink:href="#f0_1f" transform="matrix(12,0,0,12,430.2,87.3)" />
<use xlink:href="#f0_1e" transform="matrix(12,0,0,12,444.4,87.3)" />
<use xlink:href="#f0_19" transform="matrix(12,0,0,12,462.4,87.3)" />
<use xlink:href="#f0_1e" transform="matrix(12,0,0,12,469.4,87.3)" />
<use xlink:href="#f0_16" transform="matrix(12,0,0,12,487.3,87.3)" />
<use xlink:href="#f0_1c" transform="matrix(12,0,0,12,498.7,87.3)" />
<use xlink:href="#f0_1f" transform="matrix(12,0,0,12,510.8,87.3)" />
<use xlink:href="#f0_1n" transform="matrix(12,0,0,12,525,87.3)" />
<use xlink:href="#f0_15" transform="matrix(12,0,0,12,543.4,87.3)" />
<use xlink:href="#f0_1i" transform="matrix(12,0,0,12,555.5,87.3)" />
<use xlink:href="#f0_19" transform="matrix(12,0,0,12,569,87.3)" />
<use xlink:href="#f0_1e" transform="matrix(12,0,0,12,576,87.3)" />
<use xlink:href="#f0_17" transform="matrix(12,0,0,12,589.6,87.3)" />
<use xlink:href="#f0_1g" transform="matrix(12,0,0,12,608.6,87.3)" />
<use xlink:href="#f0_1c" transform="matrix(12,0,0,12,619.6,87.3)" />
<use xlink:href="#f0_11" transform="matrix(12,0,0,12,631.7,87.3)" />
<use xlink:href="#f0_1e" transform="matrix(12,0,0,12,644.9,87.3)" />
<use xlink:href="#f0_1k" transform="matrix(12,0,0,12,658.1,87.3)" />
<use xlink:href="#f0_1j" transform="matrix(12,0,0,12,670.2,87.3)" />
</g>
<path fill-rule="evenodd" d="M228.5,91H681.2V89.1H228.5V91Z" class="g1_16" />
<path fill-rule="evenodd" d="M80.3,133.5H857.2V112.2H80.3v21.3Z" class="g0_16" />
<g fill="#1F3331" >
<use xlink:href="#f1_3d" transform="matrix(10.1,0,0,10.1,82.5,129.5)" />
<use xlink:href="#f2_1j" transform="matrix(12,0,0,12,110,129.5)" />
<use xlink:href="#f2_21" transform="matrix(12,0,0,12,120.3,129.5)" />
<use xlink:href="#f2_2k" transform="matrix(12,0,0,12,128.4,129.5)" />
<use xlink:href="#f2_2h" transform="matrix(12,0,0,12,137.2,129.5)" />
<use xlink:href="#f2_1x" transform="matrix(12,0,0,12,146.3,129.5)" />
<use xlink:href="#f2_28" transform="matrix(12,0,0,12,154.7,129.5)" />
<use xlink:href="#f2_2e" transform="matrix(12,0,0,12,163.9,129.5)" />
<use xlink:href="#f2_21" transform="matrix(12,0,0,12,170.1,129.5)" />
<use xlink:href="#f2_2c" transform="matrix(12,0,0,12,178.2,129.5)" />
<use xlink:href="#f2_2e" transform="matrix(12,0,0,12,187.3,129.5)" />
<use xlink:href="#f2_2b" transform="matrix(12,0,0,12,193.6,129.5)" />
<use xlink:href="#f2_20" transform="matrix(12,0,0,12,203.1,129.5)" />
<use xlink:href="#f2_2h" transform="matrix(12,0,0,12,212.2,129.5)" />
<use xlink:href="#f2_1z" transform="matrix(12,0,0,12,221.4,129.5)" />
<use xlink:href="#f2_2g" transform="matrix(12,0,0,12,229.5,129.5)" />
<use xlink:href="#f2_25" transform="matrix(12,0,0,12,235,129.5)" />
<use xlink:href="#f2_2b" transform="matrix(12,0,0,12,239.4,129.5)" />
<use xlink:href="#f2_2a" transform="matrix(12,0,0,12,248.9,129.5)" />
<use xlink:href="#f2_25" transform="matrix(12,0,0,12,262.4,129.5)" />
<use xlink:href="#f2_2f" transform="matrix(12,0,0,12,267.2,129.5)" />
<use xlink:href="#f2_2g" transform="matrix(12,0,0,12,278.6,129.5)" />
<use xlink:href="#f2_24" transform="matrix(12,0,0,12,284,129.5)" />
<use xlink:href="#f2_21" transform="matrix(12,0,0,12,292.8,129.5)" />
<use xlink:href="#f2_2c" transform="matrix(12,0,0,12,305.3,129.5)" />
<use xlink:href="#f2_2e" transform="matrix(12,0,0,12,314.5,129.5)" />
<use xlink:href="#f2_2b" transform="matrix(12,0,0,12,320.7,129.5)" />
<use xlink:href="#f2_1z" transform="matrix(12,0,0,12,330.2,129.5)" />
<use xlink:href="#f2_21" transform="matrix(12,0,0,12,338.3,129.5)" />
<use xlink:href="#f2_2f" transform="matrix(12,0,0,12,346.3,129.5)" />
<use xlink:href="#f2_2f" transform="matrix(12,0,0,12,353.3,129.5)" />
<use xlink:href="#f2_2b" transform="matrix(12,0,0,12,364.7,129.5)" />
<use xlink:href="#f2_22" transform="matrix(12,0,0,12,374.2,129.5)" />
<use xlink:href="#f2_20" transform="matrix(12,0,0,12,384.1,129.5)" />
<use xlink:href="#f2_21" transform="matrix(12,0,0,12,393.3,129.5)" />
<use xlink:href="#f2_2i" transform="matrix(12,0,0,12,401.7,129.5)" />
<use xlink:href="#f2_21" transform="matrix(12,0,0,12,410.5,129.5)" />
<use xlink:href="#f2_28" transform="matrix(12,0,0,12,418.9,129.5)" />
<use xlink:href="#f2_2b" transform="matrix(12,0,0,12,423.3,129.5)" />
<use xlink:href="#f2_2c" transform="matrix(12,0,0,12,432.8,129.5)" />
<use xlink:href="#f2_29" transform="matrix(12,0,0,12,442.3,129.5)" />
<use xlink:href="#f2_21" transform="matrix(12,0,0,12,456.2,129.5)" />
<use xlink:href="#f2_2a" transform="matrix(12,0,0,12,464.7,129.5)" />
<use xlink:href="#f2_2g" transform="matrix(12,0,0,12,473.5,129.5)" />
<use xlink:href="#f2_2b" transform="matrix(12,0,0,12,483.3,129.5)" />
<use xlink:href="#f2_22" transform="matrix(12,0,0,12,492.9,129.5)" />
<use xlink:href="#f2_2a" transform="matrix(12,0,0,12,503.1,129.5)" />
<use xlink:href="#f2_21" transform="matrix(12,0,0,12,511.9,129.5)" />
<use xlink:href="#f2_2j" transform="matrix(12,0,0,12,520,129.5)" />
<use xlink:href="#f2_2b" transform="matrix(12,0,0,12,537.6,129.5)" />
<use xlink:href="#f2_2e" transform="matrix(12,0,0,12,547.1,129.5)" />
<use xlink:href="#f2_23" transform="matrix(12,0,0,12,553.3,129.5)" />
<use xlink:href="#f2_1x" transform="matrix(12,0,0,12,562.5,129.5)" />
<use xlink:href="#f2_2a" transform="matrix(12,0,0,12,570.5,129.5)" />
<use xlink:href="#f2_25" transform="matrix(12,0,0,12,579.7,129.5)" />
<use xlink:href="#f2_2f" transform="matrix(12,0,0,12,584.5,129.5)" />
<use xlink:href="#f2_29" transform="matrix(12,0,0,12,591.8,129.5)" />
<use xlink:href="#f2_2f" transform="matrix(12,0,0,12,605.7,129.5)" />
<use xlink:href="#f2_22" transform="matrix(12,0,0,12,618.1,129.5)" />
<use xlink:href="#f2_2e" transform="matrix(12,0,0,12,624,129.5)" />
<use xlink:href="#f2_2b" transform="matrix(12,0,0,12,630.2,129.5)" />
<use xlink:href="#f2_29" transform="matrix(12,0,0,12,639.7,129.5)" />
<use xlink:href="#f2_2g" transform="matrix(12,0,0,12,657.7,129.5)" />
<use xlink:href="#f2_2j" transform="matrix(12,0,0,12,663.1,129.5)" />
<use xlink:href="#f2_2b" transform="matrix(12,0,0,12,676.4,129.5)" />
<use xlink:href="#f2_2c" transform="matrix(12,0,0,12,690.3,129.5)" />
<use xlink:href="#f2_1x" transform="matrix(12,0,0,12,699.4,129.5)" />
<use xlink:href="#f2_2e" transform="matrix(12,0,0,12,707.5,129.5)" />
<use xlink:href="#f2_21" transform="matrix(12,0,0,12,713.7,129.5)" />
<use xlink:href="#f2_2a" transform="matrix(12,0,0,12,721.8,129.5)" />
<use xlink:href="#f2_2g" transform="matrix(12,0,0,12,730.6,129.5)" />
<use xlink:href="#f2_2f" transform="matrix(12,0,0,12,736,129.5)" />
<use xlink:href="#f2_2g" transform="matrix(12,0,0,12,747,129.5)" />
<use xlink:href="#f2_24" transform="matrix(12,0,0,12,752.5,129.5)" />
<use xlink:href="#f2_2e" transform="matrix(12,0,0,12,761.3,129.5)" />
<use xlink:href="#f2_2b" transform="matrix(12,0,0,12,767.5,129.5)" />
<use xlink:href="#f2_2h" transform="matrix(12,0,0,12,777.1,129.5)" />
<use xlink:href="#f2_23" transform="matrix(12,0,0,12,786.2,129.5)" />
<use xlink:href="#f2_24" transform="matrix(12,0,0,12,795.4,129.5)" />
<use xlink:href="#f2_22" transform="matrix(12,0,0,12,808.9,129.5)" />
<use xlink:href="#f2_2h" transform="matrix(12,0,0,12,814.4,129.5)" />
<use xlink:href="#f2_2f" transform="matrix(12,0,0,12,823.6,129.5)" />
<use xlink:href="#f2_25" transform="matrix(12,0,0,12,830.9,129.5)" />
<use xlink:href="#f2_2b" transform="matrix(12,0,0,12,835.3,129.5)" />
<use xlink:href="#f2_2a" transform="matrix(12,0,0,12,845.2,129.5)" />
</g>
<path fill-rule="evenodd" d="M80.3,154.4H857.2V133.5H80.3v20.9Z" class="g0_16" />
<g fill="#1F3331" >
<use xlink:href="#f2_2b" transform="matrix(12,0,0,12,110,150.4)" />
<use xlink:href="#f2_22" transform="matrix(12,0,0,12,119.6,150.4)" />
<use xlink:href="#f2_29" transform="matrix(12,0,0,12,130.2,150.4)" />
<use xlink:href="#f2_1x" transform="matrix(12,0,0,12,143.7,150.4)" />
<use xlink:href="#f2_28" transform="matrix(12,0,0,12,152.1,150.4)" />
<use xlink:href="#f2_21" transform="matrix(12,0,0,12,156.9,150.4)" />
<use xlink:href="#f2_1x" transform="matrix(12,0,0,12,169.7,150.4)" />
<use xlink:href="#f2_2a" transform="matrix(12,0,0,12,178.1,150.4)" />
<use xlink:href="#f2_20" transform="matrix(12,0,0,12,186.9,150.4)" />
<use xlink:href="#f2_22" transform="matrix(12,0,0,12,201.2,150.4)" />
<use xlink:href="#f2_21" transform="matrix(12,0,0,12,206.7,150.4)" />
<use xlink:href="#f2_29" transform="matrix(12,0,0,12,215.1,150.4)" />
<use xlink:href="#f2_1x" transform="matrix(12,0,0,12,229.1,150.4)" />
<use xlink:href="#f2_28" transform="matrix(12,0,0,12,237.5,150.4)" />
<use xlink:href="#f2_21" transform="matrix(12,0,0,12,242.3,150.4)" />
<use xlink:href="#f2_23" transform="matrix(12,0,0,12,255.1,150.4)" />
<use xlink:href="#f2_1x" transform="matrix(12,0,0,12,264.2,150.4)" />
<use xlink:href="#f2_29" transform="matrix(12,0,0,12,272.7,150.4)" />
<use xlink:href="#f2_21" transform="matrix(12,0,0,12,286.6,150.4)" />
<use xlink:href="#f2_2g" transform="matrix(12,0,0,12,294.7,150.4)" />
<use xlink:href="#f2_21" transform="matrix(12,0,0,12,300.1,150.4)" />
<use xlink:href="#f2_i" transform="matrix(12,0,0,12,308.2,150.4)" />
</g>
<path fill-rule="evenodd" d="M80.3,175.7H857.2V154.4H80.3v21.3Z" class="g0_16" />
<g fill="#1F3331" >
<use xlink:href="#f1_3d" transform="matrix(10.1,0,0,10.1,82.5,171.3)" />
<use xlink:href="#f2_1k" transform="matrix(12,0,0,12,114.8,171.3)" />
<use xlink:href="#f2_24" transform="matrix(12,0,0,12,126.2,171.3)" />
<use xlink:href="#f2_21" transform="matrix(12,0,0,12,135,171.3)" />
<use xlink:href="#f2_22" transform="matrix(12,0,0,12,152.2,171.3)" />
<use xlink:href="#f2_28" transform="matrix(12,0,0,12,158,171.3)" />
<use xlink:href="#f2_2b" transform="matrix(12,0,0,12,162.4,171.3)" />
<use xlink:href="#f2_2j" transform="matrix(12,0,0,12,171.9,171.3)" />
<use xlink:href="#f2_21" transform="matrix(12,0,0,12,185.2,171.3)" />
<use xlink:href="#f2_2e" transform="matrix(12,0,0,12,193.2,171.3)" />
<use xlink:href="#f2_25" transform="matrix(12,0,0,12,208.6,171.3)" />
<use xlink:href="#f2_2f" transform="matrix(12,0,0,12,213.3,171.3)" />
<use xlink:href="#f2_2g" transform="matrix(12,0,0,12,229.1,171.3)" />
<use xlink:href="#f2_24" transform="matrix(12,0,0,12,234.6,171.3)" />
<use xlink:href="#f2_21" transform="matrix(12,0,0,12,243.4,171.3)" />
<use xlink:href="#f2_29" transform="matrix(12,0,0,12,260.6,171.3)" />
<use xlink:href="#f2_1x" transform="matrix(12,0,0,12,274.5,171.3)" />
<use xlink:href="#f2_25" transform="matrix(12,0,0,12,282.9,171.3)" />
<use xlink:href="#f2_2a" transform="matrix(12,0,0,12,287.7,171.3)" />
<use xlink:href="#f2_2f" transform="matrix(12,0,0,12,305.7,171.3)" />
<use xlink:href="#f2_2g" transform="matrix(12,0,0,12,312.6,171.3)" />
<use xlink:href="#f2_2e" transform="matrix(12,0,0,12,318.1,171.3)" />
<use xlink:href="#f2_2h" transform="matrix(12,0,0,12,324.3,171.3)" />
<use xlink:href="#f2_1z" transform="matrix(12,0,0,12,333.5,171.3)" />
<use xlink:href="#f2_2g" transform="matrix(12,0,0,12,341.5,171.3)" />
<use xlink:href="#f2_2h" transform="matrix(12,0,0,12,347.4,171.3)" />
<use xlink:href="#f2_2e" transform="matrix(12,0,0,12,356.6,171.3)" />
<use xlink:href="#f2_21" transform="matrix(12,0,0,12,362.8,171.3)" />
<use xlink:href="#f2_1z" transform="matrix(12,0,0,12,379.6,171.3)" />
<use xlink:href="#f2_2b" transform="matrix(12,0,0,12,387.3,171.3)" />
<use xlink:href="#f2_2a" transform="matrix(12,0,0,12,396.8,171.3)" />
<use xlink:href="#f2_1z" transform="matrix(12,0,0,12,405.6,171.3)" />
<use xlink:href="#f2_21" transform="matrix(12,0,0,12,413.7,171.3)" />
<use xlink:href="#f2_2e" transform="matrix(12,0,0,12,421.8,171.3)" />
<use xlink:href="#f2_2a" transform="matrix(12,0,0,12,428,171.3)" />
<use xlink:href="#f2_21" transform="matrix(12,0,0,12,436.8,171.3)" />
<use xlink:href="#f2_20" transform="matrix(12,0,0,12,444.8,171.3)" />
<use xlink:href="#f2_2j" transform="matrix(12,0,0,12,462.8,171.3)" />
<use xlink:href="#f2_25" transform="matrix(12,0,0,12,476.3,171.3)" />
<use xlink:href="#f2_2g" transform="matrix(12,0,0,12,481.4,171.3)" />
<use xlink:href="#f2_24" transform="matrix(12,0,0,12,487,171.3)" />
<use xlink:href="#f2_2e" transform="matrix(12,0,0,12,504.5,171.3)" />
<use xlink:href="#f2_21" transform="matrix(12,0,0,12,510.8,171.3)" />
<use xlink:href="#f2_2c" transform="matrix(12,0,0,12,518.8,171.3)" />
<use xlink:href="#f2_2e" transform="matrix(12,0,0,12,528,171.3)" />
<use xlink:href="#f2_2b" transform="matrix(12,0,0,12,533.9,171.3)" />
<use xlink:href="#f2_20" transform="matrix(12,0,0,12,543.4,171.3)" />
<use xlink:href="#f2_2h" transform="matrix(12,0,0,12,552.5,171.3)" />
<use xlink:href="#f2_1z" transform="matrix(12,0,0,12,561.7,171.3)" />
<use xlink:href="#f2_2g" transform="matrix(12,0,0,12,569.4,171.3)" />
<use xlink:href="#f2_25" transform="matrix(12,0,0,12,574.9,171.3)" />
<use xlink:href="#f2_2b" transform="matrix(12,0,0,12,579.3,171.3)" />
<use xlink:href="#f2_2a" transform="matrix(12,0,0,12,588.8,171.3)" />
<use xlink:href="#f2_i" transform="matrix(12,0,0,12,597.6,171.3)" />
<use xlink:href="#f2_1k" transform="matrix(12,0,0,12,611.5,171.3)" />
<use xlink:href="#f2_24" transform="matrix(12,0,0,12,622.8,171.3)" />
<use xlink:href="#f2_21" transform="matrix(12,0,0,12,632,171.3)" />
<use xlink:href="#f2_2e" transform="matrix(12,0,0,12,648.9,171.3)" />
<use xlink:href="#f2_21" transform="matrix(12,0,0,12,655.1,171.3)" />
<use xlink:href="#f2_2c" transform="matrix(12,0,0,12,663.1,171.3)" />
<use xlink:href="#f2_2e" transform="matrix(12,0,0,12,672.3,171.3)" />
<use xlink:href="#f2_2b" transform="matrix(12,0,0,12,678.5,171.3)" />
<use xlink:href="#f2_20" transform="matrix(12,0,0,12,688,171.3)" />
<use xlink:href="#f2_2h" transform="matrix(12,0,0,12,697.2,171.3)" />
<use xlink:href="#f2_1z" transform="matrix(12,0,0,12,706.4,171.3)" />
<use xlink:href="#f2_2g" transform="matrix(12,0,0,12,714.1,171.3)" />
<use xlink:href="#f2_25" transform="matrix(12,0,0,12,719.5,171.3)" />
<use xlink:href="#f2_2i" transform="matrix(12,0,0,12,724.3,171.3)" />
<use xlink:href="#f2_21" transform="matrix(12,0,0,12,733.1,171.3)" />
<use xlink:href="#f2_2b" transform="matrix(12,0,0,12,750,171.3)" />
<use xlink:href="#f2_2e" transform="matrix(12,0,0,12,759.5,171.3)" />
<use xlink:href="#f2_23" transform="matrix(12,0,0,12,765.7,171.3)" />
<use xlink:href="#f2_1x" transform="matrix(12,0,0,12,774.9,171.3)" />
<use xlink:href="#f2_2a" transform="matrix(12,0,0,12,782.9,171.3)" />
<use xlink:href="#f2_2f" transform="matrix(12,0,0,12,791.7,171.3)" />
<use xlink:href="#f2_2b" transform="matrix(12,0,0,12,807.5,171.3)" />
<use xlink:href="#f2_2e" transform="matrix(12,0,0,12,817,171.3)" />
<use xlink:href="#f2_2g" transform="matrix(12,0,0,12,832,171.3)" />
<use xlink:href="#f2_24" transform="matrix(12,0,0,12,837.5,171.3)" />
<use xlink:href="#f2_21" transform="matrix(12,0,0,12,846.3,171.3)" />
</g>
<path fill-rule="evenodd" d="M80.3,196.6H857.2V175.7H80.3v20.9Z" class="g0_16" />
<g fill="#1F3331" >
<use xlink:href="#f2_2f" transform="matrix(12,0,0,12,110,192.5)" />
<use xlink:href="#f2_2c" transform="matrix(12,0,0,12,117,192.5)" />
<use xlink:href="#f2_2b" transform="matrix(12,0,0,12,126.2,192.5)" />
<use xlink:href="#f2_2e" transform="matrix(12,0,0,12,135.7,192.5)" />
<use xlink:href="#f2_2b" transform="matrix(12,0,0,12,141.6,192.5)" />
<use xlink:href="#f2_2c" transform="matrix(12,0,0,12,151.1,192.5)" />
<use xlink:href="#f2_24" transform="matrix(12,0,0,12,160.2,192.5)" />
<use xlink:href="#f2_2l" transform="matrix(12,0,0,12,169.4,192.5)" />
<use xlink:href="#f2_28" transform="matrix(12,0,0,12,178.2,192.5)" />
<use xlink:href="#f2_28" transform="matrix(12,0,0,12,183.3,192.5)" />
<use xlink:href="#f2_2f" transform="matrix(12,0,0,12,188.1,192.5)" />
<use xlink:href="#f2_1x" transform="matrix(12,0,0,12,199.8,192.5)" />
<use xlink:href="#f2_2e" transform="matrix(12,0,0,12,207.9,192.5)" />
<use xlink:href="#f2_21" transform="matrix(12,0,0,12,214.1,192.5)" />
<use xlink:href="#f2_2c" transform="matrix(12,0,0,12,226.9,192.5)" />
<use xlink:href="#f2_2e" transform="matrix(12,0,0,12,236.1,192.5)" />
<use xlink:href="#f2_2b" transform="matrix(12,0,0,12,242.3,192.5)" />
<use xlink:href="#f2_20" transform="matrix(12,0,0,12,251.8,192.5)" />
<use xlink:href="#f2_2h" transform="matrix(12,0,0,12,261,192.5)" />
<use xlink:href="#f2_1z" transform="matrix(12,0,0,12,270.1,192.5)" />
<use xlink:href="#f2_21" transform="matrix(12,0,0,12,278.2,192.5)" />
<use xlink:href="#f2_20" transform="matrix(12,0,0,12,286.3,192.5)" />
<use xlink:href="#f2_2j" transform="matrix(12,0,0,12,300.2,192.5)" />
<use xlink:href="#f2_25" transform="matrix(12,0,0,12,313.4,192.5)" />
<use xlink:href="#f2_2g" transform="matrix(12,0,0,12,317.8,192.5)" />
<use xlink:href="#f2_24" transform="matrix(12,0,0,12,323.3,192.5)" />
<use xlink:href="#f2_25" transform="matrix(12,0,0,12,332.4,192.5)" />
<use xlink:href="#f2_2a" transform="matrix(12,0,0,12,337.2,192.5)" />
<use xlink:href="#f2_2g" transform="matrix(12,0,0,12,350.8,192.5)" />
<use xlink:href="#f2_24" transform="matrix(12,0,0,12,356.2,192.5)" />
<use xlink:href="#f2_21" transform="matrix(12,0,0,12,365,192.5)" />
<use xlink:href="#f2_22" transform="matrix(12,0,0,12,378.2,192.5)" />
<use xlink:href="#f2_28" transform="matrix(12,0,0,12,384.1,192.5)" />
<use xlink:href="#f2_2b" transform="matrix(12,0,0,12,388.5,192.5)" />
<use xlink:href="#f2_2j" transform="matrix(12,0,0,12,398,192.5)" />
<use xlink:href="#f2_21" transform="matrix(12,0,0,12,411.2,192.5)" />
<use xlink:href="#f2_2e" transform="matrix(12,0,0,12,419.3,192.5)" />
<use xlink:href="#f2_2f" transform="matrix(12,0,0,12,425.8,192.5)" />
<use xlink:href="#f2_i" transform="matrix(12,0,0,12,432.8,192.5)" />
</g>
<path fill-rule="evenodd" d="M80.3,217.9H857.2V196.6H80.3v21.3Z" class="g0_16" />
<g fill="#1F3331" >
<use xlink:href="#f1_3d" transform="matrix(10.1,0,0,10.1,82.5,213.5)" />
<use xlink:href="#f2_1k" transform="matrix(12,0,0,12,110,213.5)" />
<use xlink:href="#f2_24" transform="matrix(12,0,0,12,121.4,213.5)" />
<use xlink:href="#f2_21" transform="matrix(12,0,0,12,130.2,213.5)" />
<use xlink:href="#f2_2f" transform="matrix(12,0,0,12,143,213.5)" />
<use xlink:href="#f2_2c" transform="matrix(12,0,0,12,150,213.5)" />
<use xlink:href="#f2_2b" transform="matrix(12,0,0,12,159.1,213.5)" />
<use xlink:href="#f2_2e" transform="matrix(12,0,0,12,168.6,213.5)" />
<use xlink:href="#f2_2b" transform="matrix(12,0,0,12,174.5,213.5)" />
<use xlink:href="#f2_2c" transform="matrix(12,0,0,12,184,213.5)" />
<use xlink:href="#f2_24" transform="matrix(12,0,0,12,193.2,213.5)" />
<use xlink:href="#f2_2l" transform="matrix(12,0,0,12,202.4,213.5)" />
<use xlink:href="#f2_28" transform="matrix(12,0,0,12,211.2,213.5)" />
<use xlink:href="#f2_28" transform="matrix(12,0,0,12,216.3,213.5)" />
<use xlink:href="#f2_2f" transform="matrix(12,0,0,12,221.1,213.5)" />
<use xlink:href="#f2_1x" transform="matrix(12,0,0,12,232.8,213.5)" />
<use xlink:href="#f2_2e" transform="matrix(12,0,0,12,240.8,213.5)" />
<use xlink:href="#f2_21" transform="matrix(12,0,0,12,247.1,213.5)" />
<use xlink:href="#f2_2b" transform="matrix(12,0,0,12,259.9,213.5)" />
<use xlink:href="#f2_22" transform="matrix(12,0,0,12,269.4,213.5)" />
<use xlink:href="#f2_2g" transform="matrix(12,0,0,12,279.6,213.5)" />
<use xlink:href="#f2_2j" transform="matrix(12,0,0,12,285.1,213.5)" />
<use xlink:href="#f2_2b" transform="matrix(12,0,0,12,298.4,213.5)" />
<use xlink:href="#f2_2g" transform="matrix(12,0,0,12,311.9,213.5)" />
<use xlink:href="#f2_2l" transform="matrix(12,0,0,12,317.4,213.5)" />
<use xlink:href="#f2_2c" transform="matrix(12,0,0,12,325.8,213.5)" />
<use xlink:href="#f2_21" transform="matrix(12,0,0,12,335,213.5)" />
<use xlink:href="#f2_2f" transform="matrix(12,0,0,12,343.4,213.5)" />
<use xlink:href="#f2_29" transform="matrix(12,0,0,12,355.5,213.5)" />
<use xlink:href="#f2_25" transform="matrix(12,0,0,12,369.4,213.5)" />
<use xlink:href="#f2_1z" transform="matrix(12,0,0,12,374.2,213.5)" />
<use xlink:href="#f2_2e" transform="matrix(12,0,0,12,382.2,213.5)" />
<use xlink:href="#f2_2b" transform="matrix(12,0,0,12,388.4,213.5)" />
<use xlink:href="#f2_2f" transform="matrix(12,0,0,12,398,213.5)" />
<use xlink:href="#f2_2c" transform="matrix(12,0,0,12,404.9,213.5)" />
<use xlink:href="#f2_2b" transform="matrix(12,0,0,12,414.1,213.5)" />
<use xlink:href="#f2_2e" transform="matrix(12,0,0,12,423.6,213.5)" />
<use xlink:href="#f2_2b" transform="matrix(12,0,0,12,429.5,213.5)" />
<use xlink:href="#f2_2c" transform="matrix(12,0,0,12,439,213.5)" />
<use xlink:href="#f2_24" transform="matrix(12,0,0,12,448.2,213.5)" />
<use xlink:href="#f2_2l" transform="matrix(12,0,0,12,457.3,213.5)" />
<use xlink:href="#f2_28" transform="matrix(12,0,0,12,466.1,213.5)" />
<use xlink:href="#f2_28" transform="matrix(12,0,0,12,471.2,213.5)" />
<use xlink:href="#f2_2f" transform="matrix(12,0,0,12,476,213.5)" />
<use xlink:href="#f2_c" transform="matrix(12,0,0,12,488.6,213.5)" />
<use xlink:href="#f2_2f" transform="matrix(12,0,0,12,494.8,213.5)" />
<use xlink:href="#f2_2g" transform="matrix(12,0,0,12,501.4,213.5)" />
<use xlink:href="#f2_1x" transform="matrix(12,0,0,12,506.9,213.5)" />
<use xlink:href="#f2_29" transform="matrix(12,0,0,12,515.3,213.5)" />
<use xlink:href="#f2_21" transform="matrix(12,0,0,12,528.9,213.5)" />
<use xlink:href="#f2_2a" transform="matrix(12,0,0,12,537.3,213.5)" />
<use xlink:href="#f2_d" transform="matrix(12,0,0,12,546.1,213.5)" />
<use xlink:href="#f2_1x" transform="matrix(12,0,0,12,557,213.5)" />
<use xlink:href="#f2_2a" transform="matrix(12,0,0,12,565.1,213.5)" />
<use xlink:href="#f2_20" transform="matrix(12,0,0,12,573.9,213.5)" />
<use xlink:href="#f2_29" transform="matrix(12,0,0,12,588.2,213.5)" />
<use xlink:href="#f2_21" transform="matrix(12,0,0,12,602.1,213.5)" />
<use xlink:href="#f2_23" transform="matrix(12,0,0,12,610.2,213.5)" />
<use xlink:href="#f2_1x" transform="matrix(12,0,0,12,619.4,213.5)" />
<use xlink:href="#f2_2f" transform="matrix(12,0,0,12,627.4,213.5)" />
<use xlink:href="#f2_2c" transform="matrix(12,0,0,12,634.4,213.5)" />
<use xlink:href="#f2_2b" transform="matrix(12,0,0,12,643.6,213.5)" />
<use xlink:href="#f2_2e" transform="matrix(12,0,0,12,653.1,213.5)" />
<use xlink:href="#f2_2b" transform="matrix(12,0,0,12,659.3,213.5)" />
<use xlink:href="#f2_2c" transform="matrix(12,0,0,12,668.8,213.5)" />
<use xlink:href="#f2_24" transform="matrix(12,0,0,12,678,213.5)" />
<use xlink:href="#f2_2l" transform="matrix(12,0,0,12,687.1,213.5)" />
<use xlink:href="#f2_28" transform="matrix(12,0,0,12,695.9,213.5)" />
<use xlink:href="#f2_28" transform="matrix(12,0,0,12,701,213.5)" />
<use xlink:href="#f2_2f" transform="matrix(12,0,0,12,705.8,213.5)" />
<use xlink:href="#f2_c" transform="matrix(12,0,0,12,717.5,213.5)" />
<use xlink:href="#f2_1z" transform="matrix(12,0,0,12,724.1,213.5)" />
<use xlink:href="#f2_1x" transform="matrix(12,0,0,12,732.2,213.5)" />
<use xlink:href="#f2_2e" transform="matrix(12,0,0,12,740.2,213.5)" />
<use xlink:href="#f2_2c" transform="matrix(12,0,0,12,746.4,213.5)" />
<use xlink:href="#f2_21" transform="matrix(12,0,0,12,755.6,213.5)" />
<use xlink:href="#f2_28" transform="matrix(12,0,0,12,764,213.5)" />
<use xlink:href="#f2_d" transform="matrix(12,0,0,12,768.4,213.5)" />
</g>
<path fill-rule="evenodd" d="M80.3,238.8H857.2V217.9H80.3v20.9Z" class="g0_16" />
<g fill="#1F3331" >
<use xlink:href="#f1_3d" transform="matrix(10.1,0,0,10.1,82.5,234.7)" />
<use xlink:href="#f2_13" transform="matrix(12,0,0,12,114.8,234.7)" />
<use xlink:href="#f2_1x" transform="matrix(12,0,0,12,126.9,234.7)" />
<use xlink:href="#f2_2e" transform="matrix(12,0,0,12,135,234.7)" />
<use xlink:href="#f2_2c" transform="matrix(12,0,0,12,141.2,234.7)" />
<use xlink:href="#f2_21" transform="matrix(12,0,0,12,150.4,234.7)" />
<use xlink:href="#f2_28" transform="matrix(12,0,0,12,158.8,234.7)" />
<use xlink:href="#f2_25" transform="matrix(12,0,0,12,168.3,234.7)" />
<use xlink:href="#f2_2f" transform="matrix(12,0,0,12,173,234.7)" />
<use xlink:href="#f2_20" transform="matrix(12,0,0,12,184.8,234.7)" />
<use xlink:href="#f2_25" transform="matrix(12,0,0,12,194.3,234.7)" />
<use xlink:href="#f2_2f" transform="matrix(12,0,0,12,198.7,234.7)" />
<use xlink:href="#f2_2g" transform="matrix(12,0,0,12,205.6,234.7)" />
<use xlink:href="#f2_25" transform="matrix(12,0,0,12,211.5,234.7)" />
<use xlink:href="#f2_2a" transform="matrix(12,0,0,12,216.3,234.7)" />
<use xlink:href="#f2_23" transform="matrix(12,0,0,12,225.1,234.7)" />
<use xlink:href="#f2_2h" transform="matrix(12,0,0,12,234.2,234.7)" />
<use xlink:href="#f2_25" transform="matrix(12,0,0,12,243.7,234.7)" />
<use xlink:href="#f2_2f" transform="matrix(12,0,0,12,248.5,234.7)" />
<use xlink:href="#f2_24" transform="matrix(12,0,0,12,255.8,234.7)" />
<use xlink:href="#f2_21" transform="matrix(12,0,0,12,265,234.7)" />
<use xlink:href="#f2_20" transform="matrix(12,0,0,12,273.1,234.7)" />
<use xlink:href="#f2_1x" transform="matrix(12,0,0,12,287,234.7)" />
<use xlink:href="#f2_2f" transform="matrix(12,0,0,12,295,234.7)" />
<use xlink:href="#f2_2b" transform="matrix(12,0,0,12,306.8,234.7)" />
<use xlink:href="#f2_2i" transform="matrix(12,0,0,12,316.3,234.7)" />
<use xlink:href="#f2_1x" transform="matrix(12,0,0,12,325.1,234.7)" />
<use xlink:href="#f2_2e" transform="matrix(12,0,0,12,333.1,234.7)" />
<use xlink:href="#f2_2l" transform="matrix(12,0,0,12,339.7,234.7)" />
<use xlink:href="#f2_1y" transform="matrix(12,0,0,12,353.3,234.7)" />
<use xlink:href="#f2_21" transform="matrix(12,0,0,12,362.1,234.7)" />
<use xlink:href="#f2_1x" transform="matrix(12,0,0,12,370.1,234.7)" />
<use xlink:href="#f2_2e" transform="matrix(12,0,0,12,378.2,234.7)" />
<use xlink:href="#f2_25" transform="matrix(12,0,0,12,384.8,234.7)" />
<use xlink:href="#f2_2a" transform="matrix(12,0,0,12,389.5,234.7)" />
<use xlink:href="#f2_23" transform="matrix(12,0,0,12,398.7,234.7)" />
<use xlink:href="#f2_2b" transform="matrix(12,0,0,12,412.6,234.7)" />
<use xlink:href="#f2_2i" transform="matrix(12,0,0,12,422.1,234.7)" />
<use xlink:href="#f2_2h" transform="matrix(12,0,0,12,430.9,234.7)" />
<use xlink:href="#f2_28" transform="matrix(12,0,0,12,440.5,234.7)" />
<use xlink:href="#f2_21" transform="matrix(12,0,0,12,444.9,234.7)" />
<use xlink:href="#f2_g" transform="matrix(12,0,0,12,452.9,234.7)" />
<use xlink:href="#f2_2f" transform="matrix(12,0,0,12,462.4,234.7)" />
<use xlink:href="#f2_2g" transform="matrix(12,0,0,12,469.4,234.7)" />
<use xlink:href="#f2_2l" transform="matrix(12,0,0,12,474.9,234.7)" />
<use xlink:href="#f2_28" transform="matrix(12,0,0,12,483.7,234.7)" />
<use xlink:href="#f2_21" transform="matrix(12,0,0,12,488.4,234.7)" />
<use xlink:href="#f2_1x" transform="matrix(12,0,0,12,501.3,234.7)" />
<use xlink:href="#f2_2a" transform="matrix(12,0,0,12,509.7,234.7)" />
<use xlink:href="#f2_20" transform="matrix(12,0,0,12,518.5,234.7)" />
<use xlink:href="#f2_2f" transform="matrix(12,0,0,12,532.4,234.7)" />
<use xlink:href="#f2_2g" transform="matrix(12,0,0,12,539.3,234.7)" />
<use xlink:href="#f2_25" transform="matrix(12,0,0,12,544.8,234.7)" />
<use xlink:href="#f2_23" transform="matrix(12,0,0,12,549.2,234.7)" />
<use xlink:href="#f2_29" transform="matrix(12,0,0,12,558.7,234.7)" />
<use xlink:href="#f2_1x" transform="matrix(12,0,0,12,572.7,234.7)" />
<use xlink:href="#f2_i" transform="matrix(12,0,0,12,581.4,234.7)" />
</g>
<path fill-rule="evenodd" d="M80.3,260H857.2V238.8H80.3V260Z" class="g0_16" />
<g fill="#1F3331" >
<use xlink:href="#f1_3d" transform="matrix(10.1,0,0,10.1,82.5,256)" />
<use xlink:href="#f2_1j" transform="matrix(12,0,0,12,110,256)" />
<use xlink:href="#f2_2g" transform="matrix(12,0,0,12,120.3,256)" />
<use xlink:href="#f2_1x" transform="matrix(12,0,0,12,125.8,256)" />
<use xlink:href="#f2_29" transform="matrix(12,0,0,12,133.8,256)" />
<use xlink:href="#f2_21" transform="matrix(12,0,0,12,147.4,256)" />
<use xlink:href="#f2_2a" transform="matrix(12,0,0,12,155.8,256)" />
<use xlink:href="#f2_25" transform="matrix(12,0,0,12,169.7,256)" />
<use xlink:href="#f2_2f" transform="matrix(12,0,0,12,174.5,256)" />
<use xlink:href="#f2_20" transform="matrix(12,0,0,12,186.2,256)" />
<use xlink:href="#f2_25" transform="matrix(12,0,0,12,195.7,256)" />
<use xlink:href="#f2_2f" transform="matrix(12,0,0,12,200.5,256)" />
<use xlink:href="#f2_2g" transform="matrix(12,0,0,12,207.5,256)" />
<use xlink:href="#f2_25" transform="matrix(12,0,0,12,212.9,256)" />
<use xlink:href="#f2_2a" transform="matrix(12,0,0,12,217.7,256)" />
<use xlink:href="#f2_23" transform="matrix(12,0,0,12,226.5,256)" />
<use xlink:href="#f2_2h" transform="matrix(12,0,0,12,235.7,256)" />
<use xlink:href="#f2_25" transform="matrix(12,0,0,12,245.2,256)" />
<use xlink:href="#f2_2f" transform="matrix(12,0,0,12,250,256)" />
<use xlink:href="#f2_24" transform="matrix(12,0,0,12,257.3,256)" />
<use xlink:href="#f2_21" transform="matrix(12,0,0,12,266.4,256)" />
<use xlink:href="#f2_20" transform="matrix(12,0,0,12,274.5,256)" />
<use xlink:href="#f2_1x" transform="matrix(12,0,0,12,288.7,256)" />
<use xlink:href="#f2_2f" transform="matrix(12,0,0,12,296.7,256)" />
<use xlink:href="#f2_22" transform="matrix(12,0,0,12,308.8,256)" />
<use xlink:href="#f2_25" transform="matrix(12,0,0,12,314.7,256)" />
<use xlink:href="#f2_28" transform="matrix(12,0,0,12,319.8,256)" />
<use xlink:href="#f2_1x" transform="matrix(12,0,0,12,324.6,256)" />
<use xlink:href="#f2_29" transform="matrix(12,0,0,12,333,256)" />
<use xlink:href="#f2_21" transform="matrix(12,0,0,12,346.9,256)" />
<use xlink:href="#f2_2a" transform="matrix(12,0,0,12,355.4,256)" />
<use xlink:href="#f2_2g" transform="matrix(12,0,0,12,364.2,256)" />
<use xlink:href="#f2_g" transform="matrix(12,0,0,12,369.6,256)" />
<use xlink:href="#f2_1x" transform="matrix(12,0,0,12,379.1,256)" />
<use xlink:href="#f2_2a" transform="matrix(12,0,0,12,387.2,256)" />
<use xlink:href="#f2_2g" transform="matrix(12,0,0,12,396,256)" />
<use xlink:href="#f2_24" transform="matrix(12,0,0,12,401.5,256)" />
<use xlink:href="#f2_21" transform="matrix(12,0,0,12,410.3,256)" />
<use xlink:href="#f2_2e" transform="matrix(12,0,0,12,418.3,256)" />
<use xlink:href="#f2_1x" transform="matrix(12,0,0,12,429.3,256)" />
<use xlink:href="#f2_2a" transform="matrix(12,0,0,12,437.4,256)" />
<use xlink:href="#f2_20" transform="matrix(12,0,0,12,446.2,256)" />
<use xlink:href="#f2_1z" transform="matrix(12,0,0,12,460.1,256)" />
<use xlink:href="#f2_2b" transform="matrix(12,0,0,12,468.2,256)" />
<use xlink:href="#f2_2a" transform="matrix(12,0,0,12,477.3,256)" />
<use xlink:href="#f2_2a" transform="matrix(12,0,0,12,486.5,256)" />
<use xlink:href="#f2_21" transform="matrix(12,0,0,12,495.3,256)" />
<use xlink:href="#f2_1z" transform="matrix(12,0,0,12,503.4,256)" />
<use xlink:href="#f2_2g" transform="matrix(12,0,0,12,511.4,256)" />
<use xlink:href="#f2_25" transform="matrix(12,0,0,12,517.3,256)" />
<use xlink:href="#f2_2i" transform="matrix(12,0,0,12,522,256)" />
<use xlink:href="#f2_21" transform="matrix(12,0,0,12,530.8,256)" />
<use xlink:href="#f2_i" transform="matrix(12,0,0,12,538.9,256)" />
</g>
<path fill-rule="evenodd" d="M107.8,707.1H857.2V281.3H107.8V707.1Z" class="g0_16" />
<path fill-rule="evenodd" d="M107.8,728H857.2V707.1H107.8V728Z" class="g0_16" />
<path fill-rule="evenodd" d="M80.3,770.6H857.2V749.3H80.3v21.3Z" class="g0_16" />
<g fill="#1F3331" >
<use xlink:href="#f1_3d" transform="matrix(10.1,0,0,10.1,82.5,766.5)" />
<use xlink:href="#f2_1k" transform="matrix(12,0,0,12,110,766.5)" />
<use xlink:href="#f2_24" transform="matrix(12,0,0,12,121.4,766.5)" />
<use xlink:href="#f2_21" transform="matrix(12,0,0,12,130.2,766.5)" />
<use xlink:href="#f2_2j" transform="matrix(12,0,0,12,143,766.5)" />
<use xlink:href="#f2_24" transform="matrix(12,0,0,12,156.2,766.5)" />
<use xlink:href="#f2_2b" transform="matrix(12,0,0,12,165,766.5)" />
<use xlink:href="#f2_28" transform="matrix(12,0,0,12,174.9,766.5)" />
<use xlink:href="#f2_21" transform="matrix(12,0,0,12,179.3,766.5)" />
<use xlink:href="#f2_2c" transform="matrix(12,0,0,12,192.1,766.5)" />
<use xlink:href="#f2_2e" transform="matrix(12,0,0,12,201.3,766.5)" />
<use xlink:href="#f2_2b" transform="matrix(12,0,0,12,207.5,766.5)" />
<use xlink:href="#f2_1z" transform="matrix(12,0,0,12,217,766.5)" />
<use xlink:href="#f2_21" transform="matrix(12,0,0,12,225.1,766.5)" />
<use xlink:href="#f2_2f" transform="matrix(12,0,0,12,233.1,766.5)" />
<use xlink:href="#f2_2f" transform="matrix(12,0,0,12,240.1,766.5)" />
<use xlink:href="#f2_2b" transform="matrix(12,0,0,12,251.8,766.5)" />
<use xlink:href="#f2_22" transform="matrix(12,0,0,12,261.3,766.5)" />
<use xlink:href="#f2_2f" transform="matrix(12,0,0,12,271.6,766.5)" />
<use xlink:href="#f2_21" transform="matrix(12,0,0,12,278.5,766.5)" />
<use xlink:href="#f2_2k" transform="matrix(12,0,0,12,287,766.5)" />
<use xlink:href="#f2_2h" transform="matrix(12,0,0,12,295.8,766.5)" />
<use xlink:href="#f2_1x" transform="matrix(12,0,0,12,304.9,766.5)" />
<use xlink:href="#f2_28" transform="matrix(12,0,0,12,313.3,766.5)" />
<use xlink:href="#f2_2e" transform="matrix(12,0,0,12,322.8,766.5)" />
<use xlink:href="#f2_21" transform="matrix(12,0,0,12,329.1,766.5)" />
<use xlink:href="#f2_2c" transform="matrix(12,0,0,12,337.1,766.5)" />
<use xlink:href="#f2_2e" transform="matrix(12,0,0,12,346.3,766.5)" />
<use xlink:href="#f2_2b" transform="matrix(12,0,0,12,352.5,766.5)" />
<use xlink:href="#f2_20" transform="matrix(12,0,0,12,362,766.5)" />
<use xlink:href="#f2_2h" transform="matrix(12,0,0,12,371.2,766.5)" />
<use xlink:href="#f2_1z" transform="matrix(12,0,0,12,380.4,766.5)" />
<use xlink:href="#f2_2g" transform="matrix(12,0,0,12,388.1,766.5)" />
<use xlink:href="#f2_25" transform="matrix(12,0,0,12,393.5,766.5)" />
<use xlink:href="#f2_2b" transform="matrix(12,0,0,12,397.9,766.5)" />
<use xlink:href="#f2_2a" transform="matrix(12,0,0,12,407.5,766.5)" />
<use xlink:href="#f2_25" transform="matrix(12,0,0,12,421.4,766.5)" />
<use xlink:href="#f2_2a" transform="matrix(12,0,0,12,426.1,766.5)" />
<use xlink:href="#f2_22" transform="matrix(12,0,0,12,440.1,766.5)" />
<use xlink:href="#f2_28" transform="matrix(12,0,0,12,446.3,766.5)" />
<use xlink:href="#f2_2b" transform="matrix(12,0,0,12,450.7,766.5)" />
<use xlink:href="#f2_2j" transform="matrix(12,0,0,12,460.2,766.5)" />
<use xlink:href="#f2_21" transform="matrix(12,0,0,12,473.4,766.5)" />
<use xlink:href="#f2_2e" transform="matrix(12,0,0,12,481.8,766.5)" />
<use xlink:href="#f2_25" transform="matrix(12,0,0,12,488.4,766.5)" />
<use xlink:href="#f2_2a" transform="matrix(12,0,0,12,493.1,766.5)" />
<use xlink:href="#f2_23" transform="matrix(12,0,0,12,501.9,766.5)" />
<use xlink:href="#f2_2c" transform="matrix(12,0,0,12,515.9,766.5)" />
<use xlink:href="#f2_28" transform="matrix(12,0,0,12,525.4,766.5)" />
<use xlink:href="#f2_1x" transform="matrix(12,0,0,12,529.8,766.5)" />
<use xlink:href="#f2_2a" transform="matrix(12,0,0,12,538.2,766.5)" />
<use xlink:href="#f2_2g" transform="matrix(12,0,0,12,547,766.5)" />
<use xlink:href="#f2_2f" transform="matrix(12,0,0,12,552.5,766.5)" />
<use xlink:href="#f2_1z" transform="matrix(12,0,0,12,564.2,766.5)" />
<use xlink:href="#f2_1x" transform="matrix(12,0,0,12,572.3,766.5)" />
<use xlink:href="#f2_2a" transform="matrix(12,0,0,12,580.3,766.5)" />
<use xlink:href="#f2_1y" transform="matrix(12,0,0,12,594.2,766.5)" />
<use xlink:href="#f2_21" transform="matrix(12,0,0,12,603,766.5)" />
<use xlink:href="#f2_20" transform="matrix(12,0,0,12,615.9,766.5)" />
<use xlink:href="#f2_25" transform="matrix(12,0,0,12,625.4,766.5)" />
<use xlink:href="#f2_2i" transform="matrix(12,0,0,12,630.1,766.5)" />
<use xlink:href="#f2_25" transform="matrix(12,0,0,12,639.3,766.5)" />
<use xlink:href="#f2_20" transform="matrix(12,0,0,12,644.1,766.5)" />
<use xlink:href="#f2_21" transform="matrix(12,0,0,12,653.2,766.5)" />
<use xlink:href="#f2_20" transform="matrix(12,0,0,12,661.3,766.5)" />
<use xlink:href="#f2_25" transform="matrix(12,0,0,12,675.6,766.5)" />
<use xlink:href="#f2_2a" transform="matrix(12,0,0,12,680.4,766.5)" />
<use xlink:href="#f2_2g" transform="matrix(12,0,0,12,689.1,766.5)" />
<use xlink:href="#f2_2b" transform="matrix(12,0,0,12,694.6,766.5)" />
<use xlink:href="#f2_2g" transform="matrix(12,0,0,12,708.5,766.5)" />
<use xlink:href="#f2_24" transform="matrix(12,0,0,12,714,766.5)" />
<use xlink:href="#f2_2e" transform="matrix(12,0,0,12,722.8,766.5)" />
<use xlink:href="#f2_21" transform="matrix(12,0,0,12,729,766.5)" />
<use xlink:href="#f2_21" transform="matrix(12,0,0,12,737.1,766.5)" />
<use xlink:href="#f2_2f" transform="matrix(12,0,0,12,749.9,766.5)" />
<use xlink:href="#f2_2g" transform="matrix(12,0,0,12,756.9,766.5)" />
<use xlink:href="#f2_21" transform="matrix(12,0,0,12,762.4,766.5)" />
<use xlink:href="#f2_2c" transform="matrix(12,0,0,12,770.4,766.5)" />
<use xlink:href="#f2_2f" transform="matrix(12,0,0,12,779.6,766.5)" />
<use xlink:href="#f2_u" transform="matrix(12,0,0,12,786.6,766.5)" />
<use xlink:href="#f2_h" transform="matrix(12,0,0,12,792.7,766.5)" />
</g>
<path fill-rule="evenodd" d="M107.8,813.1H857.2V791.8H107.8v21.3Z" class="g0_16" />
<g fill="#1F3331" >
<use xlink:href="#f0_25" transform="matrix(12,0,0,12,110,809.1)" />
<use xlink:href="#f0_d" transform="matrix(12,0,0,12,115.1,809.1)" />
<use xlink:href="#f0_1g" transform="matrix(12,0,0,12,126.1,809.1)" />
<use xlink:href="#f0_2e" transform="matrix(12,0,0,12,137.1,809.1)" />
<use xlink:href="#f0_21" transform="matrix(12,0,0,12,144.8,809.1)" />
<use xlink:href="#f0_h" transform="matrix(12,0,0,12,153,809.1)" />
<use xlink:href="#f0_22" transform="matrix(12,0,0,12,159.2,809.1)" />
<use xlink:href="#f0_21" transform="matrix(12,0,0,12,165.1,809.1)" />
<use xlink:href="#f0_2e" transform="matrix(12,0,0,12,173.5,809.1)" />
<use xlink:href="#f0_2g" transform="matrix(12,0,0,12,181.2,809.1)" />
<use xlink:href="#f0_25" transform="matrix(12,0,0,12,187.4,809.1)" />
<use xlink:href="#f0_28" transform="matrix(12,0,0,12,192.9,809.1)" />
<use xlink:href="#f0_25" transform="matrix(12,0,0,12,197.7,809.1)" />
<use xlink:href="#f0_2m" transform="matrix(12,0,0,12,203.1,809.1)" />
<use xlink:href="#f0_1x" transform="matrix(12,0,0,12,210.8,809.1)" />
<use xlink:href="#f0_2g" transform="matrix(12,0,0,12,220,809.1)" />
<use xlink:href="#f0_25" transform="matrix(12,0,0,12,226.2,809.1)" />
<use xlink:href="#f0_2b" transform="matrix(12,0,0,12,231.3,809.1)" />
<use xlink:href="#f0_2a" transform="matrix(12,0,0,12,240.5,809.1)" />
<use xlink:href="#f0_25" transform="matrix(12,0,0,12,255.5,809.1)" />
<use xlink:href="#f0_25" transform="matrix(12,0,0,12,260.6,809.1)" />
<use xlink:href="#f0_d" transform="matrix(12,0,0,12,265.8,809.1)" />
<use xlink:href="#f0_14" transform="matrix(12,0,0,12,276.7,809.1)" />
<use xlink:href="#f0_2b" transform="matrix(12,0,0,12,290,809.1)" />
<use xlink:href="#f0_2h" transform="matrix(12,0,0,12,299.1,809.1)" />
<use xlink:href="#f0_1y" transform="matrix(12,0,0,12,309.3,809.1)" />
<use xlink:href="#f0_28" transform="matrix(12,0,0,12,319.6,809.1)" />
<use xlink:href="#f0_21" transform="matrix(12,0,0,12,324.4,809.1)" />
<use xlink:href="#f0_22" transform="matrix(12,0,0,12,337.2,809.1)" />
<use xlink:href="#f0_21" transform="matrix(12,0,0,12,343.1,809.1)" />
<use xlink:href="#f0_2e" transform="matrix(12,0,0,12,351.1,809.1)" />
<use xlink:href="#f0_2g" transform="matrix(12,0,0,12,358.8,809.1)" />
<use xlink:href="#f0_25" transform="matrix(12,0,0,12,365,809.1)" />
<use xlink:href="#f0_28" transform="matrix(12,0,0,12,370.5,809.1)" />
<use xlink:href="#f0_25" transform="matrix(12,0,0,12,375.3,809.1)" />
<use xlink:href="#f0_2m" transform="matrix(12,0,0,12,380.8,809.1)" />
<use xlink:href="#f0_1x" transform="matrix(12,0,0,12,388.5,809.1)" />
<use xlink:href="#f0_2g" transform="matrix(12,0,0,12,397.6,809.1)" />
<use xlink:href="#f0_25" transform="matrix(12,0,0,12,403.8,809.1)" />
<use xlink:href="#f0_2b" transform="matrix(12,0,0,12,408.9,809.1)" />
<use xlink:href="#f0_2a" transform="matrix(12,0,0,12,418.1,809.1)" />
<use xlink:href="#f0_25" transform="matrix(12,0,0,12,433.1,809.1)" />
<use xlink:href="#f0_25" transform="matrix(12,0,0,12,438.2,809.1)" />
<use xlink:href="#f0_25" transform="matrix(12,0,0,12,443.4,809.1)" />
<use xlink:href="#f0_d" transform="matrix(12,0,0,12,448.5,809.1)" />
<use xlink:href="#f0_1g" transform="matrix(12,0,0,12,459.1,809.1)" />
<use xlink:href="#f0_2b" transform="matrix(12,0,0,12,470.1,809.1)" />
<use xlink:href="#f0_2f" transform="matrix(12,0,0,12,479.3,809.1)" />
<use xlink:href="#f0_2g" transform="matrix(12,0,0,12,486.3,809.1)" />
<use xlink:href="#f0_h" transform="matrix(12,0,0,12,493,809.1)" />
<use xlink:href="#f0_22" transform="matrix(12,0,0,12,499.2,809.1)" />
<use xlink:href="#f0_21" transform="matrix(12,0,0,12,505.1,809.1)" />
<use xlink:href="#f0_2e" transform="matrix(12,0,0,12,513.5,809.1)" />
<use xlink:href="#f0_2g" transform="matrix(12,0,0,12,521.2,809.1)" />
<use xlink:href="#f0_25" transform="matrix(12,0,0,12,527.4,809.1)" />
<use xlink:href="#f0_28" transform="matrix(12,0,0,12,532.5,809.1)" />
<use xlink:href="#f0_25" transform="matrix(12,0,0,12,537.3,809.1)" />
<use xlink:href="#f0_2m" transform="matrix(12,0,0,12,542.8,809.1)" />
<use xlink:href="#f0_1x" transform="matrix(12,0,0,12,550.5,809.1)" />
<use xlink:href="#f0_2g" transform="matrix(12,0,0,12,559.7,809.1)" />
<use xlink:href="#f0_25" transform="matrix(12,0,0,12,565.9,809.1)" />
<use xlink:href="#f0_2b" transform="matrix(12,0,0,12,571,809.1)" />
<use xlink:href="#f0_2a" transform="matrix(12,0,0,12,580.1,809.1)" />
</g>
<path fill-rule="evenodd" d="M52.8,870.3H857.2V834.4H52.8v35.9Z" class="g0_16" />
<g fill="#1F3331" >
<use xlink:href="#f0_1g" transform="matrix(12,0,0,12,55,851.6)" />
<use xlink:href="#f0_1i" transform="matrix(12,0,0,12,66,851.6)" />
<use xlink:href="#f0_15" transform="matrix(12,0,0,12,79.3,851.6)" />
<use xlink:href="#f0_h" transform="matrix(12,0,0,12,91.3,851.6)" />
<use xlink:href="#f0_16" transform="matrix(12,0,0,12,97.6,851.6)" />
<use xlink:href="#f0_15" transform="matrix(12,0,0,12,108.9,851.6)" />
<use xlink:href="#f0_1i" transform="matrix(12,0,0,12,121,851.6)" />
<use xlink:href="#f0_1k" transform="matrix(12,0,0,12,134.3,851.6)" />
<use xlink:href="#f0_19" transform="matrix(12,0,0,12,146.3,851.6)" />
<use xlink:href="#f0_1c" transform="matrix(12,0,0,12,153.7,851.6)" />
<use xlink:href="#f0_19" transform="matrix(12,0,0,12,165.8,851.6)" />
<use xlink:href="#f0_1j" transform="matrix(12,0,0,12,172.7,851.6)" />
<use xlink:href="#f0_11" transform="matrix(12,0,0,12,183,851.6)" />
<use xlink:href="#f0_1k" transform="matrix(12,0,0,12,196.2,851.6)" />
<use xlink:href="#f0_19" transform="matrix(12,0,0,12,208.6,851.6)" />
<use xlink:href="#f0_1f" transform="matrix(12,0,0,12,215.6,851.6)" />
<use xlink:href="#f0_1e" transform="matrix(12,0,0,12,229.8,851.6)" />
<use xlink:href="#f0_u" transform="matrix(12,0,0,12,243.1,851.6)" />
<use xlink:href="#f0_1j" transform="matrix(12,0,0,12,254.2,851.6)" />
<use xlink:href="#f0_1k" transform="matrix(12,0,0,12,264.5,851.6)" />
<use xlink:href="#f0_1i" transform="matrix(12,0,0,12,276.6,851.6)" />
<use xlink:href="#f0_1l" transform="matrix(12,0,0,12,289.8,851.6)" />
<use xlink:href="#f0_13" transform="matrix(12,0,0,12,303,851.6)" />
<use xlink:href="#f0_1k" transform="matrix(12,0,0,12,316.2,851.6)" />
<use xlink:href="#f0_1l" transform="matrix(12,0,0,12,328.3,851.6)" />
<use xlink:href="#f0_1i" transform="matrix(12,0,0,12,341.5,851.6)" />
<use xlink:href="#f0_15" transform="matrix(12,0,0,12,354.7,851.6)" />
<use xlink:href="#f0_11" transform="matrix(12,0,0,12,371.5,851.6)" />
<use xlink:href="#f0_1e" transform="matrix(12,0,0,12,384.7,851.6)" />
<use xlink:href="#f0_14" transform="matrix(12,0,0,12,397.9,851.6)" />
<use xlink:href="#f0_15" transform="matrix(12,0,0,12,415.9,851.6)" />
<use xlink:href="#f0_1m" transform="matrix(12,0,0,12,428.3,851.6)" />
<use xlink:href="#f0_15" transform="matrix(12,0,0,12,441.5,851.6)" />
<use xlink:href="#f0_1e" transform="matrix(12,0,0,12,453.6,851.6)" />
<use xlink:href="#f0_1k" transform="matrix(12,0,0,12,466.8,851.6)" />
<use xlink:href="#f0_1j" transform="matrix(12,0,0,12,478.9,851.6)" />
</g>
<path fill-rule="evenodd" d="M55,855.3H489.3v-1.9H55v1.9Z" class="g1_16" />
<path fill-rule="evenodd" d="M52.8,1071.3H857.2v-201H52.8v201Z" class="g0_16" />
<path fill-rule="evenodd" d="M52.8,1092.2H857.2v-20.9H52.8v20.9Z" class="g0_16" />
<path fill-rule="evenodd" d="M52.8,1113.5H857.2v-21.3H52.8v21.3Z" class="g0_16" />
<g fill="#1F3331" >
<use xlink:href="#f2_1k" transform="matrix(12,0,0,12,55,1109.1)" />
<use xlink:href="#f2_24" transform="matrix(12,0,0,12,66.4,1109.1)" />
<use xlink:href="#f2_21" transform="matrix(12,0,0,12,75.2,1109.1)" />
<use xlink:href="#f2_2c" transform="matrix(12,0,0,12,88,1109.1)" />
<use xlink:href="#f2_2e" transform="matrix(12,0,0,12,97.2,1109.1)" />
<use xlink:href="#f2_21" transform="matrix(12,0,0,12,103.4,1109.1)" />
<use xlink:href="#f2_h" transform="matrix(12,0,0,12,111.5,1109.1)" />
<use xlink:href="#f2_22" transform="matrix(12,0,0,12,117.7,1109.1)" />
<use xlink:href="#f2_21" transform="matrix(12,0,0,12,123.6,1109.1)" />
<use xlink:href="#f2_2e" transform="matrix(12,0,0,12,131.7,1109.1)" />
<use xlink:href="#f2_2g" transform="matrix(12,0,0,12,137.9,1109.1)" />
<use xlink:href="#f2_25" transform="matrix(12,0,0,12,143.4,1109.1)" />
<use xlink:href="#f2_28" transform="matrix(12,0,0,12,148.1,1109.1)" />
<use xlink:href="#f2_25" transform="matrix(12,0,0,12,153.2,1109.1)" />
<use xlink:href="#f2_2m" transform="matrix(12,0,0,12,158,1109.1)" />
<use xlink:href="#f2_1x" transform="matrix(12,0,0,12,166.1,1109.1)" />
<use xlink:href="#f2_2g" transform="matrix(12,0,0,12,174.2,1109.1)" />
<use xlink:href="#f2_25" transform="matrix(12,0,0,12,180,1109.1)" />
<use xlink:href="#f2_2b" transform="matrix(12,0,0,12,184.4,1109.1)" />
<use xlink:href="#f2_2a" transform="matrix(12,0,0,12,193.9,1109.1)" />
<use xlink:href="#f2_21" transform="matrix(12,0,0,12,207.6,1109.1)" />
<use xlink:href="#f2_2i" transform="matrix(12,0,0,12,216,1109.1)" />
<use xlink:href="#f2_21" transform="matrix(12,0,0,12,224.8,1109.1)" />
<use xlink:href="#f2_2a" transform="matrix(12,0,0,12,233.2,1109.1)" />
<use xlink:href="#f2_2g" transform="matrix(12,0,0,12,242,1109.1)" />
<use xlink:href="#f2_2f" transform="matrix(12,0,0,12,247.5,1109.1)" />
<use xlink:href="#f2_1z" transform="matrix(12,0,0,12,259.2,1109.1)" />
<use xlink:href="#f2_1x" transform="matrix(12,0,0,12,267.3,1109.1)" />
<use xlink:href="#f2_2a" transform="matrix(12,0,0,12,275.4,1109.1)" />
<use xlink:href="#f2_1y" transform="matrix(12,0,0,12,288.9,1109.1)" />
<use xlink:href="#f2_21" transform="matrix(12,0,0,12,298.1,1109.1)" />
<use xlink:href="#f2_2f" transform="matrix(12,0,0,12,310.9,1109.1)" />
<use xlink:href="#f2_2g" transform="matrix(12,0,0,12,317.9,1109.1)" />
<use xlink:href="#f2_2h" transform="matrix(12,0,0,12,323.3,1109.1)" />
<use xlink:href="#f2_20" transform="matrix(12,0,0,12,332.5,1109.1)" />
<use xlink:href="#f2_25" transform="matrix(12,0,0,12,341.7,1109.1)" />
<use xlink:href="#f2_21" transform="matrix(12,0,0,12,346.4,1109.1)" />
<use xlink:href="#f2_20" transform="matrix(12,0,0,12,354.5,1109.1)" />
<use xlink:href="#f2_2h" transform="matrix(12,0,0,12,368.4,1109.1)" />
<use xlink:href="#f2_2a" transform="matrix(12,0,0,12,377.6,1109.1)" />
<use xlink:href="#f2_20" transform="matrix(12,0,0,12,386.4,1109.1)" />
<use xlink:href="#f2_21" transform="matrix(12,0,0,12,395.6,1109.1)" />
<use xlink:href="#f2_2e" transform="matrix(12,0,0,12,403.6,1109.1)" />
<use xlink:href="#f2_22" transform="matrix(12,0,0,12,415,1109.1)" />
<use xlink:href="#f2_2b" transform="matrix(12,0,0,12,420.5,1109.1)" />
<use xlink:href="#f2_28" transform="matrix(12,0,0,12,430,1109.1)" />
<use xlink:href="#f2_28" transform="matrix(12,0,0,12,435.1,1109.1)" />
<use xlink:href="#f2_2b" transform="matrix(12,0,0,12,439.5,1109.1)" />
<use xlink:href="#f2_2j" transform="matrix(12,0,0,12,449,1109.1)" />
<use xlink:href="#f2_25" transform="matrix(12,0,0,12,462.6,1109.1)" />
<use xlink:href="#f2_2a" transform="matrix(12,0,0,12,467.3,1109.1)" />
<use xlink:href="#f2_23" transform="matrix(12,0,0,12,476.5,1109.1)" />
<use xlink:href="#f2_2c" transform="matrix(12,0,0,12,490.4,1109.1)" />
<use xlink:href="#f2_2b" transform="matrix(12,0,0,12,499.6,1109.1)" />
<use xlink:href="#f2_25" transform="matrix(12,0,0,12,509.1,1109.1)" />
<use xlink:href="#f2_2a" transform="matrix(12,0,0,12,513.9,1109.1)" />
<use xlink:href="#f2_2g" transform="matrix(12,0,0,12,522.7,1109.1)" />
<use xlink:href="#f2_2f" transform="matrix(12,0,0,12,528.1,1109.1)" />
<use xlink:href="#f2_u" transform="matrix(12,0,0,12,535.1,1109.1)" />
<use xlink:href="#f2_h" transform="matrix(12,0,0,12,540.7,1109.1)" />
</g>
<path fill-rule="evenodd" d="M52.8,1149.4H857.2v-35.9H52.8v35.9Z" class="g0_16" />
<g fill="#1F3331" >
<use xlink:href="#f2_25" transform="matrix(12,0,0,12,55,1130.7)" />
<use xlink:href="#f2_d" transform="matrix(12,0,0,12,59.8,1130.7)" />
<use xlink:href="#f2_1g" transform="matrix(12,0,0,12,70.8,1130.7)" />
<use xlink:href="#f2_2b" transform="matrix(12,0,0,12,81,1130.7)" />
<use xlink:href="#f2_28" transform="matrix(12,0,0,12,90.5,1130.7)" />
<use xlink:href="#f2_28" transform="matrix(12,0,0,12,95.3,1130.7)" />
<use xlink:href="#f2_21" transform="matrix(12,0,0,12,100.1,1130.7)" />
<use xlink:href="#f2_2a" transform="matrix(12,0,0,12,108.5,1130.7)" />
<use xlink:href="#f2_23" transform="matrix(12,0,0,12,122,1130.7)" />
<use xlink:href="#f2_2e" transform="matrix(12,0,0,12,131.2,1130.7)" />
<use xlink:href="#f2_1x" transform="matrix(12,0,0,12,137.4,1130.7)" />
<use xlink:href="#f2_25" transform="matrix(12,0,0,12,145.8,1130.7)" />
<use xlink:href="#f2_2a" transform="matrix(12,0,0,12,150.6,1130.7)" />
<use xlink:href="#f2_22" transform="matrix(12,0,0,12,164.5,1130.7)" />
<use xlink:href="#f2_2b" transform="matrix(12,0,0,12,170,1130.7)" />
<use xlink:href="#f2_2e" transform="matrix(12,0,0,12,179.5,1130.7)" />
<use xlink:href="#f2_29" transform="matrix(12,0,0,12,186.1,1130.7)" />
<use xlink:href="#f2_1x" transform="matrix(12,0,0,12,199.7,1130.7)" />
<use xlink:href="#f2_2g" transform="matrix(12,0,0,12,207.7,1130.7)" />
<use xlink:href="#f2_25" transform="matrix(12,0,0,12,213.6,1130.7)" />
<use xlink:href="#f2_2b" transform="matrix(12,0,0,12,218,1130.7)" />
<use xlink:href="#f2_2a" transform="matrix(12,0,0,12,227.5,1130.7)" />
</g>
<path fill-rule="evenodd" d="M52.8,1185.4H857.2v-36H52.8v36Z" class="g0_16" />
<g fill="#1F3331" >
<use xlink:href="#f2_25" transform="matrix(12,0,0,12,59.8,1166.7)" />
<use xlink:href="#f2_25" transform="matrix(12,0,0,12,64.6,1166.7)" />
<use xlink:href="#f2_d" transform="matrix(12,0,0,12,69.3,1166.7)" />
<use xlink:href="#f2_15" transform="matrix(12,0,0,12,80.3,1166.7)" />
<use xlink:href="#f2_29" transform="matrix(12,0,0,12,92,1166.7)" />
<use xlink:href="#f2_1y" transform="matrix(12,0,0,12,105.9,1166.7)" />
<use xlink:href="#f2_2e" transform="matrix(12,0,0,12,114.7,1166.7)" />
<use xlink:href="#f2_2l" transform="matrix(12,0,0,12,121.3,1166.7)" />
<use xlink:href="#f2_2b" transform="matrix(12,0,0,12,129.8,1166.7)" />
<use xlink:href="#f2_2f" transform="matrix(12,0,0,12,144,1166.7)" />
<use xlink:href="#f2_1x" transform="matrix(12,0,0,12,151,1166.7)" />
<use xlink:href="#f2_1z" transform="matrix(12,0,0,12,159.1,1166.7)" />
<use xlink:href="#f2_22" transform="matrix(12,0,0,12,172.2,1166.7)" />
<use xlink:href="#f2_2b" transform="matrix(12,0,0,12,177.7,1166.7)" />
<use xlink:href="#f2_2e" transform="matrix(12,0,0,12,187.3,1166.7)" />
<use xlink:href="#f2_29" transform="matrix(12,0,0,12,193.5,1166.7)" />
<use xlink:href="#f2_1x" transform="matrix(12,0,0,12,207.4,1166.7)" />
<use xlink:href="#f2_2g" transform="matrix(12,0,0,12,215.5,1166.7)" />
<use xlink:href="#f2_25" transform="matrix(12,0,0,12,221,1166.7)" />
<use xlink:href="#f2_2b" transform="matrix(12,0,0,12,225.4,1166.7)" />
<use xlink:href="#f2_2a" transform="matrix(12,0,0,12,234.9,1166.7)" />
</g>
<path fill-rule="evenodd" d="M52.8,1221.3H857.2v-35.9H52.8v35.9Z" class="g0_16" />
<g fill="#1F3331" >
<use xlink:href="#f2_25" transform="matrix(12,0,0,12,59.8,1202.6)" />
<use xlink:href="#f2_25" transform="matrix(12,0,0,12,64.6,1202.6)" />
<use xlink:href="#f2_25" transform="matrix(12,0,0,12,69.7,1202.6)" />
<use xlink:href="#f2_d" transform="matrix(12,0,0,12,74.5,1202.6)" />
<use xlink:href="#f2_1g" transform="matrix(12,0,0,12,85.4,1202.6)" />
<use xlink:href="#f2_2b" transform="matrix(12,0,0,12,95.7,1202.6)" />
<use xlink:href="#f2_28" transform="matrix(12,0,0,12,105.2,1202.6)" />
<use xlink:href="#f2_28" transform="matrix(12,0,0,12,110,1202.6)" />
<use xlink:href="#f2_25" transform="matrix(12,0,0,12,115.1,1202.6)" />
<use xlink:href="#f2_2a" transform="matrix(12,0,0,12,119.9,1202.6)" />
<use xlink:href="#f2_1x" transform="matrix(12,0,0,12,129,1202.6)" />
<use xlink:href="#f2_2g" transform="matrix(12,0,0,12,137.1,1202.6)" />
<use xlink:href="#f2_25" transform="matrix(12,0,0,12,142.9,1202.6)" />
<use xlink:href="#f2_2b" transform="matrix(12,0,0,12,147.3,1202.6)" />
<use xlink:href="#f2_2a" transform="matrix(12,0,0,12,156.9,1202.6)" />
</g>
<image preserveAspectRatio="none" x="112" y="281" width="588" height="404" xlink:href="img/1.png" />
<image preserveAspectRatio="none" x="57" y="870" width="371" height="186" xlink:href="img/2.png" />
<g fill="#000000" >
<use xlink:href="#f3_l" transform="matrix(8,0,0,8,792.9,1264.1)" />
</g>
<defs>
<path d="M410,-14c0,0,-86,0,-175,14C235,0,145,14,81,38V307h66L181,146c0,0,31,-37,94,-62c0,0,64,-24,132,-24c0,0,214,0,214,177c0,0,0,55,-41,93c0,0,-41,38,-128,68c0,0,-128,42,-185,68c0,0,-56,27,-95,63c0,0,-38,36,-62,87c0,0,-23,51,-23,125c0,0,0,132,90,201c0,0,90,69,263,69c0,0,125,0,278,-32V741H651L618,878c0,0,-76,56,-178,56c0,0,-92,0,-141,-34c0,0,-49,-34,-49,-104c0,0,0,-50,41,-86c0,0,41,-35,128,-63c0,0,171,-56,235,-97c0,0,64,-41,97,-103c0,0,34,-61,34,-143c0,0,0,-318,-375,-318Z" 
id="f0_1j"
transform="scale(0.001,-0.001)" />

<path d="M26,0V54L154,74V926L26,945v55H878V746H810L786,908c0,0,-83,10,-241,10H389V551H651l23,111h67V355H674L651,468H389V82H578c0,0,193,0,252,12l43,185h68L927,0Z" 
id="f0_15"
transform="scale(0.001,-0.001)" />

<path d="M598,0V54L725,74L509,408L246,74L370,54V0H28V54L139,74L460,483L174,926L61,945v55H548V945L421,926L596,656L809,926L685,945v55h342V945L917,926L645,581L972,74L1085,54V0Z" 
id="f0_1o"
transform="scale(0.001,-0.001)" />

<path d="M566,-14c0,0,-200,0,-308,93c0,0,-107,94,-107,270V926L38,945v55H515V945L386,926V339c0,0,0,-120,61,-184c0,0,61,-64,178,-64c0,0,112,0,173,63c0,0,61,62,61,184V926L725,945v55h340V945L952,926V343c0,0,0,-173,-100,-265c0,0,-100,-92,-286,-92Z" 
id="f0_1l"
transform="scale(0.001,-0.001)" />

<path d="M639,416L478,858L313,416ZM647,0V54L762,74L667,333H283L191,74L319,54V0H15V54L90,74l355,935H662L1016,74l76,-20V0Z" 
id="f0_11"
transform="scale(0.001,-0.001)" />

<path d="M26,0V54L154,74V926L27,945v55H544V945L389,926V79H593c0,0,159,0,234,15l61,208h67L927,0Z" 
id="f0_1c"
transform="scale(0.001,-0.001)" />

<path d="M498,506c0,0,115,0,164,47c0,0,48,48,48,166c0,0,0,112,-46,156c0,0,-46,43,-169,43H390V506ZM793,0L514,423H390V74L518,54V0H36V54L154,74V926L26,945v55H504c0,0,221,0,330,-68c0,0,109,-68,109,-212c0,0,0,-215,-201,-276L1009,74L1117,54V0Z" 
id="f0_1i"
transform="scale(0.001,-0.001)" />

<path d="M452,474c0,0,104,0,151,52c0,0,47,53,47,178c0,0,0,119,-45,167c0,0,-44,47,-156,47H390V474ZM36,0V54L154,74V926L26,945v55H467c0,0,213,0,318,-71c0,0,105,-71,105,-224c0,0,0,-313,-366,-313H390V74L557,54V0Z" 
id="f0_1g"
transform="scale(0.001,-0.001)" />

<path d="M595,60c0,0,141,0,206,102c0,0,65,102,65,340c0,0,0,236,-65,335c0,0,-65,100,-206,100c0,0,-142,0,-207,-100c0,0,-66,-99,-66,-335c0,0,0,-239,66,-340c0,0,65,-102,207,-102Zm0,-74c0,0,-253,0,-387,130C208,116,75,246,75,501c0,0,0,510,520,510c0,0,256,0,387,-129c0,0,132,-130,132,-381c0,0,0,-254,-133,-385C981,116,848,-14,595,-14Z" 
id="f0_1f"
transform="scale(0.001,-0.001)" />

<path d="M519,79c0,0,97,0,153,42c0,0,57,42,83,131c0,0,26,89,26,248c0,0,0,216,-79,317c0,0,-79,101,-257,101H389V85c0,0,72,-6,130,-6ZM533,-2L198,0H27V54L155,74V926L27,945v55H502c0,0,269,0,398,-122c0,0,129,-122,129,-372c0,0,0,-258,-123,-383C906,123,783,-2,533,-2Z" 
id="f0_14"
transform="scale(0.001,-0.001)" />

<path d="M608,-14c0,0,-251,0,-392,133C216,119,75,252,75,488c0,0,0,257,134,390c0,0,135,133,398,133c0,0,174,0,361,-50l4,-240H905L884,866c0,0,-98,67,-229,67c0,0,-173,0,-253,-108c0,0,-80,-108,-80,-334c0,0,0,-209,84,-319c0,0,83,-109,243,-109c0,0,84,0,147,22c0,0,63,22,99,53l24,164h68L982,48C982,48,915,22,808,4C808,4,700,-14,608,-14Z" 
id="f0_13"
transform="scale(0.001,-0.001)" />

<path d="M231,0V54L390,74V921H352c0,0,-171,0,-240,-15L92,721H24v279H996V721H927L907,906c0,0,-62,14,-245,14H626V74L785,54V0Z" 
id="f0_1k"
transform="scale(0.001,-0.001)" />

<path d="M51,0V55L180,74V926L51,946v54H543V946L415,926V74L543,55V0Z" 
id="f0_19"
transform="scale(0.001,-0.001)" />

<path d="M868,0L251,804V74L385,54V0H29V54L157,74V926L29,945v55H371L862,361V926L727,945v55h356V945L955,926V0Z" 
id="f0_1e"
transform="scale(0.001,-0.001)" />

<path d="M36,0V54L154,74V926L26,945v55H860V731H790L766,908c0,0,-36,5,-121,8c0,0,-84,2,-133,2H389V508H633l23,127h67V298H656L633,426H389V74L556,54V0Z" 
id="f0_16"
transform="scale(0.001,-0.001)" />

<path d="M440,-22L109,926L22,945v55H471V945L354,926L567,330L801,915h93L1129,332l177,594l-126,19v55h324V945l-87,-19L1120,-22h-92L779,594L532,-22Z" 
id="f0_1n"
transform="scale(0.001,-0.001)" />

<path d="M614,-14c0,0,-163,0,-285,59c0,0,-122,60,-188,174c0,0,-66,114,-66,269c0,0,0,252,143,387c0,0,144,136,410,136c0,0,65,0,118,-5c0,0,54,-5,100,-14c0,0,46,-9,170,-44V718H949L931,848c0,0,-59,40,-130,62c0,0,-71,23,-146,23c0,0,-174,0,-253,-108c0,0,-80,-108,-80,-335c0,0,0,-211,84,-319c0,0,84,-108,243,-108c0,0,87,0,165,26V377L686,397v55h461V397l-98,-20V52C1049,52,956,22,834,4C834,4,712,-14,614,-14Z" 
id="f0_17"
transform="scale(0.001,-0.001)" />

<path d="M273,157c0,0,-114,0,-193,80C80,237,0,317,0,431c0,0,0,112,80,192c0,0,79,80,193,80c0,0,113,0,192,-80c0,0,80,-80,80,-192c0,0,0,-114,-80,-194c0,0,-79,-80,-192,-80Z" 
id="f1_3d"
transform="scale(0.001,-0.001)" />

<path d="M410,-14c0,0,-80,0,-162,14c0,0,-81,14,-144,38V270h48L178,134c0,0,28,-35,95,-62c0,0,68,-27,134,-27c0,0,104,0,163,53c0,0,58,54,58,148c0,0,0,54,-23,89c0,0,-22,35,-59,59c0,0,-37,24,-84,41c0,0,-47,17,-97,34c0,0,-49,17,-96,38c0,0,-47,21,-84,53c0,0,-37,32,-60,79c0,0,-23,48,-23,117c0,0,0,119,90,187c0,0,89,68,248,68c0,0,121,0,263,-32V771H654L628,893c0,0,-76,55,-188,55c0,0,-100,0,-156,-40c0,0,-56,-41,-56,-112c0,0,0,-49,22,-81c0,0,23,-32,60,-55c0,0,37,-22,84,-39c0,0,48,-16,97,-34c0,0,50,-17,97,-39c0,0,48,-22,85,-56c0,0,36,-34,59,-83c0,0,23,-49,23,-120c0,0,0,-145,-89,-224c0,0,-89,-79,-256,-79Z" 
id="f2_1j"
transform="scale(0.001,-0.001)" />

<path d="M495,413c0,0,0,133,-34,190c0,0,-34,57,-105,57c0,0,-78,0,-119,-63c0,0,-42,-62,-42,-184ZM374,-14c0,0,-163,0,-239,87c0,0,-75,88,-75,283c0,0,0,183,77,273c0,0,76,91,219,91c0,0,269,0,269,-306V353H194V340c0,0,0,-103,23,-160c0,0,22,-57,70,-87c0,0,47,-29,124,-29c0,0,40,0,96,6c0,0,55,7,91,15V43C598,43,562,20,500,3c0,0,-61,-17,-126,-17Z" 
id="f2_21"
transform="scale(0.001,-0.001)" />

<path d="M13,0V34L95,46L325,350L122,649L40,668v33H357V668L264,648L399,446L554,649l-96,19v33H710V668L630,652L433,397L663,50L745,34V0H427V34l94,17L359,299L169,50L266,34V0Z" 
id="f2_2k"
transform="scale(0.001,-0.001)" />

<path d="M289,-14c0,0,-179,0,-179,205V649L20,668v33H233V200c0,0,0,-128,120,-128c0,0,92,0,173,23V649L420,668v33H649V52L738,33V0H533l-6,57C527,57,474,28,405,7c0,0,-69,-21,-116,-21Z" 
id="f2_2h"
transform="scale(0.001,-0.001)" />

<path d="M284,67c0,0,51,0,88,12c0,0,37,12,74,30V358l-98,-3c0,0,-100,-4,-135,-39c0,0,-35,-35,-35,-117c0,0,0,-132,106,-132ZM233,-14c0,0,-179,0,-179,208c0,0,0,70,27,116c0,0,27,46,87,70c0,0,60,24,173,27l105,3V519c0,0,0,72,-26,107c0,0,-27,34,-82,34c0,0,-75,0,-137,-35L176,538H134V691c0,0,121,26,213,26c0,0,115,0,169,-47c0,0,54,-47,54,-144V52L657,33V0H465L451,70c0,0,-85,-84,-218,-84Z" 
id="f2_1x"
transform="scale(0.001,-0.001)" />

<path d="M31,0V33L150,52v956L31,1026v34H274V52L394,33V0Z" 
id="f2_28"
transform="scale(0.001,-0.001)" />

<path d="M31,0V33l88,19V649L31,668v33H235l7,-87c0,0,44,37,121,71c0,0,76,35,121,35h11V530H463l-43,82c0,0,-37,0,-88,-10c0,0,-52,-10,-89,-26V52L363,33V0Z" 
id="f2_2e"
transform="scale(0.001,-0.001)" />

<path d="M382,45c0,0,188,0,188,314c0,0,0,143,-47,213c0,0,-46,69,-141,69c0,0,-87,0,-146,-24V58c0,0,67,-13,146,-13ZM25,-325v35l88,18V649L34,668v33H231l1,-41c0,0,31,27,84,43c0,0,53,17,107,17c0,0,134,0,208,-94c0,0,73,-93,73,-267c0,0,0,-178,-80,-276c0,0,-80,-97,-232,-97c0,0,-84,0,-160,16c0,0,4,-53,4,-84V-272l123,-18v-35Z" 
id="f2_2c"
transform="scale(0.001,-0.001)" />

<path d="M377,45c0,0,99,0,147,73c0,0,47,73,47,237c0,0,0,161,-47,233c0,0,-47,72,-147,72c0,0,-97,0,-141,-69c0,0,-44,-69,-44,-236c0,0,0,-169,45,-240c0,0,44,-70,140,-70Zm0,-59c0,0,-158,0,-238,94c0,0,-81,95,-81,274c0,0,0,178,81,272c0,0,80,94,244,94c0,0,160,0,241,-92c0,0,82,-92,82,-274c0,0,0,-368,-329,-368Z" 
id="f2_2b"
transform="scale(0.001,-0.001)" />

<path d="M383,64c0,0,85,0,152,28V645c0,0,-67,13,-152,13c0,0,-194,0,-194,-314c0,0,0,-141,48,-211c0,0,48,-69,146,-69ZM342,-14c0,0,-287,0,-287,358c0,0,0,184,82,280c0,0,81,96,239,96c0,0,81,0,163,-18c0,0,-4,25,-4,124v182l-118,18v34H659V52L745,33V0H548l-9,52c0,0,-84,-66,-197,-66Z" 
id="f2_20"
transform="scale(0.001,-0.001)" />

<path d="M399,-14c0,0,-341,0,-341,370c0,0,0,175,87,269c0,0,87,95,249,95c0,0,101,0,220,-23V501H573L541,625c0,0,-62,35,-149,35c0,0,-200,0,-200,-304c0,0,0,-158,61,-225c0,0,61,-67,189,-67c0,0,109,0,189,24V43C631,43,595,16,530,1c0,0,-64,-15,-131,-15Z" 
id="f2_1z"
transform="scale(0.001,-0.001)" />

<path d="M249,-14c0,0,-71,0,-107,42c0,0,-35,42,-35,119V639H15v33l93,29l76,159h47V701H391V639H231V161c0,0,0,-48,22,-73c0,0,22,-24,57,-24c0,0,44,0,106,12V26C416,26,389,8,340,-2c0,0,-49,-12,-91,-12Z" 
id="f2_2g"
transform="scale(0.001,-0.001)" />

<path d="M32,0V33L151,52V649L52,668v33H275V52L395,33V0ZM201,850c0,0,-32,0,-56,24c0,0,-24,24,-24,56c0,0,0,34,24,58c0,0,24,24,56,24c0,0,34,0,58,-24c0,0,24,-24,24,-58c0,0,0,-32,-24,-56c0,0,-24,-24,-58,-24Z" 
id="f2_25"
transform="scale(0.001,-0.001)" />

<path d="M439,0V33l93,19V500c0,0,0,62,-30,97c0,0,-31,36,-94,36c0,0,-67,0,-165,-22V52L338,33V0H35V33l84,19V649L35,668v33H235l7,-57c0,0,57,33,122,54c0,0,65,22,108,22c0,0,91,0,137,-53c0,0,47,-53,47,-154V52L741,33V0Z" 
id="f2_2a"
transform="scale(0.001,-0.001)" />

<path d="M278,-14c0,0,-52,0,-115,11c0,0,-63,10,-99,23V193H98L134,95c0,0,56,-50,146,-50c0,0,144,0,144,123c0,0,0,91,-114,130l-66,21c0,0,-75,25,-110,50c0,0,-34,26,-53,63c0,0,-18,36,-18,89c0,0,0,92,63,145c0,0,63,54,170,54c0,0,77,0,193,-23V544H454l-32,81c0,0,-39,35,-124,35c0,0,-61,0,-92,-30c0,0,-32,-30,-32,-80c0,0,0,-43,29,-72c0,0,28,-29,86,-48c0,0,110,-38,144,-55c0,0,33,-17,57,-42c0,0,23,-25,36,-57c0,0,13,-32,13,-79c0,0,0,-104,-66,-158c0,0,-66,-53,-195,-53Z" 
id="f2_2f"
transform="scale(0.001,-0.001)" />

<path d="M442,0V33l93,19V504c0,0,0,129,-124,129c0,0,-70,0,-168,-22V52L338,33V0H31V33l88,19v956L15,1026v34H243V756c0,0,0,-77,-5,-112c0,0,54,31,122,53c0,0,68,23,115,23c0,0,91,0,137,-53c0,0,47,-53,47,-154V52L744,33V0Z" 
id="f2_24"
transform="scale(0.001,-0.001)" />

<path d="M64,0V34L168,59V639H47v36l121,29v49c0,0,0,155,61,239c0,0,62,84,173,84c0,0,58,0,107,-15V908H472l-33,92c0,0,-26,16,-62,16c0,0,-47,0,-66,-42c0,0,-19,-42,-19,-157V701H478V639H292V59L443,34V0Z" 
id="f2_22"
transform="scale(0.001,-0.001)" />

<path d="M360,-14L72,649L0,668v33H327V668L216,648L420,164L615,649L504,668v33H764V668L697,652L416,-14Z" 
id="f2_2i"
transform="scale(0.001,-0.001)" />

<path d="M431,0V33L535,52V499c0,0,0,62,-32,96c0,0,-32,33,-95,33c0,0,-66,0,-163,-22V52L350,33V0H32V33l89,19V649L32,668v33H237l6,-57c0,0,56,32,119,54c0,0,62,22,110,22c0,0,52,0,95,-20c0,0,44,-19,66,-62c0,0,57,32,134,57c0,0,77,25,128,25c0,0,179,0,179,-207V52l90,-19V0H846V33L950,52V499c0,0,0,129,-119,129c0,0,-19,0,-45,-3c0,0,-26,-3,-52,-7c0,0,-25,-4,-49,-8c0,0,-23,-5,-39,-8c0,0,13,-41,13,-89V52L764,33V0Z" 
id="f2_29"
transform="scale(0.001,-0.001)" />

<path d="M327,-14L84,649L1,668v33H335V668L219,648L385,174L554,632h63L786,171L944,649L830,668v33h267V668l-78,-16L784,-14H726L553,448L382,-14Z" 
id="f2_2j"
transform="scale(0.001,-0.001)" />

<path d="M359,-270c0,0,124,0,192,46c0,0,67,47,67,129c0,0,0,43,-26,67c0,0,-26,24,-79,24H242c0,0,-32,-27,-51,-69c0,0,-20,-41,-20,-77c0,0,0,-64,46,-92c0,0,46,-28,142,-28Zm11,561c0,0,81,0,115,47c0,0,34,47,34,141c0,0,0,100,-35,142c0,0,-35,42,-113,42c0,0,-78,0,-114,-43c0,0,-37,-42,-37,-141c0,0,0,-98,36,-143c0,0,36,-45,114,-45ZM359,-329c0,0,-143,0,-218,44c0,0,-75,43,-75,125c0,0,0,39,27,78c0,0,26,38,98,89c0,0,-43,14,-72,48c0,0,-29,35,-29,74L208,262c0,0,-118,55,-118,217c0,0,0,115,73,178c0,0,73,63,211,63c0,0,28,0,71,-6c0,0,44,-6,67,-13l165,83l26,-32L599,644c0,0,50,-56,50,-165c0,0,0,-120,-72,-182c0,0,-73,-62,-208,-62c0,0,-62,0,-114,11L208,148c0,0,2,-13,29,-24c0,0,27,-12,67,-12H512c0,0,113,0,168,-49c0,0,55,-49,55,-134c0,0,0,-79,-44,-137c0,0,-43,-58,-128,-90c0,0,-84,-31,-204,-31Z" 
id="f2_23"
transform="scale(0.001,-0.001)" />

<path d="M191,-20c0,0,-39,0,-65,25c0,0,-25,27,-25,64c0,0,0,38,26,64c0,0,26,26,64,26c0,0,38,0,64,-26c0,0,26,-26,26,-64c0,0,0,-37,-25,-64c0,0,-26,-25,-65,-25Z" 
id="f2_i"
transform="scale(0.001,-0.001)" />

<path d="M235,0V40L394,60V936H356c0,0,-189,0,-258,-15L78,766H28v234H908V766H857L837,921c0,0,-22,5,-98,9c0,0,-75,4,-165,4H538V60L697,40V0Z" 
id="f2_1k"
transform="scale(0.001,-0.001)" />

<path d="M148,-329c0,0,-58,0,-114,13v151H69l24,-71c0,0,23,-17,64,-17c0,0,39,0,72,22c0,0,33,23,60,67c0,0,27,44,68,157L90,649L19,668v33H344V668L233,648L423,158L606,649L497,668v33H758V668L685,652L411,-43c0,0,-48,-124,-84,-177c0,0,-36,-54,-79,-82c0,0,-44,-27,-100,-27Z" 
id="f2_2l"
transform="scale(0.001,-0.001)" />

<path d="M460,-325c0,0,-148,79,-231,172c0,0,-84,93,-123,217c0,0,-39,126,-39,304c0,0,0,178,39,303c0,0,39,125,122,217c0,0,82,93,232,172V997c0,0,-91,-52,-145,-134c0,0,-54,-81,-79,-190c0,0,-25,-109,-25,-305c0,0,0,-194,26,-309c0,0,26,-114,82,-193c0,0,56,-79,141,-128v-63Z" 
id="f2_c"
transform="scale(0.001,-0.001)" />

<path d="M49,-325v63c0,0,85,49,140,128c0,0,56,79,83,194c0,0,26,115,26,308c0,0,0,196,-25,305c0,0,-25,109,-79,190c0,0,-54,82,-145,134v63c0,0,149,-80,232,-172c0,0,83,-92,122,-217c0,0,39,-125,39,-303c0,0,0,-177,-39,-303c0,0,-39,-125,-122,-217c0,0,-83,-93,-232,-173Z" 
id="f2_d"
transform="scale(0.001,-0.001)" />

<path d="M577,-14c0,0,-243,0,-379,132C198,118,63,250,63,488c0,0,0,258,130,391c0,0,131,132,387,132c0,0,156,0,335,-38l5,-218H871L848,884c0,0,-52,32,-121,50c0,0,-69,17,-141,17c0,0,-191,0,-279,-112c0,0,-88,-113,-88,-349c0,0,0,-217,92,-332c0,0,92,-115,268,-115c0,0,85,0,160,20c0,0,76,21,120,55l27,149h49L930,32c0,0,-164,-46,-353,-46Z" 
id="f2_13"
transform="scale(0.001,-0.001)" />

<path d="M376,50c0,0,103,0,149,80c0,0,46,81,46,240c0,0,0,137,-47,204c0,0,-48,67,-148,67c0,0,-44,0,-87,-7c0,0,-44,-8,-63,-17V62c0,0,63,-12,150,-12Zm3,-64c0,0,-64,0,-141,14c0,0,-78,14,-136,37v971L0,1026v34H226V809c0,0,0,-40,-4,-148c0,0,74,59,188,59c0,0,143,0,219,-87c0,0,77,-87,77,-263c0,0,0,-189,-84,-287c0,0,-84,-97,-243,-97Z" 
id="f2_1y"
transform="scale(0.001,-0.001)" />

<path d="M58,-234v58c0,0,131,42,131,125c0,0,0,15,-11,27c0,0,-11,12,-38,25C140,1,89,27,89,75c0,0,0,40,25,61c0,0,26,21,65,21c0,0,48,0,77,-34c0,0,30,-34,30,-86c0,0,0,-101,-60,-170c0,0,-59,-69,-168,-101Z" 
id="f2_g"
transform="scale(0.001,-0.001)" />

<path d="M211,-20c0,0,-39,0,-64,25c0,0,-26,27,-26,64c0,0,0,38,26,64c0,0,26,26,64,26c0,0,37,0,64,-25c0,0,26,-26,26,-65c0,0,0,-37,-26,-64c0,0,-26,-25,-64,-25Zm0,556c0,0,-38,0,-64,26c0,0,-26,26,-26,64c0,0,0,37,26,64c0,0,25,27,64,27c0,0,38,0,64,-27c0,0,26,-27,26,-64c0,0,0,-38,-26,-64c0,0,-27,-26,-64,-26Z" 
id="f2_u"
transform="scale(0.001,-0.001)" />

<path d="M57,302V417H454V302Z" 
id="f2_h"
transform="scale(0.001,-0.001)" />

<path d="M34,0V49l76,18V634L38,652v49H325V67L402,49V0ZM217,831c0,0,-48,0,-81,33c0,0,-34,33,-34,82c0,0,0,48,34,81c0,0,34,33,81,33c0,0,48,0,81,-33c0,0,33,-33,33,-81c0,0,0,-47,-33,-81c0,0,-32,-34,-81,-34Z" 
id="f0_25"
transform="scale(0.001,-0.001)" />

<path d="M49,-325v85c0,0,68,53,110,135c0,0,41,82,60,190c0,0,19,109,19,283c0,0,0,177,-19,285c0,0,-20,108,-61,189c0,0,-41,81,-109,133v85c0,0,149,-80,232,-172c0,0,83,-92,122,-217c0,0,39,-125,39,-302c0,0,0,-178,-39,-304c0,0,-39,-125,-122,-218c0,0,-83,-93,-232,-172Z" 
id="f0_d"
transform="scale(0.001,-0.001)" />

<path d="M41,0V49l91,18V634L41,652v49H336l8,-145c0,0,80,89,144,128c0,0,64,40,117,40h40V468H604l-45,94c0,0,-47,0,-106,-21c0,0,-60,-20,-105,-48V67L460,49V0Z" 
id="f0_2e"
transform="scale(0.001,-0.001)" />

<path d="M434,423c0,0,0,101,-7,142c0,0,-6,40,-22,60c0,0,-16,19,-45,19c0,0,-44,0,-66,-48c0,0,-22,-49,-22,-173ZM389,-14c0,0,-172,0,-254,89c0,0,-83,90,-83,279c0,0,0,184,79,274c0,0,79,91,238,91c0,0,142,0,206,-76c0,0,64,-76,64,-237V345H271V333c0,0,0,-111,18,-158c0,0,18,-47,58,-72c0,0,40,-25,110,-25c0,0,66,0,166,22V42C623,42,582,18,517,1c0,0,-66,-15,-128,-15Z" 
id="f0_21"
transform="scale(0.001,-0.001)" />

<path d="M56,294V424H453V294Z" 
id="f0_h"
transform="scale(0.001,-0.001)" />

<path d="M41,0V49l76,18V624H11v51l106,29v75c0,0,0,144,73,220c0,0,73,77,210,77c0,0,74,0,124,-15V894H476l-22,81c0,0,-18,17,-47,17c0,0,-74,0,-74,-189V701H475V624H333V67L447,49V0Z" 
id="f0_22"
transform="scale(0.001,-0.001)" />

<path d="M327,-14c0,0,-101,0,-156,45c0,0,-55,45,-55,131V624H25v48l108,29l87,159H332V701H480V624H332V176c0,0,0,-49,20,-73c0,0,20,-25,53,-25c0,0,40,0,97,12V26c0,0,-22,-15,-76,-27c0,0,-55,-13,-99,-13Z" 
id="f0_2g"
transform="scale(0.001,-0.001)" />

<path d="M30,0V49l76,18V992l-72,18v50H322V67L398,49V0Z" 
id="f0_28"
transform="scale(0.001,-0.001)" />

<path d="M30,0V34L352,634H272c0,0,-41,0,-80,-7c0,0,-39,-8,-54,-19L115,492H61V701H606V664L283,67H395c0,0,43,0,90,11c0,0,47,10,66,24l40,162h54L624,0Z" 
id="f0_2m"
transform="scale(0.001,-0.001)" />

<path d="M345,75c0,0,50,0,110,26V351l-63,-2c0,0,-72,-3,-100,-38c0,0,-28,-35,-28,-113c0,0,0,-63,22,-93c0,0,23,-30,59,-30ZM266,-14c0,0,-217,0,-217,208c0,0,0,79,32,126c0,0,32,48,93,71c0,0,60,22,190,25l91,2V521c0,0,0,126,-104,126c0,0,-62,0,-140,-39L183,521H134V691c0,0,112,17,165,21c0,0,53,5,108,5c0,0,264,0,264,-194V67L741,49V0H483L466,54C466,54,408,14,361,0c0,0,-47,-14,-95,-14Z" 
id="f0_1x"
transform="scale(0.001,-0.001)" />

<path d="M379,60c0,0,59,0,84,64c0,0,24,65,24,231c0,0,0,164,-24,227c0,0,-24,63,-84,63c0,0,-57,0,-80,-60c0,0,-22,-61,-22,-230c0,0,0,-173,23,-234c0,0,22,-61,79,-61Zm-2,-74c0,0,-161,0,-240,91c0,0,-79,91,-79,277c0,0,0,186,80,276c0,0,81,90,245,90c0,0,167,0,245,-93c0,0,78,-93,78,-273c0,0,0,-188,-81,-278c0,0,-81,-90,-248,-90Z" 
id="f0_2b"
transform="scale(0.001,-0.001)" />

<path d="M41,0V49l69,18V634L41,652v49H313l11,-61l50,26c0,0,105,54,188,54c0,0,194,0,194,-207V67L827,49V0H478V49l63,18V484c0,0,0,63,-27,98c0,0,-26,35,-75,35c0,0,-57,0,-114,-25V67L389,49V0Z" 
id="f0_2a"
transform="scale(0.001,-0.001)" />

<path d="M287,-18c0,0,-194,0,-194,206V634L23,652v49H309V217c0,0,0,-63,26,-98c0,0,27,-35,76,-35c0,0,57,0,113,25V634l-64,18v49H740V67L809,49V0H536L526,61L475,35c0,0,-104,-53,-188,-53Z" 
id="f0_2h"
transform="scale(0.001,-0.001)" />

<path d="M424,64c0,0,74,0,109,71c0,0,36,72,36,236c0,0,0,137,-34,201c0,0,-34,65,-111,65c0,0,-29,0,-62,-7c0,0,-34,-6,-55,-19V76c0,0,47,-12,117,-12Zm21,-78c0,0,-121,0,-354,50V994l-72,18v48H307V802c0,0,0,-69,-8,-141c0,0,30,25,86,42c0,0,57,17,110,17c0,0,153,0,223,-84c0,0,70,-83,70,-266c0,0,0,-180,-90,-283C698,87,608,-14,445,-14Z" 
id="f0_1y"
transform="scale(0.001,-0.001)" />

<path d="M276,-14c0,0,-57,0,-125,13C151,-1,83,10,48,23V214H97l28,-98c0,0,26,-26,69,-44c0,0,42,-17,86,-17c0,0,65,0,97,28c0,0,32,28,32,71c0,0,0,41,-31,65c0,0,-30,25,-133,57c0,0,-108,34,-154,92c0,0,-45,58,-45,143c0,0,0,95,71,152c0,0,71,57,183,57c0,0,77,0,207,-22V518H457l-24,82c0,0,-21,22,-60,35c0,0,-40,14,-75,14c0,0,-53,0,-79,-22c0,0,-26,-22,-26,-59c0,0,0,-40,32,-65c0,0,32,-26,132,-55c0,0,109,-34,155,-89c0,0,45,-55,45,-137c0,0,0,-117,-72,-177c0,0,-72,-59,-209,-59Z" 
id="f0_2f"
transform="scale(0.001,-0.001)" />

<path d="M248,-20c0,0,-52,0,-87,34c0,0,-36,36,-36,88c0,0,0,52,36,88c0,0,35,36,87,36c0,0,52,0,88,-36c0,0,36,-36,36,-88c0,0,0,-51,-36,-87c0,0,-35,-35,-88,-35Zm0,488c0,0,-52,0,-87,36c0,0,-36,36,-36,88c0,0,0,52,35,88c0,0,35,36,88,36c0,0,53,0,89,-36c0,0,35,-37,35,-88c0,0,0,-51,-36,-87c0,0,-35,-37,-88,-37Z" 
id="f0_u"
transform="scale(0.001,-0.001)" />

<path d="M506,-22L99,926L17,946v54H452V946L348,926L630,270L892,926L791,946v54h295V946L991,926L605,-22Z" 
id="f0_1m"
transform="scale(0.001,-0.001)" />

<path d="M41,0V34L426,641H261c0,0,-42,0,-80,-7c0,0,-39,-7,-54,-19L104,515H69V701H586V665L201,60H407c0,0,42,0,89,10c0,0,47,10,66,25l39,147h35L617,0Z" 
id="f2_2m"
transform="scale(0.001,-0.001)" />

<path d="M394,460c0,0,126,0,186,57c0,0,60,57,60,187c0,0,0,123,-57,176c0,0,-58,53,-194,53H316V460ZM54,0V40L172,60V941L44,960v40H421c0,0,368,0,368,-295c0,0,0,-153,-93,-233c0,0,-93,-80,-267,-80H316V60L475,40V0Z" 
id="f2_1g"
transform="scale(0.001,-0.001)" />

<path d="M44,0V40L172,60V941L44,960v40H794V760H745L721,922c0,0,-83,11,-241,11H316V543H586l23,119h48V354H609L586,475H316V67H513c0,0,193,0,252,12l43,185h49L843,0Z" 
id="f2_15"
transform="scale(0.001,-0.001)" />

<path d="M435,0V856c0,0,-48,-47,-127,-93c0,0,-79,-46,-142,-69V824c0,0,113,52,197,128c0,0,85,75,120,146h86V0Z" 
id="f3_l"
transform="scale(0.001,-0.001)" />


</defs>
</svg>