<?xml version="1.0" encoding="UTF-8" standalone="no"?>
<!DOCTYPE svg PUBLIC "-//W3C//DTD SVG 1.1//EN"
"http://www.w3.org/Graphics/SVG/1.1/DTD/svg11.dtd">
<svg viewBox="0 0 909 1286" version="1.1" xmlns="http://www.w3.org/2000/svg" xmlns:xlink="http://www.w3.org/1999/xlink">
<defs>
<style type="text/css"><![CDATA[
.g0_18{
fill: #FFFFFF;
}
.g1_18{
fill: #1F3331;
}
]]></style>
</defs>
<path fill-rule="evenodd" d="M73.4,75.9H857.2V55H73.4V75.9Z" class="g0_18" />
<g fill="#1F3331" >
<use xlink:href="#f0_3d" transform="matrix(10.1,0,0,10.1,75.6,71.9)" />
<use xlink:href="#f1_15" transform="matrix(12,0,0,12,103.1,71.9)" />
<use xlink:href="#f1_2a" transform="matrix(12,0,0,12,115.2,71.9)" />
<use xlink:href="#f1_20" transform="matrix(12,0,0,12,125.4,71.9)" />
<use xlink:href="#f1_2b" transform="matrix(12,0,0,12,135.7,71.9)" />
<use xlink:href="#f1_2g" transform="matrix(12,0,0,12,144.8,71.9)" />
<use xlink:href="#f1_24" transform="matrix(12,0,0,12,151,71.9)" />
<use xlink:href="#f1_21" transform="matrix(12,0,0,12,161.3,71.9)" />
<use xlink:href="#f1_1z" transform="matrix(12,0,0,12,169.4,71.9)" />
<use xlink:href="#f1_25" transform="matrix(12,0,0,12,177.4,71.9)" />
<use xlink:href="#f1_2h" transform="matrix(12,0,0,12,182.5,71.9)" />
<use xlink:href="#f1_29" transform="matrix(12,0,0,12,192.8,71.9)" />
<use xlink:href="#f2_4y" transform="matrix(12,0,0,12,213.5,71.9)" />
<use xlink:href="#f3_1j" transform="matrix(12,0,0,12,228.2,71.9)" />
<use xlink:href="#f3_25" transform="matrix(12,0,0,12,238.4,71.9)" />
<use xlink:href="#f3_2a" transform="matrix(12,0,0,12,243.2,71.9)" />
<use xlink:href="#f3_23" transform="matrix(12,0,0,12,252,71.9)" />
<use xlink:href="#f3_28" transform="matrix(12,0,0,12,261.5,71.9)" />
<use xlink:href="#f3_21" transform="matrix(12,0,0,12,266.3,71.9)" />
<use xlink:href="#f3_28" transform="matrix(12,0,0,12,280.2,71.9)" />
<use xlink:href="#f3_1x" transform="matrix(12,0,0,12,285,71.9)" />
<use xlink:href="#f3_2l" transform="matrix(12,0,0,12,293.4,71.9)" />
<use xlink:href="#f3_21" transform="matrix(12,0,0,12,302.2,71.9)" />
<use xlink:href="#f3_2e" transform="matrix(12,0,0,12,310.2,71.9)" />
<use xlink:href="#f3_21" transform="matrix(12,0,0,12,316.4,71.9)" />
<use xlink:href="#f3_20" transform="matrix(12,0,0,12,324.5,71.9)" />
<use xlink:href="#f3_2f" transform="matrix(12,0,0,12,339.2,71.9)" />
<use xlink:href="#f3_21" transform="matrix(12,0,0,12,346.1,71.9)" />
<use xlink:href="#f3_1z" transform="matrix(12,0,0,12,354.5,71.9)" />
<use xlink:href="#f3_2b" transform="matrix(12,0,0,12,362.6,71.9)" />
<use xlink:href="#f3_2a" transform="matrix(12,0,0,12,372.1,71.9)" />
<use xlink:href="#f3_20" transform="matrix(12,0,0,12,380.9,71.9)" />
<use xlink:href="#f3_2j" transform="matrix(12,0,0,12,395.6,71.9)" />
<use xlink:href="#f3_1x" transform="matrix(12,0,0,12,408.8,71.9)" />
<use xlink:href="#f3_28" transform="matrix(12,0,0,12,417.2,71.9)" />
<use xlink:href="#f3_28" transform="matrix(12,0,0,12,422,71.9)" />
<use xlink:href="#f3_i" transform="matrix(12,0,0,12,427,71.9)" />
<use xlink:href="#f3_13" transform="matrix(12,0,0,12,437.3,71.9)" />
<use xlink:href="#f3_21" transform="matrix(12,0,0,12,449.4,71.9)" />
<use xlink:href="#f3_28" transform="matrix(12,0,0,12,457.8,71.9)" />
<use xlink:href="#f3_28" transform="matrix(12,0,0,12,462.9,71.9)" />
<use xlink:href="#f3_2f" transform="matrix(12,0,0,12,467.7,71.9)" />
<use xlink:href="#f3_24" transform="matrix(12,0,0,12,480.5,71.9)" />
<use xlink:href="#f3_1x" transform="matrix(12,0,0,12,489.3,71.9)" />
<use xlink:href="#f3_2i" transform="matrix(12,0,0,12,497.7,71.9)" />
<use xlink:href="#f3_21" transform="matrix(12,0,0,12,506.5,71.9)" />
<use xlink:href="#f3_1x" transform="matrix(12,0,0,12,520,71.9)" />
<use xlink:href="#f3_1z" transform="matrix(12,0,0,12,533.6,71.9)" />
<use xlink:href="#f3_21" transform="matrix(12,0,0,12,541.6,71.9)" />
<use xlink:href="#f3_28" transform="matrix(12,0,0,12,550.1,71.9)" />
<use xlink:href="#f3_28" transform="matrix(12,0,0,12,555.2,71.9)" />
<use xlink:href="#f3_2h" transform="matrix(12,0,0,12,560,71.9)" />
<use xlink:href="#f3_28" transform="matrix(12,0,0,12,569.5,71.9)" />
<use xlink:href="#f3_2b" transform="matrix(12,0,0,12,573.9,71.9)" />
<use xlink:href="#f3_2f" transform="matrix(12,0,0,12,583.4,71.9)" />
<use xlink:href="#f3_21" transform="matrix(12,0,0,12,590.4,71.9)" />
<use xlink:href="#f3_2g" transform="matrix(12,0,0,12,603.9,71.9)" />
<use xlink:href="#f3_24" transform="matrix(12,0,0,12,609.4,71.9)" />
<use xlink:href="#f3_25" transform="matrix(12,0,0,12,618.5,71.9)" />
<use xlink:href="#f3_1z" transform="matrix(12,0,0,12,623.3,71.9)" />
<use xlink:href="#f3_27" transform="matrix(12,0,0,12,631.4,71.9)" />
<use xlink:href="#f3_21" transform="matrix(12,0,0,12,640.5,71.9)" />
<use xlink:href="#f3_2a" transform="matrix(12,0,0,12,649,71.9)" />
<use xlink:href="#f3_25" transform="matrix(12,0,0,12,658.1,71.9)" />
<use xlink:href="#f3_2a" transform="matrix(12,0,0,12,662.9,71.9)" />
<use xlink:href="#f3_23" transform="matrix(12,0,0,12,672.1,71.9)" />
<use xlink:href="#f3_2j" transform="matrix(12,0,0,12,686.7,71.9)" />
<use xlink:href="#f3_25" transform="matrix(12,0,0,12,700.3,71.9)" />
<use xlink:href="#f3_2g" transform="matrix(12,0,0,12,704.7,71.9)" />
<use xlink:href="#f3_24" transform="matrix(12,0,0,12,710.5,71.9)" />
<use xlink:href="#f3_1x" transform="matrix(12,0,0,12,724.8,71.9)" />
<use xlink:href="#f3_28" transform="matrix(12,0,0,12,738.7,71.9)" />
<use xlink:href="#f3_25" transform="matrix(12,0,0,12,743.5,71.9)" />
<use xlink:href="#f3_2g" transform="matrix(12,0,0,12,747.9,71.9)" />
<use xlink:href="#f3_2g" transform="matrix(12,0,0,12,753.4,71.9)" />
<use xlink:href="#f3_28" transform="matrix(12,0,0,12,759.2,71.9)" />
<use xlink:href="#f3_21" transform="matrix(12,0,0,12,763.6,71.9)" />
<use xlink:href="#f3_2c" transform="matrix(12,0,0,12,777.2,71.9)" />
<use xlink:href="#f3_21" transform="matrix(12,0,0,12,786.3,71.9)" />
<use xlink:href="#f3_1z" transform="matrix(12,0,0,12,794.4,71.9)" />
<use xlink:href="#f3_2g" transform="matrix(12,0,0,12,802.5,71.9)" />
<use xlink:href="#f3_25" transform="matrix(12,0,0,12,808.3,71.9)" />
<use xlink:href="#f3_2a" transform="matrix(12,0,0,12,813.1,71.9)" />
<use xlink:href="#f3_1x" transform="matrix(12,0,0,12,827.3,71.9)" />
<use xlink:href="#f3_2a" transform="matrix(12,0,0,12,835.8,71.9)" />
<use xlink:href="#f3_20" transform="matrix(12,0,0,12,844.9,71.9)" />
</g>
<path fill-rule="evenodd" d="M103.1,75.6H208V73.7H103.1v1.9Z" class="g1_18" />
<path fill-rule="evenodd" d="M73.4,97.2H857.2V75.9H73.4V97.2Z" class="g0_18" />
<g fill="#1F3331" >
<use xlink:href="#f3_28" transform="matrix(12,0,0,12,103.1,92.8)" />
<use xlink:href="#f3_25" transform="matrix(12,0,0,12,108.2,92.8)" />
<use xlink:href="#f3_23" transform="matrix(12,0,0,12,113,92.8)" />
<use xlink:href="#f3_2a" transform="matrix(12,0,0,12,122.5,92.8)" />
<use xlink:href="#f3_25" transform="matrix(12,0,0,12,131.7,92.8)" />
<use xlink:href="#f3_2a" transform="matrix(12,0,0,12,136.4,92.8)" />
<use xlink:href="#f3_i" transform="matrix(12,0,0,12,145.2,92.8)" />
<use xlink:href="#f3_19" transform="matrix(12,0,0,12,154.7,92.8)" />
<use xlink:href="#f3_2g" transform="matrix(12,0,0,12,160.9,92.8)" />
<use xlink:href="#f3_24" transform="matrix(12,0,0,12,171.2,92.8)" />
<use xlink:href="#f3_21" transform="matrix(12,0,0,12,180,92.8)" />
<use xlink:href="#f3_28" transform="matrix(12,0,0,12,188.4,92.8)" />
<use xlink:href="#f3_2c" transform="matrix(12,0,0,12,192.8,92.8)" />
<use xlink:href="#f3_2f" transform="matrix(12,0,0,12,202.1,92.8)" />
<use xlink:href="#f3_25" transform="matrix(12,0,0,12,214.2,92.8)" />
<use xlink:href="#f3_2a" transform="matrix(12,0,0,12,219,92.8)" />
<use xlink:href="#f3_1x" transform="matrix(12,0,0,12,232.5,92.8)" />
<use xlink:href="#f3_2a" transform="matrix(12,0,0,12,240.9,92.8)" />
<use xlink:href="#f3_2g" transform="matrix(12,0,0,12,249.7,92.8)" />
<use xlink:href="#f3_24" transform="matrix(12,0,0,12,255.2,92.8)" />
<use xlink:href="#f3_21" transform="matrix(12,0,0,12,264,92.8)" />
<use xlink:href="#f3_2e" transform="matrix(12,0,0,12,272.1,92.8)" />
<use xlink:href="#f3_20" transform="matrix(12,0,0,12,283.1,92.8)" />
<use xlink:href="#f3_21" transform="matrix(12,0,0,12,292.2,92.8)" />
<use xlink:href="#f3_24" transform="matrix(12,0,0,12,300.6,92.8)" />
<use xlink:href="#f3_25" transform="matrix(12,0,0,12,309.8,92.8)" />
<use xlink:href="#f3_2f" transform="matrix(12,0,0,12,314.6,92.8)" />
<use xlink:href="#f3_1z" transform="matrix(12,0,0,12,321.5,92.8)" />
<use xlink:href="#f3_21" transform="matrix(12,0,0,12,329.6,92.8)" />
<use xlink:href="#f3_2a" transform="matrix(12,0,0,12,338,92.8)" />
<use xlink:href="#f3_1z" transform="matrix(12,0,0,12,347.2,92.8)" />
<use xlink:href="#f3_21" transform="matrix(12,0,0,12,355.2,92.8)" />
<use xlink:href="#f3_i" transform="matrix(12,0,0,12,363.5,92.8)" />
</g>
<path fill-rule="evenodd" d="M73.4,118.1H857.2V97.2H73.4v20.9Z" class="g0_18" />
<g fill="#1F3331" >
<use xlink:href="#f0_3d" transform="matrix(10.1,0,0,10.1,75.6,114.1)" />
<use xlink:href="#f1_1d" transform="matrix(12,0,0,12,103.1,114.1)" />
<use xlink:href="#f1_25" transform="matrix(12,0,0,12,120.7,114.1)" />
<use xlink:href="#f1_20" transform="matrix(12,0,0,12,125.7,114.1)" />
<use xlink:href="#f1_20" transform="matrix(12,0,0,12,136,114.1)" />
<use xlink:href="#f1_28" transform="matrix(12,0,0,12,146.3,114.1)" />
<use xlink:href="#f1_21" transform="matrix(12,0,0,12,151,114.1)" />
<use xlink:href="#f1_28" transform="matrix(12,0,0,12,163.9,114.1)" />
<use xlink:href="#f1_1x" transform="matrix(12,0,0,12,168.6,114.1)" />
<use xlink:href="#f1_2l" transform="matrix(12,0,0,12,177.8,114.1)" />
<use xlink:href="#f1_21" transform="matrix(12,0,0,12,187,114.1)" />
<use xlink:href="#f1_2e" transform="matrix(12,0,0,12,195.4,114.1)" />
<use xlink:href="#f1_2f" transform="matrix(12,0,0,12,203.1,114.1)" />
<use xlink:href="#f2_4y" transform="matrix(12,0,0,12,214.9,114.1)" />
<use xlink:href="#f3_1i" transform="matrix(12,0,0,12,228.9,114.1)" />
<use xlink:href="#f3_1x" transform="matrix(12,0,0,12,241,114.1)" />
<use xlink:href="#f3_2a" transform="matrix(12,0,0,12,249.1,114.1)" />
<use xlink:href="#f3_23" transform="matrix(12,0,0,12,257.9,114.1)" />
<use xlink:href="#f3_21" transform="matrix(12,0,0,12,267.4,114.1)" />
<use xlink:href="#f3_2f" transform="matrix(12,0,0,12,275.5,114.1)" />
<use xlink:href="#f3_22" transform="matrix(12,0,0,12,287.5,114.1)" />
<use xlink:href="#f3_2e" transform="matrix(12,0,0,12,293,114.1)" />
<use xlink:href="#f3_2b" transform="matrix(12,0,0,12,299.3,114.1)" />
<use xlink:href="#f3_29" transform="matrix(12,0,0,12,309.1,114.1)" />
<use xlink:href="#f3_l" transform="matrix(12,0,0,12,327.6,114.1)" />
<use xlink:href="#f3_h" transform="matrix(12,0,0,12,336.8,114.1)" />
<use xlink:href="#f3_q" transform="matrix(12,0,0,12,343,114.1)" />
<use xlink:href="#f3_i" transform="matrix(12,0,0,12,352.2,114.1)" />
<use xlink:href="#f3_1k" transform="matrix(12,0,0,12,361.3,114.1)" />
<use xlink:href="#f3_24" transform="matrix(12,0,0,12,372.6,114.1)" />
<use xlink:href="#f3_21" transform="matrix(12,0,0,12,381.4,114.1)" />
<use xlink:href="#f3_29" transform="matrix(12,0,0,12,394.6,114.1)" />
<use xlink:href="#f3_25" transform="matrix(12,0,0,12,408.6,114.1)" />
<use xlink:href="#f3_20" transform="matrix(12,0,0,12,413.3,114.1)" />
<use xlink:href="#f3_20" transform="matrix(12,0,0,12,422.5,114.1)" />
<use xlink:href="#f3_28" transform="matrix(12,0,0,12,432,114.1)" />
<use xlink:href="#f3_21" transform="matrix(12,0,0,12,436.8,114.1)" />
<use xlink:href="#f3_28" transform="matrix(12,0,0,12,450,114.1)" />
<use xlink:href="#f3_1x" transform="matrix(12,0,0,12,454.7,114.1)" />
<use xlink:href="#f3_2l" transform="matrix(12,0,0,12,463.1,114.1)" />
<use xlink:href="#f3_21" transform="matrix(12,0,0,12,472.3,114.1)" />
<use xlink:href="#f3_2e" transform="matrix(12,0,0,12,480.4,114.1)" />
<use xlink:href="#f3_20" transform="matrix(12,0,0,12,491.3,114.1)" />
<use xlink:href="#f3_21" transform="matrix(12,0,0,12,500.5,114.1)" />
<use xlink:href="#f3_23" transform="matrix(12,0,0,12,508.6,114.1)" />
<use xlink:href="#f3_21" transform="matrix(12,0,0,12,517.7,114.1)" />
<use xlink:href="#f3_2a" transform="matrix(12,0,0,12,525.8,114.1)" />
<use xlink:href="#f3_21" transform="matrix(12,0,0,12,534.6,114.1)" />
<use xlink:href="#f3_2e" transform="matrix(12,0,0,12,542.7,114.1)" />
<use xlink:href="#f3_1x" transform="matrix(12,0,0,12,548.9,114.1)" />
<use xlink:href="#f3_2g" transform="matrix(12,0,0,12,557,114.1)" />
<use xlink:href="#f3_21" transform="matrix(12,0,0,12,562.4,114.1)" />
<use xlink:href="#f3_2f" transform="matrix(12,0,0,12,570.7,114.1)" />
<use xlink:href="#f3_1x" transform="matrix(12,0,0,12,582.5,114.1)" />
<use xlink:href="#f3_2g" transform="matrix(12,0,0,12,590.5,114.1)" />
<use xlink:href="#f3_2g" transform="matrix(12,0,0,12,600.1,114.1)" />
<use xlink:href="#f3_24" transform="matrix(12,0,0,12,605.6,114.1)" />
<use xlink:href="#f3_21" transform="matrix(12,0,0,12,614.4,114.1)" />
<use xlink:href="#f3_2g" transform="matrix(12,0,0,12,627.3,114.1)" />
<use xlink:href="#f3_25" transform="matrix(12,0,0,12,632.7,114.1)" />
<use xlink:href="#f3_29" transform="matrix(12,0,0,12,637.5,114.1)" />
<use xlink:href="#f3_21" transform="matrix(12,0,0,12,651.4,114.1)" />
<use xlink:href="#f3_2b" transform="matrix(12,0,0,12,664.3,114.1)" />
<use xlink:href="#f3_22" transform="matrix(12,0,0,12,673.8,114.1)" />
<use xlink:href="#f3_29" transform="matrix(12,0,0,12,684.5,114.1)" />
<use xlink:href="#f3_1x" transform="matrix(12,0,0,12,698.1,114.1)" />
<use xlink:href="#f3_2g" transform="matrix(12,0,0,12,706.1,114.1)" />
<use xlink:href="#f3_2h" transform="matrix(12,0,0,12,711.6,114.1)" />
<use xlink:href="#f3_2e" transform="matrix(12,0,0,12,720.8,114.1)" />
<use xlink:href="#f3_25" transform="matrix(12,0,0,12,727.4,114.1)" />
<use xlink:href="#f3_2g" transform="matrix(12,0,0,12,731.8,114.1)" />
<use xlink:href="#f3_2l" transform="matrix(12,0,0,12,737.6,114.1)" />
<use xlink:href="#f3_2b" transform="matrix(12,0,0,12,750.8,114.1)" />
<use xlink:href="#f3_22" transform="matrix(12,0,0,12,760.3,114.1)" />
<use xlink:href="#f3_2g" transform="matrix(12,0,0,12,770.5,114.1)" />
<use xlink:href="#f3_24" transform="matrix(12,0,0,12,776,114.1)" />
<use xlink:href="#f3_21" transform="matrix(12,0,0,12,784.8,114.1)" />
<use xlink:href="#f3_1x" transform="matrix(12,0,0,12,797.6,114.1)" />
<use xlink:href="#f3_2a" transform="matrix(12,0,0,12,805.7,114.1)" />
<use xlink:href="#f3_2g" transform="matrix(12,0,0,12,814.5,114.1)" />
<use xlink:href="#f3_24" transform="matrix(12,0,0,12,820,114.1)" />
<use xlink:href="#f3_21" transform="matrix(12,0,0,12,828.8,114.1)" />
<use xlink:href="#f3_2e" transform="matrix(12,0,0,12,836.9,114.1)" />
<use xlink:href="#f3_i" transform="matrix(12,0,0,12,843.7,114.1)" />
</g>
<path fill-rule="evenodd" d="M103.1,117.7H210.2v-1.8H103.1v1.8Z" class="g1_18" />
<path fill-rule="evenodd" d="M73.4,139.4H857.2V118.1H73.4v21.3Z" class="g0_18" />
<g fill="#1F3331" >
<use xlink:href="#f0_3d" transform="matrix(10.1,0,0,10.1,75.6,135.3)" />
<use xlink:href="#f1_1k" transform="matrix(12,0,0,12,103.1,135.3)" />
<use xlink:href="#f1_1x" transform="matrix(12,0,0,12,115.2,135.3)" />
<use xlink:href="#f1_2c" transform="matrix(12,0,0,12,124.3,135.3)" />
<use xlink:href="#f1_21" transform="matrix(12,0,0,12,134.6,135.3)" />
<use xlink:href="#f1_2g" transform="matrix(12,0,0,12,142.7,135.3)" />
<use xlink:href="#f1_2h" transform="matrix(12,0,0,12,148.9,135.3)" />
<use xlink:href="#f1_29" transform="matrix(12,0,0,12,159.1,135.3)" />
<use xlink:href="#f2_4y" transform="matrix(12,0,0,12,179,135.3)" />
</g>
<path fill-rule="evenodd" d="M103.1,139h71.1v-1.8H103.1V139Z" class="g1_18" />
<path fill-rule="evenodd" d="M128.4,181.9H857.2V160.6H128.4v21.3Z" class="g0_18" />
<g fill="#1F3331" >
<use xlink:href="#f3_1x" transform="matrix(12,0,0,12,130.6,177.5)" />
<use xlink:href="#f3_d" transform="matrix(12,0,0,12,138.6,177.5)" />
<use xlink:href="#f3_19" transform="matrix(12,0,0,12,158.1,177.5)" />
<use xlink:href="#f3_2a" transform="matrix(12,0,0,12,164.3,177.5)" />
<use xlink:href="#f3_2a" transform="matrix(12,0,0,12,173.5,177.5)" />
<use xlink:href="#f3_21" transform="matrix(12,0,0,12,182.3,177.5)" />
<use xlink:href="#f3_2e" transform="matrix(12,0,0,12,190.4,177.5)" />
<use xlink:href="#f3_29" transform="matrix(12,0,0,12,197,177.5)" />
<use xlink:href="#f3_2b" transform="matrix(12,0,0,12,210.5,177.5)" />
<use xlink:href="#f3_2f" transform="matrix(12,0,0,12,220,177.5)" />
<use xlink:href="#f3_2g" transform="matrix(12,0,0,12,227,177.5)" />
<use xlink:href="#f3_28" transform="matrix(12,0,0,12,237.2,177.5)" />
<use xlink:href="#f3_1x" transform="matrix(12,0,0,12,241.6,177.5)" />
<use xlink:href="#f3_2l" transform="matrix(12,0,0,12,250.1,177.5)" />
<use xlink:href="#f3_21" transform="matrix(12,0,0,12,258.9,177.5)" />
<use xlink:href="#f3_2e" transform="matrix(12,0,0,12,266.9,177.5)" />
<use xlink:href="#f3_2b" transform="matrix(12,0,0,12,277.9,177.5)" />
<use xlink:href="#f3_22" transform="matrix(12,0,0,12,287.4,177.5)" />
<use xlink:href="#f3_1x" transform="matrix(12,0,0,12,297.6,177.5)" />
<use xlink:href="#f3_2a" transform="matrix(12,0,0,12,306.1,177.5)" />
<use xlink:href="#f3_2g" transform="matrix(12,0,0,12,314.9,177.5)" />
<use xlink:href="#f3_24" transform="matrix(12,0,0,12,320.3,177.5)" />
<use xlink:href="#f3_21" transform="matrix(12,0,0,12,329.1,177.5)" />
<use xlink:href="#f3_2e" transform="matrix(12,0,0,12,337.2,177.5)" />
<use xlink:href="#f3_2j" transform="matrix(12,0,0,12,348.2,177.5)" />
<use xlink:href="#f3_1x" transform="matrix(12,0,0,12,361.4,177.5)" />
<use xlink:href="#f3_28" transform="matrix(12,0,0,12,369.8,177.5)" />
<use xlink:href="#f3_28" transform="matrix(12,0,0,12,374.6,177.5)" />
<use xlink:href="#f3_2f" transform="matrix(12,0,0,12,384.4,177.5)" />
<use xlink:href="#f3_2h" transform="matrix(12,0,0,12,391.4,177.5)" />
<use xlink:href="#f3_2e" transform="matrix(12,0,0,12,400.6,177.5)" />
<use xlink:href="#f3_2e" transform="matrix(12,0,0,12,406.8,177.5)" />
<use xlink:href="#f3_2b" transform="matrix(12,0,0,12,413,177.5)" />
<use xlink:href="#f3_2h" transform="matrix(12,0,0,12,422.5,177.5)" />
<use xlink:href="#f3_2a" transform="matrix(12,0,0,12,431.7,177.5)" />
<use xlink:href="#f3_20" transform="matrix(12,0,0,12,440.5,177.5)" />
<use xlink:href="#f3_25" transform="matrix(12,0,0,12,450,177.5)" />
<use xlink:href="#f3_2a" transform="matrix(12,0,0,12,454.7,177.5)" />
<use xlink:href="#f3_23" transform="matrix(12,0,0,12,463.5,177.5)" />
<use xlink:href="#f3_2g" transform="matrix(12,0,0,12,477.6,177.5)" />
<use xlink:href="#f3_24" transform="matrix(12,0,0,12,483.1,177.5)" />
<use xlink:href="#f3_21" transform="matrix(12,0,0,12,491.9,177.5)" />
<use xlink:href="#f3_2f" transform="matrix(12,0,0,12,504.7,177.5)" />
<use xlink:href="#f3_2c" transform="matrix(12,0,0,12,511.6,177.5)" />
<use xlink:href="#f3_2b" transform="matrix(12,0,0,12,520.8,177.5)" />
<use xlink:href="#f3_2e" transform="matrix(12,0,0,12,530.3,177.5)" />
<use xlink:href="#f3_2b" transform="matrix(12,0,0,12,536.5,177.5)" />
<use xlink:href="#f3_23" transform="matrix(12,0,0,12,546.1,177.5)" />
<use xlink:href="#f3_21" transform="matrix(12,0,0,12,555.2,177.5)" />
<use xlink:href="#f3_2a" transform="matrix(12,0,0,12,563.3,177.5)" />
<use xlink:href="#f3_2b" transform="matrix(12,0,0,12,572.1,177.5)" />
<use xlink:href="#f3_2h" transform="matrix(12,0,0,12,581.6,177.5)" />
<use xlink:href="#f3_2f" transform="matrix(12,0,0,12,590.8,177.5)" />
<use xlink:href="#f3_2g" transform="matrix(12,0,0,12,602.1,177.5)" />
<use xlink:href="#f3_25" transform="matrix(12,0,0,12,607.6,177.5)" />
<use xlink:href="#f3_2f" transform="matrix(12,0,0,12,612,177.5)" />
<use xlink:href="#f3_2f" transform="matrix(12,0,0,12,619,177.5)" />
<use xlink:href="#f3_2h" transform="matrix(12,0,0,12,626,177.5)" />
<use xlink:href="#f3_21" transform="matrix(12,0,0,12,635.5,177.5)" />
<use xlink:href="#f3_i" transform="matrix(12,0,0,12,643.5,177.5)" />
</g>
<path fill-rule="evenodd" d="M128.4,202.8H857.2V181.9H128.4v20.9Z" class="g0_18" />
<g fill="#1F3331" >
<use xlink:href="#f3_1y" transform="matrix(12,0,0,12,130.6,198.8)" />
<use xlink:href="#f3_d" transform="matrix(12,0,0,12,139.4,198.8)" />
<use xlink:href="#f3_1k" transform="matrix(12,0,0,12,158.1,198.8)" />
<use xlink:href="#f3_1x" transform="matrix(12,0,0,12,169.5,198.8)" />
<use xlink:href="#f3_2c" transform="matrix(12,0,0,12,177.5,198.8)" />
<use xlink:href="#f3_21" transform="matrix(12,0,0,12,186.7,198.8)" />
<use xlink:href="#f3_2g" transform="matrix(12,0,0,12,194.8,198.8)" />
<use xlink:href="#f3_1x" transform="matrix(12,0,0,12,200.2,198.8)" />
<use xlink:href="#f3_28" transform="matrix(12,0,0,12,208.3,198.8)" />
<use xlink:href="#f3_1z" transform="matrix(12,0,0,12,217.5,198.8)" />
<use xlink:href="#f3_21" transform="matrix(12,0,0,12,225.5,198.8)" />
<use xlink:href="#f3_28" transform="matrix(12,0,0,12,233.9,198.8)" />
<use xlink:href="#f3_28" transform="matrix(12,0,0,12,239,198.8)" />
<use xlink:href="#f3_2f" transform="matrix(12,0,0,12,243.8,198.8)" />
<use xlink:href="#f3_1x" transform="matrix(12,0,0,12,255.6,198.8)" />
<use xlink:href="#f3_2e" transform="matrix(12,0,0,12,263.6,198.8)" />
<use xlink:href="#f3_21" transform="matrix(12,0,0,12,269.8,198.8)" />
<use xlink:href="#f3_2a" transform="matrix(12,0,0,12,282.6,198.8)" />
<use xlink:href="#f3_2h" transform="matrix(12,0,0,12,291.4,198.8)" />
<use xlink:href="#f3_2g" transform="matrix(12,0,0,12,300.6,198.8)" />
<use xlink:href="#f3_2e" transform="matrix(12,0,0,12,306.1,198.8)" />
<use xlink:href="#f3_25" transform="matrix(12,0,0,12,312.3,198.8)" />
<use xlink:href="#f3_2g" transform="matrix(12,0,0,12,316.7,198.8)" />
<use xlink:href="#f3_25" transform="matrix(12,0,0,12,322.6,198.8)" />
<use xlink:href="#f3_2i" transform="matrix(12,0,0,12,327.3,198.8)" />
<use xlink:href="#f3_21" transform="matrix(12,0,0,12,336.1,198.8)" />
<use xlink:href="#f3_i" transform="matrix(12,0,0,12,344.2,198.8)" />
</g>
<path fill-rule="evenodd" d="M128.4,224.1H857.2V202.8H128.4v21.3Z" class="g0_18" />
<g fill="#1F3331" >
<use xlink:href="#f3_1z" transform="matrix(12,0,0,12,130.6,219.7)" />
<use xlink:href="#f3_d" transform="matrix(12,0,0,12,138.6,219.7)" />
<use xlink:href="#f3_1k" transform="matrix(12,0,0,12,158.1,219.7)" />
<use xlink:href="#f3_24" transform="matrix(12,0,0,12,169.5,219.7)" />
<use xlink:href="#f3_21" transform="matrix(12,0,0,12,178.3,219.7)" />
<use xlink:href="#f3_2l" transform="matrix(12,0,0,12,186.7,219.7)" />
<use xlink:href="#f3_1x" transform="matrix(12,0,0,12,199.9,219.7)" />
<use xlink:href="#f3_2e" transform="matrix(12,0,0,12,207.9,219.7)" />
<use xlink:href="#f3_21" transform="matrix(12,0,0,12,214.1,219.7)" />
<use xlink:href="#f3_29" transform="matrix(12,0,0,12,227.4,219.7)" />
<use xlink:href="#f3_2h" transform="matrix(12,0,0,12,241.4,219.7)" />
<use xlink:href="#f3_28" transform="matrix(12,0,0,12,250.9,219.7)" />
<use xlink:href="#f3_2g" transform="matrix(12,0,0,12,255.3,219.7)" />
<use xlink:href="#f3_25" transform="matrix(12,0,0,12,261.1,219.7)" />
<use xlink:href="#f3_2a" transform="matrix(12,0,0,12,265.9,219.7)" />
<use xlink:href="#f3_2h" transform="matrix(12,0,0,12,274.7,219.7)" />
<use xlink:href="#f3_1z" transform="matrix(12,0,0,12,283.9,219.7)" />
<use xlink:href="#f3_28" transform="matrix(12,0,0,12,292.3,219.7)" />
<use xlink:href="#f3_21" transform="matrix(12,0,0,12,297.1,219.7)" />
<use xlink:href="#f3_1x" transform="matrix(12,0,0,12,305.5,219.7)" />
<use xlink:href="#f3_2g" transform="matrix(12,0,0,12,313.5,219.7)" />
<use xlink:href="#f3_21" transform="matrix(12,0,0,12,319,219.7)" />
<use xlink:href="#f3_20" transform="matrix(12,0,0,12,327.1,219.7)" />
<use xlink:href="#f3_1x" transform="matrix(12,0,0,12,341,219.7)" />
<use xlink:href="#f3_2a" transform="matrix(12,0,0,12,349.1,219.7)" />
<use xlink:href="#f3_20" transform="matrix(12,0,0,12,357.9,219.7)" />
<use xlink:href="#f3_2c" transform="matrix(12,0,0,12,371.8,219.7)" />
<use xlink:href="#f3_2b" transform="matrix(12,0,0,12,380.9,219.7)" />
<use xlink:href="#f3_28" transform="matrix(12,0,0,12,390.5,219.7)" />
<use xlink:href="#f3_2l" transform="matrix(12,0,0,12,395.2,219.7)" />
<use xlink:href="#f3_2c" transform="matrix(12,0,0,12,404,219.7)" />
<use xlink:href="#f3_28" transform="matrix(12,0,0,12,413.5,219.7)" />
<use xlink:href="#f3_2b" transform="matrix(12,0,0,12,417.9,219.7)" />
<use xlink:href="#f3_25" transform="matrix(12,0,0,12,427.8,219.7)" />
<use xlink:href="#f3_20" transform="matrix(12,0,0,12,432.6,219.7)" />
<use xlink:href="#f3_i" transform="matrix(12,0,0,12,442,219.7)" />
</g>
<path fill-rule="evenodd" d="M128.4,245H857.2V224.1H128.4V245Z" class="g0_18" />
<g fill="#1F3331" >
<use xlink:href="#f3_20" transform="matrix(12,0,0,12,130.6,241)" />
<use xlink:href="#f3_d" transform="matrix(12,0,0,12,139.7,241)" />
<use xlink:href="#f3_1k" transform="matrix(12,0,0,12,158.1,241)" />
<use xlink:href="#f3_24" transform="matrix(12,0,0,12,169.5,241)" />
<use xlink:href="#f3_21" transform="matrix(12,0,0,12,178.3,241)" />
<use xlink:href="#f3_2h" transform="matrix(12,0,0,12,191.1,241)" />
<use xlink:href="#f3_1y" transform="matrix(12,0,0,12,200.3,241)" />
<use xlink:href="#f3_25" transform="matrix(12,0,0,12,209.4,241)" />
<use xlink:href="#f3_2f" transform="matrix(12,0,0,12,214.2,241)" />
<use xlink:href="#f3_1z" transform="matrix(12,0,0,12,221.5,241)" />
<use xlink:href="#f3_24" transform="matrix(12,0,0,12,229.9,241)" />
<use xlink:href="#f3_1y" transform="matrix(12,0,0,12,243.5,241)" />
<use xlink:href="#f3_2b" transform="matrix(12,0,0,12,252.3,241)" />
<use xlink:href="#f3_20" transform="matrix(12,0,0,12,261.8,241)" />
<use xlink:href="#f3_25" transform="matrix(12,0,0,12,271.3,241)" />
<use xlink:href="#f3_21" transform="matrix(12,0,0,12,275.7,241)" />
<use xlink:href="#f3_2f" transform="matrix(12,0,0,12,284.1,241)" />
<use xlink:href="#f3_1x" transform="matrix(12,0,0,12,296,241)" />
<use xlink:href="#f3_2e" transform="matrix(12,0,0,12,304.1,241)" />
<use xlink:href="#f3_21" transform="matrix(12,0,0,12,310.3,241)" />
<use xlink:href="#f3_20" transform="matrix(12,0,0,12,323.2,241)" />
<use xlink:href="#f3_21" transform="matrix(12,0,0,12,332.4,241)" />
<use xlink:href="#f3_2c" transform="matrix(12,0,0,12,340.4,241)" />
<use xlink:href="#f3_2b" transform="matrix(12,0,0,12,349.6,241)" />
<use xlink:href="#f3_2f" transform="matrix(12,0,0,12,359.1,241)" />
<use xlink:href="#f3_25" transform="matrix(12,0,0,12,366.1,241)" />
<use xlink:href="#f3_2g" transform="matrix(12,0,0,12,370.5,241)" />
<use xlink:href="#f3_21" transform="matrix(12,0,0,12,375.9,241)" />
<use xlink:href="#f3_20" transform="matrix(12,0,0,12,384,241)" />
<use xlink:href="#f3_25" transform="matrix(12,0,0,12,398.3,241)" />
<use xlink:href="#f3_2a" transform="matrix(12,0,0,12,403.1,241)" />
<use xlink:href="#f3_2g" transform="matrix(12,0,0,12,416.7,241)" />
<use xlink:href="#f3_24" transform="matrix(12,0,0,12,422.1,241)" />
<use xlink:href="#f3_21" transform="matrix(12,0,0,12,430.9,241)" />
<use xlink:href="#f3_21" transform="matrix(12,0,0,12,443.8,241)" />
<use xlink:href="#f3_2k" transform="matrix(12,0,0,12,451.8,241)" />
<use xlink:href="#f3_25" transform="matrix(12,0,0,12,461,241)" />
<use xlink:href="#f3_2a" transform="matrix(12,0,0,12,465.8,241)" />
<use xlink:href="#f3_21" transform="matrix(12,0,0,12,474.9,241)" />
<use xlink:href="#f3_2b" transform="matrix(12,0,0,12,487.7,241)" />
<use xlink:href="#f3_22" transform="matrix(12,0,0,12,497.3,241)" />
<use xlink:href="#f3_29" transform="matrix(12,0,0,12,507.9,241)" />
<use xlink:href="#f3_25" transform="matrix(12,0,0,12,522.1,241)" />
<use xlink:href="#f3_1z" transform="matrix(12,0,0,12,527.3,241)" />
<use xlink:href="#f3_2e" transform="matrix(12,0,0,12,535.4,241)" />
<use xlink:href="#f3_2b" transform="matrix(12,0,0,12,541.6,241)" />
<use xlink:href="#f3_2f" transform="matrix(12,0,0,12,551.1,241)" />
<use xlink:href="#f3_2c" transform="matrix(12,0,0,12,558.3,241)" />
<use xlink:href="#f3_2b" transform="matrix(12,0,0,12,567.1,241)" />
<use xlink:href="#f3_2e" transform="matrix(12,0,0,12,576.6,241)" />
<use xlink:href="#f3_21" transform="matrix(12,0,0,12,582.8,241)" />
<use xlink:href="#f3_2j" transform="matrix(12,0,0,12,595.7,241)" />
<use xlink:href="#f3_1x" transform="matrix(12,0,0,12,609,241)" />
<use xlink:href="#f3_28" transform="matrix(12,0,0,12,617,241)" />
<use xlink:href="#f3_28" transform="matrix(12,0,0,12,621.8,241)" />
<use xlink:href="#f3_i" transform="matrix(12,0,0,12,626.2,241)" />
</g>
<path fill-rule="evenodd" d="M191.1,243.5H291.2v-.7H191.1v.7Z" class="g1_18" />
<path fill-rule="evenodd" d="M128.4,266.3H857.2V245H128.4v21.3Z" class="g0_18" />
<g fill="#1F3331" >
<use xlink:href="#f3_21" transform="matrix(12,0,0,12,130.6,261.9)" />
<use xlink:href="#f3_d" transform="matrix(12,0,0,12,138.6,261.9)" />
<use xlink:href="#f3_1k" transform="matrix(12,0,0,12,158.1,261.9)" />
<use xlink:href="#f3_24" transform="matrix(12,0,0,12,169.5,261.9)" />
<use xlink:href="#f3_21" transform="matrix(12,0,0,12,178.3,261.9)" />
<use xlink:href="#f3_2g" transform="matrix(12,0,0,12,191.1,261.9)" />
<use xlink:href="#f3_1x" transform="matrix(12,0,0,12,196.6,261.9)" />
<use xlink:href="#f3_2c" transform="matrix(12,0,0,12,204.6,261.9)" />
<use xlink:href="#f3_21" transform="matrix(12,0,0,12,213.8,261.9)" />
<use xlink:href="#f3_2g" transform="matrix(12,0,0,12,221.5,261.9)" />
<use xlink:href="#f3_2h" transform="matrix(12,0,0,12,227,261.9)" />
<use xlink:href="#f3_29" transform="matrix(12,0,0,12,236.1,261.9)" />
<use xlink:href="#f3_25" transform="matrix(12,0,0,12,254.8,261.9)" />
<use xlink:href="#f3_2f" transform="matrix(12,0,0,12,259.6,261.9)" />
<use xlink:href="#f3_2b" transform="matrix(12,0,0,12,271.3,261.9)" />
<use xlink:href="#f3_22" transform="matrix(12,0,0,12,280.8,261.9)" />
<use xlink:href="#f3_2g" transform="matrix(12,0,0,12,291.1,261.9)" />
<use xlink:href="#f3_2j" transform="matrix(12,0,0,12,296.5,261.9)" />
<use xlink:href="#f3_2b" transform="matrix(12,0,0,12,309.8,261.9)" />
<use xlink:href="#f3_2g" transform="matrix(12,0,0,12,323.3,261.9)" />
<use xlink:href="#f3_2l" transform="matrix(12,0,0,12,328.8,261.9)" />
<use xlink:href="#f3_2c" transform="matrix(12,0,0,12,337.2,261.9)" />
<use xlink:href="#f3_21" transform="matrix(12,0,0,12,346.4,261.9)" />
<use xlink:href="#f3_2f" transform="matrix(12,0,0,12,354.8,261.9)" />
<use xlink:href="#f3_u" transform="matrix(12,0,0,12,361.8,261.9)" />
<use xlink:href="#f3_h" transform="matrix(12,0,0,12,367.2,261.9)" />
</g>
<path fill-rule="evenodd" d="M155.9,287.2H857.2V266.3H155.9v20.9Z" class="g0_18" />
<g fill="#1F3331" >
<use xlink:href="#f1_c" transform="matrix(12,0,0,12,162.9,283.1)" />
<use xlink:href="#f1_25" transform="matrix(12,0,0,12,169.1,283.1)" />
<use xlink:href="#f1_d" transform="matrix(12,0,0,12,174.2,283.1)" />
<use xlink:href="#f1_1j" transform="matrix(12,0,0,12,186.7,283.1)" />
<use xlink:href="#f1_21" transform="matrix(12,0,0,12,196.9,283.1)" />
<use xlink:href="#f1_1z" transform="matrix(12,0,0,12,205,283.1)" />
<use xlink:href="#f1_2e" transform="matrix(12,0,0,12,213,283.1)" />
<use xlink:href="#f1_21" transform="matrix(12,0,0,12,220.7,283.1)" />
<use xlink:href="#f1_2g" transform="matrix(12,0,0,12,228.8,283.1)" />
<use xlink:href="#f1_1x" transform="matrix(12,0,0,12,235,283.1)" />
<use xlink:href="#f1_2e" transform="matrix(12,0,0,12,244.5,283.1)" />
<use xlink:href="#f1_2l" transform="matrix(12,0,0,12,252.2,283.1)" />
<use xlink:href="#f1_j" transform="matrix(12,0,0,12,268,283.1)" />
<use xlink:href="#f1_23" transform="matrix(12,0,0,12,279.7,283.1)" />
<use xlink:href="#f1_28" transform="matrix(12,0,0,12,288.9,283.1)" />
<use xlink:href="#f1_1x" transform="matrix(12,0,0,12,293.6,283.1)" />
<use xlink:href="#f1_2a" transform="matrix(12,0,0,12,302.8,283.1)" />
<use xlink:href="#f1_20" transform="matrix(12,0,0,12,313,283.1)" />
<use xlink:href="#f1_2h" transform="matrix(12,0,0,12,323.3,283.1)" />
<use xlink:href="#f1_28" transform="matrix(12,0,0,12,333.9,283.1)" />
<use xlink:href="#f1_1x" transform="matrix(12,0,0,12,338.7,283.1)" />
<use xlink:href="#f1_2e" transform="matrix(12,0,0,12,348.2,283.1)" />
<use xlink:href="#f2_4y" transform="matrix(12,0,0,12,362.8,283.1)" />
<use xlink:href="#f3_1k" transform="matrix(12,0,0,12,378.6,283.1)" />
<use xlink:href="#f3_24" transform="matrix(12,0,0,12,389.9,283.1)" />
<use xlink:href="#f3_21" transform="matrix(12,0,0,12,398.7,283.1)" />
<use xlink:href="#f3_2g" transform="matrix(12,0,0,12,413.3,283.1)" />
<use xlink:href="#f3_1x" transform="matrix(12,0,0,12,418.8,283.1)" />
<use xlink:href="#f3_2c" transform="matrix(12,0,0,12,426.9,283.1)" />
<use xlink:href="#f3_21" transform="matrix(12,0,0,12,436.1,283.1)" />
<use xlink:href="#f3_2g" transform="matrix(12,0,0,12,444.1,283.1)" />
<use xlink:href="#f3_1x" transform="matrix(12,0,0,12,449.6,283.1)" />
<use xlink:href="#f3_28" transform="matrix(12,0,0,12,457.7,283.1)" />
<use xlink:href="#f3_1z" transform="matrix(12,0,0,12,468.7,283.1)" />
<use xlink:href="#f3_21" transform="matrix(12,0,0,12,477.1,283.1)" />
<use xlink:href="#f3_28" transform="matrix(12,0,0,12,485.5,283.1)" />
<use xlink:href="#f3_28" transform="matrix(12,0,0,12,490.3,283.1)" />
<use xlink:href="#f3_2f" transform="matrix(12,0,0,12,495,283.1)" />
<use xlink:href="#f3_2e" transform="matrix(12,0,0,12,508.9,283.1)" />
<use xlink:href="#f3_21" transform="matrix(12,0,0,12,515.1,283.1)" />
<use xlink:href="#f3_29" transform="matrix(12,0,0,12,523.6,283.1)" />
<use xlink:href="#f3_1x" transform="matrix(12,0,0,12,537.5,283.1)" />
<use xlink:href="#f3_25" transform="matrix(12,0,0,12,545.9,283.1)" />
<use xlink:href="#f3_2a" transform="matrix(12,0,0,12,550.7,283.1)" />
<use xlink:href="#f4_25" transform="matrix(12,0,0,12,566.7,283.1)" />
<use xlink:href="#f4_2a" transform="matrix(12,0,0,12,571.8,283.1)" />
<use xlink:href="#f4_2f" transform="matrix(12,0,0,12,587.6,283.1)" />
<use xlink:href="#f4_25" transform="matrix(12,0,0,12,594.6,283.1)" />
<use xlink:href="#f4_2g" transform="matrix(12,0,0,12,599.7,283.1)" />
<use xlink:href="#f4_2h" transform="matrix(12,0,0,12,604.8,283.1)" />
<use xlink:href="#f3_1x" transform="matrix(12,0,0,12,620.7,283.1)" />
<use xlink:href="#f3_28" transform="matrix(12,0,0,12,629.1,283.1)" />
<use xlink:href="#f3_28" transform="matrix(12,0,0,12,634.2,283.1)" />
<use xlink:href="#f3_2g" transform="matrix(12,0,0,12,645.2,283.1)" />
<use xlink:href="#f3_24" transform="matrix(12,0,0,12,650.7,283.1)" />
<use xlink:href="#f3_2e" transform="matrix(12,0,0,12,659.5,283.1)" />
<use xlink:href="#f3_2b" transform="matrix(12,0,0,12,665.7,283.1)" />
<use xlink:href="#f3_2h" transform="matrix(12,0,0,12,675.3,283.1)" />
<use xlink:href="#f3_23" transform="matrix(12,0,0,12,684.4,283.1)" />
<use xlink:href="#f3_24" transform="matrix(12,0,0,12,693.6,283.1)" />
<use xlink:href="#f3_2g" transform="matrix(12,0,0,12,709,283.1)" />
<use xlink:href="#f3_24" transform="matrix(12,0,0,12,714.5,283.1)" />
<use xlink:href="#f3_21" transform="matrix(12,0,0,12,723.3,283.1)" />
<use xlink:href="#f3_20" transform="matrix(12,0,0,12,737.9,283.1)" />
<use xlink:href="#f3_21" transform="matrix(12,0,0,12,747.1,283.1)" />
<use xlink:href="#f3_2i" transform="matrix(12,0,0,12,755.5,283.1)" />
<use xlink:href="#f3_21" transform="matrix(12,0,0,12,764.3,283.1)" />
<use xlink:href="#f3_28" transform="matrix(12,0,0,12,772.7,283.1)" />
<use xlink:href="#f3_2b" transform="matrix(12,0,0,12,777.1,283.1)" />
<use xlink:href="#f3_2c" transform="matrix(12,0,0,12,786.6,283.1)" />
<use xlink:href="#f3_29" transform="matrix(12,0,0,12,796.1,283.1)" />
<use xlink:href="#f3_21" transform="matrix(12,0,0,12,810.1,283.1)" />
<use xlink:href="#f3_2a" transform="matrix(12,0,0,12,818.5,283.1)" />
<use xlink:href="#f3_2g" transform="matrix(12,0,0,12,827.3,283.1)" />
<use xlink:href="#f3_2b" transform="matrix(12,0,0,12,839.3,283.1)" />
<use xlink:href="#f3_22" transform="matrix(12,0,0,12,848.9,283.1)" />
</g>
<path fill-rule="evenodd" d="M162.9,286.8H356.2V285H162.9v1.8Z" class="g1_18" />
<path fill-rule="evenodd" d="M155.9,308.4H857.2V287.2H155.9v21.2Z" class="g0_18" />
<g fill="#1F3331" >
<use xlink:href="#f3_29" transform="matrix(12,0,0,12,158.1,304)" />
<use xlink:href="#f3_25" transform="matrix(12,0,0,12,172.4,304)" />
<use xlink:href="#f3_1z" transform="matrix(12,0,0,12,177.2,304)" />
<use xlink:href="#f3_2e" transform="matrix(12,0,0,12,185.2,304)" />
<use xlink:href="#f3_2b" transform="matrix(12,0,0,12,191.5,304)" />
<use xlink:href="#f3_2f" transform="matrix(12,0,0,12,201,304)" />
<use xlink:href="#f3_2c" transform="matrix(12,0,0,12,207.9,304)" />
<use xlink:href="#f3_2b" transform="matrix(12,0,0,12,217.1,304)" />
<use xlink:href="#f3_2e" transform="matrix(12,0,0,12,226.6,304)" />
<use xlink:href="#f3_21" transform="matrix(12,0,0,12,232.8,304)" />
<use xlink:href="#f3_1x" transform="matrix(12,0,0,12,245.4,304)" />
<use xlink:href="#f3_2a" transform="matrix(12,0,0,12,253.5,304)" />
<use xlink:href="#f3_20" transform="matrix(12,0,0,12,262.3,304)" />
<use xlink:href="#f3_22" transform="matrix(12,0,0,12,276.6,304)" />
<use xlink:href="#f3_25" transform="matrix(12,0,0,12,282.4,304)" />
<use xlink:href="#f3_2a" transform="matrix(12,0,0,12,287.2,304)" />
<use xlink:href="#f3_1x" transform="matrix(12,0,0,12,296.4,304)" />
<use xlink:href="#f3_28" transform="matrix(12,0,0,12,304.8,304)" />
<use xlink:href="#f3_28" transform="matrix(12,0,0,12,309.9,304)" />
<use xlink:href="#f3_2l" transform="matrix(12,0,0,12,315,304)" />
<use xlink:href="#f3_2g" transform="matrix(12,0,0,12,328.2,304)" />
<use xlink:href="#f3_24" transform="matrix(12,0,0,12,333.7,304)" />
<use xlink:href="#f3_21" transform="matrix(12,0,0,12,342.5,304)" />
<use xlink:href="#f3_2l" transform="matrix(12,0,0,12,350.9,304)" />
<use xlink:href="#f3_20" transform="matrix(12,0,0,12,364.5,304)" />
<use xlink:href="#f3_21" transform="matrix(12,0,0,12,373.6,304)" />
<use xlink:href="#f3_23" transform="matrix(12,0,0,12,381.7,304)" />
<use xlink:href="#f3_21" transform="matrix(12,0,0,12,390.9,304)" />
<use xlink:href="#f3_2a" transform="matrix(12,0,0,12,399.3,304)" />
<use xlink:href="#f3_21" transform="matrix(12,0,0,12,408.1,304)" />
<use xlink:href="#f3_2e" transform="matrix(12,0,0,12,416.1,304)" />
<use xlink:href="#f3_1x" transform="matrix(12,0,0,12,422.4,304)" />
<use xlink:href="#f3_2g" transform="matrix(12,0,0,12,430.4,304)" />
<use xlink:href="#f3_21" transform="matrix(12,0,0,12,435.9,304)" />
<use xlink:href="#f3_i" transform="matrix(12,0,0,12,444,304)" />
</g>
<path fill-rule="evenodd" d="M155.9,329.3H857.2V308.4H155.9v20.9Z" class="g0_18" />
<g fill="#1F3331" >
<use xlink:href="#f3_c" transform="matrix(12,0,0,12,158.1,325.3)" />
<use xlink:href="#f1_25" transform="matrix(12,0,0,12,164.3,325.3)" />
<use xlink:href="#f1_25" transform="matrix(12,0,0,12,169.4,325.3)" />
<use xlink:href="#f1_d" transform="matrix(12,0,0,12,174.6,325.3)" />
<use xlink:href="#f1_11" transform="matrix(12,0,0,12,185.6,325.3)" />
<use xlink:href="#f1_29" transform="matrix(12,0,0,12,198.8,325.3)" />
<use xlink:href="#f1_2b" transform="matrix(12,0,0,12,213.8,325.3)" />
<use xlink:href="#f1_21" transform="matrix(12,0,0,12,223,325.3)" />
<use xlink:href="#f1_1y" transform="matrix(12,0,0,12,231,325.3)" />
<use xlink:href="#f1_2b" transform="matrix(12,0,0,12,241.3,325.3)" />
<use xlink:href="#f1_25" transform="matrix(12,0,0,12,250.4,325.3)" />
<use xlink:href="#f1_20" transform="matrix(12,0,0,12,255.5,325.3)" />
<use xlink:href="#f1_j" transform="matrix(12,0,0,12,270.6,325.3)" />
<use xlink:href="#f1_2c" transform="matrix(12,0,0,12,280.1,325.3)" />
<use xlink:href="#f1_21" transform="matrix(12,0,0,12,290.3,325.3)" />
<use xlink:href="#f1_2e" transform="matrix(12,0,0,12,298.4,325.3)" />
<use xlink:href="#f1_25" transform="matrix(12,0,0,12,306.1,325.3)" />
<use xlink:href="#f1_2c" transform="matrix(12,0,0,12,311.2,325.3)" />
<use xlink:href="#f1_28" transform="matrix(12,0,0,12,321.5,325.3)" />
<use xlink:href="#f1_1x" transform="matrix(12,0,0,12,326.3,325.3)" />
<use xlink:href="#f1_2f" transform="matrix(12,0,0,12,335.8,325.3)" />
<use xlink:href="#f1_29" transform="matrix(12,0,0,12,343.1,325.3)" />
<use xlink:href="#f1_2b" transform="matrix(12,0,0,12,358.1,325.3)" />
<use xlink:href="#f1_20" transform="matrix(12,0,0,12,367.3,325.3)" />
<use xlink:href="#f1_25" transform="matrix(12,0,0,12,377.5,325.3)" />
<use xlink:href="#f1_1x" transform="matrix(12,0,0,12,382.6,325.3)" />
<use xlink:href="#f1_28" transform="matrix(12,0,0,12,391.8,325.3)" />
<use xlink:href="#f2_4y" transform="matrix(12,0,0,12,401.7,325.3)" />
<use xlink:href="#f3_1k" transform="matrix(12,0,0,12,415.6,325.3)" />
<use xlink:href="#f3_24" transform="matrix(12,0,0,12,427,325.3)" />
<use xlink:href="#f3_21" transform="matrix(12,0,0,12,435.8,325.3)" />
<use xlink:href="#f3_2g" transform="matrix(12,0,0,12,448.6,325.3)" />
<use xlink:href="#f3_1x" transform="matrix(12,0,0,12,454.1,325.3)" />
<use xlink:href="#f3_2c" transform="matrix(12,0,0,12,462.1,325.3)" />
<use xlink:href="#f3_21" transform="matrix(12,0,0,12,471.3,325.3)" />
<use xlink:href="#f3_2g" transform="matrix(12,0,0,12,479.4,325.3)" />
<use xlink:href="#f3_1x" transform="matrix(12,0,0,12,484.8,325.3)" />
<use xlink:href="#f3_28" transform="matrix(12,0,0,12,492.9,325.3)" />
<use xlink:href="#f3_1z" transform="matrix(12,0,0,12,502.1,325.3)" />
<use xlink:href="#f3_21" transform="matrix(12,0,0,12,510.5,325.3)" />
<use xlink:href="#f3_28" transform="matrix(12,0,0,12,518.9,325.3)" />
<use xlink:href="#f3_28" transform="matrix(12,0,0,12,523.7,325.3)" />
<use xlink:href="#f3_2f" transform="matrix(12,0,0,12,528.8,325.3)" />
<use xlink:href="#f3_1y" transform="matrix(12,0,0,12,540.5,325.3)" />
<use xlink:href="#f3_2e" transform="matrix(12,0,0,12,549.3,325.3)" />
<use xlink:href="#f3_21" transform="matrix(12,0,0,12,555.5,325.3)" />
<use xlink:href="#f3_1x" transform="matrix(12,0,0,12,563.6,325.3)" />
<use xlink:href="#f3_27" transform="matrix(12,0,0,12,571.7,325.3)" />
<use xlink:href="#f3_2g" transform="matrix(12,0,0,12,585.6,325.3)" />
<use xlink:href="#f3_24" transform="matrix(12,0,0,12,591,325.3)" />
<use xlink:href="#f3_2e" transform="matrix(12,0,0,12,599.8,325.3)" />
<use xlink:href="#f3_2b" transform="matrix(12,0,0,12,606.1,325.3)" />
<use xlink:href="#f3_2h" transform="matrix(12,0,0,12,615.6,325.3)" />
<use xlink:href="#f3_23" transform="matrix(12,0,0,12,624.7,325.3)" />
<use xlink:href="#f3_24" transform="matrix(12,0,0,12,633.9,325.3)" />
<use xlink:href="#f3_2g" transform="matrix(12,0,0,12,647.5,325.3)" />
<use xlink:href="#f3_24" transform="matrix(12,0,0,12,652.9,325.3)" />
<use xlink:href="#f3_21" transform="matrix(12,0,0,12,661.7,325.3)" />
<use xlink:href="#f3_2e" transform="matrix(12,0,0,12,674.6,325.3)" />
<use xlink:href="#f3_1x" transform="matrix(12,0,0,12,680.8,325.3)" />
<use xlink:href="#f3_20" transform="matrix(12,0,0,12,688.8,325.3)" />
<use xlink:href="#f3_25" transform="matrix(12,0,0,12,698.4,325.3)" />
<use xlink:href="#f3_1x" transform="matrix(12,0,0,12,702.8,325.3)" />
<use xlink:href="#f3_28" transform="matrix(12,0,0,12,711.2,325.3)" />
<use xlink:href="#f3_2j" transform="matrix(12,0,0,12,720.7,325.3)" />
<use xlink:href="#f3_1x" transform="matrix(12,0,0,12,733.9,325.3)" />
<use xlink:href="#f3_28" transform="matrix(12,0,0,12,742.3,325.3)" />
<use xlink:href="#f3_28" transform="matrix(12,0,0,12,747.4,325.3)" />
<use xlink:href="#f3_2g" transform="matrix(12,0,0,12,757.5,325.3)" />
<use xlink:href="#f3_2b" transform="matrix(12,0,0,12,762.6,325.3)" />
<use xlink:href="#f3_2e" transform="matrix(12,0,0,12,776.9,325.3)" />
<use xlink:href="#f3_21" transform="matrix(12,0,0,12,783.1,325.3)" />
<use xlink:href="#f3_28" transform="matrix(12,0,0,12,791.1,325.3)" />
<use xlink:href="#f3_21" transform="matrix(12,0,0,12,795.5,325.3)" />
<use xlink:href="#f3_1x" transform="matrix(12,0,0,12,803.6,325.3)" />
<use xlink:href="#f3_2f" transform="matrix(12,0,0,12,812,325.3)" />
<use xlink:href="#f3_21" transform="matrix(12,0,0,12,819,325.3)" />
<use xlink:href="#f3_2g" transform="matrix(12,0,0,12,831.9,325.3)" />
<use xlink:href="#f3_24" transform="matrix(12,0,0,12,837.4,325.3)" />
<use xlink:href="#f3_21" transform="matrix(12,0,0,12,846.6,325.3)" />
</g>
<path fill-rule="evenodd" d="M164.3,329H396.9v-1.9H164.3V329Z" class="g1_18" />
<path fill-rule="evenodd" d="M155.9,350.6H857.2V329.3H155.9v21.3Z" class="g0_18" />
<g fill="#1F3331" >
<use xlink:href="#f3_2c" transform="matrix(12,0,0,12,158.1,346.6)" />
<use xlink:href="#f3_2e" transform="matrix(12,0,0,12,167.3,346.6)" />
<use xlink:href="#f3_2b" transform="matrix(12,0,0,12,173.5,346.6)" />
<use xlink:href="#f3_2g" transform="matrix(12,0,0,12,182.7,346.6)" />
<use xlink:href="#f3_2b" transform="matrix(12,0,0,12,187.8,346.6)" />
<use xlink:href="#f3_2c" transform="matrix(12,0,0,12,197.3,346.6)" />
<use xlink:href="#f3_28" transform="matrix(12,0,0,12,206.5,346.6)" />
<use xlink:href="#f3_1x" transform="matrix(12,0,0,12,210.9,346.6)" />
<use xlink:href="#f3_2f" transform="matrix(12,0,0,12,218.9,346.6)" />
<use xlink:href="#f3_2g" transform="matrix(12,0,0,12,225.9,346.6)" />
<use xlink:href="#f3_25" transform="matrix(12,0,0,12,236.1,346.6)" />
<use xlink:href="#f3_2a" transform="matrix(12,0,0,12,240.9,346.6)" />
<use xlink:href="#f3_2g" transform="matrix(12,0,0,12,249.7,346.6)" />
<use xlink:href="#f3_2b" transform="matrix(12,0,0,12,255.2,346.6)" />
<use xlink:href="#f3_2g" transform="matrix(12,0,0,12,269.1,346.6)" />
<use xlink:href="#f3_24" transform="matrix(12,0,0,12,274.6,346.6)" />
<use xlink:href="#f3_21" transform="matrix(12,0,0,12,283.4,346.6)" />
<use xlink:href="#f3_2c" transform="matrix(12,0,0,12,296.2,346.6)" />
<use xlink:href="#f3_2b" transform="matrix(12,0,0,12,305,346.6)" />
<use xlink:href="#f3_28" transform="matrix(12,0,0,12,314.5,346.6)" />
<use xlink:href="#f3_28" transform="matrix(12,0,0,12,319.3,346.6)" />
<use xlink:href="#f3_21" transform="matrix(12,0,0,12,324,346.6)" />
<use xlink:href="#f3_2a" transform="matrix(12,0,0,12,332.5,346.6)" />
<use xlink:href="#f3_1z" transform="matrix(12,0,0,12,346,346.6)" />
<use xlink:href="#f3_24" transform="matrix(12,0,0,12,354.4,346.6)" />
<use xlink:href="#f3_1x" transform="matrix(12,0,0,12,363.2,346.6)" />
<use xlink:href="#f3_29" transform="matrix(12,0,0,12,371.6,346.6)" />
<use xlink:href="#f3_1y" transform="matrix(12,0,0,12,385.6,346.6)" />
<use xlink:href="#f3_21" transform="matrix(12,0,0,12,394.7,346.6)" />
<use xlink:href="#f3_2e" transform="matrix(12,0,0,12,402.8,346.6)" />
<use xlink:href="#f3_i" transform="matrix(12,0,0,12,409,346.6)" />
<use xlink:href="#f3_1k" transform="matrix(12,0,0,12,418.9,346.6)" />
<use xlink:href="#f3_24" transform="matrix(12,0,0,12,430.3,346.6)" />
<use xlink:href="#f3_21" transform="matrix(12,0,0,12,439.1,346.6)" />
<use xlink:href="#f3_2f" transform="matrix(12,0,0,12,447.1,346.6)" />
<use xlink:href="#f3_21" transform="matrix(12,0,0,12,454.1,346.6)" />
<use xlink:href="#f3_2c" transform="matrix(12,0,0,12,467,346.6)" />
<use xlink:href="#f3_2e" transform="matrix(12,0,0,12,476.1,346.6)" />
<use xlink:href="#f3_2b" transform="matrix(12,0,0,12,482.3,346.6)" />
<use xlink:href="#f3_2g" transform="matrix(12,0,0,12,491.5,346.6)" />
<use xlink:href="#f3_2b" transform="matrix(12,0,0,12,496.6,346.6)" />
<use xlink:href="#f3_2c" transform="matrix(12,0,0,12,506.1,346.6)" />
<use xlink:href="#f3_28" transform="matrix(12,0,0,12,515.3,346.6)" />
<use xlink:href="#f3_1x" transform="matrix(12,0,0,12,519.7,346.6)" />
<use xlink:href="#f3_2f" transform="matrix(12,0,0,12,528.1,346.6)" />
<use xlink:href="#f3_2g" transform="matrix(12,0,0,12,535.1,346.6)" />
<use xlink:href="#f3_2f" transform="matrix(12,0,0,12,540.7,346.6)" />
<use xlink:href="#f3_2a" transform="matrix(12,0,0,12,552.4,346.6)" />
<use xlink:href="#f3_2b" transform="matrix(12,0,0,12,561.2,346.6)" />
<use xlink:href="#f3_2j" transform="matrix(12,0,0,12,570.7,346.6)" />
<use xlink:href="#f3_22" transform="matrix(12,0,0,12,588.7,346.6)" />
<use xlink:href="#f3_2h" transform="matrix(12,0,0,12,594.2,346.6)" />
<use xlink:href="#f3_2f" transform="matrix(12,0,0,12,603.3,346.6)" />
<use xlink:href="#f3_21" transform="matrix(12,0,0,12,610.3,346.6)" />
<use xlink:href="#f3_2g" transform="matrix(12,0,0,12,623.1,346.6)" />
<use xlink:href="#f3_2b" transform="matrix(12,0,0,12,628.6,346.6)" />
<use xlink:href="#f3_22" transform="matrix(12,0,0,12,642.5,346.6)" />
<use xlink:href="#f3_2b" transform="matrix(12,0,0,12,648,346.6)" />
<use xlink:href="#f3_2e" transform="matrix(12,0,0,12,657.5,346.6)" />
<use xlink:href="#f3_29" transform="matrix(12,0,0,12,663.8,346.6)" />
<use xlink:href="#f3_2g" transform="matrix(12,0,0,12,682.1,346.6)" />
<use xlink:href="#f3_24" transform="matrix(12,0,0,12,687.5,346.6)" />
<use xlink:href="#f3_21" transform="matrix(12,0,0,12,696.3,346.6)" />
<use xlink:href="#f3_2c" transform="matrix(12,0,0,12,709.4,346.6)" />
<use xlink:href="#f3_21" transform="matrix(12,0,0,12,718.6,346.6)" />
<use xlink:href="#f3_2e" transform="matrix(12,0,0,12,726.7,346.6)" />
<use xlink:href="#f3_25" transform="matrix(12,0,0,12,733.2,346.6)" />
<use xlink:href="#f3_2c" transform="matrix(12,0,0,12,737.6,346.6)" />
<use xlink:href="#f3_28" transform="matrix(12,0,0,12,747.2,346.6)" />
<use xlink:href="#f3_1x" transform="matrix(12,0,0,12,751.9,346.6)" />
<use xlink:href="#f3_2f" transform="matrix(12,0,0,12,760.3,346.6)" />
<use xlink:href="#f3_29" transform="matrix(12,0,0,12,767.7,346.6)" />
<use xlink:href="#f3_2b" transform="matrix(12,0,0,12,781.2,346.6)" />
<use xlink:href="#f3_20" transform="matrix(12,0,0,12,790.7,346.6)" />
<use xlink:href="#f3_25" transform="matrix(12,0,0,12,800.2,346.6)" />
<use xlink:href="#f3_2h" transform="matrix(12,0,0,12,804.6,346.6)" />
<use xlink:href="#f3_29" transform="matrix(12,0,0,12,814.3,346.6)" />
<use xlink:href="#f3_i" transform="matrix(12,0,0,12,828.3,346.6)" />
</g>
<path fill-rule="evenodd" d="M709.4,349.2H828.3v-.8H709.4v.8Z" class="g1_18" />
<path fill-rule="evenodd" d="M128.4,863.3H857.2V371.9H128.4V863.3Z" class="g0_18" />
<image preserveAspectRatio="none" x="133" y="372" width="530" height="470" xlink:href="img/1.png" />
<g fill="#000000" >
<use xlink:href="#f5_n" transform="matrix(8,0,0,8,792.9,1264.1)" />
</g>
<defs>
<path d="M273,157c0,0,-114,0,-193,80C80,237,0,317,0,431c0,0,0,112,80,192c0,0,79,80,193,80c0,0,113,0,192,-80c0,0,80,-80,80,-192c0,0,0,-114,-80,-194c0,0,-79,-80,-192,-80Z" 
id="f0_3d"
transform="scale(0.001,-0.001)" />

<path d="M26,0V54L154,74V926L26,945v55H878V746H810L786,908c0,0,-83,10,-241,10H389V551H651l23,111h67V355H674L651,468H389V82H578c0,0,193,0,252,12l43,185h68L927,0Z" 
id="f1_15"
transform="scale(0.001,-0.001)" />

<path d="M41,0V49l69,18V634L41,652v49H313l11,-61l50,26c0,0,105,54,188,54c0,0,194,0,194,-207V67L827,49V0H478V49l63,18V484c0,0,0,63,-27,98c0,0,-26,35,-75,35c0,0,-57,0,-114,-25V67L389,49V0Z" 
id="f1_2a"
transform="scale(0.001,-0.001)" />

<path d="M416,68c0,0,60,0,124,32V628c0,0,-58,15,-118,15c0,0,-67,0,-104,-73c0,0,-38,-73,-38,-216c0,0,0,-139,36,-212c0,0,35,-74,100,-74ZM369,-14c0,0,-155,0,-231,88c0,0,-76,90,-76,274c0,0,0,182,82,277c0,0,81,95,236,95c0,0,82,0,165,-20c0,0,-5,24,-5,115V992l-72,18v50H756V67L833,49V0H562L547,40C547,40,505,13,483,4c0,0,-23,-7,-51,-12c0,0,-28,-6,-63,-6Z" 
id="f1_20"
transform="scale(0.001,-0.001)" />

<path d="M379,60c0,0,59,0,84,64c0,0,24,65,24,231c0,0,0,164,-24,227c0,0,-24,63,-84,63c0,0,-57,0,-80,-60c0,0,-22,-61,-22,-230c0,0,0,-173,23,-234c0,0,22,-61,79,-61Zm-2,-74c0,0,-161,0,-240,91c0,0,-79,91,-79,277c0,0,0,186,80,276c0,0,81,90,245,90c0,0,167,0,245,-93c0,0,78,-93,78,-273c0,0,0,-188,-81,-278c0,0,-81,-90,-248,-90Z" 
id="f1_2b"
transform="scale(0.001,-0.001)" />

<path d="M327,-14c0,0,-101,0,-156,45c0,0,-55,45,-55,131V624H25v48l108,29l87,159H332V701H480V624H332V176c0,0,0,-49,20,-73c0,0,20,-25,53,-25c0,0,40,0,97,12V26c0,0,-22,-15,-76,-27c0,0,-55,-13,-99,-13Z" 
id="f1_2g"
transform="scale(0.001,-0.001)" />

<path d="M41,0V49l69,18V992l-72,18v50H325V756c0,0,0,-49,-4,-116l51,26c0,0,106,54,190,54c0,0,194,0,194,-207V67L827,49V0H478V49l63,18V484c0,0,0,63,-27,98c0,0,-26,35,-75,35c0,0,-57,0,-114,-25V67L389,49V0Z" 
id="f1_24"
transform="scale(0.001,-0.001)" />

<path d="M434,423c0,0,0,101,-7,142c0,0,-6,40,-22,60c0,0,-16,19,-45,19c0,0,-44,0,-66,-48c0,0,-22,-49,-22,-173ZM389,-14c0,0,-172,0,-254,89c0,0,-83,90,-83,279c0,0,0,184,79,274c0,0,79,91,238,91c0,0,142,0,206,-76c0,0,64,-76,64,-237V345H271V333c0,0,0,-111,18,-158c0,0,18,-47,58,-72c0,0,40,-25,110,-25c0,0,66,0,166,22V42C623,42,582,18,517,1c0,0,-66,-15,-128,-15Z" 
id="f1_21"
transform="scale(0.001,-0.001)" />

<path d="M425,-14c0,0,-187,0,-280,90c0,0,-93,90,-93,276c0,0,0,115,42,198c0,0,43,82,121,126c0,0,78,44,182,44c0,0,104,0,227,-26V486H571L539,609c0,0,-25,19,-50,26c0,0,-24,7,-65,7c0,0,-44,0,-79,-35c0,0,-36,-35,-56,-98c0,0,-20,-64,-20,-153c0,0,0,-150,47,-214c0,0,47,-64,148,-64c0,0,103,0,176,21V42C640,42,606,15,547,0c0,0,-59,-14,-122,-14Z" 
id="f1_1z"
transform="scale(0.001,-0.001)" />

<path d="M34,0V49l76,18V634L38,652v49H325V67L402,49V0ZM217,831c0,0,-48,0,-81,33c0,0,-34,33,-34,82c0,0,0,48,34,81c0,0,34,33,81,33c0,0,48,0,81,-33c0,0,33,-33,33,-81c0,0,0,-47,-33,-81c0,0,-32,-34,-81,-34Z" 
id="f1_25"
transform="scale(0.001,-0.001)" />

<path d="M287,-18c0,0,-194,0,-194,206V634L23,652v49H309V217c0,0,0,-63,26,-98c0,0,27,-35,76,-35c0,0,57,0,113,25V634l-64,18v49H740V67L809,49V0H536L526,61L475,35c0,0,-104,-53,-188,-53Z" 
id="f1_2h"
transform="scale(0.001,-0.001)" />

<path d="M41,0V49l69,18V634L41,652v49H313l11,-61l50,26c0,0,105,54,188,54c0,0,125,0,167,-91c0,0,153,91,258,91c0,0,189,0,189,-207V67l71,-17V0H898V50l63,17V484c0,0,0,63,-24,98c0,0,-25,35,-74,35c0,0,-55,0,-119,-31c0,0,7,-32,7,-73V67L821,50V0H473V50l63,17V484c0,0,0,63,-25,98c0,0,-24,35,-73,35c0,0,-49,0,-113,-29V67L389,49V0Z" 
id="f1_29"
transform="scale(0.001,-0.001)" />

<path d="M-12,338v55H777V338Z" 
id="f2_4y"
transform="scale(0.001,-0.001)" />

<path d="M410,-14c0,0,-80,0,-162,14c0,0,-81,14,-144,38V270h48L178,134c0,0,28,-35,95,-62c0,0,68,-27,134,-27c0,0,104,0,163,53c0,0,58,54,58,148c0,0,0,54,-23,89c0,0,-22,35,-59,59c0,0,-37,24,-84,41c0,0,-47,17,-97,34c0,0,-49,17,-96,38c0,0,-47,21,-84,53c0,0,-37,32,-60,79c0,0,-23,48,-23,117c0,0,0,119,90,187c0,0,89,68,248,68c0,0,121,0,263,-32V771H654L628,893c0,0,-76,55,-188,55c0,0,-100,0,-156,-40c0,0,-56,-41,-56,-112c0,0,0,-49,22,-81c0,0,23,-32,60,-55c0,0,37,-22,84,-39c0,0,48,-16,97,-34c0,0,50,-17,97,-39c0,0,48,-22,85,-56c0,0,36,-34,59,-83c0,0,23,-49,23,-120c0,0,0,-145,-89,-224c0,0,-89,-79,-256,-79Z" 
id="f3_1j"
transform="scale(0.001,-0.001)" />

<path d="M32,0V33L151,52V649L52,668v33H275V52L395,33V0ZM201,850c0,0,-32,0,-56,24c0,0,-24,24,-24,56c0,0,0,34,24,58c0,0,24,24,56,24c0,0,34,0,58,-24c0,0,24,-24,24,-58c0,0,0,-32,-24,-56c0,0,-24,-24,-58,-24Z" 
id="f3_25"
transform="scale(0.001,-0.001)" />

<path d="M439,0V33l93,19V500c0,0,0,62,-30,97c0,0,-31,36,-94,36c0,0,-67,0,-165,-22V52L338,33V0H35V33l84,19V649L35,668v33H235l7,-57c0,0,57,33,122,54c0,0,65,22,108,22c0,0,91,0,137,-53c0,0,47,-53,47,-154V52L741,33V0Z" 
id="f3_2a"
transform="scale(0.001,-0.001)" />

<path d="M359,-270c0,0,124,0,192,46c0,0,67,47,67,129c0,0,0,43,-26,67c0,0,-26,24,-79,24H242c0,0,-32,-27,-51,-69c0,0,-20,-41,-20,-77c0,0,0,-64,46,-92c0,0,46,-28,142,-28Zm11,561c0,0,81,0,115,47c0,0,34,47,34,141c0,0,0,100,-35,142c0,0,-35,42,-113,42c0,0,-78,0,-114,-43c0,0,-37,-42,-37,-141c0,0,0,-98,36,-143c0,0,36,-45,114,-45ZM359,-329c0,0,-143,0,-218,44c0,0,-75,43,-75,125c0,0,0,39,27,78c0,0,26,38,98,89c0,0,-43,14,-72,48c0,0,-29,35,-29,74L208,262c0,0,-118,55,-118,217c0,0,0,115,73,178c0,0,73,63,211,63c0,0,28,0,71,-6c0,0,44,-6,67,-13l165,83l26,-32L599,644c0,0,50,-56,50,-165c0,0,0,-120,-72,-182c0,0,-73,-62,-208,-62c0,0,-62,0,-114,11L208,148c0,0,2,-13,29,-24c0,0,27,-12,67,-12H512c0,0,113,0,168,-49c0,0,55,-49,55,-134c0,0,0,-79,-44,-137c0,0,-43,-58,-128,-90c0,0,-84,-31,-204,-31Z" 
id="f3_23"
transform="scale(0.001,-0.001)" />

<path d="M31,0V33L150,52v956L31,1026v34H274V52L394,33V0Z" 
id="f3_28"
transform="scale(0.001,-0.001)" />

<path d="M495,413c0,0,0,133,-34,190c0,0,-34,57,-105,57c0,0,-78,0,-119,-63c0,0,-42,-62,-42,-184ZM374,-14c0,0,-163,0,-239,87c0,0,-75,88,-75,283c0,0,0,183,77,273c0,0,76,91,219,91c0,0,269,0,269,-306V353H194V340c0,0,0,-103,23,-160c0,0,22,-57,70,-87c0,0,47,-29,124,-29c0,0,40,0,96,6c0,0,55,7,91,15V43C598,43,562,20,500,3c0,0,-61,-17,-126,-17Z" 
id="f3_21"
transform="scale(0.001,-0.001)" />

<path d="M284,67c0,0,51,0,88,12c0,0,37,12,74,30V358l-98,-3c0,0,-100,-4,-135,-39c0,0,-35,-35,-35,-117c0,0,0,-132,106,-132ZM233,-14c0,0,-179,0,-179,208c0,0,0,70,27,116c0,0,27,46,87,70c0,0,60,24,173,27l105,3V519c0,0,0,72,-26,107c0,0,-27,34,-82,34c0,0,-75,0,-137,-35L176,538H134V691c0,0,121,26,213,26c0,0,115,0,169,-47c0,0,54,-47,54,-144V52L657,33V0H465L451,70c0,0,-85,-84,-218,-84Z" 
id="f3_1x"
transform="scale(0.001,-0.001)" />

<path d="M148,-329c0,0,-58,0,-114,13v151H69l24,-71c0,0,23,-17,64,-17c0,0,39,0,72,22c0,0,33,23,60,67c0,0,27,44,68,157L90,649L19,668v33H344V668L233,648L423,158L606,649L497,668v33H758V668L685,652L411,-43c0,0,-48,-124,-84,-177c0,0,-36,-54,-79,-82c0,0,-44,-27,-100,-27Z" 
id="f3_2l"
transform="scale(0.001,-0.001)" />

<path d="M31,0V33l88,19V649L31,668v33H235l7,-87c0,0,44,37,121,71c0,0,76,35,121,35h11V530H463l-43,82c0,0,-37,0,-88,-10c0,0,-52,-10,-89,-26V52L363,33V0Z" 
id="f3_2e"
transform="scale(0.001,-0.001)" />

<path d="M383,64c0,0,85,0,152,28V645c0,0,-67,13,-152,13c0,0,-194,0,-194,-314c0,0,0,-141,48,-211c0,0,48,-69,146,-69ZM342,-14c0,0,-287,0,-287,358c0,0,0,184,82,280c0,0,81,96,239,96c0,0,81,0,163,-18c0,0,-4,25,-4,124v182l-118,18v34H659V52L745,33V0H548l-9,52c0,0,-84,-66,-197,-66Z" 
id="f3_20"
transform="scale(0.001,-0.001)" />

<path d="M278,-14c0,0,-52,0,-115,11c0,0,-63,10,-99,23V193H98L134,95c0,0,56,-50,146,-50c0,0,144,0,144,123c0,0,0,91,-114,130l-66,21c0,0,-75,25,-110,50c0,0,-34,26,-53,63c0,0,-18,36,-18,89c0,0,0,92,63,145c0,0,63,54,170,54c0,0,77,0,193,-23V544H454l-32,81c0,0,-39,35,-124,35c0,0,-61,0,-92,-30c0,0,-32,-30,-32,-80c0,0,0,-43,29,-72c0,0,28,-29,86,-48c0,0,110,-38,144,-55c0,0,33,-17,57,-42c0,0,23,-25,36,-57c0,0,13,-32,13,-79c0,0,0,-104,-66,-158c0,0,-66,-53,-195,-53Z" 
id="f3_2f"
transform="scale(0.001,-0.001)" />

<path d="M399,-14c0,0,-341,0,-341,370c0,0,0,175,87,269c0,0,87,95,249,95c0,0,101,0,220,-23V501H573L541,625c0,0,-62,35,-149,35c0,0,-200,0,-200,-304c0,0,0,-158,61,-225c0,0,61,-67,189,-67c0,0,109,0,189,24V43C631,43,595,16,530,1c0,0,-64,-15,-131,-15Z" 
id="f3_1z"
transform="scale(0.001,-0.001)" />

<path d="M377,45c0,0,99,0,147,73c0,0,47,73,47,237c0,0,0,161,-47,233c0,0,-47,72,-147,72c0,0,-97,0,-141,-69c0,0,-44,-69,-44,-236c0,0,0,-169,45,-240c0,0,44,-70,140,-70Zm0,-59c0,0,-158,0,-238,94c0,0,-81,95,-81,274c0,0,0,178,81,272c0,0,80,94,244,94c0,0,160,0,241,-92c0,0,82,-92,82,-274c0,0,0,-368,-329,-368Z" 
id="f3_2b"
transform="scale(0.001,-0.001)" />

<path d="M327,-14L84,649L1,668v33H335V668L219,648L385,174L554,632h63L786,171L944,649L830,668v33h267V668l-78,-16L784,-14H726L553,448L382,-14Z" 
id="f3_2j"
transform="scale(0.001,-0.001)" />

<path d="M191,-20c0,0,-39,0,-65,25c0,0,-25,27,-25,64c0,0,0,38,26,64c0,0,26,26,64,26c0,0,38,0,64,-26c0,0,26,-26,26,-64c0,0,0,-37,-25,-64c0,0,-26,-25,-65,-25Z" 
id="f3_i"
transform="scale(0.001,-0.001)" />

<path d="M577,-14c0,0,-243,0,-379,132C198,118,63,250,63,488c0,0,0,258,130,391c0,0,131,132,387,132c0,0,156,0,335,-38l5,-218H871L848,884c0,0,-52,32,-121,50c0,0,-69,17,-141,17c0,0,-191,0,-279,-112c0,0,-88,-113,-88,-349c0,0,0,-217,92,-332c0,0,92,-115,268,-115c0,0,85,0,160,20c0,0,76,21,120,55l27,149h49L930,32c0,0,-164,-46,-353,-46Z" 
id="f3_13"
transform="scale(0.001,-0.001)" />

<path d="M442,0V33l93,19V504c0,0,0,129,-124,129c0,0,-70,0,-168,-22V52L338,33V0H31V33l88,19v956L15,1026v34H243V756c0,0,0,-77,-5,-112c0,0,54,31,122,53c0,0,68,23,115,23c0,0,91,0,137,-53c0,0,47,-53,47,-154V52L744,33V0Z" 
id="f3_24"
transform="scale(0.001,-0.001)" />

<path d="M360,-14L72,649L0,668v33H327V668L216,648L420,164L615,649L504,668v33H764V668L697,652L416,-14Z" 
id="f3_2i"
transform="scale(0.001,-0.001)" />

<path d="M289,-14c0,0,-179,0,-179,205V649L20,668v33H233V200c0,0,0,-128,120,-128c0,0,92,0,173,23V649L420,668v33H649V52L738,33V0H533l-6,57C527,57,474,28,405,7c0,0,-69,-21,-116,-21Z" 
id="f3_2h"
transform="scale(0.001,-0.001)" />

<path d="M249,-14c0,0,-71,0,-107,42c0,0,-35,42,-35,119V639H15v33l93,29l76,159h47V701H391V639H231V161c0,0,0,-48,22,-73c0,0,22,-24,57,-24c0,0,44,0,106,12V26C416,26,389,8,340,-2c0,0,-49,-12,-91,-12Z" 
id="f3_2g"
transform="scale(0.001,-0.001)" />

<path d="M477,0V33l64,19L348,354L257,254V52L331,33V0H44V33l89,19v956L29,1026v34H257V338L544,647l-73,20v34H718V667L631,650L431,446L688,50L764,33V0Z" 
id="f3_27"
transform="scale(0.001,-0.001)" />

<path d="M382,45c0,0,188,0,188,314c0,0,0,143,-47,213c0,0,-46,69,-141,69c0,0,-87,0,-146,-24V58c0,0,67,-13,146,-13ZM25,-325v35l88,18V649L34,668v33H231l1,-41c0,0,31,27,84,43c0,0,53,17,107,17c0,0,134,0,208,-94c0,0,73,-93,73,-267c0,0,0,-178,-80,-276c0,0,-80,-97,-232,-97c0,0,-84,0,-160,16c0,0,4,-53,4,-84V-272l123,-18v-35Z" 
id="f3_2c"
transform="scale(0.001,-0.001)" />

<path d="M55,0V40L184,60V941L55,960v40H455V960L327,941V60L455,40V0Z" 
id="f3_19"
transform="scale(0.001,-0.001)" />

<path d="M900,0V54l135,20V845L658,0H617L248,845V74L382,54V0H26V54L154,74V926L26,945v55H419L705,342l292,658h401V945L1270,926V74L1398,54V0Z" 
id="f1_1d"
transform="scale(0.001,-0.001)" />

<path d="M30,0V49l76,18V992l-72,18v50H322V67L398,49V0Z" 
id="f1_28"
transform="scale(0.001,-0.001)" />

<path d="M345,75c0,0,50,0,110,26V351l-63,-2c0,0,-72,-3,-100,-38c0,0,-28,-35,-28,-113c0,0,0,-63,22,-93c0,0,23,-30,59,-30ZM266,-14c0,0,-217,0,-217,208c0,0,0,79,32,126c0,0,32,48,93,71c0,0,60,22,190,25l91,2V521c0,0,0,126,-104,126c0,0,-62,0,-140,-39L183,521H134V691c0,0,112,17,165,21c0,0,53,5,108,5c0,0,264,0,264,-194V67L741,49V0H483L466,54C466,54,408,14,361,0c0,0,-47,-14,-95,-14Z" 
id="f1_1x"
transform="scale(0.001,-0.001)" />

<path d="M159,-329c0,0,-61,0,-123,14v180H81l32,-94c0,0,21,-17,55,-17c0,0,28,0,50,13c0,0,21,14,40,39c0,0,20,25,37,62c0,0,17,37,50,110L64,634L15,652v49H374V652L290,632L455,244L602,634l-82,18v49H749V652L698,637L421,-44c0,0,-47,-121,-83,-176c0,0,-36,-55,-80,-82c0,0,-43,-27,-99,-27Z" 
id="f1_2l"
transform="scale(0.001,-0.001)" />

<path d="M41,0V49l91,18V634L41,652v49H336l8,-145c0,0,80,89,144,128c0,0,64,40,117,40h40V468H604l-45,94c0,0,-47,0,-106,-21c0,0,-60,-20,-105,-48V67L460,49V0Z" 
id="f1_2e"
transform="scale(0.001,-0.001)" />

<path d="M276,-14c0,0,-57,0,-125,13C151,-1,83,10,48,23V214H97l28,-98c0,0,26,-26,69,-44c0,0,42,-17,86,-17c0,0,65,0,97,28c0,0,32,28,32,71c0,0,0,41,-31,65c0,0,-30,25,-133,57c0,0,-108,34,-154,92c0,0,-45,58,-45,143c0,0,0,95,71,152c0,0,71,57,183,57c0,0,77,0,207,-22V518H457l-24,82c0,0,-21,22,-60,35c0,0,-40,14,-75,14c0,0,-53,0,-79,-22c0,0,-26,-22,-26,-59c0,0,0,-40,32,-65c0,0,32,-26,132,-55c0,0,109,-34,155,-89c0,0,45,-55,45,-137c0,0,0,-117,-72,-177c0,0,-72,-59,-209,-59Z" 
id="f1_2f"
transform="scale(0.001,-0.001)" />

<path d="M448,506c0,0,134,0,190,49c0,0,57,50,57,168c0,0,0,114,-56,162c0,0,-56,48,-195,48H316V506ZM777,0L496,438H316V60L468,40V0H54V40L172,60V941L44,960v40H476c0,0,188,0,277,-63c0,0,90,-64,90,-204c0,0,0,-100,-54,-173c0,0,-55,-73,-151,-101L909,60L1017,40V0Z" 
id="f3_1i"
transform="scale(0.001,-0.001)" />

<path d="M64,0V34L168,59V639H47v36l121,29v49c0,0,0,155,61,239c0,0,62,84,173,84c0,0,58,0,107,-15V908H472l-33,92c0,0,-26,16,-62,16c0,0,-47,0,-66,-42c0,0,-19,-42,-19,-157V701H478V639H292V59L443,34V0Z" 
id="f3_22"
transform="scale(0.001,-0.001)" />

<path d="M431,0V33L535,52V499c0,0,0,62,-32,96c0,0,-32,33,-95,33c0,0,-66,0,-163,-22V52L350,33V0H32V33l89,19V649L32,668v33H237l6,-57c0,0,56,32,119,54c0,0,62,22,110,22c0,0,52,0,95,-20c0,0,44,-19,66,-62c0,0,57,32,134,57c0,0,77,25,128,25c0,0,179,0,179,-207V52l90,-19V0H846V33L950,52V499c0,0,0,129,-119,129c0,0,-19,0,-45,-3c0,0,-26,-3,-52,-7c0,0,-25,-4,-49,-8c0,0,-23,-5,-39,-8c0,0,13,-41,13,-89V52L764,33V0Z" 
id="f3_29"
transform="scale(0.001,-0.001)" />

<path d="M134,0V40L339,60V876L137,804v39l292,166h39V60L672,40V0Z" 
id="f3_l"
transform="scale(0.001,-0.001)" />

<path d="M57,302V417H454V302Z" 
id="f3_h"
transform="scale(0.001,-0.001)" />

<path d="M410,45c0,0,90,0,130,58c0,0,40,59,40,193c0,0,0,122,-38,177c0,0,-38,54,-122,54c0,0,-102,0,-217,-37c0,0,0,-227,51,-336c0,0,52,-109,156,-109Zm3,-59c0,0,-169,0,-258,131c0,0,-89,131,-89,377c0,0,0,161,47,278c0,0,47,117,131,178c0,0,85,61,196,61c0,0,109,0,217,-26V813H608L582,915c0,0,-25,13,-67,23c0,0,-41,10,-75,10c0,0,-109,0,-170,-105c0,0,-60,-106,-66,-308c0,0,121,63,244,63c0,0,132,0,201,-74c0,0,69,-74,69,-214c0,0,0,-156,-78,-240c0,0,-79,-84,-227,-84Z" 
id="f3_q"
transform="scale(0.001,-0.001)" />

<path d="M235,0V40L394,60V936H356c0,0,-189,0,-258,-15L78,766H28v234H908V766H857L837,921c0,0,-22,5,-98,9c0,0,-75,4,-165,4H538V60L697,40V0Z" 
id="f3_1k"
transform="scale(0.001,-0.001)" />

<path d="M231,0V54L390,74V921H352c0,0,-171,0,-240,-15L92,721H24v279H996V721H927L907,906c0,0,-62,14,-245,14H626V74L785,54V0Z" 
id="f1_1k"
transform="scale(0.001,-0.001)" />

<path d="M438,65c0,0,131,0,131,293c0,0,0,279,-130,279c0,0,-69,0,-127,-29V80c0,0,60,-15,126,-15ZM20,-325v50l76,18V634L19,652v49H304l1,-36c0,0,80,55,194,55c0,0,146,0,218,-86c0,0,71,-86,71,-271c0,0,0,-183,-83,-280c0,0,-83,-97,-238,-97c0,0,-79,0,-160,19c0,0,5,-48,5,-109V-257l103,-18v-50Z" 
id="f1_2c"
transform="scale(0.001,-0.001)" />

<path d="M49,-325v63c0,0,85,49,140,128c0,0,56,79,83,194c0,0,26,115,26,308c0,0,0,196,-25,305c0,0,-25,109,-79,190c0,0,-54,82,-145,134v63c0,0,149,-80,232,-172c0,0,83,-92,122,-217c0,0,39,-125,39,-303c0,0,0,-177,-39,-303c0,0,-39,-125,-122,-217c0,0,-83,-93,-232,-173Z" 
id="f3_d"
transform="scale(0.001,-0.001)" />

<path d="M376,50c0,0,103,0,149,80c0,0,46,81,46,240c0,0,0,137,-47,204c0,0,-48,67,-148,67c0,0,-44,0,-87,-7c0,0,-44,-8,-63,-17V62c0,0,63,-12,150,-12Zm3,-64c0,0,-64,0,-141,14c0,0,-78,14,-136,37v971L0,1026v34H226V809c0,0,0,-40,-4,-148c0,0,74,59,188,59c0,0,143,0,219,-87c0,0,77,-87,77,-263c0,0,0,-189,-84,-287c0,0,-84,-97,-243,-97Z" 
id="f3_1y"
transform="scale(0.001,-0.001)" />

<path d="M13,0V34L95,46L325,350L122,649L40,668v33H357V668L264,648L399,446L554,649l-96,19v33H710V668L630,652L433,397L663,50L745,34V0H427V34l94,17L359,299L169,50L266,34V0Z" 
id="f3_2k"
transform="scale(0.001,-0.001)" />

<path d="M211,-20c0,0,-39,0,-64,25c0,0,-26,27,-26,64c0,0,0,38,26,64c0,0,26,26,64,26c0,0,37,0,64,-25c0,0,26,-26,26,-65c0,0,0,-37,-26,-64c0,0,-26,-25,-64,-25Zm0,556c0,0,-38,0,-64,26c0,0,-26,26,-26,64c0,0,0,37,26,64c0,0,25,27,64,27c0,0,38,0,64,-27c0,0,26,-27,26,-64c0,0,0,-38,-26,-64c0,0,-27,-26,-64,-26Z" 
id="f3_u"
transform="scale(0.001,-0.001)" />

<path d="M460,-325c0,0,-148,79,-231,172c0,0,-84,93,-123,217c0,0,-39,126,-39,305c0,0,0,178,39,303c0,0,39,125,123,218c0,0,83,92,231,170V975c0,0,-68,-52,-109,-133c0,0,-41,-81,-61,-189c0,0,-19,-109,-19,-285c0,0,0,-177,19,-285c0,0,19,-107,60,-189c0,0,42,-82,110,-134v-85Z" 
id="f1_c"
transform="scale(0.001,-0.001)" />

<path d="M49,-325v85c0,0,68,53,110,135c0,0,41,82,60,190c0,0,19,109,19,283c0,0,0,177,-19,285c0,0,-20,108,-61,189c0,0,-41,81,-109,133v85c0,0,149,-80,232,-172c0,0,83,-92,122,-217c0,0,39,-125,39,-302c0,0,0,-178,-39,-304c0,0,-39,-125,-122,-218c0,0,-83,-93,-232,-172Z" 
id="f1_d"
transform="scale(0.001,-0.001)" />

<path d="M410,-14c0,0,-86,0,-175,14C235,0,145,14,81,38V307h66L181,146c0,0,31,-37,94,-62c0,0,64,-24,132,-24c0,0,214,0,214,177c0,0,0,55,-41,93c0,0,-41,38,-128,68c0,0,-128,42,-185,68c0,0,-56,27,-95,63c0,0,-38,36,-62,87c0,0,-23,51,-23,125c0,0,0,132,90,201c0,0,90,69,263,69c0,0,125,0,278,-32V741H651L618,878c0,0,-76,56,-178,56c0,0,-92,0,-141,-34c0,0,-49,-34,-49,-104c0,0,0,-50,41,-86c0,0,41,-35,128,-63c0,0,171,-56,235,-97c0,0,64,-41,97,-103c0,0,34,-61,34,-143c0,0,0,-318,-375,-318Z" 
id="f1_1j"
transform="scale(0.001,-0.001)" />

<path d="M-14,-14L336,1006H440L90,-14Z" 
id="f1_j"
transform="scale(0.001,-0.001)" />

<path d="M360,-256c0,0,108,0,167,35c0,0,59,35,59,98c0,0,0,70,-95,70H254c0,0,-65,-47,-65,-108c0,0,0,-47,46,-71c0,0,45,-24,125,-24Zm9,561c0,0,55,0,79,43c0,0,25,43,25,129c0,0,0,87,-24,127c0,0,-25,41,-80,41c0,0,-52,0,-75,-41c0,0,-24,-40,-24,-127c0,0,0,-86,23,-129c0,0,23,-43,76,-43Zm-9,-641c0,0,-153,0,-236,43c0,0,-84,44,-84,120c0,0,0,33,28,65c0,0,27,31,105,76c0,0,-44,17,-75,59c0,0,-31,43,-31,90L192,258c0,0,-133,56,-133,219c0,0,0,116,81,180c0,0,82,63,233,63c0,0,32,0,82,-6c0,0,51,-6,74,-13l168,83l26,-32L638,631c0,0,46,-57,46,-154c0,0,0,-119,-80,-182c0,0,-80,-64,-234,-64c0,0,-59,0,-114,9L238,183c0,0,1,-22,28,-41c0,0,26,-19,64,-19H493c0,0,256,0,256,-196c0,0,0,-81,-44,-139c0,0,-45,-59,-131,-92c0,0,-86,-32,-214,-32Z" 
id="f1_23"
transform="scale(0.001,-0.001)" />

<path d="M85,0L199,649l-96,19l6,33H332L218,52L335,33L329,0ZM297,849c0,0,-33,0,-57,24c0,0,-24,24,-24,57c0,0,0,33,24,57c0,0,24,24,57,24c0,0,33,0,57,-24c0,0,24,-24,24,-57c0,0,0,-33,-24,-57c0,0,-24,-24,-57,-24Z" 
id="f4_25"
transform="scale(0.001,-0.001)" />

<path d="M54,0L169,649L81,668l6,33H294L274,558c0,0,62,81,130,121c0,0,67,41,132,41c0,0,75,0,113,-41c0,0,38,-41,38,-117c0,0,0,-10,-3,-32c0,0,-3,-21,-81,-478L700,34L695,0H470l76,434c0,0,17,94,17,123c0,0,0,34,-18,55c0,0,-18,21,-56,21c0,0,-56,0,-121,-47c0,0,-65,-47,-108,-117L178,0Z" 
id="f4_2a"
transform="scale(0.001,-0.001)" />

<path d="M228,-14c0,0,-103,0,-209,46L49,200H83L95,99c0,0,20,-21,55,-38c0,0,36,-16,81,-16c0,0,163,0,163,133c0,0,0,44,-35,78c0,0,-34,34,-113,72c0,0,-75,37,-112,81c0,0,-36,45,-36,104c0,0,0,99,66,153c0,0,67,54,184,54c0,0,85,0,200,-26L521,538H486l-11,80c0,0,-47,42,-124,42c0,0,-61,0,-97,-28c0,0,-37,-28,-37,-87c0,0,0,-40,31,-71c0,0,32,-30,119,-75c0,0,78,-40,113,-86c0,0,36,-47,36,-107c0,0,0,-113,-71,-167c0,0,-72,-53,-217,-53Z" 
id="f4_2f"
transform="scale(0.001,-0.001)" />

<path d="M200,-14c0,0,-59,0,-93,35c0,0,-34,36,-34,100c0,0,0,22,4,51c0,0,4,30,82,467H67l6,33l99,29L275,860h47L295,701H455L443,639H283L210,230c0,0,-13,-69,-13,-99c0,0,0,-34,17,-51c0,0,17,-16,43,-16c0,0,54,0,113,21L386,50c0,0,-92,-64,-186,-64Z" 
id="f4_2g"
transform="scale(0.001,-0.001)" />

<path d="M228,-17c0,0,-76,0,-114,40c0,0,-38,41,-38,117c0,0,0,11,4,39c0,0,4,29,80,470L78,667l6,34H293L217,268c0,0,-17,-94,-17,-124c0,0,0,-34,18,-55c0,0,18,-21,57,-21c0,0,55,0,120,47c0,0,65,47,107,115l83,471H709L595,52L683,33L677,0H469l20,144C489,144,427,64,360,23c0,0,-67,-40,-132,-40Z" 
id="f4_2h"
transform="scale(0.001,-0.001)" />

<path d="M460,-325c0,0,-148,79,-231,172c0,0,-84,93,-123,217c0,0,-39,126,-39,304c0,0,0,178,39,303c0,0,39,125,122,217c0,0,82,93,232,172V997c0,0,-91,-52,-145,-134c0,0,-54,-81,-79,-190c0,0,-25,-109,-25,-305c0,0,0,-194,26,-309c0,0,26,-114,82,-193c0,0,56,-79,141,-128v-63Z" 
id="f3_c"
transform="scale(0.001,-0.001)" />

<path d="M639,416L478,858L313,416ZM647,0V54L762,74L667,333H283L191,74L319,54V0H15V54L90,74l355,935H662L1016,74l76,-20V0Z" 
id="f1_11"
transform="scale(0.001,-0.001)" />

<path d="M424,64c0,0,74,0,109,71c0,0,36,72,36,236c0,0,0,137,-34,201c0,0,-34,65,-111,65c0,0,-29,0,-62,-7c0,0,-34,-6,-55,-19V76c0,0,47,-12,117,-12Zm21,-78c0,0,-121,0,-354,50V994l-72,18v48H307V802c0,0,0,-69,-8,-141c0,0,30,25,86,42c0,0,57,17,110,17c0,0,153,0,223,-84c0,0,70,-83,70,-266c0,0,0,-180,-90,-283C698,87,608,-14,445,-14Z" 
id="f1_1y"
transform="scale(0.001,-0.001)" />

<path d="M412,-18c0,0,-144,0,-239,85c0,0,-95,86,-108,222l133,18c0,0,24,-114,79,-164c0,0,55,-50,135,-50c0,0,96,0,161,65c0,0,65,66,65,163c0,0,0,92,-61,152c0,0,-60,60,-153,60c0,0,-38,0,-95,-15l15,119c0,0,13,-2,21,-2c0,0,86,0,155,45c0,0,69,44,69,137c0,0,0,74,-50,122c0,0,-50,49,-129,49c0,0,-79,0,-131,-50c0,0,-52,-49,-67,-147L78,815c0,0,25,135,112,209c0,0,87,74,217,74c0,0,89,0,164,-38c0,0,76,-39,116,-105c0,0,40,-66,40,-141c0,0,0,-70,-39,-129c0,0,-38,-58,-112,-92c0,0,97,-22,151,-93c0,0,53,-70,53,-176c0,0,0,-143,-104,-243c0,0,-105,-99,-264,-99Z" 
id="f5_n"
transform="scale(0.001,-0.001)" />


</defs>
</svg>