<?xml version="1.0" encoding="UTF-8" standalone="no"?>
<!DOCTYPE svg PUBLIC "-//W3C//DTD SVG 1.1//EN"
"http://www.w3.org/Graphics/SVG/1.1/DTD/svg11.dtd">
<svg viewBox="0 0 909 1286" version="1.1" xmlns="http://www.w3.org/2000/svg" xmlns:xlink="http://www.w3.org/1999/xlink">
<defs>
</defs>
<g fill="#000000" >
<use xlink:href="#f0_3d" transform="matrix(11,0,0,11,82.5,1048.2)" />
<use xlink:href="#f1_5" transform="matrix(11,0,0,11,110,1048.2)" />
<use xlink:href="#f1_af" transform="matrix(11,0,0,11,119.9,1048.2)" />
<use xlink:href="#f1_co" transform="matrix(11,0,0,11,128.7,1048.2)" />
<use xlink:href="#f1_7l" transform="matrix(11,0,0,11,140.1,1048.2)" />
<use xlink:href="#f1_77" transform="matrix(11,0,0,11,147,1048.2)" />
<use xlink:href="#f1_a8" transform="matrix(11,0,0,11,155.1,1048.2)" />
<use xlink:href="#f1_7l" transform="matrix(11,0,0,11,159.1,1048.2)" />
<use xlink:href="#f1_c6" transform="matrix(11,0,0,11,166.1,1048.2)" />
<use xlink:href="#f1_a8" transform="matrix(11,0,0,11,174.9,1048.2)" />
<use xlink:href="#f1_77" transform="matrix(11,0,0,11,178.9,1048.2)" />
<use xlink:href="#f1_bf" transform="matrix(11,0,0,11,187,1048.2)" />
<use xlink:href="#f1_9q" transform="matrix(11,0,0,11,192.5,1048.2)" />
<use xlink:href="#f1_am" transform="matrix(11,0,0,11,196.5,1048.2)" />
<use xlink:href="#f1_af" transform="matrix(11,0,0,11,205.3,1048.2)" />
<use xlink:href="#f1_b5" transform="matrix(11,0,0,11,214.1,1048.2)" />
<use xlink:href="#f1_am" transform="matrix(11,0,0,11,224.4,1048.2)" />
<use xlink:href="#f1_89" transform="matrix(11,0,0,11,233.2,1048.2)" />
<use xlink:href="#f1_7z" transform="matrix(11,0,0,11,242,1048.2)" />
<use xlink:href="#f1_af" transform="matrix(11,0,0,11,250.4,1048.2)" />
<use xlink:href="#f1_7z" transform="matrix(11,0,0,11,259.2,1048.2)" />
<use xlink:href="#f1_b1" transform="matrix(11,0,0,11,267.6,1048.2)" />
<use xlink:href="#f1_9d" transform="matrix(11,0,0,11,273.5,1048.2)" />
<use xlink:href="#f1_co" transform="matrix(11,0,0,11,281.6,1048.2)" />
<use xlink:href="#f1_7l" transform="matrix(11,0,0,11,292.9,1048.2)" />
<use xlink:href="#f1_am" transform="matrix(11,0,0,11,299.9,1048.2)" />
<use xlink:href="#f1_af" transform="matrix(11,0,0,11,308.7,1048.2)" />
<use xlink:href="#f1_bf" transform="matrix(11,0,0,11,317.8,1048.2)" />
<use xlink:href="#f1_7z" transform="matrix(11,0,0,11,323.3,1048.2)" />
<use xlink:href="#f1_af" transform="matrix(11,0,0,11,331.7,1048.2)" />
<use xlink:href="#f1_bf" transform="matrix(11,0,0,11,340.6,1048.2)" />
<use xlink:href="#f1_nq" transform="matrix(11,0,0,11,346.1,1048.2)" />
<use xlink:href="#f1_7k" transform="matrix(11,0,0,11,354.1,1048.2)" />
<use xlink:href="#f1_9q" transform="matrix(11,0,0,11,362.9,1048.2)" />
<use xlink:href="#f1_am" transform="matrix(11,0,0,11,366.9,1048.2)" />
<use xlink:href="#f1_ae" transform="matrix(11,0,0,11,375.7,1048.2)" />
<use xlink:href="#f1_77" transform="matrix(11,0,0,11,389.3,1048.2)" />
<use xlink:href="#f1_b5" transform="matrix(11,0,0,11,397.3,1048.2)" />
<use xlink:href="#f1_b5" transform="matrix(11,0,0,11,403.9,1048.2)" />
<use xlink:href="#f1_nq" transform="matrix(11,0,0,11,410.5,1048.2)" />
<use xlink:href="#f1_am" transform="matrix(11,0,0,11,418.6,1048.2)" />
<use xlink:href="#f1_b1" transform="matrix(11,0,0,11,427.4,1048.2)" />
<use xlink:href="#f1_af" transform="matrix(11,0,0,11,436.9,1048.2)" />
<use xlink:href="#f1_c6" transform="matrix(11,0,0,11,445.7,1048.2)" />
<use xlink:href="#f1_ae" transform="matrix(11,0,0,11,454.5,1048.2)" />
<use xlink:href="#f1_7k" transform="matrix(11,0,0,11,468.1,1048.2)" />
<use xlink:href="#f1_7z" transform="matrix(11,0,0,11,477.2,1048.2)" />
<use xlink:href="#f1_b1" transform="matrix(11,0,0,11,485.6,1048.2)" />
<use xlink:href="#f1_b5" transform="matrix(11,0,0,11,491.5,1048.2)" />
<use xlink:href="#f1_ae" transform="matrix(11,0,0,11,502.2,1048.2)" />
<use xlink:href="#f1_c6" transform="matrix(11,0,0,11,515.7,1048.2)" />
<use xlink:href="#f1_b5" transform="matrix(11,0,0,11,524.5,1048.2)" />
<use xlink:href="#f1_bf" transform="matrix(11,0,0,11,531.1,1048.2)" />
<use xlink:href="#f1_9q" transform="matrix(11,0,0,11,540.3,1048.2)" />
<use xlink:href="#f1_af" transform="matrix(11,0,0,11,544.3,1048.2)" />
<use xlink:href="#f1_7l" transform="matrix(11,0,0,11,553.1,1048.2)" />
<use xlink:href="#f1_a8" transform="matrix(11,0,0,11,560.1,1048.2)" />
<use xlink:href="#f1_c6" transform="matrix(11,0,0,11,564.1,1048.2)" />
<use xlink:href="#f1_7v" transform="matrix(11,0,0,11,572.9,1048.2)" />
<use xlink:href="#f1_7z" transform="matrix(11,0,0,11,581.7,1048.2)" />
<use xlink:href="#f1_77" transform="matrix(11,0,0,11,593.8,1048.2)" />
<use xlink:href="#f1_a8" transform="matrix(11,0,0,11,601.9,1048.2)" />
<use xlink:href="#f1_a8" transform="matrix(11,0,0,11,605.9,1048.2)" />
<use xlink:href="#f1_am" transform="matrix(11,0,0,11,613.6,1048.2)" />
<use xlink:href="#f1_b1" transform="matrix(11,0,0,11,622.4,1048.2)" />
<use xlink:href="#f1_9d" transform="matrix(11,0,0,11,628.3,1048.2)" />
<use xlink:href="#f1_77" transform="matrix(11,0,0,11,636.3,1048.2)" />
<use xlink:href="#f1_af" transform="matrix(11,0,0,11,644.4,1048.2)" />
<use xlink:href="#f1_9q" transform="matrix(11,0,0,11,653.2,1048.2)" />
<use xlink:href="#f1_b5" transform="matrix(11,0,0,11,657.2,1048.2)" />
<use xlink:href="#f1_ae" transform="matrix(11,0,0,11,663.8,1048.2)" />
<use xlink:href="#f1_b5" transform="matrix(11,0,0,11,677.3,1048.2)" />
<use xlink:href="#f1_77" transform="matrix(11,0,0,11,687.6,1048.2)" />
<use xlink:href="#f1_bf" transform="matrix(11,0,0,11,695.7,1048.2)" />
<use xlink:href="#f1_bf" transform="matrix(11,0,0,11,704.8,1048.2)" />
<use xlink:href="#f1_9n" transform="matrix(11,0,0,11,710.3,1048.2)" />
<use xlink:href="#f1_77" transform="matrix(11,0,0,11,719.1,1048.2)" />
<use xlink:href="#f1_bf" transform="matrix(11,0,0,11,727.5,1048.2)" />
<use xlink:href="#f1_bf" transform="matrix(11,0,0,11,737,1048.2)" />
<use xlink:href="#f1_b1" transform="matrix(11,0,0,11,742.5,1048.2)" />
<use xlink:href="#f1_am" transform="matrix(11,0,0,11,748.4,1048.2)" />
<use xlink:href="#f1_ay" transform="matrix(11,0,0,11,757.2,1048.2)" />
<use xlink:href="#f1_9n" transform="matrix(11,0,0,11,766,1048.2)" />
<use xlink:href="#f1_9q" transform="matrix(11,0,0,11,774.8,1048.2)" />
<use xlink:href="#f1_7l" transform="matrix(11,0,0,11,778.8,1048.2)" />
<use xlink:href="#f1_a8" transform="matrix(11,0,0,11,789.8,1048.2)" />
<use xlink:href="#f1_7z" transform="matrix(11,0,0,11,793.8,1048.2)" />
<use xlink:href="#f1_ch" transform="matrix(11,0,0,11,802.2,1048.2)" />
<use xlink:href="#f1_7z" transform="matrix(11,0,0,11,810,1048.2)" />
<use xlink:href="#f1_a8" transform="matrix(11,0,0,11,818.4,1048.2)" />
<use xlink:href="#f1_nt" transform="matrix(11,0,0,11,822.1,1048.2)" />
<use xlink:href="#f1_1c" transform="matrix(11,0,0,11,830.5,1048.2)" />
<use xlink:href="#f1_bf" transform="matrix(11,0,0,11,834.9,1048.2)" />
<use xlink:href="#f1_9q" transform="matrix(11,0,0,11,844,1048.2)" />
<use xlink:href="#f1_b5" transform="matrix(11,0,0,11,848,1048.2)" />
<use xlink:href="#f1_af" transform="matrix(11,0,0,11,110,1068.8)" />
<use xlink:href="#f1_am" transform="matrix(11,0,0,11,118.8,1068.8)" />
<use xlink:href="#f1_bf" transform="matrix(11,0,0,11,127.6,1068.8)" />
<use xlink:href="#f1_ay" transform="matrix(11,0,0,11,136.8,1068.8)" />
<use xlink:href="#f1_am" transform="matrix(11,0,0,11,145.6,1068.8)" />
<use xlink:href="#f1_b5" transform="matrix(11,0,0,11,154.4,1068.8)" />
<use xlink:href="#f1_b5" transform="matrix(11,0,0,11,161,1068.8)" />
<use xlink:href="#f1_9q" transform="matrix(11,0,0,11,167.6,1068.8)" />
<use xlink:href="#f1_7k" transform="matrix(11,0,0,11,171.6,1068.8)" />
<use xlink:href="#f1_a8" transform="matrix(11,0,0,11,180.4,1068.8)" />
<use xlink:href="#f1_7z" transform="matrix(11,0,0,11,184.5,1068.8)" />
<use xlink:href="#f1_bf" transform="matrix(11,0,0,11,196.5,1068.8)" />
<use xlink:href="#f1_am" transform="matrix(11,0,0,11,202,1068.8)" />
<use xlink:href="#f1_9d" transform="matrix(11,0,0,11,214.5,1068.8)" />
<use xlink:href="#f1_7z" transform="matrix(11,0,0,11,222.6,1068.8)" />
<use xlink:href="#f1_af" transform="matrix(11,0,0,11,231,1068.8)" />
<use xlink:href="#f1_7z" transform="matrix(11,0,0,11,239.8,1068.8)" />
<use xlink:href="#f1_b1" transform="matrix(11,0,0,11,248.2,1068.8)" />
<use xlink:href="#f1_77" transform="matrix(11,0,0,11,254.1,1068.8)" />
<use xlink:href="#f1_a8" transform="matrix(11,0,0,11,262.2,1068.8)" />
<use xlink:href="#f1_9q" transform="matrix(11,0,0,11,266.2,1068.8)" />
<use xlink:href="#f1_b5" transform="matrix(11,0,0,11,270.2,1068.8)" />
<use xlink:href="#f1_7z" transform="matrix(11,0,0,11,276.8,1068.8)" />
<use xlink:href="#f1_7k" transform="matrix(11,0,0,11,288.9,1068.8)" />
<use xlink:href="#f1_77" transform="matrix(11,0,0,11,297.7,1068.8)" />
<use xlink:href="#f1_b5" transform="matrix(11,0,0,11,305.8,1068.8)" />
<use xlink:href="#f1_7z" transform="matrix(11,0,0,11,312.4,1068.8)" />
<use xlink:href="#f1_7v" transform="matrix(11,0,0,11,320.8,1068.8)" />
<use xlink:href="#f1_am" transform="matrix(11,0,0,11,333.4,1068.8)" />
<use xlink:href="#f1_af" transform="matrix(11,0,0,11,342.2,1068.8)" />
<use xlink:href="#f1_a8" transform="matrix(11,0,0,11,351,1068.8)" />
<use xlink:href="#f1_co" transform="matrix(11,0,0,11,355,1068.8)" />
<use xlink:href="#f1_77" transform="matrix(11,0,0,11,366.4,1068.8)" />
<use xlink:href="#f1_89" transform="matrix(11,0,0,11,378.1,1068.8)" />
<use xlink:href="#f1_7z" transform="matrix(11,0,0,11,383.3,1068.8)" />
<use xlink:href="#f1_ci" transform="matrix(11,0,0,11,391.7,1068.8)" />
<use xlink:href="#f1_9q" transform="matrix(11,0,0,11,407.4,1068.8)" />
<use xlink:href="#f1_af" transform="matrix(11,0,0,11,411.4,1068.8)" />
<use xlink:href="#f1_7v" transform="matrix(11,0,0,11,420.3,1068.8)" />
<use xlink:href="#f1_9q" transform="matrix(11,0,0,11,429.1,1068.8)" />
<use xlink:href="#f1_ch" transform="matrix(11,0,0,11,433.1,1068.8)" />
<use xlink:href="#f1_9q" transform="matrix(11,0,0,11,440.4,1068.8)" />
<use xlink:href="#f1_7v" transform="matrix(11,0,0,11,444.4,1068.8)" />
<use xlink:href="#f1_c6" transform="matrix(11,0,0,11,453.2,1068.8)" />
<use xlink:href="#f1_77" transform="matrix(11,0,0,11,462,1068.8)" />
<use xlink:href="#f1_a8" transform="matrix(11,0,0,11,470.1,1068.8)" />
<use xlink:href="#f1_b5" transform="matrix(11,0,0,11,474.1,1068.8)" />
<use xlink:href="#f1_77" transform="matrix(11,0,0,11,484,1068.8)" />
<use xlink:href="#f1_bf" transform="matrix(11,0,0,11,492.1,1068.8)" />
<use xlink:href="#f1_77" transform="matrix(11,0,0,11,501.2,1068.8)" />
<use xlink:href="#f1_af" transform="matrix(11,0,0,11,509.3,1068.8)" />
<use xlink:href="#f1_co" transform="matrix(11,0,0,11,518.1,1068.8)" />
<use xlink:href="#f1_bf" transform="matrix(11,0,0,11,529.4,1068.8)" />
<use xlink:href="#f1_b1" transform="matrix(11,0,0,11,534.9,1068.8)" />
<use xlink:href="#f1_am" transform="matrix(11,0,0,11,540.8,1068.8)" />
<use xlink:href="#f1_ay" transform="matrix(11,0,0,11,549.6,1068.8)" />
<use xlink:href="#f1_9n" transform="matrix(11,0,0,11,558.4,1068.8)" />
<use xlink:href="#f1_9q" transform="matrix(11,0,0,11,567.2,1068.8)" />
<use xlink:href="#f1_7l" transform="matrix(11,0,0,11,571.2,1068.8)" />
<use xlink:href="#f1_a8" transform="matrix(11,0,0,11,582.2,1068.8)" />
<use xlink:href="#f1_7z" transform="matrix(11,0,0,11,586.2,1068.8)" />
<use xlink:href="#f1_ch" transform="matrix(11,0,0,11,594.6,1068.8)" />
<use xlink:href="#f1_7z" transform="matrix(11,0,0,11,602.4,1068.8)" />
<use xlink:href="#f1_a8" transform="matrix(11,0,0,11,610.8,1068.8)" />
<use xlink:href="#f1_nt" transform="matrix(10.6,0,0,10.6,615.1,1068.8)" />
<use xlink:href="#f0_3d" transform="matrix(11,0,0,11,82.5,1090)" />
<use xlink:href="#f1_5" transform="matrix(11,0,0,11,110,1090)" />
<use xlink:href="#f1_af" transform="matrix(11,0,0,11,119.9,1090)" />
<use xlink:href="#f1_am" transform="matrix(11,0,0,11,132.4,1090)" />
<use xlink:href="#f1_b1" transform="matrix(11,0,0,11,141.2,1090)" />
<use xlink:href="#f1_9d" transform="matrix(11,0,0,11,147.1,1090)" />
<use xlink:href="#f1_77" transform="matrix(11,0,0,11,155.1,1090)" />
<use xlink:href="#f1_af" transform="matrix(11,0,0,11,163.2,1090)" />
<use xlink:href="#f1_9q" transform="matrix(11,0,0,11,172,1090)" />
<use xlink:href="#f1_b5" transform="matrix(11,0,0,11,176,1090)" />
<use xlink:href="#f1_ae" transform="matrix(11,0,0,11,182.6,1090)" />
<use xlink:href="#f1_7l" transform="matrix(11,0,0,11,199.8,1090)" />
<use xlink:href="#f1_77" transform="matrix(11,0,0,11,206.8,1090)" />
<use xlink:href="#f1_af" transform="matrix(11,0,0,11,214.8,1090)" />
<use xlink:href="#f1_7k" transform="matrix(11,0,0,11,227.3,1090)" />
<use xlink:href="#f1_7z" transform="matrix(11,0,0,11,236.1,1090)" />
<use xlink:href="#f1_77" transform="matrix(11,0,0,11,248.2,1090)" />
<use xlink:href="#f1_ay" transform="matrix(11,0,0,11,259.9,1090)" />
<use xlink:href="#f1_77" transform="matrix(11,0,0,11,268.7,1090)" />
<use xlink:href="#f1_b1" transform="matrix(11,0,0,11,276.8,1090)" />
<use xlink:href="#f1_bf" transform="matrix(11,0,0,11,282.7,1090)" />
<use xlink:href="#f1_am" transform="matrix(11,0,0,11,291.8,1090)" />
<use xlink:href="#f1_89" transform="matrix(11,0,0,11,300.6,1090)" />
<use xlink:href="#f1_ae" transform="matrix(11,0,0,11,309.8,1090)" />
<use xlink:href="#f1_am" transform="matrix(11,0,0,11,323.3,1090)" />
<use xlink:href="#f1_b1" transform="matrix(11,0,0,11,332.1,1090)" />
<use xlink:href="#f1_7z" transform="matrix(11,0,0,11,338,1090)" />
<use xlink:href="#f1_bf" transform="matrix(11,0,0,11,350.1,1090)" />
<use xlink:href="#f1_9n" transform="matrix(11,0,0,11,355.6,1090)" />
<use xlink:href="#f1_77" transform="matrix(11,0,0,11,364.4,1090)" />
<use xlink:href="#f1_af" transform="matrix(11,0,0,11,372.5,1090)" />
<use xlink:href="#f1_am" transform="matrix(11,0,0,11,385.3,1090)" />
<use xlink:href="#f1_af" transform="matrix(11,0,0,11,394.1,1090)" />
<use xlink:href="#f1_7z" transform="matrix(11,0,0,11,402.9,1090)" />
<use xlink:href="#f1_89" transform="matrix(11,0,0,11,415,1090)" />
<use xlink:href="#f1_am" transform="matrix(11,0,0,11,420.1,1090)" />
<use xlink:href="#f1_am" transform="matrix(11,0,0,11,428.9,1090)" />
<use xlink:href="#f1_7v" transform="matrix(11,0,0,11,437.7,1090)" />
<use xlink:href="#f1_7l" transform="matrix(11,0,0,11,450.5,1090)" />
<use xlink:href="#f1_9n" transform="matrix(11,0,0,11,457.5,1090)" />
<use xlink:href="#f1_77" transform="matrix(11,0,0,11,466.3,1090)" />
<use xlink:href="#f1_9q" transform="matrix(11,0,0,11,474.4,1090)" />
<use xlink:href="#f1_af" transform="matrix(11,0,0,11,478.4,1090)" />
<use xlink:href="#f1_b5" transform="matrix(11,0,0,11,487.2,1090)" />
<use xlink:href="#f1_77" transform="matrix(11,0,0,11,497.4,1090)" />
<use xlink:href="#f1_af" transform="matrix(11,0,0,11,505.5,1090)" />
<use xlink:href="#f1_7v" transform="matrix(11,0,0,11,514.3,1090)" />
<use xlink:href="#f1_bf" transform="matrix(11,0,0,11,526.8,1090)" />
<use xlink:href="#f1_9n" transform="matrix(11,0,0,11,532.3,1090)" />
<use xlink:href="#f1_7z" transform="matrix(11,0,0,11,541.1,1090)" />
<use xlink:href="#f1_b1" transform="matrix(11,0,0,11,549.5,1090)" />
<use xlink:href="#f1_7z" transform="matrix(11,0,0,11,555.4,1090)" />
<use xlink:href="#f1_89" transform="matrix(11,0,0,11,563.7,1090)" />
<use xlink:href="#f1_am" transform="matrix(11,0,0,11,568.9,1090)" />
<use xlink:href="#f1_b1" transform="matrix(11,0,0,11,577.7,1090)" />
<use xlink:href="#f1_7z" transform="matrix(11,0,0,11,583.6,1090)" />
<use xlink:href="#f1_7k" transform="matrix(11,0,0,11,595.7,1090)" />
<use xlink:href="#f1_7z" transform="matrix(11,0,0,11,604.5,1090)" />
<use xlink:href="#f1_a8" transform="matrix(11,0,0,11,612.9,1090)" />
<use xlink:href="#f1_am" transform="matrix(11,0,0,11,616.9,1090)" />
<use xlink:href="#f1_af" transform="matrix(11,0,0,11,625.8,1090)" />
<use xlink:href="#f1_9d" transform="matrix(11,0,0,11,634.6,1090)" />
<use xlink:href="#f1_bf" transform="matrix(11,0,0,11,646.3,1090)" />
<use xlink:href="#f1_am" transform="matrix(11,0,0,11,651.8,1090)" />
<use xlink:href="#f1_7v" transform="matrix(11,0,0,11,664.6,1090)" />
<use xlink:href="#f1_9q" transform="matrix(11,0,0,11,673.4,1090)" />
<use xlink:href="#f1_89" transform="matrix(11,0,0,11,677.4,1090)" />
<use xlink:href="#f1_89" transform="matrix(11,0,0,11,682.5,1090)" />
<use xlink:href="#f1_7z" transform="matrix(11,0,0,11,687.7,1090)" />
<use xlink:href="#f1_b1" transform="matrix(11,0,0,11,696.1,1090)" />
<use xlink:href="#f1_7z" transform="matrix(11,0,0,11,702,1090)" />
<use xlink:href="#f1_af" transform="matrix(11,0,0,11,710.4,1090)" />
<use xlink:href="#f1_bf" transform="matrix(11,0,0,11,719.2,1090)" />
<use xlink:href="#f1_bf" transform="matrix(11,0,0,11,728.3,1090)" />
<use xlink:href="#f1_b1" transform="matrix(11,0,0,11,733.8,1090)" />
<use xlink:href="#f1_am" transform="matrix(11,0,0,11,739.7,1090)" />
<use xlink:href="#f1_ay" transform="matrix(11,0,0,11,748.5,1090)" />
<use xlink:href="#f1_9n" transform="matrix(11,0,0,11,757.3,1090)" />
<use xlink:href="#f1_9q" transform="matrix(11,0,0,11,766.1,1090)" />
<use xlink:href="#f1_7l" transform="matrix(11,0,0,11,770.1,1090)" />
<use xlink:href="#f1_a8" transform="matrix(11,0,0,11,780.8,1090)" />
<use xlink:href="#f1_7z" transform="matrix(11,0,0,11,784.8,1090)" />
<use xlink:href="#f1_ch" transform="matrix(11,0,0,11,793.2,1090)" />
<use xlink:href="#f1_7z" transform="matrix(11,0,0,11,800.9,1090)" />
<use xlink:href="#f1_a8" transform="matrix(11,0,0,11,809.3,1090)" />
<use xlink:href="#f1_b5" transform="matrix(11,0,0,11,813.3,1090)" />
<use xlink:href="#f1_nt" transform="matrix(11,0,0,11,820.6,1090)" />
<use xlink:href="#f0_3d" transform="matrix(11,0,0,11,82.5,1111.3)" />
<use xlink:href="#f1_2t" transform="matrix(11,0,0,11,110,1111.3)" />
<use xlink:href="#f1_9n" transform="matrix(11,0,0,11,118.1,1111.3)" />
<use xlink:href="#f1_7z" transform="matrix(11,0,0,11,126.9,1111.3)" />
<use xlink:href="#f1_ay" transform="matrix(11,0,0,11,138.6,1111.3)" />
<use xlink:href="#f1_co" transform="matrix(11,0,0,11,147.4,1111.3)" />
<use xlink:href="#f1_b1" transform="matrix(11,0,0,11,155.1,1111.3)" />
<use xlink:href="#f1_77" transform="matrix(11,0,0,11,161,1111.3)" />
<use xlink:href="#f1_ae" transform="matrix(11,0,0,11,169.1,1111.3)" />
<use xlink:href="#f1_9q" transform="matrix(11,0,0,11,182.6,1111.3)" />
<use xlink:href="#f1_7v" transform="matrix(11,0,0,11,186.6,1111.3)" />
<use xlink:href="#f1_b5" transform="matrix(11,0,0,11,195.4,1111.3)" />
<use xlink:href="#f1_am" transform="matrix(11,0,0,11,205.3,1111.3)" />
<use xlink:href="#f1_89" transform="matrix(11,0,0,11,214.1,1111.3)" />
<use xlink:href="#f1_7z" transform="matrix(11,0,0,11,222.6,1111.3)" />
<use xlink:href="#f1_af" transform="matrix(11,0,0,11,231,1111.3)" />
<use xlink:href="#f1_7z" transform="matrix(11,0,0,11,239.8,1111.3)" />
<use xlink:href="#f1_b1" transform="matrix(11,0,0,11,248.2,1111.3)" />
<use xlink:href="#f1_9d" transform="matrix(11,0,0,11,254.1,1111.3)" />
<use xlink:href="#f1_co" transform="matrix(11,0,0,11,261.8,1111.3)" />
<use xlink:href="#f1_nq" transform="matrix(11,0,0,11,269.5,1111.3)" />
<use xlink:href="#f1_7k" transform="matrix(11,0,0,11,276.8,1111.3)" />
<use xlink:href="#f1_9q" transform="matrix(11,0,0,11,285.6,1111.3)" />
<use xlink:href="#f1_am" transform="matrix(11,0,0,11,289.6,1111.3)" />
<use xlink:href="#f1_ae" transform="matrix(11,0,0,11,298.5,1111.3)" />
<use xlink:href="#f1_77" transform="matrix(11,0,0,11,312,1111.3)" />
<use xlink:href="#f1_b5" transform="matrix(11,0,0,11,320.1,1111.3)" />
<use xlink:href="#f1_b5" transform="matrix(11,0,0,11,326.7,1111.3)" />
<use xlink:href="#f1_77" transform="matrix(11,0,0,11,336.6,1111.3)" />
<use xlink:href="#f1_af" transform="matrix(11,0,0,11,344.7,1111.3)" />
<use xlink:href="#f1_7v" transform="matrix(11,0,0,11,353.4,1111.3)" />
<use xlink:href="#f1_af" transform="matrix(11,0,0,11,365.5,1111.3)" />
<use xlink:href="#f1_c6" transform="matrix(11,0,0,11,374.4,1111.3)" />
<use xlink:href="#f1_ae" transform="matrix(11,0,0,11,383.2,1111.3)" />
<use xlink:href="#f1_7k" transform="matrix(11,0,0,11,396.7,1111.3)" />
<use xlink:href="#f1_7z" transform="matrix(11,0,0,11,405.5,1111.3)" />
<use xlink:href="#f1_b1" transform="matrix(11,0,0,11,413.9,1111.3)" />
<use xlink:href="#f1_77" transform="matrix(11,0,0,11,423.1,1111.3)" />
<use xlink:href="#f1_b1" transform="matrix(11,0,0,11,431.2,1111.3)" />
<use xlink:href="#f1_7z" transform="matrix(11,0,0,11,437.1,1111.3)" />
<use xlink:href="#f1_c6" transform="matrix(11,0,0,11,448.8,1111.3)" />
<use xlink:href="#f1_ay" transform="matrix(11,0,0,11,457.6,1111.3)" />
<use xlink:href="#f1_b1" transform="matrix(11,0,0,11,466.4,1111.3)" />
<use xlink:href="#f1_9q" transform="matrix(11,0,0,11,471.9,1111.3)" />
<use xlink:href="#f1_9d" transform="matrix(11,0,0,11,475.9,1111.3)" />
<use xlink:href="#f1_9n" transform="matrix(11,0,0,11,483.6,1111.3)" />
<use xlink:href="#f1_bf" transform="matrix(11,0,0,11,492.4,1111.3)" />
<use xlink:href="#f1_9q" transform="matrix(11,0,0,11,501.2,1111.3)" />
<use xlink:href="#f1_af" transform="matrix(11,0,0,11,505.2,1111.3)" />
<use xlink:href="#f1_ae" transform="matrix(11,0,0,11,517.3,1111.3)" />
<use xlink:href="#f1_am" transform="matrix(11,0,0,11,530.9,1111.3)" />
<use xlink:href="#f1_b5" transform="matrix(11,0,0,11,539.7,1111.3)" />
<use xlink:href="#f1_bf" transform="matrix(11,0,0,11,546.3,1111.3)" />
<use xlink:href="#f1_7z" transform="matrix(11,0,0,11,555.1,1111.3)" />
<use xlink:href="#f1_7l" transform="matrix(11,0,0,11,563.5,1111.3)" />
<use xlink:href="#f1_am" transform="matrix(11,0,0,11,570.5,1111.3)" />
<use xlink:href="#f1_b5" transform="matrix(11,0,0,11,579.3,1111.3)" />
<use xlink:href="#f1_co" transform="matrix(11,0,0,11,585.9,1111.3)" />
<use xlink:href="#f1_b5" transform="matrix(11,0,0,11,593.6,1111.3)" />
<use xlink:href="#f1_bf" transform="matrix(11,0,0,11,600.2,1111.3)" />
<use xlink:href="#f1_7z" transform="matrix(11,0,0,11,605.7,1111.3)" />
<use xlink:href="#f1_ae" transform="matrix(11,0,0,11,614.1,1111.3)" />
<use xlink:href="#f1_b5" transform="matrix(11,0,0,11,627.6,1111.3)" />
<use xlink:href="#f1_nt" transform="matrix(11,0,0,11,634.2,1111.3)" />
<use xlink:href="#f1_2t" transform="matrix(11,0,0,11,641.9,1111.3)" />
<use xlink:href="#f1_9n" transform="matrix(11,0,0,11,650,1111.3)" />
<use xlink:href="#f1_77" transform="matrix(11,0,0,11,658.8,1111.3)" />
<use xlink:href="#f1_bf" transform="matrix(11,0,0,11,666.9,1111.3)" />
<use xlink:href="#f1_9q" transform="matrix(11,0,0,11,675.7,1111.3)" />
<use xlink:href="#f1_b5" transform="matrix(11,0,0,11,679.7,1111.3)" />
<use xlink:href="#f1_nq" transform="matrix(11,0,0,11,686.3,1111.3)" />
<use xlink:href="#f1_bf" transform="matrix(11,0,0,11,693.6,1111.3)" />
<use xlink:href="#f1_9n" transform="matrix(11,0,0,11,699.1,1111.3)" />
<use xlink:href="#f1_7z" transform="matrix(11,0,0,11,707.9,1111.3)" />
<use xlink:href="#f1_ay" transform="matrix(11,0,0,11,719.6,1111.3)" />
<use xlink:href="#f1_b1" transform="matrix(11,0,0,11,728.5,1111.3)" />
<use xlink:href="#f1_am" transform="matrix(11,0,0,11,734.3,1111.3)" />
<use xlink:href="#f1_7v" transform="matrix(11,0,0,11,743.1,1111.3)" />
<use xlink:href="#f1_c6" transform="matrix(11,0,0,11,751.9,1111.3)" />
<use xlink:href="#f1_7l" transform="matrix(11,0,0,11,760.7,1111.3)" />
<use xlink:href="#f1_7z" transform="matrix(11,0,0,11,767.7,1111.3)" />
<use xlink:href="#f1_b1" transform="matrix(11,0,0,11,776.1,1111.3)" />
<use xlink:href="#f1_b5" transform="matrix(11,0,0,11,782,1111.3)" />
<use xlink:href="#f1_77" transform="matrix(11,0,0,11,791.9,1111.3)" />
<use xlink:href="#f1_b1" transform="matrix(11,0,0,11,800,1111.3)" />
<use xlink:href="#f1_7z" transform="matrix(11,0,0,11,805.9,1111.3)" />
<use xlink:href="#f1_ae" transform="matrix(11,0,0,11,817.6,1111.3)" />
<use xlink:href="#f1_am" transform="matrix(11,0,0,11,831.1,1111.3)" />
<use xlink:href="#f1_b1" transform="matrix(11,0,0,11,839.9,1111.3)" />
<use xlink:href="#f1_7z" transform="matrix(11,0,0,11,846.2,1111.3)" />
<use xlink:href="#f1_9q" transform="matrix(11,0,0,11,110,1132.2)" />
<use xlink:href="#f1_af" transform="matrix(11,0,0,11,114.1,1132.2)" />
<use xlink:href="#f1_af" transform="matrix(11,0,0,11,126.5,1132.2)" />
<use xlink:href="#f1_c6" transform="matrix(11,0,0,11,135.3,1132.2)" />
<use xlink:href="#f1_ae" transform="matrix(11,0,0,11,144.1,1132.2)" />
<use xlink:href="#f1_7k" transform="matrix(11,0,0,11,157.7,1132.2)" />
<use xlink:href="#f1_7z" transform="matrix(11,0,0,11,166.5,1132.2)" />
<use xlink:href="#f1_b1" transform="matrix(11,0,0,11,174.9,1132.2)" />
<use xlink:href="#f1_bf" transform="matrix(11,0,0,11,184.4,1132.2)" />
<use xlink:href="#f1_9n" transform="matrix(11,0,0,11,189.9,1132.2)" />
<use xlink:href="#f1_77" transform="matrix(11,0,0,11,198.7,1132.2)" />
<use xlink:href="#f1_af" transform="matrix(11,0,0,11,206.8,1132.2)" />
<use xlink:href="#f1_bf" transform="matrix(11,0,0,11,219.3,1132.2)" />
<use xlink:href="#f1_9n" transform="matrix(11,0,0,11,224.8,1132.2)" />
<use xlink:href="#f1_7z" transform="matrix(11,0,0,11,233.6,1132.2)" />
<use xlink:href="#f1_9n" transform="matrix(11,0,0,11,245.7,1132.2)" />
<use xlink:href="#f1_7z" transform="matrix(11,0,0,11,254.5,1132.2)" />
<use xlink:href="#f1_b1" transform="matrix(11,0,0,11,262.9,1132.2)" />
<use xlink:href="#f1_7k" transform="matrix(11,0,0,11,268.8,1132.2)" />
<use xlink:href="#f1_9q" transform="matrix(11,0,0,11,277.6,1132.2)" />
<use xlink:href="#f1_ch" transform="matrix(11,0,0,11,281.6,1132.2)" />
<use xlink:href="#f1_am" transform="matrix(11,0,0,11,289.3,1132.2)" />
<use xlink:href="#f1_b1" transform="matrix(11,0,0,11,298.1,1132.2)" />
<use xlink:href="#f1_7z" transform="matrix(11,0,0,11,304,1132.2)" />
<use xlink:href="#f1_b5" transform="matrix(11,0,0,11,312.4,1132.2)" />
<use xlink:href="#f1_nq" transform="matrix(11,0,0,11,319,1132.2)" />
<use xlink:href="#f1_bf" transform="matrix(11,0,0,11,326.7,1132.2)" />
<use xlink:href="#f1_9n" transform="matrix(11,0,0,11,332.5,1132.2)" />
<use xlink:href="#f1_7z" transform="matrix(11,0,0,11,341.3,1132.2)" />
<use xlink:href="#f1_9n" transform="matrix(11,0,0,11,353.4,1132.2)" />
<use xlink:href="#f1_7z" transform="matrix(11,0,0,11,362.2,1132.2)" />
<use xlink:href="#f1_b1" transform="matrix(11,0,0,11,370.6,1132.2)" />
<use xlink:href="#f1_7k" transform="matrix(11,0,0,11,376.5,1132.2)" />
<use xlink:href="#f1_9q" transform="matrix(11,0,0,11,385.4,1132.2)" />
<use xlink:href="#f1_ch" transform="matrix(11,0,0,11,389.3,1132.2)" />
<use xlink:href="#f1_am" transform="matrix(11,0,0,11,397,1132.2)" />
<use xlink:href="#f1_b1" transform="matrix(11,0,0,11,405.8,1132.2)" />
<use xlink:href="#f1_7z" transform="matrix(11,0,0,11,411.7,1132.2)" />
<use xlink:href="#f1_b5" transform="matrix(11,0,0,11,420.1,1132.2)" />
<use xlink:href="#f1_77" transform="matrix(11,0,0,11,430.4,1132.2)" />
<use xlink:href="#f1_b1" transform="matrix(11,0,0,11,438.5,1132.2)" />
<use xlink:href="#f1_7z" transform="matrix(11,0,0,11,444.4,1132.2)" />
<use xlink:href="#f1_ae" transform="matrix(11,0,0,11,456.4,1132.2)" />
<use xlink:href="#f1_am" transform="matrix(11,0,0,11,470,1132.2)" />
<use xlink:href="#f1_b1" transform="matrix(11,0,0,11,478.8,1132.2)" />
<use xlink:href="#f1_7z" transform="matrix(11,0,0,11,484.7,1132.2)" />
<use xlink:href="#f1_bf" transform="matrix(11,0,0,11,496.8,1132.2)" />
<use xlink:href="#f1_9n" transform="matrix(11,0,0,11,502.3,1132.2)" />
<use xlink:href="#f1_77" transform="matrix(11,0,0,11,511.1,1132.2)" />
<use xlink:href="#f1_af" transform="matrix(11,0,0,11,519.1,1132.2)" />
<use xlink:href="#f1_bf" transform="matrix(11,0,0,11,531.6,1132.2)" />
<use xlink:href="#f1_9n" transform="matrix(11,0,0,11,537.1,1132.2)" />
<use xlink:href="#f1_7z" transform="matrix(11,0,0,11,545.9,1132.2)" />
<use xlink:href="#f1_7l" transform="matrix(11,0,0,11,558.3,1132.2)" />
<use xlink:href="#f1_77" transform="matrix(11,0,0,11,565.3,1132.2)" />
<use xlink:href="#f1_b1" transform="matrix(11,0,0,11,573.4,1132.2)" />
<use xlink:href="#f1_af" transform="matrix(11,0,0,11,579.3,1132.2)" />
<use xlink:href="#f1_9q" transform="matrix(11,0,0,11,588,1132.2)" />
<use xlink:href="#f1_ch" transform="matrix(11,0,0,11,592.1,1132.2)" />
<use xlink:href="#f1_am" transform="matrix(11,0,0,11,599.7,1132.2)" />
<use xlink:href="#f1_b1" transform="matrix(11,0,0,11,608.5,1132.2)" />
<use xlink:href="#f1_7z" transform="matrix(11,0,0,11,614.4,1132.2)" />
<use xlink:href="#f1_b5" transform="matrix(11,0,0,11,622.8,1132.2)" />
<use xlink:href="#f1_nq" transform="matrix(11,0,0,11,629.4,1132.2)" />
<use xlink:href="#f1_7z" transform="matrix(11,0,0,11,637.1,1132.2)" />
<use xlink:href="#f1_bf" transform="matrix(11,0,0,11,645.5,1132.2)" />
<use xlink:href="#f1_7l" transform="matrix(11,0,0,11,651.1,1132.2)" />
<use xlink:href="#f1_nt" transform="matrix(11,0,0,11,658,1132.2)" />
<use xlink:href="#f0_3d" transform="matrix(11,0,0,11,82.5,1153.5)" />
<use xlink:href="#f1_2g" transform="matrix(11,0,0,11,110,1153.5)" />
<use xlink:href="#f1_co" transform="matrix(11,0,0,11,118.8,1153.5)" />
<use xlink:href="#f1_b1" transform="matrix(11,0,0,11,126.5,1153.5)" />
<use xlink:href="#f1_77" transform="matrix(11,0,0,11,132.4,1153.5)" />
<use xlink:href="#f1_ae" transform="matrix(11,0,0,11,140.5,1153.5)" />
<use xlink:href="#f1_9q" transform="matrix(11,0,0,11,153.7,1153.5)" />
<use xlink:href="#f1_7v" transform="matrix(11,0,0,11,157.7,1153.5)" />
<use xlink:href="#f1_b5" transform="matrix(11,0,0,11,166.5,1153.5)" />
<use xlink:href="#f1_am" transform="matrix(11,0,0,11,177.1,1153.5)" />
<use xlink:href="#f1_89" transform="matrix(11,0,0,11,185.9,1153.5)" />
<use xlink:href="#f1_af" transform="matrix(11,0,0,11,195,1153.5)" />
<use xlink:href="#f1_c6" transform="matrix(11,0,0,11,203.8,1153.5)" />
<use xlink:href="#f1_ae" transform="matrix(11,0,0,11,212.6,1153.5)" />
<use xlink:href="#f1_7k" transform="matrix(11,0,0,11,226.2,1153.5)" />
<use xlink:href="#f1_7z" transform="matrix(11,0,0,11,235,1153.5)" />
<use xlink:href="#f1_b1" transform="matrix(11,0,0,11,243.4,1153.5)" />
<use xlink:href="#f1_77" transform="matrix(11,0,0,11,253.3,1153.5)" />
<use xlink:href="#f1_af" transform="matrix(11,0,0,11,261.4,1153.5)" />
<use xlink:href="#f1_7v" transform="matrix(11,0,0,11,270.2,1153.5)" />
<use xlink:href="#f1_7k" transform="matrix(11,0,0,11,283,1153.5)" />
<use xlink:href="#f1_9q" transform="matrix(11,0,0,11,291.8,1153.5)" />
<use xlink:href="#f1_am" transform="matrix(11,0,0,11,295.8,1153.5)" />
<use xlink:href="#f1_ae" transform="matrix(11,0,0,11,304.6,1153.5)" />
<use xlink:href="#f1_77" transform="matrix(11,0,0,11,318.2,1153.5)" />
<use xlink:href="#f1_b5" transform="matrix(11,0,0,11,326.2,1153.5)" />
<use xlink:href="#f1_b5" transform="matrix(11,0,0,11,332.5,1153.5)" />
<use xlink:href="#f1_7l" transform="matrix(11,0,0,11,343.1,1153.5)" />
<use xlink:href="#f1_77" transform="matrix(11,0,0,11,350,1153.5)" />
<use xlink:href="#f1_af" transform="matrix(11,0,0,11,358.1,1153.5)" />
<use xlink:href="#f1_7k" transform="matrix(11,0,0,11,370.9,1153.5)" />
<use xlink:href="#f1_7z" transform="matrix(11,0,0,11,379.7,1153.5)" />
<use xlink:href="#f1_9q" transform="matrix(11,0,0,11,392.2,1153.5)" />
<use xlink:href="#f1_af" transform="matrix(11,0,0,11,396.2,1153.5)" />
<use xlink:href="#f1_ch" transform="matrix(11,0,0,11,405,1153.5)" />
<use xlink:href="#f1_7z" transform="matrix(11,0,0,11,412.7,1153.5)" />
<use xlink:href="#f1_b1" transform="matrix(11,0,0,11,421.1,1153.5)" />
<use xlink:href="#f1_bf" transform="matrix(11,0,0,11,427,1153.5)" />
<use xlink:href="#f1_7z" transform="matrix(11,0,0,11,432.5,1153.5)" />
<use xlink:href="#f1_7v" transform="matrix(11,0,0,11,440.9,1153.5)" />
<use xlink:href="#f1_9q" transform="matrix(11,0,0,11,453.4,1153.5)" />
<use xlink:href="#f1_af" transform="matrix(11,0,0,11,457.4,1153.5)" />
<use xlink:href="#f1_b5" transform="matrix(11,0,0,11,470.2,1153.5)" />
<use xlink:href="#f1_am" transform="matrix(11,0,0,11,476.4,1153.5)" />
<use xlink:href="#f1_ae" transform="matrix(11,0,0,11,485.3,1153.5)" />
<use xlink:href="#f1_7z" transform="matrix(11,0,0,11,498.8,1153.5)" />
<use xlink:href="#f1_7l" transform="matrix(11,0,0,11,511.2,1153.5)" />
<use xlink:href="#f1_77" transform="matrix(11,0,0,11,518.2,1153.5)" />
<use xlink:href="#f1_b5" transform="matrix(11,0,0,11,526.3,1153.5)" />
<use xlink:href="#f1_7z" transform="matrix(11,0,0,11,532.9,1153.5)" />
<use xlink:href="#f1_b5" transform="matrix(11,0,0,11,541.3,1153.5)" />
<use xlink:href="#f1_7k" transform="matrix(11,0,0,11,551.9,1153.5)" />
<use xlink:href="#f1_c6" transform="matrix(11,0,0,11,560.7,1153.5)" />
<use xlink:href="#f1_bf" transform="matrix(11,0,0,11,569.5,1153.5)" />
<use xlink:href="#f1_bf" transform="matrix(11,0,0,11,579,1153.5)" />
<use xlink:href="#f1_9n" transform="matrix(11,0,0,11,584.5,1153.5)" />
<use xlink:href="#f1_7z" transform="matrix(11,0,0,11,593.4,1153.5)" />
<use xlink:href="#f1_ay" transform="matrix(11,0,0,11,605.8,1153.5)" />
<use xlink:href="#f1_co" transform="matrix(11,0,0,11,614.6,1153.5)" />
<use xlink:href="#f1_b1" transform="matrix(11,0,0,11,622.3,1153.5)" />
<use xlink:href="#f1_77" transform="matrix(11,0,0,11,628.2,1153.5)" />
<use xlink:href="#f1_ae" transform="matrix(11,0,0,11,636.3,1153.5)" />
<use xlink:href="#f1_9q" transform="matrix(11,0,0,11,649.8,1153.5)" />
<use xlink:href="#f1_7v" transform="matrix(11,0,0,11,653.8,1153.5)" />
<use xlink:href="#f1_am" transform="matrix(11,0,0,11,666.6,1153.5)" />
<use xlink:href="#f1_89" transform="matrix(11,0,0,11,675.4,1153.5)" />
<use xlink:href="#f1_7z" transform="matrix(11,0,0,11,684.5,1153.5)" />
<use xlink:href="#f1_af" transform="matrix(11,0,0,11,692.9,1153.5)" />
<use xlink:href="#f1_7z" transform="matrix(11,0,0,11,701.8,1153.5)" />
<use xlink:href="#f1_b1" transform="matrix(11,0,0,11,710.2,1153.5)" />
<use xlink:href="#f1_9d" transform="matrix(11,0,0,11,715.7,1153.5)" />
<use xlink:href="#f1_co" transform="matrix(11,0,0,11,723.8,1153.5)" />
<use xlink:href="#f1_9q" transform="matrix(11,0,0,11,735.5,1153.5)" />
<use xlink:href="#f1_b5" transform="matrix(11,0,0,11,739.5,1153.5)" />
<use xlink:href="#f1_77" transform="matrix(11,0,0,11,750.1,1153.5)" />
<use xlink:href="#f1_a8" transform="matrix(11,0,0,11,757.8,1153.5)" />
<use xlink:href="#f1_ci" transform="matrix(11,0,0,11,761.8,1153.5)" />
<use xlink:href="#f1_77" transform="matrix(11,0,0,11,773.9,1153.5)" />
<use xlink:href="#f1_co" transform="matrix(11,0,0,11,782,1153.5)" />
<use xlink:href="#f1_b5" transform="matrix(11,0,0,11,789.3,1153.5)" />
<use xlink:href="#f1_c6" transform="matrix(11,0,0,11,799.9,1153.5)" />
<use xlink:href="#f1_ay" transform="matrix(11,0,0,11,808.7,1153.5)" />
<use xlink:href="#f1_b1" transform="matrix(11,0,0,11,817.5,1153.5)" />
<use xlink:href="#f1_9q" transform="matrix(11,0,0,11,823.4,1153.5)" />
<use xlink:href="#f1_9d" transform="matrix(11,0,0,11,827.4,1153.5)" />
<use xlink:href="#f1_9n" transform="matrix(11,0,0,11,835.5,1153.5)" />
<use xlink:href="#f1_bf" transform="matrix(11,0,0,11,844.3,1153.5)" />
<use xlink:href="#f1_nt" transform="matrix(11,0,0,11,849.4,1153.5)" />
<use xlink:href="#f1_2t" transform="matrix(11,0,0,11,110,1174)" />
<use xlink:href="#f1_9n" transform="matrix(11,0,0,11,118.1,1174)" />
<use xlink:href="#f1_9q" transform="matrix(11,0,0,11,126.9,1174)" />
<use xlink:href="#f1_b5" transform="matrix(11,0,0,11,130.9,1174)" />
<use xlink:href="#f1_9q" transform="matrix(11,0,0,11,141.2,1174)" />
<use xlink:href="#f1_b5" transform="matrix(11,0,0,11,145.2,1174)" />
<use xlink:href="#f1_7k" transform="matrix(11,0,0,11,155.5,1174)" />
<use xlink:href="#f1_7z" transform="matrix(11,0,0,11,164.3,1174)" />
<use xlink:href="#f1_7l" transform="matrix(11,0,0,11,172.7,1174)" />
<use xlink:href="#f1_77" transform="matrix(11,0,0,11,179.7,1174)" />
<use xlink:href="#f1_c6" transform="matrix(11,0,0,11,187.8,1174)" />
<use xlink:href="#f1_b5" transform="matrix(11,0,0,11,196.5,1174)" />
<use xlink:href="#f1_7z" transform="matrix(11,0,0,11,203.1,1174)" />
<use xlink:href="#f1_ci" transform="matrix(11,0,0,11,215.3,1174)" />
<use xlink:href="#f1_9n" transform="matrix(11,0,0,11,227.3,1174)" />
<use xlink:href="#f1_7z" transform="matrix(11,0,0,11,236.2,1174)" />
<use xlink:href="#f1_af" transform="matrix(11,0,0,11,244.6,1174)" />
<use xlink:href="#f1_7z" transform="matrix(11,0,0,11,257,1174)" />
<use xlink:href="#f1_af" transform="matrix(11,0,0,11,265.4,1174)" />
<use xlink:href="#f1_7z" transform="matrix(11,0,0,11,274.3,1174)" />
<use xlink:href="#f1_b1" transform="matrix(11,0,0,11,282.7,1174)" />
<use xlink:href="#f1_9d" transform="matrix(11,0,0,11,288.6,1174)" />
<use xlink:href="#f1_co" transform="matrix(11,0,0,11,296.6,1174)" />
<use xlink:href="#f1_89" transform="matrix(11,0,0,11,308,1174)" />
<use xlink:href="#f1_a8" transform="matrix(11,0,0,11,313.1,1174)" />
<use xlink:href="#f1_am" transform="matrix(11,0,0,11,317.1,1174)" />
<use xlink:href="#f1_ci" transform="matrix(11,0,0,11,325.9,1174)" />
<use xlink:href="#f1_b5" transform="matrix(11,0,0,11,338,1174)" />
<use xlink:href="#f1_89" transform="matrix(11,0,0,11,348.3,1174)" />
<use xlink:href="#f1_b1" transform="matrix(11,0,0,11,353.4,1174)" />
<use xlink:href="#f1_am" transform="matrix(11,0,0,11,359.3,1174)" />
<use xlink:href="#f1_ae" transform="matrix(11,0,0,11,368.1,1174)" />
<use xlink:href="#f1_am" transform="matrix(11,0,0,11,385.3,1174)" />
<use xlink:href="#f1_af" transform="matrix(11,0,0,11,394.1,1174)" />
<use xlink:href="#f1_7z" transform="matrix(11,0,0,11,402.9,1174)" />
<use xlink:href="#f1_a8" transform="matrix(11,0,0,11,415,1174)" />
<use xlink:href="#f1_7z" transform="matrix(11,0,0,11,419,1174)" />
<use xlink:href="#f1_ch" transform="matrix(11,0,0,11,427.4,1174)" />
<use xlink:href="#f1_7z" transform="matrix(11,0,0,11,435.1,1174)" />
<use xlink:href="#f1_a8" transform="matrix(11,0,0,11,443.2,1174)" />
<use xlink:href="#f1_bf" transform="matrix(11,0,0,11,450.9,1174)" />
<use xlink:href="#f1_am" transform="matrix(11,0,0,11,456.4,1174)" />
<use xlink:href="#f1_77" transform="matrix(11,0,0,11,468.8,1174)" />
<use xlink:href="#f1_af" transform="matrix(11,0,0,11,477.3,1174)" />
<use xlink:href="#f1_am" transform="matrix(11,0,0,11,486.1,1174)" />
<use xlink:href="#f1_bf" transform="matrix(11,0,0,11,494.9,1174)" />
<use xlink:href="#f1_9n" transform="matrix(11,0,0,11,500.4,1174)" />
<use xlink:href="#f1_7z" transform="matrix(11,0,0,11,509.2,1174)" />
<use xlink:href="#f1_b1" transform="matrix(11,0,0,11,517.6,1174)" />
<use xlink:href="#f1_b5" transform="matrix(11,0,0,11,527.1,1174)" />
<use xlink:href="#f1_am" transform="matrix(11,0,0,11,533.7,1174)" />
<use xlink:href="#f1_ae" transform="matrix(11,0,0,11,542.5,1174)" />
<use xlink:href="#f1_7z" transform="matrix(11,0,0,11,556.1,1174)" />
<use xlink:href="#f1_77" transform="matrix(11,0,0,11,568.2,1174)" />
<use xlink:href="#f1_ae" transform="matrix(11,0,0,11,576.2,1174)" />
<use xlink:href="#f1_am" transform="matrix(11,0,0,11,590.2,1174)" />
<use xlink:href="#f1_c6" transform="matrix(11,0,0,11,599,1174)" />
<use xlink:href="#f1_af" transform="matrix(11,0,0,11,607.8,1174)" />
<use xlink:href="#f1_bf" transform="matrix(11,0,0,11,616.6,1174)" />
<use xlink:href="#f1_am" transform="matrix(11,0,0,11,625.8,1174)" />
<use xlink:href="#f1_89" transform="matrix(11,0,0,11,634.6,1174)" />
<use xlink:href="#f1_7z" transform="matrix(11,0,0,11,643.7,1174)" />
<use xlink:href="#f1_af" transform="matrix(11,0,0,11,652.1,1174)" />
<use xlink:href="#f1_7z" transform="matrix(11,0,0,11,661,1174)" />
<use xlink:href="#f1_b1" transform="matrix(11,0,0,11,669.4,1174)" />
<use xlink:href="#f1_9d" transform="matrix(11,0,0,11,675.2,1174)" />
<use xlink:href="#f1_co" transform="matrix(11,0,0,11,683.3,1174)" />
<use xlink:href="#f1_9q" transform="matrix(11,0,0,11,694.6,1174)" />
<use xlink:href="#f1_b5" transform="matrix(11,0,0,11,698.6,1174)" />
<use xlink:href="#f1_77" transform="matrix(11,0,0,11,708.9,1174)" />
<use xlink:href="#f1_a8" transform="matrix(11,0,0,11,717,1174)" />
<use xlink:href="#f1_ci" transform="matrix(11,0,0,11,721,1174)" />
<use xlink:href="#f1_77" transform="matrix(11,0,0,11,733.1,1174)" />
<use xlink:href="#f1_co" transform="matrix(11,0,0,11,741.1,1174)" />
<use xlink:href="#f1_b5" transform="matrix(11,0,0,11,748.8,1174)" />
<use xlink:href="#f1_a8" transform="matrix(11,0,0,11,759.1,1174)" />
<use xlink:href="#f1_am" transform="matrix(11,0,0,11,763.1,1174)" />
<use xlink:href="#f1_b5" transform="matrix(11,0,0,11,771.9,1174)" />
<use xlink:href="#f1_bf" transform="matrix(11,0,0,11,778.5,1174)" />
<use xlink:href="#f1_77" transform="matrix(11,0,0,11,787.7,1174)" />
<use xlink:href="#f1_b5" transform="matrix(11,0,0,11,795.8,1174)" />
<use xlink:href="#f1_9n" transform="matrix(11,0,0,11,806,1174)" />
<use xlink:href="#f1_7z" transform="matrix(11,0,0,11,814.8,1174)" />
<use xlink:href="#f1_77" transform="matrix(11,0,0,11,823.2,1174)" />
<use xlink:href="#f1_bf" transform="matrix(11,0,0,11,831.3,1174)" />
<use xlink:href="#f1_nt" transform="matrix(11,0,0,11,836.8,1174)" />
<use xlink:href="#f0_3d" transform="matrix(11,0,0,11,82.5,1195.3)" />
<use xlink:href="#f1_t" transform="matrix(11,0,0,11,110,1195.3)" />
<use xlink:href="#f1_7l" transform="matrix(11,0,0,11,118.1,1195.3)" />
<use xlink:href="#f1_am" transform="matrix(11,0,0,11,125.1,1195.3)" />
<use xlink:href="#f1_a8" transform="matrix(11,0,0,11,133.9,1195.3)" />
<use xlink:href="#f1_am" transform="matrix(11,0,0,11,137.9,1195.3)" />
<use xlink:href="#f1_9d" transform="matrix(11,0,0,11,146.7,1195.3)" />
<use xlink:href="#f1_9q" transform="matrix(11,0,0,11,154.7,1195.3)" />
<use xlink:href="#f1_7l" transform="matrix(11,0,0,11,158.7,1195.3)" />
<use xlink:href="#f1_77" transform="matrix(11,0,0,11,165.7,1195.3)" />
<use xlink:href="#f1_a8" transform="matrix(11,0,0,11,173.8,1195.3)" />
<use xlink:href="#f1_ay" transform="matrix(11,0,0,11,184.4,1195.3)" />
<use xlink:href="#f1_co" transform="matrix(11,0,0,11,193.2,1195.3)" />
<use xlink:href="#f1_b1" transform="matrix(11,0,0,11,200.9,1195.3)" />
<use xlink:href="#f1_77" transform="matrix(11,0,0,11,206.7,1195.3)" />
<use xlink:href="#f1_ae" transform="matrix(11,0,0,11,214.8,1195.3)" />
<use xlink:href="#f1_9q" transform="matrix(11,0,0,11,228.3,1195.3)" />
<use xlink:href="#f1_7v" transform="matrix(11,0,0,11,232.4,1195.3)" />
<use xlink:href="#f1_b5" transform="matrix(11,0,0,11,241.2,1195.3)" />
<use xlink:href="#f1_7l" transform="matrix(11,0,0,11,254.3,1195.3)" />
<use xlink:href="#f1_77" transform="matrix(11,0,0,11,261.3,1195.3)" />
<use xlink:href="#f1_af" transform="matrix(11,0,0,11,269.4,1195.3)" />
<use xlink:href="#f1_77" transform="matrix(11,0,0,11,284.8,1195.3)" />
<use xlink:href="#f1_7l" transform="matrix(11,0,0,11,292.8,1195.3)" />
<use xlink:href="#f1_7l" transform="matrix(11,0,0,11,299.8,1195.3)" />
<use xlink:href="#f1_am" transform="matrix(11,0,0,11,306.8,1195.3)" />
<use xlink:href="#f1_ae" transform="matrix(11,0,0,11,315.6,1195.3)" />
<use xlink:href="#f1_ae" transform="matrix(11,0,0,11,329.1,1195.3)" />
<use xlink:href="#f1_am" transform="matrix(11,0,0,11,342.6,1195.3)" />
<use xlink:href="#f1_7v" transform="matrix(11,0,0,11,351.4,1195.3)" />
<use xlink:href="#f1_77" transform="matrix(11,0,0,11,360.3,1195.3)" />
<use xlink:href="#f1_bf" transform="matrix(11,0,0,11,368.3,1195.3)" />
<use xlink:href="#f1_7z" transform="matrix(11,0,0,11,373.8,1195.3)" />
<use xlink:href="#f1_am" transform="matrix(11,0,0,11,388.8,1195.3)" />
<use xlink:href="#f1_af" transform="matrix(11,0,0,11,397.6,1195.3)" />
<use xlink:href="#f1_a8" transform="matrix(11,0,0,11,406.4,1195.3)" />
<use xlink:href="#f1_co" transform="matrix(11,0,0,11,410.4,1195.3)" />
<use xlink:href="#f1_89" transform="matrix(11,0,0,11,424.7,1195.3)" />
<use xlink:href="#f1_am" transform="matrix(11,0,0,11,429.9,1195.3)" />
<use xlink:href="#f1_am" transform="matrix(11,0,0,11,438.6,1195.3)" />
<use xlink:href="#f1_7v" transform="matrix(11,0,0,11,447.5,1195.3)" />
<use xlink:href="#f1_7l" transform="matrix(11,0,0,11,463.2,1195.3)" />
<use xlink:href="#f1_9n" transform="matrix(11,0,0,11,470.1,1195.3)" />
<use xlink:href="#f1_77" transform="matrix(11,0,0,11,479.3,1195.3)" />
<use xlink:href="#f1_9q" transform="matrix(11,0,0,11,487.4,1195.3)" />
<use xlink:href="#f1_af" transform="matrix(11,0,0,11,491.4,1195.3)" />
<use xlink:href="#f1_b5" transform="matrix(11,0,0,11,500.2,1195.3)" />
<use xlink:href="#f1_77" transform="matrix(11,0,0,11,513.4,1195.3)" />
<use xlink:href="#f1_af" transform="matrix(11,0,0,11,521.4,1195.3)" />
<use xlink:href="#f1_7v" transform="matrix(11,0,0,11,530.2,1195.3)" />
<use xlink:href="#f1_af" transform="matrix(11,0,0,11,545.6,1195.3)" />
<use xlink:href="#f1_am" transform="matrix(11,0,0,11,554.4,1195.3)" />
<use xlink:href="#f1_bf" transform="matrix(11,0,0,11,563.2,1195.3)" />
<use xlink:href="#f1_89" transform="matrix(11,0,0,11,575.3,1195.3)" />
<use xlink:href="#f1_am" transform="matrix(11,0,0,11,580.8,1195.3)" />
<use xlink:href="#f1_am" transform="matrix(11,0,0,11,589.6,1195.3)" />
<use xlink:href="#f1_7v" transform="matrix(11,0,0,11,598.4,1195.3)" />
<use xlink:href="#f1_ci" transform="matrix(11,0,0,11,613.8,1195.3)" />
<use xlink:href="#f1_7z" transform="matrix(11,0,0,11,625.8,1195.3)" />
<use xlink:href="#f1_7k" transform="matrix(11,0,0,11,634.3,1195.3)" />
<use xlink:href="#f1_b5" transform="matrix(11,0,0,11,643.1,1195.3)" />
<use xlink:href="#f1_nt" transform="matrix(11,0,0,11,649.7,1195.3)" />
<use xlink:href="#f1_2t" transform="matrix(11,0,0,11,660.6,1195.3)" />
<use xlink:href="#f1_9n" transform="matrix(11,0,0,11,668.7,1195.3)" />
<use xlink:href="#f1_7z" transform="matrix(11,0,0,11,677.5,1195.3)" />
<use xlink:href="#f1_co" transform="matrix(11,0,0,11,685.9,1195.3)" />
<use xlink:href="#f1_7l" transform="matrix(11,0,0,11,700.6,1195.3)" />
<use xlink:href="#f1_77" transform="matrix(11,0,0,11,707.5,1195.3)" />
<use xlink:href="#f1_af" transform="matrix(11,0,0,11,715.6,1195.3)" />
<use xlink:href="#f1_77" transform="matrix(11,0,0,11,731,1195.3)" />
<use xlink:href="#f1_a8" transform="matrix(11,0,0,11,739.1,1195.3)" />
<use xlink:href="#f1_b5" transform="matrix(11,0,0,11,743.1,1195.3)" />
<use xlink:href="#f1_am" transform="matrix(11,0,0,11,749.7,1195.3)" />
<use xlink:href="#f1_af" transform="matrix(11,0,0,11,765,1195.3)" />
<use xlink:href="#f1_7z" transform="matrix(11,0,0,11,773.8,1195.3)" />
<use xlink:href="#f1_ch" transform="matrix(11,0,0,11,782.2,1195.3)" />
<use xlink:href="#f1_7z" transform="matrix(11,0,0,11,790,1195.3)" />
<use xlink:href="#f1_b1" transform="matrix(11,0,0,11,798.4,1195.3)" />
<use xlink:href="#f1_7v" transform="matrix(11,0,0,11,810.8,1195.3)" />
<use xlink:href="#f1_7z" transform="matrix(11,0,0,11,819.7,1195.3)" />
<use xlink:href="#f1_ay" transform="matrix(11,0,0,11,828.1,1195.3)" />
<use xlink:href="#f1_9q" transform="matrix(11,0,0,11,836.9,1195.3)" />
<use xlink:href="#f1_7l" transform="matrix(11,0,0,11,840.9,1195.3)" />
<use xlink:href="#f1_bf" transform="matrix(11,0,0,11,847.9,1195.3)" />
<use xlink:href="#f1_b5" transform="matrix(11,0,0,11,110,1215.8)" />
<use xlink:href="#f1_77" transform="matrix(11,0,0,11,116.6,1215.8)" />
<use xlink:href="#f1_ay" transform="matrix(11,0,0,11,124.7,1215.8)" />
<use xlink:href="#f1_b1" transform="matrix(11,0,0,11,133.5,1215.8)" />
<use xlink:href="#f1_am" transform="matrix(11,0,0,11,139.4,1215.8)" />
<use xlink:href="#f1_bf" transform="matrix(11,0,0,11,148.2,1215.8)" />
<use xlink:href="#f1_b1" transform="matrix(11,0,0,11,153.7,1215.8)" />
<use xlink:href="#f1_am" transform="matrix(11,0,0,11,159.6,1215.8)" />
<use xlink:href="#f1_ay" transform="matrix(11,0,0,11,168.3,1215.8)" />
<use xlink:href="#f1_9n" transform="matrix(11,0,0,11,177.1,1215.8)" />
<use xlink:href="#f1_b5" transform="matrix(11,0,0,11,186,1215.8)" />
<use xlink:href="#f1_nt" transform="matrix(11,0,0,11,192.5,1215.8)" />
</g>
<image preserveAspectRatio="none" x="110" y="55" width="543" height="258" xlink:href="img/1.png" />
<image preserveAspectRatio="none" x="110" y="355" width="534" height="233" xlink:href="img/2.png" />
<image preserveAspectRatio="none" x="110" y="609" width="556" height="145" xlink:href="img/3.png" />
<image preserveAspectRatio="none" x="110" y="754" width="555" height="276" xlink:href="img/4.png" />
<g fill="#000000" >
<use xlink:href="#f2_q" transform="matrix(8,0,0,8,792.5,1264.1)" />
</g>
<defs>
<path d="M273,157c0,0,-114,0,-193,80C80,237,0,317,0,431c0,0,0,112,80,192c0,0,79,80,193,80c0,0,113,0,192,-80c0,0,80,-80,80,-192c0,0,0,-114,-80,-194c0,0,-79,-80,-192,-80Z" 
id="f0_3d"
transform="scale(0.001,-0.001)" />

<path d="M604,356L436,837h-1L269,356ZM87,-4c0,0,-22,0,-36,2C51,-2,37,0,32,4c0,0,-6,5,-6,15c0,0,1,10,7,27L357,943c0,0,3,8,7,13c0,0,5,6,15,9c0,0,9,3,23,4c0,0,15,1,37,1c0,0,24,0,40,-1c0,0,16,-1,25,-4c0,0,10,-3,15,-9c0,0,5,-5,8,-14L851,45c0,0,6,-16,7,-26c0,0,0,-10,-6,-16c0,0,-6,-4,-20,-5c0,0,-14,-2,-37,-2c0,0,-23,0,-37,1c0,0,-14,1,-21,3c0,0,-7,3,-10,7c0,0,-3,5,-6,11L638,253H236L157,21c0,0,-2,-6,-6,-11c0,0,-3,-5,-10,-9c0,0,-7,-2,-21,-3c0,0,-13,-2,-33,-2Z" 
id="f1_5"
transform="scale(0.001,-0.001)" />

<path d="M176,-4c0,0,-18,0,-30,2c0,0,-12,1,-19,3c0,0,-7,3,-10,7c0,0,-3,4,-3,10V690c0,0,0,6,3,10c0,0,2,4,9,7c0,0,6,4,17,5c0,0,10,1,27,1c0,0,17,0,28,-1c0,0,10,-1,16,-5c0,0,6,-3,9,-7c0,0,3,-4,3,-10V601c0,0,56,64,112,94c0,0,57,30,114,30c0,0,67,0,113,-23c0,0,46,-23,74,-61c0,0,29,-38,41,-89c0,0,12,-52,12,-123V18c0,0,0,-6,-3,-10c0,0,-3,-4,-9,-7c0,0,-7,-2,-19,-3c0,0,-12,-2,-30,-2c0,0,-19,0,-30,2c0,0,-12,1,-19,3c0,0,-7,3,-10,7c0,0,-3,4,-3,10V412c0,0,0,58,-9,93c0,0,-9,35,-26,61c0,0,-17,25,-44,38c0,0,-27,14,-63,14c0,0,-46,0,-93,-33c0,0,-46,-33,-97,-96V18c0,0,0,-6,-3,-10c0,0,-2,-4,-9,-7c0,0,-7,-2,-19,-3c0,0,-12,-2,-30,-2Z" 
id="f1_af"
transform="scale(0.001,-0.001)" />

<path d="M252,-271c0,0,-19,0,-31,2c0,0,-12,2,-18,6c0,0,-7,5,-8,12c0,0,0,8,4,18L292,0c0,0,-7,3,-13,10c0,0,-6,6,-8,14L31,665c0,0,-6,16,-6,25c0,0,0,9,6,14c0,0,6,5,20,7c0,0,13,2,36,2c0,0,22,0,35,-1c0,0,12,-1,20,-4c0,0,7,-3,11,-9c0,0,3,-6,7,-15L351,145h3L539,687c0,0,4,14,10,18c0,0,7,4,19,6c0,0,13,2,37,2c0,0,21,0,34,-2c0,0,14,-2,20,-7c0,0,6,-5,6,-14c0,0,0,-9,-4,-23L420,0L330,-246c0,0,-4,-12,-22,-18c0,0,-19,-7,-56,-7Z" 
id="f1_co"
transform="scale(0.001,-0.001)" />

<path d="M367,-13c0,0,-73,0,-129,23c0,0,-56,24,-93,70c0,0,-38,46,-58,112c0,0,-20,67,-20,154c0,0,0,99,25,171c0,0,24,71,66,116c0,0,42,46,99,68c0,0,58,22,124,22c0,0,32,0,62,-6c0,0,31,-6,56,-16c0,0,25,-10,45,-22c0,0,20,-13,29,-22c0,0,9,-9,12,-14c0,0,3,-5,6,-13c0,0,2,-7,3,-16c0,0,0,-9,0,-22c0,0,0,-29,-6,-41c0,0,-7,-11,-17,-11c0,0,-11,0,-25,12c0,0,-15,12,-37,27c0,0,-23,15,-55,28c0,0,-31,12,-75,12c0,0,-88,0,-136,-68c0,0,-47,-68,-47,-198c0,0,0,-65,12,-114c0,0,12,-49,36,-81c0,0,24,-33,59,-49c0,0,35,-16,79,-16c0,0,43,0,75,13c0,0,32,14,56,30c0,0,23,16,39,29c0,0,16,13,25,13c0,0,5,0,9,-3c0,0,4,-3,7,-10c0,0,2,-7,3,-18c0,0,1,-11,1,-26c0,0,0,-12,0,-22c0,0,-1,-9,-3,-15c0,0,-2,-7,-4,-12c0,0,-3,-4,-12,-14c0,0,-10,-9,-32,-23c0,0,-22,-14,-50,-24C496,11,468,0,435,-6c0,0,-33,-7,-68,-7Z" 
id="f1_7l"
transform="scale(0.001,-0.001)" />

<path d="M321,82c0,0,48,0,90,25c0,0,41,24,87,75V325H392c0,0,-50,0,-88,-9c0,0,-37,-9,-62,-25c0,0,-24,-17,-36,-41c0,0,-11,-23,-11,-54c0,0,0,-52,33,-83c0,0,33,-31,93,-31ZM301,-13c0,0,-53,0,-96,13c0,0,-43,14,-73,40c0,0,-30,26,-47,64c0,0,-17,38,-17,87c0,0,0,56,24,98c0,0,23,42,66,69c0,0,43,28,106,42c0,0,63,14,141,14h93v52c0,0,0,39,-9,69c0,0,-8,30,-26,50c0,0,-18,20,-47,30c0,0,-30,10,-72,10c0,0,-46,0,-82,-11c0,0,-36,-11,-63,-24c0,0,-27,-13,-46,-24c0,0,-18,-11,-27,-11c0,0,-6,0,-10,3c0,0,-5,3,-8,9c0,0,-3,6,-5,16c0,0,-1,9,-1,20c0,0,0,19,2,30c0,0,3,11,13,20c0,0,10,10,35,23c0,0,24,13,56,24c0,0,32,10,70,17c0,0,38,8,77,8c0,0,73,0,123,-17c0,0,51,-16,82,-48c0,0,32,-32,46,-79c0,0,14,-47,14,-110V18c0,0,0,-9,-6,-14c0,0,-6,-4,-16,-6c0,0,-11,-2,-31,-2c0,0,-19,0,-31,2c0,0,-12,2,-17,6c0,0,-5,5,-5,13V85c0,0,-44,-47,-98,-73c0,0,-54,-25,-115,-25Z" 
id="f1_77"
transform="scale(0.001,-0.001)" />

<path d="M176,-4c0,0,-18,0,-30,2c0,0,-12,1,-19,3c0,0,-7,3,-10,7c0,0,-3,4,-3,10v997c0,0,0,6,3,11c0,0,3,4,10,7c0,0,7,3,19,5c0,0,12,1,30,1c0,0,18,0,30,-1c0,0,12,-2,19,-5c0,0,7,-3,9,-7c0,0,3,-5,3,-11V18c0,0,0,-6,-3,-10c0,0,-2,-4,-9,-7c0,0,-7,-2,-19,-3c0,0,-12,-2,-30,-2Z" 
id="f1_a8"
transform="scale(0.001,-0.001)" />

<path d="M351,-13c0,0,-67,0,-113,22c0,0,-46,22,-75,60c0,0,-28,39,-40,90c0,0,-13,51,-13,124V690c0,0,0,6,3,10c0,0,3,4,10,7c0,0,8,4,20,5c0,0,11,1,29,1c0,0,18,0,30,-1c0,0,12,-1,19,-5c0,0,7,-3,10,-7c0,0,3,-4,3,-10V299c0,0,0,-59,9,-94c0,0,8,-36,26,-61c0,0,18,-24,44,-38c0,0,27,-14,63,-14c0,0,46,0,92,33c0,0,46,32,98,95V690c0,0,0,6,2,10c0,0,3,4,10,7c0,0,8,4,19,5c0,0,12,1,30,1c0,0,18,0,30,-1c0,0,12,-1,19,-5c0,0,7,-3,10,-7c0,0,3,-4,3,-10V18c0,0,0,-6,-2,-10c0,0,-3,-4,-10,-7c0,0,-6,-2,-17,-3c0,0,-11,-2,-27,-2c0,0,-17,0,-28,2c0,0,-10,1,-17,3c0,0,-6,3,-8,7c0,0,-3,4,-3,10v89c0,0,-57,-63,-113,-92c0,0,-56,-28,-113,-28Z" 
id="f1_c6"
transform="scale(0.001,-0.001)" />

<path d="M339,-13c0,0,-52,0,-90,13c0,0,-37,14,-61,42c0,0,-24,28,-34,71c0,0,-11,43,-11,101V607H49c0,0,-11,0,-18,12c0,0,-7,12,-7,39c0,0,0,14,2,24c0,0,2,10,5,16c0,0,3,7,8,9c0,0,5,3,11,3h93V870c0,0,0,5,2,9c0,0,3,5,10,8c0,0,7,4,19,5c0,0,12,2,30,2c0,0,19,0,31,-2c0,0,11,-1,18,-5c0,0,7,-3,10,-8c0,0,3,-4,3,-9V710H438c0,0,6,0,10,-3c0,0,5,-2,8,-9c0,0,4,-6,5,-16c0,0,1,-10,1,-24c0,0,0,-27,-6,-39c0,0,-7,-12,-18,-12H266V232c0,0,0,-69,20,-105c0,0,21,-35,74,-35c0,0,17,0,30,3c0,0,14,4,24,7c0,0,10,4,18,7c0,0,7,4,13,4c0,0,4,0,7,-2c0,0,4,-2,6,-7c0,0,2,-5,3,-14c0,0,1,-9,1,-23c0,0,0,-22,-2,-34c0,0,-3,-13,-9,-19c0,0,-6,-6,-18,-11c0,0,-12,-4,-28,-8c0,0,-15,-3,-32,-5c0,0,-17,-3,-34,-3Z" 
id="f1_bf"
transform="scale(0.001,-0.001)" />

<path d="M176,-4c0,0,-18,0,-30,2c0,0,-12,1,-19,3c0,0,-7,3,-10,7c0,0,-3,4,-3,10V690c0,0,0,5,3,9c0,0,3,5,10,8c0,0,7,3,19,4c0,0,12,2,30,2c0,0,18,0,30,-2c0,0,12,-1,19,-4c0,0,7,-3,9,-8c0,0,3,-4,3,-9V18c0,0,0,-6,-3,-10c0,0,-2,-4,-9,-7c0,0,-7,-2,-19,-3c0,0,-12,-2,-30,-2Zm-1,846c0,0,-43,0,-59,15c0,0,-16,15,-16,58c0,0,0,43,16,59c0,0,17,16,61,16c0,0,43,0,59,-16c0,0,16,-15,16,-58c0,0,0,-43,-16,-58c0,0,-17,-16,-61,-16Z" 
id="f1_9q"
transform="scale(0.001,-0.001)" />

<path d="M401,90c0,0,54,0,93,19c0,0,40,20,65,55c0,0,26,35,37,84c0,0,12,48,12,106c0,0,0,55,-10,104c0,0,-10,48,-33,85c0,0,-23,36,-62,58c0,0,-40,21,-99,21c0,0,-54,0,-93,-20c0,0,-39,-19,-65,-54c0,0,-25,-36,-37,-85c0,0,-12,-48,-12,-106c0,0,0,-55,10,-103c0,0,10,-49,33,-85c0,0,24,-36,63,-58c0,0,39,-21,98,-21ZM395,-13c0,0,-82,0,-144,24c0,0,-61,25,-102,72c0,0,-41,47,-61,114c0,0,-21,67,-21,152c0,0,0,82,22,151c0,0,21,69,64,119c0,0,43,50,107,78c0,0,64,28,150,28c0,0,82,0,144,-25c0,0,61,-25,102,-72c0,0,41,-47,62,-114c0,0,20,-67,20,-151c0,0,0,-83,-21,-152c0,0,-22,-69,-65,-119C652,92,609,42,545,14c0,0,-65,-27,-150,-27Z" 
id="f1_am"
transform="scale(0.001,-0.001)" />

<path d="M272,-13c0,0,-35,0,-68,6c0,0,-32,6,-58,13c0,0,-26,9,-44,18c0,0,-17,10,-26,17c0,0,-8,8,-12,21c0,0,-3,14,-3,37c0,0,0,14,1,24c0,0,2,9,4,15c0,0,2,6,6,9c0,0,4,3,10,3c0,0,8,0,24,-11c0,0,16,-10,39,-22c0,0,24,-12,56,-22c0,0,32,-10,74,-10c0,0,31,0,56,7c0,0,26,6,44,19c0,0,19,14,29,34c0,0,10,20,10,47c0,0,0,29,-14,48c0,0,-15,19,-39,34c0,0,-24,15,-53,27c0,0,-30,11,-62,24c0,0,-32,13,-62,29c0,0,-30,16,-54,39c0,0,-24,23,-38,55c0,0,-15,32,-15,77c0,0,0,40,16,76c0,0,15,36,45,63c0,0,31,28,77,44c0,0,46,17,107,17c0,0,27,0,54,-5c0,0,26,-5,48,-11c0,0,22,-7,37,-15c0,0,15,-8,23,-14c0,0,8,-6,11,-11c0,0,2,-4,3,-10c0,0,1,-5,2,-14c0,0,2,-8,2,-20c0,0,0,-12,-2,-22c0,0,-1,-9,-3,-15c0,0,-3,-6,-7,-8c0,0,-3,-3,-8,-3c0,0,-7,0,-19,8c0,0,-13,8,-33,18c0,0,-20,9,-47,17c0,0,-28,9,-63,9c0,0,-31,0,-55,-7c0,0,-24,-7,-39,-20c0,0,-15,-13,-23,-31c0,0,-8,-18,-8,-39c0,0,0,-29,15,-49c0,0,15,-20,39,-35c0,0,24,-15,54,-27c0,0,31,-11,62,-24c0,0,32,-13,63,-29c0,0,31,-15,55,-38c0,0,24,-22,38,-53c0,0,15,-32,15,-75c0,0,0,-51,-19,-92c0,0,-19,-40,-54,-68C463,42,428,15,379,1c0,0,-48,-14,-107,-14Z" 
id="f1_b5"
transform="scale(0.001,-0.001)" />

<path d="M209,-4c0,0,-18,0,-30,2c0,0,-12,1,-19,3c0,0,-7,3,-10,7c0,0,-3,4,-3,10V607H52c0,0,-12,0,-18,12c0,0,-6,12,-6,39c0,0,0,14,2,24c0,0,1,10,4,16c0,0,3,7,8,9c0,0,4,3,10,3h95v69c0,0,0,71,13,121c0,0,13,50,40,82c0,0,27,33,67,48c0,0,41,15,96,15c0,0,26,0,51,-5c0,0,25,-4,38,-10c0,0,13,-6,18,-10c0,0,4,-5,7,-12c0,0,3,-7,5,-17c0,0,1,-10,1,-24c0,0,0,-15,-2,-23c0,0,-1,-9,-3,-14c0,0,-2,-5,-5,-7c0,0,-3,-2,-8,-2c0,0,-5,0,-13,3c0,0,-7,4,-19,8c0,0,-11,4,-26,7c0,0,-15,4,-36,4c0,0,-27,0,-47,-9c0,0,-19,-9,-31,-28c0,0,-12,-19,-17,-50c0,0,-5,-30,-5,-73V710H421c0,0,6,0,10,-3c0,0,4,-2,7,-9c0,0,4,-6,6,-16c0,0,2,-10,2,-24c0,0,0,-27,-7,-39c0,0,-7,-12,-18,-12H271V18c0,0,0,-6,-3,-10c0,0,-3,-4,-11,-7c0,0,-7,-2,-19,-3c0,0,-12,-2,-29,-2Z" 
id="f1_89"
transform="scale(0.001,-0.001)" />

<path d="M564,420c0,0,2,98,-43,153c0,0,-46,56,-134,56c0,0,-46,0,-80,-18c0,0,-35,-17,-58,-45c0,0,-23,-29,-36,-67c0,0,-12,-37,-14,-79ZM405,-13c0,0,-83,0,-145,22c0,0,-62,24,-105,69c0,0,-42,46,-64,114c0,0,-22,69,-22,160c0,0,0,87,23,156c0,0,22,69,64,117c0,0,43,48,102,74c0,0,60,26,134,26c0,0,79,0,135,-26c0,0,55,-25,91,-68c0,0,36,-43,53,-101c0,0,16,-58,16,-123V384c0,0,0,-29,-14,-41c0,0,-15,-13,-33,-13H199c0,0,0,-56,11,-100c0,0,12,-45,38,-77c0,0,26,-33,68,-50c0,0,41,-17,102,-17c0,0,48,0,85,8c0,0,37,8,65,17c0,0,27,10,44,18c0,0,18,8,27,8c0,0,5,0,9,-3c0,0,4,-2,7,-8c0,0,2,-5,3,-14c0,0,1,-9,1,-23c0,0,0,-9,-1,-16c0,0,0,-8,-2,-13c0,0,-1,-6,-3,-10c0,0,-3,-5,-7,-9c0,0,-4,-4,-24,-13c0,0,-20,-10,-53,-18c0,0,-32,-9,-74,-16c0,0,-42,-7,-90,-7Z" 
id="f1_7z"
transform="scale(0.001,-0.001)" />

<path d="M176,-4c0,0,-18,0,-30,2c0,0,-12,1,-19,3c0,0,-7,3,-10,7c0,0,-3,4,-3,10V690c0,0,0,6,3,10c0,0,2,4,9,7c0,0,6,4,17,5c0,0,10,1,27,1c0,0,17,0,28,-1c0,0,10,-1,16,-5c0,0,6,-3,9,-7c0,0,3,-4,3,-10V592c0,0,27,41,51,66c0,0,25,26,46,41c0,0,22,14,43,20c0,0,21,6,43,6c0,0,10,0,22,-2c0,0,12,-1,26,-4c0,0,13,-3,24,-6c0,0,11,-4,15,-8c0,0,5,-4,6,-7c0,0,2,-3,3,-9c0,0,1,-5,1,-15c0,0,0,-10,0,-27c0,0,0,-16,0,-28c0,0,-1,-11,-3,-17c0,0,-2,-6,-6,-10c0,0,-3,-3,-9,-3c0,0,-6,0,-15,3c0,0,-8,4,-19,7c0,0,-11,3,-24,6c0,0,-14,3,-29,3c0,0,-19,0,-37,-7c0,0,-18,-8,-37,-25c0,0,-20,-18,-42,-46c0,0,-21,-29,-48,-70V18c0,0,0,-6,-3,-10c0,0,-2,-4,-9,-7c0,0,-7,-2,-19,-3c0,0,-12,-2,-30,-2Z" 
id="f1_b1"
transform="scale(0.001,-0.001)" />

<path d="M346,-177c0,0,56,0,94,11c0,0,37,11,60,28c0,0,24,18,34,41c0,0,10,23,10,49c0,0,0,43,-36,65c0,0,-35,23,-95,25L239,48c0,0,-24,-19,-39,-35c0,0,-15,-16,-24,-31c0,0,-9,-16,-12,-30c0,0,-4,-15,-4,-31c0,0,0,-48,49,-73c0,0,50,-25,137,-25Zm-6,512c0,0,36,0,63,12c0,0,27,12,44,32c0,0,18,21,26,48c0,0,9,27,9,56c0,0,0,69,-38,107c0,0,-37,39,-107,39c0,0,-35,0,-62,-12c0,0,-26,-12,-44,-33c0,0,-17,-21,-26,-48c0,0,-8,-28,-8,-58c0,0,0,-66,37,-104c0,0,38,-39,106,-39Zm0,-606c0,0,-81,0,-138,14c0,0,-57,14,-94,38c0,0,-36,24,-52,57c0,0,-17,33,-17,72c0,0,0,24,6,47c0,0,6,24,18,43c0,0,13,21,31,40c0,0,18,19,42,38c0,0,-36,19,-54,47c0,0,-17,28,-17,61c0,0,0,45,18,81c0,0,19,36,46,64c0,0,-23,28,-36,62c0,0,-14,35,-14,84c0,0,0,58,20,104c0,0,19,45,53,77c0,0,35,31,83,48c0,0,48,17,105,17c0,0,30,0,57,-4c0,0,26,-3,49,-9H649c0,0,13,0,19,-12c0,0,7,-13,7,-38c0,0,0,-26,-7,-37c0,0,-7,-12,-19,-12H553c0,0,26,-27,37,-60c0,0,10,-32,10,-68c0,0,0,-58,-18,-103c0,0,-19,-45,-54,-76c0,0,-34,-31,-82,-47c0,0,-48,-16,-106,-16c0,0,-41,0,-78,10c0,0,-37,11,-57,28c0,0,-14,-14,-22,-31c0,0,-9,-17,-9,-39c0,0,0,-27,24,-44c0,0,25,-17,65,-18l175,-8c0,0,50,-1,92,-14c0,0,41,-12,72,-35c0,0,31,-22,48,-55c0,0,17,-34,17,-76c0,0,0,-47,-20,-88c0,0,-19,-42,-59,-74c0,0,-40,-31,-102,-50c0,0,-61,-18,-146,-18Z" 
id="f1_9d"
transform="scale(0.001,-0.001)" />

<path d="M69,-215c0,0,-12,0,-21,1c0,0,-8,1,-12,4c0,0,-4,2,-4,7c0,0,-1,4,2,10L134,11v96c0,0,0,20,4,32c0,0,4,12,13,18c0,0,9,6,22,8c0,0,13,2,33,2c0,0,19,0,32,-2c0,0,13,-2,22,-8c0,0,9,-6,13,-18c0,0,4,-12,4,-32c0,0,0,-23,-2,-43c0,0,-3,-19,-8,-36c0,0,-5,-17,-14,-33c0,0,-8,-17,-21,-36L130,-194c0,0,-4,-5,-9,-9c0,0,-5,-4,-12,-7c0,0,-7,-3,-16,-4c0,0,-9,-1,-24,-1Z" 
id="f1_nq"
transform="scale(0.001,-0.001)" />

<path d="M431,92c0,0,46,0,79,22c0,0,33,23,53,60c0,0,21,37,30,83c0,0,10,46,10,93c0,0,0,51,-8,100c0,0,-8,49,-28,86c0,0,-19,37,-51,60c0,0,-32,23,-80,23c0,0,-24,0,-47,-7c0,0,-23,-7,-47,-22c0,0,-24,-16,-50,-41c0,0,-25,-24,-55,-62V219c0,0,51,-62,98,-95c0,0,46,-32,96,-32ZM443,-13c0,0,-32,0,-59,7c0,0,-27,6,-53,19c0,0,-26,14,-52,36c0,0,-27,22,-56,52V18c0,0,0,-6,-3,-10c0,0,-3,-5,-9,-7c0,0,-7,-2,-17,-3c0,0,-10,-2,-26,-2c0,0,-15,0,-25,2c0,0,-11,1,-17,3c0,0,-7,2,-9,7c0,0,-3,4,-3,10v997c0,0,0,6,3,11c0,0,3,4,10,7c0,0,7,3,19,5c0,0,12,1,30,1c0,0,18,0,30,-1c0,0,12,-2,19,-5c0,0,7,-3,9,-7c0,0,3,-5,3,-10V614c0,0,30,31,58,52c0,0,28,20,55,34c0,0,27,13,54,19c0,0,27,6,57,6c0,0,73,0,125,-30c0,0,52,-29,84,-78c0,0,32,-48,47,-114c0,0,15,-66,15,-139c0,0,0,-87,-19,-157c0,0,-19,-70,-56,-119c0,0,-37,-49,-90,-76c0,0,-54,-25,-124,-25Z" 
id="f1_7k"
transform="scale(0.001,-0.001)" />

<path d="M176,-4c0,0,-18,0,-30,2c0,0,-12,1,-19,3c0,0,-7,3,-10,7c0,0,-3,4,-3,10V690c0,0,0,6,3,10c0,0,2,4,9,7c0,0,6,4,17,5c0,0,10,1,27,1c0,0,17,0,28,-1c0,0,10,-1,16,-5c0,0,6,-3,9,-7c0,0,3,-4,3,-10V601c0,0,56,64,110,94c0,0,53,30,108,30c0,0,42,0,75,-10c0,0,33,-10,58,-28c0,0,26,-17,44,-42c0,0,18,-24,30,-55c0,0,33,37,63,63c0,0,31,26,59,41c0,0,28,16,54,23c0,0,27,8,53,8c0,0,65,0,109,-23c0,0,44,-23,71,-61c0,0,28,-38,39,-89c0,0,12,-52,12,-108V18c0,0,0,-6,-3,-10c0,0,-3,-4,-10,-7c0,0,-7,-2,-19,-3c0,0,-12,-2,-29,-2c0,0,-19,0,-31,2c0,0,-12,1,-19,3c0,0,-7,3,-10,7c0,0,-3,4,-3,10V427c0,0,0,43,-8,78c0,0,-7,35,-23,61c0,0,-17,25,-42,38c0,0,-25,14,-60,14c0,0,-42,0,-85,-33c0,0,-43,-33,-94,-96V18c0,0,0,-6,-3,-10c0,0,-3,-4,-11,-7c0,0,-7,-2,-19,-3c0,0,-11,-2,-29,-2c0,0,-18,0,-30,2c0,0,-12,1,-19,3c0,0,-7,3,-10,7c0,0,-3,4,-3,10V427c0,0,0,43,-8,78c0,0,-8,35,-24,61c0,0,-17,25,-42,38c0,0,-25,14,-59,14c0,0,-43,0,-86,-33c0,0,-44,-33,-95,-96V18c0,0,0,-6,-3,-10c0,0,-2,-4,-9,-7c0,0,-7,-2,-19,-3c0,0,-12,-2,-30,-2Z" 
id="f1_ae"
transform="scale(0.001,-0.001)" />

<path d="M366,92c0,0,25,0,48,7c0,0,22,6,46,22c0,0,24,16,50,41c0,0,26,24,56,61V492c0,0,-51,62,-97,94c0,0,-47,33,-98,33c0,0,-47,0,-79,-22c0,0,-33,-23,-54,-59c0,0,-20,-37,-30,-83c0,0,-9,-47,-9,-94c0,0,0,-51,8,-100c0,0,8,-48,27,-86c0,0,19,-38,52,-60c0,0,32,-23,80,-23ZM345,-13c0,0,-74,0,-127,28c0,0,-52,29,-84,78c0,0,-33,49,-48,115c0,0,-15,66,-15,139c0,0,0,86,19,156c0,0,19,70,55,119c0,0,37,50,91,76c0,0,54,27,125,27c0,0,59,0,108,-26c0,0,49,-26,97,-76v390c0,0,0,5,2,10c0,0,3,4,10,7c0,0,8,3,19,5c0,0,12,1,30,1c0,0,18,0,30,-1c0,0,12,-2,19,-5c0,0,7,-3,10,-7c0,0,3,-5,3,-10V18c0,0,0,-6,-2,-10c0,0,-3,-5,-9,-7c0,0,-7,-2,-17,-3c0,0,-10,-2,-25,-2c0,0,-16,0,-26,2c0,0,-11,1,-18,3c0,0,-6,2,-9,7c0,0,-3,4,-3,10v90c0,0,-53,-58,-110,-90c0,0,-58,-31,-125,-31Z" 
id="f1_7v"
transform="scale(0.001,-0.001)" />

<path d="M176,-4c0,0,-18,0,-30,2c0,0,-12,1,-19,3c0,0,-7,3,-10,7c0,0,-3,4,-3,10v997c0,0,0,6,3,11c0,0,3,4,10,7c0,0,7,3,19,5c0,0,12,1,30,1c0,0,18,0,30,-1c0,0,12,-2,19,-5c0,0,7,-3,9,-7c0,0,3,-5,3,-10V614c0,0,53,56,107,83c0,0,54,28,108,28c0,0,67,0,113,-23c0,0,46,-23,74,-61c0,0,29,-38,41,-89c0,0,12,-52,12,-124V18c0,0,0,-6,-3,-10c0,0,-3,-4,-9,-7c0,0,-7,-2,-19,-3c0,0,-12,-2,-30,-2c0,0,-19,0,-30,2c0,0,-12,1,-19,3c0,0,-7,3,-10,7c0,0,-3,4,-3,10V412c0,0,0,58,-9,93c0,0,-9,35,-26,61c0,0,-17,25,-44,38c0,0,-27,14,-63,14c0,0,-46,0,-93,-33c0,0,-46,-33,-97,-96V18c0,0,0,-6,-3,-10c0,0,-2,-4,-9,-7c0,0,-7,-2,-19,-3c0,0,-12,-2,-30,-2Z" 
id="f1_9n"
transform="scale(0.001,-0.001)" />

<path d="M429,92c0,0,47,0,80,22c0,0,33,23,54,60c0,0,20,38,30,84c0,0,10,46,10,93c0,0,0,52,-8,100c0,0,-8,48,-27,86c0,0,-19,37,-51,60c0,0,-32,22,-80,22c0,0,-24,0,-47,-7c0,0,-23,-7,-47,-23c0,0,-24,-15,-50,-40c0,0,-26,-25,-56,-62V220c0,0,51,-62,97,-95c0,0,45,-33,95,-33ZM176,-271c0,0,-18,0,-30,2c0,0,-12,1,-19,4c0,0,-7,3,-10,8c0,0,-3,4,-3,10V690c0,0,0,6,3,10c0,0,2,5,9,8c0,0,6,3,17,4c0,0,10,1,25,1c0,0,16,0,26,-1c0,0,10,-1,17,-4c0,0,6,-3,9,-7c0,0,3,-4,3,-11V601c0,0,30,31,59,54c0,0,28,23,57,39c0,0,28,15,59,23c0,0,30,8,63,8c0,0,74,0,125,-29c0,0,52,-28,84,-77c0,0,32,-50,47,-115c0,0,15,-65,15,-139c0,0,0,-88,-19,-158c0,0,-19,-70,-56,-119c0,0,-37,-49,-91,-75c0,0,-55,-26,-125,-26c0,0,-30,0,-55,6c0,0,-25,6,-50,18c0,0,-24,13,-48,32c0,0,-24,19,-51,46V-247c0,0,0,-6,-3,-10c0,0,-2,-5,-9,-8c0,0,-7,-3,-19,-4c0,0,-12,-2,-30,-2Z" 
id="f1_ay"
transform="scale(0.001,-0.001)" />

<path d="M346,-4c0,0,-23,0,-38,2c0,0,-15,1,-24,3c0,0,-9,3,-15,8c0,0,-5,6,-8,13L33,660c0,0,-3,9,-5,15c0,0,-2,7,-2,11c0,0,0,3,0,5c0,0,0,6,3,11c0,0,3,4,10,7c0,0,7,2,18,3c0,0,12,1,29,1c0,0,22,0,35,-1c0,0,13,-1,20,-4c0,0,7,-3,10,-8c0,0,4,-4,7,-11L347,135l3,-9l2,9L540,689c0,0,1,7,5,11c0,0,3,5,11,8c0,0,7,3,19,4c0,0,12,1,32,1c0,0,18,0,29,-1c0,0,11,-1,17,-4c0,0,7,-3,9,-7c0,0,3,-4,3,-10c0,0,0,-3,-1,-6c0,0,0,-4,-1,-7c0,0,0,-4,-2,-8c0,0,-1,-5,-2,-10L430,22c0,0,-3,-8,-8,-13c0,0,-5,-6,-15,-9c0,0,-9,-2,-24,-3c0,0,-15,-1,-37,-1Z" 
id="f1_ch"
transform="scale(0.001,-0.001)" />

<path d="M192,-6c0,0,-45,0,-62,16c0,0,-18,18,-18,69c0,0,0,53,18,71c0,0,18,17,64,17c0,0,45,0,62,-17c0,0,17,-17,17,-69c0,0,0,-53,-18,-70c0,0,-17,-17,-63,-17Z" 
id="f1_nt"
transform="scale(0.001,-0.001)" />

<path d="M192,-4c0,0,-18,0,-30,2c0,0,-13,2,-20,3c0,0,-8,3,-11,8c0,0,-3,4,-3,10V946c0,0,0,6,3,11c0,0,4,4,12,7c0,0,7,2,20,4c0,0,12,2,29,2c0,0,19,0,31,-2c0,0,13,-2,20,-4c0,0,7,-3,10,-7c0,0,3,-5,3,-11V19c0,0,0,-6,-3,-10c0,0,-3,-5,-10,-8c0,0,-7,-1,-20,-3c0,0,-12,-2,-31,-2Z" 
id="f1_1c"
transform="scale(0.001,-0.001)" />

<path d="M324,-4c0,0,-23,0,-37,2c0,0,-15,1,-24,3c0,0,-9,3,-14,8c0,0,-4,6,-7,13L46,660c0,0,-4,11,-5,18c0,0,-2,8,-2,13c0,0,0,7,3,11c0,0,3,4,10,7c0,0,8,2,19,3c0,0,12,1,30,1c0,0,20,0,33,-1c0,0,13,-1,20,-4c0,0,6,-3,9,-8c0,0,3,-4,5,-11L330,136l2,-7l1,7L482,689c0,0,1,7,5,11c0,0,3,5,10,8c0,0,6,3,18,4c0,0,12,1,31,1c0,0,18,0,29,-1c0,0,12,-1,18,-4c0,0,7,-3,10,-7c0,0,3,-5,5,-11L768,136l1,-7l1,7L930,689c0,0,1,7,5,11c0,0,3,5,10,8c0,0,7,3,20,4c0,0,12,1,31,1c0,0,18,0,29,-1c0,0,11,-1,17,-4c0,0,6,-3,9,-6c0,0,3,-4,3,-11c0,0,0,-5,-2,-13c0,0,-1,-7,-5,-18L849,22c0,0,-2,-8,-7,-13c0,0,-5,-6,-13,-9c0,0,-9,-2,-24,-3c0,0,-15,-1,-37,-1c0,0,-23,0,-39,2c0,0,-15,1,-25,3c0,0,-9,3,-14,8c0,0,-4,6,-6,13L543,510l-2,6l-2,-6L409,22c0,0,-3,-8,-7,-13c0,0,-5,-6,-15,-9c0,0,-10,-2,-25,-3c0,0,-15,-1,-38,-1Z" 
id="f1_ci"
transform="scale(0.001,-0.001)" />

<path d="M372,-4c0,0,-18,0,-30,2c0,0,-13,2,-21,3c0,0,-7,3,-10,8c0,0,-3,4,-3,10V857H36c0,0,-6,0,-11,3c0,0,-5,2,-8,9c0,0,-2,6,-4,17c0,0,-2,10,-2,24c0,0,0,14,2,25c0,0,2,11,4,17c0,0,3,7,8,10c0,0,5,3,11,3H708c0,0,6,0,11,-3c0,0,5,-3,8,-10c0,0,4,-6,5,-17c0,0,2,-11,2,-25c0,0,0,-14,-2,-24c0,0,-1,-11,-5,-17c0,0,-3,-7,-8,-9c0,0,-5,-3,-11,-3H436V19c0,0,0,-6,-3,-10c0,0,-3,-5,-10,-8c0,0,-8,-1,-20,-3c0,0,-12,-2,-31,-2Z" 
id="f1_2t"
transform="scale(0.001,-0.001)" />

<path d="M372,472c0,0,58,0,97,15c0,0,38,15,65,42c0,0,26,26,39,63c0,0,14,37,14,80c0,0,0,59,-22,99c0,0,-23,39,-55,59c0,0,-32,19,-67,24c0,0,-35,5,-68,5H256V472ZM192,-4c0,0,-18,0,-31,2c0,0,-12,2,-19,3c0,0,-8,3,-11,8c0,0,-3,4,-3,10V910c0,0,0,30,16,42c0,0,15,13,35,13H386c0,0,31,0,60,-3c0,0,28,-2,68,-11c0,0,39,-8,80,-32c0,0,40,-23,69,-58c0,0,28,-34,43,-79c0,0,16,-45,16,-100c0,0,0,-72,-24,-130c0,0,-24,-58,-69,-100c0,0,-44,-41,-109,-63c0,0,-64,-22,-154,-22H256V19c0,0,0,-6,-3,-10c0,0,-3,-5,-10,-8c0,0,-7,-1,-20,-3c0,0,-12,-2,-31,-2Z" 
id="f1_2g"
transform="scale(0.001,-0.001)" />

<path d="M176,0c0,0,-17,0,-33,12c0,0,-15,11,-15,40V913c0,0,0,29,15,41c0,0,16,11,33,11H635c0,0,6,0,10,-3c0,0,5,-3,8,-10c0,0,3,-6,5,-16c0,0,2,-10,2,-25c0,0,0,-14,-2,-24c0,0,-2,-10,-5,-16c0,0,-3,-7,-8,-10c0,0,-4,-2,-10,-2H256V555H581c0,0,6,0,11,-3c0,0,5,-3,8,-9c0,0,3,-6,5,-17c0,0,1,-10,1,-24c0,0,0,-14,-1,-23c0,0,-2,-10,-5,-16c0,0,-3,-6,-8,-9c0,0,-5,-2,-11,-2H256V107H640c0,0,6,0,11,-3c0,0,4,-3,8,-10c0,0,4,-6,5,-16c0,0,2,-10,2,-25c0,0,0,-14,-2,-24c0,0,-1,-10,-5,-16c0,0,-4,-7,-8,-10c0,0,-5,-3,-11,-3Z" 
id="f1_t"
transform="scale(0.001,-0.001)" />

<path d="M435,92c0,0,86,0,147,69c0,0,60,68,60,186c0,0,0,114,-60,179c0,0,-60,66,-152,66c0,0,-91,0,-154,-66c0,0,-64,-65,-64,-171c0,0,0,-70,30,-133c0,0,29,-64,82,-97c0,0,52,-33,111,-33Zm3,-110c0,0,-168,0,-274,123C164,105,58,228,58,512c0,0,0,317,117,461c0,0,102,125,275,125c0,0,129,0,212,-72c0,0,82,-72,99,-200L627,815c0,0,-18,79,-51,115c0,0,-54,58,-134,58c0,0,-64,0,-113,-36c0,0,-63,-46,-99,-135c0,0,-37,-89,-38,-253c0,0,48,74,118,110c0,0,70,36,147,36c0,0,135,0,229,-99c0,0,94,-99,94,-256c0,0,0,-103,-44,-191C736,164,691,75,614,28c0,0,-78,-46,-176,-46Z" 
id="f2_q"
transform="scale(0.001,-0.001)" />


</defs>
</svg>