<?xml version="1.0" encoding="UTF-8" standalone="no"?>
<!DOCTYPE svg PUBLIC "-//W3C//DTD SVG 1.1//EN"
"http://www.w3.org/Graphics/SVG/1.1/DTD/svg11.dtd">
<svg viewBox="0 0 935 1210" version="1.1" xmlns="http://www.w3.org/2000/svg" xmlns:xlink="http://www.w3.org/1999/xlink">
<defs>
<style type="text/css"><![CDATA[
.g0_76{
}
]]></style>
</defs>
<g fill="#000000" >
<use xlink:href="#f0_13" transform="matrix(11,0,0,11,389.2,449)" />
<use xlink:href="#f0_9q" transform="matrix(11,0,0,11,396.9,449)" />
<use xlink:href="#f0_9d" transform="matrix(11,0,0,11,400.9,449)" />
<use xlink:href="#f0_nt" transform="matrix(11,0,0,11,409,449)" />
<use xlink:href="#f0_ry" transform="matrix(11,0,0,11,413.4,449)" />
<use xlink:href="#f0_rx" transform="matrix(11,0,0,11,421.8,449)" />
<use xlink:href="#f0_nt" transform="matrix(11,0,0,11,430.2,449)" />
<use xlink:href="#f0_1r" transform="matrix(11,0,0,11,438.7,449)" />
<use xlink:href="#f0_77" transform="matrix(11,0,0,11,445.6,449)" />
<use xlink:href="#f0_7l" transform="matrix(11,0,0,11,454,449)" />
<use xlink:href="#f0_bf" transform="matrix(11,0,0,11,461,449)" />
<use xlink:href="#f0_am" transform="matrix(11,0,0,11,466.9,449)" />
<use xlink:href="#f0_b5" transform="matrix(11,0,0,11,476,449)" />
<use xlink:href="#f0_7z" transform="matrix(11,0,0,11,482.6,449)" />
<use xlink:href="#f0_am" transform="matrix(11,0,0,11,494.7,449)" />
<use xlink:href="#f0_ay" transform="matrix(11,0,0,11,503.8,449)" />
<use xlink:href="#f0_7z" transform="matrix(11,0,0,11,513,449)" />
<use xlink:href="#f0_b1" transform="matrix(11,0,0,11,521.4,449)" />
<use xlink:href="#f0_am" transform="matrix(11,0,0,11,527.3,449)" />
<use xlink:href="#f0_af" transform="matrix(11,0,0,11,536.4,449)" />
<use xlink:href="#f0_19" transform="matrix(11,0,0,11,55,535.1)" />
<use xlink:href="#f0_c6" transform="matrix(11,0,0,11,65.7,535.1)" />
<use xlink:href="#f0_ae" transform="matrix(11,0,0,11,74.8,535.1)" />
<use xlink:href="#f0_77" transform="matrix(11,0,0,11,88.4,535.1)" />
<use xlink:href="#f0_af" transform="matrix(11,0,0,11,96.8,535.1)" />
<use xlink:href="#f0_9d" transform="matrix(11,0,0,11,109.6,535.1)" />
<use xlink:href="#f0_7z" transform="matrix(11,0,0,11,117.6,535.1)" />
<use xlink:href="#f0_af" transform="matrix(11,0,0,11,126.1,535.1)" />
<use xlink:href="#f0_am" transform="matrix(11,0,0,11,134.9,535.1)" />
<use xlink:href="#f0_ae" transform="matrix(11,0,0,11,144,535.1)" />
<use xlink:href="#f0_7z" transform="matrix(11,0,0,11,157.6,535.1)" />
<use xlink:href="#f0_ay" transform="matrix(11,0,0,11,169.7,535.1)" />
<use xlink:href="#f0_b1" transform="matrix(11,0,0,11,178.8,535.1)" />
<use xlink:href="#f0_am" transform="matrix(11,0,0,11,184.7,535.1)" />
<use xlink:href="#f0_a2" transform="matrix(11,0,0,11,193.8,535.1)" />
<use xlink:href="#f0_7z" transform="matrix(11,0,0,11,198.2,535.1)" />
<use xlink:href="#f0_7l" transform="matrix(11,0,0,11,206.7,535.1)" />
<use xlink:href="#f0_bf" transform="matrix(11,0,0,11,213.6,535.1)" />
</g>
<path fill-rule="evenodd" d="M55,538.1H219.3V537H55v1.1Z" class="g0_76" />
<g fill="#000000" >
<use xlink:href="#f1_2t" transform="matrix(11,0,0,11,55,578.1)" />
<use xlink:href="#f1_9n" transform="matrix(11,0,0,11,63.1,578.1)" />
<use xlink:href="#f1_7z" transform="matrix(11,0,0,11,71.9,578.1)" />
<use xlink:href="#f1_b5" transform="matrix(11,0,0,11,84,578.1)" />
<use xlink:href="#f1_77" transform="matrix(11,0,0,11,90.6,578.1)" />
<use xlink:href="#f1_a8" transform="matrix(11,0,0,11,98.7,578.1)" />
<use xlink:href="#f1_9q" transform="matrix(11,0,0,11,102.7,578.1)" />
<use xlink:href="#f1_7z" transform="matrix(11,0,0,11,106.7,578.1)" />
<use xlink:href="#f1_af" transform="matrix(11,0,0,11,115.1,578.1)" />
<use xlink:href="#f1_bf" transform="matrix(11,0,0,11,124,578.1)" />
<use xlink:href="#f1_89" transform="matrix(11,0,0,11,133.1,578.1)" />
<use xlink:href="#f1_7z" transform="matrix(11,0,0,11,138.2,578.1)" />
<use xlink:href="#f1_77" transform="matrix(11,0,0,11,146.6,578.1)" />
<use xlink:href="#f1_bf" transform="matrix(11,0,0,11,154.7,578.1)" />
<use xlink:href="#f1_c6" transform="matrix(11,0,0,11,160.2,578.1)" />
<use xlink:href="#f1_b1" transform="matrix(11,0,0,11,169,578.1)" />
<use xlink:href="#f1_7z" transform="matrix(11,0,0,11,174.9,578.1)" />
<use xlink:href="#f1_b5" transform="matrix(11,0,0,11,183.3,578.1)" />
<use xlink:href="#f1_am" transform="matrix(11,0,0,11,193.6,578.1)" />
<use xlink:href="#f1_89" transform="matrix(11,0,0,11,202.4,578.1)" />
<use xlink:href="#f1_bf" transform="matrix(11,0,0,11,211.2,578.1)" />
<use xlink:href="#f1_9n" transform="matrix(11,0,0,11,216.7,578.1)" />
<use xlink:href="#f1_7z" transform="matrix(11,0,0,11,225.5,578.1)" />
<use xlink:href="#f1_9n" transform="matrix(11,0,0,11,237.6,578.1)" />
<use xlink:href="#f1_c6" transform="matrix(11,0,0,11,246.8,578.1)" />
<use xlink:href="#f1_ae" transform="matrix(11,0,0,11,255.6,578.1)" />
<use xlink:href="#f1_77" transform="matrix(11,0,0,11,269.1,578.1)" />
<use xlink:href="#f1_af" transform="matrix(11,0,0,11,277.2,578.1)" />
<use xlink:href="#f1_9d" transform="matrix(11,0,0,11,289.6,578.1)" />
<use xlink:href="#f1_7z" transform="matrix(11,0,0,11,297.7,578.1)" />
<use xlink:href="#f1_af" transform="matrix(11,0,0,11,306.1,578.1)" />
<use xlink:href="#f1_am" transform="matrix(11,0,0,11,314.9,578.1)" />
<use xlink:href="#f1_ae" transform="matrix(11,0,0,11,323.7,578.1)" />
<use xlink:href="#f1_7z" transform="matrix(11,0,0,11,337.2,578.1)" />
<use xlink:href="#f1_ay" transform="matrix(11,0,0,11,349.3,578.1)" />
<use xlink:href="#f1_b1" transform="matrix(11,0,0,11,358.1,578.1)" />
<use xlink:href="#f1_am" transform="matrix(11,0,0,11,364,578.1)" />
<use xlink:href="#f1_a2" transform="matrix(11,0,0,11,372.8,578.1)" />
<use xlink:href="#f1_7z" transform="matrix(11,0,0,11,376.9,578.1)" />
<use xlink:href="#f1_7l" transform="matrix(11,0,0,11,385.3,578.1)" />
<use xlink:href="#f1_bf" transform="matrix(11,0,0,11,392.3,578.1)" />
<use xlink:href="#f1_77" transform="matrix(11,0,0,11,401.4,578.1)" />
<use xlink:href="#f1_b1" transform="matrix(11,0,0,11,409.5,578.1)" />
<use xlink:href="#f1_7z" transform="matrix(11,0,0,11,415.4,578.1)" />
<use xlink:href="#f1_77" transform="matrix(11,0,0,11,427.8,578.1)" />
<use xlink:href="#f1_b5" transform="matrix(11,0,0,11,435.9,578.1)" />
<use xlink:href="#f1_89" transform="matrix(11,0,0,11,446.1,578.1)" />
<use xlink:href="#f1_am" transform="matrix(11,0,0,11,451.3,578.1)" />
<use xlink:href="#f1_a8" transform="matrix(11,0,0,11,460.1,578.1)" />
<use xlink:href="#f1_a8" transform="matrix(11,0,0,11,464.1,578.1)" />
<use xlink:href="#f1_am" transform="matrix(11,0,0,11,468.1,578.1)" />
<use xlink:href="#f1_ci" transform="matrix(11,0,0,11,476.9,578.1)" />
<use xlink:href="#f1_b5" transform="matrix(11,0,0,11,488.9,578.1)" />
<use xlink:href="#f1_oj" transform="matrix(11,0,0,11,495.9,578.1)" />
<use xlink:href="#f2_3d" transform="matrix(11,0,0,11,82.5,621.7)" />
<use xlink:href="#f1_2t" transform="matrix(11,0,0,11,110,621.7)" />
<use xlink:href="#f1_9n" transform="matrix(11,0,0,11,118.1,621.7)" />
<use xlink:href="#f1_7z" transform="matrix(11,0,0,11,126.9,621.7)" />
<use xlink:href="#f1_9n" transform="matrix(11,0,0,11,139,621.7)" />
<use xlink:href="#f1_c6" transform="matrix(11,0,0,11,147.8,621.7)" />
<use xlink:href="#f1_ae" transform="matrix(11,0,0,11,156.6,621.7)" />
<use xlink:href="#f1_77" transform="matrix(11,0,0,11,170.1,621.7)" />
<use xlink:href="#f1_af" transform="matrix(11,0,0,11,178.2,621.7)" />
<use xlink:href="#f1_9d" transform="matrix(11,0,0,11,190.7,621.7)" />
<use xlink:href="#f1_7z" transform="matrix(11,0,0,11,198.7,621.7)" />
<use xlink:href="#f1_af" transform="matrix(11,0,0,11,207.1,621.7)" />
<use xlink:href="#f1_am" transform="matrix(11,0,0,11,216,621.7)" />
<use xlink:href="#f1_ae" transform="matrix(11,0,0,11,224.7,621.7)" />
<use xlink:href="#f1_7z" transform="matrix(11,0,0,11,238.3,621.7)" />
<use xlink:href="#f1_7l" transform="matrix(11,0,0,11,250.4,621.7)" />
<use xlink:href="#f1_am" transform="matrix(11,0,0,11,257.4,621.7)" />
<use xlink:href="#f1_af" transform="matrix(11,0,0,11,266.2,621.7)" />
<use xlink:href="#f1_bf" transform="matrix(11,0,0,11,275,621.7)" />
<use xlink:href="#f1_77" transform="matrix(11,0,0,11,280.5,621.7)" />
<use xlink:href="#f1_9q" transform="matrix(11,0,0,11,288.5,621.7)" />
<use xlink:href="#f1_af" transform="matrix(11,0,0,11,292.5,621.7)" />
<use xlink:href="#f1_b5" transform="matrix(11,0,0,11,301.3,621.7)" />
<use xlink:href="#f1_s0" transform="matrix(11,0,0,11,311.6,621.7)" />
<use xlink:href="#f1_ry" transform="matrix(11,0,0,11,320,621.7)" />
<use xlink:href="#f1_s3" transform="matrix(11,0,0,11,328.8,621.7)" />
<use xlink:href="#f1_s1" transform="matrix(11,0,0,11,337.3,621.7)" />
<use xlink:href="#f1_nt" transform="matrix(11,0,0,11,345.7,621.7)" />
<use xlink:href="#f1_s4" transform="matrix(11,0,0,11,350.1,621.7)" />
<use xlink:href="#f1_ae" transform="matrix(11,0,0,11,362.2,621.7)" />
<use xlink:href="#f1_9q" transform="matrix(11,0,0,11,375.7,621.7)" />
<use xlink:href="#f1_a8" transform="matrix(11,0,0,11,379.7,621.7)" />
<use xlink:href="#f1_a8" transform="matrix(11,0,0,11,383.7,621.7)" />
<use xlink:href="#f1_9q" transform="matrix(11,0,0,11,387.8,621.7)" />
<use xlink:href="#f1_am" transform="matrix(11,0,0,11,391.8,621.7)" />
<use xlink:href="#f1_af" transform="matrix(11,0,0,11,400.6,621.7)" />
<use xlink:href="#f1_af" transform="matrix(11,0,0,11,413,621.7)" />
<use xlink:href="#f1_c6" transform="matrix(11,0,0,11,421.9,621.7)" />
<use xlink:href="#f1_7l" transform="matrix(11,0,0,11,430.7,621.7)" />
<use xlink:href="#f1_a8" transform="matrix(11,0,0,11,437.6,621.7)" />
<use xlink:href="#f1_7z" transform="matrix(11,0,0,11,441.6,621.7)" />
<use xlink:href="#f1_am" transform="matrix(11,0,0,11,450,621.7)" />
<use xlink:href="#f1_bf" transform="matrix(11,0,0,11,458.9,621.7)" />
<use xlink:href="#f1_9q" transform="matrix(11,0,0,11,464.4,621.7)" />
<use xlink:href="#f1_7v" transform="matrix(11,0,0,11,468.4,621.7)" />
<use xlink:href="#f1_7z" transform="matrix(11,0,0,11,476.8,621.7)" />
<use xlink:href="#f1_7k" transform="matrix(11,0,0,11,488.9,621.7)" />
<use xlink:href="#f1_77" transform="matrix(11,0,0,11,497.7,621.7)" />
<use xlink:href="#f1_b5" transform="matrix(11,0,0,11,505.8,621.7)" />
<use xlink:href="#f1_7z" transform="matrix(11,0,0,11,512.4,621.7)" />
<use xlink:href="#f1_b5" transform="matrix(11,0,0,11,520.8,621.7)" />
<use xlink:href="#f1_nt" transform="matrix(11,0,0,11,527.4,621.7)" />
<use xlink:href="#f2_3d" transform="matrix(11,0,0,11,82.5,653.2)" />
<use xlink:href="#f1_2t" transform="matrix(11,0,0,11,110,653.2)" />
<use xlink:href="#f1_9n" transform="matrix(11,0,0,11,118.1,653.2)" />
<use xlink:href="#f1_7z" transform="matrix(11,0,0,11,126.9,653.2)" />
<use xlink:href="#f1_77" transform="matrix(11,0,0,11,139,653.2)" />
<use xlink:href="#f1_ch" transform="matrix(11,0,0,11,147.1,653.2)" />
<use xlink:href="#f1_7z" transform="matrix(11,0,0,11,154.8,653.2)" />
<use xlink:href="#f1_b1" transform="matrix(11,0,0,11,163.2,653.2)" />
<use xlink:href="#f1_77" transform="matrix(11,0,0,11,169,653.2)" />
<use xlink:href="#f1_9d" transform="matrix(11,0,0,11,177.1,653.2)" />
<use xlink:href="#f1_7z" transform="matrix(11,0,0,11,185.2,653.2)" />
<use xlink:href="#f1_9d" transform="matrix(11,0,0,11,197.3,653.2)" />
<use xlink:href="#f1_7z" transform="matrix(11,0,0,11,205.3,653.2)" />
<use xlink:href="#f1_af" transform="matrix(11,0,0,11,213.7,653.2)" />
<use xlink:href="#f1_7z" transform="matrix(11,0,0,11,222.6,653.2)" />
<use xlink:href="#f1_7l" transform="matrix(11,0,0,11,234.6,653.2)" />
<use xlink:href="#f1_am" transform="matrix(11,0,0,11,241.6,653.2)" />
<use xlink:href="#f1_af" transform="matrix(11,0,0,11,250.4,653.2)" />
<use xlink:href="#f1_b5" transform="matrix(11,0,0,11,259.2,653.2)" />
<use xlink:href="#f1_9q" transform="matrix(11,0,0,11,265.8,653.2)" />
<use xlink:href="#f1_b5" transform="matrix(11,0,0,11,269.8,653.2)" />
<use xlink:href="#f1_bf" transform="matrix(11,0,0,11,276.4,653.2)" />
<use xlink:href="#f1_b5" transform="matrix(11,0,0,11,281.9,653.2)" />
<use xlink:href="#f1_am" transform="matrix(11,0,0,11,292.2,653.2)" />
<use xlink:href="#f1_89" transform="matrix(11,0,0,11,301,653.2)" />
<use xlink:href="#f1_s0" transform="matrix(11,0,0,11,309.8,653.2)" />
<use xlink:href="#f1_rx" transform="matrix(11,0,0,11,318.2,653.2)" />
<use xlink:href="#f1_rx" transform="matrix(11,0,0,11,326.7,653.2)" />
<use xlink:href="#f1_rx" transform="matrix(11,0,0,11,335.1,653.2)" />
<use xlink:href="#f1_7k" transform="matrix(11,0,0,11,347.5,653.2)" />
<use xlink:href="#f1_77" transform="matrix(11,0,0,11,356.3,653.2)" />
<use xlink:href="#f1_b5" transform="matrix(11,0,0,11,364.4,653.2)" />
<use xlink:href="#f1_7z" transform="matrix(11,0,0,11,371,653.2)" />
<use xlink:href="#f1_b5" transform="matrix(11,0,0,11,379.4,653.2)" />
<use xlink:href="#f1_nq" transform="matrix(11,0,0,11,386,653.2)" />
<use xlink:href="#f1_7k" transform="matrix(11,0,0,11,393.7,653.2)" />
<use xlink:href="#f1_c6" transform="matrix(11,0,0,11,402.5,653.2)" />
<use xlink:href="#f1_bf" transform="matrix(11,0,0,11,411.7,653.2)" />
<use xlink:href="#f1_b5" transform="matrix(11,0,0,11,420.8,653.2)" />
<use xlink:href="#f1_9q" transform="matrix(11,0,0,11,427.4,653.2)" />
<use xlink:href="#f1_ct" transform="matrix(11,0,0,11,431.5,653.2)" />
<use xlink:href="#f1_7z" transform="matrix(11,0,0,11,438,653.2)" />
<use xlink:href="#f1_ch" transform="matrix(11,0,0,11,450.1,653.2)" />
<use xlink:href="#f1_77" transform="matrix(11,0,0,11,457.8,653.2)" />
<use xlink:href="#f1_b1" transform="matrix(11,0,0,11,465.9,653.2)" />
<use xlink:href="#f1_9q" transform="matrix(11,0,0,11,471.8,653.2)" />
<use xlink:href="#f1_7z" transform="matrix(11,0,0,11,475.8,653.2)" />
<use xlink:href="#f1_b5" transform="matrix(11,0,0,11,484.2,653.2)" />
<use xlink:href="#f1_nt" transform="matrix(11,0,0,11,490.8,653.2)" />
<use xlink:href="#f2_3d" transform="matrix(11,0,0,11,82.5,685.1)" />
<use xlink:href="#f1_19" transform="matrix(11,0,0,11,110,685.1)" />
<use xlink:href="#f1_c6" transform="matrix(11,0,0,11,120.6,685.1)" />
<use xlink:href="#f1_ae" transform="matrix(11,0,0,11,129.5,685.1)" />
<use xlink:href="#f1_77" transform="matrix(11,0,0,11,143,685.1)" />
<use xlink:href="#f1_af" transform="matrix(11,0,0,11,151.1,685.1)" />
<use xlink:href="#f1_b5" transform="matrix(11,0,0,11,159.9,685.1)" />
<use xlink:href="#f1_77" transform="matrix(11,0,0,11,170.1,685.1)" />
<use xlink:href="#f1_b1" transform="matrix(11,0,0,11,178.2,685.1)" />
<use xlink:href="#f1_7z" transform="matrix(11,0,0,11,184.1,685.1)" />
<use xlink:href="#f1_b5" transform="matrix(11,0,0,11,196.2,685.1)" />
<use xlink:href="#f1_77" transform="matrix(11,0,0,11,202.8,685.1)" />
<use xlink:href="#f1_9q" transform="matrix(11,0,0,11,210.8,685.1)" />
<use xlink:href="#f1_7v" transform="matrix(11,0,0,11,214.8,685.1)" />
<use xlink:href="#f1_bf" transform="matrix(11,0,0,11,227.3,685.1)" />
<use xlink:href="#f1_am" transform="matrix(11,0,0,11,232.8,685.1)" />
<use xlink:href="#f1_9n" transform="matrix(11,0,0,11,245.3,685.1)" />
<use xlink:href="#f1_77" transform="matrix(11,0,0,11,254.1,685.1)" />
<use xlink:href="#f1_ch" transform="matrix(11,0,0,11,262.2,685.1)" />
<use xlink:href="#f1_7z" transform="matrix(11,0,0,11,269.8,685.1)" />
<use xlink:href="#f1_77" transform="matrix(11,0,0,11,281.9,685.1)" />
<use xlink:href="#f1_7k" transform="matrix(11,0,0,11,290,685.1)" />
<use xlink:href="#f1_am" transform="matrix(11,0,0,11,298.8,685.1)" />
<use xlink:href="#f1_c6" transform="matrix(11,0,0,11,307.6,685.1)" />
<use xlink:href="#f1_bf" transform="matrix(11,0,0,11,316.4,685.1)" />
<use xlink:href="#f1_s0" transform="matrix(11,0,0,11,325.6,685.1)" />
<use xlink:href="#f1_rx" transform="matrix(11,0,0,11,334.3,685.1)" />
<use xlink:href="#f1_nq" transform="matrix(11,0,0,11,342.8,685.1)" />
<use xlink:href="#f1_rx" transform="matrix(11,0,0,11,346.8,685.1)" />
<use xlink:href="#f1_rx" transform="matrix(11,0,0,11,355.6,685.1)" />
<use xlink:href="#f1_rx" transform="matrix(11,0,0,11,364,685.1)" />
<use xlink:href="#f1_9d" transform="matrix(11,0,0,11,376.1,685.1)" />
<use xlink:href="#f1_7z" transform="matrix(11,0,0,11,384.2,685.1)" />
<use xlink:href="#f1_af" transform="matrix(11,0,0,11,392.6,685.1)" />
<use xlink:href="#f1_7z" transform="matrix(11,0,0,11,401.4,685.1)" />
<use xlink:href="#f1_b5" transform="matrix(11,0,0,11,409.8,685.1)" />
<use xlink:href="#f1_nt" transform="matrix(11,0,0,11,416.4,685.1)" />
<use xlink:href="#f2_3d" transform="matrix(11,0,0,11,82.5,716.7)" />
<use xlink:href="#f1_2t" transform="matrix(11,0,0,11,110,716.7)" />
<use xlink:href="#f1_9n" transform="matrix(11,0,0,11,118.1,716.7)" />
<use xlink:href="#f1_7z" transform="matrix(11,0,0,11,126.9,716.7)" />
<use xlink:href="#f1_89" transform="matrix(11,0,0,11,139,716.7)" />
<use xlink:href="#f1_c6" transform="matrix(11,0,0,11,144.1,716.7)" />
<use xlink:href="#f1_af" transform="matrix(11,0,0,11,152.9,716.7)" />
<use xlink:href="#f1_7l" transform="matrix(11,0,0,11,161.7,716.7)" />
<use xlink:href="#f1_bf" transform="matrix(11,0,0,11,168.7,716.7)" />
<use xlink:href="#f1_9q" transform="matrix(11,0,0,11,174.2,716.7)" />
<use xlink:href="#f1_am" transform="matrix(11,0,0,11,178.2,716.7)" />
<use xlink:href="#f1_af" transform="matrix(11,0,0,11,187,716.7)" />
<use xlink:href="#f1_b5" transform="matrix(11,0,0,11,195.8,716.7)" />
<use xlink:href="#f1_77" transform="matrix(11,0,0,11,206.1,716.7)" />
<use xlink:href="#f1_b1" transform="matrix(11,0,0,11,214.2,716.7)" />
<use xlink:href="#f1_7z" transform="matrix(11,0,0,11,220.1,716.7)" />
<use xlink:href="#f1_c6" transform="matrix(11,0,0,11,232.5,716.7)" />
<use xlink:href="#f1_af" transform="matrix(11,0,0,11,241.3,716.7)" />
<use xlink:href="#f1_a5" transform="matrix(11,0,0,11,250.1,716.7)" />
<use xlink:href="#f1_af" transform="matrix(11,0,0,11,257.8,716.7)" />
<use xlink:href="#f1_am" transform="matrix(11,0,0,11,266.6,716.7)" />
<use xlink:href="#f1_ci" transform="matrix(11,0,0,11,275.4,716.7)" />
<use xlink:href="#f1_af" transform="matrix(11,0,0,11,287.4,716.7)" />
<use xlink:href="#f1_89" transform="matrix(11,0,0,11,300,716.7)" />
<use xlink:href="#f1_am" transform="matrix(11,0,0,11,305.1,716.7)" />
<use xlink:href="#f1_b1" transform="matrix(11,0,0,11,313.9,716.7)" />
<use xlink:href="#f1_am" transform="matrix(11,0,0,11,323.8,716.7)" />
<use xlink:href="#f1_ch" transform="matrix(11,0,0,11,332.6,716.7)" />
<use xlink:href="#f1_7z" transform="matrix(11,0,0,11,340.3,716.7)" />
<use xlink:href="#f1_b1" transform="matrix(11,0,0,11,348.7,716.7)" />
<use xlink:href="#f1_s2" transform="matrix(11,0,0,11,358.2,716.7)" />
<use xlink:href="#f1_rx" transform="matrix(11,0,0,11,366.7,716.7)" />
<use xlink:href="#f1_ay" transform="matrix(11,0,0,11,378.8,716.7)" />
<use xlink:href="#f1_7z" transform="matrix(11,0,0,11,387.6,716.7)" />
<use xlink:href="#f1_b1" transform="matrix(11,0,0,11,396,716.7)" />
<use xlink:href="#f1_7l" transform="matrix(11,0,0,11,405.9,716.7)" />
<use xlink:href="#f1_7z" transform="matrix(11,0,0,11,412.8,716.7)" />
<use xlink:href="#f1_af" transform="matrix(11,0,0,11,421.2,716.7)" />
<use xlink:href="#f1_bf" transform="matrix(11,0,0,11,430.1,716.7)" />
<use xlink:href="#f1_am" transform="matrix(11,0,0,11,439.6,716.7)" />
<use xlink:href="#f1_89" transform="matrix(11,0,0,11,448.4,716.7)" />
<use xlink:href="#f1_bf" transform="matrix(11,0,0,11,457.2,716.7)" />
<use xlink:href="#f1_9n" transform="matrix(11,0,0,11,462.7,716.7)" />
<use xlink:href="#f1_7z" transform="matrix(11,0,0,11,471.5,716.7)" />
<use xlink:href="#f1_7v" transform="matrix(11,0,0,11,484.3,716.7)" />
<use xlink:href="#f1_9q" transform="matrix(11,0,0,11,493.1,716.7)" />
<use xlink:href="#f1_b5" transform="matrix(11,0,0,11,497.1,716.7)" />
<use xlink:href="#f1_7l" transform="matrix(11,0,0,11,503.7,716.7)" />
<use xlink:href="#f1_am" transform="matrix(11,0,0,11,510.7,716.7)" />
<use xlink:href="#f1_ch" transform="matrix(11,0,0,11,519.5,716.7)" />
<use xlink:href="#f1_7z" transform="matrix(11,0,0,11,527.2,716.7)" />
<use xlink:href="#f1_b1" transform="matrix(11,0,0,11,535.6,716.7)" />
<use xlink:href="#f1_7z" transform="matrix(11,0,0,11,541.5,716.7)" />
<use xlink:href="#f1_7v" transform="matrix(11,0,0,11,549.9,716.7)" />
<use xlink:href="#f1_9d" transform="matrix(11,0,0,11,562.4,716.7)" />
<use xlink:href="#f1_7z" transform="matrix(11,0,0,11,570.4,716.7)" />
<use xlink:href="#f1_af" transform="matrix(11,0,0,11,578.8,716.7)" />
<use xlink:href="#f1_7z" transform="matrix(11,0,0,11,587.7,716.7)" />
<use xlink:href="#f1_b5" transform="matrix(11,0,0,11,596.1,716.7)" />
<use xlink:href="#f1_nt" transform="matrix(11,0,0,11,602.7,716.7)" />
<use xlink:href="#f2_3d" transform="matrix(11,0,0,11,82.5,748.6)" />
<use xlink:href="#f1_1r" transform="matrix(11,0,0,11,110,748.6)" />
<use xlink:href="#f1_7z" transform="matrix(11,0,0,11,117,748.6)" />
<use xlink:href="#f1_b5" transform="matrix(11,0,0,11,125.4,748.6)" />
<use xlink:href="#f1_b5" transform="matrix(11,0,0,11,132,748.6)" />
<use xlink:href="#f1_bf" transform="matrix(11,0,0,11,142.3,748.6)" />
<use xlink:href="#f1_9n" transform="matrix(11,0,0,11,147.8,748.6)" />
<use xlink:href="#f1_77" transform="matrix(11,0,0,11,156.6,748.6)" />
<use xlink:href="#f1_af" transform="matrix(11,0,0,11,164.7,748.6)" />
<use xlink:href="#f1_rz" transform="matrix(11,0,0,11,177.1,748.6)" />
<use xlink:href="#f1_ay" transform="matrix(11,0,0,11,189.6,748.6)" />
<use xlink:href="#f1_7z" transform="matrix(11,0,0,11,198.4,748.6)" />
<use xlink:href="#f1_b1" transform="matrix(11,0,0,11,206.8,748.6)" />
<use xlink:href="#f1_7l" transform="matrix(11,0,0,11,216.3,748.6)" />
<use xlink:href="#f1_7z" transform="matrix(11,0,0,11,223.3,748.6)" />
<use xlink:href="#f1_af" transform="matrix(11,0,0,11,231.7,748.6)" />
<use xlink:href="#f1_bf" transform="matrix(11,0,0,11,240.6,748.6)" />
<use xlink:href="#f1_am" transform="matrix(11,0,0,11,250.1,748.6)" />
<use xlink:href="#f1_89" transform="matrix(11,0,0,11,258.9,748.6)" />
<use xlink:href="#f1_bf" transform="matrix(11,0,0,11,268,748.6)" />
<use xlink:href="#f1_9n" transform="matrix(11,0,0,11,273.5,748.6)" />
<use xlink:href="#f1_7z" transform="matrix(11,0,0,11,282.3,748.6)" />
<use xlink:href="#f1_9d" transform="matrix(11,0,0,11,294.4,748.6)" />
<use xlink:href="#f1_7z" transform="matrix(11,0,0,11,302.5,748.6)" />
<use xlink:href="#f1_af" transform="matrix(11,0,0,11,310.9,748.6)" />
<use xlink:href="#f1_am" transform="matrix(11,0,0,11,319.7,748.6)" />
<use xlink:href="#f1_ae" transform="matrix(11,0,0,11,328.5,748.6)" />
<use xlink:href="#f1_7z" transform="matrix(11,0,0,11,342,748.6)" />
<use xlink:href="#f1_7l" transform="matrix(11,0,0,11,354.1,748.6)" />
<use xlink:href="#f1_am" transform="matrix(11,0,0,11,361.1,748.6)" />
<use xlink:href="#f1_7v" transform="matrix(11,0,0,11,369.9,748.6)" />
<use xlink:href="#f1_7z" transform="matrix(11,0,0,11,378.7,748.6)" />
<use xlink:href="#f1_b5" transform="matrix(11,0,0,11,387.1,748.6)" />
<use xlink:href="#f1_89" transform="matrix(11,0,0,11,397.4,748.6)" />
<use xlink:href="#f1_am" transform="matrix(11,0,0,11,402.5,748.6)" />
<use xlink:href="#f1_b1" transform="matrix(11,0,0,11,411.3,748.6)" />
<use xlink:href="#f1_ay" transform="matrix(11,0,0,11,421.2,748.6)" />
<use xlink:href="#f1_b1" transform="matrix(11,0,0,11,430,748.6)" />
<use xlink:href="#f1_am" transform="matrix(11,0,0,11,435.9,748.6)" />
<use xlink:href="#f1_bf" transform="matrix(11,0,0,11,444.7,748.6)" />
<use xlink:href="#f1_7z" transform="matrix(11,0,0,11,450.2,748.6)" />
<use xlink:href="#f1_9q" transform="matrix(11,0,0,11,458.6,748.6)" />
<use xlink:href="#f1_af" transform="matrix(11,0,0,11,462.6,748.6)" />
<use xlink:href="#f1_b5" transform="matrix(11,0,0,11,471.4,748.6)" />
<use xlink:href="#f1_nt" transform="matrix(11,0,0,11,478,748.6)" />
<use xlink:href="#f2_3d" transform="matrix(11,0,0,11,82.5,780.1)" />
<use xlink:href="#f1_19" transform="matrix(11,0,0,11,110,780.1)" />
<use xlink:href="#f1_c6" transform="matrix(11,0,0,11,120.6,780.1)" />
<use xlink:href="#f1_ae" transform="matrix(11,0,0,11,129.5,780.1)" />
<use xlink:href="#f1_77" transform="matrix(11,0,0,11,143,780.1)" />
<use xlink:href="#f1_af" transform="matrix(11,0,0,11,151.1,780.1)" />
<use xlink:href="#f1_9d" transform="matrix(11,0,0,11,163.5,780.1)" />
<use xlink:href="#f1_7z" transform="matrix(11,0,0,11,171.6,780.1)" />
<use xlink:href="#f1_af" transform="matrix(11,0,0,11,180,780.1)" />
<use xlink:href="#f1_am" transform="matrix(11,0,0,11,188.8,780.1)" />
<use xlink:href="#f1_ae" transform="matrix(11,0,0,11,197.6,780.1)" />
<use xlink:href="#f1_7z" transform="matrix(11,0,0,11,211.1,780.1)" />
<use xlink:href="#f1_7l" transform="matrix(11,0,0,11,223.2,780.1)" />
<use xlink:href="#f1_am" transform="matrix(11,0,0,11,230.2,780.1)" />
<use xlink:href="#f1_af" transform="matrix(11,0,0,11,239,780.1)" />
<use xlink:href="#f1_b5" transform="matrix(11,0,0,11,247.8,780.1)" />
<use xlink:href="#f1_9q" transform="matrix(11,0,0,11,254.4,780.1)" />
<use xlink:href="#f1_b5" transform="matrix(11,0,0,11,258.4,780.1)" />
<use xlink:href="#f1_bf" transform="matrix(11,0,0,11,265,780.1)" />
<use xlink:href="#f1_b5" transform="matrix(11,0,0,11,270.5,780.1)" />
<use xlink:href="#f1_am" transform="matrix(11,0,0,11,280.8,780.1)" />
<use xlink:href="#f1_89" transform="matrix(11,0,0,11,289.6,780.1)" />
<use xlink:href="#f1_a8" transform="matrix(11,0,0,11,298.4,780.1)" />
<use xlink:href="#f1_77" transform="matrix(11,0,0,11,302.4,780.1)" />
<use xlink:href="#f1_b1" transform="matrix(11,0,0,11,310.5,780.1)" />
<use xlink:href="#f1_9d" transform="matrix(11,0,0,11,316.4,780.1)" />
<use xlink:href="#f1_7z" transform="matrix(11,0,0,11,324.4,780.1)" />
<use xlink:href="#f1_ay" transform="matrix(11,0,0,11,336.7,780.1)" />
<use xlink:href="#f1_am" transform="matrix(11,0,0,11,345.5,780.1)" />
<use xlink:href="#f1_b1" transform="matrix(11,0,0,11,354.3,780.1)" />
<use xlink:href="#f1_bf" transform="matrix(11,0,0,11,360.2,780.1)" />
<use xlink:href="#f1_9q" transform="matrix(11,0,0,11,365.7,780.1)" />
<use xlink:href="#f1_am" transform="matrix(11,0,0,11,369.7,780.1)" />
<use xlink:href="#f1_af" transform="matrix(11,0,0,11,378.5,780.1)" />
<use xlink:href="#f1_am" transform="matrix(11,0,0,11,391,780.1)" />
<use xlink:href="#f1_89" transform="matrix(11,0,0,11,399.8,780.1)" />
<use xlink:href="#f1_b1" transform="matrix(11,0,0,11,408.6,780.1)" />
<use xlink:href="#f1_7z" transform="matrix(11,0,0,11,414.5,780.1)" />
<use xlink:href="#f1_ay" transform="matrix(11,0,0,11,422.9,780.1)" />
<use xlink:href="#f1_7z" transform="matrix(11,0,0,11,431.7,780.1)" />
<use xlink:href="#f1_77" transform="matrix(11,0,0,11,440.1,780.1)" />
<use xlink:href="#f1_bf" transform="matrix(11,0,0,11,448.2,780.1)" />
<use xlink:href="#f1_7z" transform="matrix(11,0,0,11,453.7,780.1)" />
<use xlink:href="#f1_7v" transform="matrix(11,0,0,11,462.1,780.1)" />
<use xlink:href="#f1_b5" transform="matrix(11,0,0,11,474.6,780.1)" />
<use xlink:href="#f1_7z" transform="matrix(11,0,0,11,481.5,780.1)" />
<use xlink:href="#f1_b0" transform="matrix(11,0,0,11,489.9,780.1)" />
<use xlink:href="#f1_c6" transform="matrix(11,0,0,11,498.8,780.1)" />
<use xlink:href="#f1_7z" transform="matrix(11,0,0,11,507.5,780.1)" />
<use xlink:href="#f1_af" transform="matrix(11,0,0,11,515.9,780.1)" />
<use xlink:href="#f1_7l" transform="matrix(11,0,0,11,524.8,780.1)" />
<use xlink:href="#f1_7z" transform="matrix(11,0,0,11,531.8,780.1)" />
<use xlink:href="#f1_b5" transform="matrix(11,0,0,11,540.2,780.1)" />
<use xlink:href="#f1_nt" transform="matrix(11,0,0,11,546.7,780.1)" />
<use xlink:href="#f2_3d" transform="matrix(11,0,0,11,82.5,812)" />
<use xlink:href="#f1_j" transform="matrix(11,0,0,11,110,812)" />
<use xlink:href="#f1_9n" transform="matrix(11,0,0,11,119.2,812)" />
<use xlink:href="#f1_b1" transform="matrix(11,0,0,11,128,812)" />
<use xlink:href="#f1_am" transform="matrix(11,0,0,11,133.9,812)" />
<use xlink:href="#f1_ae" transform="matrix(11,0,0,11,142.7,812)" />
<use xlink:href="#f1_am" transform="matrix(11,0,0,11,156.2,812)" />
<use xlink:href="#f1_b5" transform="matrix(11,0,0,11,165,812)" />
<use xlink:href="#f1_am" transform="matrix(11,0,0,11,171.6,812)" />
<use xlink:href="#f1_ae" transform="matrix(11,0,0,11,180.4,812)" />
<use xlink:href="#f1_7z" transform="matrix(11,0,0,11,193.9,812)" />
<use xlink:href="#f1_ry" transform="matrix(11,0,0,11,206,812)" />
<use xlink:href="#f1_9n" transform="matrix(11,0,0,11,218.1,812)" />
<use xlink:href="#f1_77" transform="matrix(11,0,0,11,226.9,812)" />
<use xlink:href="#f1_b5" transform="matrix(11,0,0,11,235,812)" />
<use xlink:href="#f1_ae" transform="matrix(11,0,0,11,245.3,812)" />
<use xlink:href="#f1_am" transform="matrix(11,0,0,11,258.8,812)" />
<use xlink:href="#f1_b5" transform="matrix(11,0,0,11,267.6,812)" />
<use xlink:href="#f1_bf" transform="matrix(11,0,0,11,274.2,812)" />
<use xlink:href="#f1_9d" transform="matrix(11,0,0,11,283.4,812)" />
<use xlink:href="#f1_7z" transform="matrix(11,0,0,11,291.4,812)" />
<use xlink:href="#f1_af" transform="matrix(11,0,0,11,299.8,812)" />
<use xlink:href="#f1_7z" transform="matrix(11,0,0,11,308.7,812)" />
<use xlink:href="#f1_b5" transform="matrix(11,0,0,11,317.1,812)" />
<use xlink:href="#f1_ov" transform="matrix(11,0,0,11,327.3,812)" />
<use xlink:href="#f1_rz" transform="matrix(11,0,0,11,332.5,812)" />
<use xlink:href="#f1_s6" transform="matrix(11,0,0,11,340.9,812)" />
<use xlink:href="#f1_s3" transform="matrix(11,0,0,11,349.3,812)" />
<use xlink:href="#f1_s5" transform="matrix(11,0,0,11,357.8,812)" />
<use xlink:href="#f1_ow" transform="matrix(11,0,0,11,366.2,812)" />
<use xlink:href="#f1_nq" transform="matrix(11,0,0,11,371.3,812)" />
<use xlink:href="#f1_77" transform="matrix(11,0,0,11,379.4,812)" />
<use xlink:href="#f1_af" transform="matrix(11,0,0,11,387.5,812)" />
<use xlink:href="#f1_7v" transform="matrix(11,0,0,11,396.2,812)" />
<use xlink:href="#f1_bf" transform="matrix(11,0,0,11,408.7,812)" />
<use xlink:href="#f1_9n" transform="matrix(11,0,0,11,414.6,812)" />
<use xlink:href="#f1_7z" transform="matrix(11,0,0,11,423.4,812)" />
<use xlink:href="#f1_3f" transform="matrix(11,0,0,11,435.5,812)" />
<use xlink:href="#f1_9n" transform="matrix(11,0,0,11,447.2,812)" />
<use xlink:href="#f1_77" transform="matrix(11,0,0,11,456,812)" />
<use xlink:href="#f1_b5" transform="matrix(11,0,0,11,464.1,812)" />
<use xlink:href="#f1_bf" transform="matrix(11,0,0,11,474.7,812)" />
<use xlink:href="#f1_9n" transform="matrix(11,0,0,11,480.5,812)" />
<use xlink:href="#f1_7z" transform="matrix(11,0,0,11,489.3,812)" />
<use xlink:href="#f1_89" transform="matrix(11,0,0,11,501.4,812)" />
<use xlink:href="#f1_7z" transform="matrix(11,0,0,11,506.6,812)" />
<use xlink:href="#f1_ci" transform="matrix(11,0,0,11,515,812)" />
<use xlink:href="#f1_7z" transform="matrix(11,0,0,11,527.1,812)" />
<use xlink:href="#f1_b5" transform="matrix(11,0,0,11,535.5,812)" />
<use xlink:href="#f1_bf" transform="matrix(11,0,0,11,542.1,812)" />
<use xlink:href="#f1_ov" transform="matrix(11,0,0,11,551.3,812)" />
<use xlink:href="#f1_rz" transform="matrix(11,0,0,11,556.4,812)" />
<use xlink:href="#f1_s0" transform="matrix(11,0,0,11,564.8,812)" />
<use xlink:href="#f1_ry" transform="matrix(11,0,0,11,573.2,812)" />
<use xlink:href="#f1_ow" transform="matrix(11,0,0,11,581.7,812)" />
<use xlink:href="#f1_nt" transform="matrix(11,0,0,11,586.8,812)" />
</g>
<image preserveAspectRatio="none" x="190" y="55" width="555" height="355" xlink:href="img/1.png" />
<g fill="#000000" >
<use xlink:href="#f3_t" transform="matrix(8,0,0,8,818.2,1187.9)" />
</g>
<defs>
<path d="M204,-4c0,0,-28,0,-47,2c0,0,-19,2,-31,6c0,0,-11,4,-16,10c0,0,-4,6,-4,14V903c0,0,0,33,16,48c0,0,17,14,42,14H618c0,0,7,0,12,-4c0,0,5,-4,9,-13c0,0,5,-10,6,-25c0,0,2,-16,2,-38c0,0,0,-23,-2,-38c0,0,-1,-15,-6,-24c0,0,-4,-9,-9,-14c0,0,-5,-4,-12,-4H302V545H599c0,0,6,0,12,-4c0,0,5,-4,9,-13c0,0,4,-9,6,-24c0,0,2,-15,2,-37c0,0,0,-22,-2,-37c0,0,-2,-15,-6,-25c0,0,-4,-10,-9,-14c0,0,-6,-4,-12,-4H302V28c0,0,0,-8,-4,-14c0,0,-5,-6,-16,-10c0,0,-12,-4,-30,-6c0,0,-19,-2,-48,-2Z" 
id="f0_13"
transform="scale(0.001,-0.001)" />

<path d="M188,-4c0,0,-28,0,-46,2c0,0,-18,2,-28,5c0,0,-11,3,-16,9c0,0,-4,5,-4,13V689c0,0,0,8,4,13c0,0,5,6,16,10c0,0,10,4,28,6c0,0,18,3,46,3c0,0,27,0,45,-3c0,0,18,-2,29,-6c0,0,11,-4,15,-10c0,0,5,-5,5,-13V25c0,0,0,-8,-5,-13c0,0,-4,-6,-15,-9c0,0,-11,-3,-29,-5c0,0,-18,-2,-45,-2Zm-1,820c0,0,-63,0,-85,21c0,0,-22,21,-22,75c0,0,0,57,23,79c0,0,23,22,86,22c0,0,63,0,85,-21c0,0,22,-21,22,-76c0,0,0,-56,-23,-78c0,0,-23,-22,-86,-22Z" 
id="f0_9q"
transform="scale(0.001,-0.001)" />

<path d="M345,-143c0,0,43,0,72,9c0,0,29,8,47,23c0,0,18,14,25,31c0,0,8,18,8,37c0,0,0,33,-27,50c0,0,-27,18,-74,20L263,30C263,30,243,16,232,3c0,0,-12,-12,-19,-24c0,0,-7,-12,-9,-23c0,0,-3,-11,-3,-23c0,0,0,-37,38,-56c0,0,38,-20,106,-20Zm-4,517c0,0,28,0,49,9c0,0,21,9,35,25c0,0,14,16,21,36c0,0,7,21,7,43c0,0,0,54,-30,84c0,0,-30,29,-84,29c0,0,-28,0,-49,-9c0,0,-21,-9,-34,-25c0,0,-14,-16,-21,-38c0,0,-7,-21,-7,-44c0,0,0,-51,30,-80c0,0,30,-30,83,-30Zm-4,-645c0,0,-85,0,-145,14c0,0,-60,13,-98,37c0,0,-39,24,-56,57c0,0,-18,33,-18,73c0,0,0,24,6,47c0,0,7,22,19,42c0,0,12,20,30,39c0,0,18,18,41,35c0,0,-32,18,-49,47c0,0,-18,29,-18,64c0,0,0,44,20,80c0,0,21,36,53,65c0,0,-27,26,-42,63c0,0,-16,37,-16,91c0,0,0,58,21,104c0,0,20,46,57,78c0,0,36,32,87,49c0,0,51,16,112,16c0,0,31,0,60,-3c0,0,29,-4,53,-11H665c0,0,13,0,21,-17c0,0,8,-16,8,-55c0,0,0,-36,-8,-53c0,0,-9,-17,-21,-17H587c0,0,17,-18,24,-41c0,0,7,-22,7,-47c0,0,0,-58,-20,-103c0,0,-19,-45,-55,-76c0,0,-36,-31,-88,-47c0,0,-51,-17,-113,-17c0,0,-32,0,-61,8c0,0,-30,8,-45,19c0,0,-9,-10,-16,-23c0,0,-7,-14,-7,-30c0,0,0,-22,19,-36c0,0,19,-13,53,-15l162,-6c0,0,57,-2,101,-16c0,0,44,-14,75,-39c0,0,30,-24,46,-59c0,0,16,-35,16,-79c0,0,0,-49,-22,-93c0,0,-21,-44,-65,-76c0,0,-43,-32,-108,-50c0,0,-66,-19,-153,-19Z" 
id="f0_9d"
transform="scale(0.001,-0.001)" />

<path d="M204,-9c0,0,-63,0,-87,23c0,0,-24,23,-24,89c0,0,0,70,24,94c0,0,25,24,88,24c0,0,62,0,86,-24c0,0,24,-23,24,-90c0,0,0,-69,-24,-93c0,0,-25,-23,-87,-23Z" 
id="f0_nt"
transform="scale(0.001,-0.001)" />

<path d="M142,0c0,0,-6,0,-12,4c0,0,-5,3,-9,12c0,0,-4,9,-6,23c0,0,-3,15,-3,36c0,0,0,21,2,36c0,0,2,14,6,23c0,0,4,9,10,13c0,0,5,5,12,5H322V779L166,693c0,0,-17,-8,-28,-10c0,0,-1,0,-3,0c-4,0,-10,1,-14,5c0,0,-6,6,-8,22c0,0,-2,15,-2,44c0,0,0,18,0,29c0,0,1,12,4,20c0,0,3,8,8,14c0,0,5,5,14,11L345,962c0,0,4,3,9,5c0,0,6,2,15,3c0,0,9,1,23,2c0,0,15,0,38,0c0,0,28,0,46,-1c0,0,17,-1,26,-4c0,0,9,-3,12,-7c0,0,3,-4,3,-11V152H675c0,0,7,0,12,-5c0,0,6,-4,10,-13c0,0,4,-9,6,-23c0,0,2,-15,2,-36c0,0,0,-21,-2,-36c0,0,-3,-14,-7,-23c0,0,-4,-9,-9,-12c0,0,-5,-4,-12,-4Z" 
id="f0_ry"
transform="scale(0.001,-0.001)" />

<path d="M385,138c0,0,29,0,52,9c0,0,22,10,39,28c0,0,17,19,28,47c0,0,11,29,19,66c0,0,7,37,9,84c0,0,3,47,3,104c0,0,0,69,-4,122c0,0,-4,52,-11,91c0,0,-8,39,-20,66c0,0,-12,27,-28,43c0,0,-16,16,-37,22c0,0,-21,7,-47,7c0,0,-44,0,-73,-21c0,0,-28,-21,-45,-64c0,0,-17,-42,-24,-106c0,0,-6,-63,-6,-148c0,0,0,-103,8,-171c0,0,8,-67,26,-107c0,0,17,-40,45,-56c0,0,27,-16,66,-16ZM378,-17c0,0,-99,0,-164,33c0,0,-65,34,-103,98c0,0,-38,64,-54,156c0,0,-15,92,-15,209c0,0,0,115,19,208c0,0,19,94,61,160c0,0,42,65,110,101c0,0,68,35,165,35c0,0,99,0,164,-34c0,0,65,-34,103,-98c0,0,39,-64,53,-156c0,0,15,-92,15,-209c0,0,0,-115,-18,-209c0,0,-19,-93,-61,-159C653,118,611,53,543,17c0,0,-67,-34,-165,-34Z" 
id="f0_rx"
transform="scale(0.001,-0.001)" />

<path d="M164,0c0,0,-25,0,-42,15c0,0,-16,14,-16,47V939c0,0,0,7,4,13c0,0,5,6,16,10c0,0,12,3,31,6c0,0,19,2,47,2c0,0,29,0,48,-2c0,0,18,-3,29,-6c0,0,11,-4,16,-10c0,0,5,-6,5,-13V162H606c0,0,7,0,13,-4c0,0,5,-4,9,-13c0,0,4,-10,6,-25c0,0,2,-15,2,-38c0,0,0,-22,-2,-37c0,0,-2,-16,-6,-26c0,0,-4,-10,-9,-15c0,0,-6,-4,-13,-4Z" 
id="f0_1r"
transform="scale(0.001,-0.001)" />

<path d="M337,115c0,0,39,0,73,21c0,0,33,20,67,59V308H405c0,0,-45,0,-77,-7c0,0,-32,-6,-53,-20c0,0,-20,-13,-29,-32c0,0,-9,-19,-9,-44c0,0,0,-42,26,-66c0,0,27,-24,74,-24ZM296,-17c0,0,-53,0,-98,14c0,0,-44,13,-77,40c0,0,-32,28,-50,68c0,0,-18,40,-18,94c0,0,0,58,23,101c0,0,22,43,68,71c0,0,45,28,112,42c0,0,67,13,156,13h65v40c0,0,0,32,-6,55c0,0,-7,24,-21,39c0,0,-15,16,-39,23c0,0,-24,8,-60,8c0,0,-47,0,-84,-11c0,0,-37,-10,-66,-23c0,0,-28,-13,-47,-23c0,0,-19,-11,-31,-11c0,0,-9,0,-15,5c0,0,-6,6,-10,15c0,0,-5,10,-7,24c0,0,-2,14,-2,31c0,0,0,23,4,37c0,0,3,13,14,24c0,0,10,11,36,24c0,0,27,13,62,25c0,0,35,11,76,18c0,0,42,7,86,7c0,0,78,0,134,-15c0,0,55,-15,91,-47c0,0,36,-32,53,-82c0,0,16,-50,16,-118V23c0,0,0,-11,-7,-17c0,0,-8,-6,-24,-7c0,0,-16,-3,-47,-3c0,0,-34,0,-49,3c0,0,-15,1,-21,7c0,0,-7,6,-7,17V76C506,76,465,32,412,7c0,0,-52,-24,-116,-24Z" 
id="f0_77"
transform="scale(0.001,-0.001)" />

<path d="M371,-16c0,0,-77,0,-136,23c0,0,-60,24,-100,71c0,0,-40,47,-61,114c0,0,-20,67,-20,154c0,0,0,100,25,173c0,0,25,72,69,120c0,0,45,48,106,71c0,0,62,23,135,23c0,0,29,0,58,-5c0,0,29,-5,54,-14c0,0,25,-9,45,-20c0,0,19,-12,28,-20c0,0,8,-8,11,-14c0,0,3,-5,5,-14c0,0,2,-9,3,-22c0,0,1,-13,1,-32c0,0,0,-43,-7,-61c0,0,-7,-18,-19,-18c0,0,-13,0,-27,11c0,0,-14,10,-34,23c0,0,-19,13,-46,23c0,0,-27,11,-64,11c0,0,-73,0,-112,-57c0,0,-39,-56,-39,-165c0,0,0,-54,10,-95c0,0,10,-41,29,-69c0,0,19,-28,47,-41c0,0,29,-14,67,-14c0,0,39,0,67,11c0,0,28,12,49,26c0,0,21,14,35,26c0,0,14,11,24,11c0,0,6,0,11,-4c0,0,4,-3,7,-13c0,0,2,-11,4,-26c0,0,1,-16,1,-41c0,0,0,-19,-1,-32c0,0,-1,-13,-3,-22c0,0,-2,-9,-4,-15c0,0,-3,-5,-12,-14c0,0,-9,-8,-30,-20C547,27,525,14,497,5c0,0,-27,-9,-60,-15c0,0,-32,-6,-66,-6Z" 
id="f0_7l"
transform="scale(0.001,-0.001)" />

<path d="M344,-14c0,0,-56,0,-97,14c0,0,-42,14,-69,43c0,0,-26,29,-39,74c0,0,-13,45,-13,106V563H47c0,0,-15,0,-22,18c0,0,-7,17,-7,58c0,0,0,22,1,37c0,0,2,15,6,24c0,0,4,8,9,12c0,0,6,4,13,4h79V864c0,0,0,8,4,14c0,0,4,6,15,10c0,0,11,4,29,6c0,0,19,2,46,2c0,0,27,0,46,-2c0,0,18,-2,28,-6c0,0,11,-4,15,-10c0,0,5,-6,5,-14V716H459c0,0,7,0,13,-4c0,0,6,-4,9,-12c0,0,4,-9,6,-24c0,0,2,-15,2,-37c0,0,0,-41,-8,-58c0,0,-7,-18,-21,-18H314V251c0,0,0,-54,17,-81c0,0,17,-27,61,-27c0,0,15,0,27,2c0,0,12,3,22,6c0,0,9,4,15,6c0,0,7,3,12,3c0,0,4,0,9,-3c0,0,4,-2,6,-10c0,0,2,-8,4,-21c0,0,2,-14,2,-35c0,0,0,-33,-4,-50c0,0,-4,-18,-11,-25c0,0,-7,-7,-20,-12c0,0,-13,-5,-31,-9c0,0,-17,-4,-38,-6c0,0,-20,-3,-41,-3Z" 
id="f0_bf"
transform="scale(0.001,-0.001)" />

<path d="M409,132c0,0,42,0,73,15c0,0,32,16,52,45c0,0,20,29,29,70c0,0,10,42,10,95c0,0,0,49,-8,91c0,0,-8,41,-26,72c0,0,-19,30,-50,48c0,0,-30,17,-77,17c0,0,-42,0,-73,-16c0,0,-31,-15,-51,-44c0,0,-21,-30,-31,-71c0,0,-10,-42,-10,-95c0,0,0,-49,9,-91c0,0,8,-41,26,-72c0,0,18,-30,49,-47c0,0,32,-17,78,-17ZM402,-17c0,0,-89,0,-154,24c0,0,-66,25,-109,72c0,0,-43,47,-64,115c0,0,-21,69,-21,157c0,0,0,85,23,156c0,0,22,70,68,121c0,0,45,50,113,78c0,0,69,27,160,27c0,0,90,0,155,-24c0,0,66,-24,109,-71c0,0,43,-47,64,-116c0,0,21,-69,21,-157c0,0,0,-86,-23,-156c0,0,-22,-70,-68,-121C676,88,631,38,562,10c0,0,-68,-27,-160,-27Z" 
id="f0_am"
transform="scale(0.001,-0.001)" />

<path d="M275,-17c0,0,-37,0,-71,6c0,0,-34,6,-61,13c0,0,-27,9,-45,18c0,0,-18,9,-26,17c0,0,-8,8,-13,25c0,0,-4,17,-4,49c0,0,0,22,1,35c0,0,2,13,5,21c0,0,3,8,7,10c0,0,5,3,11,3c0,0,9,0,25,-9c0,0,16,-10,40,-21c0,0,24,-11,55,-21c0,0,32,-10,72,-10c0,0,26,0,46,5c0,0,19,6,34,15c0,0,14,10,22,25c0,0,7,15,7,34c0,0,0,23,-13,39c0,0,-14,16,-37,28c0,0,-23,11,-52,22c0,0,-28,10,-58,23c0,0,-31,13,-59,29c0,0,-29,17,-52,41c0,0,-23,23,-37,57c0,0,-13,34,-13,81c0,0,0,47,18,87c0,0,19,40,54,69c0,0,35,28,86,44c0,0,50,15,113,15c0,0,31,0,61,-4c0,0,29,-5,53,-11c0,0,24,-7,40,-15c0,0,17,-7,24,-13c0,0,7,-6,10,-11c0,0,3,-6,4,-14c0,0,2,-7,3,-19c0,0,1,-12,1,-29c0,0,0,-20,-1,-33c0,0,-1,-12,-4,-20c0,0,-2,-7,-7,-10c0,0,-4,-3,-10,-3c0,0,-7,0,-21,8c0,0,-14,8,-36,17c0,0,-21,9,-49,17c0,0,-28,7,-64,7c0,0,-25,0,-44,-5c0,0,-19,-5,-30,-15c0,0,-12,-9,-18,-22c0,0,-6,-14,-6,-28c0,0,0,-24,14,-39c0,0,14,-16,37,-28c0,0,23,-12,53,-22c0,0,29,-11,59,-23c0,0,31,-12,60,-29c0,0,30,-16,53,-40c0,0,23,-24,37,-57c0,0,14,-33,14,-79c0,0,0,-57,-21,-100c0,0,-21,-43,-60,-72c0,0,-39,-29,-92,-43c0,0,-53,-15,-115,-15Z" 
id="f0_b5"
transform="scale(0.001,-0.001)" />

<path d="M526,431c0,0,2,79,-32,124c0,0,-34,45,-105,45c0,0,-35,0,-62,-13c0,0,-26,-13,-44,-36c0,0,-17,-23,-27,-54c0,0,-9,-31,-11,-66ZM410,-17c0,0,-88,0,-155,22c0,0,-67,22,-112,68c0,0,-44,45,-66,115c0,0,-22,69,-22,162c0,0,0,89,23,161c0,0,23,71,67,120c0,0,44,50,107,76c0,0,63,26,142,26c0,0,84,0,143,-24c0,0,59,-25,97,-69c0,0,38,-43,56,-103c0,0,18,-60,18,-130V377c0,0,0,-34,-15,-51c0,0,-16,-16,-43,-16H245c0,0,0,-43,10,-77c0,0,11,-35,33,-59c0,0,22,-24,56,-37c0,0,35,-13,83,-13c0,0,50,0,87,7c0,0,37,8,65,16c0,0,27,9,45,16c0,0,18,7,29,7c0,0,6,0,11,-2c0,0,4,-3,7,-10c0,0,3,-7,4,-19c0,0,2,-12,2,-31c0,0,0,-16,-1,-28c0,0,-1,-12,-2,-20c0,0,-2,-8,-5,-14c0,0,-3,-5,-8,-10c0,0,-5,-6,-26,-15c0,0,-22,-9,-55,-17c0,0,-34,-8,-77,-14c0,0,-43,-7,-93,-7Z" 
id="f0_7z"
transform="scale(0.001,-0.001)" />

<path d="M432,142c0,0,36,0,62,18c0,0,26,19,42,49c0,0,16,31,24,69c0,0,8,38,8,76c0,0,0,43,-6,82c0,0,-7,39,-22,70c0,0,-15,30,-40,49c0,0,-25,18,-62,18c0,0,-19,0,-37,-6c0,0,-19,-5,-38,-18c0,0,-19,-13,-39,-33c0,0,-20,-20,-42,-50V247c0,0,39,-51,75,-78c0,0,36,-27,75,-27ZM188,-270c0,0,-28,0,-46,2c0,0,-18,3,-28,7c0,0,-11,4,-16,10c0,0,-4,6,-4,13V691c0,0,0,7,4,13c0,0,3,5,13,9c0,0,9,4,24,6c0,0,15,2,39,2c0,0,22,0,37,-2c0,0,15,-2,25,-6c0,0,9,-4,13,-9c0,0,4,-6,4,-13V612c0,0,29,30,57,53c0,0,28,23,57,38c0,0,29,15,60,23c0,0,31,7,66,7c0,0,73,0,124,-28c0,0,52,-29,84,-79c0,0,33,-50,48,-117c0,0,15,-66,15,-141c0,0,0,-89,-19,-161c0,0,-19,-71,-56,-121C689,86,652,36,598,9c0,0,-54,-26,-125,-26c0,0,-29,0,-53,6c0,0,-24,6,-47,16c0,0,-23,12,-45,29c0,0,-23,17,-46,40V-238c0,0,0,-7,-5,-13c0,0,-4,-6,-15,-10c0,0,-11,-4,-29,-7c0,0,-18,-2,-45,-2Z" 
id="f0_ay"
transform="scale(0.001,-0.001)" />

<path d="M188,-4c0,0,-28,0,-46,2c0,0,-18,2,-28,5c0,0,-11,3,-16,9c0,0,-4,5,-4,13V691c0,0,0,7,4,13c0,0,3,5,13,9c0,0,10,4,25,6c0,0,15,2,38,2c0,0,24,0,40,-2c0,0,15,-2,24,-6c0,0,9,-4,12,-9c0,0,4,-6,4,-13V608c0,0,26,37,49,61c0,0,23,25,44,39c0,0,21,14,42,20c0,0,21,5,42,5c0,0,10,0,21,-1c0,0,11,-1,23,-4c0,0,12,-2,21,-5c0,0,9,-4,13,-8c0,0,4,-3,6,-8c0,0,2,-4,3,-12c0,0,2,-8,2,-24c0,0,1,-15,1,-42c0,0,0,-27,-1,-44c0,0,-2,-17,-5,-27c0,0,-3,-10,-8,-13c0,0,-5,-4,-12,-4c0,0,-6,0,-13,3c0,0,-8,2,-17,5c0,0,-10,3,-21,6c0,0,-11,2,-24,2c0,0,-16,0,-32,-6c0,0,-15,-6,-32,-20c0,0,-17,-13,-35,-36c0,0,-19,-22,-39,-55V25c0,0,0,-8,-5,-13c0,0,-4,-6,-15,-9c0,0,-11,-3,-29,-5c0,0,-18,-2,-45,-2Z" 
id="f0_b1"
transform="scale(0.001,-0.001)" />

<path d="M188,-4c0,0,-28,0,-46,2c0,0,-18,2,-28,5c0,0,-11,3,-16,9c0,0,-4,5,-4,13V691c0,0,0,7,4,13c0,0,3,5,13,9c0,0,10,4,25,6c0,0,15,2,38,2c0,0,24,0,40,-2c0,0,15,-2,24,-6c0,0,9,-4,12,-9c0,0,4,-6,4,-13V614c0,0,55,60,112,89c0,0,57,30,119,30c0,0,68,0,115,-22c0,0,47,-22,75,-61c0,0,29,-38,42,-90c0,0,12,-51,12,-124V25c0,0,0,-8,-4,-13c0,0,-5,-6,-15,-9c0,0,-10,-3,-29,-5c0,0,-18,-2,-45,-2c0,0,-28,0,-46,2c0,0,-18,2,-29,5c0,0,-10,3,-15,9c0,0,-4,6,-4,13V405c0,0,0,49,-7,76c0,0,-7,28,-21,48c0,0,-13,19,-35,30c0,0,-21,11,-49,11c0,0,-36,0,-72,-26c0,0,-37,-26,-76,-76V25c0,0,0,-7,-5,-13c0,0,-4,-6,-15,-9c0,0,-11,-3,-29,-5c0,0,-18,-2,-45,-2Z" 
id="f0_af"
transform="scale(0.001,-0.001)" />

<path d="M204,-4c0,0,-28,0,-47,2c0,0,-19,2,-30,5c0,0,-12,4,-17,10c0,0,-4,6,-4,13V939c0,0,0,7,4,13c0,0,5,6,17,10c0,0,11,3,30,6c0,0,19,2,47,2c0,0,29,0,48,-2c0,0,19,-3,30,-6c0,0,11,-4,16,-10c0,0,4,-6,4,-13V584H663V939c0,0,0,7,5,13c0,0,5,6,15,10c0,0,11,3,30,6c0,0,19,2,49,2c0,0,28,0,47,-2c0,0,18,-3,30,-6c0,0,11,-4,16,-10c0,0,4,-6,4,-13V26c0,0,0,-7,-4,-13c0,0,-5,-6,-16,-10c0,0,-12,-3,-30,-5c0,0,-19,-2,-47,-2c0,0,-30,0,-49,2c0,0,-19,2,-30,5c0,0,-10,4,-15,10c0,0,-5,6,-5,13V417H302V26c0,0,0,-7,-4,-13c0,0,-5,-6,-16,-10c0,0,-11,-3,-30,-5c0,0,-19,-2,-48,-2Z" 
id="f0_19"
transform="scale(0.001,-0.001)" />

<path d="M334,-17c0,0,-69,0,-115,22c0,0,-47,22,-76,61c0,0,-28,39,-41,90c0,0,-12,51,-12,127V691c0,0,0,7,4,13c0,0,4,5,15,9c0,0,11,4,29,6c0,0,19,2,45,2c0,0,28,0,46,-2c0,0,18,-2,29,-6c0,0,11,-4,15,-9c0,0,5,-6,5,-13V314c0,0,0,-52,6,-79c0,0,7,-28,21,-48c0,0,14,-20,35,-30c0,0,21,-11,49,-11c0,0,36,0,72,26c0,0,36,26,77,76V691c0,0,0,7,4,13c0,0,4,5,15,9c0,0,11,4,29,6c0,0,18,2,45,2c0,0,28,0,46,-2c0,0,18,-2,28,-6c0,0,11,-4,15,-9c0,0,5,-6,5,-13V25c0,0,0,-8,-4,-13c0,0,-4,-6,-13,-9c0,0,-10,-3,-25,-5c0,0,-15,-2,-38,-2c0,0,-25,0,-40,2c0,0,-16,2,-25,5c0,0,-9,3,-12,9c0,0,-4,5,-4,13v77c0,0,-55,-60,-112,-90c0,0,-57,-29,-118,-29Z" 
id="f0_c6"
transform="scale(0.001,-0.001)" />

<path d="M188,-4c0,0,-28,0,-46,2c0,0,-18,2,-28,5c0,0,-11,3,-16,9c0,0,-4,5,-4,13V691c0,0,0,7,4,13c0,0,3,5,13,9c0,0,10,4,25,6c0,0,15,2,38,2c0,0,24,0,40,-2c0,0,15,-2,24,-6c0,0,9,-4,12,-9c0,0,4,-6,4,-13V614c0,0,55,60,110,89c0,0,55,30,115,30c0,0,41,0,74,-8c0,0,33,-9,59,-25c0,0,26,-16,44,-38c0,0,19,-23,32,-50c0,0,30,32,58,55c0,0,29,23,57,38c0,0,28,14,56,21c0,0,28,7,57,7c0,0,66,0,112,-22c0,0,45,-22,73,-61c0,0,28,-38,40,-90c0,0,12,-51,12,-109V25c0,0,0,-8,-5,-13c0,0,-4,-6,-15,-9c0,0,-10,-3,-28,-5c0,0,-18,-2,-46,-2c0,0,-28,0,-46,2c0,0,-18,2,-29,5c0,0,-11,3,-15,9c0,0,-4,6,-4,13V420c0,0,0,34,-6,61c0,0,-7,28,-20,48c0,0,-13,19,-32,30c0,0,-20,11,-47,11c0,0,-34,0,-68,-26c0,0,-34,-26,-74,-76V25c0,0,0,-7,-5,-13c0,0,-4,-6,-15,-9c0,0,-11,-3,-29,-5c0,0,-18,-2,-45,-2c0,0,-27,0,-45,2c0,0,-18,2,-29,5c0,0,-11,3,-16,9c0,0,-4,6,-4,13V420c0,0,0,34,-6,61c0,0,-7,28,-19,48c0,0,-13,19,-33,30c0,0,-21,11,-48,11c0,0,-34,0,-68,-26c0,0,-35,-26,-74,-76V25c0,0,0,-7,-5,-13c0,0,-4,-6,-15,-9c0,0,-11,-3,-29,-5c0,0,-18,-2,-45,-2Z" 
id="f0_ae"
transform="scale(0.001,-0.001)" />

<path d="M77,-271c0,0,-31,0,-52,4c0,0,-22,4,-31,9c0,0,-9,4,-13,11c0,0,-4,7,-5,15c0,0,-2,9,-3,20c0,0,0,11,0,28c0,0,0,21,1,35c0,0,1,13,4,22c0,0,3,8,7,12c0,0,3,3,9,3c0,0,4,0,15,-1c0,0,11,-2,25,-2c0,0,19,0,33,6c0,0,15,6,24,19c0,0,9,13,13,33c0,0,5,21,5,64V689c0,0,0,8,4,13c0,0,5,6,15,10c0,0,10,4,28,6c0,0,18,3,46,3c0,0,28,0,46,-3c0,0,18,-2,28,-6c0,0,11,-4,16,-10c0,0,4,-5,4,-13V3c0,0,0,-77,-13,-125c0,0,-14,-49,-41,-82c0,0,-27,-33,-68,-50c0,0,-42,-17,-97,-17ZM201,816c0,0,-62,0,-85,21c0,0,-22,21,-22,75c0,0,0,57,23,79c0,0,23,22,86,22c0,0,63,0,85,-21c0,0,22,-21,22,-76c0,0,0,-56,-23,-78c0,0,-22,-22,-86,-22Z" 
id="f0_a2"
transform="scale(0.001,-0.001)" />

<path d="M372,-4c0,0,-18,0,-30,2c0,0,-13,2,-21,3c0,0,-7,3,-10,8c0,0,-3,4,-3,10V857H36c0,0,-6,0,-11,3c0,0,-5,2,-8,9c0,0,-2,6,-4,17c0,0,-2,10,-2,24c0,0,0,14,2,25c0,0,2,11,4,17c0,0,3,7,8,10c0,0,5,3,11,3H708c0,0,6,0,11,-3c0,0,5,-3,8,-10c0,0,4,-6,5,-17c0,0,2,-11,2,-25c0,0,0,-14,-2,-24c0,0,-1,-11,-5,-17c0,0,-3,-7,-8,-9c0,0,-5,-3,-11,-3H436V19c0,0,0,-6,-3,-10c0,0,-3,-5,-10,-8c0,0,-8,-1,-20,-3c0,0,-12,-2,-31,-2Z" 
id="f1_2t"
transform="scale(0.001,-0.001)" />

<path d="M176,-4c0,0,-18,0,-30,2c0,0,-12,1,-19,3c0,0,-7,3,-10,7c0,0,-3,4,-3,10v997c0,0,0,6,3,11c0,0,3,4,10,7c0,0,7,3,19,5c0,0,12,1,30,1c0,0,18,0,30,-1c0,0,12,-2,19,-5c0,0,7,-3,9,-7c0,0,3,-5,3,-10V614c0,0,53,56,107,83c0,0,54,28,108,28c0,0,67,0,113,-23c0,0,46,-23,74,-61c0,0,29,-38,41,-89c0,0,12,-52,12,-124V18c0,0,0,-6,-3,-10c0,0,-3,-4,-9,-7c0,0,-7,-2,-19,-3c0,0,-12,-2,-30,-2c0,0,-19,0,-30,2c0,0,-12,1,-19,3c0,0,-7,3,-10,7c0,0,-3,4,-3,10V412c0,0,0,58,-9,93c0,0,-9,35,-26,61c0,0,-17,25,-44,38c0,0,-27,14,-63,14c0,0,-46,0,-93,-33c0,0,-46,-33,-97,-96V18c0,0,0,-6,-3,-10c0,0,-2,-4,-9,-7c0,0,-7,-2,-19,-3c0,0,-12,-2,-30,-2Z" 
id="f1_9n"
transform="scale(0.001,-0.001)" />

<path d="M564,420c0,0,2,98,-43,153c0,0,-46,56,-134,56c0,0,-46,0,-80,-18c0,0,-35,-17,-58,-45c0,0,-23,-29,-36,-67c0,0,-12,-37,-14,-79ZM405,-13c0,0,-83,0,-145,22c0,0,-62,24,-105,69c0,0,-42,46,-64,114c0,0,-22,69,-22,160c0,0,0,87,23,156c0,0,22,69,64,117c0,0,43,48,102,74c0,0,60,26,134,26c0,0,79,0,135,-26c0,0,55,-25,91,-68c0,0,36,-43,53,-101c0,0,16,-58,16,-123V384c0,0,0,-29,-14,-41c0,0,-15,-13,-33,-13H199c0,0,0,-56,11,-100c0,0,12,-45,38,-77c0,0,26,-33,68,-50c0,0,41,-17,102,-17c0,0,48,0,85,8c0,0,37,8,65,17c0,0,27,10,44,18c0,0,18,8,27,8c0,0,5,0,9,-3c0,0,4,-2,7,-8c0,0,2,-5,3,-14c0,0,1,-9,1,-23c0,0,0,-9,-1,-16c0,0,0,-8,-2,-13c0,0,-1,-6,-3,-10c0,0,-3,-5,-7,-9c0,0,-4,-4,-24,-13c0,0,-20,-10,-53,-18c0,0,-32,-9,-74,-16c0,0,-42,-7,-90,-7Z" 
id="f1_7z"
transform="scale(0.001,-0.001)" />

<path d="M272,-13c0,0,-35,0,-68,6c0,0,-32,6,-58,13c0,0,-26,9,-44,18c0,0,-17,10,-26,17c0,0,-8,8,-12,21c0,0,-3,14,-3,37c0,0,0,14,1,24c0,0,2,9,4,15c0,0,2,6,6,9c0,0,4,3,10,3c0,0,8,0,24,-11c0,0,16,-10,39,-22c0,0,24,-12,56,-22c0,0,32,-10,74,-10c0,0,31,0,56,7c0,0,26,6,44,19c0,0,19,14,29,34c0,0,10,20,10,47c0,0,0,29,-14,48c0,0,-15,19,-39,34c0,0,-24,15,-53,27c0,0,-30,11,-62,24c0,0,-32,13,-62,29c0,0,-30,16,-54,39c0,0,-24,23,-38,55c0,0,-15,32,-15,77c0,0,0,40,16,76c0,0,15,36,45,63c0,0,31,28,77,44c0,0,46,17,107,17c0,0,27,0,54,-5c0,0,26,-5,48,-11c0,0,22,-7,37,-15c0,0,15,-8,23,-14c0,0,8,-6,11,-11c0,0,2,-4,3,-10c0,0,1,-5,2,-14c0,0,2,-8,2,-20c0,0,0,-12,-2,-22c0,0,-1,-9,-3,-15c0,0,-3,-6,-7,-8c0,0,-3,-3,-8,-3c0,0,-7,0,-19,8c0,0,-13,8,-33,18c0,0,-20,9,-47,17c0,0,-28,9,-63,9c0,0,-31,0,-55,-7c0,0,-24,-7,-39,-20c0,0,-15,-13,-23,-31c0,0,-8,-18,-8,-39c0,0,0,-29,15,-49c0,0,15,-20,39,-35c0,0,24,-15,54,-27c0,0,31,-11,62,-24c0,0,32,-13,63,-29c0,0,31,-15,55,-38c0,0,24,-22,38,-53c0,0,15,-32,15,-75c0,0,0,-51,-19,-92c0,0,-19,-40,-54,-68C463,42,428,15,379,1c0,0,-48,-14,-107,-14Z" 
id="f1_b5"
transform="scale(0.001,-0.001)" />

<path d="M321,82c0,0,48,0,90,25c0,0,41,24,87,75V325H392c0,0,-50,0,-88,-9c0,0,-37,-9,-62,-25c0,0,-24,-17,-36,-41c0,0,-11,-23,-11,-54c0,0,0,-52,33,-83c0,0,33,-31,93,-31ZM301,-13c0,0,-53,0,-96,13c0,0,-43,14,-73,40c0,0,-30,26,-47,64c0,0,-17,38,-17,87c0,0,0,56,24,98c0,0,23,42,66,69c0,0,43,28,106,42c0,0,63,14,141,14h93v52c0,0,0,39,-9,69c0,0,-8,30,-26,50c0,0,-18,20,-47,30c0,0,-30,10,-72,10c0,0,-46,0,-82,-11c0,0,-36,-11,-63,-24c0,0,-27,-13,-46,-24c0,0,-18,-11,-27,-11c0,0,-6,0,-10,3c0,0,-5,3,-8,9c0,0,-3,6,-5,16c0,0,-1,9,-1,20c0,0,0,19,2,30c0,0,3,11,13,20c0,0,10,10,35,23c0,0,24,13,56,24c0,0,32,10,70,17c0,0,38,8,77,8c0,0,73,0,123,-17c0,0,51,-16,82,-48c0,0,32,-32,46,-79c0,0,14,-47,14,-110V18c0,0,0,-9,-6,-14c0,0,-6,-4,-16,-6c0,0,-11,-2,-31,-2c0,0,-19,0,-31,2c0,0,-12,2,-17,6c0,0,-5,5,-5,13V85c0,0,-44,-47,-98,-73c0,0,-54,-25,-115,-25Z" 
id="f1_77"
transform="scale(0.001,-0.001)" />

<path d="M176,-4c0,0,-18,0,-30,2c0,0,-12,1,-19,3c0,0,-7,3,-10,7c0,0,-3,4,-3,10v997c0,0,0,6,3,11c0,0,3,4,10,7c0,0,7,3,19,5c0,0,12,1,30,1c0,0,18,0,30,-1c0,0,12,-2,19,-5c0,0,7,-3,9,-7c0,0,3,-5,3,-11V18c0,0,0,-6,-3,-10c0,0,-2,-4,-9,-7c0,0,-7,-2,-19,-3c0,0,-12,-2,-30,-2Z" 
id="f1_a8"
transform="scale(0.001,-0.001)" />

<path d="M176,-4c0,0,-18,0,-30,2c0,0,-12,1,-19,3c0,0,-7,3,-10,7c0,0,-3,4,-3,10V690c0,0,0,5,3,9c0,0,3,5,10,8c0,0,7,3,19,4c0,0,12,2,30,2c0,0,18,0,30,-2c0,0,12,-1,19,-4c0,0,7,-3,9,-8c0,0,3,-4,3,-9V18c0,0,0,-6,-3,-10c0,0,-2,-4,-9,-7c0,0,-7,-2,-19,-3c0,0,-12,-2,-30,-2Zm-1,846c0,0,-43,0,-59,15c0,0,-16,15,-16,58c0,0,0,43,16,59c0,0,17,16,61,16c0,0,43,0,59,-16c0,0,16,-15,16,-58c0,0,0,-43,-16,-58c0,0,-17,-16,-61,-16Z" 
id="f1_9q"
transform="scale(0.001,-0.001)" />

<path d="M176,-4c0,0,-18,0,-30,2c0,0,-12,1,-19,3c0,0,-7,3,-10,7c0,0,-3,4,-3,10V690c0,0,0,6,3,10c0,0,2,4,9,7c0,0,6,4,17,5c0,0,10,1,27,1c0,0,17,0,28,-1c0,0,10,-1,16,-5c0,0,6,-3,9,-7c0,0,3,-4,3,-10V601c0,0,56,64,112,94c0,0,57,30,114,30c0,0,67,0,113,-23c0,0,46,-23,74,-61c0,0,29,-38,41,-89c0,0,12,-52,12,-123V18c0,0,0,-6,-3,-10c0,0,-3,-4,-9,-7c0,0,-7,-2,-19,-3c0,0,-12,-2,-30,-2c0,0,-19,0,-30,2c0,0,-12,1,-19,3c0,0,-7,3,-10,7c0,0,-3,4,-3,10V412c0,0,0,58,-9,93c0,0,-9,35,-26,61c0,0,-17,25,-44,38c0,0,-27,14,-63,14c0,0,-46,0,-93,-33c0,0,-46,-33,-97,-96V18c0,0,0,-6,-3,-10c0,0,-2,-4,-9,-7c0,0,-7,-2,-19,-3c0,0,-12,-2,-30,-2Z" 
id="f1_af"
transform="scale(0.001,-0.001)" />

<path d="M339,-13c0,0,-52,0,-90,13c0,0,-37,14,-61,42c0,0,-24,28,-34,71c0,0,-11,43,-11,101V607H49c0,0,-11,0,-18,12c0,0,-7,12,-7,39c0,0,0,14,2,24c0,0,2,10,5,16c0,0,3,7,8,9c0,0,5,3,11,3h93V870c0,0,0,5,2,9c0,0,3,5,10,8c0,0,7,4,19,5c0,0,12,2,30,2c0,0,19,0,31,-2c0,0,11,-1,18,-5c0,0,7,-3,10,-8c0,0,3,-4,3,-9V710H438c0,0,6,0,10,-3c0,0,5,-2,8,-9c0,0,4,-6,5,-16c0,0,1,-10,1,-24c0,0,0,-27,-6,-39c0,0,-7,-12,-18,-12H266V232c0,0,0,-69,20,-105c0,0,21,-35,74,-35c0,0,17,0,30,3c0,0,14,4,24,7c0,0,10,4,18,7c0,0,7,4,13,4c0,0,4,0,7,-2c0,0,4,-2,6,-7c0,0,2,-5,3,-14c0,0,1,-9,1,-23c0,0,0,-22,-2,-34c0,0,-3,-13,-9,-19c0,0,-6,-6,-18,-11c0,0,-12,-4,-28,-8c0,0,-15,-3,-32,-5c0,0,-17,-3,-34,-3Z" 
id="f1_bf"
transform="scale(0.001,-0.001)" />

<path d="M209,-4c0,0,-18,0,-30,2c0,0,-12,1,-19,3c0,0,-7,3,-10,7c0,0,-3,4,-3,10V607H52c0,0,-12,0,-18,12c0,0,-6,12,-6,39c0,0,0,14,2,24c0,0,1,10,4,16c0,0,3,7,8,9c0,0,4,3,10,3h95v69c0,0,0,71,13,121c0,0,13,50,40,82c0,0,27,33,67,48c0,0,41,15,96,15c0,0,26,0,51,-5c0,0,25,-4,38,-10c0,0,13,-6,18,-10c0,0,4,-5,7,-12c0,0,3,-7,5,-17c0,0,1,-10,1,-24c0,0,0,-15,-2,-23c0,0,-1,-9,-3,-14c0,0,-2,-5,-5,-7c0,0,-3,-2,-8,-2c0,0,-5,0,-13,3c0,0,-7,4,-19,8c0,0,-11,4,-26,7c0,0,-15,4,-36,4c0,0,-27,0,-47,-9c0,0,-19,-9,-31,-28c0,0,-12,-19,-17,-50c0,0,-5,-30,-5,-73V710H421c0,0,6,0,10,-3c0,0,4,-2,7,-9c0,0,4,-6,6,-16c0,0,2,-10,2,-24c0,0,0,-27,-7,-39c0,0,-7,-12,-18,-12H271V18c0,0,0,-6,-3,-10c0,0,-3,-4,-11,-7c0,0,-7,-2,-19,-3c0,0,-12,-2,-29,-2Z" 
id="f1_89"
transform="scale(0.001,-0.001)" />

<path d="M351,-13c0,0,-67,0,-113,22c0,0,-46,22,-75,60c0,0,-28,39,-40,90c0,0,-13,51,-13,124V690c0,0,0,6,3,10c0,0,3,4,10,7c0,0,8,4,20,5c0,0,11,1,29,1c0,0,18,0,30,-1c0,0,12,-1,19,-5c0,0,7,-3,10,-7c0,0,3,-4,3,-10V299c0,0,0,-59,9,-94c0,0,8,-36,26,-61c0,0,18,-24,44,-38c0,0,27,-14,63,-14c0,0,46,0,92,33c0,0,46,32,98,95V690c0,0,0,6,2,10c0,0,3,4,10,7c0,0,8,4,19,5c0,0,12,1,30,1c0,0,18,0,30,-1c0,0,12,-1,19,-5c0,0,7,-3,10,-7c0,0,3,-4,3,-10V18c0,0,0,-6,-2,-10c0,0,-3,-4,-10,-7c0,0,-6,-2,-17,-3c0,0,-11,-2,-27,-2c0,0,-17,0,-28,2c0,0,-10,1,-17,3c0,0,-6,3,-8,7c0,0,-3,4,-3,10v89c0,0,-57,-63,-113,-92c0,0,-56,-28,-113,-28Z" 
id="f1_c6"
transform="scale(0.001,-0.001)" />

<path d="M176,-4c0,0,-18,0,-30,2c0,0,-12,1,-19,3c0,0,-7,3,-10,7c0,0,-3,4,-3,10V690c0,0,0,6,3,10c0,0,2,4,9,7c0,0,6,4,17,5c0,0,10,1,27,1c0,0,17,0,28,-1c0,0,10,-1,16,-5c0,0,6,-3,9,-7c0,0,3,-4,3,-10V592c0,0,27,41,51,66c0,0,25,26,46,41c0,0,22,14,43,20c0,0,21,6,43,6c0,0,10,0,22,-2c0,0,12,-1,26,-4c0,0,13,-3,24,-6c0,0,11,-4,15,-8c0,0,5,-4,6,-7c0,0,2,-3,3,-9c0,0,1,-5,1,-15c0,0,0,-10,0,-27c0,0,0,-16,0,-28c0,0,-1,-11,-3,-17c0,0,-2,-6,-6,-10c0,0,-3,-3,-9,-3c0,0,-6,0,-15,3c0,0,-8,4,-19,7c0,0,-11,3,-24,6c0,0,-14,3,-29,3c0,0,-19,0,-37,-7c0,0,-18,-8,-37,-25c0,0,-20,-18,-42,-46c0,0,-21,-29,-48,-70V18c0,0,0,-6,-3,-10c0,0,-2,-4,-9,-7c0,0,-7,-2,-19,-3c0,0,-12,-2,-30,-2Z" 
id="f1_b1"
transform="scale(0.001,-0.001)" />

<path d="M401,90c0,0,54,0,93,19c0,0,40,20,65,55c0,0,26,35,37,84c0,0,12,48,12,106c0,0,0,55,-10,104c0,0,-10,48,-33,85c0,0,-23,36,-62,58c0,0,-40,21,-99,21c0,0,-54,0,-93,-20c0,0,-39,-19,-65,-54c0,0,-25,-36,-37,-85c0,0,-12,-48,-12,-106c0,0,0,-55,10,-103c0,0,10,-49,33,-85c0,0,24,-36,63,-58c0,0,39,-21,98,-21ZM395,-13c0,0,-82,0,-144,24c0,0,-61,25,-102,72c0,0,-41,47,-61,114c0,0,-21,67,-21,152c0,0,0,82,22,151c0,0,21,69,64,119c0,0,43,50,107,78c0,0,64,28,150,28c0,0,82,0,144,-25c0,0,61,-25,102,-72c0,0,41,-47,62,-114c0,0,20,-67,20,-151c0,0,0,-83,-21,-152c0,0,-22,-69,-65,-119C652,92,609,42,545,14c0,0,-65,-27,-150,-27Z" 
id="f1_am"
transform="scale(0.001,-0.001)" />

<path d="M176,-4c0,0,-18,0,-30,2c0,0,-12,1,-19,3c0,0,-7,3,-10,7c0,0,-3,4,-3,10V690c0,0,0,6,3,10c0,0,2,4,9,7c0,0,6,4,17,5c0,0,10,1,27,1c0,0,17,0,28,-1c0,0,10,-1,16,-5c0,0,6,-3,9,-7c0,0,3,-4,3,-10V601c0,0,56,64,110,94c0,0,53,30,108,30c0,0,42,0,75,-10c0,0,33,-10,58,-28c0,0,26,-17,44,-42c0,0,18,-24,30,-55c0,0,33,37,63,63c0,0,31,26,59,41c0,0,28,16,54,23c0,0,27,8,53,8c0,0,65,0,109,-23c0,0,44,-23,71,-61c0,0,28,-38,39,-89c0,0,12,-52,12,-108V18c0,0,0,-6,-3,-10c0,0,-3,-4,-10,-7c0,0,-7,-2,-19,-3c0,0,-12,-2,-29,-2c0,0,-19,0,-31,2c0,0,-12,1,-19,3c0,0,-7,3,-10,7c0,0,-3,4,-3,10V427c0,0,0,43,-8,78c0,0,-7,35,-23,61c0,0,-17,25,-42,38c0,0,-25,14,-60,14c0,0,-42,0,-85,-33c0,0,-43,-33,-94,-96V18c0,0,0,-6,-3,-10c0,0,-3,-4,-11,-7c0,0,-7,-2,-19,-3c0,0,-11,-2,-29,-2c0,0,-18,0,-30,2c0,0,-12,1,-19,3c0,0,-7,3,-10,7c0,0,-3,4,-3,10V427c0,0,0,43,-8,78c0,0,-8,35,-24,61c0,0,-17,25,-42,38c0,0,-25,14,-59,14c0,0,-43,0,-86,-33c0,0,-44,-33,-95,-96V18c0,0,0,-6,-3,-10c0,0,-2,-4,-9,-7c0,0,-7,-2,-19,-3c0,0,-12,-2,-30,-2Z" 
id="f1_ae"
transform="scale(0.001,-0.001)" />

<path d="M346,-177c0,0,56,0,94,11c0,0,37,11,60,28c0,0,24,18,34,41c0,0,10,23,10,49c0,0,0,43,-36,65c0,0,-35,23,-95,25L239,48c0,0,-24,-19,-39,-35c0,0,-15,-16,-24,-31c0,0,-9,-16,-12,-30c0,0,-4,-15,-4,-31c0,0,0,-48,49,-73c0,0,50,-25,137,-25Zm-6,512c0,0,36,0,63,12c0,0,27,12,44,32c0,0,18,21,26,48c0,0,9,27,9,56c0,0,0,69,-38,107c0,0,-37,39,-107,39c0,0,-35,0,-62,-12c0,0,-26,-12,-44,-33c0,0,-17,-21,-26,-48c0,0,-8,-28,-8,-58c0,0,0,-66,37,-104c0,0,38,-39,106,-39Zm0,-606c0,0,-81,0,-138,14c0,0,-57,14,-94,38c0,0,-36,24,-52,57c0,0,-17,33,-17,72c0,0,0,24,6,47c0,0,6,24,18,43c0,0,13,21,31,40c0,0,18,19,42,38c0,0,-36,19,-54,47c0,0,-17,28,-17,61c0,0,0,45,18,81c0,0,19,36,46,64c0,0,-23,28,-36,62c0,0,-14,35,-14,84c0,0,0,58,20,104c0,0,19,45,53,77c0,0,35,31,83,48c0,0,48,17,105,17c0,0,30,0,57,-4c0,0,26,-3,49,-9H649c0,0,13,0,19,-12c0,0,7,-13,7,-38c0,0,0,-26,-7,-37c0,0,-7,-12,-19,-12H553c0,0,26,-27,37,-60c0,0,10,-32,10,-68c0,0,0,-58,-18,-103c0,0,-19,-45,-54,-76c0,0,-34,-31,-82,-47c0,0,-48,-16,-106,-16c0,0,-41,0,-78,10c0,0,-37,11,-57,28c0,0,-14,-14,-22,-31c0,0,-9,-17,-9,-39c0,0,0,-27,24,-44c0,0,25,-17,65,-18l175,-8c0,0,50,-1,92,-14c0,0,41,-12,72,-35c0,0,31,-22,48,-55c0,0,17,-34,17,-76c0,0,0,-47,-20,-88c0,0,-19,-42,-59,-74c0,0,-40,-31,-102,-50c0,0,-61,-18,-146,-18Z" 
id="f1_9d"
transform="scale(0.001,-0.001)" />

<path d="M429,92c0,0,47,0,80,22c0,0,33,23,54,60c0,0,20,38,30,84c0,0,10,46,10,93c0,0,0,52,-8,100c0,0,-8,48,-27,86c0,0,-19,37,-51,60c0,0,-32,22,-80,22c0,0,-24,0,-47,-7c0,0,-23,-7,-47,-23c0,0,-24,-15,-50,-40c0,0,-26,-25,-56,-62V220c0,0,51,-62,97,-95c0,0,45,-33,95,-33ZM176,-271c0,0,-18,0,-30,2c0,0,-12,1,-19,4c0,0,-7,3,-10,8c0,0,-3,4,-3,10V690c0,0,0,6,3,10c0,0,2,5,9,8c0,0,6,3,17,4c0,0,10,1,25,1c0,0,16,0,26,-1c0,0,10,-1,17,-4c0,0,6,-3,9,-7c0,0,3,-4,3,-11V601c0,0,30,31,59,54c0,0,28,23,57,39c0,0,28,15,59,23c0,0,30,8,63,8c0,0,74,0,125,-29c0,0,52,-28,84,-77c0,0,32,-50,47,-115c0,0,15,-65,15,-139c0,0,0,-88,-19,-158c0,0,-19,-70,-56,-119c0,0,-37,-49,-91,-75c0,0,-55,-26,-125,-26c0,0,-30,0,-55,6c0,0,-25,6,-50,18c0,0,-24,13,-48,32c0,0,-24,19,-51,46V-247c0,0,0,-6,-3,-10c0,0,-2,-5,-9,-8c0,0,-7,-3,-19,-4c0,0,-12,-2,-30,-2Z" 
id="f1_ay"
transform="scale(0.001,-0.001)" />

<path d="M53,-271c0,0,-23,0,-40,3c0,0,-16,3,-25,7c0,0,-9,4,-12,9c0,0,-4,4,-5,11c0,0,-2,6,-2,13c0,0,0,7,0,16c0,0,0,14,1,24c0,0,1,9,4,15c0,0,2,6,6,9c0,0,3,3,8,3c0,0,5,0,17,-2c0,0,13,-2,30,-2c0,0,24,0,42,7c0,0,17,8,28,24c0,0,12,17,17,44c0,0,5,27,5,81V690c0,0,0,5,3,9c0,0,3,5,10,8c0,0,7,3,19,4c0,0,12,2,30,2c0,0,18,0,30,-2c0,0,12,-1,19,-4c0,0,7,-3,10,-8c0,0,3,-4,3,-9V-10c0,0,0,-74,-11,-120c0,0,-11,-46,-35,-77c0,0,-24,-32,-61,-48c0,0,-38,-16,-91,-16ZM188,842c0,0,-43,0,-59,15c0,0,-16,15,-16,58c0,0,0,43,16,59c0,0,17,16,61,16c0,0,44,0,59,-16c0,0,16,-15,16,-58c0,0,0,-43,-17,-58c0,0,-16,-16,-60,-16Z" 
id="f1_a2"
transform="scale(0.001,-0.001)" />

<path d="M367,-13c0,0,-73,0,-129,23c0,0,-56,24,-93,70c0,0,-38,46,-58,112c0,0,-20,67,-20,154c0,0,0,99,25,171c0,0,24,71,66,116c0,0,42,46,99,68c0,0,58,22,124,22c0,0,32,0,62,-6c0,0,31,-6,56,-16c0,0,25,-10,45,-22c0,0,20,-13,29,-22c0,0,9,-9,12,-14c0,0,3,-5,6,-13c0,0,2,-7,3,-16c0,0,0,-9,0,-22c0,0,0,-29,-6,-41c0,0,-7,-11,-17,-11c0,0,-11,0,-25,12c0,0,-15,12,-37,27c0,0,-23,15,-55,28c0,0,-31,12,-75,12c0,0,-88,0,-136,-68c0,0,-47,-68,-47,-198c0,0,0,-65,12,-114c0,0,12,-49,36,-81c0,0,24,-33,59,-49c0,0,35,-16,79,-16c0,0,43,0,75,13c0,0,32,14,56,30c0,0,23,16,39,29c0,0,16,13,25,13c0,0,5,0,9,-3c0,0,4,-3,7,-10c0,0,2,-7,3,-18c0,0,1,-11,1,-26c0,0,0,-12,0,-22c0,0,-1,-9,-3,-15c0,0,-2,-7,-4,-12c0,0,-3,-4,-12,-14c0,0,-10,-9,-32,-23c0,0,-22,-14,-50,-24C496,11,468,0,435,-6c0,0,-33,-7,-68,-7Z" 
id="f1_7l"
transform="scale(0.001,-0.001)" />

<path d="M324,-4c0,0,-23,0,-37,2c0,0,-15,1,-24,3c0,0,-9,3,-14,8c0,0,-4,6,-7,13L46,660c0,0,-4,11,-5,18c0,0,-2,8,-2,13c0,0,0,7,3,11c0,0,3,4,10,7c0,0,8,2,19,3c0,0,12,1,30,1c0,0,20,0,33,-1c0,0,13,-1,20,-4c0,0,6,-3,9,-8c0,0,3,-4,5,-11L330,136l2,-7l1,7L482,689c0,0,1,7,5,11c0,0,3,5,10,8c0,0,6,3,18,4c0,0,12,1,31,1c0,0,18,0,29,-1c0,0,12,-1,18,-4c0,0,7,-3,10,-7c0,0,3,-5,5,-11L768,136l1,-7l1,7L930,689c0,0,1,7,5,11c0,0,3,5,10,8c0,0,7,3,20,4c0,0,12,1,31,1c0,0,18,0,29,-1c0,0,11,-1,17,-4c0,0,6,-3,9,-6c0,0,3,-4,3,-11c0,0,0,-5,-2,-13c0,0,-1,-7,-5,-18L849,22c0,0,-2,-8,-7,-13c0,0,-5,-6,-13,-9c0,0,-9,-2,-24,-3c0,0,-15,-1,-37,-1c0,0,-23,0,-39,2c0,0,-15,1,-25,3c0,0,-9,3,-14,8c0,0,-4,6,-6,13L543,510l-2,6l-2,-6L409,22c0,0,-3,-8,-7,-13c0,0,-5,-6,-15,-9c0,0,-10,-2,-25,-3c0,0,-15,-1,-38,-1Z" 
id="f1_ci"
transform="scale(0.001,-0.001)" />

<path d="M79,326c0,0,-14,0,-20,11c0,0,-7,12,-7,40c0,0,0,29,7,40c0,0,6,11,20,11H390c0,0,6,0,11,-2c0,0,5,-2,8,-9c0,0,4,-6,6,-16c0,0,2,-9,2,-24c0,0,0,-29,-7,-40c0,0,-7,-11,-20,-11Z" 
id="f1_oj"
transform="scale(0.001,-0.001)" />

<path d="M273,157c0,0,-114,0,-193,80C80,237,0,317,0,431c0,0,0,112,80,192c0,0,79,80,193,80c0,0,113,0,192,-80c0,0,80,-80,80,-192c0,0,0,-114,-80,-194c0,0,-79,-80,-192,-80Z" 
id="f2_3d"
transform="scale(0.001,-0.001)" />

<path d="M343,-13c0,0,-49,0,-91,8c0,0,-42,7,-75,18c0,0,-33,11,-54,22c0,0,-22,12,-27,17c0,0,-6,5,-9,10c0,0,-3,5,-5,13c0,0,-3,7,-4,18c0,0,-1,11,-1,27c0,0,0,26,5,37c0,0,6,10,15,10c0,0,7,0,27,-12c0,0,20,-12,51,-25c0,0,31,-14,72,-26c0,0,41,-12,92,-12c0,0,49,0,87,13c0,0,37,12,62,35c0,0,26,24,39,55c0,0,12,32,12,69c0,0,0,41,-16,74c0,0,-16,33,-47,57c0,0,-31,24,-76,36c0,0,-45,13,-103,13H206c0,0,-6,0,-12,3c0,0,-6,2,-10,8c0,0,-4,6,-6,16c0,0,-3,10,-3,25c0,0,0,14,2,24c0,0,2,9,7,15c0,0,4,5,9,8c0,0,5,3,12,3h84c0,0,49,0,89,12c0,0,39,13,66,37c0,0,27,24,42,57c0,0,14,33,14,74c0,0,0,30,-9,57c0,0,-10,28,-30,48c0,0,-19,20,-49,32c0,0,-31,11,-70,11c0,0,-43,0,-80,-13c0,0,-36,-13,-64,-28c0,0,-29,-15,-47,-28c0,0,-19,-13,-26,-13c0,0,-6,0,-10,2c0,0,-4,2,-6,7c0,0,-3,6,-4,16c0,0,-1,10,-1,26c0,0,0,12,0,20c0,0,1,9,3,15c0,0,3,6,6,12c0,0,3,5,10,12c0,0,7,7,28,20c0,0,22,14,54,27c0,0,32,13,73,22c0,0,41,9,89,9c0,0,67,0,118,-17c0,0,51,-18,85,-49c0,0,34,-31,51,-75c0,0,17,-44,17,-97c0,0,0,-45,-12,-84c0,0,-12,-39,-35,-70c0,0,-24,-30,-57,-51c0,0,-34,-21,-78,-30v-1c0,0,50,-5,92,-25c0,0,41,-20,71,-50c0,0,30,-29,47,-69c0,0,16,-40,16,-86c0,0,0,-66,-23,-119c0,0,-23,-54,-66,-92C593,65,550,27,486,7c0,0,-63,-20,-143,-20Z" 
id="f1_s0"
transform="scale(0.001,-0.001)" />

<path d="M161,0c0,0,-5,0,-10,3c0,0,-4,2,-8,8c0,0,-5,6,-7,16c0,0,-2,9,-2,24c0,0,0,13,2,23c0,0,2,9,6,16c0,0,3,6,8,9c0,0,5,4,11,4H362V837L176,726c0,0,-15,-8,-23,-9c0,0,-1,-1,-3,-1c-3,0,-8,1,-11,4c0,0,-5,5,-7,16c0,0,-2,11,-2,28c0,0,0,13,1,22c0,0,1,9,4,15c0,0,2,6,6,10c0,0,4,5,11,9L374,963c0,0,3,2,7,4c0,0,5,1,11,3c0,0,7,1,16,2c0,0,9,0,22,0c0,0,18,0,30,-2c0,0,12,-1,19,-4c0,0,7,-2,9,-6c0,0,2,-5,2,-9V103H665c0,0,6,0,11,-4c0,0,5,-3,8,-9c0,0,4,-7,6,-16c0,0,2,-10,2,-23c0,0,0,-15,-3,-24c0,0,-2,-10,-6,-16c0,0,-3,-6,-8,-8c0,0,-5,-3,-10,-3Z" 
id="f1_ry"
transform="scale(0.001,-0.001)" />

<path d="M398,90c0,0,48,0,83,17c0,0,35,18,58,49c0,0,23,30,34,67c0,0,11,38,11,78c0,0,0,43,-8,78c0,0,-9,36,-29,60c0,0,-20,25,-54,38c0,0,-33,14,-83,14c0,0,-27,0,-55,-5c0,0,-28,-5,-53,-13c0,0,-26,-9,-49,-21c0,0,-24,-11,-43,-25c0,0,0,-96,12,-161c0,0,12,-65,36,-104c0,0,23,-39,58,-56c0,0,35,-16,82,-16ZM386,-13c0,0,-60,0,-106,14c0,0,-47,15,-81,42c0,0,-34,28,-57,68c0,0,-23,40,-36,92c0,0,-14,51,-20,113c0,0,-6,61,-6,131c0,0,0,62,7,125c0,0,6,64,23,123c0,0,18,58,47,110c0,0,29,52,74,91c0,0,44,38,106,60c0,0,62,23,144,23c0,0,28,0,56,-4c0,0,28,-3,52,-9c0,0,24,-5,41,-12c0,0,16,-7,21,-11c0,0,5,-4,8,-9c0,0,3,-4,4,-10c0,0,2,-6,2,-13c0,0,1,-7,1,-17c0,0,0,-14,0,-23c0,0,-1,-10,-3,-16c0,0,-3,-6,-7,-9c0,0,-4,-3,-11,-3c0,0,-8,0,-22,5c0,0,-14,5,-34,12c0,0,-21,6,-49,11c0,0,-29,6,-67,6c0,0,-69,0,-119,-29c0,0,-50,-28,-82,-76c0,0,-32,-48,-47,-111c0,0,-15,-63,-18,-131c0,0,20,11,44,22c0,0,24,11,53,20c0,0,29,9,61,15c0,0,32,5,68,5c0,0,79,0,132,-21c0,0,54,-21,87,-59c0,0,34,-38,48,-89c0,0,14,-51,14,-110c0,0,0,-64,-19,-123c0,0,-20,-59,-60,-105C635,85,595,40,533,13c0,0,-62,-26,-147,-26Z" 
id="f1_s3"
transform="scale(0.001,-0.001)" />

<path d="M469,327V857h-2L153,327ZM530,-4c0,0,-18,0,-30,2c0,0,-12,1,-19,3c0,0,-7,3,-9,7c0,0,-3,4,-3,10V221H71c0,0,-9,0,-15,2c0,0,-6,2,-11,8c0,0,-5,6,-7,17c0,0,-2,12,-2,30c0,0,0,14,1,25c0,0,1,11,3,20c0,0,2,10,6,18c0,0,4,9,9,18L403,947c0,0,3,6,10,10c0,0,7,5,19,8c0,0,11,3,27,4c0,0,17,1,39,1c0,0,25,0,43,-2c0,0,18,-2,29,-5c0,0,12,-3,18,-8c0,0,6,-4,6,-11V327H702c0,0,13,0,21,-13c0,0,8,-13,8,-40c0,0,0,-25,-8,-39c0,0,-7,-14,-21,-14H594V18c0,0,0,-6,-3,-10c0,0,-3,-4,-11,-7c0,0,-7,-2,-19,-3c0,0,-12,-2,-31,-2Z" 
id="f1_s1"
transform="scale(0.001,-0.001)" />

<path d="M192,-6c0,0,-45,0,-62,16c0,0,-18,18,-18,69c0,0,0,53,18,71c0,0,18,17,64,17c0,0,45,0,62,-17c0,0,17,-17,17,-69c0,0,0,-53,-18,-70c0,0,-17,-17,-63,-17Z" 
id="f1_nt"
transform="scale(0.001,-0.001)" />

<path d="M261,-4c0,0,-26,0,-40,2c0,0,-14,2,-20,6c0,0,-7,5,-6,12c0,0,1,7,5,17L566,853H103c0,0,-15,0,-22,15c0,0,-7,14,-7,41c0,0,0,14,2,25c0,0,2,10,6,17c0,0,3,7,9,11c0,0,5,3,12,3H665c0,0,11,0,18,-2c0,0,8,-2,12,-9c0,0,5,-7,7,-17c0,0,2,-11,2,-27c0,0,0,-13,-1,-24c0,0,-1,-11,-3,-21c0,0,-2,-10,-5,-19c0,0,-4,-10,-8,-20L339,24c0,0,-4,-9,-9,-14c0,0,-6,-6,-14,-9c0,0,-9,-3,-22,-4c0,0,-14,-1,-33,-1Z" 
id="f1_s4"
transform="scale(0.001,-0.001)" />

<path d="M366,92c0,0,25,0,48,7c0,0,22,6,46,22c0,0,24,16,50,41c0,0,26,24,56,61V492c0,0,-51,62,-97,94c0,0,-47,33,-98,33c0,0,-47,0,-79,-22c0,0,-33,-23,-54,-59c0,0,-20,-37,-30,-83c0,0,-9,-47,-9,-94c0,0,0,-51,8,-100c0,0,8,-48,27,-86c0,0,19,-38,52,-60c0,0,32,-23,80,-23ZM345,-13c0,0,-74,0,-127,28c0,0,-52,29,-84,78c0,0,-33,49,-48,115c0,0,-15,66,-15,139c0,0,0,86,19,156c0,0,19,70,55,119c0,0,37,50,91,76c0,0,54,27,125,27c0,0,59,0,108,-26c0,0,49,-26,97,-76v390c0,0,0,5,2,10c0,0,3,4,10,7c0,0,8,3,19,5c0,0,12,1,30,1c0,0,18,0,30,-1c0,0,12,-2,19,-5c0,0,7,-3,10,-7c0,0,3,-5,3,-10V18c0,0,0,-6,-2,-10c0,0,-3,-5,-9,-7c0,0,-7,-2,-17,-3c0,0,-10,-2,-25,-2c0,0,-16,0,-26,2c0,0,-11,1,-18,3c0,0,-6,2,-9,7c0,0,-3,4,-3,10v90c0,0,-53,-58,-110,-90c0,0,-58,-31,-125,-31Z" 
id="f1_7v"
transform="scale(0.001,-0.001)" />

<path d="M431,92c0,0,46,0,79,22c0,0,33,23,53,60c0,0,21,37,30,83c0,0,10,46,10,93c0,0,0,51,-8,100c0,0,-8,49,-28,86c0,0,-19,37,-51,60c0,0,-32,23,-80,23c0,0,-24,0,-47,-7c0,0,-23,-7,-47,-22c0,0,-24,-16,-50,-41c0,0,-25,-24,-55,-62V219c0,0,51,-62,98,-95c0,0,46,-32,96,-32ZM443,-13c0,0,-32,0,-59,7c0,0,-27,6,-53,19c0,0,-26,14,-52,36c0,0,-27,22,-56,52V18c0,0,0,-6,-3,-10c0,0,-3,-5,-9,-7c0,0,-7,-2,-17,-3c0,0,-10,-2,-26,-2c0,0,-15,0,-25,2c0,0,-11,1,-17,3c0,0,-7,2,-9,7c0,0,-3,4,-3,10v997c0,0,0,6,3,11c0,0,3,4,10,7c0,0,7,3,19,5c0,0,12,1,30,1c0,0,18,0,30,-1c0,0,12,-2,19,-5c0,0,7,-3,9,-7c0,0,3,-5,3,-10V614c0,0,30,31,58,52c0,0,28,20,55,34c0,0,27,13,54,19c0,0,27,6,57,6c0,0,73,0,125,-30c0,0,52,-29,84,-78c0,0,32,-48,47,-114c0,0,15,-66,15,-139c0,0,0,-87,-19,-157c0,0,-19,-70,-56,-119c0,0,-37,-49,-90,-76c0,0,-54,-25,-124,-25Z" 
id="f1_7k"
transform="scale(0.001,-0.001)" />

<path d="M346,-4c0,0,-23,0,-38,2c0,0,-15,1,-24,3c0,0,-9,3,-15,8c0,0,-5,6,-8,13L33,660c0,0,-3,9,-5,15c0,0,-2,7,-2,11c0,0,0,3,0,5c0,0,0,6,3,11c0,0,3,4,10,7c0,0,7,2,18,3c0,0,12,1,29,1c0,0,22,0,35,-1c0,0,13,-1,20,-4c0,0,7,-3,10,-8c0,0,4,-4,7,-11L347,135l3,-9l2,9L540,689c0,0,1,7,5,11c0,0,3,5,11,8c0,0,7,3,19,4c0,0,12,1,32,1c0,0,18,0,29,-1c0,0,11,-1,17,-4c0,0,7,-3,9,-7c0,0,3,-4,3,-10c0,0,0,-3,-1,-6c0,0,0,-4,-1,-7c0,0,0,-4,-2,-8c0,0,-1,-5,-2,-10L430,22c0,0,-3,-8,-8,-13c0,0,-5,-6,-15,-9c0,0,-9,-2,-24,-3c0,0,-15,-1,-37,-1Z" 
id="f1_ch"
transform="scale(0.001,-0.001)" />

<path d="M385,92c0,0,42,0,74,13c0,0,31,14,54,39c0,0,23,25,38,60c0,0,15,35,24,77c0,0,9,43,12,92c0,0,3,50,3,103c0,0,0,73,-5,130c0,0,-5,57,-15,101c0,0,-10,44,-26,76c0,0,-16,32,-39,52c0,0,-22,21,-51,30c0,0,-29,9,-64,9c0,0,-64,0,-103,-30c0,0,-40,-29,-63,-82c0,0,-23,-52,-31,-122c0,0,-8,-70,-8,-150c0,0,0,-108,11,-184c0,0,11,-76,36,-123c0,0,24,-48,62,-69c0,0,37,-22,91,-22ZM378,-13c0,0,-91,0,-154,32c0,0,-62,32,-100,95c0,0,-38,63,-54,155c0,0,-16,92,-16,212c0,0,0,110,18,202c0,0,18,92,58,158c0,0,40,66,106,103c0,0,66,36,161,36c0,0,92,0,154,-33c0,0,62,-32,100,-95c0,0,39,-63,55,-155c0,0,16,-92,16,-212c0,0,0,-111,-18,-203c0,0,-17,-91,-58,-157C646,125,605,59,540,22c0,0,-66,-35,-162,-35Z" 
id="f1_rx"
transform="scale(0.001,-0.001)" />

<path d="M69,-215c0,0,-12,0,-21,1c0,0,-8,1,-12,4c0,0,-4,2,-4,7c0,0,-1,4,2,10L134,11v96c0,0,0,20,4,32c0,0,4,12,13,18c0,0,9,6,22,8c0,0,13,2,33,2c0,0,19,0,32,-2c0,0,13,-2,22,-8c0,0,9,-6,13,-18c0,0,4,-12,4,-32c0,0,0,-23,-2,-43c0,0,-3,-19,-8,-36c0,0,-5,-17,-14,-33c0,0,-8,-17,-21,-36L130,-194c0,0,-4,-5,-9,-9c0,0,-5,-4,-12,-7c0,0,-7,-3,-16,-4c0,0,-9,-1,-24,-1Z" 
id="f1_nq"
transform="scale(0.001,-0.001)" />

<path d="M102,0C102,0,87,0,77,10C77,10,66,21,66,45V71c0,0,0,10,2,18c0,0,1,9,4,17c0,0,3,8,9,17c0,0,5,10,12,22L390,606H102c0,0,-12,0,-19,13c0,0,-7,12,-7,39c0,0,0,14,2,24c0,0,1,10,5,16c0,0,3,7,8,9c0,0,5,3,11,3H487c0,0,9,0,15,-2c0,0,6,-3,11,-8c0,0,4,-5,7,-13c0,0,3,-8,3,-21V642c0,0,0,-10,-2,-19c0,0,-1,-9,-4,-18c0,0,-3,-8,-9,-18c0,0,-5,-10,-12,-22L201,104H516c0,0,6,0,11,-3c0,0,4,-3,8,-9c0,0,3,-6,5,-16c0,0,3,-10,3,-24c0,0,0,-14,-3,-24c0,0,-2,-10,-5,-16c0,0,-3,-7,-8,-9c0,0,-5,-3,-11,-3Z" 
id="f1_ct"
transform="scale(0.001,-0.001)" />

<path d="M192,-4c0,0,-18,0,-30,2c0,0,-13,2,-20,3c0,0,-8,3,-11,8c0,0,-3,4,-3,10V946c0,0,0,6,3,11c0,0,3,4,11,7c0,0,7,2,20,4c0,0,12,2,30,2c0,0,19,0,31,-2c0,0,13,-2,20,-4c0,0,7,-3,10,-7c0,0,3,-5,3,-11V559H696V946c0,0,0,6,3,10c0,0,3,5,10,8c0,0,8,2,20,4c0,0,11,2,31,2c0,0,18,0,30,-2c0,0,12,-2,20,-4c0,0,7,-3,10,-7c0,0,3,-5,3,-11V19c0,0,0,-6,-3,-10c0,0,-3,-5,-10,-8c0,0,-8,-1,-20,-3c0,0,-12,-2,-30,-2c0,0,-20,0,-31,2c0,0,-12,2,-20,3c0,0,-7,3,-10,8c0,0,-3,4,-3,10V448H256V19c0,0,0,-6,-3,-10c0,0,-3,-5,-10,-8c0,0,-7,-1,-20,-3c0,0,-12,-2,-31,-2Z" 
id="f1_19"
transform="scale(0.001,-0.001)" />

<path d="M176,-4c0,0,-18,0,-30,2c0,0,-12,1,-19,3c0,0,-7,3,-10,7c0,0,-3,4,-3,10v997c0,0,0,6,3,11c0,0,3,4,10,7c0,0,7,3,19,5c0,0,12,1,30,1c0,0,18,0,30,-1c0,0,12,-2,19,-5c0,0,7,-3,9,-7c0,0,3,-5,3,-11V408L492,687c0,0,6,7,12,12c0,0,7,5,16,8c0,0,10,4,22,5c0,0,13,1,31,1c0,0,19,0,31,-1c0,0,13,-1,21,-4c0,0,8,-3,11,-7c0,0,3,-4,3,-11c0,0,0,-9,-4,-18c0,0,-5,-8,-16,-20L375,408L648,54c0,0,10,-13,14,-20c0,0,4,-8,4,-15c0,0,0,-6,-3,-10c0,0,-3,-5,-10,-8c0,0,-7,-2,-20,-3c0,0,-13,-2,-32,-2c0,0,-20,0,-33,1c0,0,-13,1,-22,3c0,0,-9,3,-15,7c0,0,-5,5,-10,12L237,391V18c0,0,0,-6,-3,-10c0,0,-2,-4,-9,-7c0,0,-7,-2,-19,-3c0,0,-12,-2,-30,-2Z" 
id="f1_a5"
transform="scale(0.001,-0.001)" />

<path d="M324,-13c0,0,-44,0,-85,7c0,0,-40,6,-71,14c0,0,-32,10,-52,18c0,0,-20,9,-25,15c0,0,-6,5,-8,9c0,0,-3,5,-4,11c0,0,-2,6,-3,16c0,0,-1,10,-1,23c0,0,0,13,1,23c0,0,1,10,4,16c0,0,3,7,8,10c0,0,4,3,9,3c0,0,7,0,23,-10c0,0,16,-9,42,-20c0,0,27,-11,66,-20c0,0,39,-10,93,-10c0,0,49,0,91,12c0,0,42,12,72,37c0,0,30,26,47,64c0,0,18,38,18,94c0,0,0,46,-15,81c0,0,-14,36,-45,59c0,0,-30,24,-76,35c0,0,-46,12,-111,12c0,0,-45,0,-78,-5c0,0,-33,-4,-61,-4c0,0,-21,0,-30,10c0,0,-9,9,-9,37V917c0,0,0,24,12,36c0,0,11,12,33,12H596c0,0,6,0,12,-3c0,0,6,-4,9,-10c0,0,4,-7,6,-17c0,0,2,-11,2,-25c0,0,0,-27,-8,-42c0,0,-7,-14,-21,-14H236V583c0,0,26,4,53,5c0,0,28,1,63,1c0,0,83,0,145,-20c0,0,62,-20,103,-56c0,0,42,-36,63,-88c0,0,21,-51,21,-114c0,0,0,-78,-26,-138c0,0,-26,-61,-74,-102C584,71,537,30,471,8c0,0,-66,-21,-147,-21Z" 
id="f1_s2"
transform="scale(0.001,-0.001)" />

<path d="M176,0c0,0,-17,0,-33,12c0,0,-15,11,-15,40V946c0,0,0,6,3,11c0,0,3,4,11,7c0,0,7,2,20,4c0,0,12,2,30,2c0,0,19,0,31,-2c0,0,13,-2,20,-4c0,0,7,-3,10,-7c0,0,3,-5,3,-11V111H603c0,0,6,0,11,-3c0,0,5,-3,8,-10c0,0,4,-6,5,-16c0,0,2,-11,2,-26c0,0,0,-15,-2,-25c0,0,-1,-10,-5,-17c0,0,-3,-7,-8,-11c0,0,-5,-3,-11,-3Z" 
id="f1_1r"
transform="scale(0.001,-0.001)" />

<path d="M128,0c0,0,-11,0,-19,3c0,0,-8,2,-13,8c0,0,-6,6,-8,17c0,0,-3,11,-3,28c0,0,0,15,1,26c0,0,1,11,5,20c0,0,4,8,9,17c0,0,6,8,15,18L302,336c0,0,65,68,104,123c0,0,39,54,61,99c0,0,21,45,28,81c0,0,6,37,6,69c0,0,0,32,-10,61c0,0,-11,29,-30,50c0,0,-20,22,-50,35c0,0,-30,12,-69,12c0,0,-45,0,-81,-12c0,0,-37,-13,-64,-28c0,0,-27,-15,-45,-27c0,0,-19,-13,-28,-13c0,0,-5,0,-9,3c0,0,-4,3,-7,10c0,0,-2,6,-4,18c0,0,-1,11,-1,26c0,0,0,12,0,20c0,0,1,8,3,14c0,0,2,6,5,11c0,0,3,5,12,13c0,0,9,8,31,21c0,0,22,14,55,27c0,0,33,13,73,22c0,0,40,9,84,9c0,0,70,0,123,-20c0,0,53,-20,87,-54c0,0,35,-34,52,-80c0,0,17,-46,17,-97c0,0,0,-46,-8,-92c0,0,-8,-46,-35,-99c0,0,-26,-54,-76,-119c0,0,-50,-65,-133,-151L240,109H660c0,0,6,0,12,-4c0,0,5,-3,9,-10c0,0,5,-7,6,-17c0,0,2,-10,2,-23c0,0,0,-13,-2,-24c0,0,-1,-10,-5,-17c0,0,-3,-7,-9,-11c0,0,-5,-3,-12,-3Z" 
id="f1_rz"
transform="scale(0.001,-0.001)" />

<path d="M366,92c0,0,25,0,48,7c0,0,22,6,46,22c0,0,24,16,50,41c0,0,26,24,56,61V492c0,0,-51,62,-97,94c0,0,-47,33,-98,33c0,0,-47,0,-79,-22c0,0,-33,-23,-54,-59c0,0,-20,-37,-30,-83c0,0,-9,-47,-9,-94c0,0,0,-52,8,-100c0,0,8,-49,27,-86c0,0,19,-38,52,-60c0,0,32,-23,80,-23ZM627,-271c0,0,-18,0,-30,2c0,0,-11,1,-19,4c0,0,-7,3,-10,8c0,0,-2,4,-2,10V97c0,0,-31,-31,-59,-52c0,0,-27,-21,-54,-34c0,0,-27,-12,-54,-18c0,0,-28,-6,-57,-6c0,0,-73,0,-124,28c0,0,-52,29,-84,78c0,0,-33,49,-48,115c0,0,-15,66,-15,139c0,0,0,86,19,156c0,0,19,70,56,119c0,0,37,50,91,76c0,0,54,27,125,27c0,0,30,0,56,-7c0,0,26,-6,52,-20c0,0,25,-14,52,-36c0,0,26,-22,58,-52v80c0,0,0,7,3,11c0,0,3,4,9,7c0,0,7,3,18,4c0,0,10,1,26,1c0,0,15,0,25,-1c0,0,10,-1,17,-4c0,0,6,-3,9,-8c0,0,2,-4,2,-10V-247c0,0,0,-6,-3,-10c0,0,-3,-5,-10,-8c0,0,-7,-3,-19,-4c0,0,-12,-2,-30,-2Z" 
id="f1_b0"
transform="scale(0.001,-0.001)" />

<path d="M482,-11c0,0,-94,0,-170,31c0,0,-76,31,-129,92c0,0,-53,61,-82,151c0,0,-29,90,-29,207c0,0,0,120,31,214c0,0,31,94,87,159c0,0,56,65,134,100c0,0,78,34,173,34c0,0,41,0,81,-8c0,0,39,-8,73,-19c0,0,33,-12,60,-28c0,0,26,-15,36,-25c0,0,10,-10,13,-15c0,0,3,-6,5,-13c0,0,1,-7,3,-17c0,0,1,-9,1,-23c0,0,0,-15,-2,-25c0,0,-1,-11,-4,-18c0,0,-3,-7,-7,-10c0,0,-4,-4,-10,-4c0,0,-11,0,-30,15c0,0,-18,14,-48,32c0,0,-29,17,-71,32c0,0,-42,14,-101,14c0,0,-64,0,-117,-25c0,0,-52,-26,-90,-76c0,0,-37,-50,-57,-122c0,0,-21,-72,-21,-164c0,0,0,-92,20,-163c0,0,20,-70,57,-117c0,0,36,-48,90,-72c0,0,54,-24,122,-24c0,0,57,0,100,14c0,0,43,14,73,32c0,0,30,17,50,31c0,0,19,15,30,15c0,0,5,0,9,-3c0,0,4,-2,6,-8c0,0,2,-7,3,-18c0,0,2,-11,2,-28c0,0,0,-12,-1,-21c0,0,-1,-9,-3,-16c0,0,-2,-6,-5,-12c0,0,-3,-5,-10,-12c0,0,-8,-8,-31,-23c0,0,-24,-15,-60,-30C663,23,628,8,582,-1c0,0,-46,-10,-100,-10Z" 
id="f1_j"
transform="scale(0.001,-0.001)" />

<path d="M321,-256c0,0,-13,0,-23,1c0,0,-10,0,-17,3c0,0,-7,2,-11,5c0,0,-5,3,-7,7c0,0,-40,76,-71,154c0,0,-31,78,-51,157c0,0,-21,81,-32,163c0,0,-10,83,-10,167c0,0,0,84,11,166c0,0,12,82,33,163c0,0,21,81,52,160c0,0,31,78,69,155c0,0,0,3,4,5c0,0,3,2,9,4c0,0,6,3,16,4c0,0,11,1,27,1c0,0,17,0,28,-2c0,0,10,-3,16,-6c0,0,6,-4,7,-10c0,0,1,-6,-2,-13c0,0,-71,-150,-106,-307c0,0,-34,-158,-34,-318c0,0,0,-160,35,-318c0,0,35,-156,103,-308c0,0,4,-9,4,-15c0,0,1,-6,-4,-10c0,0,-6,-4,-16,-6c0,0,-11,-2,-30,-2Z" 
id="f1_ov"
transform="scale(0.001,-0.001)" />

<path d="M368,474c0,0,56,0,108,17c0,0,53,17,91,44c0,0,0,96,-13,161c0,0,-13,65,-37,105c0,0,-25,40,-61,58c0,0,-36,18,-83,18c0,0,-48,0,-82,-17c0,0,-35,-18,-57,-47c0,0,-22,-30,-32,-67c0,0,-11,-37,-11,-77c0,0,0,-44,10,-80c0,0,9,-37,30,-62c0,0,21,-25,54,-39c0,0,34,-14,83,-14ZM284,-13c0,0,-32,0,-62,4c0,0,-30,5,-54,9c0,0,-25,6,-41,13c0,0,-16,7,-24,14c0,0,-7,6,-11,18c0,0,-3,11,-3,31c0,0,0,16,1,26c0,0,1,10,3,15c0,0,3,5,7,7c0,0,4,2,10,2c0,0,8,0,23,-6c0,0,15,-5,38,-12c0,0,22,-7,53,-12c0,0,31,-6,69,-6c0,0,72,0,124,28c0,0,52,28,85,75c0,0,33,47,49,109c0,0,16,62,18,130c0,0,-40,-23,-95,-41c0,0,-55,-17,-127,-17c0,0,-80,0,-135,21c0,0,-55,22,-88,61c0,0,-33,38,-48,90c0,0,-14,52,-14,114c0,0,0,64,18,122c0,0,19,58,58,102c0,0,40,44,101,70c0,0,61,26,146,26c0,0,61,0,107,-16c0,0,47,-15,81,-44c0,0,35,-28,59,-69c0,0,23,-41,38,-92c0,0,14,-51,21,-112c0,0,6,-60,6,-126c0,0,0,-63,-7,-127c0,0,-8,-64,-26,-123c0,0,-18,-59,-48,-111c0,0,-30,-52,-76,-91C540,69,494,30,431,8c0,0,-63,-21,-147,-21Z" 
id="f1_s6"
transform="scale(0.001,-0.001)" />

<path d="M389,86c0,0,95,0,144,40c0,0,49,40,49,108c0,0,0,35,-13,63c0,0,-12,28,-38,52c0,0,-26,24,-64,47c0,0,-39,23,-90,47c0,0,-47,-23,-82,-46c0,0,-35,-23,-58,-48c0,0,-23,-24,-34,-52c0,0,-12,-27,-12,-60c0,0,0,-72,50,-112c0,0,49,-39,148,-39Zm6,468c0,0,75,38,115,85c0,0,41,47,41,104c0,0,0,31,-11,57c0,0,-11,25,-32,43c0,0,-21,18,-52,27c0,0,-31,10,-70,10c0,0,-81,0,-122,-37c0,0,-42,-37,-42,-100c0,0,0,-29,10,-54c0,0,10,-25,32,-47c0,0,21,-23,53,-44c0,0,33,-21,78,-44ZM379,-13c0,0,-75,0,-134,14c0,0,-59,16,-100,47c0,0,-41,30,-62,75c0,0,-22,45,-22,102c0,0,0,46,15,84c0,0,15,38,43,70c0,0,28,32,69,60c0,0,41,28,92,53c0,0,-44,23,-79,49c0,0,-34,26,-58,56c0,0,-24,30,-36,65c0,0,-12,34,-12,74c0,0,0,51,18,95c0,0,18,45,55,78c0,0,37,32,94,51c0,0,57,19,133,19c0,0,73,0,127,-17c0,0,53,-18,88,-48c0,0,35,-30,51,-71c0,0,16,-41,16,-88c0,0,0,-38,-12,-73c0,0,-12,-35,-36,-67c0,0,-24,-31,-59,-58c0,0,-34,-27,-79,-51c0,0,53,-26,94,-54c0,0,42,-28,70,-59c0,0,28,-32,42,-67c0,0,15,-36,15,-78c0,0,0,-63,-23,-112c0,0,-22,-49,-64,-82C625,54,583,20,521,3c0,0,-62,-16,-142,-16Z" 
id="f1_s5"
transform="scale(0.001,-0.001)" />

<path d="M142,-256c0,0,-19,0,-30,2c0,0,-11,2,-16,6c0,0,-5,4,-4,10c0,0,0,6,4,15c0,0,69,151,104,308c0,0,35,158,35,318c0,0,0,160,-35,318c0,0,-35,157,-106,307c0,0,-3,7,-2,13c0,0,1,6,7,10c0,0,6,3,16,6c0,0,11,2,28,2c0,0,16,0,26,-1c0,0,10,-1,17,-4c0,0,6,-2,9,-4c0,0,3,-2,5,-5c0,0,76,-153,120,-315c0,0,44,-161,44,-329c0,0,0,-84,-11,-167c0,0,-10,-82,-31,-163c0,0,-21,-79,-51,-157c0,0,-30,-78,-71,-154c0,0,-2,-4,-6,-7c0,0,-5,-3,-12,-5c0,0,-7,-3,-17,-3c0,0,-9,-1,-23,-1Z" 
id="f1_ow"
transform="scale(0.001,-0.001)" />

<path d="M372,-4c0,0,-19,0,-31,2c0,0,-12,2,-20,3c0,0,-8,3,-11,8c0,0,-3,4,-3,10V375L34,920c0,0,-8,17,-10,27c0,0,-2,10,4,15c0,0,5,5,20,6c0,0,14,2,39,2c0,0,22,0,36,-2c0,0,14,-1,22,-4c0,0,8,-2,12,-7c0,0,5,-5,8,-12L299,667c0,0,18,-40,37,-83c0,0,19,-43,38,-87h2c0,0,17,42,35,84c0,0,18,43,37,84L582,944c0,0,3,7,7,12c0,0,4,6,11,8c0,0,7,3,20,4c0,0,12,2,32,2c0,0,27,0,42,-2c0,0,15,-2,21,-7c0,0,6,-5,4,-15c0,0,-2,-10,-10,-26L436,375V19c0,0,0,-6,-3,-10c0,0,-3,-5,-10,-8c0,0,-8,-1,-20,-3c0,0,-13,-2,-31,-2Z" 
id="f1_3f"
transform="scale(0.001,-0.001)" />

<path d="M420,489c0,0,93,0,153,65c0,0,60,65,60,181c0,0,0,116,-62,184c0,0,-61,68,-148,68c0,0,-90,0,-156,-74c0,0,-66,-73,-66,-189c0,0,0,-105,63,-170c0,0,63,-65,156,-65ZM391,-18c0,0,-128,0,-209,71c0,0,-82,71,-98,200l129,12c0,0,17,-91,63,-132c0,0,46,-41,118,-41c0,0,62,0,109,28c0,0,47,29,76,76c0,0,30,47,50,128c0,0,20,80,20,164c0,0,0,9,-1,27c0,0,-40,-65,-110,-105c0,0,-69,-39,-151,-39c0,0,-135,0,-229,98c0,0,-94,99,-94,260c0,0,0,166,98,268c0,0,98,101,245,101c0,0,107,0,195,-57c0,0,89,-58,134,-164c0,0,46,-106,46,-308c0,0,0,-209,-45,-334C737,235,691,111,602,46c0,0,-90,-64,-211,-64Z" 
id="f3_t"
transform="scale(0.001,-0.001)" />


</defs>
</svg>