<?xml version="1.0" encoding="UTF-8" standalone="no"?>
<!DOCTYPE svg PUBLIC "-//W3C//DTD SVG 1.1//EN"
"http://www.w3.org/Graphics/SVG/1.1/DTD/svg11.dtd">
<svg viewBox="0 0 909 1286" version="1.1" xmlns="http://www.w3.org/2000/svg" xmlns:xlink="http://www.w3.org/1999/xlink">
<defs>
<style type="text/css"><![CDATA[
.g0_8{
fill: #FFFFFF;
}
]]></style>
</defs>
<path fill-rule="evenodd" d="M80.3,386.2H857.2V55H80.3V386.2Z" class="g0_8" />
<path fill-rule="evenodd" d="M52.8,978.5H857.2v-571H52.8v571Z" class="g0_8" />
<path fill-rule="evenodd" d="M52.8,1011.5H857.2v-33H52.8v33Z" class="g0_8" />
<path fill-rule="evenodd" d="M52.8,1032.1H857.2v-20.6H52.8v20.6Z" class="g0_8" />
<g fill="#1F3331" >
<use xlink:href="#f0_ov" transform="matrix(11,0,0,11,55,1027.7)" />
<use xlink:href="#f0_9q" transform="matrix(11,0,0,11,60.2,1027.7)" />
<use xlink:href="#f0_9q" transform="matrix(11,0,0,11,64.2,1027.7)" />
<use xlink:href="#f0_ow" transform="matrix(11,0,0,11,68.2,1027.7)" />
<use xlink:href="#f0_5" transform="matrix(11,0,0,11,77,1027.7)" />
<use xlink:href="#f0_2j" transform="matrix(11,0,0,11,87.2,1027.7)" />
<use xlink:href="#f0_2t" transform="matrix(11,0,0,11,96.8,1027.7)" />
<use xlink:href="#f0_1c" transform="matrix(11,0,0,11,105.2,1027.7)" />
<use xlink:href="#f0_13" transform="matrix(11,0,0,11,109.6,1027.7)" />
<use xlink:href="#f0_1c" transform="matrix(11,0,0,11,117.4,1027.7)" />
<use xlink:href="#f0_j" transform="matrix(11,0,0,11,121.7,1027.7)" />
<use xlink:href="#f0_5" transform="matrix(11,0,0,11,130.5,1027.7)" />
<use xlink:href="#f0_1r" transform="matrix(11,0,0,11,141.1,1027.7)" />
<use xlink:href="#f0_1x" transform="matrix(11,0,0,11,151.8,1027.7)" />
<use xlink:href="#f0_t" transform="matrix(11,0,0,11,166.4,1027.7)" />
<use xlink:href="#f0_2t" transform="matrix(11,0,0,11,174.5,1027.7)" />
<use xlink:href="#f0_19" transform="matrix(11,0,0,11,182.9,1027.7)" />
<use xlink:href="#f0_24" transform="matrix(11,0,0,11,193.5,1027.7)" />
<use xlink:href="#f0_p" transform="matrix(11,0,0,11,205,1027.7)" />
<use xlink:href="#f0_2n" transform="matrix(11,0,0,11,215.7,1027.7)" />
</g>
<path fill-rule="evenodd" d="M80.3,1073.9H857.2v-20.5H80.3v20.5Z" class="g0_8" />
<g fill="#1F3331" >
<use xlink:href="#f1_3d" transform="matrix(10.1,0,0,10.1,82.5,1069.5)" />
<use xlink:href="#f2_1x" transform="matrix(11,0,0,11,110,1069.5)" />
<use xlink:href="#f2_7z" transform="matrix(11,0,0,11,124.3,1069.5)" />
<use xlink:href="#f2_bf" transform="matrix(11,0,0,11,132.7,1069.5)" />
<use xlink:href="#f2_9n" transform="matrix(11,0,0,11,138.3,1069.5)" />
<use xlink:href="#f2_am" transform="matrix(11,0,0,11,147.1,1069.5)" />
<use xlink:href="#f2_7v" transform="matrix(11,0,0,11,155.9,1069.5)" />
<use xlink:href="#f2_b5" transform="matrix(11,0,0,11,164.7,1069.5)" />
<use xlink:href="#f2_77" transform="matrix(11,0,0,11,175.3,1069.5)" />
<use xlink:href="#f2_b1" transform="matrix(11,0,0,11,183.4,1069.5)" />
<use xlink:href="#f2_7z" transform="matrix(11,0,0,11,189.3,1069.5)" />
<use xlink:href="#f2_7v" transform="matrix(11,0,0,11,202,1069.5)" />
<use xlink:href="#f2_7z" transform="matrix(11,0,0,11,210.8,1069.5)" />
<use xlink:href="#f2_ch" transform="matrix(11,0,0,11,219.2,1069.5)" />
<use xlink:href="#f2_7z" transform="matrix(11,0,0,11,227,1069.5)" />
<use xlink:href="#f2_a8" transform="matrix(11,0,0,11,235.4,1069.5)" />
<use xlink:href="#f2_am" transform="matrix(11,0,0,11,239.4,1069.5)" />
<use xlink:href="#f2_ay" transform="matrix(11,0,0,11,248.2,1069.5)" />
<use xlink:href="#f2_7z" transform="matrix(11,0,0,11,257,1069.5)" />
<use xlink:href="#f2_7v" transform="matrix(11,0,0,11,265.4,1069.5)" />
<use xlink:href="#f2_89" transform="matrix(11,0,0,11,278.3,1069.5)" />
<use xlink:href="#f2_am" transform="matrix(11,0,0,11,283.4,1069.5)" />
<use xlink:href="#f2_b1" transform="matrix(11,0,0,11,292.2,1069.5)" />
<use xlink:href="#f2_77" transform="matrix(11,0,0,11,302.1,1069.5)" />
<use xlink:href="#f2_b1" transform="matrix(11,0,0,11,310.2,1069.5)" />
<use xlink:href="#f2_bf" transform="matrix(11,0,0,11,316,1069.5)" />
<use xlink:href="#f2_9q" transform="matrix(11,0,0,11,321.5,1069.5)" />
<use xlink:href="#f2_89" transform="matrix(11,0,0,11,325.5,1069.5)" />
<use xlink:href="#f2_9q" transform="matrix(11,0,0,11,330.7,1069.5)" />
<use xlink:href="#f2_7l" transform="matrix(11,0,0,11,334.7,1069.5)" />
<use xlink:href="#f2_9q" transform="matrix(11,0,0,11,341.6,1069.5)" />
<use xlink:href="#f2_77" transform="matrix(11,0,0,11,345.6,1069.5)" />
<use xlink:href="#f2_a8" transform="matrix(11,0,0,11,353.7,1069.5)" />
<use xlink:href="#f2_ch" transform="matrix(11,0,0,11,361.7,1069.5)" />
<use xlink:href="#f2_7z" transform="matrix(11,0,0,11,369.4,1069.5)" />
<use xlink:href="#f2_9d" transform="matrix(11,0,0,11,377.8,1069.5)" />
<use xlink:href="#f2_7z" transform="matrix(11,0,0,11,385.9,1069.5)" />
<use xlink:href="#f2_bf" transform="matrix(11,0,0,11,394.3,1069.5)" />
<use xlink:href="#f2_77" transform="matrix(11,0,0,11,399.8,1069.5)" />
<use xlink:href="#f2_bf" transform="matrix(11,0,0,11,407.9,1069.5)" />
<use xlink:href="#f2_9q" transform="matrix(11,0,0,11,413.4,1069.5)" />
<use xlink:href="#f2_ch" transform="matrix(11,0,0,11,417.4,1069.5)" />
<use xlink:href="#f2_7z" transform="matrix(11,0,0,11,425.1,1069.5)" />
<use xlink:href="#f2_ay" transform="matrix(11,0,0,11,437.6,1069.5)" />
<use xlink:href="#f2_b1" transform="matrix(11,0,0,11,446.4,1069.5)" />
<use xlink:href="#f2_am" transform="matrix(11,0,0,11,452.2,1069.5)" />
<use xlink:href="#f2_ay" transform="matrix(11,0,0,11,461,1069.5)" />
<use xlink:href="#f2_77" transform="matrix(11,0,0,11,469.8,1069.5)" />
<use xlink:href="#f2_9d" transform="matrix(11,0,0,11,477.9,1069.5)" />
<use xlink:href="#f2_77" transform="matrix(11,0,0,11,486,1069.5)" />
<use xlink:href="#f2_bf" transform="matrix(11,0,0,11,494,1069.5)" />
<use xlink:href="#f2_9q" transform="matrix(11,0,0,11,499.5,1069.5)" />
<use xlink:href="#f2_am" transform="matrix(11,0,0,11,503.5,1069.5)" />
<use xlink:href="#f2_af" transform="matrix(11,0,0,11,512.3,1069.5)" />
<use xlink:href="#f2_9q" transform="matrix(11,0,0,11,525.2,1069.5)" />
<use xlink:href="#f2_af" transform="matrix(11,0,0,11,529.2,1069.5)" />
<use xlink:href="#f2_ci" transform="matrix(11,0,0,11,542,1069.5)" />
<use xlink:href="#f2_9n" transform="matrix(11,0,0,11,554.1,1069.5)" />
<use xlink:href="#f2_9q" transform="matrix(11,0,0,11,562.9,1069.5)" />
<use xlink:href="#f2_7l" transform="matrix(11,0,0,11,566.9,1069.5)" />
<use xlink:href="#f2_9n" transform="matrix(11,0,0,11,573.9,1069.5)" />
<use xlink:href="#f2_b5" transform="matrix(11,0,0,11,586.7,1069.5)" />
<use xlink:href="#f2_am" transform="matrix(11,0,0,11,593.3,1069.5)" />
<use xlink:href="#f2_ae" transform="matrix(11,0,0,11,602.1,1069.5)" />
<use xlink:href="#f2_7z" transform="matrix(11,0,0,11,615.6,1069.5)" />
<use xlink:href="#f2_ay" transform="matrix(11,0,0,11,628.1,1069.5)" />
<use xlink:href="#f2_77" transform="matrix(11,0,0,11,636.9,1069.5)" />
<use xlink:href="#f2_b1" transform="matrix(11,0,0,11,645,1069.5)" />
<use xlink:href="#f2_bf" transform="matrix(11,0,0,11,650.8,1069.5)" />
<use xlink:href="#f2_am" transform="matrix(11,0,0,11,660.7,1069.5)" />
<use xlink:href="#f2_89" transform="matrix(11,0,0,11,669.5,1069.5)" />
<use xlink:href="#f2_bf" transform="matrix(11,0,0,11,679,1069.5)" />
<use xlink:href="#f2_9n" transform="matrix(11,0,0,11,684.5,1069.5)" />
<use xlink:href="#f2_7z" transform="matrix(11,0,0,11,693.3,1069.5)" />
<use xlink:href="#f2_ay" transform="matrix(11,0,0,11,706.1,1069.5)" />
<use xlink:href="#f2_a8" transform="matrix(11,0,0,11,714.9,1069.5)" />
<use xlink:href="#f2_77" transform="matrix(11,0,0,11,718.9,1069.5)" />
<use xlink:href="#f2_af" transform="matrix(11,0,0,11,727,1069.5)" />
<use xlink:href="#f2_bf" transform="matrix(11,0,0,11,735.8,1069.5)" />
<use xlink:href="#f2_am" transform="matrix(11,0,0,11,745.3,1069.5)" />
<use xlink:href="#f2_b1" transform="matrix(11,0,0,11,754.1,1069.5)" />
<use xlink:href="#f2_9d" transform="matrix(11,0,0,11,760,1069.5)" />
<use xlink:href="#f2_77" transform="matrix(11,0,0,11,768,1069.5)" />
<use xlink:href="#f2_af" transform="matrix(11,0,0,11,776.1,1069.5)" />
<use xlink:href="#f2_9q" transform="matrix(11,0,0,11,789.2,1069.5)" />
<use xlink:href="#f2_b5" transform="matrix(11,0,0,11,793.3,1069.5)" />
<use xlink:href="#f2_c6" transform="matrix(11,0,0,11,803.9,1069.5)" />
<use xlink:href="#f2_bf" transform="matrix(11,0,0,11,812.7,1069.5)" />
<use xlink:href="#f2_9q" transform="matrix(11,0,0,11,818.2,1069.5)" />
<use xlink:href="#f2_a8" transform="matrix(11,0,0,11,822.2,1069.5)" />
<use xlink:href="#f2_9q" transform="matrix(11,0,0,11,826.2,1069.5)" />
<use xlink:href="#f2_ct" transform="matrix(11,0,0,11,830.2,1069.5)" />
<use xlink:href="#f2_7z" transform="matrix(11,0,0,11,836.8,1069.5)" />
<use xlink:href="#f2_7v" transform="matrix(11,0,0,11,845.2,1069.5)" />
</g>
<path fill-rule="evenodd" d="M80.3,1094.4H857.2v-20.5H80.3v20.5Z" class="g0_8" />
<g fill="#1F3331" >
<use xlink:href="#f2_89" transform="matrix(11,0,0,11,110,1090)" />
<use xlink:href="#f2_am" transform="matrix(11,0,0,11,115.2,1090)" />
<use xlink:href="#f2_b1" transform="matrix(11,0,0,11,124,1090)" />
<use xlink:href="#f2_am" transform="matrix(11,0,0,11,134.6,1090)" />
<use xlink:href="#f2_7k" transform="matrix(11,0,0,11,143.4,1090)" />
<use xlink:href="#f2_bf" transform="matrix(11,0,0,11,152.2,1090)" />
<use xlink:href="#f2_77" transform="matrix(11,0,0,11,157.7,1090)" />
<use xlink:href="#f2_9q" transform="matrix(11,0,0,11,165.8,1090)" />
<use xlink:href="#f2_af" transform="matrix(11,0,0,11,169.8,1090)" />
<use xlink:href="#f2_9q" transform="matrix(11,0,0,11,178.6,1090)" />
<use xlink:href="#f2_af" transform="matrix(11,0,0,11,182.6,1090)" />
<use xlink:href="#f2_9d" transform="matrix(11,0,0,11,191.4,1090)" />
<use xlink:href="#f2_77" transform="matrix(11,0,0,11,204.2,1090)" />
<use xlink:href="#f2_af" transform="matrix(11,0,0,11,217,1090)" />
<use xlink:href="#f2_7z" transform="matrix(11,0,0,11,225.8,1090)" />
<use xlink:href="#f2_ci" transform="matrix(11,0,0,11,234.2,1090)" />
<use xlink:href="#f2_7l" transform="matrix(11,0,0,11,251.1,1090)" />
<use xlink:href="#f2_am" transform="matrix(11,0,0,11,258.1,1090)" />
<use xlink:href="#f2_ae" transform="matrix(11,0,0,11,266.9,1090)" />
<use xlink:href="#f2_ay" transform="matrix(11,0,0,11,280.4,1090)" />
<use xlink:href="#f2_a8" transform="matrix(11,0,0,11,289.2,1090)" />
<use xlink:href="#f2_7z" transform="matrix(11,0,0,11,293.2,1090)" />
<use xlink:href="#f2_bf" transform="matrix(11,0,0,11,301.6,1090)" />
<use xlink:href="#f2_7z" transform="matrix(11,0,0,11,307.2,1090)" />
<use xlink:href="#f2_ay" transform="matrix(11,0,0,11,320.4,1090)" />
<use xlink:href="#f2_a8" transform="matrix(11,0,0,11,329.2,1090)" />
<use xlink:href="#f2_77" transform="matrix(11,0,0,11,333.2,1090)" />
<use xlink:href="#f2_af" transform="matrix(11,0,0,11,341.3,1090)" />
<use xlink:href="#f2_bf" transform="matrix(11,0,0,11,350,1090)" />
<use xlink:href="#f2_nt" transform="matrix(11,0,0,11,355.5,1090)" />
<use xlink:href="#f2_5" transform="matrix(11,0,0,11,364.7,1090)" />
<use xlink:href="#f2_ae" transform="matrix(11,0,0,11,374.6,1090)" />
<use xlink:href="#f2_am" transform="matrix(11,0,0,11,388.1,1090)" />
<use xlink:href="#f2_af" transform="matrix(11,0,0,11,396.9,1090)" />
<use xlink:href="#f2_9d" transform="matrix(11,0,0,11,405.3,1090)" />
<use xlink:href="#f2_b5" transform="matrix(11,0,0,11,413.4,1090)" />
<use xlink:href="#f2_bf" transform="matrix(11,0,0,11,420,1090)" />
<use xlink:href="#f2_bf" transform="matrix(11,0,0,11,430.2,1090)" />
<use xlink:href="#f2_9n" transform="matrix(11,0,0,11,435.7,1090)" />
<use xlink:href="#f2_7z" transform="matrix(11,0,0,11,444.5,1090)" />
<use xlink:href="#f2_ae" transform="matrix(11,0,0,11,452.9,1090)" />
<use xlink:href="#f2_bf" transform="matrix(11,0,0,11,471.3,1090)" />
<use xlink:href="#f2_9n" transform="matrix(11,0,0,11,476.8,1090)" />
<use xlink:href="#f2_7z" transform="matrix(11,0,0,11,485.6,1090)" />
<use xlink:href="#f2_ae" transform="matrix(11,0,0,11,498.8,1090)" />
<use xlink:href="#f2_am" transform="matrix(11,0,0,11,512.3,1090)" />
<use xlink:href="#f2_b5" transform="matrix(11,0,0,11,521.1,1090)" />
<use xlink:href="#f2_bf" transform="matrix(11,0,0,11,527.7,1090)" />
<use xlink:href="#f2_7l" transform="matrix(11,0,0,11,538,1090)" />
<use xlink:href="#f2_am" transform="matrix(11,0,0,11,544.9,1090)" />
<use xlink:href="#f2_ae" transform="matrix(11,0,0,11,553.7,1090)" />
<use xlink:href="#f2_ae" transform="matrix(11,0,0,11,567.3,1090)" />
<use xlink:href="#f2_am" transform="matrix(11,0,0,11,580.8,1090)" />
<use xlink:href="#f2_af" transform="matrix(11,0,0,11,589.6,1090)" />
<use xlink:href="#f2_ae" transform="matrix(11,0,0,11,603.2,1090)" />
<use xlink:href="#f2_7z" transform="matrix(11,0,0,11,616.7,1090)" />
<use xlink:href="#f2_bf" transform="matrix(11,0,0,11,625.1,1090)" />
<use xlink:href="#f2_9n" transform="matrix(11,0,0,11,630.7,1090)" />
<use xlink:href="#f2_am" transform="matrix(11,0,0,11,639.5,1090)" />
<use xlink:href="#f2_7v" transform="matrix(11,0,0,11,648.3,1090)" />
<use xlink:href="#f2_b5" transform="matrix(11,0,0,11,657.1,1090)" />
<use xlink:href="#f2_77" transform="matrix(11,0,0,11,668.4,1090)" />
<use xlink:href="#f2_b1" transform="matrix(11,0,0,11,676.5,1090)" />
<use xlink:href="#f2_7z" transform="matrix(11,0,0,11,682.4,1090)" />
<use xlink:href="#f3_ol" transform="matrix(11,0,0,11,696.2,1090)" />
<use xlink:href="#f2_7l" transform="matrix(11,0,0,11,709.4,1090)" />
<use xlink:href="#f2_c6" transform="matrix(11,0,0,11,716.4,1090)" />
<use xlink:href="#f2_bf" transform="matrix(11,0,0,11,725.5,1090)" />
<use xlink:href="#f2_bf" transform="matrix(11,0,0,11,731,1090)" />
<use xlink:href="#f2_9q" transform="matrix(11,0,0,11,736.5,1090)" />
<use xlink:href="#f2_af" transform="matrix(11,0,0,11,740.5,1090)" />
<use xlink:href="#f2_9d" transform="matrix(11,0,0,11,749.3,1090)" />
<use xlink:href="#f2_nt" transform="matrix(11,0,0,11,757.4,1090)" />
<use xlink:href="#f2_1r" transform="matrix(11,0,0,11,766.5,1090)" />
<use xlink:href="#f2_77" transform="matrix(11,0,0,11,773.5,1090)" />
<use xlink:href="#f2_co" transform="matrix(11,0,0,11,781.6,1090)" />
<use xlink:href="#f2_7z" transform="matrix(11,0,0,11,789.2,1090)" />
<use xlink:href="#f2_b1" transform="matrix(11,0,0,11,797.7,1090)" />
<use xlink:href="#f2_9q" transform="matrix(11,0,0,11,803.6,1090)" />
<use xlink:href="#f2_af" transform="matrix(11,0,0,11,807.6,1090)" />
<use xlink:href="#f2_9d" transform="matrix(11,0,0,11,816.4,1090)" />
<use xlink:href="#f2_77" transform="matrix(11,0,0,11,829.2,1090)" />
<use xlink:href="#f2_af" transform="matrix(11,0,0,11,837.3,1090)" />
<use xlink:href="#f2_7v" transform="matrix(11,0,0,11,845.7,1090)" />
</g>
<path fill-rule="evenodd" d="M80.3,1115H857.2v-20.6H80.3V1115Z" class="g0_8" />
<g fill="#1F3331" >
<use xlink:href="#f2_9d" transform="matrix(11,0,0,11,110,1110.6)" />
<use xlink:href="#f2_b1" transform="matrix(11,0,0,11,118.1,1110.6)" />
<use xlink:href="#f2_77" transform="matrix(11,0,0,11,124,1110.6)" />
<use xlink:href="#f2_89" transform="matrix(11,0,0,11,132,1110.6)" />
<use xlink:href="#f2_bf" transform="matrix(11,0,0,11,137.2,1110.6)" />
<use xlink:href="#f2_9q" transform="matrix(11,0,0,11,142.7,1110.6)" />
<use xlink:href="#f2_af" transform="matrix(11,0,0,11,146.7,1110.6)" />
<use xlink:href="#f2_9d" transform="matrix(11,0,0,11,155.5,1110.6)" />
<use xlink:href="#f2_nt" transform="matrix(11,0,0,11,163.5,1110.6)" />
</g>
<path fill-rule="evenodd" d="M52.8,1156.8H857.2v-20.6H52.8v20.6Z" class="g0_8" />
<g fill="#1F3331" >
<use xlink:href="#f0_77" transform="matrix(11,0,0,11,55,1152.4)" />
<use xlink:href="#f0_ow" transform="matrix(11,0,0,11,63.5,1152.4)" />
<use xlink:href="#f0_j" transform="matrix(11,0,0,11,72.2,1152.4)" />
<use xlink:href="#f0_c6" transform="matrix(11,0,0,11,81,1152.4)" />
<use xlink:href="#f0_bf" transform="matrix(11,0,0,11,90.2,1152.4)" />
<use xlink:href="#f0_bf" transform="matrix(11,0,0,11,96,1152.4)" />
<use xlink:href="#f0_9q" transform="matrix(11,0,0,11,101.9,1152.4)" />
<use xlink:href="#f0_af" transform="matrix(11,0,0,11,106,1152.4)" />
<use xlink:href="#f0_9d" transform="matrix(11,0,0,11,115.1,1152.4)" />
</g>
<path fill-rule="evenodd" d="M80.3,1199H857.2v-20.9H80.3V1199Z" class="g0_8" />
<g fill="#1F3331" >
<use xlink:href="#f1_3d" transform="matrix(10.1,0,0,10.1,82.5,1194.2)" />
<use xlink:href="#f2_j" transform="matrix(11,0,0,11,110,1194.2)" />
<use xlink:href="#f2_c6" transform="matrix(11,0,0,11,119.2,1194.2)" />
<use xlink:href="#f2_bf" transform="matrix(11,0,0,11,128,1194.2)" />
<use xlink:href="#f2_ay" transform="matrix(11,0,0,11,141.5,1194.2)" />
<use xlink:href="#f2_9q" transform="matrix(11,0,0,11,150.3,1194.2)" />
<use xlink:href="#f2_7z" transform="matrix(11,0,0,11,154.3,1194.2)" />
<use xlink:href="#f2_7l" transform="matrix(11,0,0,11,162.7,1194.2)" />
<use xlink:href="#f2_7z" transform="matrix(11,0,0,11,169.7,1194.2)" />
<use xlink:href="#f2_b5" transform="matrix(11,0,0,11,178.1,1194.2)" />
<use xlink:href="#f2_am" transform="matrix(11,0,0,11,192.8,1194.2)" />
<use xlink:href="#f2_89" transform="matrix(11,0,0,11,201.6,1194.2)" />
<use xlink:href="#f2_b1" transform="matrix(11,0,0,11,214.8,1194.2)" />
<use xlink:href="#f2_am" transform="matrix(11,0,0,11,220.7,1194.2)" />
<use xlink:href="#f2_am" transform="matrix(11,0,0,11,229.5,1194.2)" />
<use xlink:href="#f2_bf" transform="matrix(11,0,0,11,238.3,1194.2)" />
<use xlink:href="#f2_ci" transform="matrix(11,0,0,11,252,1194.2)" />
<use xlink:href="#f2_9n" transform="matrix(11,0,0,11,264.1,1194.2)" />
<use xlink:href="#f2_7z" transform="matrix(11,0,0,11,272.9,1194.2)" />
<use xlink:href="#f2_af" transform="matrix(11,0,0,11,281.3,1194.2)" />
<use xlink:href="#f2_ay" transform="matrix(11,0,0,11,298.2,1194.2)" />
<use xlink:href="#f2_a8" transform="matrix(11,0,0,11,307,1194.2)" />
<use xlink:href="#f2_77" transform="matrix(11,0,0,11,311,1194.2)" />
<use xlink:href="#f2_af" transform="matrix(11,0,0,11,319.1,1194.2)" />
<use xlink:href="#f2_bf" transform="matrix(11,0,0,11,327.9,1194.2)" />
<use xlink:href="#f2_7z" transform="matrix(11,0,0,11,333.4,1194.2)" />
<use xlink:href="#f2_7v" transform="matrix(11,0,0,11,341.8,1194.2)" />
<use xlink:href="#f2_9q" transform="matrix(11,0,0,11,358.7,1194.2)" />
<use xlink:href="#f2_af" transform="matrix(11,0,0,11,362.7,1194.2)" />
<use xlink:href="#f2_ae" transform="matrix(11,0,0,11,379.5,1194.2)" />
<use xlink:href="#f2_am" transform="matrix(11,0,0,11,393.1,1194.2)" />
<use xlink:href="#f2_9q" transform="matrix(11,0,0,11,401.9,1194.2)" />
<use xlink:href="#f2_b5" transform="matrix(11,0,0,11,405.9,1194.2)" />
<use xlink:href="#f2_bf" transform="matrix(11,0,0,11,412.5,1194.2)" />
<use xlink:href="#f2_b5" transform="matrix(11,0,0,11,426,1194.2)" />
<use xlink:href="#f2_am" transform="matrix(11,0,0,11,432.6,1194.2)" />
<use xlink:href="#f2_9q" transform="matrix(11,0,0,11,441.4,1194.2)" />
<use xlink:href="#f2_a8" transform="matrix(11,0,0,11,445.1,1194.2)" />
<use xlink:href="#f2_a8" transform="matrix(11,0,0,11,457.4,1194.2)" />
<use xlink:href="#f2_7z" transform="matrix(11,0,0,11,461.4,1194.2)" />
<use xlink:href="#f2_77" transform="matrix(11,0,0,11,469.8,1194.2)" />
<use xlink:href="#f2_7v" transform="matrix(11,0,0,11,477.6,1194.2)" />
<use xlink:href="#f2_b5" transform="matrix(11,0,0,11,486.4,1194.2)" />
<use xlink:href="#f2_bf" transform="matrix(11,0,0,11,501,1194.2)" />
<use xlink:href="#f2_am" transform="matrix(11,0,0,11,506.5,1194.2)" />
<use xlink:href="#f2_bf" transform="matrix(11,0,0,11,523.4,1194.2)" />
<use xlink:href="#f2_9n" transform="matrix(11,0,0,11,528.9,1194.2)" />
<use xlink:href="#f2_7z" transform="matrix(11,0,0,11,537.7,1194.2)" />
<use xlink:href="#f2_77" transform="matrix(11,0,0,11,554.2,1194.2)" />
<use xlink:href="#f2_b1" transform="matrix(11,0,0,11,562.2,1194.2)" />
<use xlink:href="#f2_bf" transform="matrix(11,0,0,11,568.1,1194.2)" />
<use xlink:href="#f2_9q" transform="matrix(11,0,0,11,573.6,1194.2)" />
<use xlink:href="#f2_89" transform="matrix(11,0,0,11,577.6,1194.2)" />
<use xlink:href="#f2_9q" transform="matrix(11,0,0,11,582.8,1194.2)" />
<use xlink:href="#f2_7l" transform="matrix(11,0,0,11,586.8,1194.2)" />
<use xlink:href="#f2_9q" transform="matrix(11,0,0,11,593.7,1194.2)" />
<use xlink:href="#f2_77" transform="matrix(11,0,0,11,597.7,1194.2)" />
<use xlink:href="#f2_a8" transform="matrix(11,0,0,11,605.8,1194.2)" />
<use xlink:href="#f2_9q" transform="matrix(11,0,0,11,617.9,1194.2)" />
<use xlink:href="#f2_af" transform="matrix(11,0,0,11,621.9,1194.2)" />
<use xlink:href="#f2_7v" transform="matrix(11,0,0,11,630.7,1194.2)" />
<use xlink:href="#f2_c6" transform="matrix(11,0,0,11,639.5,1194.2)" />
<use xlink:href="#f2_7l" transform="matrix(11,0,0,11,648.3,1194.2)" />
<use xlink:href="#f2_7z" transform="matrix(11,0,0,11,655.2,1194.2)" />
<use xlink:href="#f2_ae" transform="matrix(11,0,0,11,663.6,1194.2)" />
<use xlink:href="#f2_7z" transform="matrix(11,0,0,11,677.2,1194.2)" />
<use xlink:href="#f2_af" transform="matrix(11,0,0,11,685.6,1194.2)" />
<use xlink:href="#f2_bf" transform="matrix(11,0,0,11,694.5,1194.2)" />
<use xlink:href="#f2_77" transform="matrix(11,0,0,11,708,1194.2)" />
<use xlink:href="#f2_af" transform="matrix(11,0,0,11,716.1,1194.2)" />
<use xlink:href="#f2_7v" transform="matrix(11,0,0,11,724.9,1194.2)" />
<use xlink:href="#f2_7v" transform="matrix(11,0,0,11,741.7,1194.2)" />
<use xlink:href="#f2_7z" transform="matrix(11,0,0,11,750.5,1194.2)" />
<use xlink:href="#f2_ch" transform="matrix(11,0,0,11,758.9,1194.2)" />
<use xlink:href="#f2_7z" transform="matrix(11,0,0,11,766.7,1194.2)" />
<use xlink:href="#f2_a8" transform="matrix(11,0,0,11,774.7,1194.2)" />
<use xlink:href="#f2_am" transform="matrix(11,0,0,11,778.7,1194.2)" />
<use xlink:href="#f2_ay" transform="matrix(11,0,0,11,787.5,1194.2)" />
<use xlink:href="#f2_ae" transform="matrix(11,0,0,11,796.3,1194.2)" />
<use xlink:href="#f2_7z" transform="matrix(11,0,0,11,809.9,1194.2)" />
<use xlink:href="#f2_af" transform="matrix(11,0,0,11,818.3,1194.2)" />
<use xlink:href="#f2_bf" transform="matrix(11,0,0,11,827.1,1194.2)" />
<use xlink:href="#f2_am" transform="matrix(11,0,0,11,840.7,1194.2)" />
<use xlink:href="#f2_89" transform="matrix(11,0,0,11,849.5,1194.2)" />
</g>
<path fill-rule="evenodd" d="M80.3,1219.5H857.2V1199H80.3v20.5Z" class="g0_8" />
<g fill="#1F3331" >
<use xlink:href="#f2_77" transform="matrix(11,0,0,11,110,1215.1)" />
<use xlink:href="#f2_7v" transform="matrix(11,0,0,11,118.1,1215.1)" />
<use xlink:href="#f2_ch" transform="matrix(11,0,0,11,126.9,1215.1)" />
<use xlink:href="#f2_7z" transform="matrix(11,0,0,11,134.6,1215.1)" />
<use xlink:href="#f2_af" transform="matrix(11,0,0,11,143,1215.1)" />
<use xlink:href="#f2_bf" transform="matrix(11,0,0,11,151.8,1215.1)" />
<use xlink:href="#f2_9q" transform="matrix(11,0,0,11,157.3,1215.1)" />
<use xlink:href="#f2_bf" transform="matrix(11,0,0,11,161.3,1215.1)" />
<use xlink:href="#f2_9q" transform="matrix(11,0,0,11,166.8,1215.1)" />
<use xlink:href="#f2_am" transform="matrix(11,0,0,11,170.9,1215.1)" />
<use xlink:href="#f2_c6" transform="matrix(11,0,0,11,179.7,1215.1)" />
<use xlink:href="#f2_b5" transform="matrix(11,0,0,11,188.5,1215.1)" />
<use xlink:href="#f2_b1" transform="matrix(11,0,0,11,198.7,1215.1)" />
<use xlink:href="#f2_am" transform="matrix(11,0,0,11,204.6,1215.1)" />
<use xlink:href="#f2_am" transform="matrix(11,0,0,11,213.4,1215.1)" />
<use xlink:href="#f2_bf" transform="matrix(11,0,0,11,222.2,1215.1)" />
<use xlink:href="#f2_b5" transform="matrix(11,0,0,11,227.7,1215.1)" />
<use xlink:href="#f2_nt" transform="matrix(11,0,0,11,234.3,1215.1)" />
<use xlink:href="#f2_1y" transform="matrix(11,0,0,11,242.4,1215.1)" />
<use xlink:href="#f2_7z" transform="matrix(11,0,0,11,253.3,1215.1)" />
<use xlink:href="#f2_ci" transform="matrix(11,0,0,11,261.7,1215.1)" />
<use xlink:href="#f2_ay" transform="matrix(11,0,0,11,277.5,1215.1)" />
<use xlink:href="#f2_a8" transform="matrix(11,0,0,11,286.3,1215.1)" />
<use xlink:href="#f2_77" transform="matrix(11,0,0,11,290.3,1215.1)" />
<use xlink:href="#f2_af" transform="matrix(11,0,0,11,298.4,1215.1)" />
<use xlink:href="#f2_bf" transform="matrix(11,0,0,11,307.2,1215.1)" />
<use xlink:href="#f2_b5" transform="matrix(11,0,0,11,312.7,1215.1)" />
<use xlink:href="#f2_77" transform="matrix(11,0,0,11,323,1215.1)" />
<use xlink:href="#f2_b1" transform="matrix(11,0,0,11,331,1215.1)" />
<use xlink:href="#f2_7z" transform="matrix(11,0,0,11,336.9,1215.1)" />
<use xlink:href="#f2_7v" transform="matrix(11,0,0,11,349,1215.1)" />
<use xlink:href="#f2_7z" transform="matrix(11,0,0,11,357.8,1215.1)" />
<use xlink:href="#f2_ch" transform="matrix(11,0,0,11,366.2,1215.1)" />
<use xlink:href="#f2_7z" transform="matrix(11,0,0,11,373.9,1215.1)" />
<use xlink:href="#f2_a8" transform="matrix(11,0,0,11,382.3,1215.1)" />
<use xlink:href="#f2_am" transform="matrix(11,0,0,11,386.4,1215.1)" />
<use xlink:href="#f2_ay" transform="matrix(11,0,0,11,395.2,1215.1)" />
<use xlink:href="#f2_7z" transform="matrix(11,0,0,11,404,1215.1)" />
<use xlink:href="#f2_7v" transform="matrix(11,0,0,11,412.4,1215.1)" />
<use xlink:href="#f2_9q" transform="matrix(11,0,0,11,424.9,1215.1)" />
<use xlink:href="#f2_af" transform="matrix(11,0,0,11,428.9,1215.1)" />
<use xlink:href="#f2_bf" transform="matrix(11,0,0,11,441.3,1215.1)" />
<use xlink:href="#f2_9n" transform="matrix(11,0,0,11,446.8,1215.1)" />
<use xlink:href="#f2_9q" transform="matrix(11,0,0,11,455.7,1215.1)" />
<use xlink:href="#f2_b5" transform="matrix(11,0,0,11,459.7,1215.1)" />
<use xlink:href="#f2_ci" transform="matrix(11,0,0,11,469.9,1215.1)" />
<use xlink:href="#f2_77" transform="matrix(11,0,0,11,482,1215.1)" />
<use xlink:href="#f2_co" transform="matrix(11,0,0,11,490.1,1215.1)" />
<use xlink:href="#f2_9q" transform="matrix(11,0,0,11,501.4,1215.1)" />
<use xlink:href="#f2_af" transform="matrix(11,0,0,11,505.5,1215.1)" />
<use xlink:href="#f0_a8" transform="matrix(11,0,0,11,518.3,1215.1)" />
<use xlink:href="#f0_7z" transform="matrix(11,0,0,11,522.3,1215.1)" />
<use xlink:href="#f0_ae" transform="matrix(11,0,0,11,530.8,1215.1)" />
<use xlink:href="#f0_am" transform="matrix(11,0,0,11,544.3,1215.1)" />
<use xlink:href="#f0_af" transform="matrix(11,0,0,11,553.5,1215.1)" />
<use xlink:href="#f0_77" transform="matrix(11,0,0,11,566.3,1215.1)" />
<use xlink:href="#f0_af" transform="matrix(11,0,0,11,574.7,1215.1)" />
<use xlink:href="#f0_7v" transform="matrix(11,0,0,11,583.8,1215.1)" />
<use xlink:href="#f0_bf" transform="matrix(11,0,0,11,596.6,1215.1)" />
<use xlink:href="#f0_77" transform="matrix(11,0,0,11,602.5,1215.1)" />
<use xlink:href="#f0_ae" transform="matrix(11,0,0,11,610.9,1215.1)" />
<use xlink:href="#f0_77" transform="matrix(11,0,0,11,624.5,1215.1)" />
<use xlink:href="#f0_b1" transform="matrix(11,0,0,11,632.9,1215.1)" />
<use xlink:href="#f0_9q" transform="matrix(11,0,0,11,638.8,1215.1)" />
<use xlink:href="#f0_af" transform="matrix(11,0,0,11,642.8,1215.1)" />
<use xlink:href="#f0_7v" transform="matrix(11,0,0,11,651.9,1215.1)" />
<use xlink:href="#f2_nt" transform="matrix(11,0,0,11,661,1215.1)" />
</g>
<image preserveAspectRatio="none" x="85" y="55" width="454" height="331" xlink:href="img/1.png" />
<image preserveAspectRatio="none" x="57" y="407" width="731" height="559" xlink:href="img/2.png" />
<g fill="#000000" >
<use xlink:href="#f4_s" transform="matrix(8,0,0,8,792.9,1264.1)" />
</g>
<defs>
<path d="M324,-262c0,0,-21,0,-36,1c0,0,-15,2,-25,5c0,0,-10,2,-16,6c0,0,-5,4,-7,10c0,0,-41,77,-71,156c0,0,-30,78,-50,158c0,0,-19,80,-29,161c0,0,-10,82,-10,166c0,0,0,84,10,165c0,0,10,82,31,162c0,0,20,80,49,159c0,0,30,79,70,158c0,0,1,3,6,6c0,0,4,3,13,6c0,0,9,3,24,4c0,0,15,1,39,1c0,0,27,0,44,-3c0,0,18,-2,26,-8c0,0,9,-5,11,-13c0,0,1,-8,-3,-18c0,0,-63,-145,-95,-300c0,0,-32,-155,-32,-317c0,0,0,-164,32,-317c0,0,33,-153,94,-301c0,0,4,-12,4,-21c0,0,0,-8,-8,-14c0,0,-8,-6,-25,-9c0,0,-16,-3,-46,-3Z" 
id="f0_ov"
transform="scale(0.001,-0.001)" />

<path d="M188,-4c0,0,-28,0,-46,2c0,0,-18,2,-28,5c0,0,-11,3,-16,9c0,0,-4,5,-4,13V689c0,0,0,8,4,13c0,0,5,6,16,10c0,0,10,4,28,6c0,0,18,3,46,3c0,0,27,0,45,-3c0,0,18,-2,29,-6c0,0,11,-4,15,-10c0,0,5,-5,5,-13V25c0,0,0,-8,-5,-13c0,0,-4,-6,-15,-9c0,0,-11,-3,-29,-5c0,0,-18,-2,-45,-2Zm-1,820c0,0,-63,0,-85,21c0,0,-22,21,-22,75c0,0,0,57,23,79c0,0,23,22,86,22c0,0,63,0,85,-21c0,0,22,-21,22,-76c0,0,0,-56,-23,-78c0,0,-23,-22,-86,-22Z" 
id="f0_9q"
transform="scale(0.001,-0.001)" />

<path d="M153,-262c0,0,-30,0,-47,3c0,0,-17,3,-25,9c0,0,-8,6,-8,14c0,0,0,9,4,21c0,0,62,146,94,300c0,0,32,154,32,318c0,0,0,162,-32,317c0,0,-32,155,-95,300c0,0,-3,10,-2,18c0,0,1,8,10,13c0,0,9,6,26,8c0,0,17,3,45,3c0,0,23,0,38,-1c0,0,15,-1,24,-4c0,0,10,-3,14,-6c0,0,4,-3,7,-6c0,0,77,-157,117,-317c0,0,40,-160,40,-327c0,0,0,-84,-10,-166c0,0,-9,-81,-29,-161c0,0,-20,-80,-49,-158c0,0,-29,-79,-69,-156c0,0,-3,-6,-8,-10c0,0,-6,-4,-16,-6c0,0,-10,-3,-25,-5c0,0,-15,-1,-36,-1Z" 
id="f0_ow"
transform="scale(0.001,-0.001)" />

<path d="M589,371L453,782h-1L317,371ZM106,-4c0,0,-35,0,-54,2C52,-2,32,0,25,8c0,0,-7,9,-5,24c0,0,2,16,11,42L329,931c0,0,4,13,10,21c0,0,6,7,19,12c0,0,13,4,36,5c0,0,23,1,61,1c0,0,44,0,71,-1c0,0,26,-1,40,-5c0,0,15,-5,21,-13c0,0,6,-8,11,-22L896,73c0,0,9,-27,11,-43c0,0,3,-15,-6,-23c0,0,-8,-7,-29,-9c0,0,-21,-2,-57,-2c0,0,-38,0,-59,1c0,0,-22,1,-33,4c0,0,-11,3,-16,9c0,0,-4,6,-7,16L635,220H272L211,31c0,0,-2,-11,-7,-18c0,0,-5,-7,-16,-11c0,0,-11,-3,-31,-4c0,0,-19,-2,-51,-2Z" 
id="f0_5"
transform="scale(0.001,-0.001)" />

<path d="M402,542c0,0,41,0,72,10c0,0,32,10,52,28c0,0,21,18,32,44c0,0,10,25,10,56c0,0,0,48,-21,81c0,0,-22,33,-71,46c0,0,-15,4,-34,6c0,0,-19,2,-52,2H302V542ZM203,-4c0,0,-28,0,-47,2c0,0,-19,2,-30,5c0,0,-11,4,-16,10c0,0,-4,6,-4,13V903c0,0,0,33,16,48c0,0,17,14,42,14H414c0,0,38,0,62,-1c0,0,25,-2,45,-4c0,0,58,-8,105,-28c0,0,46,-21,79,-53c0,0,32,-32,49,-77c0,0,17,-44,17,-101c0,0,0,-49,-12,-89c0,0,-12,-40,-36,-71c0,0,-24,-31,-59,-54c0,0,-35,-23,-80,-38c0,0,22,-10,41,-25c0,0,19,-15,36,-36c0,0,17,-22,31,-49c0,0,15,-27,30,-61L803,87c0,0,11,-28,15,-41c0,0,3,-14,3,-21c0,0,0,-8,-3,-14c0,0,-3,-5,-14,-9c0,0,-11,-3,-33,-4c0,0,-21,-2,-59,-2c0,0,-31,0,-50,2c0,0,-18,1,-29,4c0,0,-11,4,-15,11c0,0,-5,6,-8,15L524,244c0,0,-16,37,-31,65c0,0,-14,28,-33,48c0,0,-18,19,-42,28c0,0,-24,10,-55,10H302V27c0,0,0,-8,-5,-14c0,0,-5,-6,-16,-10c0,0,-11,-3,-30,-5c0,0,-18,-2,-48,-2Z" 
id="f0_2j"
transform="scale(0.001,-0.001)" />

<path d="M378,-4c0,0,-28,0,-47,2c0,0,-19,2,-31,5c0,0,-11,4,-16,10c0,0,-4,6,-4,13V805H38c0,0,-8,0,-13,4c0,0,-5,5,-9,14c0,0,-3,9,-5,25c0,0,-2,15,-2,37c0,0,0,22,2,38c0,0,2,15,5,25c0,0,4,9,9,13c0,0,5,4,13,4H718c0,0,7,0,12,-4c0,0,6,-4,10,-13c0,0,3,-10,5,-25c0,0,2,-16,2,-38c0,0,0,-22,-2,-37c0,0,-2,-16,-5,-25c0,0,-4,-9,-10,-14c0,0,-5,-4,-12,-4H476V26c0,0,0,-7,-5,-13c0,0,-5,-6,-16,-10c0,0,-11,-3,-30,-5c0,0,-19,-2,-47,-2Z" 
id="f0_2t"
transform="scale(0.001,-0.001)" />

<path d="M204,-4c0,0,-28,0,-47,2c0,0,-19,2,-31,5c0,0,-11,4,-16,10c0,0,-4,6,-4,13V939c0,0,0,7,4,13c0,0,5,6,17,10c0,0,11,3,30,6c0,0,19,2,47,2c0,0,29,0,48,-2c0,0,18,-3,29,-6c0,0,11,-4,16,-10c0,0,5,-6,5,-13V26c0,0,0,-7,-5,-13c0,0,-5,-6,-16,-10c0,0,-11,-3,-29,-5c0,0,-19,-2,-48,-2Z" 
id="f0_1c"
transform="scale(0.001,-0.001)" />

<path d="M204,-4c0,0,-28,0,-47,2c0,0,-19,2,-31,6c0,0,-11,4,-16,10c0,0,-4,6,-4,14V903c0,0,0,33,16,48c0,0,17,14,42,14H618c0,0,7,0,12,-4c0,0,5,-4,9,-13c0,0,5,-10,6,-25c0,0,2,-16,2,-38c0,0,0,-23,-2,-38c0,0,-1,-15,-6,-24c0,0,-4,-9,-9,-14c0,0,-5,-4,-12,-4H302V545H599c0,0,6,0,12,-4c0,0,5,-4,9,-13c0,0,4,-9,6,-24c0,0,2,-15,2,-37c0,0,0,-22,-2,-37c0,0,-2,-15,-6,-25c0,0,-4,-10,-9,-14c0,0,-6,-4,-12,-4H302V28c0,0,0,-8,-4,-14c0,0,-5,-6,-16,-10c0,0,-12,-4,-30,-6c0,0,-19,-2,-48,-2Z" 
id="f0_13"
transform="scale(0.001,-0.001)" />

<path d="M489,-15c0,0,-99,0,-179,30c0,0,-80,30,-136,91c0,0,-56,61,-85,152c0,0,-30,91,-30,212c0,0,0,123,32,218c0,0,33,96,92,161c0,0,59,65,142,98c0,0,82,34,181,34c0,0,40,0,78,-7c0,0,37,-7,69,-18c0,0,31,-11,57,-25c0,0,25,-14,35,-24c0,0,10,-10,14,-17c0,0,4,-7,6,-17c0,0,2,-11,3,-25c0,0,2,-14,2,-35c0,0,0,-22,-2,-38c0,0,-1,-15,-5,-25c0,0,-4,-10,-9,-14c0,0,-5,-5,-12,-5c0,0,-11,0,-28,13c0,0,-18,13,-45,29c0,0,-27,16,-65,29c0,0,-37,13,-89,13c0,0,-58,0,-103,-23c0,0,-45,-23,-77,-67c0,0,-31,-44,-48,-106c0,0,-16,-61,-16,-139c0,0,0,-85,17,-147c0,0,18,-62,50,-103c0,0,33,-40,79,-60c0,0,45,-19,103,-19c0,0,52,0,90,12c0,0,38,12,65,27c0,0,27,15,45,27c0,0,17,12,27,12c0,0,8,0,12,-3c0,0,4,-3,7,-12c0,0,3,-9,5,-25c0,0,1,-16,1,-43c0,0,0,-18,-1,-31c0,0,-1,-14,-3,-23c0,0,-2,-9,-6,-16c0,0,-4,-7,-12,-15c0,0,-8,-9,-32,-22c0,0,-23,-14,-57,-26C661,13,627,1,583,-6c0,0,-43,-9,-94,-9Z" 
id="f0_j"
transform="scale(0.001,-0.001)" />

<path d="M164,0c0,0,-25,0,-42,15c0,0,-16,14,-16,47V939c0,0,0,7,4,13c0,0,5,6,16,10c0,0,12,3,31,6c0,0,19,2,47,2c0,0,29,0,48,-2c0,0,18,-3,29,-6c0,0,11,-4,16,-10c0,0,5,-6,5,-13V162H606c0,0,7,0,13,-4c0,0,5,-4,9,-13c0,0,4,-10,6,-25c0,0,2,-15,2,-38c0,0,0,-22,-2,-37c0,0,-2,-16,-6,-26c0,0,-4,-10,-9,-15c0,0,-6,-4,-13,-4Z" 
id="f0_1r"
transform="scale(0.001,-0.001)" />

<path d="M198,-4c0,0,-27,0,-45,2c0,0,-18,2,-28,5c0,0,-11,4,-15,10c0,0,-4,6,-4,13V887c0,0,0,38,20,58c0,0,20,20,53,20H308c0,0,34,0,59,-6c0,0,24,-5,42,-18c0,0,18,-13,30,-35c0,0,12,-21,21,-52L669,279h3L889,852c0,0,9,32,21,53c0,0,11,22,27,35c0,0,15,14,36,19c0,0,21,6,48,6h132c0,0,21,0,35,-5c0,0,15,-5,24,-15c0,0,9,-11,14,-25c0,0,5,-15,5,-33V26c0,0,0,-7,-4,-13c0,0,-4,-6,-15,-10c0,0,-11,-3,-29,-5c0,0,-18,-2,-45,-2c0,0,-27,0,-45,2c0,0,-18,2,-28,5c0,0,-11,4,-15,10c0,0,-5,6,-5,13V813h-1L764,27c0,0,-3,-10,-10,-16c0,0,-6,-6,-18,-10c0,0,-12,-3,-29,-4c0,0,-18,-1,-44,-1c0,0,-25,0,-43,2c0,0,-18,2,-29,5c0,0,-12,4,-19,10c0,0,-6,6,-9,14L293,813h-2V26c0,0,0,-7,-4,-13c0,0,-4,-6,-15,-10c0,0,-11,-3,-29,-5c0,0,-17,-2,-45,-2Z" 
id="f0_1x"
transform="scale(0.001,-0.001)" />

<path d="M164,0c0,0,-25,0,-42,15c0,0,-16,14,-16,47V903c0,0,0,33,16,48c0,0,17,14,42,14H645c0,0,7,0,12,-4c0,0,5,-3,9,-13c0,0,4,-9,6,-24c0,0,2,-14,2,-36c0,0,0,-21,-2,-36c0,0,-2,-14,-6,-23c0,0,-4,-9,-9,-13c0,0,-5,-4,-12,-4H301V576H593c0,0,6,0,12,-4c0,0,6,-4,9,-13c0,0,4,-8,6,-23c0,0,2,-14,2,-35c0,0,0,-22,-2,-36c0,0,-2,-14,-6,-23c0,0,-3,-8,-9,-12c0,0,-6,-4,-12,-4H301V154H649c0,0,6,0,12,-5c0,0,5,-4,9,-13c0,0,4,-9,6,-23c0,0,2,-15,2,-36c0,0,0,-22,-2,-36c0,0,-2,-15,-6,-24c0,0,-4,-9,-9,-13c0,0,-6,-4,-12,-4Z" 
id="f0_t"
transform="scale(0.001,-0.001)" />

<path d="M204,-4c0,0,-28,0,-47,2c0,0,-19,2,-30,5c0,0,-12,4,-17,10c0,0,-4,6,-4,13V939c0,0,0,7,4,13c0,0,5,6,17,10c0,0,11,3,30,6c0,0,19,2,47,2c0,0,29,0,48,-2c0,0,19,-3,30,-6c0,0,11,-4,16,-10c0,0,4,-6,4,-13V584H663V939c0,0,0,7,5,13c0,0,5,6,15,10c0,0,11,3,30,6c0,0,19,2,49,2c0,0,28,0,47,-2c0,0,18,-3,30,-6c0,0,11,-4,16,-10c0,0,4,-6,4,-13V26c0,0,0,-7,-4,-13c0,0,-5,-6,-16,-10c0,0,-12,-3,-30,-5c0,0,-19,-2,-47,-2c0,0,-30,0,-49,2c0,0,-19,2,-30,5c0,0,-10,4,-15,10c0,0,-5,6,-5,13V417H302V26c0,0,0,-7,-4,-13c0,0,-5,-6,-16,-10c0,0,-11,-3,-30,-5c0,0,-19,-2,-48,-2Z" 
id="f0_19"
transform="scale(0.001,-0.001)" />

<path d="M514,145c0,0,72,0,121,27c0,0,48,26,78,73c0,0,30,46,42,107c0,0,13,62,13,131c0,0,0,76,-12,139c0,0,-12,62,-41,106c0,0,-29,45,-76,69c0,0,-48,24,-120,24c0,0,-72,0,-120,-27c0,0,-49,-27,-79,-73c0,0,-29,-45,-42,-106c0,0,-12,-61,-12,-129c0,0,0,-79,12,-142c0,0,12,-63,40,-108c0,0,28,-44,76,-68c0,0,48,-23,120,-23ZM508,-17c0,0,-113,0,-196,29c0,0,-84,29,-140,90c0,0,-56,60,-84,154c0,0,-28,93,-28,221c0,0,0,117,29,210c0,0,30,94,89,160c0,0,59,65,146,101c0,0,87,35,202,35c0,0,110,0,194,-29c0,0,84,-30,140,-90c0,0,56,-60,85,-153c0,0,29,-92,29,-217c0,0,0,-120,-30,-215c0,0,-30,-95,-89,-161C855,118,796,52,709,17c0,0,-87,-34,-201,-34Z" 
id="f0_24"
transform="scale(0.001,-0.001)" />

<path d="M403,155c0,0,81,0,136,21c0,0,55,21,92,63c0,0,37,42,55,105c0,0,18,63,18,146c0,0,0,69,-16,128c0,0,-16,59,-51,102c0,0,-36,43,-91,67c0,0,-56,25,-146,25H301V155ZM164,0c0,0,-25,0,-42,15c0,0,-16,14,-16,47V903c0,0,0,33,16,48c0,0,17,14,42,14H411c0,0,129,0,219,-30c0,0,90,-30,152,-90c0,0,61,-59,93,-146c0,0,32,-87,32,-202c0,0,0,-133,-34,-227c0,0,-35,-95,-100,-154c0,0,-65,-60,-158,-88C615,28,523,0,394,0Z" 
id="f0_p"
transform="scale(0.001,-0.001)" />

<path d="M320,-17c0,0,-50,0,-93,9c0,0,-43,8,-76,19c0,0,-32,11,-54,24C97,35,75,48,65,58c0,0,-10,9,-14,28c0,0,-4,18,-4,52c0,0,0,23,1,39c0,0,2,15,5,25c0,0,4,10,9,14c0,0,6,4,13,4c0,0,11,0,30,-12c0,0,19,-13,49,-28c0,0,30,-15,71,-27c0,0,42,-12,96,-12c0,0,36,0,64,8c0,0,29,9,49,25c0,0,19,15,30,38c0,0,10,23,10,52c0,0,0,33,-18,56c0,0,-18,24,-46,42c0,0,-29,18,-66,34c0,0,-36,16,-75,34c0,0,-39,18,-76,41c0,0,-36,23,-65,54c0,0,-29,32,-47,75c0,0,-17,44,-17,104c0,0,0,70,25,122c0,0,26,53,70,88c0,0,43,34,103,51c0,0,59,18,125,18c0,0,35,0,69,-6c0,0,34,-5,64,-14c0,0,30,-9,53,-20c0,0,23,-11,31,-18c0,0,7,-8,10,-13c0,0,3,-5,4,-14c0,0,2,-8,3,-21c0,0,1,-13,1,-33c0,0,0,-21,-1,-36c0,0,-1,-15,-4,-25c0,0,-3,-9,-7,-14c0,0,-5,-4,-14,-4c0,0,-8,0,-26,10c0,0,-18,10,-44,23c0,0,-26,12,-60,22c0,0,-34,10,-75,10c0,0,-32,0,-56,-8c0,0,-24,-8,-40,-21c0,0,-16,-14,-24,-34c0,0,-8,-19,-8,-41c0,0,0,-32,18,-56c0,0,17,-23,46,-42c0,0,30,-18,67,-34c0,0,38,-16,76,-34c0,0,39,-18,76,-41c0,0,38,-22,67,-54c0,0,29,-32,47,-75c0,0,18,-43,18,-101c0,0,0,-76,-29,-133c0,0,-28,-58,-77,-96C572,60,524,21,459,2c0,0,-65,-19,-139,-19Z" 
id="f0_2n"
transform="scale(0.001,-0.001)" />

<path d="M273,157c0,0,-114,0,-193,80C80,237,0,317,0,431c0,0,0,112,80,192c0,0,79,80,193,80c0,0,113,0,192,-80c0,0,80,-80,80,-192c0,0,0,-114,-80,-194c0,0,-79,-80,-192,-80Z" 
id="f1_3d"
transform="scale(0.001,-0.001)" />

<path d="M189,-4c0,0,-18,0,-30,2c0,0,-12,2,-19,3c0,0,-7,3,-9,8c0,0,-3,4,-3,10V907c0,0,0,31,16,45c0,0,17,13,37,13h78c0,0,24,0,41,-4c0,0,18,-5,32,-15c0,0,13,-9,22,-24c0,0,9,-15,16,-35L649,188h4L944,884c0,0,8,23,18,39c0,0,9,15,21,25c0,0,11,9,26,13c0,0,14,4,32,4h82c0,0,11,0,21,-3c0,0,10,-4,17,-11c0,0,7,-7,12,-18c0,0,4,-10,4,-26V19c0,0,0,-6,-3,-10c0,0,-3,-5,-10,-8c0,0,-8,-1,-19,-3c0,0,-12,-2,-30,-2c0,0,-18,0,-30,2c0,0,-12,2,-19,3c0,0,-7,3,-10,8c0,0,-3,4,-3,10V860h-2L707,15c0,0,-2,-5,-6,-9c0,0,-4,-3,-12,-6c0,0,-8,-2,-18,-3c0,0,-11,-1,-26,-1c0,0,-16,0,-27,2c0,0,-11,1,-19,3c0,0,-7,2,-11,6c0,0,-4,4,-6,8L253,860V19c0,0,0,-6,-3,-10c0,0,-3,-5,-11,-8c0,0,-7,-1,-19,-3c0,0,-12,-2,-31,-2Z" 
id="f2_1x"
transform="scale(0.001,-0.001)" />

<path d="M564,420c0,0,2,98,-43,153c0,0,-46,56,-134,56c0,0,-46,0,-80,-18c0,0,-35,-17,-58,-45c0,0,-23,-29,-36,-67c0,0,-12,-37,-14,-79ZM405,-13c0,0,-83,0,-145,22c0,0,-62,24,-105,69c0,0,-42,46,-64,114c0,0,-22,69,-22,160c0,0,0,87,23,156c0,0,22,69,64,117c0,0,43,48,102,74c0,0,60,26,134,26c0,0,79,0,135,-26c0,0,55,-25,91,-68c0,0,36,-43,53,-101c0,0,16,-58,16,-123V384c0,0,0,-29,-14,-41c0,0,-15,-13,-33,-13H199c0,0,0,-56,11,-100c0,0,12,-45,38,-77c0,0,26,-33,68,-50c0,0,41,-17,102,-17c0,0,48,0,85,8c0,0,37,8,65,17c0,0,27,10,44,18c0,0,18,8,27,8c0,0,5,0,9,-3c0,0,4,-2,7,-8c0,0,2,-5,3,-14c0,0,1,-9,1,-23c0,0,0,-9,-1,-16c0,0,0,-8,-2,-13c0,0,-1,-6,-3,-10c0,0,-3,-5,-7,-9c0,0,-4,-4,-24,-13c0,0,-20,-10,-53,-18c0,0,-32,-9,-74,-16c0,0,-42,-7,-90,-7Z" 
id="f2_7z"
transform="scale(0.001,-0.001)" />

<path d="M339,-13c0,0,-52,0,-90,13c0,0,-37,14,-61,42c0,0,-24,28,-34,71c0,0,-11,43,-11,101V607H49c0,0,-11,0,-18,12c0,0,-7,12,-7,39c0,0,0,14,2,24c0,0,2,10,5,16c0,0,3,7,8,9c0,0,5,3,11,3h93V870c0,0,0,5,2,9c0,0,3,5,10,8c0,0,7,4,19,5c0,0,12,2,30,2c0,0,19,0,31,-2c0,0,11,-1,18,-5c0,0,7,-3,10,-8c0,0,3,-4,3,-9V710H438c0,0,6,0,10,-3c0,0,5,-2,8,-9c0,0,4,-6,5,-16c0,0,1,-10,1,-24c0,0,0,-27,-6,-39c0,0,-7,-12,-18,-12H266V232c0,0,0,-69,20,-105c0,0,21,-35,74,-35c0,0,17,0,30,3c0,0,14,4,24,7c0,0,10,4,18,7c0,0,7,4,13,4c0,0,4,0,7,-2c0,0,4,-2,6,-7c0,0,2,-5,3,-14c0,0,1,-9,1,-23c0,0,0,-22,-2,-34c0,0,-3,-13,-9,-19c0,0,-6,-6,-18,-11c0,0,-12,-4,-28,-8c0,0,-15,-3,-32,-5c0,0,-17,-3,-34,-3Z" 
id="f2_bf"
transform="scale(0.001,-0.001)" />

<path d="M176,-4c0,0,-18,0,-30,2c0,0,-12,1,-19,3c0,0,-7,3,-10,7c0,0,-3,4,-3,10v997c0,0,0,6,3,11c0,0,3,4,10,7c0,0,7,3,19,5c0,0,12,1,30,1c0,0,18,0,30,-1c0,0,12,-2,19,-5c0,0,7,-3,9,-7c0,0,3,-5,3,-10V614c0,0,53,56,107,83c0,0,54,28,108,28c0,0,67,0,113,-23c0,0,46,-23,74,-61c0,0,29,-38,41,-89c0,0,12,-52,12,-124V18c0,0,0,-6,-3,-10c0,0,-3,-4,-9,-7c0,0,-7,-2,-19,-3c0,0,-12,-2,-30,-2c0,0,-19,0,-30,2c0,0,-12,1,-19,3c0,0,-7,3,-10,7c0,0,-3,4,-3,10V412c0,0,0,58,-9,93c0,0,-9,35,-26,61c0,0,-17,25,-44,38c0,0,-27,14,-63,14c0,0,-46,0,-93,-33c0,0,-46,-33,-97,-96V18c0,0,0,-6,-3,-10c0,0,-2,-4,-9,-7c0,0,-7,-2,-19,-3c0,0,-12,-2,-30,-2Z" 
id="f2_9n"
transform="scale(0.001,-0.001)" />

<path d="M401,90c0,0,54,0,93,19c0,0,40,20,65,55c0,0,26,35,37,84c0,0,12,48,12,106c0,0,0,55,-10,104c0,0,-10,48,-33,85c0,0,-23,36,-62,58c0,0,-40,21,-99,21c0,0,-54,0,-93,-20c0,0,-39,-19,-65,-54c0,0,-25,-36,-37,-85c0,0,-12,-48,-12,-106c0,0,0,-55,10,-103c0,0,10,-49,33,-85c0,0,24,-36,63,-58c0,0,39,-21,98,-21ZM395,-13c0,0,-82,0,-144,24c0,0,-61,25,-102,72c0,0,-41,47,-61,114c0,0,-21,67,-21,152c0,0,0,82,22,151c0,0,21,69,64,119c0,0,43,50,107,78c0,0,64,28,150,28c0,0,82,0,144,-25c0,0,61,-25,102,-72c0,0,41,-47,62,-114c0,0,20,-67,20,-151c0,0,0,-83,-21,-152c0,0,-22,-69,-65,-119C652,92,609,42,545,14c0,0,-65,-27,-150,-27Z" 
id="f2_am"
transform="scale(0.001,-0.001)" />

<path d="M366,92c0,0,25,0,48,7c0,0,22,6,46,22c0,0,24,16,50,41c0,0,26,24,56,61V492c0,0,-51,62,-97,94c0,0,-47,33,-98,33c0,0,-47,0,-79,-22c0,0,-33,-23,-54,-59c0,0,-20,-37,-30,-83c0,0,-9,-47,-9,-94c0,0,0,-51,8,-100c0,0,8,-48,27,-86c0,0,19,-38,52,-60c0,0,32,-23,80,-23ZM345,-13c0,0,-74,0,-127,28c0,0,-52,29,-84,78c0,0,-33,49,-48,115c0,0,-15,66,-15,139c0,0,0,86,19,156c0,0,19,70,55,119c0,0,37,50,91,76c0,0,54,27,125,27c0,0,59,0,108,-26c0,0,49,-26,97,-76v390c0,0,0,5,2,10c0,0,3,4,10,7c0,0,8,3,19,5c0,0,12,1,30,1c0,0,18,0,30,-1c0,0,12,-2,19,-5c0,0,7,-3,10,-7c0,0,3,-5,3,-10V18c0,0,0,-6,-2,-10c0,0,-3,-5,-9,-7c0,0,-7,-2,-17,-3c0,0,-10,-2,-25,-2c0,0,-16,0,-26,2c0,0,-11,1,-18,3c0,0,-6,2,-9,7c0,0,-3,4,-3,10v90c0,0,-53,-58,-110,-90c0,0,-58,-31,-125,-31Z" 
id="f2_7v"
transform="scale(0.001,-0.001)" />

<path d="M272,-13c0,0,-35,0,-68,6c0,0,-32,6,-58,13c0,0,-26,9,-44,18c0,0,-17,10,-26,17c0,0,-8,8,-12,21c0,0,-3,14,-3,37c0,0,0,14,1,24c0,0,2,9,4,15c0,0,2,6,6,9c0,0,4,3,10,3c0,0,8,0,24,-11c0,0,16,-10,39,-22c0,0,24,-12,56,-22c0,0,32,-10,74,-10c0,0,31,0,56,7c0,0,26,6,44,19c0,0,19,14,29,34c0,0,10,20,10,47c0,0,0,29,-14,48c0,0,-15,19,-39,34c0,0,-24,15,-53,27c0,0,-30,11,-62,24c0,0,-32,13,-62,29c0,0,-30,16,-54,39c0,0,-24,23,-38,55c0,0,-15,32,-15,77c0,0,0,40,16,76c0,0,15,36,45,63c0,0,31,28,77,44c0,0,46,17,107,17c0,0,27,0,54,-5c0,0,26,-5,48,-11c0,0,22,-7,37,-15c0,0,15,-8,23,-14c0,0,8,-6,11,-11c0,0,2,-4,3,-10c0,0,1,-5,2,-14c0,0,2,-8,2,-20c0,0,0,-12,-2,-22c0,0,-1,-9,-3,-15c0,0,-3,-6,-7,-8c0,0,-3,-3,-8,-3c0,0,-7,0,-19,8c0,0,-13,8,-33,18c0,0,-20,9,-47,17c0,0,-28,9,-63,9c0,0,-31,0,-55,-7c0,0,-24,-7,-39,-20c0,0,-15,-13,-23,-31c0,0,-8,-18,-8,-39c0,0,0,-29,15,-49c0,0,15,-20,39,-35c0,0,24,-15,54,-27c0,0,31,-11,62,-24c0,0,32,-13,63,-29c0,0,31,-15,55,-38c0,0,24,-22,38,-53c0,0,15,-32,15,-75c0,0,0,-51,-19,-92c0,0,-19,-40,-54,-68C463,42,428,15,379,1c0,0,-48,-14,-107,-14Z" 
id="f2_b5"
transform="scale(0.001,-0.001)" />

<path d="M321,82c0,0,48,0,90,25c0,0,41,24,87,75V325H392c0,0,-50,0,-88,-9c0,0,-37,-9,-62,-25c0,0,-24,-17,-36,-41c0,0,-11,-23,-11,-54c0,0,0,-52,33,-83c0,0,33,-31,93,-31ZM301,-13c0,0,-53,0,-96,13c0,0,-43,14,-73,40c0,0,-30,26,-47,64c0,0,-17,38,-17,87c0,0,0,56,24,98c0,0,23,42,66,69c0,0,43,28,106,42c0,0,63,14,141,14h93v52c0,0,0,39,-9,69c0,0,-8,30,-26,50c0,0,-18,20,-47,30c0,0,-30,10,-72,10c0,0,-46,0,-82,-11c0,0,-36,-11,-63,-24c0,0,-27,-13,-46,-24c0,0,-18,-11,-27,-11c0,0,-6,0,-10,3c0,0,-5,3,-8,9c0,0,-3,6,-5,16c0,0,-1,9,-1,20c0,0,0,19,2,30c0,0,3,11,13,20c0,0,10,10,35,23c0,0,24,13,56,24c0,0,32,10,70,17c0,0,38,8,77,8c0,0,73,0,123,-17c0,0,51,-16,82,-48c0,0,32,-32,46,-79c0,0,14,-47,14,-110V18c0,0,0,-9,-6,-14c0,0,-6,-4,-16,-6c0,0,-11,-2,-31,-2c0,0,-19,0,-31,2c0,0,-12,2,-17,6c0,0,-5,5,-5,13V85c0,0,-44,-47,-98,-73c0,0,-54,-25,-115,-25Z" 
id="f2_77"
transform="scale(0.001,-0.001)" />

<path d="M176,-4c0,0,-18,0,-30,2c0,0,-12,1,-19,3c0,0,-7,3,-10,7c0,0,-3,4,-3,10V690c0,0,0,6,3,10c0,0,2,4,9,7c0,0,6,4,17,5c0,0,10,1,27,1c0,0,17,0,28,-1c0,0,10,-1,16,-5c0,0,6,-3,9,-7c0,0,3,-4,3,-10V592c0,0,27,41,51,66c0,0,25,26,46,41c0,0,22,14,43,20c0,0,21,6,43,6c0,0,10,0,22,-2c0,0,12,-1,26,-4c0,0,13,-3,24,-6c0,0,11,-4,15,-8c0,0,5,-4,6,-7c0,0,2,-3,3,-9c0,0,1,-5,1,-15c0,0,0,-10,0,-27c0,0,0,-16,0,-28c0,0,-1,-11,-3,-17c0,0,-2,-6,-6,-10c0,0,-3,-3,-9,-3c0,0,-6,0,-15,3c0,0,-8,4,-19,7c0,0,-11,3,-24,6c0,0,-14,3,-29,3c0,0,-19,0,-37,-7c0,0,-18,-8,-37,-25c0,0,-20,-18,-42,-46c0,0,-21,-29,-48,-70V18c0,0,0,-6,-3,-10c0,0,-2,-4,-9,-7c0,0,-7,-2,-19,-3c0,0,-12,-2,-30,-2Z" 
id="f2_b1"
transform="scale(0.001,-0.001)" />

<path d="M346,-4c0,0,-23,0,-38,2c0,0,-15,1,-24,3c0,0,-9,3,-15,8c0,0,-5,6,-8,13L33,660c0,0,-3,9,-5,15c0,0,-2,7,-2,11c0,0,0,3,0,5c0,0,0,6,3,11c0,0,3,4,10,7c0,0,7,2,18,3c0,0,12,1,29,1c0,0,22,0,35,-1c0,0,13,-1,20,-4c0,0,7,-3,10,-8c0,0,4,-4,7,-11L347,135l3,-9l2,9L540,689c0,0,1,7,5,11c0,0,3,5,11,8c0,0,7,3,19,4c0,0,12,1,32,1c0,0,18,0,29,-1c0,0,11,-1,17,-4c0,0,7,-3,9,-7c0,0,3,-4,3,-10c0,0,0,-3,-1,-6c0,0,0,-4,-1,-7c0,0,0,-4,-2,-8c0,0,-1,-5,-2,-10L430,22c0,0,-3,-8,-8,-13c0,0,-5,-6,-15,-9c0,0,-9,-2,-24,-3c0,0,-15,-1,-37,-1Z" 
id="f2_ch"
transform="scale(0.001,-0.001)" />

<path d="M176,-4c0,0,-18,0,-30,2c0,0,-12,1,-19,3c0,0,-7,3,-10,7c0,0,-3,4,-3,10v997c0,0,0,6,3,11c0,0,3,4,10,7c0,0,7,3,19,5c0,0,12,1,30,1c0,0,18,0,30,-1c0,0,12,-2,19,-5c0,0,7,-3,9,-7c0,0,3,-5,3,-11V18c0,0,0,-6,-3,-10c0,0,-2,-4,-9,-7c0,0,-7,-2,-19,-3c0,0,-12,-2,-30,-2Z" 
id="f2_a8"
transform="scale(0.001,-0.001)" />

<path d="M429,92c0,0,47,0,80,22c0,0,33,23,54,60c0,0,20,38,30,84c0,0,10,46,10,93c0,0,0,52,-8,100c0,0,-8,48,-27,86c0,0,-19,37,-51,60c0,0,-32,22,-80,22c0,0,-24,0,-47,-7c0,0,-23,-7,-47,-23c0,0,-24,-15,-50,-40c0,0,-26,-25,-56,-62V220c0,0,51,-62,97,-95c0,0,45,-33,95,-33ZM176,-271c0,0,-18,0,-30,2c0,0,-12,1,-19,4c0,0,-7,3,-10,8c0,0,-3,4,-3,10V690c0,0,0,6,3,10c0,0,2,5,9,8c0,0,6,3,17,4c0,0,10,1,25,1c0,0,16,0,26,-1c0,0,10,-1,17,-4c0,0,6,-3,9,-7c0,0,3,-4,3,-11V601c0,0,30,31,59,54c0,0,28,23,57,39c0,0,28,15,59,23c0,0,30,8,63,8c0,0,74,0,125,-29c0,0,52,-28,84,-77c0,0,32,-50,47,-115c0,0,15,-65,15,-139c0,0,0,-88,-19,-158c0,0,-19,-70,-56,-119c0,0,-37,-49,-91,-75c0,0,-55,-26,-125,-26c0,0,-30,0,-55,6c0,0,-25,6,-50,18c0,0,-24,13,-48,32c0,0,-24,19,-51,46V-247c0,0,0,-6,-3,-10c0,0,-2,-5,-9,-8c0,0,-7,-3,-19,-4c0,0,-12,-2,-30,-2Z" 
id="f2_ay"
transform="scale(0.001,-0.001)" />

<path d="M209,-4c0,0,-18,0,-30,2c0,0,-12,1,-19,3c0,0,-7,3,-10,7c0,0,-3,4,-3,10V607H52c0,0,-12,0,-18,12c0,0,-6,12,-6,39c0,0,0,14,2,24c0,0,1,10,4,16c0,0,3,7,8,9c0,0,4,3,10,3h95v69c0,0,0,71,13,121c0,0,13,50,40,82c0,0,27,33,67,48c0,0,41,15,96,15c0,0,26,0,51,-5c0,0,25,-4,38,-10c0,0,13,-6,18,-10c0,0,4,-5,7,-12c0,0,3,-7,5,-17c0,0,1,-10,1,-24c0,0,0,-15,-2,-23c0,0,-1,-9,-3,-14c0,0,-2,-5,-5,-7c0,0,-3,-2,-8,-2c0,0,-5,0,-13,3c0,0,-7,4,-19,8c0,0,-11,4,-26,7c0,0,-15,4,-36,4c0,0,-27,0,-47,-9c0,0,-19,-9,-31,-28c0,0,-12,-19,-17,-50c0,0,-5,-30,-5,-73V710H421c0,0,6,0,10,-3c0,0,4,-2,7,-9c0,0,4,-6,6,-16c0,0,2,-10,2,-24c0,0,0,-27,-7,-39c0,0,-7,-12,-18,-12H271V18c0,0,0,-6,-3,-10c0,0,-3,-4,-11,-7c0,0,-7,-2,-19,-3c0,0,-12,-2,-29,-2Z" 
id="f2_89"
transform="scale(0.001,-0.001)" />

<path d="M176,-4c0,0,-18,0,-30,2c0,0,-12,1,-19,3c0,0,-7,3,-10,7c0,0,-3,4,-3,10V690c0,0,0,5,3,9c0,0,3,5,10,8c0,0,7,3,19,4c0,0,12,2,30,2c0,0,18,0,30,-2c0,0,12,-1,19,-4c0,0,7,-3,9,-8c0,0,3,-4,3,-9V18c0,0,0,-6,-3,-10c0,0,-2,-4,-9,-7c0,0,-7,-2,-19,-3c0,0,-12,-2,-30,-2Zm-1,846c0,0,-43,0,-59,15c0,0,-16,15,-16,58c0,0,0,43,16,59c0,0,17,16,61,16c0,0,43,0,59,-16c0,0,16,-15,16,-58c0,0,0,-43,-16,-58c0,0,-17,-16,-61,-16Z" 
id="f2_9q"
transform="scale(0.001,-0.001)" />

<path d="M367,-13c0,0,-73,0,-129,23c0,0,-56,24,-93,70c0,0,-38,46,-58,112c0,0,-20,67,-20,154c0,0,0,99,25,171c0,0,24,71,66,116c0,0,42,46,99,68c0,0,58,22,124,22c0,0,32,0,62,-6c0,0,31,-6,56,-16c0,0,25,-10,45,-22c0,0,20,-13,29,-22c0,0,9,-9,12,-14c0,0,3,-5,6,-13c0,0,2,-7,3,-16c0,0,0,-9,0,-22c0,0,0,-29,-6,-41c0,0,-7,-11,-17,-11c0,0,-11,0,-25,12c0,0,-15,12,-37,27c0,0,-23,15,-55,28c0,0,-31,12,-75,12c0,0,-88,0,-136,-68c0,0,-47,-68,-47,-198c0,0,0,-65,12,-114c0,0,12,-49,36,-81c0,0,24,-33,59,-49c0,0,35,-16,79,-16c0,0,43,0,75,13c0,0,32,14,56,30c0,0,23,16,39,29c0,0,16,13,25,13c0,0,5,0,9,-3c0,0,4,-3,7,-10c0,0,2,-7,3,-18c0,0,1,-11,1,-26c0,0,0,-12,0,-22c0,0,-1,-9,-3,-15c0,0,-2,-7,-4,-12c0,0,-3,-4,-12,-14c0,0,-10,-9,-32,-23c0,0,-22,-14,-50,-24C496,11,468,0,435,-6c0,0,-33,-7,-68,-7Z" 
id="f2_7l"
transform="scale(0.001,-0.001)" />

<path d="M346,-177c0,0,56,0,94,11c0,0,37,11,60,28c0,0,24,18,34,41c0,0,10,23,10,49c0,0,0,43,-36,65c0,0,-35,23,-95,25L239,48c0,0,-24,-19,-39,-35c0,0,-15,-16,-24,-31c0,0,-9,-16,-12,-30c0,0,-4,-15,-4,-31c0,0,0,-48,49,-73c0,0,50,-25,137,-25Zm-6,512c0,0,36,0,63,12c0,0,27,12,44,32c0,0,18,21,26,48c0,0,9,27,9,56c0,0,0,69,-38,107c0,0,-37,39,-107,39c0,0,-35,0,-62,-12c0,0,-26,-12,-44,-33c0,0,-17,-21,-26,-48c0,0,-8,-28,-8,-58c0,0,0,-66,37,-104c0,0,38,-39,106,-39Zm0,-606c0,0,-81,0,-138,14c0,0,-57,14,-94,38c0,0,-36,24,-52,57c0,0,-17,33,-17,72c0,0,0,24,6,47c0,0,6,24,18,43c0,0,13,21,31,40c0,0,18,19,42,38c0,0,-36,19,-54,47c0,0,-17,28,-17,61c0,0,0,45,18,81c0,0,19,36,46,64c0,0,-23,28,-36,62c0,0,-14,35,-14,84c0,0,0,58,20,104c0,0,19,45,53,77c0,0,35,31,83,48c0,0,48,17,105,17c0,0,30,0,57,-4c0,0,26,-3,49,-9H649c0,0,13,0,19,-12c0,0,7,-13,7,-38c0,0,0,-26,-7,-37c0,0,-7,-12,-19,-12H553c0,0,26,-27,37,-60c0,0,10,-32,10,-68c0,0,0,-58,-18,-103c0,0,-19,-45,-54,-76c0,0,-34,-31,-82,-47c0,0,-48,-16,-106,-16c0,0,-41,0,-78,10c0,0,-37,11,-57,28c0,0,-14,-14,-22,-31c0,0,-9,-17,-9,-39c0,0,0,-27,24,-44c0,0,25,-17,65,-18l175,-8c0,0,50,-1,92,-14c0,0,41,-12,72,-35c0,0,31,-22,48,-55c0,0,17,-34,17,-76c0,0,0,-47,-20,-88c0,0,-19,-42,-59,-74c0,0,-40,-31,-102,-50c0,0,-61,-18,-146,-18Z" 
id="f2_9d"
transform="scale(0.001,-0.001)" />

<path d="M176,-4c0,0,-18,0,-30,2c0,0,-12,1,-19,3c0,0,-7,3,-10,7c0,0,-3,4,-3,10V690c0,0,0,6,3,10c0,0,2,4,9,7c0,0,6,4,17,5c0,0,10,1,27,1c0,0,17,0,28,-1c0,0,10,-1,16,-5c0,0,6,-3,9,-7c0,0,3,-4,3,-10V601c0,0,56,64,112,94c0,0,57,30,114,30c0,0,67,0,113,-23c0,0,46,-23,74,-61c0,0,29,-38,41,-89c0,0,12,-52,12,-123V18c0,0,0,-6,-3,-10c0,0,-3,-4,-9,-7c0,0,-7,-2,-19,-3c0,0,-12,-2,-30,-2c0,0,-19,0,-30,2c0,0,-12,1,-19,3c0,0,-7,3,-10,7c0,0,-3,4,-3,10V412c0,0,0,58,-9,93c0,0,-9,35,-26,61c0,0,-17,25,-44,38c0,0,-27,14,-63,14c0,0,-46,0,-93,-33c0,0,-46,-33,-97,-96V18c0,0,0,-6,-3,-10c0,0,-2,-4,-9,-7c0,0,-7,-2,-19,-3c0,0,-12,-2,-30,-2Z" 
id="f2_af"
transform="scale(0.001,-0.001)" />

<path d="M324,-4c0,0,-23,0,-37,2c0,0,-15,1,-24,3c0,0,-9,3,-14,8c0,0,-4,6,-7,13L46,660c0,0,-4,11,-5,18c0,0,-2,8,-2,13c0,0,0,7,3,11c0,0,3,4,10,7c0,0,8,2,19,3c0,0,12,1,30,1c0,0,20,0,33,-1c0,0,13,-1,20,-4c0,0,6,-3,9,-8c0,0,3,-4,5,-11L330,136l2,-7l1,7L482,689c0,0,1,7,5,11c0,0,3,5,10,8c0,0,6,3,18,4c0,0,12,1,31,1c0,0,18,0,29,-1c0,0,12,-1,18,-4c0,0,7,-3,10,-7c0,0,3,-5,5,-11L768,136l1,-7l1,7L930,689c0,0,1,7,5,11c0,0,3,5,10,8c0,0,7,3,20,4c0,0,12,1,31,1c0,0,18,0,29,-1c0,0,11,-1,17,-4c0,0,6,-3,9,-6c0,0,3,-4,3,-11c0,0,0,-5,-2,-13c0,0,-1,-7,-5,-18L849,22c0,0,-2,-8,-7,-13c0,0,-5,-6,-13,-9c0,0,-9,-2,-24,-3c0,0,-15,-1,-37,-1c0,0,-23,0,-39,2c0,0,-15,1,-25,3c0,0,-9,3,-14,8c0,0,-4,6,-6,13L543,510l-2,6l-2,-6L409,22c0,0,-3,-8,-7,-13c0,0,-5,-6,-15,-9c0,0,-10,-2,-25,-3c0,0,-15,-1,-38,-1Z" 
id="f2_ci"
transform="scale(0.001,-0.001)" />

<path d="M176,-4c0,0,-18,0,-30,2c0,0,-12,1,-19,3c0,0,-7,3,-10,7c0,0,-3,4,-3,10V690c0,0,0,6,3,10c0,0,2,4,9,7c0,0,6,4,17,5c0,0,10,1,27,1c0,0,17,0,28,-1c0,0,10,-1,16,-5c0,0,6,-3,9,-7c0,0,3,-4,3,-10V601c0,0,56,64,110,94c0,0,53,30,108,30c0,0,42,0,75,-10c0,0,33,-10,58,-28c0,0,26,-17,44,-42c0,0,18,-24,30,-55c0,0,33,37,63,63c0,0,31,26,59,41c0,0,28,16,54,23c0,0,27,8,53,8c0,0,65,0,109,-23c0,0,44,-23,71,-61c0,0,28,-38,39,-89c0,0,12,-52,12,-108V18c0,0,0,-6,-3,-10c0,0,-3,-4,-10,-7c0,0,-7,-2,-19,-3c0,0,-12,-2,-29,-2c0,0,-19,0,-31,2c0,0,-12,1,-19,3c0,0,-7,3,-10,7c0,0,-3,4,-3,10V427c0,0,0,43,-8,78c0,0,-7,35,-23,61c0,0,-17,25,-42,38c0,0,-25,14,-60,14c0,0,-42,0,-85,-33c0,0,-43,-33,-94,-96V18c0,0,0,-6,-3,-10c0,0,-3,-4,-11,-7c0,0,-7,-2,-19,-3c0,0,-11,-2,-29,-2c0,0,-18,0,-30,2c0,0,-12,1,-19,3c0,0,-7,3,-10,7c0,0,-3,4,-3,10V427c0,0,0,43,-8,78c0,0,-8,35,-24,61c0,0,-17,25,-42,38c0,0,-25,14,-59,14c0,0,-43,0,-86,-33c0,0,-44,-33,-95,-96V18c0,0,0,-6,-3,-10c0,0,-2,-4,-9,-7c0,0,-7,-2,-19,-3c0,0,-12,-2,-30,-2Z" 
id="f2_ae"
transform="scale(0.001,-0.001)" />

<path d="M351,-13c0,0,-67,0,-113,22c0,0,-46,22,-75,60c0,0,-28,39,-40,90c0,0,-13,51,-13,124V690c0,0,0,6,3,10c0,0,3,4,10,7c0,0,8,4,20,5c0,0,11,1,29,1c0,0,18,0,30,-1c0,0,12,-1,19,-5c0,0,7,-3,10,-7c0,0,3,-4,3,-10V299c0,0,0,-59,9,-94c0,0,8,-36,26,-61c0,0,18,-24,44,-38c0,0,27,-14,63,-14c0,0,46,0,92,33c0,0,46,32,98,95V690c0,0,0,6,2,10c0,0,3,4,10,7c0,0,8,4,19,5c0,0,12,1,30,1c0,0,18,0,30,-1c0,0,12,-1,19,-5c0,0,7,-3,10,-7c0,0,3,-4,3,-10V18c0,0,0,-6,-2,-10c0,0,-3,-4,-10,-7c0,0,-6,-2,-17,-3c0,0,-11,-2,-27,-2c0,0,-17,0,-28,2c0,0,-10,1,-17,3c0,0,-6,3,-8,7c0,0,-3,4,-3,10v89c0,0,-57,-63,-113,-92c0,0,-56,-28,-113,-28Z" 
id="f2_c6"
transform="scale(0.001,-0.001)" />

<path d="M102,0C102,0,87,0,77,10C77,10,66,21,66,45V71c0,0,0,10,2,18c0,0,1,9,4,17c0,0,3,8,9,17c0,0,5,10,12,22L390,606H102c0,0,-12,0,-19,13c0,0,-7,12,-7,39c0,0,0,14,2,24c0,0,1,10,5,16c0,0,3,7,8,9c0,0,5,3,11,3H487c0,0,9,0,15,-2c0,0,6,-3,11,-8c0,0,4,-5,7,-13c0,0,3,-8,3,-21V642c0,0,0,-10,-2,-19c0,0,-1,-9,-4,-18c0,0,-3,-8,-9,-18c0,0,-5,-10,-12,-22L201,104H516c0,0,6,0,11,-3c0,0,4,-3,8,-9c0,0,3,-6,5,-16c0,0,3,-10,3,-24c0,0,0,-14,-3,-24c0,0,-2,-10,-5,-16c0,0,-3,-7,-8,-9c0,0,-5,-3,-11,-3Z" 
id="f2_ct"
transform="scale(0.001,-0.001)" />

<path d="M431,92c0,0,46,0,79,22c0,0,33,23,53,60c0,0,21,37,30,83c0,0,10,46,10,93c0,0,0,51,-8,100c0,0,-8,49,-28,86c0,0,-19,37,-51,60c0,0,-32,23,-80,23c0,0,-24,0,-47,-7c0,0,-23,-7,-47,-22c0,0,-24,-16,-50,-41c0,0,-25,-24,-55,-62V219c0,0,51,-62,98,-95c0,0,46,-32,96,-32ZM443,-13c0,0,-32,0,-59,7c0,0,-27,6,-53,19c0,0,-26,14,-52,36c0,0,-27,22,-56,52V18c0,0,0,-6,-3,-10c0,0,-3,-5,-9,-7c0,0,-7,-2,-17,-3c0,0,-10,-2,-26,-2c0,0,-15,0,-25,2c0,0,-11,1,-17,3c0,0,-7,2,-9,7c0,0,-3,4,-3,10v997c0,0,0,6,3,11c0,0,3,4,10,7c0,0,7,3,19,5c0,0,12,1,30,1c0,0,18,0,30,-1c0,0,12,-2,19,-5c0,0,7,-3,9,-7c0,0,3,-5,3,-10V614c0,0,30,31,58,52c0,0,28,20,55,34c0,0,27,13,54,19c0,0,27,6,57,6c0,0,73,0,125,-30c0,0,52,-29,84,-78c0,0,32,-48,47,-114c0,0,15,-66,15,-139c0,0,0,-87,-19,-157c0,0,-19,-70,-56,-119c0,0,-37,-49,-90,-76c0,0,-54,-25,-124,-25Z" 
id="f2_7k"
transform="scale(0.001,-0.001)" />

<path d="M192,-6c0,0,-45,0,-62,16c0,0,-18,18,-18,69c0,0,0,53,18,71c0,0,18,17,64,17c0,0,45,0,62,-17c0,0,17,-17,17,-69c0,0,0,-53,-18,-70c0,0,-17,-17,-63,-17Z" 
id="f2_nt"
transform="scale(0.001,-0.001)" />

<path d="M604,356L436,837h-1L269,356ZM87,-4c0,0,-22,0,-36,2C51,-2,37,0,32,4c0,0,-6,5,-6,15c0,0,1,10,7,27L357,943c0,0,3,8,7,13c0,0,5,6,15,9c0,0,9,3,23,4c0,0,15,1,37,1c0,0,24,0,40,-1c0,0,16,-1,25,-4c0,0,10,-3,15,-9c0,0,5,-5,8,-14L851,45c0,0,6,-16,7,-26c0,0,0,-10,-6,-16c0,0,-6,-4,-20,-5c0,0,-14,-2,-37,-2c0,0,-23,0,-37,1c0,0,-14,1,-21,3c0,0,-7,3,-10,7c0,0,-3,5,-6,11L638,253H236L157,21c0,0,-2,-6,-6,-11c0,0,-3,-5,-10,-9c0,0,-7,-2,-21,-3c0,0,-13,-2,-33,-2Z" 
id="f2_5"
transform="scale(0.001,-0.001)" />

<path d="M20,368c0,0,-14,0,-20,13c0,0,-7,13,-7,41c0,0,0,28,7,41c0,0,6,13,20,13H736c0,0,7,0,13,-3c0,0,5,-4,9,-10c0,0,3,-6,5,-16c0,0,2,-10,2,-25c0,0,0,-28,-7,-41c0,0,-8,-13,-22,-13Z" 
id="f3_ol"
transform="scale(0.001,-0.001)" />

<path d="M176,0c0,0,-17,0,-33,12c0,0,-15,11,-15,40V946c0,0,0,6,3,11c0,0,3,4,11,7c0,0,7,2,20,4c0,0,12,2,30,2c0,0,19,0,31,-2c0,0,13,-2,20,-4c0,0,7,-3,10,-7c0,0,3,-5,3,-11V111H603c0,0,6,0,11,-3c0,0,5,-3,8,-10c0,0,4,-6,5,-16c0,0,2,-11,2,-26c0,0,0,-15,-2,-25c0,0,-1,-10,-5,-17c0,0,-3,-7,-8,-11c0,0,-5,-3,-11,-3Z" 
id="f2_1r"
transform="scale(0.001,-0.001)" />

<path d="M252,-271c0,0,-19,0,-31,2c0,0,-12,2,-18,6c0,0,-7,5,-8,12c0,0,0,8,4,18L292,0c0,0,-7,3,-13,10c0,0,-6,6,-8,14L31,665c0,0,-6,16,-6,25c0,0,0,9,6,14c0,0,6,5,20,7c0,0,13,2,36,2c0,0,22,0,35,-1c0,0,12,-1,20,-4c0,0,7,-3,11,-9c0,0,3,-6,7,-15L351,145h3L539,687c0,0,4,14,10,18c0,0,7,4,19,6c0,0,13,2,37,2c0,0,21,0,34,-2c0,0,14,-2,20,-7c0,0,6,-5,6,-14c0,0,0,-9,-4,-23L420,0L330,-246c0,0,-4,-12,-22,-18c0,0,-19,-7,-56,-7Z" 
id="f2_co"
transform="scale(0.001,-0.001)" />

<path d="M337,115c0,0,39,0,73,21c0,0,33,20,67,59V308H405c0,0,-45,0,-77,-7c0,0,-32,-6,-53,-20c0,0,-20,-13,-29,-32c0,0,-9,-19,-9,-44c0,0,0,-42,26,-66c0,0,27,-24,74,-24ZM296,-17c0,0,-53,0,-98,14c0,0,-44,13,-77,40c0,0,-32,28,-50,68c0,0,-18,40,-18,94c0,0,0,58,23,101c0,0,22,43,68,71c0,0,45,28,112,42c0,0,67,13,156,13h65v40c0,0,0,32,-6,55c0,0,-7,24,-21,39c0,0,-15,16,-39,23c0,0,-24,8,-60,8c0,0,-47,0,-84,-11c0,0,-37,-10,-66,-23c0,0,-28,-13,-47,-23c0,0,-19,-11,-31,-11c0,0,-9,0,-15,5c0,0,-6,6,-10,15c0,0,-5,10,-7,24c0,0,-2,14,-2,31c0,0,0,23,4,37c0,0,3,13,14,24c0,0,10,11,36,24c0,0,27,13,62,25c0,0,35,11,76,18c0,0,42,7,86,7c0,0,78,0,134,-15c0,0,55,-15,91,-47c0,0,36,-32,53,-82c0,0,16,-50,16,-118V23c0,0,0,-11,-7,-17c0,0,-8,-6,-24,-7c0,0,-16,-3,-47,-3c0,0,-34,0,-49,3c0,0,-15,1,-21,7c0,0,-7,6,-7,17V76C506,76,465,32,412,7c0,0,-52,-24,-116,-24Z" 
id="f0_77"
transform="scale(0.001,-0.001)" />

<path d="M334,-17c0,0,-69,0,-115,22c0,0,-47,22,-76,61c0,0,-28,39,-41,90c0,0,-12,51,-12,127V691c0,0,0,7,4,13c0,0,4,5,15,9c0,0,11,4,29,6c0,0,19,2,45,2c0,0,28,0,46,-2c0,0,18,-2,29,-6c0,0,11,-4,15,-9c0,0,5,-6,5,-13V314c0,0,0,-52,6,-79c0,0,7,-28,21,-48c0,0,14,-20,35,-30c0,0,21,-11,49,-11c0,0,36,0,72,26c0,0,36,26,77,76V691c0,0,0,7,4,13c0,0,4,5,15,9c0,0,11,4,29,6c0,0,18,2,45,2c0,0,28,0,46,-2c0,0,18,-2,28,-6c0,0,11,-4,15,-9c0,0,5,-6,5,-13V25c0,0,0,-8,-4,-13c0,0,-4,-6,-13,-9c0,0,-10,-3,-25,-5c0,0,-15,-2,-38,-2c0,0,-25,0,-40,2c0,0,-16,2,-25,5c0,0,-9,3,-12,9c0,0,-4,5,-4,13v77c0,0,-55,-60,-112,-90c0,0,-57,-29,-118,-29Z" 
id="f0_c6"
transform="scale(0.001,-0.001)" />

<path d="M344,-14c0,0,-56,0,-97,14c0,0,-42,14,-69,43c0,0,-26,29,-39,74c0,0,-13,45,-13,106V563H47c0,0,-15,0,-22,18c0,0,-7,17,-7,58c0,0,0,22,1,37c0,0,2,15,6,24c0,0,4,8,9,12c0,0,6,4,13,4h79V864c0,0,0,8,4,14c0,0,4,6,15,10c0,0,11,4,29,6c0,0,19,2,46,2c0,0,27,0,46,-2c0,0,18,-2,28,-6c0,0,11,-4,15,-10c0,0,5,-6,5,-14V716H459c0,0,7,0,13,-4c0,0,6,-4,9,-12c0,0,4,-9,6,-24c0,0,2,-15,2,-37c0,0,0,-41,-8,-58c0,0,-7,-18,-21,-18H314V251c0,0,0,-54,17,-81c0,0,17,-27,61,-27c0,0,15,0,27,2c0,0,12,3,22,6c0,0,9,4,15,6c0,0,7,3,12,3c0,0,4,0,9,-3c0,0,4,-2,6,-10c0,0,2,-8,4,-21c0,0,2,-14,2,-35c0,0,0,-33,-4,-50c0,0,-4,-18,-11,-25c0,0,-7,-7,-20,-12c0,0,-13,-5,-31,-9c0,0,-17,-4,-38,-6c0,0,-20,-3,-41,-3Z" 
id="f0_bf"
transform="scale(0.001,-0.001)" />

<path d="M188,-4c0,0,-28,0,-46,2c0,0,-18,2,-28,5c0,0,-11,3,-16,9c0,0,-4,5,-4,13V691c0,0,0,7,4,13c0,0,3,5,13,9c0,0,10,4,25,6c0,0,15,2,38,2c0,0,24,0,40,-2c0,0,15,-2,24,-6c0,0,9,-4,12,-9c0,0,4,-6,4,-13V614c0,0,55,60,112,89c0,0,57,30,119,30c0,0,68,0,115,-22c0,0,47,-22,75,-61c0,0,29,-38,42,-90c0,0,12,-51,12,-124V25c0,0,0,-8,-4,-13c0,0,-5,-6,-15,-9c0,0,-10,-3,-29,-5c0,0,-18,-2,-45,-2c0,0,-28,0,-46,2c0,0,-18,2,-29,5c0,0,-10,3,-15,9c0,0,-4,6,-4,13V405c0,0,0,49,-7,76c0,0,-7,28,-21,48c0,0,-13,19,-35,30c0,0,-21,11,-49,11c0,0,-36,0,-72,-26c0,0,-37,-26,-76,-76V25c0,0,0,-7,-5,-13c0,0,-4,-6,-15,-9c0,0,-11,-3,-29,-5c0,0,-18,-2,-45,-2Z" 
id="f0_af"
transform="scale(0.001,-0.001)" />

<path d="M345,-143c0,0,43,0,72,9c0,0,29,8,47,23c0,0,18,14,25,31c0,0,8,18,8,37c0,0,0,33,-27,50c0,0,-27,18,-74,20L263,30C263,30,243,16,232,3c0,0,-12,-12,-19,-24c0,0,-7,-12,-9,-23c0,0,-3,-11,-3,-23c0,0,0,-37,38,-56c0,0,38,-20,106,-20Zm-4,517c0,0,28,0,49,9c0,0,21,9,35,25c0,0,14,16,21,36c0,0,7,21,7,43c0,0,0,54,-30,84c0,0,-30,29,-84,29c0,0,-28,0,-49,-9c0,0,-21,-9,-34,-25c0,0,-14,-16,-21,-38c0,0,-7,-21,-7,-44c0,0,0,-51,30,-80c0,0,30,-30,83,-30Zm-4,-645c0,0,-85,0,-145,14c0,0,-60,13,-98,37c0,0,-39,24,-56,57c0,0,-18,33,-18,73c0,0,0,24,6,47c0,0,7,22,19,42c0,0,12,20,30,39c0,0,18,18,41,35c0,0,-32,18,-49,47c0,0,-18,29,-18,64c0,0,0,44,20,80c0,0,21,36,53,65c0,0,-27,26,-42,63c0,0,-16,37,-16,91c0,0,0,58,21,104c0,0,20,46,57,78c0,0,36,32,87,49c0,0,51,16,112,16c0,0,31,0,60,-3c0,0,29,-4,53,-11H665c0,0,13,0,21,-17c0,0,8,-16,8,-55c0,0,0,-36,-8,-53c0,0,-9,-17,-21,-17H587c0,0,17,-18,24,-41c0,0,7,-22,7,-47c0,0,0,-58,-20,-103c0,0,-19,-45,-55,-76c0,0,-36,-31,-88,-47c0,0,-51,-17,-113,-17c0,0,-32,0,-61,8c0,0,-30,8,-45,19c0,0,-9,-10,-16,-23c0,0,-7,-14,-7,-30c0,0,0,-22,19,-36c0,0,19,-13,53,-15l162,-6c0,0,57,-2,101,-16c0,0,44,-14,75,-39c0,0,30,-24,46,-59c0,0,16,-35,16,-79c0,0,0,-49,-22,-93c0,0,-21,-44,-65,-76c0,0,-43,-32,-108,-50c0,0,-66,-19,-153,-19Z" 
id="f0_9d"
transform="scale(0.001,-0.001)" />

<path d="M482,-11c0,0,-94,0,-170,31c0,0,-76,31,-129,92c0,0,-53,61,-82,151c0,0,-29,90,-29,207c0,0,0,120,31,214c0,0,31,94,87,159c0,0,56,65,134,100c0,0,78,34,173,34c0,0,41,0,81,-8c0,0,39,-8,73,-19c0,0,33,-12,60,-28c0,0,26,-15,36,-25c0,0,10,-10,13,-15c0,0,3,-6,5,-13c0,0,1,-7,3,-17c0,0,1,-9,1,-23c0,0,0,-15,-2,-25c0,0,-1,-11,-4,-18c0,0,-3,-7,-7,-10c0,0,-4,-4,-10,-4c0,0,-11,0,-30,15c0,0,-18,14,-48,32c0,0,-29,17,-71,32c0,0,-42,14,-101,14c0,0,-64,0,-117,-25c0,0,-52,-26,-90,-76c0,0,-37,-50,-57,-122c0,0,-21,-72,-21,-164c0,0,0,-92,20,-163c0,0,20,-70,57,-117c0,0,36,-48,90,-72c0,0,54,-24,122,-24c0,0,57,0,100,14c0,0,43,14,73,32c0,0,30,17,50,31c0,0,19,15,30,15c0,0,5,0,9,-3c0,0,4,-2,6,-8c0,0,2,-7,3,-18c0,0,2,-11,2,-28c0,0,0,-12,-1,-21c0,0,-1,-9,-3,-16c0,0,-2,-6,-5,-12c0,0,-3,-5,-10,-12c0,0,-8,-8,-31,-23c0,0,-24,-15,-60,-30C663,23,628,8,582,-1c0,0,-46,-10,-100,-10Z" 
id="f2_j"
transform="scale(0.001,-0.001)" />

<path d="M189,-4c0,0,-18,0,-30,2c0,0,-12,2,-18,3c0,0,-7,3,-10,8c0,0,-3,5,-3,10V910c0,0,0,30,17,42c0,0,16,13,35,13h62c0,0,21,0,36,-4c0,0,14,-3,26,-12c0,0,11,-9,22,-24c0,0,11,-15,24,-38L584,463c0,0,21,-39,42,-76c0,0,20,-37,38,-73c0,0,19,-35,37,-70c0,0,19,-35,36,-70h1c0,0,-1,59,-2,123c0,0,0,64,0,123V944c0,0,0,5,3,10c0,0,3,4,10,8c0,0,7,3,19,5c0,0,11,1,30,1c0,0,16,0,28,-1c0,0,12,-2,19,-5c0,0,7,-4,10,-8c0,0,3,-5,3,-10V53c0,0,0,-15,-5,-25c0,0,-5,-11,-13,-17c0,0,-8,-7,-18,-10c0,0,-9,-2,-19,-2H762c0,0,-19,0,-34,3c0,0,-14,4,-27,15c0,0,-14,11,-27,29c0,0,-13,19,-28,48L342,643c0,0,-24,42,-49,89c0,0,-24,47,-45,91h-1c0,0,1,-54,2,-110c0,0,1,-56,1,-111V19c0,0,0,-5,-3,-10c0,0,-3,-5,-10,-8c0,0,-7,-1,-19,-3c0,0,-12,-2,-29,-2Z" 
id="f2_1y"
transform="scale(0.001,-0.001)" />

<path d="M188,-4c0,0,-28,0,-46,2c0,0,-18,2,-28,5c0,0,-11,3,-16,9c0,0,-4,5,-4,13v981c0,0,0,8,4,14c0,0,5,6,16,10c0,0,10,4,28,6c0,0,18,2,46,2c0,0,27,0,45,-2c0,0,18,-2,29,-6c0,0,11,-4,15,-10c0,0,5,-6,5,-14V25c0,0,0,-8,-5,-13c0,0,-4,-6,-15,-9c0,0,-11,-3,-29,-5c0,0,-18,-2,-45,-2Z" 
id="f0_a8"
transform="scale(0.001,-0.001)" />

<path d="M526,431c0,0,2,79,-32,124c0,0,-34,45,-105,45c0,0,-35,0,-62,-13c0,0,-26,-13,-44,-36c0,0,-17,-23,-27,-54c0,0,-9,-31,-11,-66ZM410,-17c0,0,-88,0,-155,22c0,0,-67,22,-112,68c0,0,-44,45,-66,115c0,0,-22,69,-22,162c0,0,0,89,23,161c0,0,23,71,67,120c0,0,44,50,107,76c0,0,63,26,142,26c0,0,84,0,143,-24c0,0,59,-25,97,-69c0,0,38,-43,56,-103c0,0,18,-60,18,-130V377c0,0,0,-34,-15,-51c0,0,-16,-16,-43,-16H245c0,0,0,-43,10,-77c0,0,11,-35,33,-59c0,0,22,-24,56,-37c0,0,35,-13,83,-13c0,0,50,0,87,7c0,0,37,8,65,16c0,0,27,9,45,16c0,0,18,7,29,7c0,0,6,0,11,-2c0,0,4,-3,7,-10c0,0,3,-7,4,-19c0,0,2,-12,2,-31c0,0,0,-16,-1,-28c0,0,-1,-12,-2,-20c0,0,-2,-8,-5,-14c0,0,-3,-5,-8,-10c0,0,-5,-6,-26,-15c0,0,-22,-9,-55,-17c0,0,-34,-8,-77,-14c0,0,-43,-7,-93,-7Z" 
id="f0_7z"
transform="scale(0.001,-0.001)" />

<path d="M188,-4c0,0,-28,0,-46,2c0,0,-18,2,-28,5c0,0,-11,3,-16,9c0,0,-4,5,-4,13V691c0,0,0,7,4,13c0,0,3,5,13,9c0,0,10,4,25,6c0,0,15,2,38,2c0,0,24,0,40,-2c0,0,15,-2,24,-6c0,0,9,-4,12,-9c0,0,4,-6,4,-13V614c0,0,55,60,110,89c0,0,55,30,115,30c0,0,41,0,74,-8c0,0,33,-9,59,-25c0,0,26,-16,44,-38c0,0,19,-23,32,-50c0,0,30,32,58,55c0,0,29,23,57,38c0,0,28,14,56,21c0,0,28,7,57,7c0,0,66,0,112,-22c0,0,45,-22,73,-61c0,0,28,-38,40,-90c0,0,12,-51,12,-109V25c0,0,0,-8,-5,-13c0,0,-4,-6,-15,-9c0,0,-10,-3,-28,-5c0,0,-18,-2,-46,-2c0,0,-28,0,-46,2c0,0,-18,2,-29,5c0,0,-11,3,-15,9c0,0,-4,6,-4,13V420c0,0,0,34,-6,61c0,0,-7,28,-20,48c0,0,-13,19,-32,30c0,0,-20,11,-47,11c0,0,-34,0,-68,-26c0,0,-34,-26,-74,-76V25c0,0,0,-7,-5,-13c0,0,-4,-6,-15,-9c0,0,-11,-3,-29,-5c0,0,-18,-2,-45,-2c0,0,-27,0,-45,2c0,0,-18,2,-29,5c0,0,-11,3,-16,9c0,0,-4,6,-4,13V420c0,0,0,34,-6,61c0,0,-7,28,-19,48c0,0,-13,19,-33,30c0,0,-21,11,-48,11c0,0,-34,0,-68,-26c0,0,-35,-26,-74,-76V25c0,0,0,-7,-5,-13c0,0,-4,-6,-15,-9c0,0,-11,-3,-29,-5c0,0,-18,-2,-45,-2Z" 
id="f0_ae"
transform="scale(0.001,-0.001)" />

<path d="M409,132c0,0,42,0,73,15c0,0,32,16,52,45c0,0,20,29,29,70c0,0,10,42,10,95c0,0,0,49,-8,91c0,0,-8,41,-26,72c0,0,-19,30,-50,48c0,0,-30,17,-77,17c0,0,-42,0,-73,-16c0,0,-31,-15,-51,-44c0,0,-21,-30,-31,-71c0,0,-10,-42,-10,-95c0,0,0,-49,9,-91c0,0,8,-41,26,-72c0,0,18,-30,49,-47c0,0,32,-17,78,-17ZM402,-17c0,0,-89,0,-154,24c0,0,-66,25,-109,72c0,0,-43,47,-64,115c0,0,-21,69,-21,157c0,0,0,85,23,156c0,0,22,70,68,121c0,0,45,50,113,78c0,0,69,27,160,27c0,0,90,0,155,-24c0,0,66,-24,109,-71c0,0,43,-47,64,-116c0,0,21,-69,21,-157c0,0,0,-86,-23,-156c0,0,-22,-70,-68,-121C676,88,631,38,562,10c0,0,-68,-27,-160,-27Z" 
id="f0_am"
transform="scale(0.001,-0.001)" />

<path d="M380,142c0,0,19,0,37,5c0,0,19,6,38,19c0,0,19,12,39,33c0,0,20,20,44,50V470c0,0,-40,50,-77,77c0,0,-37,27,-77,27c0,0,-37,0,-63,-18c0,0,-27,-19,-43,-49c0,0,-16,-31,-24,-68c0,0,-8,-38,-8,-77c0,0,0,-42,7,-82c0,0,7,-39,22,-70c0,0,15,-31,41,-50c0,0,25,-18,64,-18ZM333,-17c0,0,-76,0,-129,29c0,0,-52,29,-85,79c0,0,-33,50,-48,117c0,0,-15,67,-15,141c0,0,0,89,19,160c0,0,19,71,55,121c0,0,37,50,91,76c0,0,55,27,125,27c0,0,56,0,102,-22c0,0,45,-23,90,-67v360c0,0,0,8,4,14c0,0,4,6,15,10c0,0,11,4,29,6c0,0,18,2,45,2c0,0,28,0,46,-2c0,0,18,-2,28,-6c0,0,11,-4,15,-10c0,0,5,-6,5,-14V25c0,0,0,-8,-4,-14c0,0,-4,-5,-13,-9c0,0,-9,-3,-24,-4c0,0,-15,-2,-38,-2c0,0,-24,0,-39,2c0,0,-15,1,-24,4c0,0,-9,4,-13,9c0,0,-5,6,-5,14V99C565,99,514,44,458,13c0,0,-57,-30,-125,-30Z" 
id="f0_7v"
transform="scale(0.001,-0.001)" />

<path d="M188,-4c0,0,-28,0,-46,2c0,0,-18,2,-28,5c0,0,-11,3,-16,9c0,0,-4,5,-4,13V691c0,0,0,7,4,13c0,0,3,5,13,9c0,0,10,4,25,6c0,0,15,2,38,2c0,0,24,0,40,-2c0,0,15,-2,24,-6c0,0,9,-4,12,-9c0,0,4,-6,4,-13V608c0,0,26,37,49,61c0,0,23,25,44,39c0,0,21,14,42,20c0,0,21,5,42,5c0,0,10,0,21,-1c0,0,11,-1,23,-4c0,0,12,-2,21,-5c0,0,9,-4,13,-8c0,0,4,-3,6,-8c0,0,2,-4,3,-12c0,0,2,-8,2,-24c0,0,1,-15,1,-42c0,0,0,-27,-1,-44c0,0,-2,-17,-5,-27c0,0,-3,-10,-8,-13c0,0,-5,-4,-12,-4c0,0,-6,0,-13,3c0,0,-8,2,-17,5c0,0,-10,3,-21,6c0,0,-11,2,-24,2c0,0,-16,0,-32,-6c0,0,-15,-6,-32,-20c0,0,-17,-13,-35,-36c0,0,-19,-22,-39,-55V25c0,0,0,-8,-5,-13c0,0,-4,-6,-15,-9c0,0,-11,-3,-29,-5c0,0,-18,-2,-45,-2Z" 
id="f0_b1"
transform="scale(0.001,-0.001)" />

<path d="M423,92c0,0,97,0,159,62c0,0,62,62,62,157c0,0,0,97,-64,160c0,0,-64,64,-161,64c0,0,-96,0,-158,-63c0,0,-62,-62,-62,-156c0,0,0,-58,27,-111c0,0,27,-54,81,-84c0,0,54,-29,116,-29Zm0,552c0,0,78,0,127,49c0,0,49,49,49,120c0,0,0,74,-50,124c0,0,-51,51,-128,51c0,0,-77,0,-127,-50c0,0,-51,-49,-51,-118c0,0,0,-77,50,-126c0,0,50,-50,130,-50ZM422,-18c0,0,-162,0,-261,95c0,0,-99,96,-99,239c0,0,0,107,54,179c0,0,54,72,154,98c0,0,-84,31,-124,87c0,0,-40,57,-40,136c0,0,0,119,85,201c0,0,86,81,229,81c0,0,143,0,230,-83c0,0,87,-83,87,-203c0,0,0,-76,-40,-132c0,0,-39,-56,-121,-87c0,0,101,-33,154,-106c0,0,52,-73,52,-174c0,0,0,-141,-99,-236c0,0,-99,-95,-261,-95Z" 
id="f4_s"
transform="scale(0.001,-0.001)" />


</defs>
</svg>