<?xml version="1.0" encoding="UTF-8" standalone="no"?>
<!DOCTYPE svg PUBLIC "-//W3C//DTD SVG 1.1//EN"
"http://www.w3.org/Graphics/SVG/1.1/DTD/svg11.dtd">
<svg viewBox="0 0 909 1286" version="1.1" xmlns="http://www.w3.org/2000/svg" xmlns:xlink="http://www.w3.org/1999/xlink">
<defs>
<style type="text/css"><![CDATA[
.g0_14{
fill: #FFFFFF;
}
]]></style>
</defs>
<path fill-rule="evenodd" d="M52.8,396.8H857.2V55H52.8V396.8Z" class="g0_14" />
<path fill-rule="evenodd" d="M80.3,659.4H857.2V418.1H80.3V659.4Z" class="g0_14" />
<path fill-rule="evenodd" d="M80.3,701.2H857.2V659.4H80.3v41.8Z" class="g0_14" />
<path fill-rule="evenodd" d="M80.3,1171.5H857.2V701.2H80.3v470.3Z" class="g0_14" />
<path fill-rule="evenodd" d="M80.3,1213.3H857.2v-41.8H80.3v41.8Z" class="g0_14" />
<image preserveAspectRatio="none" x="57" y="55" width="709" height="341" xlink:href="img/1.png" />
<image preserveAspectRatio="none" x="85" y="418" width="537" height="220" xlink:href="img/2.png" />
<image preserveAspectRatio="none" x="85" y="701" width="576" height="449" xlink:href="img/3.png" />
<g fill="#000000" >
<use xlink:href="#f0_l" transform="matrix(8,0,0,8,786.1,1264.1)" />
<use xlink:href="#f0_o" transform="matrix(8,0,0,8,792.9,1264.1)" />
</g>
<defs>
<path d="M435,0V856c0,0,-48,-47,-127,-93c0,0,-79,-46,-142,-69V824c0,0,113,52,197,128c0,0,85,75,120,146h86V0Z" 
id="f0_l"
transform="scale(0.001,-0.001)" />

<path d="M494,385V878L152,385ZM494,0V262H20V385l498,708H628V385H775V262H628V0Z" 
id="f0_o"
transform="scale(0.001,-0.001)" />


</defs>
</svg>